<svg width="560" height="560" viewBox="0 0 560 560" fill="none" xmlns="http://www.w3.org/2000/svg">
<path fill-rule="evenodd" clip-rule="evenodd" d="M139.999 58.3333C120.669 58.3333 104.999 74.0033 104.999 93.3333V466.667C104.999 485.996 120.669 501.667 139.999 501.667H419.999C439.329 501.667 454.999 485.996 454.999 466.667V208.13C454.999 197.913 450.536 188.206 442.777 181.556L308.846 66.7595C302.504 61.3221 294.424 58.3333 286.071 58.3333H139.999ZM81.666 93.3333C81.666 61.1168 107.783 35 139.999 35H286.071C299.994 35 313.459 39.9812 324.032 49.0434L457.963 163.84C470.892 174.923 478.333 191.101 478.333 208.13V466.667C478.333 498.883 452.216 525 419.999 525H139.999C107.783 525 81.666 498.883 81.666 466.667V93.3333Z" fill="black"/>
<path fill-rule="evenodd" clip-rule="evenodd" d="M291.666 140.001V58.334H314.999V140.001C314.999 159.331 330.67 175.001 349.999 175.001H454.999V198.334H349.999C317.783 198.334 291.666 172.217 291.666 140.001Z" fill="black"/>
<path fill-rule="evenodd" clip-rule="evenodd" d="M373.333 454.999H186.666V431.666H373.333V454.999Z" fill="black"/>
<path fill-rule="evenodd" clip-rule="evenodd" d="M291.665 373.334V233.334H268.332V373.334H291.665Z" fill="black"/>
<path fill-rule="evenodd" clip-rule="evenodd" d="M271.75 381.583C276.305 386.138 283.692 386.138 288.249 381.583L358.249 311.583L341.75 295.082L279.999 356.834L218.249 295.082L201.75 311.583L271.75 381.583Z" fill="black"/>
</svg>
