<svg width="512" height="512" viewBox="0 0 512 512" fill="none" xmlns="http://www.w3.org/2000/svg">
<mask id="mask0_1815_2" style="mask-type:luminance" maskUnits="userSpaceOnUse" x="138" y="193" width="374" height="245">
<path d="M145.965 200.906H503.977V430.001H145.965V200.906Z" fill="white" stroke="white" stroke-width="15"/>
</mask>
<g mask="url(#mask0_1815_2)">
<path d="M391.241 201.548C357.446 200.919 326.936 214.981 305.625 237.754C296.093 247.941 299.069 264.479 311.425 270.959C319.88 275.385 330.362 273.845 336.88 266.891C349.928 252.971 368.493 244.259 389.085 244.259C429.154 244.259 461.524 277.194 460.626 317.455C460.036 344.347 444.063 368.737 419.852 380.451C383.44 398.067 347.003 374.908 315.171 357.998C269.534 333.762 223.91 309.513 178.273 285.277C168.048 279.837 155.346 283.763 149.957 294.027C144.633 304.15 148.443 316.672 158.502 322.125C172.384 329.644 189.32 339.523 192.207 341.037C210.798 350.788 229.389 360.539 247.98 370.29C270.881 382.299 293.616 394.68 316.775 406.227C340.164 417.889 362.347 430.142 389.085 430.142C453.146 430.142 504.903 377.436 503.363 313.029C501.901 252.175 452.107 202.664 391.241 201.548Z" stroke="black" stroke-width="15"/>
</g>
<mask id="mask1_1815_2" style="mask-type:luminance" maskUnits="userSpaceOnUse" x="0" y="193" width="374" height="245">
<path d="M8.02148 200.906H366.034V430.001H8.02148V200.906Z" fill="white" stroke="white" stroke-width="15"/>
</mask>
<g mask="url(#mask1_1815_2)">
<path d="M120.665 430.122C154.46 430.751 184.97 416.689 206.281 393.915C215.814 383.728 212.837 367.19 200.482 360.711L199.802 360.364C191.5 356.015 181.442 357.94 175.027 364.778C161.978 378.699 143.413 387.41 122.821 387.41C82.7522 387.41 50.3818 354.475 51.2799 314.214C51.8701 287.322 67.8436 262.932 92.0541 251.218C128.466 233.603 164.904 256.761 196.735 273.671C242.372 297.907 287.996 322.156 333.633 346.392C343.858 351.832 356.56 347.906 361.949 337.642C367.273 327.519 363.463 314.997 353.404 309.544C339.522 302.026 322.586 292.147 319.699 290.633C301.108 280.882 282.517 271.131 263.927 261.38C241.025 249.371 218.29 236.99 195.131 225.443C171.742 213.78 149.559 201.527 122.821 201.527C58.7598 201.527 7.00307 254.234 8.55552 318.641C10.0053 379.494 59.7991 429.006 120.665 430.122Z" stroke="black" stroke-width="15"/>
</g>
<path d="M332.412 58.4965C323.371 58.4965 316.014 65.8558 316.014 74.8967C316.014 76.0074 316.126 77.1119 316.35 78.1854L288.011 95.9755L268.421 58.0684C270.593 55.2637 271.803 51.795 271.803 48.1091C271.803 39.0683 264.447 31.709 255.406 31.709C246.365 31.709 239.009 39.0683 239.009 48.1091C239.009 51.795 240.219 55.2637 242.391 58.0684L222.801 95.9755L194.462 78.1854C194.686 77.1119 194.797 76.0074 194.797 74.8967C194.797 65.8558 187.441 58.4965 178.4 58.4965C169.356 58.4965 162 65.8558 162 74.8967C162 82.467 167.16 88.852 174.147 90.7322L182.148 149.408C182.576 152.56 185.266 154.906 188.443 154.906H322.369C325.546 154.906 328.236 152.56 328.664 149.408L336.665 90.7322C343.652 88.852 348.812 82.467 348.812 74.8967C348.812 65.8558 341.456 58.4965 332.412 58.4965ZM181.382 77.0375C181.031 77.5277 180.758 78.0613 180.56 78.6198C180.156 78.5515 179.747 78.5205 179.343 78.5205C179.024 78.5205 178.707 78.5391 178.4 78.5825C176.365 78.5825 174.708 76.932 174.708 74.8967C174.708 72.8614 176.365 71.2046 178.4 71.2046C180.435 71.2046 182.089 72.8614 182.089 74.8967C182.089 75.6599 181.85 76.3797 181.382 77.0375ZM255.406 44.4171C257.441 44.4171 259.095 46.0739 259.095 48.1091C259.095 49.3874 258.415 50.5602 257.28 51.2427C256.523 51.7019 255.893 52.2914 255.406 52.9678C254.919 52.2914 254.289 51.7019 253.532 51.2427C252.396 50.5602 251.717 49.3874 251.717 48.1091C251.717 46.0739 253.371 44.4171 255.406 44.4171ZM316.821 142.198H193.991L186.637 88.275L221.895 110.409C223.4 111.358 225.23 111.625 226.949 111.159C228.662 110.688 230.101 109.528 230.917 107.945L255.406 60.5628L279.894 107.945C280.71 109.528 282.15 110.688 283.863 111.159C285.585 111.625 287.412 111.358 288.917 110.409L324.174 88.275L316.821 142.198ZM331.943 78.5081C331.648 78.4646 331.354 78.446 331.062 78.446C330.777 78.446 330.491 78.4646 330.209 78.5019C330.016 77.9869 329.756 77.4966 329.43 77.0375C328.962 76.3797 328.723 75.6599 328.723 74.8967C328.723 72.8614 330.376 71.2046 332.412 71.2046C334.447 71.2046 336.104 72.8614 336.104 74.8967C336.104 76.9258 334.438 78.4771 331.943 78.5081Z" fill="black"/>
<path d="M322.381 167.049H188.456C184.947 167.049 182.102 169.891 182.102 173.403V198.819C182.102 202.331 184.947 205.173 188.456 205.173H322.381C325.89 205.173 328.735 202.331 328.735 198.819V173.403C328.735 169.891 325.89 167.049 322.381 167.049ZM316.027 192.465H194.81V179.757H316.027V192.465Z" fill="black"/>
</svg>
