<svg width="512" height="513" viewBox="0 0 512 513" fill="none" xmlns="http://www.w3.org/2000/svg">
<path d="M187.593 168.5L187.093 173.5C186.613 175.1 184.893 178.833 184.093 180.5L173.093 195.5C169.427 200.5 161.193 211.6 157.593 216C153.993 220.4 145.093 235.167 141.093 242L129.093 271.5L120.093 297L108.093 324C104.493 332.8 106.593 344.333 108.093 349.5V351.5C102.093 355.1 97.9268 360.667 96.5935 363.5C91.7935 375.9 79.5935 381.667 74.0935 383C65.6935 385.4 57.0935 387.453 52.5935 389C39.7935 393.4 40.2601 405.833 42.0935 411.5C44.4935 417.9 45.7601 425.5 46.0935 428.5C45.6935 437.7 41.9268 449.333 40.0935 453.5C34.8935 464.7 40.5935 471.5 44.0935 473.5C51.2935 479.1 67.0935 482.167 74.0935 483L89.5935 485.5L101.093 488L123.593 495L146.093 503C160.093 509.4 176.593 509.333 183.093 508.5C195.493 506.1 202.26 495.833 204.093 491L231.093 486.5C260.093 484 271.093 484 288.593 485C302.593 485.8 316.76 489 322.093 490.5C326.093 500.9 334.427 507.167 338.093 509C347.093 513.5 355.093 512.5 361.593 512C366.793 511.6 372.427 509.167 374.593 508L383.093 501.5L391.093 494L401.093 486.5L410.093 481C415.693 477.4 436.76 465.833 446.593 460.5C462.993 452.9 469.76 445 471.093 442C476.293 433.2 471.693 424.5 468.093 422.5C464.493 420.5 456.593 416 453.093 414C439.093 407.2 437.593 391.833 438.593 385.5C436.993 370.7 429.593 362.333 426.093 360C434.593 329 431.593 310.333 430.093 302C422.893 278 407.093 251.333 400.093 241L357.093 178C348.293 167.2 345.093 153.833 344.593 149C342.193 139.4 340.593 106.333 340.093 91L337.593 74C330.793 40.8 316.427 23.1667 309.593 18.5C280.793 -7.5 241.593 1 225.593 8.5C209.093 14 197.593 25.5 190.593 44C184.993 58.8 184.593 71.5 185.093 76C185.26 81.5 185.893 95.2 187.093 106C188.293 116.8 189.093 147.5 187.593 168.5Z" fill="black" stroke="black"/>
<path d="M218.094 133.5L231.594 123C232.094 123 233.594 121.5 236.094 120.5C238.994 119.34 242.094 119 243.094 119.5L258.51 125.333L263.094 127L280.094 133.5C283.094 135 285.594 137.5 285.594 137.5C288.594 140.5 288.094 141 288.094 143.5L287.594 144.5L284.594 147C282.194 148.2 273.26 153.833 269.594 156L260.094 161.5C260.094 161.5 248.594 168 243.094 170C237.594 172 236.594 172 233.094 171C229.594 170 231.094 170 231.094 170L219.594 162.5L214.594 158.5C212.427 156.667 207.694 152.3 206.094 149.5C204.494 146.7 205.427 144.333 206.094 143.5C206.094 143.5 206.255 143.015 207.594 142C211.122 139.326 218.094 133.5 218.094 133.5Z" fill="white"/>
<path d="M280.094 133.5C283.094 135 285.594 137.5 285.594 137.5C288.594 140.5 288.094 141 288.094 143.5L287.594 144.5L284.594 147C282.194 148.2 273.26 153.833 269.594 156L260.094 161.5C260.094 161.5 248.594 168 243.094 170C237.594 172 236.594 172 233.094 171C229.594 170 231.094 170 231.094 170L219.594 162.5L214.594 158.5C212.427 156.667 207.694 152.3 206.094 149.5C204.494 146.7 205.427 144.333 206.094 143.5C206.094 143.5 206.255 143.015 207.594 142C211.122 139.326 218.094 133.5 218.094 133.5L231.594 123C232.094 123 233.594 121.5 236.094 120.5C238.994 119.34 242.094 119 243.094 119.5M280.094 133.5C273.455 130.962 263.094 127 263.094 127L246.594 121L243.094 119.5M280.094 133.5C265.644 128.033 243.094 119.5 243.094 119.5" stroke="black"/>
<path d="M223.593 180.5C216.793 177.3 204.093 165.5 198.593 160C198.927 161.5 199.393 166.3 198.593 173.5C197.593 182.5 195.593 184.5 193.593 191.5C191.993 197.1 181.927 211.833 177.093 218.5L168.593 241.5L160.093 264.5C159.093 267 155.793 274.5 150.593 284.5C144.093 297 141.093 311.5 140.093 319.5C139.093 327.5 138.093 343 144.593 354.5C149.793 363.7 164.427 375.667 170.593 380C178.427 386.167 194.993 399.6 198.593 404C202.193 408.4 203.093 411.5 203.093 412.5C205.893 425.7 194.593 431.333 188.593 432.5C194.093 438.833 206.593 453 208.593 455C210.593 457 212.427 457.833 213.093 458H240.093C260.493 456 272.26 454.167 275.593 453.5C291.593 449.9 307.26 438.667 313.093 433.5L320.593 426.5L328.593 418C330.593 416.4 331.093 414 331.093 413V391C332.093 372.5 331.593 379 332.593 366.5C333.393 356.5 344.26 355.667 349.593 356.5H354.093C354.893 353.3 356.76 342.167 357.593 337L358.093 323.5C359.693 309.5 355.427 289.333 353.093 281L341.593 248.5L328.093 217L309.093 175C307.093 171.667 303.093 163.5 300.593 158.5C298.102 153.517 292.76 155 290.093 156.5L281.093 161C273.093 165.167 257.093 174.5 249.093 179C240.632 183.76 232.093 184.5 223.593 180.5Z" fill="white" stroke="black"/>
<path d="M348.594 402C349.394 410 345.927 434.667 344.094 446L340.594 464C338.594 474.4 342.094 482.667 344.094 485.5L347.094 489.5C355.094 500.7 370.76 494.167 377.094 489.5L388.594 479.5C397.794 471.1 409.427 464 414.094 461.5L433.094 451L451.594 441.5C460.594 434.5 455.594 429.5 447.594 424.5C441.67 420.798 437.594 419.667 433.094 416L430.094 412C425.094 400.5 425.094 392.5 425.094 386.5C425.094 381.7 421.427 379.167 419.594 378.5C416.394 385.3 410.594 392 408.094 394.5C400.494 399.7 390.594 402.667 386.594 403.5C373.094 406 368.551 402.663 362.594 397.5C356.594 392.3 355.76 378.667 356.094 372.5C350.094 370.5 347.594 375.667 347.094 378.5C347.26 383 347.794 394 348.594 402Z" fill="white" stroke="black"/>
<path d="M174.094 437C182.094 445 188.093 455 190.593 460C192.593 466.5 192.927 468 192.593 471C192.593 474.6 189.593 482 187.093 484.5L179.593 492C174.093 496.5 168.093 494.5 162.593 494C158.193 493.6 148.093 489.833 144.593 488.5L129.093 482.5L118.593 478C107.793 474.4 90.4268 470.833 84.0935 470L78.1627 468.946L66.5935 467C53.0935 466 53.2602 457.333 54.5935 452.5L59.0935 438L60.0935 433C62.0935 426.2 59.9268 417.5 58.5935 414C54.1935 400.4 67.5935 397.5 76.0935 396L86.0935 394C98.0935 392.8 105.427 378.5 107.594 371.5L109.594 368.5C115.094 362 118.594 361 127.094 368C133.894 373.6 140.927 384 143.594 388.5C146.794 394.5 163.927 421.667 172.094 434.5L174.094 437Z" fill="white"/>
<path d="M74.5935 468L78.1627 468.946M78.1627 468.946L66.5935 467C53.0935 466 53.2602 457.333 54.5935 452.5L59.0935 438L60.0935 433C62.0935 426.2 59.9268 417.5 58.5935 414C54.1935 400.4 67.5935 397.5 76.0935 396L86.0935 394C98.0935 392.8 105.427 378.5 107.594 371.5L109.594 368.5C115.094 362 118.594 361 127.094 368C133.894 373.6 140.927 384 143.594 388.5C146.794 394.5 163.927 421.667 172.094 434.5L174.094 437C182.094 445 188.093 455 190.593 460C192.593 466.5 192.927 468 192.593 471C192.593 474.6 189.593 482 187.093 484.5L179.593 492C174.093 496.5 168.093 494.5 162.593 494C158.193 493.6 148.093 489.833 144.593 488.5L129.093 482.5L118.593 478C107.793 474.4 90.4268 470.833 84.0935 470L78.1627 468.946Z" stroke="black"/>
<path d="M232.093 109.498C223.693 113.098 211.927 123.998 207.093 128.998C207.093 128.998 204.593 127.798 200.593 122.998C196.593 118.198 194.427 109.331 194.093 105.998C193.293 96.7979 195.76 87.8313 197.093 84.498C201.093 75.298 208.76 72.6646 212.093 72.498C224.445 70.367 231.687 89.4959 232.093 94.498C232.5 99.5 232.5 100.5 232.5 100.5V104L232.093 109.498Z" fill="white" stroke="black"/>
<path d="M210.093 121.5C211.593 122 213.594 122 213.594 122L219.593 117.5L222 115L222.093 108.5C222.093 108.5 222.093 106 221.094 102C220.094 98 218.082 93.1795 213.594 91C208.973 88.7564 204 91.5 202.5 95.5C201 99.5 201.094 105.333 201.594 109C201.994 115.8 208.593 121 210.093 121.5Z" fill="black" stroke="black"/>
<path d="M253.094 107.5L255.093 112L287.593 125C295.993 118.2 299.427 108.5 300.093 104.5C301.093 98.5 301.093 95.5 301.093 95.5C301.093 95.5 300.593 85 295.093 78.5C287.593 70 279.593 65 267.093 70C257.093 74 252.593 85.6667 251.593 91C250.593 96.3333 251.593 101.5 251.593 101.5L253.094 107.5Z" fill="white" stroke="black"/>
<path d="M265.593 97C261.094 104 263.593 112.667 265.593 116L281.593 122L285.593 117.5C288.793 112.7 289.26 107.5 289.093 105.5C289.093 105.5 288.656 101.41 288.093 99.5C287.499 97.4827 286.093 95.5 286.093 95.5C274.593 82 267.093 95 265.593 97Z" fill="black" stroke="black"/>
</svg>
