<svg width="321" height="167" viewBox="0 0 321 167" fill="none" xmlns="http://www.w3.org/2000/svg">
<mask id="mask0_592_76" style="mask-type:luminance" maskUnits="userSpaceOnUse" x="114" y="0" width="146" height="94">
<path d="M114.333 0.291687H259.666V93.2917H114.333V0.291687Z" fill="white"/>
</mask>
<g mask="url(#mask0_592_76)">
<path d="M213.901 0.552099C200.182 0.296891 187.796 6.00522 179.145 15.25C175.276 19.3854 176.484 26.099 181.5 28.7292C184.932 30.5261 189.187 29.9011 191.833 27.0781C197.13 21.4271 204.666 17.8959 213.026 17.8959C229.291 17.8959 242.432 31.2604 242.067 47.6042C241.828 58.5209 235.343 68.4219 225.515 73.1771C210.734 80.3334 195.942 70.9271 183.02 64.0625C164.494 54.224 145.973 44.3802 127.447 34.5417C123.296 32.3333 118.14 33.9271 115.953 38.0938C113.791 42.2084 115.338 47.2865 119.421 49.5C125.057 52.5521 131.932 56.5677 133.104 57.1823C140.651 61.1354 148.197 65.0938 155.744 69.0521C165.041 73.9271 174.27 78.9531 183.671 83.6406C193.166 88.375 202.171 93.349 213.026 93.349C239.031 93.349 260.041 71.9584 259.416 45.8073C258.822 21.1042 238.609 1.01043 213.901 0.552099Z" fill="#233DFF"/>
</g>
<mask id="mask1_592_76" style="mask-type:luminance" maskUnits="userSpaceOnUse" x="58" y="0" width="146" height="94">
<path d="M58.333 0.291687H203.666V93.2917H58.333V0.291687Z" fill="white"/>
</mask>
<g mask="url(#mask1_592_76)">
<path d="M104.062 93.3438C117.781 93.5938 130.166 87.8906 138.818 78.6406C142.687 74.5052 141.479 67.7969 136.463 65.1667L136.187 65.0209C132.818 63.2552 128.734 64.0417 126.13 66.8125C120.833 72.4688 113.297 76 104.937 76C88.6717 76 75.5311 62.6354 75.8957 46.2865C76.1352 35.375 82.6196 25.4688 92.4477 20.7136C107.229 13.5625 122.021 22.9636 134.943 29.8281C153.469 39.6719 171.989 49.5104 190.515 59.349C194.666 61.5573 199.823 59.9636 202.01 55.7969C204.172 51.6875 202.625 46.6042 198.541 44.3906C192.906 41.3386 186.031 37.3281 184.859 36.7136C177.312 32.7552 169.765 28.8021 162.219 24.8438C152.922 19.9636 143.693 14.9375 134.291 10.2552C124.797 5.51565 115.791 0.541687 104.937 0.541687C78.9321 0.541687 57.9217 21.9375 58.5519 48.0834C59.1404 72.7865 79.354 92.8854 104.062 93.3438Z" fill="#5E17EB"/>
</g>
<path d="M10.873 127.822C9.60742 127.822 8.57096 128.15 7.76888 128.801C6.97721 129.442 6.58138 130.338 6.58138 131.489C6.58138 132.629 6.87305 133.525 7.45638 134.176C8.05013 134.817 8.83138 135.312 9.78971 135.656C10.7585 136.004 11.8158 136.317 12.9564 136.593C14.0918 136.859 15.2324 137.187 16.373 137.572C17.5241 137.963 18.5814 138.442 19.5397 139.01C20.5085 139.583 21.2897 140.416 21.873 141.51C22.4564 142.609 22.748 143.942 22.748 145.51C22.748 148.093 21.7116 150.322 19.6439 152.197C17.5866 154.062 14.8522 154.989 11.4355 154.989C8.01888 154.989 5.25326 154.187 3.14388 152.572C1.04492 150.963 -0.00195312 148.697 -0.00195312 145.781H6.76888C7.00326 148.546 8.58659 149.926 11.5189 149.926C12.9616 149.926 14.1022 149.551 14.9355 148.801C15.7793 148.051 16.2064 147.051 16.2064 145.801C16.2064 144.551 15.6491 143.567 14.5397 142.843C13.4251 142.124 12.0814 141.583 10.498 141.218C8.91471 140.859 7.32096 140.426 5.72721 139.926C4.12826 139.416 2.77409 138.52 1.66471 137.239C0.55013 135.947 -0.00195312 134.254 -0.00195312 132.156C-0.00195312 129.296 1.0293 127.01 3.10221 125.301C5.18555 123.583 7.85742 122.718 11.123 122.718C14.3835 122.718 17.0085 123.463 18.998 124.947C20.9824 126.437 22.0658 128.697 22.248 131.739H15.3105C15.1855 130.531 14.7272 129.583 13.9355 128.885C13.1543 128.176 12.1335 127.822 10.873 127.822Z" fill="#050A30"/>
<path d="M27.9404 154.676V121.26H34.2946V154.676H27.9404Z" fill="#050A30"/>
<path d="M56.085 147.572C57.4183 146.254 58.085 144.458 58.085 142.176C58.085 139.885 57.4183 138.088 56.085 136.78C54.762 135.478 53.2152 134.822 51.4391 134.822C49.6579 134.822 48.1162 135.468 46.8141 136.76C45.5068 138.051 44.8558 139.843 44.8558 142.135C44.8558 144.416 45.512 146.218 46.835 147.551C48.1683 148.874 49.71 149.53 51.46 149.53C53.2204 149.53 54.762 148.879 56.085 147.572ZM41.7516 151.405C39.512 148.978 38.3975 145.885 38.3975 142.135C38.3975 138.374 39.5068 135.296 41.7308 132.905C43.9652 130.504 46.7985 129.301 50.2308 129.301C53.6579 129.301 56.2777 130.718 58.085 133.551V129.655H64.3975V154.676H58.085V150.468C56.1787 153.51 53.5433 155.03 50.1683 155.03C46.8037 155.03 44.0016 153.822 41.7516 151.405Z" fill="#050A30"/>
<path d="M86.9128 129.656V134.864L76.3919 149.447H86.9128V154.676H68.9961V149.447L79.5586 134.864H68.9961V129.656H86.9128Z" fill="#050A30"/>
<path d="M108.211 129.656V134.864L97.6898 149.447H108.211V154.676H90.2939V149.447L100.856 134.864H90.2939V129.656H108.211Z" fill="#050A30"/>
<path d="M123.426 155.03C119.77 155.03 116.801 153.853 114.509 151.489C112.228 149.129 111.093 146.01 111.093 142.135C111.093 138.249 112.244 135.135 114.551 132.801C116.853 130.468 119.832 129.301 123.489 129.301C127.14 129.301 130.14 130.442 132.489 132.718C134.832 134.984 136.009 138.01 136.009 141.801C136.009 142.676 135.952 143.489 135.843 144.239H117.593C117.744 145.864 118.348 147.176 119.405 148.176C120.457 149.166 121.801 149.655 123.426 149.655C125.619 149.655 127.244 148.754 128.301 146.947H135.155C134.431 149.338 133.03 151.28 130.947 152.78C128.874 154.28 126.369 155.03 123.426 155.03ZM129.426 140.135C129.327 138.484 128.718 137.166 127.593 136.176C126.468 135.176 125.103 134.676 123.509 134.676C121.91 134.676 120.577 135.176 119.509 136.176C118.437 137.166 117.801 138.484 117.593 140.135H129.426Z" fill="#050A30"/>
<path d="M146.473 129.655V134.093C148.15 130.9 150.588 129.301 153.786 129.301V135.801H152.202C150.312 135.801 148.88 136.28 147.911 137.239C146.952 138.187 146.473 139.817 146.473 142.135V154.676H140.119V129.655H146.473Z" fill="#050A30"/>
<path d="M170.036 154.676V123.156H176.39V154.676H170.036Z" fill="#050A30"/>
<path d="M188.619 129.655V133.405C190.213 130.671 192.806 129.301 196.39 129.301C199.249 129.301 201.582 130.249 203.39 132.135C205.192 134.01 206.098 136.624 206.098 139.968V154.676H199.765V140.864C199.765 138.905 199.265 137.416 198.265 136.385C197.275 135.343 195.921 134.822 194.202 134.822C192.494 134.822 191.129 135.343 190.119 136.385C189.119 137.416 188.619 138.905 188.619 140.864V154.676H182.265V129.655H188.619Z" fill="#050A30"/>
<path d="M222.418 129.656V134.864H218.439V154.676H212.126V134.864H209.418V129.656H212.126V128.26C212.126 125.26 212.923 123.067 214.522 121.676C216.116 120.291 218.632 119.593 222.064 119.593V124.926C220.73 124.926 219.793 125.187 219.251 125.697C218.71 126.213 218.439 127.067 218.439 128.26V129.656H222.418Z" fill="#050A30"/>
<path d="M232.941 123.301C232.941 124.385 232.556 125.301 231.795 126.051C231.045 126.801 230.134 127.176 229.066 127.176C227.993 127.176 227.087 126.801 226.337 126.051C225.587 125.301 225.212 124.385 225.212 123.301C225.212 122.218 225.587 121.301 226.337 120.551C227.087 119.801 227.993 119.426 229.066 119.426C230.134 119.426 231.045 119.801 231.795 120.551C232.556 121.301 232.941 122.218 232.941 123.301ZM225.899 154.676V129.655H232.254V154.676H225.899Z" fill="#050A30"/>
<path d="M244.482 129.655V133.405C246.076 130.671 248.67 129.301 252.253 129.301C255.112 129.301 257.446 130.249 259.253 132.135C261.055 134.01 261.961 136.624 261.961 139.968V154.676H255.628V140.864C255.628 138.905 255.128 137.416 254.128 136.385C253.138 135.343 251.784 134.822 250.065 134.822C248.357 134.822 246.993 135.343 245.982 136.385C244.982 137.416 244.482 138.905 244.482 140.864V154.676H238.128V129.655H244.482Z" fill="#050A30"/>
<path d="M274.635 123.301C274.635 124.385 274.25 125.301 273.49 126.051C272.74 126.801 271.828 127.176 270.76 127.176C269.688 127.176 268.781 126.801 268.031 126.051C267.281 125.301 266.906 124.385 266.906 123.301C266.906 122.218 267.281 121.301 268.031 120.551C268.781 119.801 269.688 119.426 270.76 119.426C271.828 119.426 272.74 119.801 273.49 120.551C274.25 121.301 274.635 122.218 274.635 123.301ZM267.594 154.676V129.655H273.948V154.676H267.594Z" fill="#050A30"/>
<path d="M289.51 149.343H292.552V154.676H288.531C285.974 154.676 284 154.093 282.614 152.926C281.224 151.749 280.531 149.801 280.531 147.093V134.864H277.864V129.655H280.531V123.489H286.906V129.655H292.489V134.864H286.906V147.093C286.906 147.9 287.099 148.478 287.489 148.822C287.875 149.171 288.552 149.343 289.51 149.343Z" fill="#050A30"/>
<path d="M303.317 154.218L293.525 129.656H300.671L307.025 147.447L313.755 129.656H320.4L304.775 166.51H298.13L303.317 154.218Z" fill="#050A30"/>
</svg>
