<svg width="512" height="512" viewBox="0 0 512 512" fill="none" xmlns="http://www.w3.org/2000/svg">
<g clip-path="url(#clip0_1814_29)">
<path d="M25.6 418.133H68.2667V469.333C68.2949 492.886 87.3809 511.972 110.933 512H401.067C424.619 511.972 443.705 492.886 443.733 469.333V418.133H486.4C500.539 418.133 512 406.672 512 392.533V307.2C512 293.062 500.539 281.6 486.4 281.6H443.733V230.4C443.705 206.848 424.619 187.762 401.067 187.733V145.067C401.067 64.9486 336.118 0 256 0C175.882 0 110.933 64.9486 110.933 145.067V187.733C87.3809 187.762 68.2949 206.848 68.2667 230.4V281.6H25.6C11.4615 281.6 0 293.062 0 307.2V392.533C0 406.672 11.4615 418.133 25.6 418.133ZM426.667 469.333C426.667 483.472 415.205 494.933 401.067 494.933H110.933C96.7949 494.933 85.3333 483.472 85.3333 469.333V418.133H426.667V469.333ZM128 145.067C128 74.3742 185.308 17.0667 256 17.0667C326.692 17.0667 384 74.3742 384 145.067V187.733H349.867V145.067C349.867 93.2255 307.841 51.2 256 51.2C204.159 51.2 162.133 93.2255 162.133 145.067V187.733H128V145.067ZM179.2 187.733V145.067C179.2 102.651 213.585 68.2667 256 68.2667C298.415 68.2667 332.8 102.651 332.8 145.067V187.733H179.2ZM85.3333 230.4C85.3333 216.262 96.7949 204.8 110.933 204.8H401.067C415.205 204.8 426.667 216.262 426.667 230.4V281.6H85.3333V230.4ZM17.0667 307.2C17.0667 302.487 20.8872 298.667 25.6 298.667H486.4C491.113 298.667 494.933 302.487 494.933 307.2V392.533C494.933 397.246 491.113 401.067 486.4 401.067H25.6C20.8872 401.067 17.0667 397.246 17.0667 392.533V307.2Z" fill="black"/>
<path d="M35.5664 371.668C36.8223 373.552 38.7749 374.859 40.9947 375.302C43.2144 375.745 45.5193 375.289 47.4022 374.032L59.7328 365.806V375.466C59.7328 380.179 63.5533 383.999 68.2662 383.999C72.979 383.999 76.7995 380.179 76.7995 375.466V365.806L89.1302 374.032C91.6666 375.724 94.9131 375.934 97.6467 374.584C100.38 373.233 102.186 370.527 102.383 367.484C102.58 364.441 101.139 361.525 98.6022 359.833L83.6262 349.866L98.5766 339.899C101.113 338.207 102.554 335.29 102.357 332.247C102.16 329.205 100.355 326.498 97.6211 325.148C94.8875 323.797 91.6411 324.007 89.1046 325.699L76.7995 333.925V324.266C76.7995 319.553 72.979 315.732 68.2662 315.732C63.5533 315.732 59.7328 319.553 59.7328 324.266V333.925L47.4022 325.699C43.4811 323.084 38.182 324.142 35.5664 328.063C32.9508 331.984 34.0091 337.283 37.9302 339.899L52.9062 349.866L37.9302 359.833C36.047 361.089 34.7399 363.041 34.2966 365.261C33.8533 367.481 34.3101 369.786 35.5664 371.668Z" fill="black"/>
<path d="M129.434 371.668C130.689 373.552 132.642 374.859 134.862 375.302C137.082 375.745 139.386 375.289 141.269 374.032L153.6 365.806V375.466C153.6 380.179 157.421 383.999 162.133 383.999C166.846 383.999 170.667 380.179 170.667 375.466V365.806L182.997 374.032C185.534 375.724 188.78 375.934 191.514 374.584C194.247 373.233 196.053 370.527 196.25 367.484C196.447 364.441 195.006 361.525 192.469 359.833L177.493 349.866L192.444 339.899C194.98 338.207 196.421 335.29 196.224 332.247C196.027 329.205 194.222 326.498 191.488 325.148C188.755 323.797 185.508 324.007 182.972 325.699L170.667 333.925V324.266C170.667 319.553 166.846 315.732 162.133 315.732C157.421 315.732 153.6 319.553 153.6 324.266V333.925L141.269 325.699C137.348 323.084 132.049 324.142 129.434 328.063C126.818 331.984 127.876 337.283 131.797 339.899L146.773 349.866L131.823 359.833C129.936 361.085 128.623 363.035 128.175 365.255C127.727 367.475 128.18 369.782 129.434 371.668Z" fill="black"/>
<path d="M317.166 371.668C318.422 373.552 320.375 374.859 322.594 375.302C324.814 375.745 327.119 375.289 329.002 374.032L341.332 365.806V375.466C341.332 380.179 345.153 383.999 349.866 383.999C354.579 383.999 358.399 380.179 358.399 375.466V365.806L370.73 374.032C373.266 375.724 376.513 375.934 379.246 374.584C381.98 373.233 383.785 370.527 383.982 367.484C384.179 364.441 382.738 361.525 380.202 359.833L365.226 349.866L380.176 339.899C382.713 338.207 384.154 335.29 383.957 332.247C383.76 329.205 381.954 326.498 379.221 325.148C376.487 323.797 373.241 324.007 370.704 325.699L358.399 333.925V324.266C358.399 319.553 354.579 315.732 349.866 315.732C345.153 315.732 341.332 319.553 341.332 324.266V333.925L329.002 325.699C325.081 323.084 319.782 324.142 317.166 328.063C314.55 331.984 315.609 337.283 319.53 339.899L334.506 349.866L319.555 359.833C317.668 361.085 316.356 363.035 315.908 365.255C315.459 367.475 315.912 369.782 317.166 371.668Z" fill="black"/>
<path d="M223.301 371.668C224.557 373.552 226.509 374.859 228.729 375.302C230.949 375.745 233.254 375.289 235.137 374.032L247.467 365.806V375.466C247.467 380.179 251.288 383.999 256.001 383.999C260.713 383.999 264.534 380.179 264.534 375.466V365.806L276.865 374.032C279.401 375.724 282.648 375.934 285.381 374.584C288.115 373.233 289.92 370.527 290.117 367.484C290.314 364.441 288.873 361.525 286.337 359.833L271.361 349.866L286.311 339.899C288.847 338.207 290.289 335.29 290.091 332.247C289.894 329.205 288.089 326.498 285.355 325.148C282.622 323.797 279.375 324.007 276.839 325.699L264.534 333.925V324.266C264.534 319.553 260.713 315.732 256.001 315.732C251.288 315.732 247.467 319.553 247.467 324.266V333.925L235.137 325.699C231.215 323.084 225.916 324.142 223.301 328.063C220.685 331.984 221.743 337.283 225.665 339.899L240.641 349.866L225.69 359.833C223.803 361.085 222.49 363.035 222.042 365.255C221.594 367.475 222.047 369.782 223.301 371.668Z" fill="black"/>
<path d="M136.534 221.867H110.934C106.221 221.867 102.4 225.688 102.4 230.401V256.001C102.4 260.713 106.221 264.534 110.934 264.534C115.647 264.534 119.467 260.713 119.467 256.001V238.934H136.534C141.247 238.934 145.067 235.113 145.067 230.401C145.067 225.688 141.247 221.867 136.534 221.867Z" fill="black"/>
<path d="M418.133 384H469.333C474.046 384 477.866 380.18 477.866 375.467C477.866 370.754 474.046 366.934 469.333 366.934H418.133C413.42 366.934 409.6 370.754 409.6 375.467C409.6 380.18 413.42 384 418.133 384Z" fill="black"/>
</g>
<defs>
<clipPath id="clip0_1814_29">
<rect width="512" height="512" fill="white"/>
</clipPath>
</defs>
</svg>
