<svg width="100" height="100" viewBox="0 0 100 100" fill="none" xmlns="http://www.w3.org/2000/svg">
<path d="M13.3086 23.2283V76.7899M20.5162 15.6365H78.9966M86.7508 23.2283V76.2433M20.5162 84.3818H78.9966" stroke="black" stroke-width="2"/>
<path d="M91.6573 8.80469H80.5556C79.6123 8.80469 78.8477 9.56937 78.8477 10.5126V21.6144C78.8477 22.5576 79.6123 23.3223 80.5556 23.3223H91.6573C92.6006 23.3223 93.3653 22.5576 93.3653 21.6144V10.5126C93.3653 9.56937 92.6006 8.80469 91.6573 8.80469Z" stroke="black" stroke-width="2"/>
<path d="M18.8566 8.80469H7.75483C6.81155 8.80469 6.04688 9.56937 6.04688 10.5126V21.6144C6.04688 22.5576 6.81155 23.3223 7.75483 23.3223H18.8566C19.7998 23.3223 20.5645 22.5576 20.5645 21.6144V10.5126C20.5645 9.56937 19.7998 8.80469 18.8566 8.80469Z" stroke="black" stroke-width="2"/>
<path d="M91.6573 76.4824H80.5556C79.6123 76.4824 78.8477 77.2471 78.8477 78.1904V89.2921C78.8477 90.2354 79.6123 91.0001 80.5556 91.0001H91.6573C92.6006 91.0001 93.3653 90.2354 93.3653 89.2921V78.1904C93.3653 77.2471 92.6006 76.4824 91.6573 76.4824Z" stroke="black" stroke-width="2"/>
<path d="M18.8566 76.4824H7.75483C6.81155 76.4824 6.04688 77.2471 6.04688 78.1904V89.2921C6.04688 90.2354 6.81155 91.0001 7.75483 91.0001H18.8566C19.7998 91.0001 20.5645 90.2354 20.5645 89.2921V78.1904C20.5645 77.2471 19.7998 76.4824 18.8566 76.4824Z" stroke="black" stroke-width="1.8"/>
<path d="M33.7625 62.803L24.5625 71.9991V65.014C24.5625 64.5827 24.2133 64.2327 23.7812 64.2327C23.3492 64.2327 23 64.5827 23 65.014V73.8851C23 74.3163 23.3492 74.6663 23.7812 74.6663L32.6539 74.6671C33.0852 74.6671 33.4352 74.3171 33.4352 73.8858C33.4352 73.4546 33.0859 73.1046 32.6539 73.1046L25.6664 73.1038L34.8664 63.9077C35.1719 63.603 35.1719 63.1085 34.8664 62.803C34.5609 62.4976 34.0672 62.4983 33.7625 62.803Z" fill="black"/>
<path d="M76.665 64.2335C76.233 64.2335 75.8838 64.5835 75.8838 65.0148V72.0007L66.6854 62.8031C66.3799 62.4976 65.8861 62.4976 65.5807 62.8031C65.2752 63.1085 65.2752 63.6023 65.5807 63.9078L74.7775 73.1039L67.79 73.1046C67.358 73.1046 67.0088 73.4546 67.0088 73.8859C67.0088 74.3171 67.3588 74.6671 67.79 74.6671L76.6643 74.6664C77.0963 74.6664 77.4455 74.3164 77.4455 73.8851V65.0148C77.4463 64.5828 77.0963 64.2335 76.665 64.2335Z" fill="black"/>
<path d="M76.665 26.0008L67.7908 26C67.3588 26 67.0096 26.35 67.0096 26.7812C67.0096 27.2125 67.3588 27.5625 67.7908 27.5625L74.7783 27.5633L65.5807 36.7594C65.2752 37.0648 65.2752 37.5586 65.5807 37.8641C65.733 38.0164 65.933 38.093 66.133 38.093C66.333 38.093 66.533 38.0164 66.6854 37.8641L75.883 28.6672V35.6523C75.883 36.0836 76.2322 36.4336 76.6643 36.4336C77.0963 36.4336 77.4455 36.0836 77.4455 35.6523V26.782C77.4463 26.35 77.0963 26.0008 76.665 26.0008Z" fill="black"/>
<path d="M25.6664 27.5633L32.6539 27.5625C33.0859 27.5625 33.4352 27.2125 33.4352 26.7812C33.4352 26.35 33.0852 26 32.6539 26L23.7812 26.0008C23.3492 26.0008 23 26.3508 23 26.782V35.6531C23 36.0844 23.3492 36.4344 23.7812 36.4344C24.2133 36.4344 24.5625 36.0844 24.5625 35.6531V28.6688L33.7617 37.8648C33.9141 38.0172 34.1141 38.0937 34.3141 38.0937C34.5141 38.0937 34.7141 38.0172 34.8664 37.8648C35.1719 37.5594 35.1719 37.0648 34.8664 36.7602L25.6664 27.5633Z" fill="black"/>
<path d="M61.7719 61.0985V39.5696C61.7719 39.1383 61.4227 38.7883 60.9906 38.7883H39.4609C39.0289 38.7883 38.6797 39.1383 38.6797 39.5696V61.0985C38.6797 61.5297 39.0289 61.8797 39.4609 61.8797H60.9906C61.4227 61.8797 61.7719 61.5305 61.7719 61.0985ZM60.2094 40.3508V52.0368L57.5906 49.4735C57.2867 49.1758 56.8008 49.1758 56.4977 49.4735L53.1414 52.7618L47.3781 46.2688C47.2328 46.1055 47.0266 46.0102 46.8086 46.0063C46.8031 46.0063 46.7984 46.0063 46.7938 46.0063C46.5813 46.0063 46.3766 46.0938 46.2289 46.2477L40.2414 52.5157V40.3508H60.2094ZM40.2422 60.3172V54.7782L46.7727 47.9415L52.518 54.4141C52.6602 54.5743 52.8609 54.6688 53.075 54.6758C53.2852 54.686 53.4961 54.6032 53.6492 54.4532L57.0453 51.1258L60.2102 54.2235V60.318L40.2422 60.3172Z" fill="black"/>
<path d="M53.2977 47.6352C54.8148 47.6352 56.05 46.4008 56.05 44.8844C56.05 43.3665 54.8148 42.1321 53.2977 42.1321C51.7812 42.1321 50.5469 43.3672 50.5469 44.8844C50.5461 46.4016 51.7805 47.6352 53.2977 47.6352ZM53.2977 43.6938C53.9539 43.6938 54.4875 44.2282 54.4875 44.8836C54.4875 45.5391 53.9531 46.0719 53.2977 46.0719C52.6422 46.0719 52.1094 45.5383 52.1094 44.8836C52.1086 44.2282 52.6422 43.6938 53.2977 43.6938Z" fill="black"/>
</svg>
