<svg width="100" height="100" viewBox="0 0 100 100" fill="none" xmlns="http://www.w3.org/2000/svg">
<path d="M75.2031 12.1094H24.8125C21.4447 12.1135 18.216 13.4532 15.8346 15.8346C13.4532 18.216 12.1135 21.4447 12.1094 24.8125V75.2031C12.1176 78.5682 13.4592 81.7929 15.8401 84.1709C18.2211 86.549 21.4474 87.8865 24.8125 87.8906H75.2031C78.5655 87.8824 81.7878 86.543 84.1654 84.1654C86.543 81.7878 87.8824 78.5655 87.8906 75.2031V24.8125C87.8865 21.4474 86.549 18.2211 84.1709 15.8401C81.7929 13.4592 78.5682 12.1176 75.2031 12.1094ZM84.7656 75.2031C84.7615 77.738 83.7527 80.1679 81.9603 81.9603C80.1679 83.7527 77.738 84.7615 75.2031 84.7656H24.8125C22.2749 84.7656 19.8411 83.7587 18.0453 81.9658C16.2495 80.1729 15.2385 77.7407 15.2344 75.2031V24.8125C15.2385 22.2735 16.249 19.8397 18.0443 18.0443C19.8397 16.249 22.2735 15.2385 24.8125 15.2344H75.2031C77.7407 15.2385 80.1729 16.2495 81.9658 18.0453C83.7587 19.8411 84.7656 22.2749 84.7656 24.8125V75.2031Z" fill="black"/>
<path d="M80.7627 66.2598H68.458V61.8652C68.458 61.5739 68.3423 61.2944 68.1362 61.0884C67.9302 60.8823 67.6507 60.7666 67.3594 60.7666C67.068 60.7666 66.7886 60.8823 66.5825 61.0884C66.3765 61.2944 66.2607 61.5739 66.2607 61.8652V66.2598H33.7412V33.7402H36.1582C36.4496 33.7402 36.729 33.6245 36.9351 33.4185C37.1411 33.2124 37.2568 32.933 37.2568 32.6416C37.2568 32.3502 37.1411 32.0708 36.9351 31.8648C36.729 31.6587 36.4496 31.543 36.1582 31.543H33.7412V19.2383C33.7412 18.9469 33.6255 18.6675 33.4194 18.4614C33.2134 18.2554 32.934 18.1396 32.6426 18.1396C32.3512 18.1396 32.0718 18.2554 31.8657 18.4614C31.6597 18.6675 31.5439 18.9469 31.5439 19.2383V31.543H19.2393C18.9479 31.543 18.6684 31.6587 18.4624 31.8648C18.2564 32.0708 18.1406 32.3502 18.1406 32.6416C18.1406 32.933 18.2564 33.2124 18.4624 33.4185C18.6684 33.6245 18.9479 33.7402 19.2393 33.7402H31.5439V67.3584C31.5439 67.6498 31.6597 67.9292 31.8657 68.1352C32.0718 68.3413 32.3512 68.457 32.6426 68.457H66.2607V80.7617C66.2607 81.0531 66.3765 81.3325 66.5825 81.5386C66.7886 81.7446 67.068 81.8604 67.3594 81.8604C67.6507 81.8604 67.9302 81.7446 68.1362 81.5386C68.3423 81.3325 68.458 81.0531 68.458 80.7617V68.457H80.7627C81.0541 68.457 81.3335 68.3413 81.5395 68.1352C81.7456 67.9292 81.8613 67.6498 81.8613 67.3584C81.8613 67.067 81.7456 66.7876 81.5395 66.5815C81.3335 66.3755 81.0541 66.2598 80.7627 66.2598Z" fill="black"/>
<path d="M68.459 39.8926C68.459 39.6012 68.3432 39.3218 68.1372 39.1157C67.9312 38.9097 67.6517 38.7939 67.3604 38.7939C67.069 38.7939 66.7895 38.9097 66.5835 39.1157C66.3775 39.3218 66.2617 39.6012 66.2617 39.8926V45.3857C66.2617 45.6771 66.3775 45.9566 66.5835 46.1626C66.7895 46.3686 67.069 46.4844 67.3604 46.4844C67.6517 46.4844 67.9312 46.3686 68.1372 46.1626C68.3432 45.9566 68.459 45.6771 68.459 45.3857V39.8926Z" fill="black"/>
<path d="M63.626 33.7402H66.2627V34.3994C66.2627 34.6908 66.3784 34.9702 66.5845 35.1763C66.7905 35.3823 67.07 35.498 67.3613 35.498C67.6527 35.498 67.9321 35.3823 68.1382 35.1763C68.3442 34.9702 68.46 34.6908 68.46 34.3994V32.6416C68.46 32.3502 68.3442 32.0708 68.1382 31.8648C67.9321 31.6587 67.6527 31.543 67.3613 31.543H63.626C63.3346 31.543 63.0552 31.6587 62.8491 31.8648C62.6431 32.0708 62.5273 32.3502 62.5273 32.6416C62.5273 32.933 62.6431 33.2124 62.8491 33.4185C63.0552 33.6245 63.3346 33.7402 63.626 33.7402Z" fill="black"/>
<path d="M52.6377 33.7402H58.1309C58.4222 33.7402 58.7017 33.6245 58.9077 33.4185C59.1137 33.2124 59.2295 32.933 59.2295 32.6416C59.2295 32.3502 59.1137 32.0708 58.9077 31.8648C58.7017 31.6587 58.4222 31.543 58.1309 31.543H52.6377C52.3463 31.543 52.0669 31.6587 51.8608 31.8648C51.6548 32.0708 51.5391 32.3502 51.5391 32.6416C51.5391 32.933 51.6548 33.2124 51.8608 33.4185C52.0669 33.6245 52.3463 33.7402 52.6377 33.7402Z" fill="black"/>
<path d="M67.3604 49.7803C67.069 49.7803 66.7895 49.896 66.5835 50.1021C66.3775 50.3081 66.2617 50.5875 66.2617 50.8789V56.3721C66.2617 56.6634 66.3775 56.9429 66.5835 57.1489C66.7895 57.355 67.069 57.4707 67.3604 57.4707C67.6517 57.4707 67.9312 57.355 68.1372 57.1489C68.3432 56.9429 68.459 56.6634 68.459 56.3721V50.8789C68.459 50.5875 68.3432 50.3081 68.1372 50.1021C67.9312 49.896 67.6517 49.7803 67.3604 49.7803Z" fill="black"/>
<path d="M41.6533 33.7402H47.1465C47.4379 33.7402 47.7173 33.6245 47.9233 33.4185C48.1294 33.2124 48.2451 32.933 48.2451 32.6416C48.2451 32.3502 48.1294 32.0708 47.9233 31.8648C47.7173 31.6587 47.4379 31.543 47.1465 31.543H41.6533C41.3619 31.543 41.0825 31.6587 40.8765 31.8648C40.6704 32.0708 40.5547 32.3502 40.5547 32.6416C40.5547 32.933 40.6704 33.2124 40.8765 33.4185C41.0825 33.6245 41.3619 33.7402 41.6533 33.7402Z" fill="black"/>
</svg>
