<svg width="100" height="100" viewBox="0 0 100 100" fill="none" xmlns="http://www.w3.org/2000/svg">
<path d="M76.9701 19.0955H22.9725C20.8325 19.0955 19.0977 20.8303 19.0977 22.9703V76.9679C19.0977 79.1079 20.8325 80.8428 22.9725 80.8428H76.9701C79.1101 80.8428 80.845 79.1079 80.845 76.9679V22.9703C80.845 20.8303 79.1101 19.0955 76.9701 19.0955Z" stroke="black" stroke-width="2"/>
<path d="M68.7208 27.3452H31.2225C29.0825 27.3452 27.3477 29.08 27.3477 31.22V68.7184C27.3477 70.8584 29.0825 72.5932 31.2225 72.5932H68.7208C70.8609 72.5932 72.5957 70.8584 72.5957 68.7184V31.22C72.5957 29.08 70.8609 27.3452 68.7208 27.3452Z" stroke="black" stroke-width="2"/>
<path d="M81.7227 7.2209C81.7227 6.66865 82.2958 6.22095 83.0026 6.22095C83.7094 6.22095 84.2825 6.66865 84.2825 7.2209V18.2204H81.7227V7.2209Z" fill="black"/>
<path d="M92.7344 15.6931C93.2867 15.6931 93.7344 16.2662 93.7344 16.9731C93.7344 17.6799 93.2867 18.253 92.7344 18.253L81.7349 18.253L81.7349 15.6931L92.7344 15.6931Z" fill="black"/>
<path d="M81.7227 93C81.7227 93.5523 82.2958 94 83.0026 94C83.7094 94 84.2825 93.5523 84.2825 93V82.0005H81.7227V93Z" fill="black"/>
<path d="M92.7344 84.5278C93.2867 84.5278 93.7344 83.9547 93.7344 83.2479C93.7344 82.541 93.2867 81.9679 92.7344 81.9679L81.7349 81.9679L81.7349 84.5278L92.7344 84.5278Z" fill="black"/>
<path d="M18.4648 7.2209C18.4648 6.66865 17.8917 6.22095 17.1849 6.22095C16.4781 6.22095 15.905 6.66865 15.905 7.2209V18.2204H18.4648V7.2209Z" fill="black"/>
<path d="M7.45308 15.6931C6.90083 15.6931 6.45313 16.2662 6.45313 16.9731C6.45313 17.6799 6.90083 18.253 7.45308 18.253L18.4526 18.253L18.4526 15.6931L7.45308 15.6931Z" fill="black"/>
<path d="M18.4648 93C18.4648 93.5523 17.8917 94 17.1849 94C16.4781 94 15.905 93.5523 15.905 93V82.0005H18.4648V93Z" fill="black"/>
<path d="M7.45308 84.5278C6.90083 84.5278 6.45313 83.9547 6.45313 83.2479C6.45313 82.541 6.90083 81.9679 7.45308 81.9679L18.4526 81.9679L18.4526 84.5278L7.45308 84.5278Z" fill="black"/>
<path d="M43.0684 39.5996V43.0664H39.6016V44.7998H43.0684V56.9336H55.2021V60.4004H56.9355V56.9336H60.4023V55.2002H55.2021H46.0477H44.8018V53.9543V44.7998V39.5996H43.0684ZM46.5352 43.0664V44.7998H55.2021V53.4668H56.9355V43.0664H46.5352Z" fill="black"/>
</svg>
