<svg width="59" height="59" viewBox="0 0 59 59" fill="none" xmlns="http://www.w3.org/2000/svg">
<path d="M48.59 16.3838C49.81 17.6038 50.93 18.7238 52.05 19.8338C52.54 20.3238 52.87 20.8538 52.62 21.5738C52.37 22.2738 51.83 22.5438 51.13 22.6338C47.01 23.1738 42.89 23.7338 38.77 24.2938C37.91 24.4138 37.05 24.5338 36.2 24.6538C34.74 24.8538 34.02 24.1538 34.22 22.6838C34.88 17.6838 35.55 12.6838 36.22 7.67376C36.31 7.00376 36.58 6.46376 37.26 6.23376C37.93 6.00376 38.48 6.24376 38.96 6.73376C40.08 7.87376 41.22 9.00376 42.4 10.1938C42.59 10.0138 42.76 9.86376 42.93 9.70376C45.87 6.76376 48.82 3.81376 51.76 0.87376C52.62 0.0137597 53.22 0.0137597 54.08 0.87376C55.42 2.20376 56.75 3.53376 58.08 4.87376C58.81 5.60376 58.81 6.27376 58.08 7.01376C55.12 9.97376 52.16 12.9338 49.2 15.8938C49.03 16.0638 48.84 16.2038 48.6 16.3938L48.59 16.3838Z" fill="#01B6FE"/>
<path d="M9.95 42.5538C8.79 41.3938 7.68 40.2738 6.55 39.1738C6.06 38.6938 5.71 38.1738 5.95 37.4438C6.19 36.7138 6.75 36.4538 7.48 36.3538C12.48 35.6938 17.47 34.9938 22.47 34.3238C23.85 34.1438 24.55 34.8838 24.37 36.2538C23.7 41.2538 23.04 46.2538 22.37 51.2538C22.28 51.9438 22.02 52.5238 21.32 52.7538C20.62 52.9838 20.07 52.7138 19.57 52.2038C18.47 51.0738 17.34 49.9638 16.17 48.7938C15.98 48.9738 15.81 49.1238 15.65 49.2838C12.72 52.2138 9.8 55.1338 6.87 58.0638C5.93 59.0038 5.38 59.0038 4.46 58.0838C3.17 56.7938 1.88 55.5138 0.6 54.2238C-0.2 53.4138 -0.2 52.8138 0.6 52.0038C3.69 48.8738 6.78 45.7438 9.93 42.5538H9.95Z" fill="#01B6FE"/>
<path d="M44.4 39.6038C44.18 39.9638 44.05 40.2838 43.82 40.5238C42.67 41.7038 41.5 42.8638 40.33 44.0238C39.68 44.6738 39.15 44.6538 38.48 43.9838C36.45 41.9638 34.43 39.9438 32.41 37.9138C26.57 32.0738 20.73 26.2338 14.9 20.4038C14.01 19.5138 14 19.0838 14.9 18.1938C15.96 17.1338 17.01 16.0738 18.07 15.0238C18.78 14.3138 19.39 14.3038 20.09 15.0038C27.98 22.8938 35.87 30.7838 43.76 38.6838C44.01 38.9338 44.16 39.2638 44.4 39.6038Z" fill="#00B5FE"/>
</svg>
