<svg width="37" height="37" viewBox="0 0 37 37" fill="none" xmlns="http://www.w3.org/2000/svg">
<path d="M37 18.5C37 28.7387 28.7148 37.0041 18.4566 37C8.27691 37 0 28.7056 0 18.5C0 8.2282 8.28932 -0.00826747 18.622 6.22786e-06C28.7314 0.00827993 37 8.33162 37 18.5ZM19.8174 18.0615C19.8174 17.8257 19.8174 17.6602 19.8174 17.4989C19.8174 14.6072 19.8174 11.7156 19.8174 8.82391C19.8174 8.05445 19.2466 7.48771 18.5103 7.48357C17.7741 7.47943 17.1908 8.04618 17.1908 8.80736C17.1826 12.3237 17.1867 15.8441 17.1908 19.3605C17.1908 20.1258 17.7327 20.6925 18.4979 20.6967C20.8557 20.7091 23.2176 20.7132 25.5753 20.6967C26.3984 20.6884 26.9568 19.9893 26.8534 19.1784C26.7707 18.5166 26.2206 18.0656 25.4636 18.0615C23.7594 18.0532 22.0552 18.0615 20.351 18.0615C20.1897 18.0615 20.0284 18.0615 19.8216 18.0615H19.8174Z" fill="#36B3FF"/>
</svg>
