<svg width="84" height="72" viewBox="0 0 84 72" fill="none" xmlns="http://www.w3.org/2000/svg">
<path d="M83.4146 39.8081V7.29031C83.4146 3.27051 80.1257 0 76.0833 0H7.33136C3.28893 0 0 3.27051 0 7.29031V39.8081H83.4146ZM37.9659 24.9718H14.5813C13.2315 24.9718 12.1375 23.884 12.1375 22.5417C12.1375 21.1995 13.2315 20.1116 14.5813 20.1116H37.9659C39.3157 20.1116 40.4097 21.1995 40.4097 22.5417C40.4097 23.884 39.3157 24.9718 37.9659 24.9718ZM37.9659 17.2196H14.5813C13.2315 17.2196 12.1375 16.1311 12.1375 14.7894C12.1375 13.4472 13.2315 12.3593 14.5813 12.3593H37.9659C39.3157 12.3593 40.4097 13.4472 40.4097 14.7894C40.4097 16.1311 39.3157 17.2196 37.9659 17.2196ZM37.9659 32.7241H14.5813C13.2315 32.7241 12.1375 31.6363 12.1375 30.294C12.1375 28.9524 13.2315 27.8639 14.5813 27.8639H37.9659C39.3157 27.8639 40.4097 28.9524 40.4097 30.294C40.4097 31.6363 39.3157 32.7241 37.9659 32.7241ZM53.2867 35.2846C51.9369 35.2846 50.8429 34.1967 50.8429 32.8545C50.8429 31.5129 51.9369 30.4244 53.2867 30.4244C54.6358 30.4244 55.7305 31.5129 55.7305 32.8545C55.7305 34.1967 54.6358 35.2846 53.2867 35.2846ZM60.0491 35.2846C58.6993 35.2846 57.6053 34.1967 57.6053 32.8545C57.6053 31.5129 58.6993 30.4244 60.0491 30.4244C61.3983 30.4244 62.4929 31.5129 62.4929 32.8545C62.4929 34.1967 61.3989 35.2846 60.0491 35.2846ZM70.9583 18.2796L65.4324 27.9455C64.9978 28.7056 64.187 29.1751 63.3081 29.1751H52.0081C51.3596 29.1751 50.7372 28.9182 50.279 28.4619C49.8208 28.0057 49.5637 27.3874 49.5644 26.7419L49.5752 17.0759V14.7268H48.3036C46.9545 14.7268 45.8598 13.6383 45.8598 12.2967C45.8598 10.9544 46.9545 9.86659 48.3036 9.86659H52.019C53.3681 9.86659 54.4627 10.9544 54.4627 12.2967V14.6483H68.8334C69.704 14.6483 70.5084 15.1084 70.9456 15.8564C71.3834 16.6044 71.3879 17.5271 70.9583 18.2796Z" fill="#01B6FE"/>
<path d="M0 44.6683V51.1929C0 55.2127 3.28893 58.4832 7.33136 58.4832H31.3989V67.1398H24.6473C23.2974 67.1398 22.2035 68.2276 22.2035 69.5699C22.2035 70.9122 23.2974 72 24.6473 72H58.768C60.1172 72 61.2118 70.9122 61.2118 69.5699C61.2118 68.2276 60.1172 67.1398 58.768 67.1398H52.0158V58.4832H76.0833C80.1257 58.4832 83.4146 55.2127 83.4146 51.1929V44.6683H0ZM40.6515 46.9377H42.7631C44.1123 46.9377 45.2069 48.0255 45.2069 49.3678C45.2069 50.71 44.1123 51.7979 42.7631 51.7979H40.6515C39.3023 51.7979 38.2077 50.71 38.2077 49.3678C38.2077 48.0255 39.3023 46.9377 40.6515 46.9377Z" fill="#01B6FE"/>
</svg>
