<svg width="79" height="72" viewBox="0 0 79 72" fill="none" xmlns="http://www.w3.org/2000/svg">
<path d="M77.3035 57.9174C76.6279 57.2233 75.7179 56.8414 74.7394 56.8414H45.7523C45.2071 56.8414 44.7646 57.2839 44.7646 57.8292V63.1103C44.7646 64.0177 44.0258 64.7565 43.1184 64.7565H35.2427C34.3353 64.7565 33.5965 64.0177 33.5965 63.1103V57.8292C33.5965 57.2839 33.154 56.8414 32.6087 56.8414H3.62173C1.62385 56.8414 0 58.4653 0 60.4631C0 61.443 0.381928 62.3543 1.05755 63.0102C1.73316 63.7029 2.64321 64.0849 3.62173 64.0849H26.4057C26.893 68.5297 30.6701 72 35.2427 72H43.1184C47.687 72 51.4615 68.535 51.9541 64.0849H74.7394C76.7372 64.0849 78.3611 62.4597 78.3611 60.4631C78.3611 59.4833 77.9792 58.5733 77.3035 57.9174Z" fill="#36B3FF"/>
<path d="M41.077 33.7493C43.6241 33.7493 45.6944 31.6789 45.6944 29.1332C45.6944 26.5875 43.6241 24.5171 41.077 24.5171C38.5299 24.5171 36.461 26.5875 36.461 29.1332C36.461 31.6789 38.5313 33.7493 41.077 33.7493Z" fill="#36B3FF"/>
<path d="M15.0137 17.7333C19.2992 17.7333 22.784 21.2181 22.784 25.5036C22.784 26.0488 23.2265 26.4913 23.7717 26.4913C24.317 26.4913 24.7595 26.0488 24.7595 25.5036C24.7595 21.2194 28.2442 17.7333 32.5284 17.7333C33.0736 17.7333 33.5162 17.2908 33.5162 16.7456C33.5162 16.2003 33.0736 15.7578 32.5284 15.7578C28.2442 15.7578 24.7595 12.2665 24.7595 7.97439C24.7595 7.42916 24.317 6.98665 23.7717 6.98665C23.2265 6.98665 22.784 7.42916 22.784 7.97439C22.784 12.2665 19.2992 15.7578 15.0137 15.7578C14.4685 15.7578 14.026 16.2003 14.026 16.7456C14.026 17.2908 14.4685 17.7333 15.0137 17.7333Z" fill="#36B3FF"/>
<path d="M44.7066 10.7467C48.9908 10.7467 52.4756 14.2314 52.4756 18.5169C52.4756 19.0622 52.9181 19.5047 53.4633 19.5047C54.0086 19.5047 54.4511 19.0622 54.4511 18.5169C54.4511 14.2327 57.9358 10.7467 62.2213 10.7467C62.7666 10.7467 63.2091 10.3042 63.2091 9.75892C63.2091 9.21368 62.7666 8.77117 62.2213 8.77117C57.9358 8.77117 54.4511 5.27982 54.4511 0.987745C54.4511 0.44251 54.0086 0 53.4633 0C52.9181 0 52.4756 0.44251 52.4756 0.987745C52.4756 5.27982 48.9908 8.77117 44.7066 8.77117C44.1614 8.77117 43.7189 9.21368 43.7189 9.75892C43.7189 10.3042 44.1614 10.7467 44.7066 10.7467Z" fill="#36B3FF"/>
<path d="M37.72 45.7431C33.6492 41.3825 24.3091 32.9419 11.4987 30.9586C10.4069 30.79 9.31377 31.1363 8.50382 31.9107C7.67543 32.7049 7.27244 33.8125 7.40018 34.9504L8.1219 41.4036L37.72 45.7418V45.7431Z" fill="#36B3FF"/>
<path d="M40.6424 45.7431L70.2405 41.4036L70.9622 34.9504C71.09 33.8125 70.687 32.7049 69.8586 31.9107C69.0499 31.1363 67.9529 30.7887 66.8651 30.9586C54.0533 32.9419 44.7132 41.3825 40.6424 45.7431Z" fill="#36B3FF"/>
<path d="M34.5842 54.8659C35.1295 54.8659 35.572 55.3084 35.572 55.8537V62.7811H42.7891V55.8537C42.7891 55.3084 43.2316 54.8659 43.7769 54.8659H74.7394C75.1107 54.8659 75.4769 54.9041 75.8325 54.9739V46.7664C75.8325 45.7023 75.3676 44.6974 74.5576 44.0086C73.7463 43.3212 72.673 43.0209 71.6457 43.1947L39.1805 47.9543L6.73115 43.1974C5.67756 43.0275 4.61343 43.3212 3.80216 44.0086C2.99089 44.6961 2.52731 45.7023 2.52731 46.7664V54.9766C2.88158 54.9067 3.24639 54.8659 3.62041 54.8659H34.5842Z" fill="#36B3FF"/>
</svg>
