<svg width="72" height="72" viewBox="0 0 72 72" fill="none" xmlns="http://www.w3.org/2000/svg">
<path d="M70.5044 13.0942L37.0764 0.237301C36.3934 -0.0791002 35.6049 -0.0791002 34.9219 0.237301L1.4939 13.0942C0.396538 13.6015 -0.198597 14.8018 0.0600484 15.982C0.318693 17.1597 1.36332 18.0009 2.57117 18.0009H69.4271C70.635 18.0009 71.6796 17.1597 71.9383 15.982C72.1969 14.8018 71.6018 13.6015 70.5044 13.0942Z" fill="#36B3FF"/>
<path d="M2.57117 69.4286C2.57117 70.8499 3.72126 72 5.14255 72H66.8558C68.2771 72 69.4271 70.8499 69.4271 69.4286V20.5723H2.57117V69.4286ZM26.9993 69.4286C24.8691 69.4286 23.1422 67.7018 23.1422 65.5715C23.1422 63.4413 24.8691 61.7145 26.9993 61.7145C29.1295 61.7145 30.8564 63.4413 30.8564 65.5715C30.8564 67.7018 29.1295 69.4286 26.9993 69.4286ZM50.1418 69.4286C48.0116 69.4286 46.2847 67.7018 46.2847 65.5715C46.2847 63.4413 48.0116 61.7145 50.1418 61.7145C52.272 61.7145 53.9988 63.4413 53.9988 65.5715C53.9988 67.7018 52.272 69.4286 50.1418 69.4286ZM53.9988 43.7148V51.4289C53.9988 52.849 52.8477 54.0003 51.4275 54.0003H43.7133C42.2931 54.0003 41.1419 52.849 41.1419 51.4289V43.7148C41.1419 42.2946 42.2931 41.1434 43.7133 41.1434H51.4275C52.8477 41.1434 53.9988 42.2946 53.9988 43.7148ZM33.4278 28.2865C33.4278 26.8663 34.579 25.7151 35.9992 25.7151H43.7133C45.1335 25.7151 46.2847 26.8663 46.2847 28.2865V36.0006C46.2847 37.4207 45.1335 38.572 43.7133 38.572H35.9992C34.579 38.572 33.4278 37.4207 33.4278 36.0006V28.2865ZM25.7136 43.7148C25.7136 42.2946 26.8648 41.1434 28.285 41.1434H35.9992C37.4193 41.1434 38.5705 42.2946 38.5705 43.7148V51.4289C38.5705 52.849 37.4193 54.0003 35.9992 54.0003H28.285C26.8648 54.0003 25.7136 52.849 25.7136 51.4289V43.7148ZM15.8048 23.5204C16.307 23.0182 17.1206 23.0182 17.6228 23.5204L22.7656 28.6631C23.0066 28.9042 23.1422 29.2307 23.1422 29.5722V56.5717H55.2845C55.9952 56.5717 56.5702 57.1467 56.5702 57.8574C56.5702 58.568 55.9952 59.1431 55.2845 59.1431H21.8565C21.1459 59.1431 20.5709 58.568 20.5709 57.8574V30.1045L15.8048 25.3384C15.3025 24.8362 15.3025 24.0226 15.8048 23.5204Z" fill="#36B3FF"/>
</svg>
