<svg width="89" height="73" viewBox="0 0 89 73" fill="none" xmlns="http://www.w3.org/2000/svg">
<path d="M11.6746 62.6753C11.6746 63.2294 11.8954 63.7608 12.2883 64.1526C12.6812 64.5444 13.2141 64.7645 13.7698 64.7645H18.4841C18.9514 64.7645 19.4053 64.6088 19.7736 64.322C20.1419 64.0353 20.4035 63.6341 20.5169 63.1821L23.7867 50.1402H11.6746V62.6753Z" fill="#36B3FF"/>
<path d="M25.6429 48.2398C32.5477 49.288 47.7488 54.6938 57.7698 63.8649V8.55988C47.7488 17.731 32.5477 23.1368 25.6429 24.185V48.2398Z" fill="#36B3FF"/>
<path d="M65.4524 0C63.9711 0.00165888 62.5509 0.589149 61.5034 1.63358C60.4559 2.67801 59.8667 4.09409 59.8651 5.57114V66.8536C59.8651 68.3312 60.4537 69.7482 61.5016 70.793C62.5494 71.8378 63.9705 72.4248 65.4524 72.4248C66.9342 72.4248 68.3554 71.8378 69.4032 70.793C70.451 69.7482 71.0397 68.3312 71.0397 66.8536V5.57114C71.038 4.09409 70.4488 2.67801 69.4014 1.63358C68.3539 0.589149 66.9337 0.00165888 65.4524 0Z" fill="#36B3FF"/>
<path d="M11.6746 24.3737H23.5476V48.0511H11.6746V24.3737Z" fill="#36B3FF"/>
<path d="M0.5 30.6413V41.7835C0.501849 43.4452 1.16469 45.0383 2.34308 46.2133C3.52148 47.3883 5.11921 48.0492 6.78571 48.0511H9.57937V24.3737H6.78571C5.11921 24.3756 3.52148 25.0365 2.34308 26.2115C1.16469 27.3865 0.501849 28.9796 0.5 30.6413Z" fill="#36B3FF"/>
<path d="M86.4048 34.1232H79.4206C78.8649 34.1232 78.332 34.3433 77.9391 34.7351C77.5461 35.1269 77.3254 35.6583 77.3254 36.2124C77.3254 36.7665 77.5461 37.2979 77.9391 37.6897C78.332 38.0815 78.8649 38.3016 79.4206 38.3016H86.4048C86.9605 38.3016 87.4934 38.0815 87.8863 37.6897C88.2793 37.2979 88.5 36.7665 88.5 36.2124C88.5 35.6583 88.2793 35.1269 87.8863 34.7351C87.4934 34.3433 86.9605 34.1232 86.4048 34.1232Z" fill="#36B3FF"/>
<path d="M75.9733 23.2135C76.2872 23.2135 76.597 23.1428 76.8796 23.0067L83.1746 19.9891C83.6754 19.749 84.0601 19.3203 84.2439 18.7974C84.4278 18.2745 84.3958 17.7003 84.155 17.2009C83.9142 16.7015 83.4843 16.318 82.9599 16.1347C82.4355 15.9513 81.8596 15.9832 81.3587 16.2233L75.0645 19.2411C74.6362 19.4462 74.2906 19.7903 74.0843 20.217C73.878 20.6436 73.8232 21.1276 73.9289 21.5893C74.0346 22.0511 74.2946 22.4634 74.6662 22.7585C75.0378 23.0536 75.4982 23.2141 75.9733 23.2135Z" fill="#36B3FF"/>
<path d="M83.1746 52.4357L76.8803 49.4181C76.3801 49.1824 75.8067 49.1535 75.2853 49.3378C74.7638 49.5221 74.3366 49.9045 74.0969 50.4016C73.8571 50.8988 73.8243 51.4703 74.0056 51.9915C74.1869 52.5127 74.5675 52.9412 75.0645 53.1836L81.3587 56.2015C81.8596 56.4416 82.4355 56.4734 82.9599 56.2901C83.4843 56.1068 83.9142 55.7233 84.155 55.2239C84.3958 54.7245 84.4278 54.1502 84.2439 53.6273C84.0601 53.1045 83.6754 52.6758 83.1746 52.4357Z" fill="#36B3FF"/>
</svg>
