<svg width="77" height="77" viewBox="0 0 77 77" fill="none" xmlns="http://www.w3.org/2000/svg">
<path d="M62.4115 8.35216L42.3426 22.9401L75.9692 47.3831C76.6421 44.5359 77 41.5684 77 38.5185C77 26.3116 71.2939 15.4143 62.4115 8.35216Z" fill="#36B3FF"/>
<path d="M58.4995 5.61631C52.6671 2.05441 45.8189 0 38.5 0C30.6343 0 23.3133 2.37399 17.2115 6.44084L24.8808 30.0538L58.4995 5.61631Z" fill="#36B3FF"/>
<path d="M13.406 9.33017C5.20276 16.3993 0 26.862 0 38.5184C0 42.1001 0.492981 45.5684 1.41142 48.861H26.2453L13.406 9.33017Z" fill="#36B3FF"/>
<path d="M2.98029 53.375C8.60505 66.7854 21.6039 76.3616 36.8731 77L44.5456 53.375H2.98029Z" fill="#36B3FF"/>
<path d="M41.6469 76.9073C56.7834 75.6764 69.4708 65.6484 74.5819 51.9539L54.4931 37.3515L41.6469 76.9073Z" fill="#36B3FF"/>
</svg>
