<svg width="89" height="88" viewBox="0 0 89 88" fill="none" xmlns="http://www.w3.org/2000/svg">
<path d="M18.3795 44C18.3795 37.4759 20.7849 31.504 24.7518 26.9211C15.9897 30.3578 7.62389 36.0469 1.1188 42.5099C0.29402 43.3295 0.293502 44.6657 1.11863 45.4851C7.52416 51.8451 15.8319 57.5817 24.75 61.0756C20.7831 56.4943 18.3795 50.5224 18.3795 44Z" fill="#36B3FF"/>
<path d="M64.2499 26.9246C68.2168 31.5057 70.6204 37.4777 70.6204 44C70.6204 50.5241 68.2151 56.496 64.2482 61.0789C73.0102 57.6423 81.376 51.9531 87.8811 45.4901C88.7061 44.6705 88.7064 43.3343 87.8813 42.5149C81.4758 36.1551 73.1681 30.4185 64.2499 26.9246Z" fill="#36B3FF"/>
<path d="M44.5 23.056C32.9513 23.056 23.556 32.4513 23.556 44C23.556 55.5487 32.9513 64.944 44.5 64.944C56.0487 64.944 65.4439 55.5487 65.4439 44C65.4439 32.4513 56.0487 23.056 44.5 23.056ZM44.5 53.8353C39.0768 53.8353 34.6647 49.4232 34.6647 44C34.6647 38.5768 39.0768 34.1647 44.5 34.1647C49.9232 34.1647 54.3352 38.5768 54.3352 44C54.3352 49.4232 49.9232 53.8353 44.5 53.8353Z" fill="#36B3FF"/>
<path d="M44.5 48.6588C47.073 48.6588 49.1588 46.573 49.1588 44C49.1588 41.427 47.073 39.3412 44.5 39.3412C41.927 39.3412 39.8411 41.427 39.8411 44C39.8411 46.573 41.927 48.6588 44.5 48.6588Z" fill="#36B3FF"/>
<path d="M44.5 11.2086C45.9294 11.2086 47.0882 10.0498 47.0882 8.62038V2.58824C47.0882 1.15884 45.9294 0 44.5 0C43.0706 0 41.9117 1.15884 41.9117 2.58824V8.6202C41.9117 10.0498 43.0706 11.2086 44.5 11.2086Z" fill="#36B3FF"/>
<path d="M59.9232 14.6656C61.1644 15.3736 62.7454 14.9417 63.4538 13.6997L66.894 7.66773C67.6022 6.42607 67.1699 4.84535 65.9281 4.13721C64.6863 3.42907 63.1057 3.86147 62.3976 5.10314L58.9573 11.1351C58.2492 12.3768 58.6816 13.9575 59.9232 14.6656Z" fill="#36B3FF"/>
<path d="M25.5462 13.6997C26.2543 14.9414 27.8349 15.3738 29.0767 14.6656C30.3184 13.9575 30.7508 12.3768 30.0426 11.1351L26.6024 5.10314C25.8942 3.86147 24.3133 3.42907 23.0718 4.13721C21.8302 4.84535 21.3978 6.42607 22.1059 7.66773L25.5462 13.6997Z" fill="#36B3FF"/>
<path d="M44.5 76.7916C43.0706 76.7916 41.9117 77.9504 41.9117 79.3798V85.4118C41.9117 86.8412 43.0706 88 44.5 88C45.9294 88 47.0882 86.8412 47.0882 85.4118V79.3798C47.0882 77.9502 45.9294 76.7916 44.5 76.7916Z" fill="#36B3FF"/>
<path d="M29.0769 73.3344C27.8352 72.6262 26.2547 73.0586 25.5464 74.3003L22.1061 80.3323C21.3979 81.5739 21.8303 83.1547 23.072 83.8628C24.3138 84.5709 25.8944 84.1384 26.6025 82.8969L30.0428 76.8649C30.7509 75.6232 30.3185 74.0425 29.0769 73.3344Z" fill="#36B3FF"/>
<path d="M63.4538 74.3003C62.7456 73.0586 61.1649 72.6261 59.9232 73.3344C58.6816 74.0425 58.2492 75.6232 58.9573 76.8649L62.3976 82.8969C63.1057 84.1385 64.6863 84.5709 65.9281 83.8628C67.1698 83.1547 67.6022 81.5739 66.894 80.3323L63.4538 74.3003Z" fill="#36B3FF"/>
</svg>
