<svg width="41" height="40" viewBox="0 0 41 40" fill="none" xmlns="http://www.w3.org/2000/svg">
<path d="M7.40452 14.1232C6.7111 7.41081 11.6367 1.02552 18.2025 0.125294C25.2468 -0.837734 31.4313 3.79684 32.6109 10.9855C32.7849 12.0506 32.6954 13.1628 32.7286 14.2514L32.7312 14.2462C32.6749 14.1965 32.6263 14.1284 32.5598 14.0997C28.3455 12.3202 24.2975 12.6368 20.4261 15.115C20.3084 15.1909 20.2419 15.3479 20.1523 15.4683C20.0909 15.4683 20.032 15.4683 19.9706 15.4683C19.8811 15.3479 19.8145 15.1909 19.6994 15.115C17.0767 13.3591 14.1878 12.6708 11.0968 13.1105C9.84047 13.2884 8.62506 13.7752 7.38917 14.1206H7.40197L7.40452 14.1232Z" fill="#01B6FE"/>
<path d="M32.7338 14.2488L32.7312 14.2541C34.1871 14.7696 35.377 15.7117 36.4107 16.8291C39.8702 20.5661 41.0037 24.9782 39.494 29.8797C37.9767 34.8074 34.5505 37.7959 29.5916 38.7694C26.3343 39.4079 23.2612 38.7118 20.4568 36.8695C20.2981 36.7648 20.1165 36.6994 19.945 36.6157C19.945 36.5895 19.945 36.5659 19.945 36.5398C20.1344 36.443 20.3417 36.3749 20.5054 36.2467C22.0176 35.0507 23.2049 33.5774 24.0749 31.8346C25.1752 29.6285 25.5359 27.2759 25.4182 24.8238C25.4182 24.8003 25.4131 24.7793 25.408 24.7558C27.1684 23.9471 28.6423 22.7512 29.8705 21.236C31.5183 19.2053 32.4139 16.8474 32.7338 14.2462V14.2488Z" fill="#01B6FE"/>
<path d="M19.9425 36.5372C19.9425 36.5633 19.9425 36.5869 19.9425 36.613C18.4277 37.8273 16.6775 38.5025 14.8045 38.7956C7.91628 39.8763 1.7215 35.4904 0.263004 28.5451C-0.896117 23.0208 1.86479 17.0777 6.79809 14.4791C7.00535 14.3692 7.20238 14.241 7.40452 14.1232L7.39173 14.1206C7.40964 14.22 7.43011 14.3195 7.4429 14.4189C8.06724 19.1896 10.5032 22.6282 14.7175 24.7558C14.7124 24.7767 14.7098 24.8003 14.7098 24.8238C14.6202 26.8833 14.8403 28.8905 15.6028 30.8192C16.5214 33.1482 18.0234 35.0063 19.9425 36.5372Z" fill="#01B6FE"/>
<path d="M20.1549 15.4709C23.0616 17.6063 24.7299 20.5111 25.3005 24.1015C25.3364 24.3214 25.3722 24.5386 25.408 24.7584C25.4131 24.7793 25.4157 24.8029 25.4182 24.8264C25.2877 24.8683 25.1521 24.8971 25.0268 24.952C22.7648 25.9308 20.4082 26.2213 18.0004 25.7842C16.8848 25.5801 15.805 25.1535 14.7098 24.8264C14.7098 24.8029 14.7149 24.7819 14.7175 24.7584C14.9606 22.9475 15.4211 21.2072 16.3218 19.6109C17.2507 17.9649 18.4277 16.5491 19.9732 15.4709C20.0346 15.4709 20.0935 15.4709 20.1549 15.4709Z" fill="#01B6FE"/>
</svg>
