<svg width="41" height="45" viewBox="0 0 41 45" fill="none" xmlns="http://www.w3.org/2000/svg">
<path d="M29.7707 12.1763C29.7707 15.8053 29.7707 19.4373 29.7707 23.0664C29.7707 24.09 29.4783 24.3517 28.4591 24.3895C25.7865 24.4855 23.2298 24.1045 20.8758 22.7291C16.4544 20.1469 14.1062 15.0231 15.0356 9.93426C15.9448 4.97045 19.9493 0.986605 24.9208 0.207283C26.1572 0.0124529 27.4283 0.0299004 28.6878 0.000821229C29.4522 -0.0166263 29.7707 0.361403 29.7707 1.15526C29.7736 4.82796 29.7707 8.50066 29.7707 12.1734V12.1763Z" fill="#01B5FE"/>
<path d="M9.23019 18.7685H11.1094V19.481C11.1094 23.6189 11.1007 27.7569 11.1267 31.8919C11.1267 32.2322 11.2773 32.6364 11.4916 32.8981C14.2712 36.2858 17.074 39.6561 19.8682 43.0293C19.9637 43.1427 20.0622 43.2532 20.149 43.3695C20.5457 43.8958 20.5226 44.4163 20.0911 44.774C19.6568 45.1346 19.1414 45.0648 18.7158 44.5559C17.4591 43.0525 16.2112 41.5433 14.9603 40.0341C13.724 38.5452 12.4847 37.0564 11.1644 35.4687C11.1383 35.7217 11.1094 35.8671 11.1094 36.0154C11.1065 37.9782 11.1094 39.941 11.1094 41.9039C11.1094 42.6832 10.7445 43.1427 10.151 43.1223C9.58344 43.1049 9.23598 42.657 9.23309 41.9155C9.23019 40.0167 9.23309 38.1149 9.23309 36.216C9.23309 36.0125 9.23309 35.8118 9.23309 35.4367C8.81035 35.9368 8.48895 36.312 8.17334 36.69C6.0191 39.2839 3.87645 41.8835 1.69905 44.4599C1.48189 44.7158 1.08231 44.9427 0.763806 44.9514C0.5119 44.9572 0.103637 44.649 0.0341453 44.4018C-0.0527191 44.0994 0.0312498 43.6254 0.228142 43.3811C1.78302 41.4415 3.38132 39.5398 4.96804 37.6263C6.28549 36.0357 7.61741 34.4567 8.91169 32.8516C9.09989 32.616 9.21571 32.2496 9.21861 31.9443C9.23888 27.8063 9.23309 23.6684 9.23309 19.5333C9.23309 19.3036 9.23309 19.0709 9.23309 18.7714L9.23019 18.7685Z" fill="#04B6FE"/>
<path d="M13.7529 16.7911C11.6074 16.7911 9.49657 16.9482 7.42341 16.7475C5.13598 16.5265 3.56953 14.3223 3.65639 11.8826C3.73746 9.69581 5.5732 7.67481 7.76508 7.5585C9.734 7.45381 11.7116 7.53523 13.7645 7.53523C12.7192 10.6322 12.7106 13.7291 13.7529 16.7882V16.7911Z" fill="#02B6FE"/>
<path d="M40.9965 19.5275C40.9241 20.4289 40.2379 20.807 39.569 20.4929C38.7149 20.0916 37.881 19.6554 37.0384 19.2309C35.4661 18.4428 33.8939 17.6461 32.3187 16.8667C31.8555 16.637 31.5804 16.3142 31.6615 15.7734C31.7599 15.1045 32.4288 14.8225 33.1295 15.1685C34.6873 15.9391 36.2392 16.7272 37.7912 17.5094C38.6512 17.9427 39.5314 18.344 40.3653 18.8267C40.6693 19.0011 40.8604 19.3705 40.9965 19.5304V19.5275Z" fill="#04B6FE"/>
<path d="M32.5996 9.4719C32.3767 9.25963 31.9945 9.03862 31.8381 8.71003C31.6441 8.30292 31.8178 7.86964 32.2579 7.64864C34.7075 6.40987 37.16 5.174 39.6183 3.95559C40.1163 3.70841 40.6201 3.90034 40.8633 4.34816C41.1065 4.79597 40.982 5.34557 40.4898 5.59856C38.0257 6.85769 35.5501 8.09064 33.0774 9.32942C32.9847 9.37594 32.8805 9.39048 32.5996 9.47481V9.4719Z" fill="#04B6FE"/>
<path d="M36.329 13.1272C35.1332 13.1272 33.9344 13.133 32.7386 13.1272C32.0408 13.1242 31.647 12.7695 31.6499 12.1821C31.6528 11.6034 32.0582 11.2457 32.7531 11.2428C35.1274 11.237 37.4988 11.237 39.8731 11.2428C40.5477 11.2428 40.9849 11.6383 40.9791 12.1966C40.9733 12.7549 40.5419 13.1213 39.8586 13.1272C38.683 13.133 37.5075 13.1272 36.329 13.1272Z" fill="#04B7FE"/>
</svg>
