<svg width="644" height="618" viewBox="0 0 644 618" fill="none" xmlns="http://www.w3.org/2000/svg">
<path d="M187.876 83.1638L177.835 103.781H219.319L209.263 83.1638H187.876Z" fill="#303031"/>
<path d="M182.71 66.2357L167.778 62.1092L167.993 92.2529L188.091 84.437L182.71 66.2357Z" fill="#303031"/>
<path d="M214.437 66.2357L229.369 62.1092L230.756 92.437L210.658 84.6211L214.437 66.2357Z" fill="#303031"/>
<path d="M217.012 73.7218L211.815 48.0191H186.389L181.192 73.7218C180.725 74.857 180.472 76.0535 180.472 77.2884C180.472 84.4447 188.812 90.2433 199.098 90.2433C209.385 90.2433 217.725 84.4447 217.725 77.2884C217.725 76.0535 217.472 74.857 217.005 73.7218H217.012Z" fill="#414042"/>
<path d="M212.037 49.6605C212.037 54.6231 206.25 58.6499 199.106 58.6499C191.962 58.6499 186.175 54.6231 186.175 49.6605C186.175 44.6979 191.962 40.6711 199.106 40.6711C206.25 40.6711 212.037 44.6979 212.037 49.6605Z" fill="#58595B"/>
<path d="M301.407 83.1638L291.358 103.781H332.85L322.793 83.1638H301.407Z" fill="#303031"/>
<path d="M296.241 66.2357L281.309 62.1092L281.523 92.2529L301.622 84.437L296.241 66.2357Z" fill="#303031"/>
<path d="M327.967 66.2357L342.892 62.1092L344.287 92.437L324.188 84.6211L327.967 66.2357Z" fill="#303031"/>
<path d="M330.543 73.7218L325.346 48.0191H299.92L294.723 73.7218C294.255 74.857 294.002 76.0535 294.002 77.2884C294.002 84.4447 302.342 90.2433 312.629 90.2433C322.916 90.2433 331.256 84.4447 331.256 77.2884C331.256 76.0535 331.003 74.857 330.535 73.7218H330.543Z" fill="#414042"/>
<path d="M312.637 58.6499C319.779 58.6499 325.568 54.6252 325.568 49.6605C325.568 44.6958 319.779 40.6711 312.637 40.6711C305.495 40.6711 299.705 44.6958 299.705 49.6605C299.705 54.6252 305.495 58.6499 312.637 58.6499Z" fill="#58595B"/>
<path d="M414.946 83.1638L404.889 103.781H446.373L436.324 83.1638H414.946Z" fill="#303031"/>
<path d="M409.771 66.2357L394.839 62.1092L395.054 92.2529L415.152 84.437L409.771 66.2357Z" fill="#303031"/>
<path d="M441.498 66.2357L456.422 62.1092L457.818 92.437L437.719 84.6211L441.498 66.2357Z" fill="#303031"/>
<path d="M444.074 73.7218L438.877 48.0191H413.451L408.254 73.7218C407.786 74.857 407.533 76.0535 407.533 77.2884C407.533 84.4447 415.873 90.2433 426.16 90.2433C436.447 90.2433 444.787 84.4447 444.787 77.2884C444.787 76.0535 444.534 74.857 444.066 73.7218H444.074Z" fill="#414042"/>
<path d="M439.091 49.6605C439.091 54.6231 433.304 58.6499 426.16 58.6499C419.016 58.6499 413.229 54.6231 413.229 49.6605C413.229 44.6979 419.016 40.6711 426.16 40.6711C433.304 40.6711 439.091 44.6979 439.091 49.6605Z" fill="#58595B"/>
<path d="M140.942 426.61L24.3756 536.907H601.212L484.654 426.61H140.942Z" fill="#2E97CC"/>
<path d="M140.942 426.61L24.3756 536.907H601.212L484.654 426.61H140.942Z" fill="url(#paint0_linear_49_249)" style="mix-blend-mode:multiply"/>
<path d="M484.661 119.467H140.942V426.603H484.661V119.467Z" fill="#36B3FF"/>
<path d="M484.661 119.467H140.942V426.603H484.661V119.467Z" fill="url(#paint1_linear_49_249)" style="mix-blend-mode:multiply"/>
<path d="M491.721 122.65C491.721 124.406 490.295 125.833 488.54 125.833H137.056C135.3 125.833 133.874 124.406 133.874 122.65C133.874 120.893 135.3 119.467 137.056 119.467H488.548C490.303 119.467 491.729 120.893 491.729 122.65H491.721Z" fill="#50413D"/>
<path d="M367.727 396.198C367.727 396.198 362.017 397.694 362.017 390.484C362.017 383.274 359.158 382.783 354.919 382.783C350.68 382.783 351.316 379.171 351.316 379.171L350.457 361.406L348.227 361.222L333.494 360.026C333.494 360.026 328.343 359.558 324.112 355.692C323.744 355.355 323.384 354.994 323.039 354.611C321.828 353.261 320.747 351.589 319.973 349.502C319.973 349.502 317.865 339.27 299.529 339.27H270.838C270.838 339.27 259.639 339.27 256.979 351.006C254.082 363.799 246.309 363.938 246.309 363.938L234.282 367.243C234.282 367.243 227.368 368.747 227.368 382.285V453.886C227.368 453.886 230.074 459.899 239.096 459.899H383.717C383.717 459.899 393.038 458.994 393.038 445.763V396.198H367.727Z" fill="#231F20"/>
<path d="M387.343 407.136C387.343 404.398 385.128 402.181 382.391 402.181C379.655 402.181 377.439 404.398 377.439 407.136C377.439 409.874 379.655 412.091 382.391 412.091C385.128 412.091 387.343 409.874 387.343 407.136Z" fill="#BCBEC0"/>
<path d="M346.686 373.824C346.686 371.125 344.501 368.939 341.803 368.939C339.105 368.939 336.921 371.125 336.921 373.824C336.921 376.524 339.105 378.71 341.803 378.71C344.501 378.71 346.686 376.524 346.686 373.824Z" fill="#BCBEC0"/>
<path d="M356.429 385.659C358.138 385.659 359.533 387.048 359.533 388.766V456.808C359.533 458.518 358.146 459.914 356.429 459.914H243.358C241.649 459.914 240.253 458.526 240.253 456.808V388.766C240.253 387.055 241.641 385.659 243.358 385.659H356.429Z" fill="#58595B"/>
<path d="M251.851 387.715H351.806C353.516 387.715 354.911 389.103 354.911 390.822V454.576C354.911 456.286 353.524 457.682 351.806 457.682H251.851C250.142 457.682 248.747 456.294 248.747 454.576V390.822C248.747 389.111 250.134 387.715 251.851 387.715Z" fill="#231F20"/>
<path d="M269.213 343.734H307.348C313.173 343.734 317.903 348.467 317.903 354.296V372.927C317.903 378.756 313.173 383.481 307.355 383.481H269.221C263.395 383.481 258.665 378.749 258.665 372.919V354.296C258.665 348.467 263.395 343.734 269.221 343.734H269.213Z" fill="#414042"/>
<path d="M269.213 344.985H307.348C312.484 344.985 316.661 349.157 316.661 354.304V372.927C316.661 378.066 312.491 382.239 307.355 382.239H269.221C264.085 382.239 259.907 378.066 259.907 372.919V354.296C259.907 349.157 264.077 344.977 269.221 344.977L269.213 344.985Z" fill="#231F20"/>
<path d="M268.63 348.045H307.923C309.632 348.045 311.027 349.433 311.027 351.151V376.064C311.027 377.775 309.64 379.171 307.923 379.171H268.63C266.921 379.171 265.526 377.782 265.526 376.064V351.151C265.526 349.441 266.913 348.045 268.63 348.045Z" fill="#414042"/>
<path d="M274.678 350.745H301.89C303.599 350.745 304.995 352.133 304.995 353.851V373.364C304.995 375.075 303.607 376.471 301.89 376.471H274.678C272.969 376.471 271.574 375.082 271.574 373.364V353.851C271.574 352.141 272.961 350.745 274.678 350.745Z" fill="#231F20"/>
<path d="M279.814 354.864H296.747C298.456 354.864 299.851 356.252 299.851 357.97V369.253C299.851 370.963 298.464 372.359 296.747 372.359H279.822C278.112 372.359 276.717 370.971 276.717 369.253V357.97C276.717 356.26 278.105 354.864 279.822 354.864H279.814Z" fill="#414042"/>
<path d="M297.797 356.919H278.772V370.296H297.797V356.919Z" fill="#718B90"/>
<path d="M351.316 391.059H256.718V454.33H351.316V391.059Z" fill="#BCBEC0"/>
<path d="M247.719 375.374C247.719 373.525 246.225 372.03 244.377 372.03C242.53 372.03 241.035 373.525 241.035 375.374C241.035 377.222 242.53 378.718 244.377 378.718C246.225 378.718 247.719 377.222 247.719 375.374Z" fill="#BCBEC0"/>
<path d="M330.75 373.824C330.75 371.692 329.025 369.966 326.894 369.966C324.763 369.966 323.039 371.692 323.039 373.824C323.039 375.957 324.763 377.683 326.894 377.683C329.025 377.683 330.75 375.957 330.75 373.824Z" fill="#BCBEC0"/>
<path d="M344.111 373.824C344.111 372.544 343.076 371.508 341.796 371.508C340.516 371.508 339.481 372.544 339.481 373.824C339.481 375.105 340.516 376.141 341.796 376.141C343.076 376.141 344.111 375.105 344.111 373.824Z" fill="#EC5824"/>
<path d="M390.125 427.071C390.125 419.546 384.024 413.441 376.504 413.441C368.984 413.441 362.883 419.546 362.883 427.071C362.883 434.595 368.984 440.701 376.504 440.701C384.024 440.701 390.125 434.603 390.125 427.071Z" fill="#414042"/>
<path d="M376.926 431.542C379.363 431.404 381.226 429.31 381.088 426.871C380.95 424.432 378.857 422.561 376.42 422.706C373.982 422.844 372.12 424.938 372.258 427.377C372.395 429.817 374.488 431.68 376.926 431.542Z" fill="#231F20"/>
<path d="M369.567 427.071C369.567 425.859 369.874 424.724 370.426 423.726L366.171 421.333C365.228 423.036 364.684 424.984 364.684 427.071C364.684 429.295 365.305 431.366 366.371 433.138L370.586 430.676C369.943 429.625 369.567 428.39 369.567 427.071Z" fill="#231F20"/>
<path d="M376.504 434.02C375.308 434.02 374.181 433.713 373.193 433.184L370.801 437.441C372.495 438.376 374.434 438.906 376.504 438.906C378.673 438.906 380.705 438.307 382.452 437.287L379.992 433.069C378.965 433.667 377.777 434.02 376.504 434.02Z" fill="#231F20"/>
<path d="M383.441 427.071C383.441 428.336 383.096 429.517 382.514 430.538L386.768 432.931C387.757 431.205 388.324 429.203 388.324 427.071C388.324 424.938 387.757 422.952 386.768 421.226L382.552 423.688C383.112 424.693 383.434 425.843 383.434 427.078L383.441 427.071Z" fill="#231F20"/>
<path d="M376.504 420.129C377.777 420.129 378.972 420.482 379.999 421.08L382.391 416.823C380.659 415.826 378.65 415.243 376.504 415.243C374.358 415.243 372.296 415.842 370.54 416.869L373.001 421.088C374.028 420.482 375.224 420.129 376.504 420.129Z" fill="#231F20"/>
<path d="M386.101 407.136C386.101 405.08 384.438 403.424 382.391 403.424C380.344 403.424 378.681 405.088 378.681 407.136C378.681 409.184 380.344 410.848 382.391 410.848C384.438 410.848 386.101 409.184 386.101 407.136Z" fill="#414042"/>
<path d="M374.427 448.256C374.427 446.131 372.702 444.405 370.579 444.405C368.456 444.405 366.731 446.131 366.731 448.256C366.731 450.38 368.456 452.106 370.579 452.106C372.702 452.106 374.427 450.388 374.427 448.256Z" fill="#58595B"/>
<path d="M354.075 361.698C354.075 361.698 353.945 359.55 356.306 359.55C358.667 359.55 364.746 359.082 370.832 360.624C370.832 360.624 372.334 360.609 372.457 363.186L354.083 361.698H354.075Z" fill="#6D6E71"/>
<path d="M377.991 363.638L350.45 361.406L351.308 379.171C351.308 379.171 350.664 382.783 354.911 382.783C359.158 382.783 362.009 383.282 362.009 390.484C362.009 397.686 367.72 396.198 367.72 396.198H393.023V378.074C393.023 378.074 390.616 363.631 377.991 363.631V363.638Z" fill="#58595B"/>
<path d="M324.112 355.692C328.343 359.558 333.494 360.026 333.494 360.026L348.227 361.222C349.338 353.33 347.614 353.337 347.614 353.337C338.798 350.354 325.637 350.745 325.637 350.745C321.912 350.392 323.039 354.595 323.039 354.603L324.112 355.685L324.112 355.692Z" fill="#414042"/>
<path d="M319.98 594.556H299.207V617.996H319.98V594.556Z" fill="#FFF6EB"/>
<path d="M295.252 464.7L295.267 464.685C295.267 464.685 295.229 464.654 295.206 464.631C295.198 464.624 295.191 464.608 295.183 464.593H295.175C293.305 462.875 290.814 464.685 290.814 464.685L265.503 487.726C263.288 490.219 264.706 491.86 265.035 492.183C265.242 492.451 266.752 494.223 269.55 492.152L294.792 469.034C294.792 469.034 296.816 466.702 295.26 464.693L295.252 464.7Z" fill="#414042"/>
<path d="M271.773 487.097L271.804 487.067C271.758 487.021 271.719 486.998 271.673 486.959C271.65 486.936 271.635 486.906 271.612 486.875L271.589 486.89C267.557 483.163 262.176 487.067 262.176 487.067L237.847 509.21C233.071 514.603 236.122 518.131 236.835 518.836C237.279 519.412 240.545 523.224 246.57 518.767L270.761 496.47C270.761 496.47 275.123 491.446 271.765 487.105L271.773 487.097Z" fill="#231F20"/>
<path d="M349.285 465.759H344.869V480.746H349.285V465.759Z" fill="#231F20"/>
<path d="M344.869 480.746L340.454 477.433V469.08L344.869 465.759V480.746Z" fill="#414042"/>
<path d="M340.447 471.88H334.061V474.633H340.447V471.88Z" fill="#231F20"/>
<path d="M335.035 469.08H283.953V477.441H335.035V469.08Z" fill="#58595B"/>
<path d="M335.035 469.08H283.953L292.653 460.72H326.335L335.035 469.08Z" fill="#231F20"/>
<path d="M296.087 495.757C296.087 495.757 298.625 489.007 309.586 489.007C320.547 489.007 322.901 495.757 322.901 495.757H296.087Z" fill="#231F20"/>
<path d="M315.473 477.433H303.515V492.382H315.473V477.433Z" fill="#414042"/>
<path d="M328.611 495.757H290.384V536.907H328.611V495.757Z" fill="#231F20"/>
<path d="M288.139 506.695H273.643V526.813H288.139V506.695Z" fill="#231F20"/>
<path d="M275.905 506.748V526.867C275.905 526.867 277.353 529.59 280.611 529.59C283.869 529.59 285.862 526.867 285.862 526.867V506.748C285.862 506.748 284.689 503.91 280.879 503.91C277.07 503.91 275.897 506.748 275.897 506.748H275.905Z" fill="#414042"/>
<path d="M290.384 511.404H288.131V522.096H290.384V511.404Z" fill="#231F20"/>
<path d="M345.352 506.687H330.857V526.806H345.352V506.687Z" fill="#231F20"/>
<path d="M343.083 526.752V506.633C343.083 506.633 341.635 503.918 338.369 503.918C335.104 503.918 333.118 506.633 333.118 506.633V526.752C333.118 526.752 334.284 529.598 338.101 529.598C341.918 529.598 343.083 526.752 343.083 526.752Z" fill="#414042"/>
<path d="M330.857 511.404H328.611V522.104H330.857V511.404Z" fill="#231F20"/>
<path d="M319.881 495.757H299.108V536.907H319.881V495.757Z" fill="#58595B"/>
<path d="M302.273 495.757V503.91C302.273 503.91 303.684 508.505 309.479 508.505C315.274 508.505 316.73 503.91 316.73 503.91V495.757H302.273Z" fill="#414042"/>
<path d="M333.118 540.167C333.118 541.97 331.654 543.427 329.861 543.427H289.127C287.326 543.427 285.87 541.97 285.87 540.167C285.87 538.365 287.334 536.907 289.127 536.907H329.861C331.662 536.907 333.118 538.372 333.118 540.167Z" fill="#231F20"/>
<path d="M325.66 543.435H293.535V551.534H325.66V543.435Z" fill="#414042"/>
<path d="M320.524 551.527H298.464V562.886H320.524V551.527Z" fill="#231F20"/>
<path d="M317.627 565.31H301.361L298.464 562.894H320.524L317.627 565.31Z" fill="#58595B"/>
<path d="M321.214 565.31H297.781V594.556H321.214V565.31Z" fill="#414042"/>
<path d="M324.188 571.109H294.807V590.445H324.188V571.109Z" fill="#231F20"/>
<path d="M324.188 571.109H294.807V573.041H324.188V571.109Z" fill="#58595B"/>
<path d="M324.188 588.512H294.807V590.445H324.188V588.512Z" fill="#58595B"/>
<path d="M321.214 597.939H297.781V600.838H321.214V597.939Z" fill="#231F20"/>
<path d="M571.402 409.552L564.542 435.983H562.48L568.52 409.552H571.402Z" fill="#231F20"/>
<path d="M571.371 221.51H568.566V441.958H571.371V221.51Z" fill="#414042"/>
<path d="M572.728 238.86H567.217V246.277H572.728V238.86Z" fill="#231F20"/>
<path d="M576.2 238.86H572.728V241.399H576.2V238.86Z" fill="#231F20"/>
<path d="M572.728 336.923H567.217V344.34H572.728V336.923Z" fill="#231F20"/>
<path d="M576.2 336.923H572.728V339.462H576.2V336.923Z" fill="#231F20"/>
<path d="M609.192 441.767H572.812V444.574H609.192V441.767Z" fill="#414042"/>
<path d="M563.468 409.552L565.415 411.577L499.854 474.58H495.807L563.468 409.552Z" fill="#414042"/>
<path d="M566.987 441.767H530.607V444.574H566.987V441.767Z" fill="#414042"/>
<path d="M574.483 441.276H565.262V445.057H574.483V441.276Z" fill="#231F20"/>
<path d="M576.331 409.552L574.384 411.577L639.945 474.58H644L576.331 409.552Z" fill="#414042"/>
<path d="M576.43 407.941H563.507V412.628H576.43V407.941Z" fill="#231F20"/>
<path d="M535.889 134.408L579.405 180.866V326.185L535.889 358.147L534.524 136.119" fill="#414042"/>
<path d="M439.605 343.78V156.26L535.889 134.408V358.147L439.605 343.78Z" fill="#58595B"/>
<path d="M534.524 356.559L440.969 342.599V157.35L534.524 136.119V356.559Z" fill="white"/>
<path d="M534.524 356.559L440.969 342.599V157.35L534.524 136.119V356.559Z" fill="url(#paint2_radial_49_249)"/>
<path d="M75.5952 409.552L68.7347 435.983H66.6728L72.7207 409.552H75.5952Z" fill="#231F20"/>
<path d="M75.5645 221.51H72.759V441.958H75.5645V221.51Z" fill="#414042"/>
<path d="M76.9213 238.86H71.4099V246.277H76.9213V238.86Z" fill="#231F20"/>
<path d="M80.3936 238.86H76.9213L76.9213 241.399H80.3936V238.86Z" fill="#231F20"/>
<path d="M76.9213 336.923H71.4099V344.34H76.9213V336.923Z" fill="#231F20"/>
<path d="M80.3936 336.923H76.9213L76.9213 339.462H80.3936V336.923Z" fill="#231F20"/>
<path d="M113.385 441.767H77.0056V444.574H113.385V441.767Z" fill="#414042"/>
<path d="M67.6692 409.552L69.6086 411.577L4.05494 474.58H0L67.6692 409.552Z" fill="#414042"/>
<path d="M71.1876 441.767H34.8081V444.574H71.1876V441.767Z" fill="#414042"/>
<path d="M78.6766 441.276H69.4553V445.057H78.6766V441.276Z" fill="#231F20"/>
<path d="M80.5239 409.552L78.5846 411.577L144.146 474.58H148.193L80.5239 409.552Z" fill="#414042"/>
<path d="M80.6313 407.941H67.7076V412.628H80.6313V407.941Z" fill="#231F20"/>
<path d="M91.8379 333.917C91.8379 333.917 52.7449 282.365 53.4961 211.478C53.4961 211.478 107.575 303.267 91.8379 333.917Z" fill="#303031"/>
<path d="M60.8241 246.484L111.216 152.257L194.308 143.812L225.321 231.244L174.93 325.472L91.8379 333.917L60.8241 246.484Z" fill="#58595B"/>
<path d="M94.4441 329.798L65.0094 246.799L113.638 155.862L191.701 147.931L221.144 230.929L172.515 321.859L94.4441 329.798Z" fill="white"/>
<path d="M60.8241 246.484L53.4961 211.478L82.356 163.217L111.216 152.257L60.8241 246.484Z" fill="#414042"/>
<path d="M94.4441 329.798L65.0094 246.799L113.638 155.862L191.701 147.931L221.144 230.929L172.515 321.859L94.4441 329.798Z" fill="url(#paint3_radial_49_249)"/>
<path d="M480.614 48.0191C480.614 48.9242 479.878 49.6528 478.981 49.6528H146.622C145.717 49.6528 144.989 48.9165 144.989 48.0191C144.989 47.114 145.725 46.3854 146.622 46.3854H478.974C479.878 46.3854 480.606 47.1217 480.606 48.0191H480.614Z" fill="#414042"/>
<path d="M162.205 0.00390625H158.932V48.0191H162.205V0.00390625Z" fill="#414042"/>
<path d="M314.438 0.00390625H311.165V48.0191H314.438V0.00390625Z" fill="#414042"/>
<path d="M466.671 0.00390625H463.398V48.0191H466.671V0.00390625Z" fill="#414042"/>
<defs>
<linearGradient id="paint0_linear_49_249" x1="322.004" y1="875.464" x2="322.004" y2="-344.018" gradientUnits="userSpaceOnUse">
<stop stop-color="white" stop-opacity="0"/>
<stop offset="1" stop-opacity="0.3"/>
</linearGradient>
<linearGradient id="paint1_linear_49_249" x1="321.993" y1="149.552" x2="321.993" y2="804.939" gradientUnits="userSpaceOnUse">
<stop stop-color="white" stop-opacity="0"/>
<stop offset="1" stop-opacity="0.3"/>
</linearGradient>
<radialGradient id="paint2_radial_49_249" cx="0" cy="0" r="1" gradientUnits="userSpaceOnUse" gradientTransform="translate(321.974 305.627) scale(546.068 460.644)">
<stop stop-color="white" stop-opacity="0"/>
<stop offset="1" stop-opacity="0.3"/>
</radialGradient>
<radialGradient id="paint3_radial_49_249" cx="0" cy="0" r="1" gradientUnits="userSpaceOnUse" gradientTransform="translate(323.309 306.291) rotate(19.2946) scale(388.125 481.09)">
<stop stop-color="white" stop-opacity="0"/>
<stop offset="1" stop-opacity="0.3"/>
</radialGradient>
</defs>
</svg>
