<svg width="48" height="37" viewBox="0 0 48 37" fill="none" xmlns="http://www.w3.org/2000/svg">
<mask id="path-1-outside-1_34_856" maskUnits="userSpaceOnUse" x="0" y="-0.5" width="48" height="38" fill="black">
<rect fill="white" y="-0.5" width="48" height="38"/>
<path d="M11.2864 8.28622C13.152 8.39915 14.8622 8.92425 16.4336 9.89541C16.9833 10.2342 17.4441 10.2229 18.0105 9.91799C21.3809 8.11119 24.7679 7.91357 28.0717 10.0591C30.5592 11.6796 31.9085 14.1358 32.6136 16.9871C34.2405 23.5876 31.1311 31.3456 25.462 34.7446C22.8523 36.3143 20.076 36.845 17.111 35.8908C16.9611 35.84 16.7667 35.8456 16.6168 35.8965C13.2187 37.133 10.1259 36.399 7.27191 34.3381C4.83435 32.5708 3.25188 30.1486 2.19691 27.3198C0.608883 23.0625 0.531148 18.8278 2.38569 14.6496C3.64611 11.8095 5.66168 9.70908 8.6767 8.79439C9.52069 8.5403 10.4146 8.44432 11.2919 8.28058L11.2864 8.28622Z"/>
<path d="M31.5998 11.0021C32.6826 11.0868 33.732 11.482 34.7148 12.0749C35.0424 12.2725 35.3311 12.329 35.6754 12.1313C40.1507 9.57922 45.0036 11.7304 46.5306 16.7726C48.113 22.0123 45.5644 28.3813 40.8448 30.86C39.0902 31.786 37.2412 32.0401 35.3033 31.4924C35.0757 31.4303 34.7981 31.4698 34.5649 31.5432C33.4155 31.8989 32.2606 31.9893 31.1278 31.7521C35.481 24.9032 36.4472 18.0317 31.5998 11.0021Z"/>
<path d="M22.3304 0.511293C22.508 0.686327 22.7968 0.83313 22.8467 1.04204C22.9356 1.4147 22.6302 1.53891 22.3026 1.55585C21.3587 1.61231 20.6757 2.14871 20.0705 2.81497C19.0766 3.91599 18.6324 5.29368 18.2215 6.67702C18.0216 7.34328 17.8717 8.02647 17.7384 8.70967C17.6662 9.07668 17.433 9.22913 17.1388 9.1896C16.8112 9.15008 16.7334 8.89035 16.8167 8.55722C17.2942 6.5415 17.7107 4.5032 18.9322 2.7698C19.6152 1.79864 20.4369 1.00252 21.6196 0.703266C21.8195 0.652449 22.0194 0.629864 22.2249 0.59034C22.2637 0.562109 22.297 0.528231 22.3359 0.5L22.3304 0.511293Z"/>
<path d="M39.0791 5.22032C39.1679 5.29937 39.44 5.43488 39.4955 5.63814C39.5899 5.96563 39.3401 6.1576 39.0236 6.17454C37.9853 6.22535 37.319 6.83515 36.797 7.65951C36.214 8.58549 35.9197 9.61876 35.7587 10.6972C35.6921 11.1376 35.3867 11.3804 35.0813 11.1997C34.9536 11.1263 34.8148 10.9118 34.8314 10.7819C35.0202 9.23481 35.47 7.78372 36.475 6.56413C37.1024 5.79624 37.8853 5.30501 39.0791 5.22032Z"/>
</mask>
<path d="M11.2864 8.28622C13.152 8.39915 14.8622 8.92425 16.4336 9.89541C16.9833 10.2342 17.4441 10.2229 18.0105 9.91799C21.3809 8.11119 24.7679 7.91357 28.0717 10.0591C30.5592 11.6796 31.9085 14.1358 32.6136 16.9871C34.2405 23.5876 31.1311 31.3456 25.462 34.7446C22.8523 36.3143 20.076 36.845 17.111 35.8908C16.9611 35.84 16.7667 35.8456 16.6168 35.8965C13.2187 37.133 10.1259 36.399 7.27191 34.3381C4.83435 32.5708 3.25188 30.1486 2.19691 27.3198C0.608883 23.0625 0.531148 18.8278 2.38569 14.6496C3.64611 11.8095 5.66168 9.70908 8.6767 8.79439C9.52069 8.5403 10.4146 8.44432 11.2919 8.28058L11.2864 8.28622Z" fill="#00B5FE"/>
<path d="M31.5998 11.0021C32.6826 11.0868 33.732 11.482 34.7148 12.0749C35.0424 12.2725 35.3311 12.329 35.6754 12.1313C40.1507 9.57922 45.0036 11.7304 46.5306 16.7726C48.113 22.0123 45.5644 28.3813 40.8448 30.86C39.0902 31.786 37.2412 32.0401 35.3033 31.4924C35.0757 31.4303 34.7981 31.4698 34.5649 31.5432C33.4155 31.8989 32.2606 31.9893 31.1278 31.7521C35.481 24.9032 36.4472 18.0317 31.5998 11.0021Z" fill="#01B6FE"/>
<path d="M22.3304 0.511293C22.508 0.686327 22.7968 0.83313 22.8467 1.04204C22.9356 1.4147 22.6302 1.53891 22.3026 1.55585C21.3587 1.61231 20.6757 2.14871 20.0705 2.81497C19.0766 3.91599 18.6324 5.29368 18.2215 6.67702C18.0216 7.34328 17.8717 8.02647 17.7384 8.70967C17.6662 9.07668 17.433 9.22913 17.1388 9.1896C16.8112 9.15008 16.7334 8.89035 16.8167 8.55722C17.2942 6.5415 17.7107 4.5032 18.9322 2.7698C19.6152 1.79864 20.4369 1.00252 21.6196 0.703266C21.8195 0.652449 22.0194 0.629864 22.2249 0.59034C22.2637 0.562109 22.297 0.528231 22.3359 0.5L22.3304 0.511293Z" fill="#06B7FE"/>
<path d="M39.0791 5.22032C39.1679 5.29937 39.44 5.43488 39.4955 5.63814C39.5899 5.96563 39.3401 6.1576 39.0236 6.17454C37.9853 6.22535 37.319 6.83515 36.797 7.65951C36.214 8.58549 35.9197 9.61876 35.7587 10.6972C35.6921 11.1376 35.3867 11.3804 35.0813 11.1997C34.9536 11.1263 34.8148 10.9118 34.8314 10.7819C35.0202 9.23481 35.47 7.78372 36.475 6.56413C37.1024 5.79624 37.8853 5.30501 39.0791 5.22032Z" fill="#06B7FE"/>
<path d="M11.2864 8.28622L10.9299 7.93563L10.1596 8.71893L11.2562 8.78531L11.2864 8.28622ZM16.4336 9.89541L16.1707 10.3207L16.1712 10.3211L16.4336 9.89541ZM18.0105 9.91799L17.7743 9.47732L17.7735 9.47774L18.0105 9.91799ZM28.0717 10.0591L28.3446 9.6402L28.344 9.63982L28.0717 10.0591ZM32.6136 16.9871L33.0991 16.8675L33.099 16.8671L32.6136 16.9871ZM25.462 34.7446L25.2049 34.3158L25.2043 34.3162L25.462 34.7446ZM17.111 35.8908L16.9505 36.3644L16.9578 36.3668L17.111 35.8908ZM16.6168 35.8965L16.4563 35.4228L16.4458 35.4266L16.6168 35.8965ZM7.27191 34.3381L6.97842 34.7429L6.9792 34.7435L7.27191 34.3381ZM2.19691 27.3198L2.66539 27.1451L2.66538 27.145L2.19691 27.3198ZM2.38569 14.6496L2.8427 14.8524L2.84271 14.8524L2.38569 14.6496ZM8.6767 8.79439L8.53257 8.31561L8.53154 8.31592L8.6767 8.79439ZM11.2919 8.28058L11.6484 8.63117L12.7636 7.49727L11.2002 7.78906L11.2919 8.28058ZM31.5998 11.0021L31.6388 10.5036L30.5923 10.4217L31.1882 11.2859L31.5998 11.0021ZM34.7148 12.0749L34.973 11.6467L34.7148 12.0749ZM35.6754 12.1313L35.4277 11.697L35.4264 11.6977L35.6754 12.1313ZM46.5306 16.7726L47.0092 16.628L47.0091 16.6276L46.5306 16.7726ZM40.8448 30.86L40.6123 30.4173L40.6114 30.4178L40.8448 30.86ZM35.3033 31.4924L35.4393 31.0112L35.4349 31.01L35.3033 31.4924ZM34.5649 31.5432L34.7127 32.0209L34.715 32.0201L34.5649 31.5432ZM31.1278 31.7521L30.7059 31.4839L30.3184 32.0935L31.0254 32.2415L31.1278 31.7521ZM22.3304 0.511293L21.8817 0.290642L21.7225 0.61434L21.9795 0.867489L22.3304 0.511293ZM22.8467 1.04204L23.3331 0.926091L23.333 0.925721L22.8467 1.04204ZM22.3026 1.55585L22.2768 1.0565L22.2727 1.05674L22.3026 1.55585ZM20.0705 2.81497L19.7004 2.47877L19.6993 2.47993L20.0705 2.81497ZM18.2215 6.67702L18.7004 6.8207L18.7008 6.81938L18.2215 6.67702ZM17.7384 8.70967L18.229 8.80616L18.2292 8.8054L17.7384 8.70967ZM17.1388 9.1896L17.2053 8.69401L17.1986 8.6932L17.1388 9.1896ZM16.8167 8.55722L17.3018 8.67851L17.3032 8.67248L16.8167 8.55722ZM18.9322 2.7698L19.3409 3.05782L19.3412 3.05742L18.9322 2.7698ZM21.6196 0.703266L21.7423 1.18799L21.7428 1.18785L21.6196 0.703266ZM22.2249 0.59034L22.3193 1.08134L22.4286 1.06031L22.5187 0.994887L22.2249 0.59034ZM22.3359 0.5L22.7846 0.720651L22.0421 0.0954534L22.3359 0.5ZM39.0791 5.22032L39.4115 4.84678L39.254 4.70666L39.0437 4.72157L39.0791 5.22032ZM39.4955 5.63814L39.0132 5.76991L39.0151 5.77662L39.4955 5.63814ZM39.0236 6.17454L39.048 6.67395L39.0503 6.67382L39.0236 6.17454ZM36.797 7.65951L36.3746 7.39204L36.3739 7.3931L36.797 7.65951ZM35.7587 10.6972L36.2531 10.772L36.2532 10.771L35.7587 10.6972ZM35.0813 11.1997L35.3359 10.7694L35.3304 10.7662L35.0813 11.1997ZM34.8314 10.7819L35.3274 10.8455L35.3277 10.8425L34.8314 10.7819ZM36.475 6.56413L36.8608 6.88211L36.8622 6.8805L36.475 6.56413ZM11.2562 8.78531C13.043 8.89347 14.6727 9.39489 16.1707 10.3207L16.6964 9.47008C15.0518 8.45361 13.261 7.90483 11.3166 7.78714L11.2562 8.78531ZM16.1712 10.3211C16.5031 10.5256 16.8446 10.646 17.213 10.6481C17.5778 10.6501 17.918 10.5356 18.2475 10.3582L17.7735 9.47774C17.5366 9.60526 17.3632 9.64889 17.2186 9.64809C17.0775 9.6473 16.9138 9.60402 16.6959 9.46975L16.1712 10.3211ZM18.2467 10.3587C21.4891 8.62049 24.6773 8.45092 27.7993 10.4785L28.344 9.63982C24.8585 7.37621 21.2727 7.60189 17.7743 9.47732L18.2467 10.3587ZM27.7988 10.4781C30.1483 12.0087 31.4429 14.336 32.1283 17.1072L33.099 16.8671C32.374 13.9355 30.9701 11.3506 28.3446 9.6402L27.7988 10.4781ZM32.1282 17.1068C33.705 23.504 30.6772 31.0348 25.2049 34.3158L25.7191 35.1735C31.5851 31.6564 34.7761 23.6712 33.0991 16.8675L32.1282 17.1068ZM25.2043 34.3162C22.6958 35.8249 20.0687 36.3174 17.2642 35.4149L16.9578 36.3668C20.0834 37.3727 23.0088 36.8036 25.7197 35.1731L25.2043 34.3162ZM17.2715 35.4173C17.0068 35.3276 16.6991 35.3406 16.4563 35.4229L16.7773 36.37C16.8343 36.3507 16.9153 36.3524 16.9505 36.3644L17.2715 35.4173ZM16.4458 35.4266C13.2333 36.5956 10.3124 35.9169 7.56463 33.9327L6.9792 34.7435C9.93947 36.8811 13.204 37.6704 16.7878 36.3663L16.4458 35.4266ZM7.5654 33.9333C5.22665 32.2376 3.69525 29.9065 2.66539 27.1451L1.72842 27.4945C2.80852 30.3906 4.44206 32.904 6.97842 34.7429L7.5654 33.9333ZM2.66538 27.145C1.1169 22.9938 1.04795 18.8959 2.8427 14.8524L1.92869 14.4467C0.0143473 18.7597 0.100871 23.1312 1.72844 27.4945L2.66538 27.145ZM2.84271 14.8524C4.05658 12.1172 5.97273 10.1372 8.82186 9.27285L8.53154 8.31592C5.35063 9.28094 3.23564 11.5018 1.92868 14.4467L2.84271 14.8524ZM8.82084 9.27316C9.63127 9.02918 10.4537 8.94566 11.3837 8.77209L11.2002 7.78906C10.3756 7.94298 9.4101 8.05143 8.53257 8.31561L8.82084 9.27316ZM10.9355 7.92999L10.9299 7.93563L11.6429 8.63681L11.6484 8.63117L10.9355 7.92999ZM31.5608 11.5006C32.5477 11.5778 33.5226 11.9397 34.4565 12.503L34.973 11.6467C33.9413 11.0244 32.8174 10.5958 31.6388 10.5036L31.5608 11.5006ZM34.4565 12.503C34.6538 12.622 34.8827 12.7257 35.1438 12.7493C35.4163 12.7739 35.6762 12.7074 35.9243 12.565L35.4264 11.6977C35.3303 11.7529 35.2737 11.757 35.2338 11.7533C35.1827 11.7487 35.1033 11.7253 34.973 11.6467L34.4565 12.503ZM35.9231 12.5657C38.0344 11.3617 40.2015 11.2809 42.0102 12.063C43.8227 12.8468 45.3259 14.5197 46.052 16.9175L47.0091 16.6276C46.2083 13.9833 44.5215 12.0595 42.4071 11.1452C40.2887 10.2292 37.7917 10.3489 35.4277 11.697L35.9231 12.5657ZM46.0519 16.9171C47.5687 21.9393 45.1089 28.0557 40.6123 30.4173L41.0773 31.3027C46.0199 28.7068 48.6574 22.0853 47.0092 16.628L46.0519 16.9171ZM40.6114 30.4178C38.9611 31.2887 37.2439 31.5213 35.4393 31.0112L35.1674 31.9735C37.2384 32.5589 39.2192 32.2832 41.0781 31.3022L40.6114 30.4178ZM35.4349 31.01C35.0738 30.9115 34.688 30.9802 34.4147 31.0663L34.715 32.0201C34.9081 31.9593 35.0776 31.9491 35.1717 31.9748L35.4349 31.01ZM34.417 31.0655C33.3364 31.4 32.2681 31.48 31.2303 31.2627L31.0254 32.2415C32.253 32.4985 33.4946 32.3978 34.7127 32.0208L34.417 31.0655ZM31.5498 32.0203C33.7563 28.5488 35.1278 25.0356 35.3134 21.4708C35.4994 17.8969 34.4911 14.3142 32.0114 10.7182L31.1882 11.2859C33.5559 14.7196 34.4882 18.0874 34.3147 21.4189C34.1408 24.7595 32.8526 28.1065 30.7059 31.4839L31.5498 32.0203ZM21.9795 0.867489C22.0448 0.931815 22.1145 0.988056 22.1695 1.03139C22.2318 1.08049 22.2724 1.11105 22.3145 1.14652C22.3544 1.18009 22.3728 1.19952 22.3802 1.20883C22.387 1.21728 22.3704 1.19971 22.3605 1.15836L23.333 0.925721C23.2668 0.6487 23.0619 0.468541 22.9584 0.381404C22.8999 0.332177 22.8318 0.280167 22.7885 0.245988C22.7378 0.206034 22.7048 0.178287 22.6813 0.155096L21.9795 0.867489ZM22.3604 1.15799C22.3662 1.18225 22.3565 1.1628 22.3705 1.12025C22.3773 1.09988 22.3875 1.0806 22.3999 1.06406C22.412 1.04796 22.4235 1.03785 22.4306 1.03254C22.4426 1.02348 22.4399 1.02948 22.4076 1.03821C22.3769 1.04653 22.333 1.05361 22.2768 1.05652L22.3284 2.05518C22.5256 2.04499 22.8052 2.00176 23.0311 1.83214C23.1541 1.73975 23.2625 1.60823 23.32 1.43406C23.3766 1.26288 23.3718 1.08816 23.3331 0.926091L22.3604 1.15799ZM22.2727 1.05674C21.1326 1.12494 20.3358 1.77925 19.7004 2.47877L20.4406 3.15116C21.0156 2.51817 21.5847 2.09969 22.3325 2.05496L22.2727 1.05674ZM19.6993 2.47993C18.6201 3.67549 18.1509 5.15874 17.7422 6.53465L18.7008 6.81938C19.1139 5.42862 19.5331 4.1565 20.4416 3.15001L19.6993 2.47993ZM17.7426 6.53333C17.5358 7.22263 17.3822 7.92427 17.2477 8.61395L18.2292 8.8054C18.3612 8.12867 18.5074 7.46392 18.7004 6.8207L17.7426 6.53333ZM17.2478 8.61318C17.2382 8.66191 17.2262 8.68866 17.2196 8.70048C17.2135 8.71133 17.2122 8.70944 17.2195 8.70387C17.2271 8.69809 17.2345 8.69559 17.2368 8.69507C17.2379 8.69482 17.2285 8.69717 17.2053 8.69405L17.0722 9.68515C17.3228 9.71881 17.5946 9.67464 17.8242 9.50031C18.0508 9.32825 18.1761 9.07524 18.229 8.80616L17.2478 8.61318ZM17.1986 8.6932C17.1787 8.6908 17.1918 8.68869 17.2181 8.70645C17.2311 8.71518 17.2441 8.72671 17.2557 8.74071C17.2672 8.75459 17.275 8.76807 17.2799 8.77904C17.2893 8.80003 17.286 8.80624 17.2858 8.78618C17.2856 8.76625 17.2887 8.73077 17.3018 8.6785L16.3316 8.43595C16.2777 8.6515 16.2515 8.92944 16.3674 9.18799C16.5016 9.48746 16.7734 9.64916 17.0789 9.686L17.1986 8.6932ZM17.3032 8.67248C17.7882 6.62522 18.1868 4.6955 19.3409 3.05782L18.5235 2.48178C17.2345 4.3109 16.8002 6.45779 16.3302 8.44196L17.3032 8.67248ZM19.3412 3.05742C19.9923 2.1316 20.7254 1.44528 21.7423 1.18799L21.497 0.218542C20.1485 0.559758 19.2381 1.46568 18.5232 2.48218L19.3412 3.05742ZM21.7428 1.18785C21.9297 1.14036 22.058 1.1316 22.3193 1.08134L22.1304 0.0993439C21.9808 0.128126 21.7094 0.164542 21.4964 0.218679L21.7428 1.18785ZM22.5187 0.994887C22.5575 0.966677 22.591 0.937548 22.6065 0.924181C22.6162 0.915858 22.6213 0.911483 22.6258 0.907739C22.6299 0.90438 22.6308 0.903759 22.6298 0.904547L22.0421 0.0954534C22.0032 0.123663 21.9698 0.152792 21.9543 0.16616C21.9446 0.174482 21.9395 0.178857 21.9349 0.182601C21.9309 0.18596 21.9299 0.186582 21.931 0.185794L22.5187 0.994887ZM21.8872 0.279349L21.8817 0.290642L22.779 0.731943L22.7846 0.720651L21.8872 0.279349ZM38.7467 5.59386C38.7762 5.62008 38.8057 5.64214 38.8262 5.65706C38.8476 5.67259 38.8707 5.68859 38.8886 5.70103C38.9286 5.72879 38.959 5.75023 38.9866 5.77239C39.0142 5.79457 39.0274 5.80852 39.0322 5.81436C39.0369 5.82012 39.0229 5.80523 39.0132 5.7699L39.9779 5.50639C39.9062 5.24406 39.7153 5.07507 39.613 4.99291C39.5545 4.9459 39.4968 4.90594 39.4591 4.87971C39.4088 4.84475 39.4057 4.84162 39.4115 4.84678L38.7467 5.59386ZM39.0151 5.77662C39.0186 5.78863 39.0121 5.77432 39.0194 5.74347C39.0268 5.71157 39.0434 5.68609 39.0585 5.67084C39.0715 5.65768 39.0773 5.65811 39.065 5.66281C39.0531 5.6674 39.0303 5.67346 38.9969 5.67525L39.0503 6.67382C39.2902 6.66098 39.5653 6.58004 39.7688 6.37475C39.997 6.14443 40.0691 5.82272 39.976 5.49966L39.0151 5.77662ZM38.9991 5.67514C37.7312 5.73719 36.94 6.499 36.3746 7.39204L37.2195 7.92698C37.6979 7.1713 38.2393 6.71352 39.048 6.67394L38.9991 5.67514ZM36.3739 7.3931C35.7413 8.3979 35.4312 9.50497 35.2642 10.6234L36.2532 10.771C36.4083 9.73255 36.6867 8.77309 37.2201 7.92591L36.3739 7.3931ZM35.2643 10.6224C35.255 10.6842 35.2388 10.728 35.2245 10.7554C35.2099 10.7834 35.2006 10.7881 35.2074 10.783C35.2161 10.7764 35.2405 10.7624 35.2775 10.7602C35.3151 10.758 35.3365 10.7698 35.3359 10.7694L34.8267 11.63C35.1549 11.8242 35.5276 11.7952 35.8117 11.5798C36.0675 11.3857 36.2065 11.0795 36.2531 10.772L35.2643 10.6224ZM35.3304 10.7662C35.3425 10.7732 35.3491 10.7785 35.3508 10.7798C35.3527 10.7814 35.352 10.781 35.3493 10.7781C35.3433 10.7718 35.3353 10.7617 35.3282 10.7502C35.3207 10.738 35.3198 10.7332 35.3216 10.739C35.3227 10.7425 35.3257 10.7524 35.3278 10.7682C35.3298 10.7837 35.3318 10.8105 35.3274 10.8455L34.3355 10.7183C34.305 10.9558 34.4093 11.1648 34.4762 11.2738C34.5519 11.397 34.6727 11.5416 34.8321 11.6332L35.3304 10.7662ZM35.3277 10.8425C35.5097 9.35125 35.9372 8.00297 36.8608 6.8821L36.0891 6.24616C35.0027 7.56448 34.5307 9.11837 34.3351 10.7213L35.3277 10.8425ZM36.8622 6.8805C37.411 6.20879 38.071 5.7931 39.1145 5.71907L39.0437 4.72157C37.6996 4.81693 36.7938 5.38369 36.0878 6.24777L36.8622 6.8805Z" fill="#36B3FF" mask="url(#path-1-outside-1_34_856)"/>
</svg>
