<svg width="260" height="192" viewBox="0 0 260 192" fill="none" xmlns="http://www.w3.org/2000/svg">
<path d="M206.87 151.498C204.149 151.498 201.996 149.337 201.996 146.618C201.996 143.906 204.162 141.725 206.864 141.718C209.585 141.705 211.777 143.913 211.764 146.644C211.751 149.362 209.592 151.505 206.864 151.505L206.87 151.498Z" fill="#36B3FF" fill-opacity="0.6"/>
<path d="M32.1984 100.146C29.4834 100.139 27.3372 97.9773 27.3372 95.2459C27.3372 92.5404 29.5222 90.3463 32.2113 90.3463C34.9134 90.3463 37.1371 92.5858 37.1177 95.2913C37.0983 97.9838 34.9005 100.152 32.1919 100.139L32.1984 100.146Z" fill="#36B3FF" fill-opacity="0.6"/>
<path d="M71.4108 95.2848C71.4044 98.0032 69.2388 100.152 66.5174 100.146C63.8153 100.146 61.6239 97.9514 61.6303 95.2589C61.6303 92.5534 63.8735 90.3333 66.5755 90.3527C69.2647 90.3722 71.4238 92.5728 71.4173 95.2848H71.4108Z" fill="#36B3FF" fill-opacity="0.6"/>
<path d="M14.8741 100.146C12.172 100.133 10 97.945 10 95.2395C10 92.5599 12.2173 90.3463 14.8935 90.3463C17.5956 90.3463 19.8128 92.5793 19.7934 95.2913C19.774 97.9903 17.5826 100.152 14.8741 100.146Z" fill="#36B3FF" fill-opacity="0.6"/>
<path d="M149.054 119.324C151.762 119.324 153.947 121.511 153.941 124.21C153.941 126.896 151.743 129.097 149.047 129.104C146.319 129.11 144.147 126.922 144.154 124.178C144.16 121.46 146.319 119.311 149.047 119.317L149.054 119.324Z" fill="#36B3FF" fill-opacity="0.6"/>
<path d="M49.3611 100.146C46.6526 100.146 44.4741 97.9644 44.4741 95.2589C44.4741 92.5728 46.6784 90.3592 49.3546 90.3527C52.0567 90.3463 54.2804 92.5728 54.2675 95.2848C54.2546 97.9838 52.0696 100.152 49.3546 100.152L49.3611 100.146Z" fill="#36B3FF" fill-opacity="0.6"/>
<path d="M83.8481 100.146C81.1396 100.146 78.9547 97.9773 78.9482 95.2718C78.9417 92.5663 81.1655 90.3398 83.8675 90.3527C86.5437 90.3657 88.7481 92.5858 88.7416 95.2718C88.7416 97.9709 86.5502 100.152 83.8417 100.152L83.8481 100.146Z" fill="#36B3FF" fill-opacity="0.6"/>
<path d="M100.959 100.146C98.2635 100.133 96.0786 97.9256 96.098 95.233C96.1109 92.5534 98.3346 90.3463 101.017 90.3527C103.726 90.3527 105.904 92.5728 105.885 95.3171C105.866 98.0226 103.687 100.165 100.959 100.152V100.146Z" fill="#36B3FF" fill-opacity="0.6"/>
<path d="M133.371 113.919C133.358 111.201 135.517 109.019 138.226 109.006C140.967 108.994 143.145 111.168 143.145 113.913C143.145 116.605 140.947 118.819 138.265 118.819C135.582 118.819 133.384 116.625 133.378 113.926L133.371 113.919Z" fill="#36B3FF" fill-opacity="0.6"/>
<path d="M166.171 132.689C166.171 135.401 164.018 137.602 161.329 137.621C158.627 137.641 156.39 135.414 156.397 132.709C156.397 130.023 158.601 127.822 161.284 127.816C163.993 127.816 166.165 129.984 166.171 132.696V132.689Z" fill="#36B3FF" fill-opacity="0.6"/>
<path d="M227.769 148.107C227.769 150.812 225.578 153.006 222.889 153C220.212 153 218.002 150.786 217.995 148.1C217.989 145.382 220.193 143.188 222.921 143.201C225.63 143.214 227.776 145.375 227.769 148.107Z" fill="#36B3FF" fill-opacity="0.6"/>
<path d="M175.803 143.816C173.062 143.803 170.929 141.621 170.955 138.851C170.974 136.172 173.152 134.029 175.842 134.036C178.563 134.036 180.767 136.256 180.742 138.974C180.716 141.667 178.511 143.828 175.803 143.816Z" fill="#36B3FF" fill-opacity="0.6"/>
<path d="M191.349 138.786C194.071 138.786 196.236 140.935 196.243 143.654C196.243 146.385 194.045 148.586 191.33 148.566C188.647 148.547 186.437 146.333 186.443 143.654C186.443 140.968 188.654 138.78 191.349 138.78V138.786Z" fill="#36B3FF" fill-opacity="0.6"/>
<path d="M123.041 95.2265C123.048 97.9579 120.908 100.126 118.199 100.139C115.446 100.152 113.274 97.9903 113.274 95.2524C113.274 92.5534 115.459 90.3527 118.148 90.3398C120.837 90.3333 123.041 92.521 123.048 95.2201L123.041 95.2265Z" fill="#36B3FF" fill-opacity="0.6"/>
<path d="M126.021 101.155C126.015 98.4304 128.161 96.2621 130.876 96.2492C133.591 96.2427 135.776 98.3916 135.789 101.097C135.808 103.822 133.604 106.049 130.902 106.049C128.213 106.049 126.028 103.861 126.021 101.149V101.155Z" fill="#36B3FF" fill-opacity="0.6"/>
<path d="M164.057 95.233C164.057 97.9385 161.898 100.133 159.215 100.133C156.462 100.133 154.283 97.9838 154.283 95.2718C154.283 92.5534 156.481 90.3527 159.177 90.3527C161.853 90.3527 164.057 92.5599 164.057 95.233Z" fill="#36B3FF"/>
<path d="M61.9471 46.4822C61.9471 43.7832 64.1773 41.5631 66.8664 41.589C69.6008 41.6149 71.7405 43.7896 71.7276 46.534C71.7146 49.2071 69.4715 51.4272 66.8147 51.3883C64.132 51.356 61.9406 49.1489 61.9471 46.4822Z" fill="#36B3FF"/>
<path d="M128.103 82.3398C130.811 82.3527 132.964 84.5081 132.977 87.2136C132.983 89.9514 130.772 92.1327 128.012 92.1133C125.342 92.0938 123.19 89.8803 123.203 87.1812C123.216 84.4951 125.414 82.3333 128.109 82.3398H128.103Z" fill="#36B3FF"/>
<path d="M35.5275 48.7994C32.7996 48.7994 30.634 46.6181 30.6405 43.8932C30.647 41.2201 32.8642 39 35.5275 39C38.2167 39 40.4339 41.246 40.4145 43.945C40.3951 46.657 38.2296 48.8058 35.5275 48.7994Z" fill="#36B3FF"/>
<path d="M215.675 95.2654C215.675 98.0032 213.522 100.139 210.762 100.133C208.085 100.133 205.888 97.9256 205.894 95.2459C205.894 92.5599 208.144 90.3398 210.833 90.3527C213.515 90.3657 215.675 92.5534 215.675 95.2654Z" fill="#36B3FF"/>
<path d="M114.696 64.4822C114.689 67.1942 112.491 69.3625 109.764 69.3495C107.074 69.3366 104.935 67.1489 104.954 64.4304C104.967 61.7055 107.107 59.5631 109.815 59.5566C112.517 59.5502 114.702 61.7573 114.696 64.4822Z" fill="#36B3FF"/>
<path d="M176.333 100.133C173.611 100.133 171.414 97.945 171.426 95.233C171.439 92.5663 173.65 90.3592 176.313 90.3527C179.022 90.3463 181.2 92.5404 181.2 95.2718C181.2 97.9838 179.054 100.133 176.339 100.133H176.333Z" fill="#36B3FF"/>
<path d="M46.3294 44.5663C46.3294 41.8738 48.5208 39.6667 51.1905 39.6602C53.8797 39.6537 56.1098 41.8803 56.1034 44.5793C56.1034 47.2783 53.9249 49.4595 51.2358 49.4595C48.5014 49.4595 46.3358 47.2977 46.3358 44.5728L46.3294 44.5663Z" fill="#36B3FF"/>
<path d="M245.113 100.133C242.385 100.133 240.239 97.9968 240.239 95.2718C240.239 92.5275 242.417 90.3398 245.132 90.3527C247.809 90.3657 250.006 92.5793 250 95.2654C250 97.9644 247.815 100.133 245.113 100.133Z" fill="#36B3FF"/>
<path d="M137.146 95.233C137.146 92.5404 139.331 90.3527 142.014 90.3527C144.71 90.3527 146.92 92.5793 146.914 95.2783C146.907 97.9903 144.716 100.139 141.969 100.133C139.273 100.133 137.146 97.9709 137.146 95.233Z" fill="#36B3FF"/>
<path d="M77.6359 50.6505C77.6424 47.9256 79.8144 45.7961 82.5747 45.8026C85.2573 45.8155 87.4423 48.0291 87.4164 50.7152C87.3906 53.3883 85.1669 55.6019 82.51 55.5955C79.8209 55.5955 77.623 53.3625 77.6359 50.6505Z" fill="#36B3FF"/>
<path d="M120.927 79.2589C118.238 79.2589 116.066 77.0777 116.066 74.3786C116.066 71.6537 118.258 69.4725 120.979 69.4919C123.694 69.5178 125.853 71.6796 125.847 74.3722C125.847 77.0841 123.649 79.2654 120.927 79.2589Z" fill="#36B3FF"/>
<path d="M232.824 95.2848C232.824 98.0226 230.678 100.139 227.905 100.133C225.209 100.133 223.089 97.9644 223.089 95.2265C223.089 92.5275 225.268 90.3463 227.957 90.3527C230.672 90.3527 232.831 92.5404 232.824 95.2848Z" fill="#36B3FF"/>
<path d="M188.615 95.2783C188.615 92.5404 190.781 90.3527 193.489 90.3527C196.178 90.3527 198.344 92.534 198.35 95.2395C198.35 97.9968 196.223 100.133 193.476 100.133C190.761 100.133 188.621 97.9903 188.615 95.2783Z" fill="#36B3FF"/>
<path d="M97.2357 51.4984C99.9442 51.4854 102.136 53.6278 102.155 56.3204C102.174 59.0453 100.015 61.2654 97.3068 61.2977C94.65 61.3301 92.381 59.0712 92.3681 56.3916C92.3552 53.7249 94.553 51.5113 97.2357 51.4984Z" fill="#36B3FF"/>
</svg>
