<svg width="177" height="192" viewBox="0 0 177 192" fill="none" xmlns="http://www.w3.org/2000/svg">
<path d="M148.413 144.048C149.295 144.918 150.101 145.788 150.99 146.559C151.97 147.407 153.213 147.558 154.381 147.24C158.126 146.219 161.968 149.76 162.692 153.081C163.332 156.046 161.546 160.533 157.5 161.766C152.949 163.15 147.245 159.549 148.18 153.595C148.647 150.607 148.21 149.638 145.173 146.953C144.684 147.293 144.171 147.649 143.425 148.163V141.248C145.535 141.566 147.675 141.891 150.063 142.247C149.453 142.92 149.009 143.405 148.428 144.055L148.413 144.048Z" fill="#04B6FE"/>
<path d="M147.69 59.4883C148.059 60.1163 148.323 60.5778 148.768 61.3419C146.311 61.0771 144.126 60.8426 141.828 60.6005C142.529 58.3081 143.154 56.2654 143.847 54.0034C144.352 54.5783 144.751 55.0323 145.143 55.4862C147.705 54.9415 149.302 53.0047 149.378 50.3568C149.483 46.7557 151.548 44.191 155.082 43.2528C158.171 42.4358 161.524 43.8429 163.219 46.6724C164.794 49.2976 164.598 52.5962 162.699 55.0928C161.245 57.0069 158.382 58.815 154.697 57.4759C151.706 56.3865 149.83 57.7483 147.69 59.4883Z" fill="#04B6FE"/>
<path d="M123.036 65.4953C123.39 66.1233 123.669 66.6226 124.038 67.2732H117.287C117.687 65.0111 118.063 62.8625 118.448 60.7139C118.553 60.661 118.659 60.6156 118.764 60.5626C119.103 61.0998 119.45 61.6369 119.729 62.0682C122.644 60.7442 123.669 59.0798 123.556 56.2201C123.39 52.0666 125.508 49.1993 129.456 48.246C133.223 47.3382 137.382 49.9634 138.181 53.7537C139.161 58.3686 136.403 62.3178 131.739 62.8928C131.053 62.976 130.307 62.8625 129.622 62.7112C127.211 62.1665 125.289 62.9609 123.707 64.769C123.511 64.996 123.308 65.2078 123.044 65.4878L123.036 65.4953Z" fill="#04B6FE"/>
<path d="M26.3726 40.3023C25.4232 39.0313 24.1951 38.1991 22.7861 37.6998C22.2134 37.4955 21.4976 37.5787 20.8722 37.6695C20.0509 37.783 19.2598 38.1008 18.4385 38.2142C14.7766 38.6833 11.1599 35.6798 10.6023 32.0786C9.86393 27.2821 13.0511 24.2332 16.1931 23.4918C20.8195 22.4024 25.2424 25.6253 25.1671 30.384C25.1143 33.5388 26.6363 35.2561 29.1906 36.6406C29.6126 36.2396 30.0345 35.8462 30.6825 35.2334C31.1647 37.5485 31.6168 39.7122 32.099 42.0197H25.1821C25.6342 41.3766 25.9883 40.8546 26.3726 40.3023Z" fill="#04B6FE"/>
<path d="M60.0305 106.508C59.1112 106.992 58.3125 107.378 57.5515 107.817C56.1425 108.619 55.4719 109.874 55.3589 111.486C55.0877 115.261 52.0361 117.758 48.4646 118.03C44.8102 118.31 41.8189 115.791 40.9599 112.825C40.1537 110.041 40.6284 107.438 42.6779 105.343C44.7198 103.262 47.2289 102.619 50.062 103.482C50.3483 103.565 50.6421 103.648 50.8983 103.792C53.5882 105.343 55.7809 104.178 57.9885 102.559C57.7324 101.953 57.4988 101.424 57.1597 100.622C59.4804 101.114 61.6278 101.56 63.9712 102.059C63.0594 104.223 62.2005 106.258 61.2662 108.475C60.8216 107.771 60.4826 107.226 60.0229 106.508H60.0305Z" fill="#03B6FE"/>
<path d="M127.263 104.064C127.135 104.707 127.037 105.222 126.887 106.024C125.101 104.389 123.963 102.453 122.328 100.713C124.385 99.608 126.299 98.5716 128.454 97.414C128.371 98.2614 128.311 98.8666 128.243 99.5097C129.644 100.274 131.151 100.425 132.598 100.115C133.457 99.9333 134.286 99.2751 134.964 98.6472C137.134 96.6197 139.598 96.0447 142.393 96.945C145.844 98.0495 148.044 101.666 147.494 105.244C146.959 108.687 143.757 111.561 140.268 111.569C137.247 111.577 134.934 110.109 133.668 107.423C132.327 104.586 129.983 104.208 127.278 104.057L127.263 104.064Z" fill="#04B6FE"/>
<path d="M41.736 82.9564C41.9093 82.094 42.0299 81.4812 42.1429 80.8986C39.5434 79.3931 37.3206 79.499 35.2109 81.3525C32.6717 83.5844 29.3036 83.4936 26.5911 81.7989C23.8033 80.0588 22.545 76.6166 23.4491 73.5223C24.391 70.3145 27.1939 68.1508 30.4339 68.0827C33.5231 68.0146 35.889 69.4142 37.0042 72.1681C38.2173 75.1564 40.44 76.0567 43.3259 76.3518C43.5444 75.7844 43.7629 75.2018 44.0567 74.4226C45.413 76.3064 46.6713 78.0389 48.0878 80.0059C45.963 80.9894 43.9663 81.92 41.7285 82.9564H41.736Z" fill="#03B6FE"/>
<path d="M93.2513 115.178C92.5355 115.367 92.0307 115.503 91.1868 115.73C92.1286 113.46 92.965 111.433 93.8616 109.269C95.8357 110.555 97.6215 111.713 99.6182 113.006C98.8948 113.354 98.3523 113.612 97.8098 113.869C97.6591 116.532 98.9777 118.681 101.547 119.392C106.708 120.814 108.185 127.283 105.141 131.186C102.903 134.054 98.7366 134.81 95.4816 132.889C91.9176 130.785 91.1566 126.503 92.5882 123.719C92.8369 123.243 93.0177 122.713 93.3493 122.304C94.8411 120.496 94.6678 118.575 93.8541 116.577C93.6732 116.146 93.4849 115.715 93.2513 115.17V115.178Z" fill="#03B6FE"/>
<path d="M138.769 39.6895C139.304 40.0451 139.809 40.3855 140.306 40.7184C140.261 40.8546 140.216 40.9983 140.17 41.1345C138.038 41.3766 135.906 41.6263 133.653 41.8835C133.314 39.5155 133.901 37.3366 134.022 34.9157C134.64 35.415 135.084 35.7782 135.536 36.1489C137.782 35.2864 139.131 32.9487 138.709 30.6639C137.752 25.5042 141.338 21.1087 146.326 21.3357C149.777 21.4945 152.919 24.3694 153.273 27.6982C153.695 31.7004 151.714 34.893 148.104 35.8387C147.148 36.0883 146.078 36.164 145.098 36.0429C142.74 35.7403 141.067 36.7314 139.726 38.5395C139.485 38.8649 139.206 39.1675 138.776 39.6895H138.769Z" fill="#03B6FE"/>
<path d="M53.7465 33.8717C54.2211 33.5539 54.7034 33.2286 55.374 32.7898V39.7122C53.0156 39.1751 50.8983 38.6833 48.6002 38.1613C49.1427 37.5863 49.5948 37.1097 50.1976 36.4742C49.414 35.5512 48.7057 34.5979 47.8693 33.7809C46.9049 32.8428 45.6466 32.7368 44.3581 32.8352C41.3518 33.0773 39.1742 31.7155 37.7049 29.1962C36.2658 26.7298 36.2884 24.1652 37.6974 21.6912C39.0386 19.3233 41.1332 18.1884 43.8533 18.0144C47.9974 17.7421 52.4279 21.3508 51.26 26.7147C50.5819 29.8241 51.5463 31.9273 53.754 33.8641L53.7465 33.8717Z" fill="#03B6FE"/>
<path d="M32.7546 99.7215C32.6265 98.9725 32.5361 98.4505 32.3854 97.5805C34.5403 98.7834 36.4542 99.8501 38.5262 101.008C36.9816 102.854 35.5726 104.533 34.0732 106.319C33.8396 105.502 33.6587 104.896 33.4854 104.299C30.3284 104.109 28.7461 105.002 27.4426 107.665C26.0562 110.495 23.3286 112.144 20.4201 111.94C17.2631 111.713 14.5355 109.496 13.6238 106.425C12.7874 103.603 13.9101 100.387 16.3966 98.4354C18.7399 96.597 21.8065 96.4457 24.4211 98.0647C24.8732 98.3446 25.3404 98.6396 25.7171 99.0104C27.1788 100.455 28.8666 100.826 30.8106 100.228C31.4285 100.039 32.0614 99.9031 32.7546 99.7291V99.7215Z" fill="#03B6FE"/>
<path d="M121.379 154.049C121.552 154.685 121.695 155.32 121.899 155.941C122.486 157.771 123.609 159.088 125.56 159.481C128.401 160.056 130.842 163.12 130.782 166.736C130.737 169.551 128.695 172.887 125.357 173.719C122.516 174.431 120 173.78 117.988 171.677C115.946 169.551 115.471 166.994 116.428 164.202C116.639 163.589 116.933 162.969 117.325 162.454C118.598 160.813 118.689 159.08 117.928 157.227C117.702 156.682 117.491 156.13 117.242 155.487C116.632 155.54 116.067 155.585 115.185 155.661C116.021 153.497 116.79 151.5 117.619 149.359C119.563 150.592 121.364 151.734 123.398 153.02C122.614 153.421 122.027 153.716 121.394 154.042L121.379 154.049Z" fill="#03B6FE"/>
<path d="M38.3077 149.986C37.8481 149.502 37.4487 149.086 36.9138 148.519C39.1893 148.095 41.2689 147.709 43.4841 147.293V154.11C42.9039 153.716 42.384 153.368 41.7963 152.975C40.5305 153.905 39.664 155.086 39.1591 156.515C38.9708 157.045 38.9858 157.681 39.0536 158.248C39.1591 159.073 39.453 159.875 39.5585 160.699C40.0332 164.361 37.0419 167.856 33.6135 168.514C29.6804 169.271 25.8829 166.873 24.9335 163.097C23.7279 158.331 27.0055 153.792 31.9408 153.913C35.0602 153.989 36.8384 152.559 38.3077 149.986Z" fill="#03B6FE"/>
<path d="M75.1226 100.024C75.1904 96.0144 78.6263 92.5721 82.6348 92.7083C87.02 92.8521 90.0942 96.1204 90.0415 100.312C89.9812 105.063 86.033 107.801 82.454 107.711C78.3626 107.605 75.0548 104.185 75.1301 100.024H75.1226Z" fill="#03B6FE"/>
<path d="M65.4706 147.165C65.6815 150.978 62.0875 154.609 58.0639 154.518C53.4978 154.412 50.5517 150.418 50.6873 146.877C50.8456 142.845 54.1232 139.455 58.1694 139.508C62.3361 139.561 65.7644 143.155 65.4781 147.172L65.4706 147.165Z" fill="#03B6FE"/>
<path d="M103.476 82.1242C103.694 86.4517 99.897 89.7578 96.122 89.72C92.219 89.6821 88.64 86.3382 88.6927 82.3209C88.7455 78.1523 92.0382 74.5966 96.0919 74.7025C101.027 74.8311 103.694 78.9467 103.468 82.1167L103.476 82.1242Z" fill="#03B6FE"/>
<path d="M97.742 40.4385C97.9379 44.1531 94.8261 47.9586 90.3052 47.9283C85.8145 47.898 82.8533 43.7673 82.9513 40.4385C83.0794 36.3002 86.3645 32.8427 90.471 32.926C94.6754 33.0092 97.9907 36.6406 97.742 40.4385Z" fill="#03B6FE"/>
<path d="M127.715 89.6519C127.587 88.6532 127.512 88.0783 127.437 87.5335C124.732 86.7619 122.66 87.4049 121.145 89.6065C117.574 94.7813 110.679 93.2757 108.419 88.8121C106.746 85.506 107.688 81.7686 110.318 79.5671C113.181 77.1764 116.971 77.2748 119.789 79.7714C120.233 80.1648 120.685 80.5884 121.009 81.0802C121.929 82.4722 123.24 82.9943 124.83 82.9867C125.658 82.9867 126.487 82.9867 127.429 82.9867C127.519 82.2075 127.587 81.5795 127.685 80.7397C128.65 81.5114 129.524 82.1848 130.383 82.8959C131.249 83.6146 132.093 84.3636 133.088 85.2185C131.317 86.6862 129.644 88.0707 127.73 89.6594L127.715 89.6519ZM119.939 85.506C119.992 82.737 117.83 80.4144 115.125 80.3388C112.299 80.2631 109.941 82.5101 109.903 85.3093C109.865 88.0177 112.133 90.3555 114.831 90.416C117.543 90.4689 119.879 88.2296 119.932 85.506H119.939Z" fill="#07B7FE"/>
<path d="M124.121 113.037C124.475 115.382 124.807 117.553 125.176 119.959C122.87 119.846 120.7 119.732 118.32 119.611C118.764 118.93 119.081 118.454 119.397 117.977C117.875 115.427 116.089 114.565 113.158 115.238C108.554 116.297 105.073 112.802 104.32 109.632C103.401 105.774 105.706 101.847 109.624 100.728C114.221 99.4113 118.734 102.702 118.862 107.484C118.862 107.605 118.885 107.726 118.862 107.839C118.387 111.115 119.879 112.749 122.607 114.353C123.059 113.96 123.534 113.544 124.121 113.037ZM111.629 102.922C108.554 102.672 106.513 105.486 106.565 107.771C106.633 110.669 108.607 112.742 111.455 112.84C113.836 112.923 116.466 111.236 116.556 107.953C116.639 104.919 114.085 102.725 111.629 102.929V102.922Z" fill="#08B8FE"/>
<path d="M91.0059 162.878C89.5216 161.085 88.1201 159.39 86.5529 157.491C87.3817 157.431 87.9845 157.393 88.5647 157.348C89.4312 154.208 88.8962 152.574 86.4399 150.781C83.7047 148.784 82.68 145.53 83.7725 142.361C84.85 139.251 87.992 137.11 91.2244 137.292C94.4493 137.466 97.2297 139.811 98.0736 142.92C98.7441 145.402 98.0735 147.505 96.4988 149.412C96.1974 149.775 95.8809 150.168 95.4891 150.418C93.4773 151.734 93.0253 153.663 93.2438 155.888C93.2814 156.304 93.304 156.72 93.3492 157.249C93.9219 157.333 94.487 157.408 95.3234 157.529C93.9897 159.451 92.5355 161.093 91.0059 162.863V162.878ZM90.8326 139.72C88.0598 139.728 85.8597 141.922 85.8446 144.698C85.8295 147.429 88.0448 149.812 90.7799 149.76C93.8541 149.699 95.8508 147.46 95.8809 144.66C95.9035 141.967 93.5753 139.713 90.8326 139.72Z" fill="#08B8FE"/>
<path d="M106.362 50.7654C105.782 50.3644 105.307 50.0315 104.629 49.5549C106.867 48.7075 108.893 47.9359 111.109 47.0961C111.516 49.396 111.885 51.5219 112.299 53.8975C111.508 53.557 110.981 53.3225 110.438 53.088C108.351 54.9869 107.891 57.2111 109.067 59.791C110.416 62.7339 109.843 66.04 107.613 68.2113C105.405 70.3599 102.022 71.0105 99.3469 69.7925C96.4385 68.4686 94.6302 65.4348 94.8637 62.28C95.1049 59.0798 97.5386 56.1898 100.99 55.7283C103.551 55.3803 104.915 54.0109 105.88 51.8775C106.023 51.5522 106.166 51.2268 106.369 50.7729L106.362 50.7654ZM97.2975 62.9382C97.2899 65.7072 99.5052 68.1432 102.172 68.0373C105.156 67.9238 107.13 66.1006 107.296 62.9533C107.432 60.2827 105.013 58.0055 102.27 57.9979C99.4373 57.9979 97.305 60.1087 97.2899 62.9382H97.2975Z" fill="#08B7FE"/>
<path d="M75.0397 136.248C75.6953 136.422 76.2001 136.558 76.9611 136.762C75.2281 138.366 73.5102 139.743 71.5813 141.127C70.5113 139.115 69.5092 137.239 68.4167 135.196H70.5415C71.1443 133.925 71.2347 132.624 71.2045 131.307C71.1819 130.188 70.5264 129.424 69.8031 128.69C68.2584 127.124 67.4221 125.285 67.6029 123.031C67.9194 119.044 71.2271 115.692 75.5521 115.965C79.327 116.199 82.6348 119.581 82.5594 123.454C82.5067 126.344 81.1203 128.599 78.5735 129.794C75.7932 131.111 75.085 133.305 75.0397 136.24V136.248ZM75.1452 128.304C77.7673 128.47 80.1559 126.042 80.1182 123.326C80.0805 120.58 77.8728 118.31 75.1377 118.257C72.3875 118.204 70.0668 120.602 70.0743 123.424C70.0819 125.928 72.3121 128.501 75.1452 128.304Z" fill="#08B8FE"/>
<path d="M53.6786 91.0515C53.6184 91.7626 53.5732 92.2847 53.5204 92.9428C52.3751 92.4965 51.7497 91.5357 50.9285 90.8396C50.1147 90.1512 49.3311 89.4249 48.329 88.5246C50.2127 87.0947 51.9833 85.7481 53.9122 84.2879V86.2398C56.1048 87.3368 58.6215 86.8829 60.1133 85.1731C60.2716 84.9915 60.4373 84.8175 60.5654 84.6208C62.3662 81.8367 65.9151 81.1785 68.8386 82.1847C71.8375 83.2212 73.7965 85.8994 73.8266 89.1525C73.8568 92.5797 71.8224 95.0536 69.1325 96.1582C66.1864 97.3611 63.2026 96.6121 61.0401 94.2138C60.7613 93.9037 60.4599 93.601 60.2414 93.2455C59.2393 91.5659 57.6947 91.0136 55.8487 91.0515C55.1931 91.0666 54.5376 91.0515 53.6636 91.0515H53.6786ZM61.4545 89.2282C61.4395 91.9669 63.6698 94.2517 66.4049 94.3198C69.0948 94.3803 71.521 91.9139 71.4909 89.1525C71.4607 86.4138 69.2078 84.2426 66.4124 84.2501C63.5944 84.2653 61.4621 86.4063 61.4545 89.2358V89.2282Z" fill="#07B7FE"/>
<path d="M46.1137 49.623C45.5788 50.0845 45.1493 50.4476 44.5088 50.9923C44.2225 48.5865 43.9588 46.4303 43.68 44.1304C45.9555 44.2666 48.118 44.3952 50.5743 44.5465C50.0544 45.2728 49.6928 45.7721 49.2256 46.4228C49.9188 47.0885 50.5969 47.8224 51.3655 48.4503C52.4957 49.3657 53.7691 49.5927 55.2233 49.2296C60.8292 47.8224 64.7246 52.8837 64.3178 57.2036C63.9712 60.9106 60.573 64.1033 56.7905 63.9898C52.0135 63.8385 49.5345 60.0028 49.6174 56.9766C49.6325 56.5 49.5722 56.0082 49.64 55.5392C49.9489 53.4587 48.9996 51.9607 47.5001 50.6973C47.0933 50.3493 46.6487 50.0466 46.0987 49.6305L46.1137 49.623ZM56.8885 51.5295C54.1458 51.5522 51.8778 53.8294 51.8778 56.5529C51.8778 59.2916 54.3342 61.6596 57.0919 61.6067C59.6537 61.5537 62.0423 59.3068 61.9217 56.447C61.8011 53.5948 59.7517 51.5068 56.8885 51.5295Z" fill="#07B7FE"/>
<path d="M24.0971 126.064C28.2262 126.064 31.6846 129.454 31.5716 133.577C31.4586 137.753 28.4447 140.893 24.1875 141.052C20.1037 141.203 16.6754 137.7 16.6603 133.569C16.6452 129.34 19.9002 126.049 24.0971 126.057V126.064ZM19.094 133.516C19.094 136.376 21.3846 138.676 24.1875 138.646C26.9001 138.616 29.1906 136.293 29.1831 133.562C29.1756 131.065 27.0658 128.357 24.0368 128.478C21.1812 128.591 19.094 130.634 19.1016 133.516H19.094Z" fill="#09B8FE"/>
<path d="M159.12 82.1847C154.916 82.4571 151.525 78.5533 151.533 74.7782C151.54 70.7004 155.006 67.1976 159.052 67.2354C163.212 67.2732 166.572 70.6398 166.504 74.8008C166.429 79.5898 162.481 82.3587 159.12 82.1847ZM164.071 74.8614C164.071 71.9184 161.953 69.8833 159 69.8076C156.234 69.732 153.959 72.1983 153.967 74.7555C153.967 77.5849 156.197 79.9454 158.977 79.9681C161.773 79.9983 164.063 77.6984 164.071 74.8614Z" fill="#09B8FE"/>
<path d="M27.0508 59.8288C27.0508 63.9595 23.645 67.4245 19.5536 67.3262C15.3568 67.2202 12.0716 64.1335 12.1394 59.7531C12.2148 55.1911 15.6356 52.4449 19.5461 52.3465C23.6375 52.2406 27.0508 55.7056 27.0508 59.8363V59.8288ZM19.5009 54.7751C16.6603 54.7599 14.543 56.8782 14.4225 59.7002C14.2868 62.7944 16.9692 64.943 19.4105 64.9128C22.2436 64.875 24.5643 62.6204 24.5417 59.7985C24.5191 57.0523 22.2586 54.7977 19.5009 54.7826V54.7751Z" fill="#0AB8FE"/>
<path d="M84.0664 64.4589C84.0664 68.5972 80.7059 72.0621 76.5994 71.9789C72.4628 71.8957 69.1023 68.7939 69.1626 64.421C69.2229 59.8666 72.7642 56.9842 76.7275 56.9993C80.736 57.0144 84.0664 60.4189 84.0739 64.4664L84.0664 64.4589ZM76.6673 59.4354C73.8342 59.4051 71.5059 61.7126 71.521 64.5269C71.5436 67.2581 73.804 69.5201 76.5618 69.558C79.3798 69.5958 81.5724 67.4623 81.6251 64.6329C81.6779 61.6445 79.5983 59.4656 76.6673 59.4354Z" fill="#0AB8FE"/>
<path d="M116.315 32.6385C116.315 28.4245 119.57 25.0806 123.797 25.1335C127.761 25.1865 131.189 28.1522 131.204 32.578C131.227 37.6241 126.894 40.1283 123.669 40.0829C119.698 40.0299 116.142 36.5877 116.308 32.6309L116.315 32.6385ZM123.714 37.6241C126.834 37.7452 128.831 35.1729 128.808 32.7217C128.785 29.8771 127.06 27.6907 123.767 27.5091C121.326 27.3729 118.606 29.5366 118.711 32.6687C118.809 35.5814 120.791 37.6166 123.707 37.6241H123.714Z" fill="#09B8FE"/>
<path d="M148.828 133.675C144.525 133.895 141.414 129.893 141.391 126.337C141.361 122.342 144.797 118.726 148.865 118.824C152.927 118.923 156.37 122.138 156.325 126.193C156.265 130.997 152.256 133.955 148.828 133.675ZM143.847 126.269C143.682 129.007 145.972 131.459 148.941 131.36C151.857 131.254 153.748 129.416 153.921 126.269C154.072 123.636 151.548 121.094 148.933 121.154C145.716 121.23 143.674 123.696 143.84 126.269H143.847Z" fill="#09B8FE"/>
<path d="M61.7861 30.8076C61.5525 27.4864 64.5664 23.4464 69.253 23.507C73.7814 23.5599 76.6597 27.3351 76.622 31.1405C76.5919 34.8022 73.4122 38.5244 69.1099 38.479C64.9733 38.4336 61.4771 34.84 61.7936 30.8076H61.7861ZM69.1174 25.9355C66.2994 25.9582 63.8657 28.3337 64.0691 31.0876C64.2725 33.849 66.0809 35.9976 69.1475 36.0581C71.9505 36.1186 74.3465 33.7203 74.3164 30.9665C74.2787 28.1522 71.9731 25.9128 69.1174 25.9355Z" fill="#08B8FE"/>
<path d="M119.932 85.4984C119.879 88.2144 117.543 90.4614 114.831 90.4084C112.126 90.3555 109.865 88.0102 109.903 85.3017C109.941 82.5025 112.299 80.2556 115.125 80.3312C117.822 80.3993 119.992 82.7295 119.939 85.4984H119.932Z" fill="#FAFDFE"/>
<path d="M111.629 102.922C114.085 102.717 116.639 104.911 116.556 107.945C116.466 111.229 113.836 112.916 111.455 112.832C108.607 112.734 106.633 110.661 106.565 107.764C106.513 105.479 108.554 102.664 111.629 102.914V102.922Z" fill="#FBFDFE"/>
<path d="M90.8402 139.72C93.5828 139.713 95.9111 141.967 95.8885 144.66C95.8659 147.46 93.8691 149.699 90.7874 149.76C88.0523 149.812 85.8371 147.429 85.8521 144.698C85.8672 141.922 88.0674 139.728 90.8402 139.72Z" fill="#F9FDFE"/>
<path d="M97.2975 62.9382C97.305 60.1163 99.4449 57.9904 102.278 57.9979C105.021 57.9979 107.439 60.2827 107.304 62.9533C107.138 66.1081 105.164 67.9238 102.18 68.0373C99.5127 68.1357 97.2899 65.7072 97.305 62.9382H97.2975Z" fill="#F9FDFE"/>
<path d="M75.1452 128.296C72.3121 128.501 70.0819 125.921 70.0743 123.417C70.0668 120.595 72.3875 118.196 75.1377 118.249C77.8804 118.302 80.088 120.572 80.1182 123.318C80.1559 126.034 77.7673 128.463 75.1452 128.296Z" fill="#F9FDFE"/>
<path d="M61.4621 89.2282C61.4771 86.3987 63.6095 84.2577 66.42 84.2426C69.2078 84.2274 71.4683 86.4063 71.4984 89.145C71.5285 91.9064 69.0948 94.3803 66.4124 94.3122C63.6773 94.2441 61.4545 91.9593 61.4621 89.2206V89.2282Z" fill="#F9FDFE"/>
<path d="M56.8885 51.5295C59.7441 51.5068 61.8011 53.5873 61.9217 56.447C62.0423 59.3068 59.6537 61.5461 57.0919 61.6067C54.3342 61.6672 51.8778 59.2916 51.8778 56.5529C51.8778 53.8294 54.1533 51.5522 56.8885 51.5295Z" fill="#F9FCFE"/>
<path d="M19.094 133.524C19.094 130.642 21.1736 128.599 24.0293 128.485C27.0583 128.372 29.168 131.073 29.1756 133.569C29.1831 136.293 26.8925 138.623 24.18 138.653C21.3771 138.684 19.0865 136.384 19.0865 133.524H19.094Z" fill="#FAFDFE"/>
<path d="M164.071 74.8614C164.071 77.6984 161.773 79.9983 158.977 79.9681C156.197 79.9378 153.967 77.5849 153.967 74.7555C153.967 72.1983 156.234 69.732 159 69.8076C161.953 69.8833 164.078 71.926 164.071 74.8614Z" fill="#FBFDFE"/>
<path d="M19.5009 54.7675C22.2511 54.7826 24.5115 57.0371 24.5417 59.7834C24.5643 62.6053 22.2511 64.8598 19.4105 64.8976C16.9692 64.9279 14.2868 62.7793 14.4225 59.685C14.5506 56.8631 16.6603 54.7448 19.5009 54.7599V54.7675Z" fill="#FAFDFE"/>
<path d="M76.6673 59.4354C79.5983 59.4656 81.6779 61.6445 81.6251 64.6329C81.5724 67.4623 79.3798 69.5958 76.5618 69.558C73.804 69.5201 71.5436 67.2656 71.521 64.5269C71.4984 61.7126 73.8266 59.4051 76.6673 59.4354Z" fill="#FBFDFE"/>
<path d="M123.714 37.6241C120.791 37.6166 118.809 35.5814 118.719 32.6687C118.613 29.5366 121.333 27.3805 123.775 27.5091C127.067 27.6907 128.793 29.8695 128.815 32.7217C128.83 35.1729 126.841 37.7376 123.722 37.6241L123.714 37.6241Z" fill="#F9FCFE"/>
<path d="M143.847 126.269C143.674 123.696 145.723 121.23 148.941 121.154C151.555 121.094 154.072 123.628 153.929 126.269C153.748 129.416 151.857 131.254 148.948 131.36C145.98 131.466 143.689 129.007 143.855 126.269L143.847 126.269Z" fill="#F9FCFE"/>
<path d="M69.1249 25.9355C71.9731 25.9128 74.2863 28.1522 74.3239 30.9665C74.3541 33.7203 71.9655 36.1186 69.1551 36.0581C66.0884 35.99 64.2801 33.849 64.0766 31.0876C63.8732 28.3337 66.3069 25.9582 69.1249 25.9355Z" fill="#F9FDFE"/>
</svg>
