<svg width="87" height="88" viewBox="0 0 87 88" fill="none" xmlns="http://www.w3.org/2000/svg">
<path d="M43.9387 56.7418C38.4292 56.6606 33.8698 54.9658 29.8078 52.0966C27.1159 50.1948 24.6794 47.9216 22.1927 45.7411C21.1361 44.8164 21.0935 43.495 22.0437 42.4696C27.0191 37.0931 32.757 32.9373 40.1438 31.5734C44.8831 30.6989 49.3573 31.7049 53.6206 33.7751C57.9284 35.8665 61.615 38.8014 64.8681 42.2935C65.797 43.2918 65.8706 44.5281 64.9494 45.5148C59.9081 50.9165 54.1218 55.1031 46.6577 56.4516C45.6166 56.6393 44.5503 56.6799 43.9368 56.7418H43.9387ZM26.5682 43.998C29.8697 47.2173 33.4382 49.7963 37.688 51.346C41.659 52.7931 45.6185 52.7448 49.5722 51.257C52.7111 50.0768 55.492 48.3046 58.0465 46.159C58.8496 45.4838 59.6082 44.7583 60.4365 44.0115C57.7175 41.3513 54.863 39.1361 51.3622 37.48C52.5427 41.7054 51.7435 45.1917 48.2098 47.6449C45.4056 49.5893 42.2996 49.7208 39.3619 47.9989C35.3406 45.6425 34.4213 41.9627 35.5631 37.5052C32.1242 39.1613 29.2582 41.3475 26.5682 43.998ZM41.8293 36.799C40.3257 36.799 39.2226 37.8476 39.2129 39.287C39.2013 40.8909 40.3547 42.0865 41.8893 42.0633C43.3485 42.042 44.4903 40.8638 44.4767 39.3953C44.4632 37.9211 43.3175 36.7971 41.8293 36.799Z" fill="#02B6FE"/>
<path d="M6.84448 41.982C7.63599 41.982 8.42943 41.982 9.22093 41.982C11.1852 41.982 13.1494 41.9724 15.1137 41.9859C16.6676 41.9956 17.494 42.6727 17.4998 43.8974C17.5056 45.122 16.6599 45.8321 15.135 45.8398C12.6888 45.8514 10.2408 45.8437 7.79468 45.8437C7.48117 45.8437 7.1696 45.8437 6.59291 45.8437C7.23927 46.5092 7.72114 46.9987 8.1972 47.494C9.15126 48.4826 9.24222 49.5951 8.43717 50.3902C7.62438 51.1931 6.45551 51.1389 5.52467 50.22C3.92037 48.6374 2.32575 47.0451 0.744679 45.4393C-0.234541 44.4449 -0.251958 43.4698 0.715651 42.4831C2.31608 40.8502 3.93392 39.2367 5.56531 37.6367C6.44583 36.7719 7.53729 36.7371 8.31718 37.4897C9.13191 38.2752 9.09901 39.3741 8.20107 40.3066C7.73662 40.7903 7.22572 41.2294 6.73611 41.6899C6.77288 41.7866 6.80965 41.8853 6.84835 41.982H6.84448Z" fill="#02B6FE"/>
<path d="M16.0426 19.1004C16.0426 20.1471 16.0639 20.9113 16.0387 21.6755C16 22.8731 15.222 23.6818 14.1422 23.6914C13.072 23.6992 12.2921 22.8924 12.2786 21.6716C12.2554 19.3887 12.2515 17.1038 12.2786 14.8209C12.2941 13.3505 12.9385 12.6463 14.3744 12.6153C16.6889 12.5669 19.0073 12.5708 21.3238 12.6153C22.603 12.6405 23.3983 13.4685 23.3674 14.579C23.3383 15.6605 22.5701 16.3918 21.3296 16.4576C20.5942 16.4963 19.855 16.4653 18.897 16.4653C19.1892 16.8039 19.346 17.0109 19.526 17.1928C21.3199 18.994 23.1216 20.7855 24.9136 22.5887C25.887 23.5695 25.9935 24.6607 25.2174 25.4752C24.4279 26.3052 23.1835 26.2452 22.2314 25.2972C20.2265 23.3045 18.2371 21.2963 16.0464 19.0985L16.0426 19.1004Z" fill="#02B6FE"/>
<path d="M16.0445 68.6963C17.6082 67.1311 18.988 65.7478 20.3697 64.3665C20.9832 63.7512 21.5928 63.1321 22.214 62.5246C23.1816 61.5844 24.3176 61.5089 25.1071 62.3195C25.9199 63.1553 25.8367 64.2078 24.8459 65.2119C23.4448 66.632 22.0321 68.0404 20.6136 69.4431C20.0504 70.0003 19.4602 70.5285 18.8815 71.0702C18.9241 71.165 18.9648 71.2617 19.0073 71.3565C19.7253 71.3565 20.4452 71.3333 21.1612 71.3623C22.5043 71.4146 23.2319 72.0936 23.2416 73.2603C23.2513 74.4675 22.4946 75.1891 21.107 75.2046C18.8544 75.2298 16.6019 75.2298 14.3493 75.2046C12.9056 75.1891 12.205 74.481 12.1954 73.0629C12.1799 70.8109 12.1818 68.5589 12.1954 66.307C12.2031 64.9682 12.9636 64.1246 14.117 64.1227C15.2704 64.1227 16.0252 64.9701 16.0464 66.305C16.0581 67.0093 16.0484 67.7135 16.0484 68.6963H16.0445Z" fill="#03B6FE"/>
<path d="M70.9466 68.882C70.9466 67.8392 70.9253 67.0731 70.9505 66.307C70.9911 65.1133 71.7768 64.3084 72.8606 64.3084C73.9269 64.3084 74.7764 65.1403 74.79 66.3011C74.8171 68.6808 74.8171 71.0605 74.79 73.4402C74.7764 74.5584 74.1339 75.311 73.0212 75.342C70.5151 75.4097 68.0051 75.4116 65.499 75.3478C64.3708 75.3188 63.7418 74.5217 63.7496 73.4421C63.7573 72.3703 64.3979 71.6525 65.5377 71.5616C66.335 71.4977 67.1401 71.55 68.2257 71.55C67.8406 71.1301 67.6297 70.8825 67.4013 70.6542C65.6074 68.8549 63.8037 67.0634 62.0137 65.2603C61.3344 64.5773 61.1022 63.7822 61.5995 62.8961C62.0485 62.0951 62.7916 61.7778 63.6451 62.0158C64.1076 62.1435 64.5469 62.4975 64.903 62.8477C66.873 64.7805 68.8121 66.7423 70.9486 68.882H70.9466Z" fill="#03B6FE"/>
<path d="M68.425 16.6143C67.3181 16.6143 66.5208 16.6414 65.7254 16.6085C64.5701 16.5621 63.8231 15.8095 63.8076 14.7357C63.7941 13.72 64.5062 12.8591 65.5919 12.8339C68.1019 12.7778 70.6138 12.7836 73.1237 12.8436C74.1765 12.8687 74.8171 13.5091 74.8403 14.5674C74.8983 17.0767 74.8983 19.5879 74.8384 22.0972C74.8113 23.1903 73.9578 23.8946 72.938 23.8791C71.9142 23.8636 71.1595 23.1594 71.0763 22.045C71.0182 21.2576 71.0647 20.4624 71.0647 19.3809C70.6118 19.7795 70.3757 19.9652 70.1648 20.1761C68.4076 21.9251 66.6601 23.6837 64.8991 25.4307C63.9044 26.4155 62.7897 26.52 62.0117 25.7248C61.1757 24.8716 61.2667 23.7785 62.2769 22.7647C64.2488 20.7836 66.2305 18.8102 68.4231 16.6163L68.425 16.6143Z" fill="#01B6FE"/>
<path d="M45.6591 80.8385C46.2107 80.2542 46.7371 79.6448 47.3176 79.0914C48.1227 78.3233 49.3032 78.3698 50.083 79.1533C50.8088 79.8808 50.8591 80.9584 50.0908 81.7516C48.3917 83.5083 46.6655 85.2399 44.9025 86.9327C44.0897 87.7144 43.0253 87.6776 42.2145 86.8882C40.4863 85.2051 38.7794 83.5006 37.0977 81.771C36.3275 80.9778 36.3566 79.9117 37.0687 79.1727C37.808 78.4046 38.8975 78.3756 39.7374 79.1611C40.3005 79.6854 40.7959 80.2813 41.4733 81.0087C41.5217 80.5405 41.5642 80.3103 41.5642 80.0801C41.5681 77.4431 41.5623 74.8061 41.57 72.1691C41.5739 70.7393 42.2977 69.8997 43.4956 69.9016C44.6954 69.9016 45.4172 70.7393 45.4211 72.171C45.4289 75.0247 45.423 77.8764 45.423 80.7301C45.5024 80.7669 45.5798 80.8036 45.6591 80.8423V80.8385Z" fill="#02B6FE"/>
<path d="M41.5681 6.97373C40.8172 7.74567 40.2812 8.33382 39.7064 8.88134C38.9149 9.63394 37.9473 9.65328 37.2061 8.97034C36.3933 8.22161 36.2656 7.10336 37.0358 6.30433C38.7543 4.5186 40.5115 2.77157 42.2899 1.04776C43.0408 0.320315 44.0413 0.312577 44.8134 1.05356C46.5764 2.74836 48.3065 4.47797 50.0056 6.23661C50.7584 7.01629 50.7023 8.14229 49.994 8.84458C49.2528 9.5817 48.1014 9.62039 47.2963 8.87554C46.7138 8.33576 46.1971 7.72439 45.6533 7.14398C45.5779 7.17881 45.5024 7.2117 45.4269 7.24652C45.4269 8.09585 45.4269 8.94519 45.4269 9.79258C45.4269 11.8511 45.4385 13.9115 45.423 15.9701C45.4114 17.2992 44.6296 18.1253 43.4549 18.0982C42.3209 18.0731 41.5836 17.2682 41.5758 15.9778C41.5603 13.0835 41.572 10.1873 41.572 6.9718L41.5681 6.97373Z" fill="#02B6FE"/>
<path d="M80.5414 42.073C79.8002 41.3571 79.2371 40.8502 78.7146 40.3027C77.9095 39.4553 77.8863 38.3951 78.6178 37.6309C79.3784 36.8396 80.4892 36.828 81.36 37.6773C83.0398 39.318 84.7002 40.9779 86.3394 42.6572C87.2276 43.5685 87.216 44.561 86.3297 45.4626C84.7525 47.0684 83.1598 48.6606 81.5555 50.2393C80.6324 51.1486 79.4287 51.1912 78.6391 50.3941C77.8302 49.5757 77.9211 48.4981 78.8926 47.5133C79.3609 47.0393 79.8428 46.5769 80.5027 45.9269C79.4422 45.9269 78.6256 45.9269 77.8089 45.9269C75.7827 45.9269 73.7566 45.9327 71.7304 45.9249C70.3254 45.9191 69.4778 45.1665 69.4971 43.969C69.5146 42.8062 70.3409 42.0826 71.6975 42.0768C74.2384 42.0672 76.7794 42.0749 79.3203 42.0749C79.628 42.0749 79.9357 42.0749 80.5395 42.0749L80.5414 42.073Z" fill="#02B6FE"/>
</svg>
