<svg width="23" height="44" viewBox="0 0 23 44" fill="none" xmlns="http://www.w3.org/2000/svg">
<path d="M14.5667 40.9655H8.43329C7.54988 40.9665 6.69383 41.2688 6.00949 41.8216C5.32515 42.3744 4.85439 43.1438 4.67658 44H18.3234C18.1456 43.1438 17.6748 42.3744 16.9905 41.8216C16.3062 41.2688 15.4501 40.9665 14.5667 40.9655Z" fill="#36B3FF"/>
<path d="M22.6107 8.81821C22.8345 8.4304 22.9657 7.99705 22.9941 7.55135C23.0226 7.10564 22.9476 6.6594 22.7749 6.2468C22.6022 5.8342 22.3363 5.46619 21.9977 5.17093C21.6591 4.87567 21.2566 4.66101 20.8212 4.54338L16.2618 3.3129C15.7753 3.18076 15.3461 2.89438 15.0399 2.49768C14.7337 2.10098 14.5675 1.61585 14.5667 1.11669V0H8.43329V1.11669C8.4325 1.61585 8.26626 2.10098 7.96007 2.49768C7.65388 2.89438 7.22464 3.18076 6.73817 3.3129L2.17875 4.54338C1.74333 4.66111 1.3409 4.87586 1.00228 5.17119C0.663666 5.46652 0.397828 5.83461 0.225124 6.24726C0.0524195 6.65991 -0.0225733 7.1062 0.00588728 7.55195C0.0343479 7.9977 0.165507 8.4311 0.389323 8.81897L4.96638 16.7428C5.78253 18.1565 6.18476 19.7671 6.12802 21.3942C6.07129 23.0214 5.55782 24.6008 4.64514 25.9555L3.33336 27.9028C3.17388 28.1393 3.08227 28.4142 3.0683 28.6982C3.05434 28.9821 3.11855 29.2645 3.25407 29.5152C3.3896 29.7659 3.59137 29.9755 3.83784 30.1216C4.08432 30.2677 4.36625 30.3449 4.65358 30.3448H18.3464C18.6337 30.3449 18.9157 30.2677 19.1621 30.1216C19.4086 29.9755 19.6104 29.7659 19.7459 29.5152C19.8814 29.2645 19.9457 28.9821 19.9317 28.6982C19.9177 28.4142 19.8261 28.1393 19.6666 27.9028L18.3548 25.9555C17.4422 24.6008 16.9287 23.0214 16.872 21.3942C16.8152 19.7671 17.2175 18.1565 18.0336 16.7428L22.6107 8.81821Z" fill="#36B3FF"/>
<path d="M10.7333 31.8621H12.2667V39.4483H10.7333V31.8621Z" fill="#36B3FF"/>
</svg>
