<svg width="34" height="28" viewBox="0 0 34 28" fill="none" xmlns="http://www.w3.org/2000/svg">
<path d="M30.9091 18.6667H34V21.7778H30.9091V18.6667ZM30.9091 24.8889H34V28H30.9091V24.8889ZM30.9091 12.4444H34V15.5556H30.9091V12.4444ZM18.5455 0H21.6364V3.11111H18.5455V0ZM30.9091 6.22222H34V9.33333H30.9091V6.22222ZM0 6.22222H3.09091V9.33333H0V6.22222ZM24.7273 0H27.8182V3.11111H24.7273V0ZM24.7273 24.8889H27.8182V28H24.7273V24.8889ZM3.09091 0H0V3.11111H3.09091V0ZM34 0H30.9091V3.11111H34V0ZM12.3636 0H15.4545V3.11111H12.3636V0ZM6.18182 0H9.27273V3.11111H6.18182V0ZM0 12.4444V28H21.6364V12.4444H0ZM3.09091 24.8889L6.95455 19.8956L9.72091 23.24L13.5845 18.2311L18.5455 24.8889H3.09091Z" fill="#36B3FF"/>
</svg>
