<svg width="36" height="30" viewBox="0 0 36 30" fill="none" xmlns="http://www.w3.org/2000/svg">
<path d="M30.7266 21.6431L29.4618 23.3569L31.149 24.6429H27.3425C26.8709 22.7994 25.2339 21.4286 23.2734 21.4286H12.7266C10.7661 21.4286 9.12909 22.7994 8.6575 24.6429H6.32812C4.0015 24.6429 2.10938 22.7207 2.10938 20.3571C2.10938 17.9936 4.0015 16.0714 6.32812 16.0714H8.6575C9.12909 17.9149 10.7661 19.2857 12.7266 19.2857H23.2734C25.2339 19.2857 26.8709 17.9149 27.3425 16.0714H29.6719C33.1614 16.0714 36 13.1878 36 9.64286C36 6.09794 33.1614 3.21429 29.6719 3.21429H27.3425C26.8709 1.37081 25.2339 0 23.2734 0H12.7266C10.7661 0 9.12909 1.37081 8.6575 3.21429H7.73438L3.79633 0.214565L2.5318 1.92829L4.21902 3.21429H0V5.35714H4.21902L2.5318 6.64314L3.79633 8.35686L7.73438 5.35714H8.6575C9.12909 7.20061 10.7661 8.57143 12.7266 8.57143H23.2734C25.2339 8.57143 26.8709 7.20061 27.3425 5.35714H29.6719C31.9985 5.35714 33.8906 7.2793 33.8906 9.64286C33.8906 12.0064 31.9985 13.9286 29.6719 13.9286H27.3425C26.8709 12.0851 25.2339 10.7143 23.2734 10.7143H12.7266C10.7661 10.7143 9.12909 12.0851 8.6575 13.9286H6.32812C2.83859 13.9286 0 16.8122 0 20.3571C0 23.9021 2.83859 26.7857 6.32812 26.7857H8.6575C9.12909 28.6292 10.7661 30 12.7266 30H23.2734C25.2339 30 26.8709 28.6292 27.3425 26.7857H31.149L29.4618 28.0717L30.7266 29.7854L36 25.7143L30.7266 21.6431Z" fill="#36B3FF"/>
</svg>
