<svg width="82" height="71" viewBox="0 0 82 71" fill="none" xmlns="http://www.w3.org/2000/svg">
<path d="M20.517 10.2113C20.517 8.02913 20.5146 5.97557 20.517 3.92202C20.5243 1.14997 21.6524 0.00424789 24.3939 0.00182053C35.5779 -0.000606842 46.7594 -0.000606842 57.9435 0.00182053C60.5878 0.00182053 61.6893 1.1087 61.699 3.75696C61.7062 5.85178 61.699 7.94902 61.699 10.2065C62.2254 10.2065 62.6524 10.2065 63.0794 10.2065C67.9242 10.2065 72.769 10.2016 77.6137 10.2065C80.6317 10.2113 82 11.5682 82 14.5442C82 31.8149 82 49.0881 82 66.3588C82 69.6284 80.656 70.9586 77.3541 70.9586C53.1302 70.9586 28.9063 70.9271 4.68476 70.9999C1.77352 71.0145 -0.014468 69.3226 8.82048e-05 66.3636C0.0801473 49.173 0.0389047 31.9824 0.0389047 14.7918C0.0389047 11.5488 1.36109 10.2113 4.56346 10.2113C9.40824 10.2089 14.253 10.2113 19.0978 10.2113C19.5297 10.2113 19.9615 10.2113 20.517 10.2113ZM60.3185 40.6942C60.3234 30.2711 51.711 21.6879 41.2354 21.6758C30.6118 21.6637 22.1061 30.191 22.1012 40.8593C22.0988 51.4693 30.5705 59.9894 41.1335 60.0015C51.7765 60.0136 60.3113 51.4256 60.3161 40.6942H60.3185ZM61.762 25.0353H76.1314V17.2361C73.652 17.2361 71.2721 17.2361 68.8946 17.2361C66.5171 17.2361 64.1662 17.2361 61.762 17.2361V25.0353Z" fill="#01B5FE"/>
</svg>
