<svg width="47" height="48" viewBox="0 0 47 48" fill="none" xmlns="http://www.w3.org/2000/svg">
<path fill-rule="evenodd" clip-rule="evenodd" d="M19.8574 30.8418C18.6898 30.5157 18.0307 30.3442 17.6444 30.2524L17.514 29.7659C18.8743 28.5169 19.8747 26.0621 19.1926 23.6846C18.7604 22.1736 17.2411 21.1177 15.4989 21.1177C13.7567 21.1177 12.2373 22.1733 11.8043 23.6846C11.2435 25.6416 11.8645 28.1163 13.2811 29.5697C13.3729 29.6633 13.4663 29.7507 13.5612 29.8321L13.4482 30.2514C13.0615 30.3432 12.4045 30.5146 11.2339 30.8416C9.62591 31.2902 8.93468 31.7987 8.82076 33.7826C8.81993 33.803 8.81994 33.8229 8.81994 33.8433L8.82251 33.9443C8.84289 34.7815 8.85197 35.1634 8.85115 36.0291C8.8508 36.1255 8.86947 36.2211 8.90609 36.3103C8.94272 36.3995 8.99658 36.4807 9.0646 36.5491C9.13261 36.6174 9.21344 36.6718 9.30247 36.7089C9.39149 36.746 9.48696 36.7652 9.58341 36.7654H9.58561C9.78018 36.7651 9.96672 36.6878 10.1044 36.5503C10.242 36.4128 10.3196 36.2263 10.32 36.0317C10.3208 35.1469 10.3117 34.7584 10.2905 33.9084L10.2888 33.8377C10.3255 33.2358 10.4109 32.8897 10.5651 32.7178C10.7297 32.535 11.0938 32.4057 11.6299 32.2561C13.6586 31.6896 14.0504 31.619 14.1223 31.6109C14.2689 31.5943 14.4072 31.5339 14.519 31.4377C14.6308 31.3414 14.7111 31.2137 14.7494 31.0712L14.8906 30.5442C15.0939 30.5948 15.3025 30.6206 15.512 30.6212C15.7435 30.6208 15.9738 30.589 16.1967 30.5269L16.3427 31.0712C16.3814 31.2136 16.462 31.3412 16.5739 31.4374C16.6858 31.5336 16.824 31.594 16.9707 31.6109C17.0421 31.619 17.4341 31.6896 19.463 32.2561C19.9979 32.4059 20.3634 32.535 20.5279 32.7178C20.6807 32.8897 20.7666 33.2358 20.8033 33.8377L20.8015 33.9084C20.7816 34.7584 20.7712 35.1469 20.7734 36.0317C20.7736 36.2264 20.851 36.413 20.9887 36.5505C21.1264 36.6881 21.3131 36.7654 21.5077 36.7654H21.5086C21.7035 36.765 21.8903 36.6872 22.0278 36.5491C22.1654 36.411 22.2425 36.224 22.2422 36.0291C22.2405 35.1634 22.2505 34.7815 22.2707 33.9443L22.2725 33.8433C22.2735 33.8231 22.2733 33.8028 22.2717 33.7826C22.1587 31.7987 21.4674 31.2902 19.8581 30.8416L19.8574 30.8418ZM14.333 28.5439C13.4235 27.6116 12.7579 25.6904 13.2161 24.0893C13.5115 23.0564 14.6067 22.5865 15.4989 22.5865C16.3911 22.5865 17.4854 23.0564 17.7812 24.0893C18.3079 25.9268 17.5166 27.819 16.462 28.7367C15.7661 29.3434 15.0494 29.2783 14.333 28.5439ZM7.61914 15.7383C9.12606 15.7383 10.5991 15.2914 11.8521 14.4542C13.1051 13.617 14.0816 12.4271 14.6583 11.0349C15.235 9.64265 15.3859 8.11069 15.0919 6.63272C14.7979 5.15475 14.0722 3.79715 13.0067 2.7316C11.9411 1.66604 10.5835 0.940389 9.10556 0.646403C7.62759 0.352417 6.09564 0.503301 4.70342 1.07998C3.31121 1.65665 2.12126 2.63322 1.28406 3.88618C0.446855 5.13914 0 6.61222 0 8.11914C0.0021141 10.1392 0.805522 12.0759 2.23393 13.5044C3.66234 14.9328 5.59907 15.7362 7.61914 15.7383ZM7.24654 11.9608C6.10064 11.2852 3.16874 9.01508 3.36059 6.65866C3.45064 5.55709 4.12251 4.6596 5.11492 4.31701C5.94844 4.02987 6.8598 4.1884 7.61914 4.72459C8.3783 4.1884 9.28984 4.02987 10.1235 4.31701C11.1158 4.6596 11.7875 5.55737 11.8776 6.65866C12.0695 9.01508 9.13746 11.2852 7.99202 11.9608C7.87913 12.0275 7.75042 12.0626 7.61932 12.0626C7.48822 12.0626 7.35952 12.0275 7.24663 11.9608H7.24654ZM4.82475 6.77817C4.86725 6.25851 5.15439 5.85754 5.59392 5.7059C5.71269 5.66518 5.83738 5.6444 5.96294 5.64439C6.34968 5.64439 6.74725 5.83717 7.07938 6.19701C7.14824 6.27134 7.23172 6.33063 7.32458 6.37119C7.41744 6.41174 7.51768 6.43267 7.619 6.43267C7.72033 6.43267 7.82057 6.41174 7.91342 6.37119C8.00628 6.33063 8.08976 6.27134 8.15863 6.19701C8.59861 5.71967 9.1538 5.53699 9.64409 5.7059C10.0836 5.85754 10.3712 6.25851 10.4133 6.77817C10.5081 7.94317 8.95203 9.56118 7.61914 10.46C6.28653 9.56136 4.73048 7.94335 4.82484 6.77836L4.82475 6.77817ZM29.6173 37.9072C29.6169 38.2335 29.4871 38.5464 29.2564 38.7771C29.0256 39.0079 28.7128 39.1377 28.3864 39.138H15.633C15.5041 39.1378 15.3774 39.1718 15.2658 39.2364L7.05 43.9795V39.8728C7.05 39.678 6.97263 39.4912 6.83491 39.3535C6.69718 39.2158 6.51039 39.1384 6.31563 39.1384H2.70617C2.37814 39.1379 2.06368 39.0074 1.83172 38.7754C1.59976 38.5435 1.46924 38.229 1.46875 37.901V19.981C1.46926 19.653 1.5998 19.3386 1.83175 19.1066C2.0637 18.8747 2.37815 18.7442 2.70617 18.7437H20.3732C21.1086 20.821 22.3321 22.6913 23.9407 24.1973C25.5493 25.7034 27.496 26.8012 29.6172 27.3983V37.9072H29.6173ZM33.2992 26.4326C26.5541 26.4326 21.0674 20.9459 21.0674 14.2008C21.0674 7.45564 26.5541 1.96875 33.2992 1.96875C40.0444 1.96875 45.5312 7.45646 45.5312 14.2008C45.5312 20.9451 40.0436 26.4326 33.2992 26.4326ZM39.9197 12.1921H37.7054C37.7283 10.873 37.598 8.31302 36.3278 7.3564C35.9358 7.06146 35.2721 6.78901 34.3348 7.16629C34.1946 7.22455 34.0578 7.29075 33.9251 7.36457C33.8072 7.43011 33.7096 7.52677 33.6429 7.64401C33.5762 7.76125 33.5431 7.89455 33.547 8.02937L33.6059 9.94232C32.9364 11.2297 32.156 12.4561 31.2734 13.6079L30.8931 13.6187C30.7402 13.6233 30.5925 13.6757 30.4709 13.7685V13.5325C30.4706 13.2387 30.3538 12.9571 30.1461 12.7494C29.9384 12.5416 29.6568 12.4248 29.3631 12.4244H26.1739C25.8801 12.4247 25.5986 12.5415 25.3909 12.7492C25.1832 12.9569 25.0664 13.2385 25.0661 13.5322V20.3103C25.0665 20.604 25.1834 20.8856 25.391 21.0933C25.5986 21.301 25.8801 21.418 26.1739 21.4186H29.3631C29.5908 21.4181 29.8129 21.3475 29.9992 21.2164C30.1854 21.0853 30.3268 20.9001 30.4041 20.6859C30.5812 20.7421 30.7675 20.796 30.9602 20.8511C31.1642 20.9096 31.4431 20.9905 31.5175 21.0264C31.6219 21.0806 31.7378 21.1089 31.8554 21.109H38.5603C38.9226 21.1099 39.2746 20.9881 39.5591 20.7637C39.8435 20.5392 40.0437 20.2252 40.1272 19.8725L41.4866 14.1767C41.5431 13.94 41.5453 13.6936 41.4929 13.4559C41.4406 13.2182 41.335 12.9955 41.1842 12.8045C41.0334 12.6135 40.8413 12.4591 40.6223 12.353C40.4033 12.2469 40.1631 12.1918 39.9197 12.1919V12.1921ZM29.0023 19.9498V13.8932H26.535V19.9497L29.0023 19.9498ZM40.0583 13.8362C40.0632 13.8153 40.0633 13.7935 40.0586 13.7726C40.054 13.7516 40.0446 13.732 40.0313 13.7152C40.018 13.6984 40.001 13.6848 39.9817 13.6754C39.9624 13.6661 39.9412 13.6612 39.9197 13.6612H36.9363C36.8335 13.6612 36.7319 13.6397 36.638 13.5979C36.5441 13.5561 36.46 13.4951 36.3912 13.4187C36.3224 13.3424 36.2704 13.2524 36.2386 13.1547C36.2068 13.0569 36.1959 12.9536 36.2066 12.8514C36.3526 11.433 36.1287 9.04464 35.4447 8.52966C35.3906 8.48936 35.2858 8.41032 35.0307 8.47899L35.0801 10.0849C35.0834 10.2073 35.0566 10.3286 35.0021 10.4383C34.2198 11.984 33.2814 13.4456 32.2014 14.8002C32.1348 14.8805 32.0519 14.9456 31.9582 14.9914C31.8645 15.0372 31.7621 15.0625 31.6579 15.0657L30.9364 15.0869C30.7688 15.0936 30.6042 15.0417 30.4709 14.94V19.1504C30.7187 19.2535 31.1382 19.3743 31.3669 19.4405C31.6405 19.5194 31.845 19.5792 32.0056 19.6407H38.5599C38.5922 19.6422 38.6239 19.632 38.6493 19.6119C38.6746 19.5919 38.6918 19.5633 38.6976 19.5315L40.058 13.8361L40.0583 13.8362ZM39.3809 32.2617C37.8739 32.2617 36.4009 32.7086 35.1479 33.5458C33.8949 34.383 32.9184 35.5729 32.3417 36.9651C31.765 38.3574 31.6141 39.8893 31.9081 41.3673C32.2021 42.8452 32.9278 44.2028 33.9933 45.2684C35.0589 46.334 36.4165 47.0596 37.8944 47.3536C39.3724 47.6476 40.9044 47.4967 42.2966 46.92C43.6888 46.3434 44.8787 45.3668 45.7159 44.1138C46.5531 42.8609 47 41.3878 47 39.8809C46.9979 37.8608 46.1945 35.9241 44.7661 34.4956C43.3377 33.0672 41.4009 32.2638 39.3809 32.2617ZM42.1348 35.8418C42.4755 35.842 42.8023 35.9775 43.0432 36.2185C43.2842 36.4594 43.4197 36.7862 43.4199 37.127V42.6348C43.4196 42.9755 43.2841 43.3022 43.0431 43.5431C42.8022 43.7841 42.4755 43.9196 42.1348 43.9199H36.627C36.2862 43.9196 35.9595 43.784 35.7186 43.5431C35.4777 43.3022 35.3422 42.9755 35.3418 42.6348V37.127C35.3421 36.7862 35.4776 36.4595 35.7185 36.2185C35.9595 35.9776 36.2862 35.8421 36.627 35.8418H42.1348ZM41.9512 42.4512H36.8105V37.3105H41.9512V42.4512ZM39.8161 38.5957C39.8161 38.4505 39.8591 38.3085 39.9398 38.1877C40.0205 38.0669 40.1352 37.9728 40.2694 37.9172C40.4036 37.8616 40.5513 37.8471 40.6937 37.8754C40.8362 37.9038 40.967 37.9737 41.0697 38.0764C41.1724 38.1791 41.2424 38.31 41.2707 38.4524C41.299 38.5949 41.2845 38.7425 41.2289 38.8767C41.1733 39.0109 41.0792 39.1256 40.9584 39.2063C40.8377 39.287 40.6957 39.3301 40.5504 39.3301C40.454 39.3301 40.3585 39.3111 40.2693 39.2743C40.1802 39.2374 40.0992 39.1833 40.031 39.1151C39.9628 39.0469 39.9086 38.9659 39.8717 38.8768C39.8348 38.7877 39.8158 38.6922 39.8158 38.5957H39.8161Z" fill="#36B3FF"/>
</svg>
