<svg width="29" height="26" viewBox="0 0 29 26" fill="none" xmlns="http://www.w3.org/2000/svg">
<path d="M1.03571 25.5C0.761026 25.5 0.497588 25.3903 0.303354 25.1949C0.10912 24.9996 0 24.7346 0 24.4583V1.54167C0 1.2654 0.10912 1.00045 0.303354 0.805097C0.497588 0.609747 0.761026 0.5 1.03571 0.5H27.9643C28.239 0.5 28.5024 0.609747 28.6966 0.805097C28.8909 1.00045 29 1.2654 29 1.54167V24.4583C29 24.7346 28.8909 24.9996 28.6966 25.1949C28.5024 25.3903 28.239 25.5 27.9643 25.5H1.03571ZM11.2479 18.0625L9.01693 15.8187C8.8227 15.6235 8.55931 15.5138 8.28468 15.5138C8.01004 15.5138 7.74665 15.6235 7.55243 15.8187L2.07143 21.3354H27.2745L19.4383 11.8771C19.3411 11.7595 19.2193 11.6649 19.0817 11.5999C18.944 11.535 18.7939 11.5013 18.6418 11.5013C18.4898 11.5013 18.3396 11.535 18.2019 11.5999C18.0643 11.6649 17.9426 11.7595 17.8454 11.8771L12.7766 17.9937C12.6844 18.105 12.5701 18.1957 12.4411 18.26C12.3121 18.3243 12.1712 18.3609 12.0273 18.3674C11.8834 18.3738 11.7398 18.3501 11.6056 18.2976C11.4714 18.2451 11.3496 18.165 11.2479 18.0625ZM6.21429 8.83333C6.21442 9.24385 6.29495 9.65032 6.45128 10.0295C6.6076 10.4088 6.83667 10.7533 7.12538 11.0435C7.4141 11.3337 7.75682 11.5638 8.13397 11.7208C8.51113 11.8777 8.91533 11.9585 9.3235 11.9583C9.73167 11.9582 10.1358 11.8772 10.5129 11.72C10.8899 11.5628 11.2325 11.3324 11.521 11.042C11.8095 10.7516 12.0384 10.4069 12.1944 10.0276C12.3505 9.64829 12.4308 9.24177 12.4306 8.83125C12.4304 8.00217 12.1026 7.20716 11.5195 6.62111C10.9365 6.03506 10.1458 5.70597 9.32143 5.70625C8.49709 5.70653 7.70662 6.03614 7.12392 6.62258C6.54122 7.20902 6.21401 8.00426 6.21429 8.83333Z" fill="#36B3FF"/>
</svg>
