<svg width="39" height="40" viewBox="0 0 39 40" fill="none" xmlns="http://www.w3.org/2000/svg">
<path d="M16.5096 10.6013C14.3486 10.6013 12.5905 12.3595 12.5905 14.5204C12.5905 16.6815 14.3486 18.4395 16.5096 18.4395C18.6706 18.4395 20.4286 16.6814 20.4286 14.5204C20.4286 12.3594 18.6706 10.6013 16.5096 10.6013Z" fill="#36B3FF"/>
<path d="M37.6397 32.2094H34.4308C34.4308 30.787 34.4308 7.84611 34.4308 6.42984C34.4308 5.67848 33.8217 5.06941 33.0704 5.06941H7.29067V1.86043C7.29067 1.10915 6.68152 0.5 5.93023 0.5C5.17887 0.5 4.5698 1.10915 4.5698 1.86043V5.06971H1.36044C0.609149 5.06971 0 5.67886 0 6.43022C0 7.18158 0.609149 7.79065 1.36044 7.79065H4.56934C4.56934 8.8467 4.56934 32.3812 4.56934 33.5702C4.56934 34.3216 5.17849 34.9307 5.92978 34.9307H31.7094V38.1396C31.7094 38.8909 32.3186 39.5 33.0698 39.5C33.8212 39.5 34.4303 38.8909 34.4303 38.1396V34.9303H37.6396C38.3909 34.9303 39 34.3211 39 33.5699C39.0002 32.8186 38.391 32.2094 37.6397 32.2094ZM31.7099 20.2989L27.8289 16.1858C27.2983 15.6233 26.3896 15.6137 25.8497 16.1859L17.2743 25.2769L13.1549 20.9095C12.6188 20.3408 11.7109 20.3424 11.1756 20.9095L7.29029 25.0282V7.79027H31.7098V20.2989H31.7099Z" fill="#36B3FF"/>
</svg>
