<svg width="25" height="48" viewBox="0 0 25 48" fill="none" xmlns="http://www.w3.org/2000/svg">
<path d="M12.9738 1.99661C12.9359 1.90137 12.87 1.81964 12.7847 1.76205C12.6993 1.70446 12.5986 1.67366 12.4954 1.67366C12.3922 1.67366 12.2914 1.70446 12.2061 1.76205C12.1208 1.81964 12.0549 1.90137 12.017 1.99661L3.40549 23.5353C3.7416 23.6133 4.0641 23.7407 4.36232 23.9132L12.4954 3.57448L20.541 24.3779C20.8383 24.205 21.1458 24.0498 21.4618 23.9132C21.4618 23.8621 21.5647 24.1736 12.9738 1.99661Z" fill="#36B3FF"/>
<path d="M24.3992 30.3268C23.9825 30.1634 23.8282 30.2094 21.2303 30.2094L21.9299 29.1064C21.9802 29.0501 22.0173 28.9834 22.0386 28.9112C22.0599 28.8389 22.0649 28.7629 22.0531 28.6886C22.0414 28.6142 22.0132 28.5433 21.9706 28.4811C21.9281 28.4188 21.8722 28.3666 21.8069 28.3283C21.7416 28.2899 21.6687 28.2664 21.5932 28.2593C21.5177 28.2523 21.4415 28.2619 21.3702 28.2874C21.2989 28.313 21.2342 28.3539 21.1806 28.4072C21.1271 28.4605 21.0861 28.5249 21.0606 28.5958L20.006 30.2094H19.1263C19.6896 28.8229 20.0365 27.3593 20.1552 25.869C20.6833 25.4702 21.2523 25.1279 21.8528 24.8477C25.2943 23.3004 25.5155 26.7626 24.3992 30.3268Z" fill="#36B3FF"/>
<path d="M2.6853 27.3702C2.88078 27.9217 2.6853 27.3447 3.67814 30.2094C0.514428 30.2094 0.83337 30.2094 0.771639 30.2094C0.365243 28.5907 0.627601 25.1694 2.25318 24.5617C3.4055 24.1226 4.72757 25.3022 5.50435 26.2519C5.46745 27.578 5.56916 28.9042 5.80786 30.2094H4.77901L3.66785 27.0332C3.6224 26.9062 3.52822 26.8022 3.40584 26.7439C3.28346 26.6855 3.1428 26.6776 3.01453 26.7217C2.9498 26.7425 2.88986 26.7759 2.83819 26.8198C2.78652 26.8638 2.74415 26.9174 2.71353 26.9778C2.68291 27.0381 2.66465 27.1038 2.6598 27.1712C2.65496 27.2386 2.66362 27.3062 2.6853 27.3702Z" fill="#36B3FF"/>
<path d="M12.1816 24.7455C11.4761 25.3872 10.8367 26.0971 10.2731 26.8647L9.75864 25.0621C9.73972 24.9977 9.70822 24.9377 9.66593 24.8854C9.62363 24.8331 9.57138 24.7896 9.51214 24.7574C9.45291 24.7251 9.38786 24.7048 9.3207 24.6975C9.25355 24.6902 9.18561 24.6961 9.12075 24.7149C9.0559 24.7337 8.99541 24.7649 8.94273 24.8069C8.89005 24.8489 8.84622 24.9008 8.81374 24.9596C8.78126 25.0184 8.76076 25.0829 8.75341 25.1496C8.74607 25.2163 8.75203 25.2837 8.77094 25.3481L9.56316 28.0851C9.25017 28.7465 9.07519 29.4638 9.04873 30.194H6.83671C6.68517 29.3845 6.59063 28.5655 6.55377 27.743C6.41488 25.0213 6.83671 22.1106 8.22565 21.7174C9.36253 21.3906 10.9007 22.8613 12.1816 24.7455Z" fill="#36B3FF"/>
<path d="M18.0152 30.2094H14.301C14.62 29.7294 14.3936 30.0817 15.4327 28.4834C15.5071 28.3676 15.5321 28.2272 15.5022 28.0932C15.4723 27.9591 15.3899 27.8423 15.2733 27.7685C15.1566 27.6947 15.0152 27.6699 14.8801 27.6996C14.7451 27.7293 14.6274 27.811 14.5531 27.9268L13.0561 30.2094H10.0776C10.0776 28.5038 11.4974 26.8034 12.7372 25.6136C14.5839 23.8672 17.0429 22.3915 18.2878 23.1779C19.9082 24.2145 18.8177 28.3404 18.0152 30.2094Z" fill="#36B3FF"/>
<path d="M24.6358 32.1089V34.4272C24.6358 34.6602 24.5426 34.8836 24.3767 35.0483C24.2107 35.213 23.9857 35.3055 23.751 35.3055H22.7839L20.6336 46.2587C20.5412 46.7482 20.2792 47.1902 19.8931 47.5082C19.507 47.8262 19.021 48.0002 18.5193 48H6.12166C5.62167 47.9997 5.13736 47.8268 4.75165 47.511C4.36595 47.1952 4.10283 46.7561 4.00737 46.2689L2.04741 36.3268H12.7989C12.9353 36.3268 13.0662 36.273 13.1626 36.1772C13.2591 36.0815 13.3133 35.9516 13.3133 35.8162C13.3133 35.6807 13.2591 35.5508 13.1626 35.4551C13.0662 35.3593 12.9353 35.3055 12.7989 35.3055H0.884812C0.650145 35.3055 0.425089 35.213 0.259155 35.0483C0.093221 34.8836 0 34.6602 0 34.4272V32.1089C0 31.876 0.093221 31.6526 0.259155 31.4879C0.425089 31.3232 0.650145 31.2306 0.884812 31.2306H23.751C23.9857 31.2306 24.2107 31.3232 24.3767 31.4879C24.5426 31.6526 24.6358 31.876 24.6358 32.1089Z" fill="#36B3FF"/>
<path d="M12.4954 4.36085C13.7085 4.36085 14.692 3.38464 14.692 2.18043C14.692 0.97621 13.7085 0 12.4954 0C11.2822 0 10.2988 0.97621 10.2988 2.18043C10.2988 3.38464 11.2822 4.36085 12.4954 4.36085Z" fill="#36B3FF"/>
</svg>
