<svg width="38" height="37" viewBox="0 0 38 37" fill="none" xmlns="http://www.w3.org/2000/svg">
<path d="M19.0015 6.15487C12.1867 6.15166 6.61659 11.6872 6.61256 18.467C6.60853 25.2396 12.1811 30.7807 18.9982 30.7831C25.8114 30.7855 31.3847 25.246 31.3872 18.4702C31.3888 11.6961 25.8194 6.15889 19.0015 6.15568V6.15487Z" fill="#36B3FF"/>
<path d="M35.7876 5.16682C36.0391 5.44054 36.2793 5.72712 36.5453 5.98639C36.9379 6.36849 37.4175 6.37571 37.7593 6.02814C38.0865 5.69581 38.0865 5.21337 37.7198 4.84653C36.1882 3.31173 34.6502 1.78335 33.1049 0.262193C32.747 -0.0902013 32.2351 -0.0789633 31.9135 0.245336C31.583 0.579268 31.5958 1.04163 31.9521 1.42774C32.0795 1.56501 32.2125 1.69746 32.3504 1.82429C32.4882 1.95112 32.6349 2.06751 32.7332 2.23367C32.3705 2.13655 32.0134 2.00249 31.6442 1.95031C30.8413 1.83633 30.1231 2.06751 29.5322 2.61818C28.9744 3.13834 28.4287 3.67295 27.908 4.23004C26.9422 5.26234 26.9285 6.79152 27.8934 7.82462C28.6052 8.58721 29.3468 9.32491 30.1126 10.0337C31.1638 11.0058 32.7155 10.9809 33.7594 10.0016C34.2866 9.50713 34.7952 8.99339 35.2983 8.47402C36.0898 7.65525 36.2793 6.54348 35.8214 5.51038C35.7811 5.41887 35.7392 5.32816 35.6989 5.23665C35.7287 5.21337 35.7577 5.19009 35.7876 5.16682Z" fill="#36B3FF"/>
<path d="M2.30558 5.22934C2.04037 5.7784 1.87029 6.3403 1.95976 6.95759C2.04521 7.54759 2.28623 8.05491 2.70218 8.47795C3.18987 8.97483 3.68078 9.4685 4.18298 9.95174C5.26235 10.9913 6.82859 11.021 7.92005 10.0007C8.6536 9.31518 9.36619 8.60558 10.0586 7.87912C11.0912 6.79544 11.0711 5.24379 10.0304 4.16332C9.57577 3.69052 9.10501 3.23297 8.63506 2.77462C7.70321 1.86513 6.60933 1.6781 5.42195 2.21833C5.37762 2.2384 5.33086 2.25445 5.22607 2.20308C5.49208 1.95183 5.76777 1.7086 6.0233 1.44692C6.41023 1.05118 6.42474 0.581584 6.07811 0.238019C5.74439 -0.0918987 5.23816 -0.0814633 4.85607 0.295815C3.33174 1.80172 1.81144 3.31164 0.29759 4.82717C-0.088531 5.21328 -0.0933665 5.70214 0.250837 6.03848C0.598265 6.37803 1.07064 6.36117 1.46643 5.97506C1.73003 5.71819 1.97105 5.43804 2.22255 5.16913C2.25076 5.1892 2.27898 5.20927 2.30719 5.22934H2.30558Z" fill="#36B3FF"/>
<path d="M5.20511 34.7526C5.99912 35.105 6.78023 35.2061 7.59519 34.9115C8.40774 34.6177 10.3948 32.6535 10.66 31.8403C10.9776 30.865 10.8293 29.9507 10.1199 29.1922C9.39763 28.4207 8.64715 27.6726 7.87007 26.9558C6.82859 25.9949 5.2954 26.019 4.25634 26.9863C3.73721 27.4695 3.24065 27.9776 2.7441 28.4842C1.87754 29.3671 1.7002 30.5038 2.2427 31.6172C2.27092 31.6742 2.29994 31.7312 2.27011 31.8387C2.02345 31.5859 1.78162 31.3298 1.53011 31.0826C1.09482 30.6547 0.614388 30.6106 0.255674 30.9581C-0.118355 31.3194 -0.0764381 31.801 0.379007 32.2545C1.83966 33.7099 3.30192 35.1636 4.76579 36.6157C5.2172 37.0636 5.71134 37.1182 6.07167 36.7674C6.45618 36.3934 6.40459 35.9286 5.91851 35.4437C5.68393 35.2101 5.44372 34.983 5.20592 34.7526H5.20511Z" fill="#36B3FF"/>
<path d="M35.749 31.8339C36.0601 31.0922 36.2076 30.3553 35.9311 29.5983C35.8013 29.2435 35.6055 28.8879 35.3556 28.607C34.8493 28.0386 34.2988 27.5064 33.7418 26.9855C32.7084 26.0182 31.1727 25.9949 30.1288 26.9566C29.3518 27.6726 28.5997 28.4199 27.8798 29.1922C26.9439 30.1956 26.948 31.7119 27.8734 32.7257C28.3965 33.2981 28.9511 33.8439 29.521 34.3705C30.3521 35.1395 31.4839 35.292 32.5141 34.812C32.5931 34.7751 32.6705 34.7341 32.7898 34.7518C32.5246 35.0111 32.2521 35.2655 31.9941 35.532C31.5903 35.9503 31.5709 36.4223 31.9321 36.7706C32.2706 37.0973 32.764 37.0773 33.1493 36.696C34.672 35.1909 36.1923 33.6818 37.7062 32.1678C38.0899 31.7849 38.0923 31.2961 37.7449 30.9589C37.4119 30.6354 36.9339 30.6435 36.5583 30.9999C36.2778 31.2664 36.0182 31.5554 35.7498 31.8347L35.749 31.8339Z" fill="#36B3FF"/>
</svg>
