<svg width="19" height="19" viewBox="0 0 19 19" fill="none" xmlns="http://www.w3.org/2000/svg">
<path d="M17.288 9.144C17.288 10.7547 16.8104 12.3293 15.9155 13.6686C15.0206 15.0078 13.7487 16.0517 12.2606 16.6681C10.7725 17.2845 9.13497 17.4458 7.55519 17.1315C5.97541 16.8173 4.52429 16.0416 3.38533 14.9027C2.24637 13.7637 1.47073 12.3126 1.15649 10.7328C0.84225 9.15303 1.00353 7.51555 1.61993 6.02743C2.23633 4.5393 3.28017 3.26739 4.61944 2.37251C5.95871 1.47764 7.53327 1 9.144 1C11.3039 1 13.3754 1.85803 14.9027 3.38532C16.43 4.91262 17.288 6.98408 17.288 9.144Z" stroke="#CCCCCC" stroke-width="2" stroke-linecap="round" stroke-linejoin="round"/>
<path d="M9.14404 5.88599V12.401" stroke="#CCCCCC" stroke-width="2" stroke-linecap="round" stroke-linejoin="round"/>
<path d="M5.88623 9.14404H12.4012" stroke="#CCCCCC" stroke-width="2" stroke-linecap="round" stroke-linejoin="round"/>
</svg>
