<?xml version="1.0" encoding="utf-8"?>
<!-- Generator: Adobe Illustrator 19.0.0, SVG Export Plug-In . SVG Version: 6.00 Build 0)  -->
<svg version="1.1" xmlns="http://www.w3.org/2000/svg" xmlns:xlink="http://www.w3.org/1999/xlink" x="0px" y="0px"
	 viewBox="0 0 406 395" style="enable-background:new 0 0 406 395;" xml:space="preserve">
<style type="text/css">
	.st0{display:none;}
	.st1{display:inline;}
	.st2{display:none;fill:#FFFFFF;}
	.st3{fill:#45567C;}
</style>
<g id="Layer_1" class="st0">
	<g class="st1">
		<path class="st2" d="M6.8,190c0-63.1,0-126.2,0-189.2c131.5,0,263.1,0,394.6,0c0,131.5,0,263.1,0,394.6c-131.5,0-263.1,0-394.6,0
			c0-63.3,0-126.7,0-190c0.2,1.1,0.6,2.2,0.7,3.3c2.4,21,10.5,39.6,25.1,54.9c25.7,26.8,57.2,36.8,93.4,28.7
			c30.4-6.8,51.8-26.2,67.8-52.2c9.7-15.9,15.1-33.5,21.3-50.9c6.2-17.3,14.8-33.2,27.7-46.5c20.4-21,45.1-30.5,74.2-25.4
			c44.3,7.8,73.1,48.1,66.8,92.8c-5.2,37.5-38.5,67.8-76.3,69c-29.2,0.9-52.8-10.3-70.4-33.8c-0.8-1.1-1.7-2.2-2.7-3.4
			c-4.5,2.9-8.8,5.6-13.1,8.4c5.9,9,12.6,16.7,20.8,23c30.4,23.4,63.8,28.6,99.1,13.8c57.7-24.2,77.4-94.8,41.1-145.8
			c-34.2-48-103.2-56.6-149-11.2c-16.8,16.6-27.6,36.8-34.9,58.9c-6.4,19.3-13.1,38.3-25.8,54.5c-21.6,27.5-49.2,40.5-84.5,34.1
			c-34.2-6.2-62.4-37.3-64.9-71.8c-2.3-31.1,9.1-56.1,34.1-74.7c34.6-25.6,86.4-17.5,111.9,17.2c1.3,1.7,2.6,3.4,3.9,5.2
			c4.6-2.9,8.7-5.6,13.8-8.9c-6-6.6-11.2-13.5-17.5-19.1c-22.8-20.1-49.5-28.7-79.7-23.8c-36.3,5.8-61.6,26.4-75.7,60.2
			C10.2,170.7,9.1,180.6,6.8,190z"/>
	</g>
</g>
<g id="Layer_2">
	<path class="st3" d="M395.8,67.8c0,107.5,0,215,0,322.5c-107.5,0-215,0-322.5,0c-0.7-0.2-1.4-0.6-2.1-0.7
		c-28.5-4.9-47.4-21.1-56.5-48.6c-1.3-4-2-8.2-2.9-12.2c0-107.4,0-214.9,0-322.5c107.5,0,215,0,322.5,0c0.7,0.2,1.4,0.6,2.1,0.7
		c28.7,4.9,47.6,21.3,56.6,48.9C394.2,59.7,394.8,63.8,395.8,67.8z M378.4,372.9c0-1.7,0-2.9,0-4.1c0-97.4,0-194.7,0-292.1
		c0-3.7-0.3-7.5-1-11.2c-5.1-25.2-25.7-41.8-52.1-41.8c-97.2,0-194.5,0-291.7,0c-1.3,0-2.7,0-4.4,0c0,1.7,0,2.9,0,4.1
		c0,97.5,0,195,0,292.5c0,3.6,0.3,7.3,1,10.8c5.1,25.2,25.8,41.8,52.1,41.8c97.2,0,194.5,0,291.7,0
		C375.2,372.9,376.5,372.9,378.4,372.9z"/>
	<path class="st3" d="M141.9,262.8c-8.1,0-15.3,0.1-22.5-0.1c-0.8,0-1.8-1.4-2.4-2.4c-0.3-0.5-0.1-1.5-0.1-2.2
		c0-40.5,0-81-0.1-121.4c0-3.5,0.9-4.8,4.5-4.7c15.2,0.2,30.5-0.5,45.7,0.4c17.8,1.1,32.1,8.7,38.9,26.3c9.2,23.8-2,47.1-26.9,55
		c-7,2.3-14.6,2.9-22,3.8c-4.8,0.6-9.7,0.1-15.1,0.1C141.9,232.8,141.9,247.6,141.9,262.8z M142.2,198.8c9.2,0.3,18.1,1.3,26.8-1.9
		c10.8-3.9,15.6-11.3,15.2-23.4c-0.4-11.4-6.1-19.4-17-21.7c-7-1.4-14.4-1.1-21.5-1.6c-3-0.2-3.8,1-3.8,3.9
		c0.1,13.7,0.1,27.5,0.1,41.2C141.9,196.4,142.1,197.4,142.2,198.8z"/>
	<path class="st3" d="M284.8,190.6c-1.9-1-3.1-1.6-4.2-2.2c-7.2-4-14.9-5.7-23-5.2c-2.1,0.1-4.2,0.7-6.1,1.7
		c-5.7,2.8-6.4,9.6-1.2,13.3c3,2.2,6.5,3.7,9.8,5.3c5.7,2.8,11.7,5,17.1,8.4c19,11.9,18.1,38.2-2,48c-16.3,8-33.2,6.4-49.6-1
		c-0.9-0.4-2-1.5-2-2.4c-0.2-6.3-0.1-12.6-0.1-19.9c1.7,1,2.8,1.6,3.7,2.2c7.8,5.3,16.4,7.8,25.8,7.7c2.7,0,5.5-0.6,8-1.6
		c6.2-2.5,7.3-10,2.1-14.2c-2.9-2.3-6.4-3.8-9.7-5.5c-5.3-2.7-11-4.8-16.1-7.8c-10.5-6.2-14.8-15.7-13-27.6
		c1.7-11.5,8.9-18.9,19.8-22.1c12.4-3.6,24.9-2.9,37.2,1c2.7,0.8,3.8,2.3,3.6,5.2C284.7,179.1,284.8,184.4,284.8,190.6z"/>
</g>
</svg>
