<?xml version="1.0" encoding="utf-8"?>
<!-- Generator: Adobe Illustrator 25.0.0, SVG Export Plug-In . SVG Version: 6.00 Build 0)  -->
<svg version="1.1" id="Layer_1" xmlns="http://www.w3.org/2000/svg" xmlns:xlink="http://www.w3.org/1999/xlink" x="0px" y="0px"
	 viewBox="0 0 33.4 38" style="enable-background:new 0 0 33.4 38;" xml:space="preserve">
<style type="text/css">
	.st0{fill:#333333;}
</style>
<g transform="translate(-30.849)">
	<g transform="translate(30.849 1.417)">
		<path class="st0" d="M30.9,13.6L18.3,1c-1.3-1.3-3.4-1.3-4.7,0c-1.1,1.1-1.3,2.9-0.4,4.2v0.1c-1,4.5-3.2,8.7-6.4,11.9L1,23
			c-1.3,1.3-1.3,3.4,0,4.7l0,0l3.1,3.1c1.3,1.3,3.4,1.3,4.7,0l0,0L9.6,30l5.5,5.5c1.3,1.3,3.4,1.3,4.7,0s1.3-3.4,0-4.7l-2.4-2.4
			l0.8-0.8c1.3-1.3,1.3-3.4,0-4.7l0,0l-0.5-0.5c2.6-1.9,5.6-3.1,8.8-3.8h0.1c1.3,0.9,3.1,0.7,4.2-0.4l0,0
			C32.2,17,32.2,14.9,30.9,13.6z M7.3,29.3c-0.4,0.4-1.1,0.4-1.6,0l-3.1-3.1c-0.4-0.4-0.4-1.1,0-1.6l0,0l5.5-5.5l4.7,4.7L7.3,29.3z
			 M18.3,32.5c0.4,0.4,0.4,1.1,0,1.6c-0.4,0.4-1.1,0.4-1.6,0l-5.5-5.5l1.6-1.6L18.3,32.5z M14.4,25.4c0.3-0.3,0.8-0.8,1.6-1.5
			l0.7,0.7c0.4,0.4,0.4,1.1,0,1.6l0,0L15.9,27L14.4,25.4z M14.4,22.3l-4.8-4.8c2.6-3,4.4-6.5,5.4-10.3l9.7,9.7
			C20.9,17.8,17.4,19.7,14.4,22.3L14.4,22.3z M29.3,16.7c-0.4,0.4-1.1,0.4-1.6,0l0,0L15.1,4.1c-0.4-0.4-0.4-1.1,0-1.6
			c0.4-0.4,1.1-0.4,1.6,0l12.6,12.6C29.7,15.6,29.7,16.3,29.3,16.7z"/>
	</g>
	<g transform="translate(36.224 24.103)">
		<path class="st0" d="M3.5,0.3C3-0.1,2.3-0.1,1.9,0.3L0.3,1.9c-0.4,0.4-0.4,1.1,0,1.6c0.4,0.4,1.1,0.4,1.6,0l1.6-1.6
			C3.9,1.5,3.9,0.8,3.5,0.3z"/>
	</g>
	<g transform="translate(53.141)">
		<path class="st0" d="M1.1,0C0.5,0,0,0.5,0,1.1l0,0v2.2C0,4,0.5,4.5,1.1,4.5S2.2,4,2.2,3.3V1.1C2.2,0.5,1.7,0,1.1,0L1.1,0z"/>
	</g>
	<g transform="translate(59.818 8.904)">
		<g transform="translate(0)">
			<path class="st0" d="M3.3,0H1.1C0.5,0,0,0.5,0,1.1s0.5,1.1,1.1,1.1h2.2c0.6,0,1.1-0.5,1.1-1.1C4.5,0.5,4,0,3.3,0L3.3,0z"/>
		</g>
	</g>
	<g transform="translate(57.592 2.226)">
		<path class="st0" d="M4.1,0.3C3.7-0.1,3-0.1,2.5,0.3L0.3,2.6c-0.4,0.4-0.4,1.1,0,1.6c0.4,0.4,1.1,0.4,1.6,0l0,0L4.1,2
			C4.6,1.5,4.6,0.8,4.1,0.3L4.1,0.3z"/>
	</g>
</g>
</svg>
