<?xml version="1.0" encoding="utf-8"?>
<!-- Generator: Adobe Illustrator 25.0.0, SVG Export Plug-In . SVG Version: 6.00 Build 0)  -->
<svg version="1.1" id="Layer_1" xmlns="http://www.w3.org/2000/svg" xmlns:xlink="http://www.w3.org/1999/xlink" x="0px" y="0px"
	 viewBox="0 0 33.6 33.5" style="enable-background:new 0 0 33.6 33.5;" xml:space="preserve">
<style type="text/css">
	.st0{fill:#333333;}
</style>
<g transform="translate(0 -0.015)">
	<g transform="translate(0 0.015)">
		<path class="st0" d="M32.3,7.8L17.5,0.2l0,0c-0.7-0.3-1.4-0.3-2.1,0L9,3.6c-0.1,0-0.1,0-0.1,0.1l-7.6,4C0.5,8.2,0,8.9,0,9.8v14
			c0,0.9,0.5,1.6,1.2,2l14.1,7.5l0,0c0.7,0.3,1.4,0.3,2.1,0l14.8-7.5c0.8-0.4,1.3-1.2,1.3-2.1V9.8C33.6,8.9,33.1,8.1,32.3,7.8z
			 M16.3,2c0.1,0,0.2,0,0.3,0l13.9,7L25,11.7L11.5,4.5L16.3,2z M15.4,31.1l-13.3-7l0,0C2,24,2,23.9,2,23.8V10.7l13.5,7L15.4,31.1z
			 M16.4,16L3,9l6.4-3.4l13.5,7.1L16.4,16z M31.6,23.7c0,0.1-0.1,0.3-0.2,0.3l-14,7.1V17.7l6.4-3.2v3.4c0,0.5,0.4,1,1,1
			c0.5,0,1-0.4,1-1c0,0,0,0,0-0.1v-4.3l5.8-2.9L31.6,23.7L31.6,23.7z"/>
	</g>
</g>
</svg>
