<svg width="180" height="60" viewBox="0 0 180 60" fill="none" xmlns="http://www.w3.org/2000/svg">
<rect x="1" y="1" width="178" height="58" rx="15" fill="white"/>
<rect x="1" y="1" width="178" height="58" rx="15" stroke="black" stroke-width="2"/>
<g clip-path="url(#clip0_56_458)">
<path d="M36.8245 31.1257C36.8751 36.5737 41.6038 38.3866 41.6562 38.4097C41.6162 38.5375 40.9006 40.9932 39.1649 43.5299C37.6644 45.723 36.1072 47.9079 33.654 47.9531C31.2435 47.9976 30.4684 46.5238 27.7125 46.5238C24.9574 46.5238 24.0963 47.908 21.8144 47.9976C19.4465 48.0873 17.6433 45.6262 16.1304 43.4411C13.0389 38.9716 10.6764 30.8114 13.8487 25.3031C15.4246 22.5677 18.2409 20.8355 21.2978 20.791C23.623 20.7467 25.8177 22.3554 27.2392 22.3554C28.6599 22.3554 31.3269 20.4208 34.1308 20.7049C35.3045 20.7538 38.5994 21.179 40.7151 24.2759C40.5446 24.3816 36.7837 26.571 36.8245 31.1257ZM32.2943 17.7479C33.5514 16.2262 34.3976 14.1078 34.1668 12C32.3547 12.0728 30.1634 13.2075 28.8636 14.7284C27.6988 16.0753 26.6786 18.231 26.9539 20.297C28.9737 20.4533 31.0371 19.2706 32.2943 17.7479Z" fill="black"/>
</g>
<path d="M58.375 24H55.233V13.8182H58.5142C59.5019 13.8182 60.3471 14.022 61.0497 14.4297C61.7524 14.834 62.291 15.4157 62.6655 16.1747C63.04 16.9304 63.2273 17.8352 63.2273 18.8892C63.2273 19.9498 63.0384 20.8629 62.6605 21.6286C62.2827 22.3909 61.7325 22.9775 61.0099 23.3885C60.2874 23.7962 59.4091 24 58.375 24ZM56.4659 22.9062H58.2955C59.1373 22.9062 59.835 22.7438 60.3885 22.419C60.942 22.0942 61.3546 21.6319 61.6264 21.032C61.8982 20.4321 62.0341 19.7178 62.0341 18.8892C62.0341 18.0672 61.8999 17.3596 61.6314 16.7663C61.3629 16.1697 60.9619 15.7124 60.4283 15.3942C59.8946 15.0727 59.2301 14.9119 58.4347 14.9119H56.4659V22.9062ZM68.2386 24.1591C67.5492 24.1591 66.9444 23.995 66.424 23.6669C65.907 23.3388 65.5026 22.8797 65.2109 22.2898C64.9226 21.6998 64.7784 21.0104 64.7784 20.2216C64.7784 19.4261 64.9226 18.7318 65.2109 18.1385C65.5026 17.5452 65.907 17.0845 66.424 16.7564C66.9444 16.4283 67.5492 16.2642 68.2386 16.2642C68.928 16.2642 69.5313 16.4283 70.0483 16.7564C70.5687 17.0845 70.973 17.5452 71.2614 18.1385C71.553 18.7318 71.6989 19.4261 71.6989 20.2216C71.6989 21.0104 71.553 21.6998 71.2614 22.2898C70.973 22.8797 70.5687 23.3388 70.0483 23.6669C69.5313 23.995 68.928 24.1591 68.2386 24.1591ZM68.2386 23.1051C68.7623 23.1051 69.1932 22.9709 69.5312 22.7024C69.8693 22.4339 70.1196 22.081 70.282 21.6435C70.4444 21.206 70.5256 20.732 70.5256 20.2216C70.5256 19.7112 70.4444 19.2356 70.282 18.7947C70.1196 18.3539 69.8693 17.9976 69.5312 17.7259C69.1932 17.4541 68.7623 17.3182 68.2386 17.3182C67.715 17.3182 67.2841 17.4541 66.946 17.7259C66.608 17.9976 66.3577 18.3539 66.1953 18.7947C66.0329 19.2356 65.9517 19.7112 65.9517 20.2216C65.9517 20.732 66.0329 21.206 66.1953 21.6435C66.3577 22.081 66.608 22.4339 66.946 22.7024C67.2841 22.9709 67.715 23.1051 68.2386 23.1051ZM74.9602 24L72.6335 16.3636H73.8665L75.517 22.2102H75.5966L77.2273 16.3636H78.4801L80.0909 22.1903H80.1705L81.821 16.3636H83.054L80.7273 24H79.5739L77.9034 18.1335H77.7841L76.1136 24H74.9602ZM85.7784 19.4062V24H84.6051V16.3636H85.7386V17.5568H85.8381C86.017 17.169 86.2888 16.8575 86.6534 16.6222C87.018 16.3835 87.4886 16.2642 88.0653 16.2642C88.5824 16.2642 89.0348 16.3703 89.4226 16.5824C89.8104 16.7912 90.112 17.1094 90.3274 17.5369C90.5429 17.9612 90.6506 18.4981 90.6506 19.1477V24H89.4773V19.2273C89.4773 18.6274 89.3215 18.16 89.0099 17.8253C88.6984 17.4872 88.2708 17.3182 87.7273 17.3182C87.3527 17.3182 87.018 17.3994 86.723 17.5618C86.4313 17.7242 86.201 17.9612 86.032 18.2727C85.8629 18.5843 85.7784 18.9621 85.7784 19.4062ZM93.9679 13.8182V24H92.7946V13.8182H93.9679ZM99.2191 24.1591C98.5297 24.1591 97.9248 23.995 97.4045 23.6669C96.8874 23.3388 96.4831 22.8797 96.1914 22.2898C95.9031 21.6998 95.7589 21.0104 95.7589 20.2216C95.7589 19.4261 95.9031 18.7318 96.1914 18.1385C96.4831 17.5452 96.8874 17.0845 97.4045 16.7564C97.9248 16.4283 98.5297 16.2642 99.2191 16.2642C99.9085 16.2642 100.512 16.4283 101.029 16.7564C101.549 17.0845 101.953 17.5452 102.242 18.1385C102.533 18.7318 102.679 19.4261 102.679 20.2216C102.679 21.0104 102.533 21.6998 102.242 22.2898C101.953 22.8797 101.549 23.3388 101.029 23.6669C100.512 23.995 99.9085 24.1591 99.2191 24.1591ZM99.2191 23.1051C99.7428 23.1051 100.174 22.9709 100.512 22.7024C100.85 22.4339 101.1 22.081 101.262 21.6435C101.425 21.206 101.506 20.732 101.506 20.2216C101.506 19.7112 101.425 19.2356 101.262 18.7947C101.1 18.3539 100.85 17.9976 100.512 17.7259C100.174 17.4541 99.7428 17.3182 99.2191 17.3182C98.6954 17.3182 98.2646 17.4541 97.9265 17.7259C97.5884 17.9976 97.3382 18.3539 97.1758 18.7947C97.0134 19.2356 96.9322 19.7112 96.9322 20.2216C96.9322 20.732 97.0134 21.206 97.1758 21.6435C97.3382 22.081 97.5884 22.4339 97.9265 22.7024C98.2646 22.9709 98.6954 23.1051 99.2191 23.1051ZM106.718 24.179C106.234 24.179 105.794 24.0878 105.4 23.9055C105.006 23.7199 104.692 23.4531 104.46 23.1051C104.228 22.7538 104.112 22.3295 104.112 21.8324C104.112 21.3949 104.199 21.0402 104.371 20.7685C104.543 20.4934 104.774 20.2779 105.062 20.1222C105.35 19.9664 105.669 19.8504 106.017 19.7741C106.368 19.6946 106.721 19.6316 107.075 19.5852C107.539 19.5256 107.916 19.4808 108.204 19.451C108.496 19.4179 108.708 19.3632 108.84 19.2869C108.976 19.2107 109.044 19.0781 109.044 18.8892V18.8494C109.044 18.3589 108.91 17.9777 108.642 17.706C108.376 17.4342 107.974 17.2983 107.433 17.2983C106.873 17.2983 106.434 17.4209 106.116 17.6662C105.798 17.9115 105.574 18.1733 105.445 18.4517L104.331 18.054C104.53 17.59 104.795 17.2287 105.127 16.9702C105.461 16.7083 105.826 16.526 106.22 16.4233C106.618 16.3172 107.009 16.2642 107.394 16.2642C107.639 16.2642 107.921 16.294 108.239 16.3537C108.56 16.41 108.87 16.5277 109.169 16.7067C109.47 16.8857 109.72 17.1558 109.919 17.517C110.118 17.8783 110.218 18.3622 110.218 18.9688V24H109.044V22.9659H108.985C108.905 23.1316 108.772 23.3089 108.587 23.4979C108.401 23.6868 108.154 23.8475 107.846 23.9801C107.538 24.1127 107.162 24.179 106.718 24.179ZM106.896 23.125C107.36 23.125 107.752 23.0339 108.07 22.8516C108.391 22.6693 108.633 22.4339 108.796 22.1456C108.961 21.8572 109.044 21.554 109.044 21.2358V20.1619C108.994 20.2216 108.885 20.2763 108.716 20.326C108.55 20.3724 108.358 20.4138 108.139 20.4503C107.924 20.4834 107.713 20.5133 107.508 20.5398C107.306 20.563 107.142 20.5829 107.016 20.5994C106.711 20.6392 106.426 20.7038 106.161 20.7933C105.899 20.8795 105.687 21.0104 105.524 21.1861C105.365 21.3584 105.286 21.5937 105.286 21.892C105.286 22.2997 105.436 22.608 105.738 22.8168C106.043 23.0223 106.429 23.125 106.896 23.125ZM115.243 24.1591C114.606 24.1591 114.044 23.9983 113.557 23.6768C113.07 23.352 112.689 22.8946 112.414 22.3047C112.139 21.7114 112.001 21.0104 112.001 20.2017C112.001 19.3996 112.139 18.7036 112.414 18.1136C112.689 17.5237 113.072 17.0679 113.562 16.7464C114.053 16.425 114.619 16.2642 115.262 16.2642C115.76 16.2642 116.152 16.3471 116.441 16.5128C116.732 16.6752 116.954 16.8608 117.107 17.0696C117.263 17.2751 117.384 17.4441 117.47 17.5767H117.569V13.8182H118.743V24H117.609V22.8267H117.47C117.384 22.9659 117.261 23.1416 117.102 23.3537C116.943 23.5625 116.716 23.7498 116.421 23.9155C116.126 24.0779 115.733 24.1591 115.243 24.1591ZM115.402 23.1051C115.872 23.1051 116.27 22.9825 116.595 22.7372C116.92 22.4886 117.167 22.1456 117.336 21.7081C117.505 21.2673 117.589 20.7585 117.589 20.1818C117.589 19.6117 117.506 19.1129 117.341 18.6854C117.175 18.2545 116.93 17.9197 116.605 17.6811C116.28 17.4392 115.879 17.3182 115.402 17.3182C114.904 17.3182 114.49 17.4458 114.159 17.701C113.831 17.9529 113.584 18.2959 113.418 18.7301C113.256 19.161 113.174 19.6449 113.174 20.1818C113.174 20.7254 113.257 21.2192 113.423 21.6634C113.592 22.1042 113.841 22.4555 114.169 22.7173C114.5 22.9759 114.911 23.1051 115.402 23.1051ZM128.094 24.1591C127.405 24.1591 126.8 23.995 126.279 23.6669C125.762 23.3388 125.358 22.8797 125.066 22.2898C124.778 21.6998 124.634 21.0104 124.634 20.2216C124.634 19.4261 124.778 18.7318 125.066 18.1385C125.358 17.5452 125.762 17.0845 126.279 16.7564C126.8 16.4283 127.405 16.2642 128.094 16.2642C128.783 16.2642 129.387 16.4283 129.904 16.7564C130.424 17.0845 130.828 17.5452 131.117 18.1385C131.408 18.7318 131.554 19.4261 131.554 20.2216C131.554 21.0104 131.408 21.6998 131.117 22.2898C130.828 22.8797 130.424 23.3388 129.904 23.6669C129.387 23.995 128.783 24.1591 128.094 24.1591ZM128.094 23.1051C128.618 23.1051 129.049 22.9709 129.387 22.7024C129.725 22.4339 129.975 22.081 130.137 21.6435C130.3 21.206 130.381 20.732 130.381 20.2216C130.381 19.7112 130.3 19.2356 130.137 18.7947C129.975 18.3539 129.725 17.9976 129.387 17.7259C129.049 17.4541 128.618 17.3182 128.094 17.3182C127.57 17.3182 127.14 17.4541 126.801 17.7259C126.463 17.9976 126.213 18.3539 126.051 18.7947C125.888 19.2356 125.807 19.7112 125.807 20.2216C125.807 20.732 125.888 21.206 126.051 21.6435C126.213 22.081 126.463 22.4339 126.801 22.7024C127.14 22.9709 127.57 23.1051 128.094 23.1051ZM134.519 19.4062V24H133.345V16.3636H134.479V17.5568H134.578C134.757 17.169 135.029 16.8575 135.394 16.6222C135.758 16.3835 136.229 16.2642 136.806 16.2642C137.323 16.2642 137.775 16.3703 138.163 16.5824C138.551 16.7912 138.852 17.1094 139.068 17.5369C139.283 17.9612 139.391 18.4981 139.391 19.1477V24H138.218V19.2273C138.218 18.6274 138.062 18.16 137.75 17.8253C137.439 17.4872 137.011 17.3182 136.468 17.3182C136.093 17.3182 135.758 17.3994 135.463 17.5618C135.172 17.7242 134.941 17.9612 134.772 18.2727C134.603 18.5843 134.519 18.9621 134.519 19.4062ZM148.793 16.3636V17.358H144.836V16.3636H148.793ZM145.989 14.5341H147.163V21.8125C147.163 22.1439 147.211 22.3925 147.307 22.5582C147.406 22.7206 147.532 22.83 147.685 22.8864C147.84 22.9394 148.004 22.9659 148.177 22.9659C148.306 22.9659 148.412 22.9593 148.495 22.946C148.578 22.9295 148.644 22.9162 148.694 22.9062L148.933 23.9602C148.853 23.9901 148.742 24.0199 148.599 24.0497C148.457 24.0829 148.276 24.0994 148.058 24.0994C147.726 24.0994 147.401 24.0282 147.083 23.8857C146.768 23.7431 146.506 23.526 146.298 23.2344C146.092 22.9427 145.989 22.5748 145.989 22.1307V14.5341ZM151.896 19.4062V24H150.722V13.8182H151.896V17.5568H151.995C152.174 17.1624 152.442 16.8492 152.8 16.6172C153.162 16.3819 153.642 16.2642 154.242 16.2642C154.763 16.2642 155.218 16.3686 155.609 16.5774C156 16.7829 156.304 17.0994 156.519 17.527C156.738 17.9512 156.847 18.4915 156.847 19.1477V24H155.674V19.2273C155.674 18.6207 155.517 18.1518 155.202 17.8203C154.89 17.4856 154.458 17.3182 153.904 17.3182C153.52 17.3182 153.175 17.3994 152.87 17.5618C152.568 17.7242 152.33 17.9612 152.154 18.2727C151.982 18.5843 151.896 18.9621 151.896 19.4062ZM162.195 24.1591C161.46 24.1591 160.825 23.9967 160.291 23.6719C159.761 23.3438 159.352 22.8864 159.063 22.2997C158.778 21.7098 158.636 21.0237 158.636 20.2415C158.636 19.4593 158.778 18.7699 159.063 18.1733C159.352 17.5734 159.753 17.1061 160.267 16.7713C160.784 16.4332 161.387 16.2642 162.076 16.2642C162.474 16.2642 162.867 16.3305 163.254 16.4631C163.642 16.5956 163.995 16.8111 164.313 17.1094C164.632 17.4044 164.885 17.7955 165.074 18.2827C165.263 18.7699 165.357 19.3698 165.357 20.0824V20.5795H159.471V19.5653H164.164C164.164 19.1345 164.078 18.75 163.906 18.4119C163.737 18.0739 163.495 17.8071 163.18 17.6115C162.868 17.416 162.5 17.3182 162.076 17.3182C161.609 17.3182 161.204 17.4342 160.863 17.6662C160.525 17.8949 160.265 18.1932 160.083 18.5611C159.9 18.929 159.809 19.3234 159.809 19.7443V20.4205C159.809 20.9972 159.909 21.486 160.107 21.8871C160.31 22.2848 160.59 22.5881 160.948 22.7969C161.306 23.0024 161.722 23.1051 162.195 23.1051C162.504 23.1051 162.782 23.062 163.031 22.9759C163.283 22.8864 163.5 22.7538 163.682 22.5781C163.864 22.3991 164.005 22.1771 164.105 21.9119L165.238 22.2301C165.119 22.6146 164.918 22.9527 164.637 23.2443C164.355 23.5327 164.007 23.758 163.593 23.9205C163.178 24.0795 162.713 24.1591 162.195 24.1591ZM57.3026 45H54.4901L59.6108 30.4545H62.8636L67.9915 45H65.179L61.294 33.4375H61.1804L57.3026 45ZM57.3949 39.2969H65.0653V41.4134H57.3949V39.2969ZM69.7937 49.0909V34.0909H72.3221V35.8949H72.4712C72.6038 35.6297 72.7908 35.348 73.0323 35.0497C73.2738 34.7467 73.6005 34.4886 74.0124 34.2756C74.4244 34.0578 74.9499 33.9489 75.5891 33.9489C76.4319 33.9489 77.1919 34.1643 77.869 34.5952C78.5508 35.0213 79.0906 35.6534 79.4883 36.4915C79.8907 37.3248 80.092 38.3475 80.092 39.5597C80.092 40.7576 79.8955 41.7756 79.5025 42.6136C79.1095 43.4517 78.5745 44.0909 77.8974 44.5312C77.2203 44.9716 76.4532 45.1918 75.5962 45.1918C74.9712 45.1918 74.4528 45.0876 74.0408 44.8793C73.6289 44.6709 73.2975 44.42 73.0465 44.1264C72.8003 43.8281 72.6085 43.5464 72.4712 43.2812H72.3647V49.0909H69.7937ZM72.315 39.5455C72.315 40.2509 72.4144 40.8688 72.6133 41.3991C72.8169 41.9295 73.1081 42.3437 73.4869 42.642C73.8704 42.9356 74.3344 43.0824 74.8789 43.0824C75.4471 43.0824 75.9229 42.9309 76.3065 42.6278C76.69 42.3201 76.9788 41.901 77.1729 41.3707C77.3718 40.8357 77.4712 40.2273 77.4712 39.5455C77.4712 38.8684 77.3742 38.267 77.18 37.7415C76.9859 37.2159 76.6971 36.804 76.3136 36.5057C75.93 36.2074 75.4518 36.0582 74.8789 36.0582C74.3297 36.0582 73.8633 36.2027 73.4798 36.4915C73.0962 36.7803 72.805 37.1851 72.6062 37.706C72.4121 38.2268 72.315 38.84 72.315 39.5455ZM82.2937 49.0909V34.0909H84.8221V35.8949H84.9712C85.1038 35.6297 85.2908 35.348 85.5323 35.0497C85.7738 34.7467 86.1005 34.4886 86.5124 34.2756C86.9244 34.0578 87.4499 33.9489 88.0891 33.9489C88.9319 33.9489 89.6919 34.1643 90.369 34.5952C91.0508 35.0213 91.5906 35.6534 91.9883 36.4915C92.3907 37.3248 92.592 38.3475 92.592 39.5597C92.592 40.7576 92.3955 41.7756 92.0025 42.6136C91.6095 43.4517 91.0745 44.0909 90.3974 44.5312C89.7203 44.9716 88.9532 45.1918 88.0962 45.1918C87.4712 45.1918 86.9528 45.0876 86.5408 44.8793C86.1289 44.6709 85.7975 44.42 85.5465 44.1264C85.3003 43.8281 85.1085 43.5464 84.9712 43.2812H84.8647V49.0909H82.2937ZM84.815 39.5455C84.815 40.2509 84.9144 40.8688 85.1133 41.3991C85.3169 41.9295 85.6081 42.3437 85.9869 42.642C86.3704 42.9356 86.8344 43.0824 87.3789 43.0824C87.9471 43.0824 88.4229 42.9309 88.8065 42.6278C89.19 42.3201 89.4788 41.901 89.6729 41.3707C89.8718 40.8357 89.9712 40.2273 89.9712 39.5455C89.9712 38.8684 89.8742 38.267 89.68 37.7415C89.4859 37.2159 89.1971 36.804 88.8136 36.5057C88.43 36.2074 87.9518 36.0582 87.3789 36.0582C86.8297 36.0582 86.3633 36.2027 85.9798 36.4915C85.5962 36.7803 85.305 37.1851 85.1062 37.706C84.9121 38.2268 84.815 38.84 84.815 39.5455ZM107.773 34.4531C107.707 33.8329 107.427 33.3499 106.935 33.0043C106.447 32.6586 105.813 32.4858 105.032 32.4858C104.482 32.4858 104.011 32.5687 103.618 32.7344C103.225 32.9001 102.925 33.125 102.716 33.4091C102.508 33.6932 102.401 34.0175 102.397 34.3821C102.397 34.6851 102.465 34.9479 102.603 35.1705C102.745 35.393 102.936 35.5824 103.178 35.7386C103.419 35.8902 103.687 36.018 103.98 36.1222C104.274 36.2263 104.57 36.3139 104.868 36.3849L106.232 36.7259C106.781 36.8537 107.309 37.0265 107.816 37.2443C108.327 37.4621 108.784 37.7367 109.186 38.0682C109.594 38.3996 109.916 38.7997 110.152 39.2685C110.389 39.7372 110.507 40.2865 110.507 40.9162C110.507 41.7685 110.29 42.5189 109.854 43.1676C109.418 43.8116 108.789 44.3158 107.965 44.6804C107.146 45.0402 106.154 45.2202 104.989 45.2202C103.857 45.2202 102.875 45.045 102.042 44.6946C101.213 44.3442 100.564 43.8329 100.096 43.1605C99.6315 42.4882 99.3806 41.669 99.3427 40.7031H101.935C101.973 41.2098 102.129 41.6312 102.404 41.9673C102.678 42.3035 103.036 42.5545 103.476 42.7202C103.921 42.8859 104.418 42.9688 104.968 42.9688C105.541 42.9688 106.042 42.8835 106.473 42.7131C106.909 42.5379 107.25 42.2964 107.496 41.9886C107.742 41.6761 107.868 41.3116 107.873 40.8949C107.868 40.5161 107.757 40.2036 107.539 39.9574C107.321 39.7064 107.016 39.4981 106.623 39.3324C106.234 39.1619 105.78 39.0104 105.259 38.8778L103.604 38.4517C102.406 38.1439 101.459 37.6776 100.763 37.0526C100.072 36.4228 99.7262 35.5871 99.7262 34.5455C99.7262 33.6884 99.9582 32.938 100.422 32.294C100.891 31.6501 101.528 31.1506 102.333 30.7955C103.138 30.4356 104.049 30.2557 105.067 30.2557C106.099 30.2557 107.004 30.4356 107.78 30.7955C108.561 31.1506 109.175 31.6454 109.62 32.2798C110.065 32.9096 110.294 33.634 110.309 34.4531H107.773ZM118.19 34.0909V36.0795H111.919V34.0909H118.19ZM113.467 31.4773H116.038V41.7188C116.038 42.0644 116.09 42.3295 116.195 42.5142C116.304 42.6941 116.446 42.8172 116.621 42.8835C116.796 42.9498 116.99 42.983 117.203 42.983C117.364 42.983 117.511 42.9711 117.643 42.9474C117.781 42.9238 117.885 42.9025 117.956 42.8835L118.389 44.8935C118.252 44.9408 118.055 44.9929 117.8 45.0497C117.549 45.1065 117.241 45.1397 116.876 45.1491C116.232 45.1681 115.652 45.071 115.136 44.858C114.62 44.6402 114.211 44.304 113.908 43.8494C113.609 43.3949 113.463 42.8267 113.467 42.1449V31.4773ZM124.982 45.2131C123.917 45.2131 122.993 44.9787 122.212 44.5099C121.431 44.0412 120.825 43.3854 120.394 42.5426C119.968 41.6998 119.755 40.715 119.755 39.5881C119.755 38.4612 119.968 37.474 120.394 36.6264C120.825 35.7789 121.431 35.1207 122.212 34.652C122.993 34.1832 123.917 33.9489 124.982 33.9489C126.047 33.9489 126.971 34.1832 127.752 34.652C128.533 35.1207 129.137 35.7789 129.563 36.6264C129.994 37.474 130.209 38.4612 130.209 39.5881C130.209 40.715 129.994 41.6998 129.563 42.5426C129.137 43.3854 128.533 44.0412 127.752 44.5099C126.971 44.9787 126.047 45.2131 124.982 45.2131ZM124.996 43.1534C125.574 43.1534 126.057 42.9948 126.445 42.6776C126.833 42.3556 127.122 41.9247 127.311 41.3849C127.506 40.8452 127.603 40.2438 127.603 39.581C127.603 38.9134 127.506 38.3097 127.311 37.7699C127.122 37.2254 126.833 36.7921 126.445 36.4702C126.057 36.1482 125.574 35.9872 124.996 35.9872C124.404 35.9872 123.912 36.1482 123.519 36.4702C123.131 36.7921 122.839 37.2254 122.645 37.7699C122.456 38.3097 122.361 38.9134 122.361 39.581C122.361 40.2438 122.456 40.8452 122.645 41.3849C122.839 41.9247 123.131 42.3556 123.519 42.6776C123.912 42.9948 124.404 43.1534 124.996 43.1534ZM132.391 45V34.0909H134.884V35.9091H134.998C135.197 35.2794 135.538 34.794 136.021 34.4531C136.508 34.1075 137.065 33.9347 137.69 33.9347C137.832 33.9347 137.99 33.9418 138.165 33.956C138.345 33.9654 138.495 33.982 138.613 34.0057V36.3707C138.504 36.3329 138.331 36.2997 138.094 36.2713C137.862 36.2382 137.638 36.2216 137.42 36.2216C136.951 36.2216 136.53 36.3234 136.156 36.527C135.786 36.7259 135.495 37.0028 135.282 37.358C135.069 37.7131 134.962 38.1226 134.962 38.5866V45H132.391ZM144.701 45.2131C143.608 45.2131 142.663 44.9858 141.868 44.5312C141.077 44.072 140.468 43.4233 140.042 42.5852C139.616 41.7424 139.403 40.7505 139.403 39.6094C139.403 38.4872 139.616 37.5024 140.042 36.6548C140.473 35.8026 141.074 35.1397 141.846 34.6662C142.618 34.188 143.525 33.9489 144.566 33.9489C145.239 33.9489 145.873 34.0578 146.47 34.2756C147.071 34.4886 147.601 34.8201 148.061 35.2699C148.525 35.7197 148.889 36.2926 149.154 36.9886C149.42 37.6799 149.552 38.5038 149.552 39.4602V40.2486H140.61V38.5156H147.088C147.083 38.0232 146.976 37.5852 146.768 37.2017C146.56 36.8134 146.269 36.508 145.895 36.2855C145.525 36.063 145.094 35.9517 144.602 35.9517C144.076 35.9517 143.615 36.0795 143.217 36.3352C142.819 36.5862 142.509 36.9176 142.287 37.3295C142.069 37.7367 141.958 38.1842 141.953 38.6719V40.1847C141.953 40.8191 142.069 41.3636 142.301 41.8182C142.533 42.268 142.857 42.6136 143.274 42.8551C143.69 43.0919 144.178 43.2102 144.737 43.2102C145.111 43.2102 145.449 43.1581 145.752 43.054C146.056 42.9451 146.318 42.7865 146.541 42.5781C146.763 42.3698 146.931 42.1117 147.045 41.804L149.446 42.0739C149.294 42.7083 149.005 43.2623 148.579 43.7358C148.158 44.2045 147.618 44.5691 146.96 44.8295C146.302 45.0852 145.549 45.2131 144.701 45.2131Z" fill="black"/>
<defs>
<clipPath id="clip0_56_458">
<rect width="36" height="36" fill="white" transform="translate(9 12)"/>
</clipPath>
</defs>
</svg>
