<svg xmlns="http://www.w3.org/2000/svg" viewBox="0 0 500 367.32"><defs><style>.cls-1{fill:#ebebeb;}.cls-2{fill:#f5f5f5;}.cls-3{fill:#f0f0f0;}.cls-4{fill:#fafafa;}.cls-5{fill:#6aa9ff;}.cls-15,.cls-16,.cls-6,.cls-8{fill:#fff;}.cls-6{opacity:0.8;}.cls-12,.cls-14,.cls-15,.cls-16,.cls-6{isolation:isolate;}.cls-14,.cls-15,.cls-7{opacity:0.3;}.cls-9{fill:#263238;}.cls-10{fill:#ffb573;}.cls-11,.cls-12{opacity:0.2;}.cls-13{fill:#ed893e;}.cls-16{opacity:0.7;}</style></defs><g id="Layer_2" data-name="Layer 2"><g id="Layer_1-2" data-name="Layer 1"><g id="freepik--background-complete--inject-97"><rect class="cls-1" y="327.46" width="500" height="0.25"/><rect class="cls-1" x="52.46" y="336.98" width="33.12" height="0.25"/><rect class="cls-1" x="136.33" y="334.27" width="43.5" height="0.25"/><rect class="cls-1" x="81.58" y="342.15" width="38.75" height="0.25"/><rect class="cls-1" x="406.71" y="344.59" width="43.19" height="0.25"/><rect class="cls-1" x="379" y="344.59" width="18.8" height="0.25"/><rect class="cls-1" x="238.44" y="340.37" width="36.56" height="0.25"/><path class="cls-1" d="M237,282.86H43.91a5.71,5.71,0,0,1-5.7-5.71V5.71A5.72,5.72,0,0,1,43.91,0H237a5.72,5.72,0,0,1,5.72,5.71V277.15a5.71,5.71,0,0,1-5.71,5.71ZM43.91.26a5.46,5.46,0,0,0-5.45,5.45V277.15a5.46,5.46,0,0,0,5.45,5.46H237a5.48,5.48,0,0,0,5.46-5.46V5.71A5.47,5.47,0,0,0,237,.26Z"/><path class="cls-1" d="M453.31,282.86H260.21a5.73,5.73,0,0,1-5.71-5.71V5.71A5.73,5.73,0,0,1,260.21,0h193.1A5.73,5.73,0,0,1,459,5.71V277.15A5.7,5.7,0,0,1,453.31,282.86ZM260.21.26a5.47,5.47,0,0,0-5.46,5.45V277.15a5.48,5.48,0,0,0,5.46,5.46h193.1a5.48,5.48,0,0,0,5.46-5.46V5.71A5.48,5.48,0,0,0,453.31.25Z"/><path class="cls-1" d="M428.92,249.71l.84,1.71a.73.73,0,0,0,.52.38l1.89.27a.69.69,0,0,1,.38,1.17l-1.37,1.33a.67.67,0,0,0-.2.6l.32,1.89a.68.68,0,0,1-1,.72l-1.69-.89a.64.64,0,0,0-.63,0l-1.69.89a.69.69,0,0,1-.93-.29.7.7,0,0,1-.07-.43l.33-1.89a.67.67,0,0,0-.2-.6l-1.37-1.33a.69.69,0,0,1,.38-1.17l1.89-.27a.75.75,0,0,0,.52-.38l.84-1.71a.7.7,0,0,1,.92-.32A.71.71,0,0,1,428.92,249.71Z"/><path class="cls-1" d="M60.71,256.48l.85,1.72a.68.68,0,0,0,.51.37l1.89.27a.69.69,0,0,1,.38,1.17L63,261.34a.69.69,0,0,0-.19.61l.32,1.88a.68.68,0,0,1-1,.72l-1.71-.84a.72.72,0,0,0-.64,0l-1.69.89a.69.69,0,0,1-.93-.26.73.73,0,0,1-.07-.46l.32-1.88a.69.69,0,0,0-.19-.61l-1.37-1.33a.69.69,0,0,1,.38-1.17l1.89-.27a.68.68,0,0,0,.51-.37l.85-1.72a.67.67,0,0,1,.89-.36A.65.65,0,0,1,60.71,256.48Z"/><path class="cls-2" d="M63.93,109.34l.85,1.71a.68.68,0,0,0,.51.37l1.89.28a.69.69,0,0,1,.58.77.67.67,0,0,1-.2.39l-1.37,1.33a.73.73,0,0,0-.2.61l.33,1.88a.68.68,0,0,1-1,.72l-1.69-.89a.72.72,0,0,0-.64,0l-1.69.89a.69.69,0,0,1-.93-.26.73.73,0,0,1-.07-.46l.32-1.88a.7.7,0,0,0-.2-.61l-1.36-1.33a.67.67,0,0,1,0-1,.62.62,0,0,1,.38-.2l1.9-.28a.68.68,0,0,0,.51-.37l.84-1.71a.69.69,0,0,1,.92-.33A.7.7,0,0,1,63.93,109.34Z"/><path class="cls-2" d="M171.75,42.19l.84,1.72a.69.69,0,0,0,.52.37l1.89.28a.69.69,0,0,1,.58.77.67.67,0,0,1-.2.39L174,47.05a.7.7,0,0,0-.2.61l.33,1.88a.69.69,0,0,1-.57.79.7.7,0,0,1-.43-.07l-1.69-.89a.7.7,0,0,0-.63,0l-1.69.89a.69.69,0,0,1-.93-.26.73.73,0,0,1-.07-.46l.32-1.88a.7.7,0,0,0-.2-.61l-1.35-1.34a.68.68,0,0,1,0-1,.64.64,0,0,1,.39-.2l1.89-.28a.69.69,0,0,0,.52-.37l.84-1.72a.68.68,0,0,1,.93-.29A.67.67,0,0,1,171.75,42.19Z"/><path class="cls-1" d="M92.19,25.12l.5,1a.42.42,0,0,0,.31.22l1.13.17a.41.41,0,0,1,.34.47.39.39,0,0,1-.11.22l-.82.8a.4.4,0,0,0-.12.36l.19,1.13a.41.41,0,0,1-.34.47.43.43,0,0,1-.25,0l-1-.53a.37.37,0,0,0-.38,0l-1,.53a.41.41,0,0,1-.57-.1.38.38,0,0,1-.07-.31l.19-1.13a.4.4,0,0,0-.12-.36l-.81-.8a.41.41,0,0,1,0-.57.42.42,0,0,1,.24-.12l1.13-.17a.42.42,0,0,0,.31-.22l.5-1a.41.41,0,0,1,.52-.26A.42.42,0,0,1,92.19,25.12Z"/><path class="cls-1" d="M118,166.41l.51,1a.41.41,0,0,0,.31.23l1.13.16a.41.41,0,0,1,.34.47.4.4,0,0,1-.12.23l-.81.79a.4.4,0,0,0-.12.36l.19,1.13a.41.41,0,0,1-.34.47.43.43,0,0,1-.25,0l-1-.53a.42.42,0,0,0-.38,0l-1,.53a.41.41,0,0,1-.55-.18.43.43,0,0,1,0-.25l.19-1.13a.4.4,0,0,0-.12-.36l-.82-.79a.41.41,0,0,1,0-.58.39.39,0,0,1,.24-.12l1.13-.16a.43.43,0,0,0,.31-.23l.5-1a.41.41,0,0,1,.56-.15A.54.54,0,0,1,118,166.41Z"/><path class="cls-2" d="M278.2,58.45l.5,1a.42.42,0,0,0,.31.22l1.13.16a.41.41,0,0,1,.34.47.4.4,0,0,1-.12.23l-.81.8a.4.4,0,0,0-.12.36l.19,1.12a.39.39,0,0,1-.31.47.4.4,0,0,1-.28,0l-1-.53a.42.42,0,0,0-.38,0l-1,.53a.41.41,0,0,1-.55-.15.44.44,0,0,1,0-.28l.19-1.12a.4.4,0,0,0-.12-.36l-.82-.8a.41.41,0,0,1,0-.58.39.39,0,0,1,.24-.12l1.13-.16a.42.42,0,0,0,.31-.22l.5-1a.42.42,0,0,1,.58-.14A.38.38,0,0,1,278.2,58.45Z"/><path class="cls-1" d="M439.72,42.63l.5,1a.42.42,0,0,0,.31.22l1.13.17a.41.41,0,0,1,.34.47.39.39,0,0,1-.11.22l-.82.8a.4.4,0,0,0-.12.36l.19,1.13a.41.41,0,0,1-.34.47.43.43,0,0,1-.25,0l-1-.53a.37.37,0,0,0-.38,0l-1,.53a.41.41,0,0,1-.55-.18.43.43,0,0,1,0-.25l.19-1.13a.4.4,0,0,0-.12-.36l-.81-.8a.41.41,0,0,1,0-.57.42.42,0,0,1,.24-.12l1.13-.17a.42.42,0,0,0,.31-.22l.5-1a.41.41,0,0,1,.56-.16A.35.35,0,0,1,439.72,42.63Z"/><path class="cls-1" d="M411.71,158.35l.5,1a.42.42,0,0,0,.31.22l1.13.16a.41.41,0,0,1,.35.46.37.37,0,0,1-.12.24l-.82.8a.4.4,0,0,0-.12.36l.2,1.12a.4.4,0,0,1-.33.47.41.41,0,0,1-.27,0l-1-.53a.42.42,0,0,0-.38,0l-1,.53a.41.41,0,0,1-.55-.15.44.44,0,0,1,0-.28l.19-1.12a.4.4,0,0,0-.12-.36l-.81-.8a.41.41,0,0,1,0-.58.4.4,0,0,1,.23-.12l1.13-.16a.42.42,0,0,0,.31-.22l.51-1a.41.41,0,0,1,.56-.15A.54.54,0,0,1,411.71,158.35Z"/><circle class="cls-1" cx="291.78" cy="28.76" r="1.33"/><circle class="cls-1" cx="115.01" cy="74.52" r="1.33"/><circle class="cls-1" cx="369.88" cy="305.11" r="1.33"/><circle class="cls-2" cx="392" cy="100.78" r="1.33"/><path class="cls-2" d="M125.58,211a1.33,1.33,0,1,1-1.33-1.33h0a1.32,1.32,0,0,1,1.33,1.31Z"/><circle class="cls-3" cx="350.12" cy="38.92" r="28.53"/><path class="cls-4" d="M350.52,59.44A6.48,6.48,0,0,0,355,56.26a16.22,16.22,0,0,1-4.79,1.61,16.52,16.52,0,0,1-5.06.12A6.45,6.45,0,0,0,350.52,59.44Z"/><path class="cls-4" d="M334.64,48.45a6.48,6.48,0,0,0,4.54,3.14,17.11,17.11,0,0,1-5-8.64A6.51,6.51,0,0,0,334.64,48.45Z"/><path class="cls-4" d="M333.47,28.54a6.43,6.43,0,0,0-1.56,5.29,16.25,16.25,0,0,1,2.75-4.24,16.77,16.77,0,0,1,3.88-3.24A6.46,6.46,0,0,0,333.47,28.54Z"/><path class="cls-4" d="M352.55,17a6.47,6.47,0,0,0-5.39,1.18,16.48,16.48,0,0,1,5,.37,16.75,16.75,0,0,1,4.71,1.85A6.43,6.43,0,0,0,352.55,17Z"/><path class="cls-4" d="M361.49,49.94A6.46,6.46,0,0,0,364,45a16.26,16.26,0,0,1-3.46,3.71,16.52,16.52,0,0,1-4.4,2.5A6.45,6.45,0,0,0,361.49,49.94Z"/><path class="cls-4" d="M356.05,39.44a6.46,6.46,0,0,0,2.47-4.94,16.17,16.17,0,0,1-3.46,3.69,16.91,16.91,0,0,1-4.39,2.5A6.46,6.46,0,0,0,356.05,39.44Z"/><path class="cls-4" d="M374.39,34.49A6.49,6.49,0,0,0,371,30.11a17,17,0,0,1,2.13,9.77A6.49,6.49,0,0,0,374.39,34.49Z"/></g><g id="freepik--Shadow--inject-97"><ellipse id="freepik--path--inject-97" class="cls-2" cx="250" cy="361.3" rx="103.13" ry="6.02"/></g><g id="freepik--Clouds--inject-97"><path class="cls-5" d="M170,108.13a5,5,0,0,0-7-1.25,3.87,3.87,0,0,0-.45.35,6,6,0,0,0-1.35,1.67,6,6,0,0,0-6.76.82,7.38,7.38,0,0,0-1.91,8.48,6.36,6.36,0,0,0-.76,8.15l.26.33h0a3,3,0,0,0-.48,3.9,2.41,2.41,0,0,0,3.36.62l.23-.17,18.33-15.55a4.52,4.52,0,0,0,.73-6A3.7,3.7,0,0,0,170,108.13Z"/><path class="cls-6" d="M170,108.13a5,5,0,0,0-7-1.25,3.87,3.87,0,0,0-.45.35,6,6,0,0,0-1.35,1.67,6,6,0,0,0-6.76.82,7.38,7.38,0,0,0-1.91,8.48,6.36,6.36,0,0,0-.76,8.15l.26.33h0a3,3,0,0,0-.48,3.9,2.41,2.41,0,0,0,3.36.62l.23-.17,18.33-15.55a4.52,4.52,0,0,0,.73-6A3.7,3.7,0,0,0,170,108.13Z"/><path class="cls-5" d="M117.34,267.71a6.56,6.56,0,0,0-3.32,9.2,7.6,7.6,0,0,0,1.74,2.2,7.9,7.9,0,0,0-.94,8.87,9.69,9.69,0,0,0,10.26,4.93,8.33,8.33,0,0,0,10.17,3.34l.49-.23h0a3.85,3.85,0,0,0,4.83,1.75,3.18,3.18,0,0,0,1.78-4.12c0-.11-.1-.22-.16-.33l-14.45-27.93a5.9,5.9,0,0,0-7.39-2.67A4.82,4.82,0,0,0,117.34,267.71Z"/><path class="cls-6" d="M117.34,267.71a6.56,6.56,0,0,0-3.32,9.2,7.6,7.6,0,0,0,1.74,2.2,7.9,7.9,0,0,0-.94,8.87,9.69,9.69,0,0,0,10.26,4.93,8.33,8.33,0,0,0,10.17,3.34l.49-.23h0a3.85,3.85,0,0,0,4.83,1.75,3.18,3.18,0,0,0,1.78-4.12c0-.11-.1-.22-.16-.33l-14.45-27.93a5.9,5.9,0,0,0-7.39-2.67A4.82,4.82,0,0,0,117.34,267.71Z"/><path class="cls-5" d="M386.25,172.17a1.14,1.14,0,0,0,.26-.09,4.46,4.46,0,0,0,2.35-5.84q-.11-.24-.24-.48a6.12,6.12,0,0,0-.54-.79,10.67,10.67,0,0,0,1.93-13.1,12.59,12.59,0,0,0-5.1-5,11.17,11.17,0,0,0-.24-10.66,13.38,13.38,0,0,0-8.83-6.48,4.55,4.55,0,0,0-.47-3.15,5.44,5.44,0,0,0-6.87-2.27,4.58,4.58,0,0,0-2.09,1.85,11.7,11.7,0,0,0-10.81-.77A9.6,9.6,0,0,0,351.05,139l20.77,37.46a8.3,8.3,0,0,0,10.49,3.46A6.8,6.8,0,0,0,386.25,172.17Z"/><path class="cls-6" d="M386.25,172.17a1.14,1.14,0,0,0,.26-.09,4.46,4.46,0,0,0,2.35-5.84q-.11-.24-.24-.48a6.12,6.12,0,0,0-.54-.79,10.67,10.67,0,0,0,1.93-13.1,12.59,12.59,0,0,0-5.1-5,11.17,11.17,0,0,0-.24-10.66,13.38,13.38,0,0,0-8.83-6.48,4.55,4.55,0,0,0-.47-3.15,5.44,5.44,0,0,0-6.87-2.27,4.58,4.58,0,0,0-2.09,1.85,11.7,11.7,0,0,0-10.81-.77A9.6,9.6,0,0,0,351.05,139l20.77,37.46a8.3,8.3,0,0,0,10.49,3.46A6.8,6.8,0,0,0,386.25,172.17Z"/></g><g id="freepik--World--inject-97"><path class="cls-5" d="M139.51,241.84a112.86,112.86,0,0,1-2.16-22h.94a112.3,112.3,0,0,0,2.15,21.87Z"/><path class="cls-5" d="M355.08,184.34a112.07,112.07,0,0,0-4.79-11.88l.86-.41a112.17,112.17,0,0,1,4.83,12Z"/><path class="cls-5" d="M348.28,168.43a111.59,111.59,0,0,0-11.23-17.35l.74-.58A112.72,112.72,0,0,1,349.12,168Z"/><path class="cls-5" d="M138.46,213.71l-1-.06c.15-2.58.38-5.17.69-7.71l.94.12C138.83,208.6,138.6,211.18,138.46,213.71Z"/><circle class="cls-5" cx="249.59" cy="219.84" r="108.93"/><g class="cls-7"><path class="cls-8" d="M162.11,169.13q-1.11-5.94-2-11.47a108.88,108.88,0,0,0-11.49,21.13C155.34,175.49,162.1,169.11,162.11,169.13Z"/><path class="cls-8" d="M182.39,293.15c2.57-3.5,4.4-6.87,3.26-10.37s-14.29-7.36-14.22-7.37q-4.6-2.88-9.1-5.84a10.42,10.42,0,0,0-3-7.23,9.6,9.6,0,0,0-7.42-2.38q-3.54-4.77-6.9-9.61a109,109,0,0,0,36.75,54.71C182.3,303.71,184.42,298,182.39,293.15Z"/><path class="cls-8" d="M178.51,142.43l3.77,1.81c2.54-4.53,5.12-8.8,7.73-12.74,7.65-3.48,15.33-6.68,22.86-9.55.94-2,1.89-3.92,2.83-5.65a108.59,108.59,0,0,0-37.32,21.12C178.41,139.05,178.44,140.71,178.51,142.43Z"/><path class="cls-8" d="M214.86,137c4.12.37,6.93-5.13,6.92-5.07q-.9-1.8-1.77-3.51-5.76,1.71-11.56,3.55C208.43,131.94,210.73,136.56,214.86,137Z"/><path class="cls-8" d="M238.84,163.71q-2.7-5.21-5.28-10.12c-.76-2-1.5-3.92-2.24-5.82-1,1.57-2.1,3.17-3.15,4.79l3.69,5.56q-1.12,4.94-2.26,10.13Q234.24,165.9,238.84,163.71Z"/><path class="cls-8" d="M223.09,158.93c-.4,2.29-.81,4.63-1.2,7l5.21-2.44c.8-1.62,1.59-3.23,2.39-4.81l-3.05-2.09Z"/><path class="cls-8" d="M300.19,123.36l-4.2.56c-3.08,2.07-6.33,4.34-9.75,6.78q-.25,2-.54,4.14l-3.61.22q-3.64-3.9-7.18-7.41l5.93.85,3.1.11c.15-.85.3-1.68.45-2.5-6.31-2.8-12.52-5.36-18.53-7.65-3.07,1.37-6.25,2.85-9.51,4.43-2.23,4-4.63,8.57-7.13,13.58q-2.64,1.54-5.31,3.15c0,2.81.08,5.75.13,8.79q5.72,2.73,11.56,5.62,2.13-2.16,4.22-4.24-.42-5.16-.84-9.89c1.57-3.33,3.08-6.49,4.52-9.44l4.47-.07c-1.26,2.13-2.56,4.36-3.9,6.71q.48,3.33,1,6.92l3.13,1.78c0,.49-.07,1-.11,1.49l-1.46,1.94,1.75,3c-.26.7-.53,1.4-.79,2.11.12,1.09.24,2.19.37,3.3l-11.35,1c-2.13-2.11-4.24-4.19-6.33-6.21l-2.08.46q.24,3.47.51,7.08l-5.57,2.29q-2.88,2.87-5.79,5.82-3.43,1.89-6.87,3.83l4.52,5.4q-.12,3-.22,6.11c-3.61.17-7.21.36-10.79.55q-.57,4.58-1.11,9.24c.29,2.19.58,4.4.87,6.61l5.69,2.42,7.67-5.87q2.43-5.84,4.84-11.56l3.13-1.59,5.43.47q4.56,3.8,9.15,7.67c.23,1.5.47,3,.71,4.52l1.9-.64c.31-1.67.62-3.33.92-5l-6.85-7.81,2-.7,7.23,5q1.41,5,2.82,10.13c1.42,1.51,2.83,3,4.25,4.55l2.81-3.71q-1.92-2.52-3.85-5l4.56-2.53q.52,3.2,1,6.43l6,7.15,8.06,3v3.9l-4,1.13h-7.68l-9.25-3.28-2.46.81v3.77c-5.2-4.53-10.43-9.08-15.65-13.58-7.31,1.57-14.64,3.15-21.92,4.75L227,205.71c-1.74,1.74-3.47,3.49-5.19,5.23-.28,1.53-.55,3.05-.82,4.58q-5.84,7.6-11.47,15.09c.09,6,.23,12,.42,17.82,4.84,5.54,9.72,11,14.55,16.26q8.65-1.44,17.47-3,5.65,2.52,11.22,4.95-.81,3.76-1.62,7.4c1.75,2.42,3.46,4.78,5.16,7.08q1.45,6,2.81,11.5c-1.53,2.35-3,4.61-4.52,6.76,1.14,2.7,2.24,5.25,3.29,7.62,1.66,5,3.16,9.23,4.45,12.48,3.33-.27,6.67-.56,10-.88,3-2,6-4.24,9.13-6.78.85-.9,1.71-1.83,2.57-2.79l2.6-.48c0-1.75.05-3.6,0-5.55,3-1.9,6-3.9,9.06-6,.34-5.38.54-11.33.62-17.72,5-4.82,10-9.86,15-15,1.88-4.18,3.73-8.47,5.53-12.82q-5.26,1.23-10.67,2.45c-5.39-10.57-11.36-21.8-17.59-33.2l2.94-2.12,2.53-.33c3.95,7.35,7.78,14.63,11.39,21.71q.57,4.32,1.06,8.55,7-3.48,13.89-7,4.57-5.62,9-11.25c-1.7-2.21-3.44-4.45-5.22-6.7h-5.46q-4.63-4.33-9.47-8.76l4.72-2.24q4.62,4.14,9.19,8.14l16.85,2.23q2.82,4.31,5.46,8.53l2.81-.83q.71,4.55,1.31,9,1.78,7.11,3.21,13.86a109,109,0,0,0-53-130.15Z"/><path class="cls-8" d="M309.46,296.79c.33-1.61.65-3.28,1-5-2.87,2.31-5.75,4.55-8.61,6.69-1.07,3-2.17,5.88-3.28,8.5l.65,1.82,3.18-.2C304.74,305.07,307.12,301.1,309.46,296.79Z"/></g><path class="cls-8" d="M147.33,179.71a.23.23,0,0,1-.21-.13.24.24,0,0,1,.1-.32,62.8,62.8,0,0,0,13.17-9.43l.12-.11c-.71-3.81-1.36-7.63-1.93-11.34a.23.23,0,0,1,.23-.25.23.23,0,0,1,.24.17c.57,3.76,1.23,7.62,1.95,11.47a.23.23,0,0,1-.09.23l-.21.19a63.75,63.75,0,0,1-13.27,9.5A.18.18,0,0,1,147.33,179.71Z"/><path class="cls-8" d="M180.4,306h-.08a.23.23,0,0,1-.14-.29h0c.82-2.05,2.53-7.29.65-11.74a.24.24,0,0,1,0-.23c2.35-3.2,4.37-6.64,3.23-10.15-.66-1.94-5.68-4.54-13.77-7.12l-.35-.13h0c-3.06-1.91-6.12-3.88-9.1-5.85h0a.27.27,0,0,1-.11-.22,10.09,10.09,0,0,0-2.94-7,9.33,9.33,0,0,0-7.21-2.32.24.24,0,0,1-.23-.09h0c-2.31-3.11-4.64-6.34-6.91-9.62a.24.24,0,0,1,.06-.33.25.25,0,0,1,.33.06c2.24,3.24,4.54,6.43,6.82,9.5a9.74,9.74,0,0,1,7.47,2.46,10.57,10.57,0,0,1,3.08,7.27c2.94,1.93,6,3.87,9,5.76l.26.09c4.84,1.54,13.11,4.56,14.08,7.42,1.2,3.67-.82,7.2-3.22,10.47,1.87,4.58.15,9.89-.69,12A.25.25,0,0,1,180.4,306Z"/><path class="cls-8" d="M180.93,145.15h-.1l-3.76-1.8a.25.25,0,0,1-.14-.2c-.06-1.51-.1-3.11-.13-5a.23.23,0,0,1,.22-.24h0a.23.23,0,0,1,.23.23c0,1.86.07,3.41.13,4.87l3.44,1.65c2.54-4.52,5.11-8.75,7.63-12.56a.22.22,0,0,1,.1-.09c7.58-3.44,15.24-6.64,22.79-9.52.92-2,1.86-3.87,2.79-5.57a.24.24,0,0,1,.3-.16.25.25,0,0,1,.16.31.22.22,0,0,1,0,.08c-.93,1.71-1.88,3.61-2.81,5.63a.37.37,0,0,1-.13.12c-7.55,2.88-15.21,6.08-22.79,9.52-2.54,3.84-5.13,8.1-7.69,12.67A.24.24,0,0,1,180.93,145.15Z"/><path class="cls-8" d="M213.91,138h-.42c-4-.46-6.34-4.68-6.59-5.16h0a.23.23,0,0,1,.11-.3h.05c3.83-1.22,7.71-2.41,11.55-3.54a.24.24,0,0,1,.28.12c.57,1.13,1.17,2.3,1.77,3.5a.28.28,0,0,1,0,.25h0C219.9,134.05,217.38,138,213.91,138Zm-.37-.49c3.37.29,5.9-3.59,6.63-4.85q-.82-1.65-1.62-3.21c-3.69,1.09-7.42,2.23-11.1,3.4.55,1,2.68,4.27,6.09,4.66Z"/><path class="cls-8" d="M228.26,169.11a.21.21,0,0,1-.15-.05.22.22,0,0,1-.08-.23c.72-3.32,1.47-6.7,2.24-10-1.24-1.85-2.45-3.68-3.64-5.47a.24.24,0,0,1,0-.26c1.06-1.62,2.12-3.22,3.16-4.79a.21.21,0,0,1,.23-.1.23.23,0,0,1,.19.15l2.24,5.82c1.71,3.24,3.47,6.62,5.27,10.09a.26.26,0,0,1-.12.32c-3,1.48-6.16,3-9.25,4.54Zm-1.15-15.92,3.61,5.43a.28.28,0,0,1,0,.18c-.74,3.21-1.46,6.45-2.16,9.65,2.88-1.43,5.76-2.84,8.59-4.22-1.76-3.39-3.49-6.7-5.17-9.9-.71-1.85-1.4-3.65-2.09-5.41Z"/><path class="cls-8" d="M220.54,166.84h-.14a.23.23,0,0,1-.09-.23c.4-2.37.8-4.71,1.21-7a.26.26,0,0,1,.09-.16l3.35-2.33a.26.26,0,0,1,.27,0l3,2,.09.06a.22.22,0,0,1,.08.3c-.8,1.58-1.59,3.19-2.39,4.81a.25.25,0,0,1-.12.11l-5.21,2.44Zm1.46-7.13c-.38,2.12-.75,4.28-1.12,6.46l4.73-2.2q1.14-2.31,2.26-4.56l-2.74-1.88Z"/><path class="cls-8" d="M261.4,320.36a.24.24,0,0,1-.22-.15c-1.26-3.18-2.76-7.38-4.45-12.49-1.05-2.37-2.16-4.93-3.28-7.61a.22.22,0,0,1,0-.22c1.47-2.15,3-4.39,4.47-6.67-.89-3.58-1.82-7.38-2.78-11.35-1.69-2.3-3.42-4.67-5.13-7.05a.21.21,0,0,1,0-.19c.52-2.35,1-4.76,1.58-7.21-3.61-1.57-7.3-3.2-11-4.84-5.91,1-11.77,2-17.4,3a.21.21,0,0,1-.21-.07c-4.82-5.25-9.71-10.72-14.56-16.26a.47.47,0,0,1-.06-.15c-.19-5.79-.33-11.79-.42-17.83a.24.24,0,0,1,.05-.14c3.74-5,7.59-10,11.43-15l.81-4.52a.24.24,0,0,1,.07-.12c1.72-1.75,3.45-3.49,5.19-5.24h.07l3.42-1.48c7.35-1.61,14.73-3.21,22-4.76a.23.23,0,0,1,.21,0c5,4.33,10.14,8.79,15.25,13.24V210a.24.24,0,0,1,.16-.23l2.46-.81a.19.19,0,0,1,.15,0l9.22,3.27H286l3.8-1.07v-3.55l-7.91-2.9-.1-.07-6-7.16a.24.24,0,0,1-.06-.11c-.32-2-.65-4.08-1-6.1l-4,2.23,3.68,4.81a.24.24,0,0,1,0,.28l-2.81,3.72a.24.24,0,0,1-.18.09.21.21,0,0,1-.18-.07L267,197.78a.31.31,0,0,1-.05-.1c-.93-3.37-1.87-6.73-2.8-10-2.36-1.65-4.71-3.29-7.06-4.9l-1.58.55q3.3,3.73,6.62,7.55a.25.25,0,0,1,.05.19c-.3,1.66-.61,3.32-.92,5a.23.23,0,0,1-.15.18l-1.91.65a.23.23,0,0,1-.2,0,.21.21,0,0,1-.11-.16l-.69-4.43-9-7.57-5.28-.46-3,1.52c-1.59,3.79-3.2,7.62-4.8,11.48a.36.36,0,0,1-.07.1l-7.68,5.87a.25.25,0,0,1-.24,0l-5.77-2.54a.24.24,0,0,1-.14-.18c-.29-2.22-.58-4.42-.86-6.62.36-3.16.73-6.25,1.1-9.3a.23.23,0,0,1,.22-.2l10.58-.55c.07-1.94.13-3.88.21-5.79l-4.53-5.27a.24.24,0,0,1-.06-.2.22.22,0,0,1,.12-.16q3.44-1.94,6.84-3.82,2.91-2.94,5.77-5.79a.14.14,0,0,1,.08-.05c1.81-.75,3.61-1.5,5.41-2.23-.17-2.35-.34-4.66-.5-6.91a.22.22,0,0,1,.18-.25l2.09-.46a.23.23,0,0,1,.22.06c2.06,2,4.17,4.07,6.25,6.14,3.67-.35,7.37-.69,11-1-.11-1-.23-2-.34-3.06V155l.75-2c-.56-1-1.12-2-1.69-2.92a.24.24,0,0,1,0-.26l1.42-1.88.09-1.28-3-1.7a.28.28,0,0,1-.12-.18q-.48-3.57-1-6.92a.38.38,0,0,1,0-.15c1.26-2.19,2.5-4.33,3.68-6.35l-3.89.07c-1.39,2.85-2.88,6-4.43,9.24.28,3.17.56,6.48.83,9.83a.23.23,0,0,1-.07.19l-4.22,4.24a.23.23,0,0,1-.27,0c-3.83-1.89-7.72-3.78-11.56-5.61a.23.23,0,0,1-.13-.21c-.05-3-.1-6-.13-8.79a.26.26,0,0,1,.11-.21q2.66-1.59,5.25-3.11c2.54-5.07,4.93-9.62,7.11-13.54a.22.22,0,0,1,.1-.09c3.22-1.56,6.42-3,9.52-4.43a.28.28,0,0,1,.18,0c6,2.29,12.26,4.86,18.54,7.66a.24.24,0,0,1,.14.26q-.22,1.22-.45,2.49a.26.26,0,0,1-.25.2l-3.09-.11-5.25-.76c2.15,2.15,4.37,4.44,6.6,6.84l3.31-.2c.18-1.35.35-2.67.51-3.94a.27.27,0,0,1,.1-.17c3.42-2.44,6.7-4.73,9.76-6.78a.17.17,0,0,1,.1,0l4.19-.56a.24.24,0,0,1,.27.21h0a.23.23,0,0,1-.2.26h0l-4.14.55c-3,2-6.25,4.28-9.62,6.69-.17,1.3-.34,2.65-.53,4a.24.24,0,0,1-.22.21l-3.61.22a.32.32,0,0,1-.19-.07c-2.43-2.61-4.84-5.11-7.17-7.41a.22.22,0,0,1,0-.27.2.2,0,0,1,.24-.13c2,.27,4,.56,5.93.85l2.87.1c.13-.72.26-1.42.38-2.11-6.18-2.75-12.32-5.29-18.25-7.54-3,1.36-6.2,2.82-9.35,4.35-2.18,3.91-4.56,8.45-7.09,13.51l-.1.1q-2.56,1.5-5.19,3.08c0,2.72.08,5.56.13,8.5,3.75,1.79,7.54,3.63,11.28,5.48,1.33-1.37,2.67-2.7,4-4-.27-3.34-.55-6.63-.83-9.78a.24.24,0,0,1,0-.12c1.57-3.36,3.1-6.54,4.52-9.44a.23.23,0,0,1,.21-.13l4.46-.08a.45.45,0,0,1,.21.12.26.26,0,0,1,0,.24c-1.24,2.1-2.54,4.34-3.86,6.63.31,2.17.63,4.42.94,6.73l3,1.73a.22.22,0,0,1,.12.22l-.1,1.49a.29.29,0,0,1-.05.13L265.41,150c.56.95,1.11,1.91,1.67,2.89a.23.23,0,0,1,0,.2l-.77,2.06c.12,1.07.24,2.14.36,3.23a.24.24,0,0,1-.05.18.21.21,0,0,1-.16.08c-3.74.33-7.55.69-11.35,1.05a.23.23,0,0,1-.19-.07c-2.07-2.06-4.17-4.12-6.23-6.12l-1.76.39c.16,2.24.32,4.54.49,6.88a.22.22,0,0,1-.15.23l-5.52,2.28c-1.9,1.89-3.82,3.82-5.75,5.77h-.06l-6.62,3.7,4.41,5.12a.43.43,0,0,1,0,.16c-.07,2-.15,4.06-.21,6.11a.24.24,0,0,1-.23.22l-10.59.55q-.55,4.5-1.08,9c.27,2.09.56,4.25.84,6.42l5.44,2.31,7.52-5.75q2.4-5.81,4.81-11.5a.25.25,0,0,1,.11-.12l3.13-1.59a.15.15,0,0,1,.13,0l5.43.47a.21.21,0,0,1,.13,0q4.56,3.79,9.15,7.67a.28.28,0,0,1,.08.15l.66,4.24,1.51-.51q.45-2.39.87-4.74-3.39-3.9-6.77-7.72a.28.28,0,0,1,0-.22.22.22,0,0,1,.15-.16l2-.71a.26.26,0,0,1,.21,0l7.23,5a.2.2,0,0,1,.09.13q1.41,5,2.81,10.07l4,4.31,2.53-3.35c-1.24-1.63-2.49-3.25-3.74-4.88a.21.21,0,0,1,0-.19.28.28,0,0,1,.12-.16l4.55-2.53a.22.22,0,0,1,.22,0,.23.23,0,0,1,.13.17c.35,2.11.69,4.24,1,6.37q3,3.51,5.93,7.06l8,2.93a.27.27,0,0,1,.16.22v3.9a.21.21,0,0,1-.17.22l-4,1.14h-7.82l-9.18-3.26-2.21.74v3.66a.22.22,0,0,1-.21.24.2.2,0,0,1-.18-.06c-5.2-4.54-10.44-9.08-15.56-13.51-7.19,1.55-14.52,3.14-21.8,4.73l-3.33,1.45q-2.57,2.56-5.1,5.15l-.81,4.5a.21.21,0,0,1,0,.11c-3.83,5-7.67,10.05-11.42,15,.09,6,.23,11.92.42,17.65,4.8,5.48,9.64,10.9,14.41,16.09,5.61-.93,11.45-1.92,17.34-3a.17.17,0,0,1,.14,0c3.76,1.67,7.53,3.34,11.21,4.94a.25.25,0,0,1,.14.27c-.54,2.48-1.07,4.92-1.6,7.3,1.71,2.36,3.42,4.72,5.1,7v.09c1,4,1.92,7.87,2.82,11.5a.31.31,0,0,1,0,.19c-1.49,2.27-3,4.51-4.45,6.65,1.1,2.63,2.19,5.15,3.23,7.49,1.67,5,3.14,9.18,4.39,12.34,3.25-.27,6.52-.56,9.72-.87a111.68,111.68,0,0,0,9.07-6.73c.84-.88,1.7-1.82,2.55-2.76a.22.22,0,0,1,.13-.08l.37-.07,2-.38v-5.35a.23.23,0,0,1,.11-.2c3-1.88,6-3.86,8.95-5.9.33-5.23.54-11.14.62-17.59a.28.28,0,0,1,.07-.17c5-4.76,10-9.81,15-15,1.79-4,3.58-8.15,5.33-12.35-3.32.77-6.75,1.56-10.22,2.34a.25.25,0,0,1-.26-.12c-5.41-10.56-11.34-21.72-17.63-33.18a.22.22,0,0,1,.07-.3l2.94-2.12h.11l2.52-.33a.22.22,0,0,1,.24.12c3.94,7.31,7.78,14.62,11.4,21.71v.08c.36,2.83.7,5.6,1,8.22,4.64-2.3,9.2-4.59,13.54-6.82,3-3.67,6-7.39,8.83-11.06-1.64-2.13-3.33-4.3-5-6.46h-5.35a.23.23,0,0,1-.16-.06c-3-2.82-6.2-5.77-9.47-8.76a.23.23,0,0,1,.06-.39l4.72-2.24a.24.24,0,0,1,.26,0c3.13,2.72,6.23,5.44,9.2,8.07l16.78,2.22a.21.21,0,0,1,.16.11c1.82,2.79,3.63,5.6,5.37,8.38l2.64-.78a.21.21,0,0,1,.19,0,.21.21,0,0,1,.11.16c.48,3.06.92,6.09,1.31,9,1.14,4.5,2.22,9.17,3.21,13.84a.24.24,0,0,1-.46.11h0c-1-4.67-2.07-9.33-3.22-13.85-.38-2.85-.8-5.79-1.27-8.76l-2.55.75a.24.24,0,0,1-.27-.1c-1.75-2.79-3.56-5.63-5.39-8.43L322,221.5a.21.21,0,0,1-.13-.05c-2.95-2.62-6-5.32-9.14-8l-4.26,2c3.15,2.9,6.23,5.74,9.14,8.47H323a.23.23,0,0,1,.19.09c1.76,2.24,3.52,4.49,5.21,6.7a.23.23,0,0,1,0,.29c-2.9,3.73-5.92,7.51-9,11.25l-.08.06c-4.45,2.28-9.13,4.64-13.89,7a.22.22,0,0,1-.22,0,.23.23,0,0,1-.12-.18c-.32-2.71-.67-5.57-1.05-8.51-3.59-7-7.39-14.27-11.3-21.52l-2.3.3-2.73,2c6.23,11.33,12.1,22.38,17.46,32.84,3.55-.8,7.08-1.61,10.48-2.41a.22.22,0,0,1,.23.08.21.21,0,0,1,0,.24c-1.81,4.37-3.66,8.69-5.52,12.83l0,.06c-5,5.19-10,10.23-14.94,15-.08,6.46-.29,12.39-.62,17.62a.22.22,0,0,1-.1.18c-3,2-6,4-8.95,5.91v5.42a.24.24,0,0,1-.19.23l-2.24.42-.29.05c-.83.93-1.67,1.85-2.52,2.74-3.17,2.58-6.25,4.86-9.17,6.81h-.11c-3.28.31-6.63.61-10,.88Z"/><path class="cls-8" d="M297.83,309.71a.25.25,0,0,1-.23-.16l-.13-.37-.47-1.47a.28.28,0,0,1,0-.18c1.09-2.56,2.19-5.42,3.27-8.48a.5.5,0,0,1,.08-.12c2.86-2.13,5.75-4.38,8.61-6.68a.23.23,0,0,1,.27,0,.21.21,0,0,1,.11.24c-.29,1.63-.61,3.32-.95,5v.07c-2.38,4.38-4.77,8.36-7.12,11.82a.23.23,0,0,1-.18.11l-3.18.2Zm-.4-2c.17.46.33.92.49,1.36l.07.21,2.89-.19c2.31-3.42,4.66-7.34,7-11.66.3-1.46.58-2.92.84-4.34-2.69,2.15-5.4,4.26-8.08,6.26-1.05,3-2.13,5.83-3.21,8.41Z"/></g><g id="freepik--Character--inject-97"><path class="cls-9" d="M214.22,26.56c-.89-10.65,16.47-5.67,21,1s-3.95,20.38,9.89,24.9,4.06,13.14,11.4,27.05c10.8,20.47-54.69,46.43-45.47,5.11C219.64,46.09,193.45,43.8,214.22,26.56Z"/><path class="cls-9" d="M248.31,52.71a6.05,6.05,0,0,1-1.53-.19c-9.07-2.27-9.78-8.45-10.46-14.43-.44-3.9-.85-7.57-3.47-10.31a.93.93,0,1,1,1.35-1.29c3.05,3.19,3.52,7.36,4,11.39.66,5.84,1.23,10.88,9,12.83,1.34.33,2.68,0,3.11-.7s0-1.66-1.06-2.77A.93.93,0,1,1,250.6,46c2.36,2.5,1.71,4.32,1.32,5A4.07,4.07,0,0,1,248.31,52.71Z"/><path class="cls-10" d="M211.2,66.85c.13,2.39.12,4.66.11,7s-.12,4.62-.24,6.93-.28,4.62-.53,6.93-.54,4.61-.86,6.91l-.05.37-.08.2a24.32,24.32,0,0,1-2.91,5.38c-1.08,1.57-2.18,3.08-3.34,4.52s-2.38,2.82-3.61,4.18-2.5,2.68-3.84,4l-2.62-2.22,3-4.46q1.49-2.22,2.87-4.49c.94-1.49,1.84-3,2.65-4.48a25,25,0,0,0,1.91-4.3l-.13.58c.43-4.43.6-8.89.75-13.36.07-2.23.09-4.47.1-6.7s0-4.5-.06-6.65Z"/><path class="cls-10" d="M194.87,109.44l-4.21,3.16,3.63,3.12a5.17,5.17,0,0,0,2.82-3.91Z"/><path class="cls-5" d="M204.53,60.08c-2,2.21-2.28,10-2.28,10L214.78,74s1.33-12.21-1.57-14.58a6,6,0,0,0-8.47.42C204.66,59.92,204.6,60,204.53,60.08Z"/><polygon class="cls-10" points="188.96 115.96 190.53 119.71 194.29 115.72 190.66 112.6 188.96 115.96"/><path class="cls-5" d="M205.19,61.37c-.3,4.2-1.26,14.49,3.91,37.89l27.45-1.55C235.5,87,236.15,81.65,241,60.62a2.41,2.41,0,0,0-1.81-2.89l-.11,0a78.86,78.86,0,0,0-9.19-1.08,89.76,89.76,0,0,0-12.49,0c-3.25.29-6.77.86-9,1.27A3.83,3.83,0,0,0,205.19,61.37Z"/><path class="cls-8" d="M219.14,63.62a6.32,6.32,0,0,1,3.53,4.3c3.17-.65,9.57-5.9,8.49-11.61a11.25,11.25,0,0,0-3.16-.48Z"/><path class="cls-8" d="M217.81,63.36a5.33,5.33,0,0,0-3.59,3.08,10.75,10.75,0,0,1,1.68-9.87,23.14,23.14,0,0,1,4.75-.74Z"/><polygon class="cls-10" points="186.05 198.93 179.3 198.35 178.47 182.54 185.22 183.12 186.05 198.93"/><path class="cls-9" d="M179,197.29l6.94-3.12a.54.54,0,0,1,.68.2l3.25,5.14a1.09,1.09,0,0,1-.39,1.49l-.1.05c-2.44,1-3.67,1.43-6.72,2.8-1.88.84-5.39,3.17-8,4.33s-3.88-1.34-2.91-2.05a17.49,17.49,0,0,0,6.36-8A1.78,1.78,0,0,1,179,197.29Z"/><g class="cls-11"><polygon points="185.22 183.12 178.47 182.54 178.94 191.35 185.68 191.72 185.22 183.12"/></g><path class="cls-9" d="M209,99s-25,23.12-29.48,34c-5.65,13.82-2.12,56-2.12,56l9.2.79s.64-29.71,4.86-48.19c8.89-11.77,43.08-27.24,38.87-43.53Z"/><path class="cls-12" d="M218.71,111.48c-12.08,2.66-19.17,16.3-21.67,24.55,8.21-6.86,21-14.44,28.17-22.73C223.77,112.53,221.29,110.92,218.71,111.48Z"/><polygon class="cls-8" points="187.31 190.33 176.48 189.4 176.07 183.93 187.3 183.14 187.31 190.33"/><path class="cls-8" d="M176.08,199.54H176a.89.89,0,0,1-.59-.67.56.56,0,0,1,.11-.54c.57-.64,3-.28,3.27-.23a.18.18,0,0,1,.13.12.17.17,0,0,1-.06.16C178.17,198.89,176.9,199.71,176.08,199.54Zm2.27-1.2c-1-.12-2.29-.16-2.59.19a.22.22,0,0,0,0,.24.58.58,0,0,0,.38.45c.41.15,1.23-.18,2.21-.88Z"/><path class="cls-8" d="M178.5,198.35c-.82-.19-2.23-.93-2.39-1.61a.55.55,0,0,1,.31-.63.84.84,0,0,1,.71-.08c.94.29,1.74,2.06,1.78,2.14a.14.14,0,0,1-.14.22A1.26,1.26,0,0,1,178.5,198.35Zm-1.52-2a.54.54,0,0,0-.39.06c-.18.11-.18.21-.17.29.11.46,1.26,1.15,2.06,1.35-.3-.58-.89-1.51-1.45-1.69Z"/><path class="cls-12" d="M240.72,61.71a10,10,0,0,0-5.95,7.79c-.48,3.28,2.07,6.71,2.82,8.13C238.25,73.36,239.25,68.24,240.72,61.71Z"/><path class="cls-10" d="M228.64,44.08c-.79,4-1.58,9.87,1.22,12.55,0,0-.16,4.09-11.51,8.49-4.08-5.87-1-8.51-1-8.51,4.49-1.06,4.37-2.88,3.6-6Z"/><path class="cls-12" d="M225.52,46.71,221,50.61a12.61,12.61,0,0,1,.38,2.21c1.72-.24,4.41-1.69,4.78-3.55A5.46,5.46,0,0,0,225.52,46.71Z"/><path class="cls-10" d="M233.89,37.21c-1.81,6.57-2.44,9.38-6.52,12.08-6.14,4.07-13.81.4-14-6.57-.16-6.28,2.84-16,9.91-17.23a9.29,9.29,0,0,1,10.61,11.72Z"/><path class="cls-9" d="M218.73,25.22c-2.87,2.67,8.07,8,11.4,7.9-4.47,3.45-.51,10.13,3,8.48s3.32-10.18,1.51-13.2S223.31,21,218.73,25.22Z"/><path class="cls-9" d="M223.12,26.38c2.11,2.47-9.6,5.78-8.28,1.91,1.75-5.14,6.18-4.38,8.28-1.91"/><path class="cls-9" d="M222.92,36.71c-.12.54-.5.92-.85.85s-.55-.58-.44-1.12.5-.92.85-.85S223,36.19,222.92,36.71Z"/><path class="cls-9" d="M216.8,35.43c-.12.55-.5.92-.85.85s-.55-.58-.44-1.12.5-.92.85-.84S216.91,34.89,216.8,35.43Z"/><path class="cls-9" d="M216.51,34.38l-1.22-.65S215.74,34.89,216.51,34.38Z"/><path class="cls-13" d="M218.48,36.81a15.23,15.23,0,0,1-2.67,3,2.46,2.46,0,0,0,1.86.77Z"/><path class="cls-9" d="M220.17,43.37a4.5,4.5,0,0,1-.81-.11.15.15,0,0,1-.13-.18h0a.16.16,0,0,1,.2-.12,4.37,4.37,0,0,0,3.85-.94.16.16,0,0,1,.23.23A4.55,4.55,0,0,1,220.17,43.37Z"/><path class="cls-9" d="M225.64,36a.32.32,0,0,1-.3-.24,3.85,3.85,0,0,0-2.21-2.14.33.33,0,0,1-.2-.42.31.31,0,0,1,.41-.19h0A4.41,4.41,0,0,1,226,35.6a.32.32,0,0,1-.23.39h0A.17.17,0,0,1,225.64,36Z"/><path class="cls-9" d="M215.56,32.22a.36.36,0,0,1-.28-.18.33.33,0,0,1,.14-.44,3.19,3.19,0,0,1,3-.07.31.31,0,0,1,.13.42v0a.32.32,0,0,1-.44.12h0a2.6,2.6,0,0,0-2.35.09A.31.31,0,0,1,215.56,32.22Z"/><path class="cls-9" d="M222.63,35.71l-1.22-.65S221.86,36.18,222.63,35.71Z"/><polygon class="cls-10" points="213.13 213.38 206.37 213.06 204.93 197.3 211.69 197.62 213.13 213.38"/><path class="cls-9" d="M206,212l6.81-3.38a.52.52,0,0,1,.69.17l3.46,5a1.11,1.11,0,0,1-.35,1.52l-.09,0c-2.4,1.13-3.61,1.56-6.61,3.05-1.84.92-5.25,3.38-7.8,4.64s-3.93-1.19-3-1.94a17.54,17.54,0,0,0,6-8.24A1.75,1.75,0,0,1,206,212Z"/><g class="cls-11"><polygon points="211.69 197.62 204.93 197.3 205.73 206.09 212.48 206.19 211.69 197.62"/></g><path class="cls-9" d="M217.7,98.77s-17.55,33.81-18.36,46.85c-.84,13.38,4.77,58.17,4.77,58.17l9.22.43s1.22-39.51.67-58.51c5.7-13.61,30.64-33.27,22.51-48Z"/><polygon class="cls-8" points="213.94 204.73 203.3 204.23 202.62 198.35 214.13 196.79 213.94 204.73"/><path class="cls-8" d="M203.2,214.39h-.08a.9.9,0,0,1-.62-.65.53.53,0,0,1,.09-.54c.54-.67,3-.4,3.25-.37a.17.17,0,0,1,.14.12.18.18,0,0,1-.06.17C205.25,213.65,204,214.55,203.2,214.39Zm2.22-1.3c-1-.08-2.3-.06-2.59.29a.21.21,0,0,0,0,.24.61.61,0,0,0,.4.44C203.65,214.19,204.46,213.83,205.42,213.09Z"/><path class="cls-8" d="M205.56,213.1c-.82-.16-2.26-.84-2.44-1.52a.56.56,0,0,1,.28-.64.83.83,0,0,1,.7-.11c1,.26,1.83,2,1.87,2.07a.22.22,0,0,1,0,.16.15.15,0,0,1-.15.07Zm-1.59-2a.49.49,0,0,0-.39.08c-.18.11-.17.21-.15.29.12.45,1.3,1.1,2.1,1.27-.32-.57-.94-1.48-1.51-1.63Z"/><path class="cls-8" d="M236.87,96.08l.84,2.42c.11.18-.1.39-.42.41L209,100.5c-.25,0-.46-.1-.48-.25l-.39-2.45c0-.17.18-.32.45-.34l27.81-1.56A.47.47,0,0,1,236.87,96.08Z"/><path class="cls-9" d="M233.22,99.4H234c.15,0,.25-.09.24-.18L233.68,96c0-.09-.15-.16-.3-.15h-.74c-.15,0-.26.09-.24.19l.53,3.17C232.94,99.34,233.07,99.41,233.22,99.4Z"/><path class="cls-9" d="M211.14,100.65l.74-.05c.15,0,.26-.09.25-.18l-.53-3.17c0-.1-.15-.17-.3-.16h-.75c-.14,0-.25.1-.24.19l.53,3.17A.28.28,0,0,0,211.14,100.65Z"/><path class="cls-9" d="M222.14,100h.74c.15,0,.26-.1.24-.19l-.53-3.17c0-.09-.15-.16-.3-.16l-.74,0c-.15,0-.26.09-.24.18l.53,3.17C221.85,100,222,100,222.14,100Z"/><path class="cls-10" d="M247.26,108.08l-4.3,5.45,6.86-.59s1.55-2.76.21-5.23Z"/><path class="cls-10" d="M245.07,64.26c1.41,3.69,2.63,7.33,3.72,11.08a108.29,108.29,0,0,1,2.78,11.37c.19,1,.35,2,.5,3l.18,1.59.08,1.56a51.09,51.09,0,0,1-.24,6.06,69.15,69.15,0,0,1-2.23,11.59l-3.38-.62c.19-3.72.35-7.51.23-11.19-.05-1.83-.15-3.65-.36-5.4L246.17,92l-.23-1.25c-.19-.87-.38-1.78-.6-2.67-.89-3.58-2-7.16-3.12-10.74s-2.39-7.16-3.63-10.64Z"/><path class="cls-5" d="M238.9,57.71c5.58.32,9,10.87,9,10.87l-11.43,4.68s-2.36-5.27-2.09-9S235.82,57.51,238.9,57.71Z"/><polygon class="cls-10" points="243.24 119.21 248.96 118.41 249.82 112.94 242.96 113.53 243.24 119.21"/><path class="cls-10" d="M234.62,42.71a4.91,4.91,0,0,1-3,2.21c-1.67.39-2.44-1.12-1.92-2.67.48-1.39,1.92-3.27,3.57-3A2.19,2.19,0,0,1,235,41.83,2.17,2.17,0,0,1,234.62,42.71Z"/></g><g id="freepik--Satellite--inject-97"><path class="cls-5" d="M334.1,88.27l-10-10a.71.71,0,0,0-1,1l4.52,4.51L318.1,93.3a.71.71,0,0,0,1,1h0l9.52-9.52,4.52,4.52a.71.71,0,0,0,1-1Z"/><path class="cls-14" d="M334.1,88.27l-10-10a.71.71,0,0,0-1,1l4.52,4.51L318.1,93.3a.71.71,0,0,0,1,1h0l9.52-9.52,4.52,4.52a.71.71,0,0,0,1-1Z"/><path class="cls-5" d="M323.14,89.24h0a3.13,3.13,0,0,1,0-4.42l6.55-6.55a3.13,3.13,0,0,1,4.41,0h0a3.13,3.13,0,0,1,0,4.42l-6.55,6.55A3.13,3.13,0,0,1,323.14,89.24Z"/><path class="cls-5" d="M322.61,89.77a5.49,5.49,0,0,0-7.76,0l7.76,7.75A5.5,5.5,0,0,0,322.61,89.77Z"/><rect class="cls-5" x="313.71" y="66.25" width="11.26" height="16.46" rx="1.93" transform="translate(40.87 247.62) rotate(-45)"/><rect class="cls-15" x="314.34" y="66.88" width="10.01" height="15.21" rx="1.35" transform="translate(40.87 247.62) rotate(-45)"/><rect class="cls-5" x="332.27" y="84.8" width="11.26" height="16.46" rx="1.93" transform="translate(33.19 266.18) rotate(-45)"/><rect class="cls-15" x="332.89" y="85.43" width="10.01" height="15.21" rx="1.35" transform="translate(33.18 266.18) rotate(-45)"/><rect class="cls-16" x="326.43" y="81.17" width="5.55" height="4.03" rx="0.36" transform="translate(37.6 257.15) rotate(-45)"/></g></g></g></svg>