<?xml version="1.0" encoding="utf-8"?>
<!-- Generator: Adobe Illustrator 25.0.0, SVG Export Plug-In . SVG Version: 6.00 Build 0)  -->
<svg version="1.1" id="Layer_1" xmlns="http://www.w3.org/2000/svg" xmlns:xlink="http://www.w3.org/1999/xlink" x="0px" y="0px"
	 viewBox="0 0 30 30" style="enable-background:new 0 0 30 30;" xml:space="preserve">
<style type="text/css">
	.st0{fill:#333333;}
</style>
<path class="st0" d="M26.1,0H3.8C1.7,0,0,1.7,0,3.8v22.3C0,28.3,1.7,30,3.8,30h22.3c2.1,0,3.8-1.7,3.8-3.8V3.8C30,1.7,28.3,0,26.1,0
	z M28.2,26.1c0,1.1-0.9,2.1-2.1,2.1H3.8c-1.1,0-2.1-0.9-2.1-2.1v-3.2L7.6,18c0.2-0.2,0.5-0.2,0.7,0l3.6,3c0.4,0.3,0.9,0.3,1.2-0.1
	l8.6-8.7c0.2-0.2,0.6-0.2,0.8,0l0,0l5.6,6.9v7H28.2z M28.2,16.4L24,11.2c-0.8-1-2.3-1.2-3.3-0.3c-0.1,0.1-0.1,0.1-0.2,0.2l-8.1,8.1
	l-3-2.5c-0.9-0.7-2.1-0.7-3,0l-4.7,4V3.8c0-1.1,0.9-2.1,2.1-2.1h22.3c1.1,0,2.1,0.9,2.1,2.1C28.2,3.8,28.2,16.4,28.2,16.4z"/>
<g transform="translate(5.178 3.687)">
	<path class="st0" d="M4.3,0C1.9,0,0,1.9,0,4.3s1.9,4.3,4.3,4.3s4.3-1.9,4.3-4.3l0,0C8.5,1.9,6.6,0,4.3,0z M4.3,6.7
		c-1.4,0-2.5-1.1-2.5-2.5s1.1-2.5,2.5-2.5s2.5,1.1,2.5,2.5l0,0C6.7,5.6,5.6,6.7,4.3,6.7z"/>
</g>
</svg>
