<?xml version="1.0" encoding="utf-8"?>
<!-- Generator: Adobe Illustrator 19.0.0, SVG Export Plug-In . SVG Version: 6.00 Build 0)  -->
<svg version="1.1" id="Layer_1" xmlns="http://www.w3.org/2000/svg" xmlns:xlink="http://www.w3.org/1999/xlink" x="0px" y="0px"
	 viewBox="0 0 406 395" style="enable-background:new 0 0 406 395;" xml:space="preserve">
<style type="text/css">
	.st0{display:none;fill:#FFFFFF;}
	.st1{fill:#45567C;}
</style>
<g>
	<path class="st0" d="M6.8,190c0-63.1,0-126.2,0-189.2c131.5,0,263.1,0,394.6,0c0,131.5,0,263.1,0,394.6c-131.5,0-263.1,0-394.6,0
		c0-63.3,0-126.7,0-190c0.2,1.1,0.6,2.2,0.7,3.3c2.4,21,10.5,39.6,25.1,54.9c25.7,26.8,57.2,36.8,93.4,28.7
		c30.4-6.8,51.8-26.2,67.8-52.2c9.7-15.9,15.1-33.5,21.3-50.9c6.2-17.3,14.8-33.2,27.7-46.5c20.4-21,45.1-30.5,74.2-25.4
		c44.3,7.8,73.1,48.1,66.8,92.8c-5.2,37.5-38.5,67.8-76.3,69c-29.2,0.9-52.8-10.3-70.4-33.8c-0.8-1.1-1.7-2.2-2.7-3.4
		c-4.5,2.9-8.8,5.6-13.1,8.4c5.9,9,12.6,16.7,20.8,23c30.4,23.4,63.8,28.6,99.1,13.8c57.7-24.2,77.4-94.8,41.1-145.8
		c-34.2-48-103.2-56.6-149-11.2c-16.8,16.6-27.6,36.8-34.9,58.9c-6.4,19.3-13.1,38.3-25.8,54.5c-21.6,27.5-49.2,40.5-84.5,34.1
		c-34.2-6.2-62.4-37.3-64.9-71.8c-2.3-31.1,9.1-56.1,34.1-74.7c34.6-25.6,86.4-17.5,111.9,17.2c1.3,1.7,2.6,3.4,3.9,5.2
		c4.6-2.9,8.7-5.6,13.8-8.9c-6-6.6-11.2-13.5-17.5-19.1c-22.8-20.1-49.5-28.7-79.7-23.8c-36.3,5.8-61.6,26.4-75.7,60.2
		C10.2,170.7,9.1,180.6,6.8,190z"/>
	<path class="st1" d="M6.8,190c2.3-9.4,3.5-19.3,7.1-28.1c14.1-33.8,39.4-54.4,75.7-60.2c30.1-4.8,56.9,3.7,79.7,23.8
		c6.3,5.6,11.5,12.5,17.5,19.1c-5.1,3.3-9.3,6-13.8,8.9c-1.4-1.8-2.7-3.5-3.9-5.2c-25.4-34.7-77.3-42.8-111.9-17.2
		C32,149.7,20.7,174.8,23,205.8c2.5,34.5,30.8,65.6,64.9,71.8c35.4,6.5,62.9-6.6,84.5-34.1c12.7-16.2,19.5-35.3,25.8-54.5
		c7.3-22.2,18.2-42.3,34.9-58.9c45.8-45.4,114.9-36.8,149,11.2c36.3,51,16.7,121.7-41.1,145.8c-35.2,14.7-68.7,9.6-99.1-13.8
		c-8.2-6.3-14.9-14-20.8-23c4.3-2.8,8.6-5.5,13.1-8.4c1,1.3,1.9,2.3,2.7,3.4c17.6,23.5,41.1,34.8,70.4,33.8
		c37.8-1.2,71.1-31.5,76.3-69c6.2-44.7-22.5-85-66.8-92.8c-29.1-5.1-53.8,4.4-74.2,25.4c-12.9,13.3-21.5,29.2-27.7,46.5
		c-6.2,17.3-11.6,35-21.3,50.9c-16,26.1-37.4,45.4-67.8,52.2c-36.3,8.1-67.7-1.9-93.4-28.7C18,248.3,9.9,229.7,7.5,208.7
		c-0.1-1.1-0.5-2.2-0.7-3.3C6.8,200.3,6.8,195.1,6.8,190z"/>
</g>
</svg>
