<svg xmlns="http://www.w3.org/2000/svg" width="48.04" height="46.839" viewBox="0 0 48.04 46.839">
  <g id="photoshop" transform="translate(18 -136.746)">
    <path id="Path_426" data-name="Path 426" d="M2,132.748H46.038v42.835H2ZM0,177.585H48.04V130.746H0Zm32.387-27.623c-1.581,0-2.122.8-2.122,1.461,0,.721.36,1.221,2.482,2.322,3.143,1.521,4.123,2.982,4.123,5.124,0,3.2-2.442,4.924-5.745,4.924a8.708,8.708,0,0,1-4.1-.861c-.14-.06-.16-.16-.16-.32V159.67c0-.2.1-.26.24-.16a7.429,7.429,0,0,0,4.023,1.181c1.581,0,2.242-.661,2.242-1.561,0-.721-.46-1.361-2.482-2.4-2.842-1.361-4.023-2.742-4.023-5.044,0-2.582,2.022-4.724,5.525-4.724a9.2,9.2,0,0,1,3.583.56.443.443,0,0,1,.2.4v2.742c0,.16-.1.26-.3.2a6.762,6.762,0,0,0-3.483-.9Zm-17.214,2.382c.46.04.821.04,1.621.04,2.342,0,4.544-.821,4.544-4,0-2.542-1.581-3.823-4.243-3.823-.8,0-1.561.04-1.922.06ZM11.61,141.715c0-.14.28-.24.44-.24,1.281-.06,3.183-.1,5.164-.1,5.545,0,7.706,3.042,7.706,6.926,0,5.084-3.683,7.266-8.207,7.266-.761,0-1.021-.04-1.561-.04v7.686c0,.16-.06.24-.24.24H11.85c-.16,0-.24-.06-.24-.24v-21.5Z" transform="translate(-18 6)" fill="#333"/>
  </g>
</svg>
