<svg width="512" height="512" viewBox="0 0 512 512" fill="none" xmlns="http://www.w3.org/2000/svg">
<path d="M299.428 386.813L286.402 399.746C282.57 403.578 277.372 405.73 271.953 405.73C266.534 405.73 261.337 403.578 257.505 399.746L247.602 389.805L244.092 386.295L185.245 327.485C181.865 324.088 179.966 319.492 179.966 314.7C179.966 309.908 181.865 305.311 185.245 301.914L200.266 286.874L240.914 327.522C249.772 336.37 261.78 341.339 274.3 341.339C286.82 341.339 298.829 336.37 307.687 327.522L287.363 307.198L194.501 214.337L119.358 139.194L54.6914 74.5273L115.663 157.67L98.4615 243.511C95.5305 258.136 96.2591 273.259 100.582 287.536C104.904 301.812 112.687 314.799 123.238 325.342L255.51 457.613C258.167 460.272 261.323 462.381 264.796 463.82C268.268 465.259 271.991 466 275.75 466C279.51 466 283.232 465.259 286.705 463.82C290.178 462.381 293.334 460.272 295.991 457.613L366.792 386.85C357.856 377.915 345.737 372.895 333.101 372.895C320.464 372.895 308.346 377.915 299.41 386.85L299.428 386.813Z" fill="url(#paint0_linear_946_26)"/>
<path d="M396.633 349.823L413.004 268.047C415.918 253.421 415.182 238.303 410.86 224.03C406.539 209.756 398.765 196.768 388.227 186.216L255.919 53.9446C253.261 51.2859 250.106 49.1766 246.633 47.7377C243.16 46.2988 239.437 45.5581 235.678 45.5581C231.919 45.5581 228.196 46.2988 224.723 47.7377C221.25 49.1766 218.095 51.2859 215.437 53.9446L144.691 124.708C153.627 133.643 165.746 138.663 178.383 138.663C191.019 138.663 203.139 133.643 212.075 124.708L225.119 111.775C227.009 109.867 229.257 108.353 231.735 107.32C234.214 106.287 236.873 105.754 239.558 105.754C242.243 105.754 244.901 106.287 247.38 107.32C249.858 108.353 252.107 109.867 253.997 111.775L263.9 121.679L267.41 125.189L326.257 184.036C327.93 185.707 329.257 187.691 330.162 189.876C331.067 192.06 331.533 194.401 331.533 196.766C331.533 199.13 331.067 201.472 330.162 203.656C329.257 205.841 327.93 207.825 326.257 209.496L311.237 224.536L270.589 183.888C261.755 175.092 249.797 170.154 237.332 170.154C224.866 170.154 212.908 175.092 204.074 183.888L303.107 283.105L392.162 372.179L457.106 437.087L396.633 349.823Z" fill="url(#paint1_linear_946_26)"/>
<defs>
<linearGradient id="paint0_linear_946_26" x1="176.727" y1="47.7183" x2="239.768" y2="386.813" gradientUnits="userSpaceOnUse">
<stop stop-color="#448AFF"/>
<stop offset="1" stop-color="#0F5DDF"/>
</linearGradient>
<linearGradient id="paint1_linear_946_26" x1="228.961" y1="88.5687" x2="385.474" y2="355.92" gradientUnits="userSpaceOnUse">
<stop stop-color="#448AFF"/>
<stop offset="1" stop-color="#0F5DDF"/>
</linearGradient>
</defs>
</svg>
