<svg xmlns="http://www.w3.org/2000/svg" viewBox="0 0 462.31 324.57"><defs><style>.cls-1{fill:#d5e0f8;}.cls-2{fill:#789fed;}.cls-3{fill:#4668d1;}.cls-4{fill:#1d38a9;}.cls-5{fill:#364157;}.cls-6{fill:#ffa68f;}.cls-7{fill:#fff;}.cls-8{fill:#f97974;}.cls-9{fill:#ea4e5f;}.cls-10{fill:#203fbd;}.cls-11{fill:#0b2142;}.cls-12{fill:#4c4c6e;}.cls-13{opacity:0.5;}</style></defs><g id="Layer_2" data-name="Layer 2"><g id="Layer_1-2" data-name="Layer 1"><g id="OBJECTS"><path class="cls-1" d="M196,62.39c-15.39-55.76-84.63-73.72-124.33-32-.58.59-1.15,1.21-1.71,1.83C13,94,39.93,246.47,158.67,285.11s242.3-31.92,249.24-95S360.06,107.23,275,124.9C227,134.82,205.58,97.1,196,62.39Z"/><path class="cls-1" d="M294.76,71.9c-15.89,2.58-20.29,16.66-8,26.64,4,3.31,9.85,6,18.1,7.42,31.42,5.22,48.1-8.7,35.5-26.72C332.58,68.14,310.51,69.36,294.76,71.9Z"/><path class="cls-1" d="M48.85,185.9c-7.81-14.08-22.55-13.47-27.8,1.45-1.74,4.94-2.36,11.31-.86,19.54,5.71,31.3,24.39,42.3,37.14,24.36C65.18,220.18,56.58,199.82,48.85,185.9Z"/><path class="cls-1" d="M419.11,197.44c-1.47,7.66,4.86,13.09,12,10.15a15.24,15.24,0,0,0,6.89-6.18c8.1-12.6,4-23.41-7.28-22.29C423.79,179.79,420.58,189.9,419.11,197.44Z"/><path class="cls-1" d="M378.94,116.57c7.63,1.61,13.17-4.64,10.34-11.86a15.32,15.32,0,0,0-6-7c-12.46-8.31-23.34-4.39-22.42,6.9C361.37,111.6,371.37,115,378.94,116.57Z"/><path class="cls-1" d="M193.32,34.57c6,4.93,13.83,1.94,14.63-5.77a15.14,15.14,0,0,0-2.15-9c-7.23-13.12-18.7-14.64-23.08-4.19C180,22.08,187.32,29.7,193.32,34.57Z"/><path class="cls-2" d="M435.14,309.76a8,8,0,0,0,7.18-2.22,6.62,6.62,0,0,0,2-4.3v-.06c0-10.69,13.1-10,17.32-23s-12.45-14.18-22-6.11c-6.84,5.8-15-2.29-25,4.46-8.63,5.88-3.82,20.34-18,15.82-4.52-1.45-8.57-.06-12,2.52a20.24,20.24,0,0,0-7.56,11.59l1.13.79C406.2,326.32,418.78,307,435.14,309.76Z"/><path class="cls-3" d="M407.46,309.19l37-23.76a1.08,1.08,0,0,0,.23-1.5,1.05,1.05,0,0,0-1.38-.3l-39.8,25.56Z"/><path class="cls-4" d="M405.46,238.47c-1.56-23.3-1.82-47.74-.09-63.94,2.27-21.16,7.39-35.9,15.24-43.79a1.32,1.32,0,0,1,1.88,0,1.34,1.34,0,0,1,0,1.89h0c-13.71,13.8-18.64,50.85-14.28,107.2Z"/><path class="cls-3" d="M409,155.82s-11.17,0-10.37-19.64C398.58,136.18,415.68,141.06,409,155.82Z"/><path class="cls-3" d="M408,165.9s-.6-11.15,19-11.44C427.07,154.49,423.15,171.81,408,165.9Z"/><path class="cls-3" d="M416.58,138.4s-4.29-10.31,14.13-17.14C430.7,121.26,432.79,138.9,416.58,138.4Z"/><path class="cls-3" d="M405.52,186.19s-10.51,3.76-16.4-15C389.12,171.21,406.85,170,405.52,186.19Z"/><path class="cls-3" d="M406.13,196.62S403.61,185.74,422.9,182C422.9,182,422,199.79,406.13,196.62Z"/><path class="cls-3" d="M405.58,211s-10.44,4-16.68-14.67C388.86,196.31,406.58,194.79,405.58,211Z"/><path class="cls-3" d="M81.58,290.41l-3-.12L77,290.22,72.4,290s-42.3-71.7-15.82-95.1c8.14-7.2,22.39-1.23,19.24,31.86C72.88,257.47,81.58,290.41,81.58,290.41Z"/><path class="cls-4" d="M78.52,290.29l-1.61-.07c-7.38-17.37-11.1-36-13-49.13a226.22,226.22,0,0,1-2.29-27,.71.71,0,0,1,.71-.73h0a.74.74,0,0,1,.74.72,225.35,225.35,0,0,0,2.33,26.83C67.27,254.07,71,272.9,78.52,290.29Z"/><path class="cls-2" d="M90,304.76l-4.13,1.55-2.19.81-6.21,2.29S-19,237.13,3.36,191.15C10.23,177,32.58,177,46.81,223,60,265.6,90,304.76,90,304.76Z"/><path class="cls-3" d="M85.82,306.31l-2.19.81C64.1,288,48.72,265.12,39,248.66A332,332,0,0,1,20.86,213.9a1.06,1.06,0,0,1,1.95-.83,327,327,0,0,0,18,34.53C50.58,264.18,66.12,287.22,85.82,306.31Z"/><path class="cls-3" d="M419.45,308.9a28.83,28.83,0,0,0-.61-5c-3.47-15.86,6-18.86,18.39-23.86s13.91-19.9,5.11-32.26,7-22.31,1.19-40.93-26-6.23-30.48,10.93c-3.18,12.34-19.35,9.67-25.34,25.67-5.2,13.89,12.24,26.72-7.9,33.09-6.43,2-10,7-11.85,12.74a28.78,28.78,0,0,0,.73,19.64Z"/><path class="cls-4" d="M394.82,308.9,428,227a1.52,1.52,0,0,0-2.81-1.15l-33.59,83Z"/><path class="cls-5" d="M118.49,61.34s.69-14.74-8.27-17.58c-14-4.41-17.85,2.84-20,7.62C87.46,57.51,88.63,69.53,97,70.69,109.4,72.43,117.72,65.46,118.49,61.34Z"/><path class="cls-5" d="M127.48,110.62a15.32,15.32,0,0,0,15-12.18c1.07-5.12,2.12-9.65,2.12-12.19v-.07c.06-.8.1-1.6.1-2.4.1-11.63-7.07-32.87-32.29-29.49,0,0-20.93,2.38-23.31,22.83,0,0-1,9.44-1.65,16.27v.36a15.33,15.33,0,0,0,13.71,16.8,13.3,13.3,0,0,0,1.55.07Z"/><path class="cls-3" d="M157.43,134.9s4.46,35.33,9.55,53.47c0,0,7.24-3.37,16.71-8,10.27-5,25-14,25-14l3.73,9s-38.14,36-50.78,38-20.38-43.2-20.38-43.2Z"/><path class="cls-6" d="M208,167.5s-1-5,1.2-8.43,5.66-9.75,9.68-11.08c3.36-1.11-1.6,4.56-1.75,8.16a55,55,0,0,0,8.6-1.8c3.18-1,9.45-2.32,12.36-2.89a.81.81,0,0,1,.94.63.83.83,0,0,1-.25.76c-1,.86-3.06,1.93-7.35,3,0,0,10.45-2,11.53-.38s-12,3.82-12,3.82,10.17-.6,10.43,1c.16,1-10.37,3.21-10.37,3.21s9.61.26,7.29,1.78c-.68.44-19.3,2.53-25.78,10.19C212.46,175.44,208.1,170.9,208,167.5Z"/><path class="cls-3" d="M93.11,128s-21.34,6.3-39.72,10.44c0,0-.48-8-1-18.48-.52-11.39.42-28.69.42-28.69l-9.69,1S29.64,142.9,33.86,155s57.78-4.85,57.78-4.85Z"/><path class="cls-6" d="M52.29,92.43s4.92-1.47,6.84-5.05,7.22-10.82,4-13.5c-1.2-1-2.06,3.28-5.16,5.13a57.73,57.73,0,0,1-2.51-8.42c-.6-3.28-2.45-9.41-3.33-12.24a.81.81,0,0,0-1-.58.78.78,0,0,0-.57.58c-.28,1.28-.25,3.61.89,7.89,0,0-3.24-10.14-5.16-10.34s2.27,12.45,2.27,12.45-4.31-9.23-5.84-8.7c-.93.32,2.13,10.64,2.13,10.64s-4.81-8.33-5-5.56c-.07.8,6.94,18.17,3.29,27.51C43.16,92.24,49.2,93.9,52.29,92.43Z"/><path class="cls-2" d="M156.63,271.82l.17.77C140.18,283.84,78,276.15,78,276.15c.11-1.3.25-2.66.43-4.08s.44-3.2.71-4.89c.75-4.52,1.76-9.42,2.89-14.45.36-1.58.73-3.19,1.11-4.81,1.12-4.8,2.32-9.68,3.45-14.42.39-1.64.77-3.24,1.14-4.84q.78-3.33,1.48-6.53c.61-2.82,1.16-5.52,1.62-8.07q.47-2.58.78-4.92c.24-1.65.4-3.22.5-4.66-1-3.65-1.91-7.23-2.77-10.7-.43-1.77-.84-3.49-1.26-5.2-1.27-5.46-2.39-10.67-3.37-15.54-.35-1.77-.7-3.49-1-5.17-1.08-5.75-2-11-2.67-15.48-.27-1.81-.53-3.5-.75-5.09-.25-1.75-.47-3.36-.65-4.82-.84-6.43-1.12-10.08-1.12-10.08l.45-.34a33.86,33.86,0,0,1,8.11-3.72,110.45,110.45,0,0,1,10.66-3l1.5-.36c4.43-1,7.74-1.63,7.74-1.63,15.07,3.15,19.37,1.12,19.37,1.12l7.66,2.26.91.32,5.58,2,.22.08,10,3.53,6.68,2.34-2.6,12-1.13,5.22-3.4,15.68-1.12,5.2-3.4,15.68-1.12,5.12-2.81,13,.56,2.48,1.1,4.81,1.74,7.66,1.58,6.93,1.1,4.79L151.19,248l1.1,4.76,3.29,14.27Z"/><path class="cls-6" d="M134.93,127c-1.61,9.42-6.18,18.9-15.67,19.92-11.47,1.24-17.42-13.15-20-22,4.43-1,9-2,9-2,15.07,3.15,18,1.23,18,1.23l7.77,2.56Z"/><path class="cls-7" d="M118.09,139c-12,0-14.9-14.86-14.92-15a.59.59,0,0,1,.47-.69.58.58,0,0,1,.69.47c.11.6,2.84,14.61,14.46,14,10.17-.51,10.77-11.81,10.79-12.28a.59.59,0,0,1,.58-.6.6.6,0,0,1,.6.59h0c0,.13-.65,12.85-11.91,13.42Z"/><path class="cls-3" d="M96.52,134.9a2.94,2.94,0,1,1-3-2.93h0A2.94,2.94,0,0,1,96.52,134.9Z"/><path class="cls-3" d="M90.64,149.26a2.94,2.94,0,1,1-3-2.93s0,0,0,0A2.94,2.94,0,0,1,90.64,149.26Z"/><path class="cls-3" d="M109.38,156a2.94,2.94,0,1,1-2.95-2.93h0A2.94,2.94,0,0,1,109.38,156Z"/><path class="cls-3" d="M96.31,164a2.93,2.93,0,1,1-3.81-1.64A2.93,2.93,0,0,1,96.31,164Z"/><path class="cls-3" d="M121.75,169.46a2.94,2.94,0,1,1-2.94-3h0a2.94,2.94,0,0,1,2.93,2.93Z"/><path class="cls-3" d="M140.47,175.5a2.94,2.94,0,1,1-2.94-2.94h0a2.94,2.94,0,0,1,2.93,2.93Z"/><path class="cls-3" d="M144.24,137.9A2.94,2.94,0,1,1,141.3,135a2.94,2.94,0,0,1,2.94,2.94Z"/><path class="cls-3" d="M122.94,188.19a2.94,2.94,0,1,1-3-2.93h0A3,3,0,0,1,122.94,188.19Z"/><path class="cls-3" d="M104.86,197.29a2.94,2.94,0,1,1-3-2.92h0A2.94,2.94,0,0,1,104.86,197.29Z"/><path class="cls-3" d="M102.75,180.72a2.93,2.93,0,1,1-2.93-2.94,2.93,2.93,0,0,1,2.93,2.94Z"/><path class="cls-3" d="M131.67,156.79a2.94,2.94,0,1,1-2.95-2.92h0A2.94,2.94,0,0,1,131.67,156.79Z"/><path class="cls-3" d="M147.89,153.1a2.94,2.94,0,1,1-2.94-2.95h0a2.93,2.93,0,0,1,2.93,2.93Z"/><path class="cls-3" d="M137.58,193.06a2.94,2.94,0,1,1-2.94-2.94,2.94,2.94,0,0,1,2.94,2.94Z"/><path class="cls-3" d="M138.32,216.28a2.93,2.93,0,1,1-2.93-2.94,2.93,2.93,0,0,1,2.93,2.94Z"/><path class="cls-3" d="M123.39,206.59a2.93,2.93,0,1,1-3.82-1.65,2.94,2.94,0,0,1,3.82,1.65Z"/><path class="cls-3" d="M103.41,215.19a2.93,2.93,0,1,1-3.82-1.65,2.94,2.94,0,0,1,3.82,1.65Z"/><polygon class="cls-2" points="162.85 308.83 162.24 305.19 159.87 291 159.06 286.13 156.8 272.58 152.69 272.76 98.2 275.24 78.02 276.14 76.73 286.69 76.12 291.61 74.33 306.17 74 308.83 162.85 308.83"/><path class="cls-5" d="M162.84,308.84l-.55-3.3,0-.35-.39-2.33-.4-2.32L159.86,291l-.46-2.82-.35-2-.05-.3-2-12.37-.14-.88-.19-.76-.16-.68-.92-4.09-1.83-8-.53-2.29-.9-4L151.24,248l-.74-3.29-.53-2.29-2-8.85-.74-3.24-.35-1.57-.16-.72-1.41-6.22c-22.15,6.55-45.62,2.66-56,.33-.46,2.1-1,4.3-1.48,6.52-.11.48-.23,1-.35,1.45-.18.77-.37,1.53-.55,2.29-.07.37-.16.72-.25,1.09-.86,3.63-1.76,7.33-2.64,11-.19.77-.35,1.53-.53,2.27-.09.39-.19.76-.28,1.16-.37,1.61-.74,3.23-1.11,4.8-.46,2.11-.9,4.17-1.32,6.2-.16.76-.32,1.5-.46,2.24-.42,2.06-.79,4.07-1.11,6-.28,1.69-.51,3.31-.69,4.91-.07.48-.12,1-.19,1.43-.07.78-.16,1.55-.23,2.31v.32l-1.3,10.55-.2,1.64-.28,2.29-.12,1-1.43,11.53-.28,2.32-.09.74-.32,2.65Z"/><path class="cls-8" d="M136,87.6s3.6-4.56,6.28-.79-1.1,14.92-7.66,12.2Z"/><path class="cls-9" d="M136.09,95.57a.58.58,0,0,0,.53-.39c1-3.44,4.77-4.83,4.81-4.86a.5.5,0,0,0,.32-.65v0a.54.54,0,0,0-.71-.3c-.18.05-4.31,1.58-5.49,5.55a.52.52,0,0,0,.37.64h0Z"/><path class="cls-9" d="M139.88,93.82a.47.47,0,0,0,.3-.08.51.51,0,0,0,.18-.69l0,0a5,5,0,0,0-2.08-1.58.55.55,0,0,0-.73.25.52.52,0,0,0,.25.69h0a4.31,4.31,0,0,1,1.6,1.2A.52.52,0,0,0,139.88,93.82Z"/><path class="cls-7" d="M134.42,98.9a3.9,3.9,0,1,0,5.5-.31l-.18-.16a4,4,0,0,0-1.57-.75.7.7,0,0,1,.14-.74,4.73,4.73,0,0,1,2,1,4.66,4.66,0,1,1-6.59.66Z"/><path class="cls-6" d="M108.27,110.9v13.7s6.36,4.89,11.31,5.33,6.67-5.42,6.67-5.42V111.78Z"/><path class="cls-8" d="M108.27,112.26v5.46c3.33,3.69,9.23,5,18,3.71v-8.31Z"/><path class="cls-6" d="M138.21,92.79c-.16,1.33-.35,2.67-.58,4-1.58,8.89-7.2,18.5-14.3,20.11-15.34,3.48-21.71-8.55-24.16-17.44-.27-1,.24-2.12,0-3.29-.51-2.77-1.63-5.91-1.88-9C97.12,85,97,82.89,96.9,81a12.55,12.55,0,0,1,7.77-12.31c7-2.81,17.76-5,27.9.92a12.67,12.67,0,0,1,6.18,10.72A96.28,96.28,0,0,1,138.21,92.79Z"/><path class="cls-8" d="M118.76,99.68a.61.61,0,0,1-.59-.5.58.58,0,0,1,.48-.68h0l2-.35-2.82-7.5a.59.59,0,1,1,1.11-.42l3.33,8.86-3.47.58Z"/><path class="cls-5" d="M126.1,89.75c0,1.31.67,2.37,1.51,2.37s1.51-1.06,1.51-2.37-.68-2.38-1.51-2.38S126.1,88.43,126.1,89.75Z"/><path class="cls-5" d="M109.4,89.75c0,1.31.67,2.37,1.51,2.37s1.51-1.06,1.51-2.37-.68-2.38-1.51-2.38S109.4,88.43,109.4,89.75Z"/><path class="cls-5" d="M132.05,83.51a29.48,29.48,0,0,0-6.29-.53,1,1,0,0,0-1.14,1.09h0a1,1,0,0,0,1.09.69,32.39,32.39,0,0,1,8.62.53,1.12,1.12,0,0,0-.46-.94A3.55,3.55,0,0,0,132.05,83.51Z"/><path class="cls-5" d="M107.76,83.79a28.77,28.77,0,0,1,6.28-.61c.69,0,1.25.53,1.16,1.08h0a1,1,0,0,1-1.09.7,32.75,32.75,0,0,0-8.61.66,1.08,1.08,0,0,1,.45-.94A3.6,3.6,0,0,1,107.76,83.79Z"/><path class="cls-7" d="M126.1,103.23c-.45,2.09-1.91,5.92-6.86,5.92s-6.34-3.5-6.82-5.92Z"/><path class="cls-8" d="M119.31,112.75a6,6,0,0,0,2.74-.8.59.59,0,0,0,.09-.83.56.56,0,0,0-.7-.17h0a4.83,4.83,0,0,1-2.13.63,5,5,0,0,1-2.24-.63.58.58,0,0,0-.6,1A6.13,6.13,0,0,0,119.31,112.75Z"/><path class="cls-5" d="M138.83,91.4c-.15.11-.28.08-.41-.15-2-3.57-.12-10.7-6.12-13.43a12.71,12.71,0,0,1-6.2-6.36,13.14,13.14,0,0,1-3.77,3.43,108.64,108.64,0,0,1-14.06,6.85,22.36,22.36,0,0,0-4.71,2.37h.13s-2,3.23-.53,8.24-.42,13.27-3.64,15.17c0-.14,2.47-5.85,1.11-10.51-.79-2.67-.78-6.93-1.53-9.48-.83-.56-2.74-1.52-3.38-1.91-.19-2.19-.32-4.35-.41-6.31a12.76,12.76,0,0,1,8.19-12.55c7.43-2.85,18.72-5.12,29.41,1a12.84,12.84,0,0,1,6.51,10.92A95,95,0,0,1,138.83,91.4Z"/><path class="cls-6" d="M99.1,87.56s-4.19-5.08-6.66-1.41S93.62,101,99.67,98.4Z"/><path class="cls-7" d="M99.27,98.59a3.91,3.91,0,1,1-3.35-2.09.89.89,0,0,0,0-.75,4.52,4.52,0,0,0-2.17.46A4.66,4.66,0,1,0,100,98.45Z"/><path class="cls-8" d="M98.19,94.65a.52.52,0,0,1-.49-.39,8,8,0,0,0-4.44-4.71.5.5,0,0,1-.27-.66.52.52,0,0,1,.64-.29,8.83,8.83,0,0,1,5,5.39.51.51,0,0,1-.35.63Z"/><path class="cls-8" d="M94.7,93a.54.54,0,0,1-.28-.08.49.49,0,0,1-.16-.69h0a4.5,4.5,0,0,1,1.92-1.56.51.51,0,0,1,.49.9l-.08,0a3.67,3.67,0,0,0-1.47,1.17A.55.55,0,0,1,94.7,93Z"/><path class="cls-6" d="M321,197.9c-9.75,7-25,11.79-25,11.79l-3.12-11.23-2.44-8.76-1.72-6.18H271.22c.95,3.27,1.93,6.62,2.91,9.92,1.26,4.25,2.52,8.41,3.72,12.25,1.68,5.4,3.24,10.15,4.49,13.55.3.79.64,1.66,1,2.57,2.33,6.31,4.22,13.15,13.14,8.86,7.85-3.78,18.49-9,23.81-12.5Z"/><path class="cls-8" d="M274.13,193.47c1.26,4.25,2.52,8.41,3.72,12.25a25,25,0,0,0,15-7.22l-2.44-8.76Z"/><path class="cls-10" d="M270.42,132.15s18.24,43.5,26.08,57.59c0,0-11,9.35-21.7,9.6C274.8,199.34,268.63,151.59,270.42,132.15Z"/><path class="cls-2" d="M227.73,308.9c.18-3,.35-5.94.51-8.62.64-11,1.06-18.47,1.06-18.47l-4.3-.19-2.42-.11-29.23-1.3s-.53,8.38-1.16,20.68c-.13,2.52-.26,5.21-.39,8Z"/><path class="cls-3" d="M225,281.59l4.3.19s-.42,7.48-1.06,18.47a260.58,260.58,0,0,1-36,.6c.63-12.29,1.16-20.67,1.16-20.67l29.23,1.29Z"/><path class="cls-3" d="M223.47,308.9c.67-11.72,1.23-21.77,1.53-27.28l-2.42-.11c-.31,5.54-.86,15.63-1.54,27.39Z"/><path class="cls-2" d="M237.15,308.9h35.92c-.13-2.8-.26-5.49-.39-8-.63-12.3-1.16-20.68-1.16-20.68l-29.23,1.29-2.42.11-4.3.19s.42,7.49,1.06,18.47C236.79,302.9,237,305.82,237.15,308.9Z"/><path class="cls-3" d="M239.87,281.59l-4.3.19s.42,7.48,1.06,18.47a261.28,261.28,0,0,0,36.05.6c-.63-12.29-1.16-20.67-1.16-20.67l-29.23,1.29Z"/><path class="cls-3" d="M243.83,308.9c-.68-11.77-1.23-21.86-1.54-27.4l-2.42.11c.3,5.51.86,15.56,1.53,27.28Z"/><path class="cls-3" d="M187,259.34v1.78c0,10.69.07,19,.12,23a171.43,171.43,0,0,0,31,5.44l1.4.1.76,0c.55,0,1.11.07,1.66.1l1.85.1a166.64,166.64,0,0,0,21.08-.37c1.42-.12,2.83-.26,4.25-.41h.27l1.09-.13.66-.08a174.94,174.94,0,0,0,24.52-4.77v-10h0c0-4.93,0-11.08-.09-18v-1.8c0-4.62-.09-9.58-.15-14.74v-1.8c-.07-5.3-.15-10.81-.24-16.4-.06-3.41-.12-6.85-.19-10.3s-.14-7-.23-10.46c0-.76,0-1.51-.06-2.27-.8-32.85-2.18-63-4.47-66.41-1.59-2.33-5.23-5.07-9.51-7.84l-1.59-1c-1.83-1.14-16.71-6.19-18.6-7.31l-15.74-1.09c-.09,0-15.14,5.13-15.23,5.18l-2,1.12c-5.57,3.21-11.07,6.6-14.24,9.51a14.28,14.28,0,0,0-1.22,1.24,8.5,8.5,0,0,0-.74.94,4.86,4.86,0,0,0-.55,1.38c-1.9,6.92-2.9,34.1-3.4,63.68l-.09,6.39v5.76c0,1.61,0,3.22,0,4.81v3.54C187,233.07,187,247.54,187,259.34Z"/><path class="cls-6" d="M158.87,301.57c-.39,4.21,4.73,1.93,3.28-6.58s2.66-16.21,4.42-16-1.46,9.29.11,12.54,3.6-3.07,5.63-6.91,2-12.69,1-18.9,10.3-43.93,10.36-54.87l1.37-4.63,5-17,7.86-26.57s-4.71-20.11-12.65-18.39c0,0-4.2,14-8.7,29.81-.76,2.68-1.53,5.43-2.29,8.15-3.2,11.46-6.2,22.77-7.6,29.47-3.7,17.72-4,54.55-4,54.55s-6.52,13.52-6.67,19.54C155.88,292.26,159.25,297.38,158.87,301.57Z"/><path class="cls-8" d="M174.3,182.29l10.76,24,5-17-13.48-15.16C175.83,176.82,175.06,179.56,174.3,182.29Z"/><path class="cls-3" d="M173.77,175.15c4.72,8.09,9.52,16.13,14.3,24.19,1.57-5.27,3.2-10.33,4.73-15h0c.62-1.86,1.21-3.65,1.79-5.37a.11.11,0,0,1,0-.08c.19-.61.39-1.2.59-1.78h0c2.28-6.89,4-12.38,4.55-15.57,1.36-8.61-2.35-25.47-7.58-28.79h0c-.14.3-.55-.64-.8-.06-.92,2.12-5,7.36-7,12.47l-.79,2C180.65,154.66,177.08,164.44,173.77,175.15Z"/><path class="cls-10" d="M231.94,130.39c6.82,0,11.62-6.22,11.82-6.48a.92.92,0,0,0-.12-1.24.79.79,0,0,0-1.12.07l0,.06c-.06.08-4.53,5.83-10.54,5.83s-9.55-6.51-9.59-6.57a.79.79,0,0,0-1.06-.36l-.06,0a.9.9,0,0,0-.3,1.19C221.09,123.24,225.05,130.39,231.94,130.39Z"/><path class="cls-10" d="M260.75,189.94a.71.71,0,0,0,.37-.1.93.93,0,0,0,.37-1.19l-3-6.28a.82.82,0,0,0-1.09-.4h0a.9.9,0,0,0-.36,1.19l3,6.28A.81.81,0,0,0,260.75,189.94Z"/><path class="cls-10" d="M266.94,184.79a.67.67,0,0,0,.37.14.83.83,0,0,0,.88-.77v0l.59-7a.87.87,0,0,0-.73-1h0a.84.84,0,0,0-.89.8l-.59,7A.87.87,0,0,0,266.94,184.79Z"/><path class="cls-10" d="M251,173.9a.87.87,0,0,0,.82-.75l1.07-6.94a.89.89,0,0,0-.68-1,.83.83,0,0,0-1,.65.22.22,0,0,0,0,.08l-1,7a.87.87,0,0,0,.68,1Z"/><path class="cls-10" d="M224.29,176.51a.88.88,0,0,0,.42-.11.94.94,0,0,0,.29-1.22l-3.35-6a.8.8,0,0,0-1.08-.35l-.06,0a.9.9,0,0,0-.29,1.2l3.35,6.06A.81.81,0,0,0,224.29,176.51Z"/><path class="cls-10" d="M257.08,149.38a1,1,0,0,0,.45-.14l5.52-3.83a.92.92,0,0,0,.25-1.23.81.81,0,0,0-1.1-.29l-.05,0-5.52,3.82a.9.9,0,0,0-.25,1.22A.83.83,0,0,0,257.08,149.38Z"/><path class="cls-10" d="M232.46,205.79a1.24,1.24,0,0,0,.38-.09.92.92,0,0,0,.36-1.19l-3-6.28a.8.8,0,0,0-1-.42l-.06,0a.91.91,0,0,0-.37,1.19l3,6.28A.83.83,0,0,0,232.46,205.79Z"/><path class="cls-10" d="M245.52,154.1a.81.81,0,0,0,.7-.41.92.92,0,0,0-.26-1.23l-5.58-3.73a.79.79,0,0,0-1.11.22l0,.06a.93.93,0,0,0,.26,1.22l5.58,3.74A.84.84,0,0,0,245.52,154.1Z"/><path class="cls-10" d="M258.78,128a.77.77,0,0,0,.1.47.8.8,0,0,0,.67.47.85.85,0,0,0,.89-.82l.26-4c-.52-.34-1.05-.68-1.6-1Z"/><path class="cls-10" d="M266.22,166.51a.81.81,0,0,0,.7-.42.92.92,0,0,0-.26-1.22l-5.58-3.73a.8.8,0,0,0-1.1.21l0,.07a.91.91,0,0,0,.26,1.22l5.58,3.73A.63.63,0,0,0,266.22,166.51Z"/><path class="cls-10" d="M221.74,135.9a1,1,0,0,0,.46-.15.94.94,0,0,0,.23-1.23l-3.18-5.16a.8.8,0,0,0-1.1-.29.1.1,0,0,0-.05,0,.91.91,0,0,0-.23,1.23l3.18,5.16A.82.82,0,0,0,221.74,135.9Z"/><path class="cls-10" d="M218.89,225a.75.75,0,0,0,.6-.28l4.56-5.07a1,1,0,0,0,0-1.26.8.8,0,0,0-1.12-.05l-.05.05-4.56,5.08a.91.91,0,0,0,0,1.25A.72.72,0,0,0,218.89,225Z"/><path class="cls-10" d="M235.64,224a.84.84,0,0,0,.59-.27l4.56-5.08a.93.93,0,0,0,0-1.25.79.79,0,0,0-1.12-.06l0,.06-4.56,5.08a.91.91,0,0,0,0,1.25A.82.82,0,0,0,235.64,224Z"/><path class="cls-10" d="M247.68,258.31a1.08,1.08,0,0,0,0-.71l-2.85-6.34a.79.79,0,0,0-1-.44l-.06,0a.89.89,0,0,0-.39,1.18l2.84,6.35a.8.8,0,0,0,1,.45l.07,0A.87.87,0,0,0,247.68,258.31Z"/><path class="cls-10" d="M199.58,279.24a.94.94,0,0,0,0-.7l-2.84-6.35a.82.82,0,0,0-1.06-.43l-.05,0a.91.91,0,0,0-.39,1.18l2.85,6.35a.79.79,0,0,0,1,.44l.06,0A.89.89,0,0,0,199.58,279.24Z"/><path class="cls-10" d="M220.26,289.75l1.66.1.58-4a.89.89,0,0,0-.69-1,.84.84,0,0,0-.95.72v0Z"/><path class="cls-10" d="M213.64,277.81a.9.9,0,0,0,.34-.59l1-7a.88.88,0,0,0-.69-1,.85.85,0,0,0-.95.73h0l-1,7a.9.9,0,0,0,.7,1A.92.92,0,0,0,213.64,277.81Z"/><path class="cls-10" d="M253.65,219.66a.62.62,0,0,0,.41-.12.91.91,0,0,0,.3-1.2l-3.29-6.09a.81.81,0,0,0-1.09-.35l0,0a.91.91,0,0,0-.3,1.2l3.3,6.09A.76.76,0,0,0,253.65,219.66Z"/><path class="cls-10" d="M244,204.44a.81.81,0,0,0,.74-.48l3-6.25a.94.94,0,0,0-.35-1.2.81.81,0,0,0-1.1.34l0,0-3,6.26a.9.9,0,0,0,.36,1.19A.69.69,0,0,0,244,204.44Z"/><path class="cls-10" d="M270.18,203.53a1,1,0,0,0,.31.25.82.82,0,0,0,.86-.15l3.39-3c0-.75,0-1.52-.05-2.27l-4.41,4A.93.93,0,0,0,270.18,203.53Z"/><path class="cls-10" d="M244,138.1a.84.84,0,0,0,.74-.48l3-6.25a.93.93,0,0,0-.36-1.2.8.8,0,0,0-1.1.33.08.08,0,0,0,0,.05l-3,6.26a.9.9,0,0,0,.36,1.19A.8.8,0,0,0,244,138.1Z"/><path class="cls-10" d="M224.68,161h.15a.89.89,0,0,0,.66-1l-1.25-6.91a.84.84,0,0,0-.92-.71h-.08a.88.88,0,0,0-.66,1l1.25,6.91A.83.83,0,0,0,224.68,161Z"/><path class="cls-10" d="M235.44,167.07h.16a.89.89,0,0,0,.66-1L235,159.18a.84.84,0,0,0-.93-.73l-.07,0a.88.88,0,0,0-.66,1l1.25,6.91A.83.83,0,0,0,235.44,167.07Z"/><path class="cls-10" d="M227.73,144.28a.84.84,0,0,0,.7-.41l3.53-5.94a.92.92,0,0,0-.26-1.22.79.79,0,0,0-1.1.2.16.16,0,0,0,0,.07L227,142.9a.91.91,0,0,0,.26,1.22A.76.76,0,0,0,227.73,144.28Z"/><path class="cls-10" d="M260.08,205.54a1,1,0,0,0,.14-1l-2.84-6.35a.79.79,0,0,0-1-.44l-.06,0a.89.89,0,0,0-.39,1.18l2.83,6.35a.8.8,0,0,0,1,.45l.06,0A.83.83,0,0,0,260.08,205.54Z"/><path class="cls-10" d="M238.74,187.12a.85.85,0,0,0,.78-.56l2.39-6.55a.9.9,0,0,0-.47-1.15.81.81,0,0,0-1.06.45.43.43,0,0,0,0,.05l-2.4,6.55a.92.92,0,0,0,.47,1.15A1.33,1.33,0,0,0,238.74,187.12Z"/><path class="cls-10" d="M212.4,227.6a1,1,0,0,0,.37-.1.93.93,0,0,0,.37-1.19l-3-6.28a.82.82,0,0,0-1.09-.41h0a.9.9,0,0,0-.36,1.19l3,6.28A.83.83,0,0,0,212.4,227.6Z"/><path class="cls-10" d="M256.06,272.72a.86.86,0,0,0,1.14.81l.07,0,5.85-3.23a.94.94,0,0,0,.35-1.2.83.83,0,0,0-1.08-.4l0,0-5.84,3.22A.87.87,0,0,0,256.06,272.72Z"/><path class="cls-10" d="M271.92,276.75a1,1,0,0,0,.09.4.81.81,0,0,0,1.07.4l.05,0,2.54-1.41v-2l-3.3,1.82A.89.89,0,0,0,271.92,276.75Z"/><path class="cls-10" d="M247.37,284.57l2,4.56,1.09-.12.66-.07-2.24-5.11a.81.81,0,0,0-1-.46l-.06,0A.9.9,0,0,0,247.37,284.57Z"/><path class="cls-10" d="M201.58,211.59a.86.86,0,0,0,.81-.75l1.08-6.94a.89.89,0,0,0-.69-1,.83.83,0,0,0-1,.63.31.31,0,0,0,0,.1l-1.07,6.94a.87.87,0,0,0,.68,1Z"/><path class="cls-10" d="M200.93,160.35a.65.65,0,0,0,.42-.13.91.91,0,0,0,.29-1.21l-3.35-6a.79.79,0,0,0-1.06-.35l-.07,0a.9.9,0,0,0-.29,1.22l3.35,6A.8.8,0,0,0,200.93,160.35Z"/><path class="cls-10" d="M211.71,185a.93.93,0,0,0,.45-.15l5.52-3.82a.92.92,0,0,0,.25-1.23.81.81,0,0,0-1.1-.29l-.05,0-5.52,3.82a.91.91,0,0,0-.25,1.22A.82.82,0,0,0,211.71,185Z"/><path class="cls-10" d="M270.21,226.25a1,1,0,0,0,.37-.1A.93.93,0,0,0,271,225l-3-6.28a.8.8,0,0,0-1.05-.42l-.06,0a.9.9,0,0,0-.36,1.19l3,6.28A.81.81,0,0,0,270.21,226.25Z"/><path class="cls-10" d="M202.29,194.5a.82.82,0,0,0,.71-.42.94.94,0,0,0-.26-1.22l-5.58-3.74a.81.81,0,0,0-1.11.24l0,0a.9.9,0,0,0,.26,1.22l5.58,3.74A.78.78,0,0,0,202.29,194.5Z"/><path class="cls-10" d="M215.67,203.38a.78.78,0,0,0,.78.21.89.89,0,0,0,.58-1.08l-1.73-6.79a.82.82,0,0,0-1-.64h0a.9.9,0,0,0-.58,1.09l1.73,6.79A.75.75,0,0,0,215.67,203.38Z"/><path class="cls-10" d="M192.13,131.71l1.44,2.33a.78.78,0,0,0,.69.4.66.66,0,0,0,.46-.15.92.92,0,0,0,.24-1.22l-1.61-2.61C192.89,130.9,192.48,131.31,192.13,131.71Z"/><path class="cls-10" d="M185.82,147.15l1.53,2.49a.84.84,0,0,0,.7.4,1,1,0,0,0,.45-.14.94.94,0,0,0,.24-1.23l-2.16-3.55C186.32,145.79,186.08,146.46,185.82,147.15Z"/><path class="cls-10" d="M257.58,248.16a.77.77,0,0,0,.6-.26l4.56-5.08a.93.93,0,0,0,0-1.25.79.79,0,0,0-1.12-.07l-.06.07L257,246.64a.93.93,0,0,0,0,1.26A.77.77,0,0,0,257.58,248.16Z"/><path class="cls-10" d="M227.21,265.9a.82.82,0,0,0,.6-.27l4.56-5.08a.93.93,0,0,0,0-1.25.79.79,0,0,0-1.13-.05.12.12,0,0,0-.05.05l-4.61,5.11a.91.91,0,0,0,0,1.25A.77.77,0,0,0,227.21,265.9Z"/><path class="cls-10" d="M218.79,258.9a1.09,1.09,0,0,0,.18-.68l-.83-7a.84.84,0,0,0-.89-.77h0a.85.85,0,0,0-.72,1h0l.82,7a.84.84,0,0,0,.9.77h0A.84.84,0,0,0,218.79,258.9Z"/><path class="cls-10" d="M236.06,278.54a.79.79,0,0,0,.59-.26l4.56-5.08a.93.93,0,0,0,0-1.25.79.79,0,0,0-1.12-.06L240,272,235.48,277a.91.91,0,0,0,0,1.25A.77.77,0,0,0,236.06,278.54Z"/><path class="cls-10" d="M187,259.34v1.78l5.15.45a.84.84,0,0,0,.89-.78v0a.87.87,0,0,0-.75-1h0Z"/><path class="cls-10" d="M247.24,237.5a.82.82,0,0,0,.6-.27l4.56-5.08a.93.93,0,0,0,0-1.25.79.79,0,0,0-1.12-.06l-.05.06L246.67,236a.91.91,0,0,0,0,1.25A.81.81,0,0,0,247.24,237.5Z"/><path class="cls-10" d="M225.32,235.29a.88.88,0,0,0,.29.62l5,4.53a.79.79,0,0,0,1.11-.05l.06-.06a1,1,0,0,0-.1-1.25l-5-4.53a.79.79,0,0,0-1.13.06.1.1,0,0,0,0,0A.88.88,0,0,0,225.32,235.29Z"/><path class="cls-10" d="M201.32,260.19a.64.64,0,0,0,.42-.12.91.91,0,0,0,.3-1.2l-3.3-6.09a.79.79,0,0,0-1.06-.37l-.07.05a.89.89,0,0,0-.3,1.2l3.29,6.09A.8.8,0,0,0,201.32,260.19Z"/><path class="cls-10" d="M195.58,242.1a.83.83,0,0,0,.73-.48l3-6.25a.94.94,0,0,0-.36-1.21.82.82,0,0,0-1.09.33l0,0-3,6.27a.9.9,0,0,0,.36,1.19A.8.8,0,0,0,195.58,242.1Z"/><path class="cls-10" d="M204.58,171.09a.82.82,0,0,0,.73-.49l3-6.25a.93.93,0,0,0-.36-1.2.82.82,0,0,0-1.09.34s0,0,0,0l-3,6.25a.91.91,0,0,0,.36,1.2A.8.8,0,0,0,204.58,171.09Z"/><path class="cls-10" d="M201.32,144.9h.16a.9.9,0,0,0,.66-1l-1.25-7a.84.84,0,0,0-.94-.72l-.06,0a.87.87,0,0,0-.66,1l1.25,6.91A.84.84,0,0,0,201.32,144.9Z"/><path class="cls-10" d="M186.17,168.69h.16a.88.88,0,0,0,.65-1l-1.24-6.91a.85.85,0,0,0-1-.72h0a.88.88,0,0,0-.66,1l1.25,6.91A.84.84,0,0,0,186.17,168.69Z"/><path class="cls-10" d="M212.09,150.9h.15a.9.9,0,0,0,.66-1L211.65,143a.84.84,0,0,0-.94-.72l-.06,0a.87.87,0,0,0-.65,1l1.24,6.91A.85.85,0,0,0,212.09,150.9Z"/><path class="cls-10" d="M207.15,126.9a.9.9,0,0,0,.46,0,1,1,0,0,0,.53-.64l1.39-6.35-1.95,1-1,4.82A.89.89,0,0,0,207.15,126.9Z"/><path class="cls-10" d="M188.18,179.37a.84.84,0,0,0,.7-.41l3.52-6a.94.94,0,0,0-.25-1.22A.82.82,0,0,0,191,172l0,.06L187.48,178a.94.94,0,0,0,.25,1.24A.87.87,0,0,0,188.18,179.37Z"/><path class="cls-10" d="M211.72,243.19a.93.93,0,0,0,.15-1L209,235.9a.79.79,0,0,0-1-.45l-.06,0a.89.89,0,0,0-.39,1.18l2.83,6.35a.8.8,0,0,0,1,.45l.06,0A.91.91,0,0,0,211.72,243.19Z"/><path class="cls-10" d="M270,255.13l5.54,1v-1.79l-5.26-.93a.84.84,0,0,0-1,.66.22.22,0,0,0,0,.08A.88.88,0,0,0,270,255.13Z"/><path class="cls-10" d="M271.73,238.9l3.69.64v-1.8l-3.4-.59a.83.83,0,0,0-.95.69v0A.87.87,0,0,0,271.73,238.9Z"/><path class="cls-10" d="M190.39,224.76a.83.83,0,0,0,.78-.55l2.39-6.55a.9.9,0,0,0-.47-1.15A.81.81,0,0,0,192,217a.43.43,0,0,0,0,0l-2.4,6.55a.91.91,0,0,0,.47,1.15A.94.94,0,0,0,190.39,224.76Z"/><path class="cls-10" d="M187.35,204.1c1.55-6.43,3.51-13.58,5.45-19.74h0c.6-1.9,1.2-3.71,1.78-5.37v-.09c.18-.52.37-1,.55-1.52a1,1,0,0,0,0-.25h0a.74.74,0,0,0-.48-.68.73.73,0,0,0-.94.43h0c-2,5.42-4.33,13.22-6.35,20.87Z"/><path class="cls-5" d="M211.12,79.9s-5.77-6.37-3.59-13.78,8.14-7.32,8.14-7.32,3.47-7.87,9.4-8.13S236.58,39.9,242,42.76s-.58,9.09-.58,9.09,9.24-9.75,12.28-6.89-4.23,10.52-4.23,10.52,7.76-5.45,10.31-3.37-6.08,11-6.08,11,5.58,10.07,0,14.58Z"/><path class="cls-8" d="M251.46,82s3.69-4.92,6.44-.85S256.76,97.26,250,94.32Z"/><path class="cls-9" d="M251.51,90.62a.57.57,0,0,0,.54-.42c1-3.71,4.89-5.21,4.93-5.23a.58.58,0,0,0,.33-.74.55.55,0,0,0-.73-.33c-.18.07-4.42,1.71-5.62,6a.57.57,0,0,0,.39.7Z"/><path class="cls-9" d="M255.39,88.75a.85.85,0,0,0,.31-.09.59.59,0,0,0,.17-.79,5.1,5.1,0,0,0-2.14-1.71.56.56,0,1,0-.65.91.66.66,0,0,0,.19.09,3.93,3.93,0,0,1,1.64,1.3A.58.58,0,0,0,255.39,88.75Z"/><path class="cls-8" d="M213.41,82s-3.69-4.92-6.43-.85,1.13,16.08,7.85,13.14Z"/><path class="cls-9" d="M213.36,90.62a.57.57,0,0,1-.54-.42c-1-3.71-4.89-5.21-4.93-5.23a.58.58,0,0,1-.25-.77.56.56,0,0,1,.65-.29c.18.07,4.42,1.71,5.62,6a.57.57,0,0,1-.39.7Z"/><path class="cls-9" d="M209.48,88.75a.75.75,0,0,1-.3-.09.57.57,0,0,1-.17-.79h0a4.89,4.89,0,0,1,2.13-1.71.56.56,0,1,1,.47,1h0a4,4,0,0,0-1.64,1.3A.59.59,0,0,1,209.48,88.75Z"/><path class="cls-6" d="M223.35,104.53v12s3.56,6.09,8.39,6.5,9.09-5.24,9.09-5.24V105.37Z"/><path class="cls-8" d="M223.35,104.53v5.31c3.23,3.59,9,4.48,17.48,3.23v-7.7Z"/><path class="cls-6" d="M210.75,73.82a114.27,114.27,0,0,0,1.54,15.11h0v0h0c.22,1.14.46,2.21.73,3.17.16.56.33,1.14.53,1.75,2.83,8.89,9.4,21.75,25.9,15.86,7-2.47,10.57-9.64,12.41-17.44.11-.46.21-.92.3-1.36s.12-.58.18-.86l.08-.42v-.14h0a86.28,86.28,0,0,0,1.17-16.36,12.44,12.44,0,0,0-6.33-10.62c-10.4-5.9-21.37-3.7-28.6-.92A12.4,12.4,0,0,0,210.75,73.82Z"/><path class="cls-5" d="M212.29,88.9h0v0h0c.1.39.68,2.52,1.26,4.92,2.83,8.89,9.4,21.75,25.9,15.87,7-2.48,10.57-9.65,12.41-17.45.11-.46.21-.91.3-1.36s.12-.58.18-.86l.08-.42v-.14h0L250,89a18.56,18.56,0,0,1-2.75,6.39c-2-4.91-12.47-1.64-12.47-1.64h-.05a6.51,6.51,0,0,1-3.94,0S220.49,90.34,218.36,95a67.56,67.56,0,0,1-3.58-6.3l-2.54.17ZM232.8,96c11.78-1.59,9.93,4.75,9.93,4.75a18.74,18.74,0,0,1-3.31,2.51,13.45,13.45,0,0,1-6.93,1.89c-1.81-.08-2.31.29-6.88-2.18a11.41,11.41,0,0,1-2.42-1.83h0C223,99.9,221,94,232.8,96Z"/><path class="cls-5" d="M222.13,82.47c0,1.28.66,2.32,1.47,2.32s1.47-1,1.47-2.32-.66-2.31-1.47-2.31S222.13,81.2,222.13,82.47Z"/><path class="cls-5" d="M240.5,82.47c0,1.28.65,2.32,1.46,2.32s1.47-1,1.47-2.32-.65-2.31-1.47-2.31S240.5,81.2,240.5,82.47Z"/><path class="cls-5" d="M218.37,74.68s6.07-2.4,10.74-.39l-.46,2.61s-6.86-.58-10.32.82A4.41,4.41,0,0,1,218.37,74.68Z"/><path class="cls-5" d="M247.23,74.68s-6.11-2.41-10.82-.38l.47,2.62s6.91-.58,10.39.83A4.56,4.56,0,0,0,247.23,74.68Z"/><path class="cls-8" d="M232.24,92.79a6,6,0,0,1-2.06-.42.58.58,0,0,1-.24-.78.57.57,0,0,1,.67-.27,3.44,3.44,0,0,0,2.28.21.66.66,0,0,0,.28-.53,86.7,86.7,0,0,0-.34-8.69.56.56,0,0,1,.51-.62h0a.58.58,0,0,1,.61.52,85.4,85.4,0,0,1,.34,8.91,1.74,1.74,0,0,1-.83,1.39A2.39,2.39,0,0,1,232.24,92.79Z"/><path class="cls-7" d="M239.48,97.12c-.43,2.17-1.86,6.17-6.69,6.17s-6.2-3.65-6.67-6.17Z"/><path class="cls-5" d="M210.74,73.82a116,116,0,0,0,1.55,15.11l2.54-.18s-.61-3.92-.9-6.48-.76-7.33,1.42-7.93.9-6,3.92-8.4,9.8-3,14.27-.27,9.49-.21,11.55.27,4.86,3.31,4.1,6,1.51,4.26,2.06,7S250,89.07,250,89.07l2.43.49a86.28,86.28,0,0,0,1.17-16.36,12.47,12.47,0,0,0-6.33-10.62c-10.4-5.9-21.37-3.7-28.6-.92A12.43,12.43,0,0,0,210.74,73.82Z"/><path class="cls-3" d="M315.26,201.75c-1.54,14.09-10.74,45.55-17.1,51.71-8.29,8-35.56,24.91-49.77,33.57-2.57,1.57,9.47,12,9.47,12S295.58,282.9,310,270.16c4.08-3.6,12.35-15,21.69-36.56,2.84-6.55,9.7-19.77,9.34-28.39C340.58,195.29,324.86,196.9,315.26,201.75Z"/><path class="cls-6" d="M285.83,282.66s-10.26,3.89-13.9,8.18-8.44,7.92-7.27,9.6,6.49-3.25,6.49-3.25,1.46,5.43,6.63,6,14.93-9.51,14.93-9.51Z"/><path class="cls-2" d="M387.1,241.07v3.15c0,1.19,0,2.52-.08,4q0,1.49-.09,3.15c0,.92-.07,1.89-.11,2.89s-.09,2.08-.14,3.15c-.72,14.75-2.45,35.12-6.24,51.44H300.58c2.66-11.85,6.73-30.57,10-54.86.14-1,.27-2.05.41-3.09s.26-2.1.39-3.16c.07-.56.14-1.13.2-1.7s.11-.93.16-1.4c.15-1.31.29-2.59.41-3.86.1-1,.19-2.09.28-3.1,1.37-16.33.89-28.56,2.85-35.89,2.29-8.53,29-18.3,29-18.3l16.74.87s16,5.21,24.48,12.7,1.4,29.84,1.61,42.53C387.1,240,387.1,240.5,387.1,241.07Z"/><path class="cls-1" d="M387.08,244.22a188.25,188.25,0,0,1-22.26,1.23,331.16,331.16,0,0,1-52.69-4.69c.1-1,.19-2.09.28-3.11,6.43,1.14,43.61,7.29,74.69,3.43C387.1,242,387.1,243,387.08,244.22Z"/><path class="cls-1" d="M387,248.19q0,1.5-.09,3.15a185.36,185.36,0,0,1-22.09,1.2,328.06,328.06,0,0,1-53.46-4.82c.07-.56.14-1.13.2-1.71s.11-.92.16-1.39C315.42,245.29,354.52,252.19,387,248.19Z"/><path class="cls-1" d="M386.8,254.24c-.05,1-.09,2.07-.14,3.14a183.61,183.61,0,0,1-23.08,1.34,331.49,331.49,0,0,1-53-4.75c.14-1,.27-2.05.41-3.09C316.73,251.9,355.14,258.38,386.8,254.24Z"/><path class="cls-3" d="M349.09,199.5c8.32,0,16-8.84,16.33-9.23a.59.59,0,0,0,0-.83.6.6,0,0,0-.84,0l-.05.06c-.08.1-8.12,9.36-16.16,8.8a.6.6,0,0,0-.57.62.58.58,0,0,0,.49.55Z"/><path class="cls-3" d="M356.31,299a.58.58,0,0,0,.54-.62.59.59,0,0,0-.48-.55c-21.49-2.48-30.4-39.68-30.48-40.06a.61.61,0,0,0-.71-.44.59.59,0,0,0-.44.71h0c.37,1.56,9.19,38.39,31.5,40.95Z"/><path class="cls-3" d="M347.75,287.72a.63.63,0,0,0,.5-.28.59.59,0,0,0-.2-.81c-11.43-7.05-13.13-17.44-13.14-17.54a.59.59,0,0,0-.67-.49.57.57,0,0,0-.49.65h0c.06.45,1.77,11,13.69,18.37A.66.66,0,0,0,347.75,287.72Z"/><circle class="cls-5" cx="354.42" cy="144.78" r="23.55"/><path class="cls-5" d="M331.26,140.56s-6.67-1.84-5.79-8.31c.75-5.51,7.22-1.94,6.65-6.25s-1.83-8.22,3.74-9.29c4.87-.94,5,2.4,11.35-2.45,7.55-5.72,13.36,7.53,20.1,7.93,9.95.58,11.21,6.21,12.18,10.71s-2.85,7.66-2.85,7.66Z"/><path class="cls-8" d="M334.83,151.37s-3.73-5-6.5-.86,1.14,16.25,7.93,13.28Z"/><path class="cls-9" d="M334.78,160a.57.57,0,0,1-.55-.42c-1-3.75-4.94-5.27-5-5.29a.56.56,0,0,1-.33-.74.58.58,0,0,1,.74-.33h0c.18.07,4.46,1.73,5.67,6.05a.58.58,0,0,1-.39.71Z"/><path class="cls-9" d="M330.86,158.16a.8.8,0,0,1-.31-.09.57.57,0,0,1-.17-.8,5.19,5.19,0,0,1,2.15-1.73.57.57,0,0,1,.6,1l-.13.07a4,4,0,0,0-1.66,1.31A.59.59,0,0,1,330.86,158.16Z"/><path class="cls-6" d="M361.88,174.1v12.08s-5,5.32-9.84,5.73-7.82-5.35-7.82-5.35V174.94Z"/><path class="cls-8" d="M361.88,174.1v5.36c-3.27,3.63-9.07,4.54-17.66,3.26v-7.78Z"/><path class="cls-6" d="M374.58,143.07A118.47,118.47,0,0,1,373,158.34c-.22,1.17-.48,2.26-.76,3.26-2.54,8.9-8.9,24.16-26.7,17.81-7.86-2.81-11.5-11.57-13.13-20.47a85.58,85.58,0,0,1-1.18-16.53,12.58,12.58,0,0,1,6.39-10.73c10.51-6,21.6-3.73,28.9-.93A12.58,12.58,0,0,1,374.58,143.07Z"/><path class="cls-5" d="M353.26,151.61v1a7.12,7.12,0,0,0,7.11,7.13h.21a6.43,6.43,0,0,0,4.43-2,7,7,0,0,0,2.05-5v-1.13a2.42,2.42,0,0,0-.17-.88,2.53,2.53,0,0,0-.56-.89,2.59,2.59,0,0,0-1.77-.73h-8.81a2.5,2.5,0,0,0-2.26,1.43,2.23,2.23,0,0,0-.24,1Zm1,0a1.46,1.46,0,0,1,1.46-1.47h8.86a1.46,1.46,0,0,1,1.46,1.46v1.13A6,6,0,0,1,364.3,157a5.46,5.46,0,0,1-3.72,1.66h-.21a6.08,6.08,0,0,1-6.07-6.09h0Z"/><path class="cls-5" d="M335.58,151.61v1a7.12,7.12,0,0,0,7.11,7.13h.24a6.41,6.41,0,0,0,4.42-2,7,7,0,0,0,2-5v-1.17a2.49,2.49,0,0,0-.21-1,2.52,2.52,0,0,0-2.29-1.5h-8.81a2.48,2.48,0,0,0-2.41,1.83A2.18,2.18,0,0,0,335.58,151.61Zm1,0a1.46,1.46,0,0,1,1.46-1.47h8.82a1.46,1.46,0,0,1,1.47,1.44v1.15a6.08,6.08,0,0,1-1.75,4.26,5.43,5.43,0,0,1-3.71,1.66h-.22a6.1,6.1,0,0,1-6.07-6.09Z"/><path class="cls-5" d="M373.36,148.68a12.51,12.51,0,0,0-6,1.15c-.24.12-.87.53-.9.55l.5.88a11,11,0,0,1,6.41-1.53Z"/><path class="cls-5" d="M354,151.65l.34-1a10.69,10.69,0,0,0-3.12-.53,6.81,6.81,0,0,0-2.85.56l.45.92a6.34,6.34,0,0,1,2.4-.44A9.79,9.79,0,0,1,354,151.65Z"/><path class="cls-5" d="M332,148.9v1a13.46,13.46,0,0,1,4.17,1.14l.46-.92A13.87,13.87,0,0,0,332,148.9Z"/><path class="cls-5" d="M343.78,152.94c0,1.28-.67,2.33-1.49,2.33s-1.48-1.05-1.48-2.33.66-2.34,1.48-2.34S343.78,151.65,343.78,152.94Z"/><path class="cls-5" d="M361.16,152.94c0,1.28-.67,2.33-1.49,2.33s-1.48-1.05-1.48-2.33.66-2.34,1.48-2.34S361.16,151.65,361.16,152.94Z"/><path class="cls-5" d="M337.47,145.78s6.17-2.45,10.93-.39l-.4,2.21a19.82,19.82,0,0,0-10.19.73C337.49,147.31,337.06,146.82,337.47,145.78Z"/><path class="cls-5" d="M365.74,145.78s-6.18-2.45-10.94-.39l.4,2.21a20,20,0,0,1,10.2.73C365.71,147.31,366.14,146.82,365.74,145.78Z"/><path class="cls-8" d="M351.89,162.72a6,6,0,0,0,2.08-.44.56.56,0,0,0,.31-.74.58.58,0,0,0-.74-.32,3.38,3.38,0,0,1-2.3.22.61.61,0,0,1-.29-.54c-.2-2,.35-8.72.35-8.78a.59.59,0,0,0-.52-.62.57.57,0,0,0-.62.52,82.07,82.07,0,0,0-.35,9,1.75,1.75,0,0,0,.84,1.4A2.24,2.24,0,0,0,351.89,162.72Z"/><path class="cls-7" d="M344.78,165.63c.47,2.36,2,6.71,7.28,6.71s6.74-4,7.25-6.71Z"/><path class="cls-8" d="M352,175.34a6.26,6.26,0,0,0,2.8-.78.6.6,0,0,0,.2-.8.58.58,0,0,0-.8-.2,4,4,0,0,1-4.29,0,.58.58,0,1,0-.6,1A5.91,5.91,0,0,0,352,175.34Z"/><path class="cls-5" d="M334.24,155.19c-.43-2.37-.86-5.42-.55-7,.56-2.77,2.85-4.4,2.09-7.07s2.06-5.55,4.14-6,6.93.55,11.72-1.72c4.56-2.17,12.5-.61,13.79,2.32,1.57,3.54-.56,3.88,3.71,7.71,1.7,1.53-.32,5.5-.61,8.09a15.93,15.93,0,0,0-.1,3v.65h5.15c.56-4,.88-8.42,1.06-12.12a12.58,12.58,0,0,0-8.06-12.31c-7.3-2.8-18.39-5-28.9.93a12.57,12.57,0,0,0-6.39,10.72,89.54,89.54,0,0,0,.62,12.79Z"/><path class="cls-6" d="M371.29,157.41a21.44,21.44,0,0,1,.31-4c.32-1.8.85-3.44,2.69-4.19,1.48-.6,3.06-.61,4.19,1.06,2.77,4.1-.32,16.91-7.11,13.94Z"/><path class="cls-8" d="M372.69,160.5a.59.59,0,0,0,.46-.52c.29-3.88,3.81-6.13,3.84-6.15a.58.58,0,0,0,.18-.79h0a.57.57,0,0,0-.79-.19A10,10,0,0,0,372,159.9a.55.55,0,0,0,.52.6h.17Z"/><path class="cls-8" d="M376.16,157.9a.62.62,0,0,0,.29-.15.58.58,0,0,0,0-.81h0a5.18,5.18,0,0,0-2.45-1.28.56.56,0,0,0-.69.42h0a.58.58,0,0,0,.44.69,4,4,0,0,1,1.88,1A.56.56,0,0,0,376.16,157.9Z"/><path class="cls-3" d="M382.09,194.41c-8.39,12.71-40.48,56.66-47.72,61.76-9.43,6.65-35.13,16.1-49.88,26-5,3.35,6.83,12.82,6.83,12.82s36-10.11,52.16-20.45c4.58-2.93,23.64-22,35.79-39,4.16-5.8,10.94-13.86,11.91-22.43C392.31,203.25,389.21,198,382.09,194.41Z"/><rect class="cls-11" x="216.18" y="296.24" width="104.61" height="12.59" rx="2.31"/><path class="cls-5" d="M216.2,308.82l-19.62-73.63a6.5,6.5,0,0,1,4.58-8,6.18,6.18,0,0,1,1.71-.22h43.27a6.5,6.5,0,0,1,6.27,4.75l21.65,77.07Z"/><path class="cls-11" d="M252.37,231.75l21.48,76.44h4.94l-21.47-76.45A6.55,6.55,0,0,0,251,227H246.1A6.53,6.53,0,0,1,252.37,231.75Z"/><path class="cls-12" d="M241.25,271.21c1.12,4.85-1.9,8.79-6.76,8.79a11.73,11.73,0,0,1-10.83-8.79c-1.12-4.86,1.9-8.8,6.76-8.8A11.74,11.74,0,0,1,241.25,271.21Z"/><path class="cls-3" d="M375.33,37.61a6.61,6.61,0,1,1,6.6-6.62h0A6.63,6.63,0,0,1,375.33,37.61Zm0-11.14A4.53,4.53,0,1,0,379.86,31h0A4.53,4.53,0,0,0,375.33,26.47Z"/><path class="cls-2" d="M399.1,60.76a6.6,6.6,0,1,1,6.6-6.6A6.59,6.59,0,0,1,399.1,60.76Zm0-11.13a4.53,4.53,0,1,0,4.53,4.53h0a4.52,4.52,0,0,0-4.53-4.52Z"/><path class="cls-3" d="M407.26,82.23a1,1,0,0,1-1-1V76.67a1,1,0,1,1,2.07,0v4.56a1,1,0,0,1-1,1Z"/><path class="cls-3" d="M407.26,90.22a1,1,0,0,1-1-1V84.65a1,1,0,1,1,2.07,0v4.57a1,1,0,0,1-1,1Z"/><path class="cls-3" d="M413.67,83.9h-4.09a1,1,0,0,1,0-2.08h4.1a1,1,0,0,1,0,2.08Z"/><path class="cls-3" d="M405,83.9h-4.11a1,1,0,0,1,0-2.08H405a1,1,0,0,1,0,2.08Z"/><path class="cls-4" d="M370.8,56.62a1,1,0,0,1-1-1V51.05a1,1,0,0,1,2.07,0v4.57a1,1,0,0,1-1,1Z"/><path class="cls-4" d="M370.8,64.62a1,1,0,0,1-1-1V59.05a1,1,0,0,1,2.07,0v4.57a1,1,0,0,1-1,1Z"/><path class="cls-4" d="M377.21,58.35H373.1a1,1,0,0,1,0-2.08h4.11a1,1,0,0,1,0,2.08Z"/><path class="cls-4" d="M368.49,58.35h-4.11a1,1,0,0,1,0-2.08h4.11a1,1,0,0,1,0,2.08Z"/><path class="cls-3" d="M68.88,7.29a6.6,6.6,0,1,1,6.6,6.6h0A6.63,6.63,0,0,1,68.88,7.29Zm2.07,0a4.53,4.53,0,1,0,4.53-4.53h0A4.52,4.52,0,0,0,71,7.29Z"/><path class="cls-2" d="M42.36,32.46a6.6,6.6,0,1,1,6.6,6.6A6.59,6.59,0,0,1,42.36,32.46Zm2.07,0A4.53,4.53,0,1,0,49,27.9a4.51,4.51,0,0,0-4.53,4.56Z"/><path class="cls-3" d="M28.63,41.72a1,1,0,0,0,1-1V36.15a1,1,0,1,0-2.08,0v4.57a1,1,0,0,0,1,1Z"/><path class="cls-3" d="M28.63,49.72a1,1,0,0,0,1-1V44.15a1,1,0,1,0-2.08,0v4.57a1,1,0,0,0,1,1Z"/><path class="cls-3" d="M22.22,43.43h4.1a1,1,0,0,0,0-2.07h-4.1a1,1,0,1,0,0,2.07Z"/><path class="cls-3" d="M30.94,43.43H35a1,1,0,0,0,0-2.07h-4.1a1,1,0,1,0,0,2.07Z"/><path class="cls-4" d="M52.5,6.61a1,1,0,0,0,1-1V1a1,1,0,1,0-2.07,0V5.61a1,1,0,0,0,1,1Z"/><path class="cls-4" d="M52.5,14.6a1,1,0,0,0,1-1V9a1,1,0,1,0-2.07,0v4.57a1,1,0,0,0,1,1Z"/><path class="cls-4" d="M46.08,8.32h4.11a1,1,0,0,0,0-2.07H46.08a1,1,0,1,0,0,2.07Z"/><path class="cls-4" d="M54.8,8.32h4.11a1,1,0,0,0,0-2.07H54.8a1,1,0,1,0,0,2.07Z"/><path class="cls-2" d="M323.58,14.3V34.41a4.83,4.83,0,0,1-4.81,4.81H282.29l-11,4a1.4,1.4,0,0,1-1.79-.85,1.35,1.35,0,0,1,0-1l4.17-10.78V14.3a4.81,4.81,0,0,1,4.82-4.82h40.33A4.81,4.81,0,0,1,323.58,14.3Z"/><g class="cls-13"><path class="cls-1" d="M315.91,20H282.42a1.34,1.34,0,0,1-1.33-1.34h0a1.34,1.34,0,0,1,1.33-1.33h33.49a1.34,1.34,0,0,1,1.33,1.33h0A1.34,1.34,0,0,1,315.91,20Z"/><path class="cls-1" d="M315.91,25.34H282.42A1.34,1.34,0,0,1,281.09,24h0a1.32,1.32,0,0,1,1.33-1.33h33.49A1.33,1.33,0,0,1,317.24,24h0A1.34,1.34,0,0,1,315.91,25.34Z"/><path class="cls-1" d="M315.91,30.68H282.42a1.32,1.32,0,0,1-1.33-1.33h0A1.34,1.34,0,0,1,282.42,28h33.49a1.34,1.34,0,0,1,1.33,1.33h0A1.33,1.33,0,0,1,315.91,30.68Z"/></g><rect class="cls-4" x="26.85" y="308.84" width="404.45" height="15.73" rx="7.51"/><path class="cls-3" d="M431.3,316.35v.36H26.85v-.36a7.51,7.51,0,0,1,7.51-7.51H423.79a7.51,7.51,0,0,1,7.51,7.5Z"/></g></g></g></svg>