<svg xmlns="http://www.w3.org/2000/svg" width="38.344" height="36.17" viewBox="0 0 38.344 36.17"><defs><style>.a{fill:#707070;}</style></defs><path class="a" d="M40.646,20.928H17.328l9.044-8.652a3.6,3.6,0,0,0,0-4.925,3.222,3.222,0,0,0-4.707,0L6.606,21.952a3.319,3.319,0,0,0-.981,2.441v.044a3.319,3.319,0,0,0,.981,2.441l15.048,14.6a3.222,3.222,0,0,0,4.707,0,3.6,3.6,0,0,0,0-4.925L17.317,27.9H40.635a3.411,3.411,0,0,0,3.334-3.487A3.375,3.375,0,0,0,40.646,20.928Z" transform="translate(-5.625 -6.33)"/></svg>