<svg xmlns="http://www.w3.org/2000/svg" width="17.2" height="19" viewBox="0 0 17.2 19"><defs><style>.a{fill:none;stroke:#6aa9ff;stroke-linecap:round;stroke-linejoin:round;}</style></defs><g transform="translate(-4 -2.5)"><path class="a" d="M27.9,5.7A2.7,2.7,0,1,1,25.2,3,2.7,2.7,0,0,1,27.9,5.7Z" transform="translate(-7.2)"/><path class="a" d="M9.9,16.2a2.7,2.7,0,1,1-2.7-2.7A2.7,2.7,0,0,1,9.9,16.2Z" transform="translate(0 -4.2)"/><path class="a" d="M27.9,26.7A2.7,2.7,0,1,1,25.2,24,2.7,2.7,0,0,1,27.9,26.7Z" transform="translate(-7.2 -8.4)"/><path class="a" d="M12.885,20.265l6.147,3.582" transform="translate(-3.354 -6.906)"/><path class="a" d="M19.023,9.765l-6.138,3.582" transform="translate(-3.354 -2.706)"/></g></svg>