<svg xmlns="http://www.w3.org/2000/svg" width="166.557" height="124.104" viewBox="0 0 166.557 124.104"><defs><style>.a{fill:#ebebeb;}.b{fill:#e6e6e6;}.c{fill:#f5f5f5;}.d,.l,.n,.q{fill:#fff;}.e,.n{opacity:0.4;}.f{fill:#f0f0f0;}.g,.m,.s{fill:#407bff;}.h,.u{opacity:0.3;}.i{opacity:0.2;}.j{fill:#263238;}.k,.s{opacity:0.6;}.l{opacity:0.7;}.m{opacity:0.1;}.o{fill:#b65b52;}.p{fill:#b55b52;}.q,.v{opacity:0.5;}.r,.u{fill:#fafafa;}.t{fill:#a02724;}</style></defs><g transform="translate(0 0)"><rect class="a" width="166.557" height="0.083" transform="translate(0 109.061)"/><rect class="a" width="11.033" height="0.083" transform="translate(16.689 114.421)"/><rect class="a" width="2.895" height="0.083" transform="translate(56.223 115.327)"/><rect class="a" width="6.392" height="0.083" transform="translate(28.055 111.33)"/><rect class="a" width="14.387" height="0.083" transform="translate(134.694 111.89)"/><rect class="a" width="2.109" height="0.083" transform="translate(129.618 111.89)"/><rect class="a" width="31.206" height="0.083" transform="translate(91.556 113.295)"/><path class="a" d="M40.112,149.2h64.321a1.9,1.9,0,0,0,1.9-1.9V56.885a1.9,1.9,0,0,0-1.9-1.885H40.112a1.9,1.9,0,0,0-1.9,1.9v90.4A1.9,1.9,0,0,0,40.112,149.2Zm64.321-94.138a1.819,1.819,0,0,1,1.815,1.819V147.3a1.819,1.819,0,0,1-1.815,1.819H40.112a1.822,1.822,0,0,1-1.819-1.819V56.885a1.822,1.822,0,0,1,1.819-1.819Z" transform="translate(47.497 -55)"/><path class="a" d="M256.4,149.2H320.72a1.905,1.905,0,0,0,1.9-1.9V56.885A1.905,1.905,0,0,0,320.72,55H256.4a1.9,1.9,0,0,0-1.9,1.885V147.3A1.9,1.9,0,0,0,256.4,149.2ZM320.72,55.067a1.822,1.822,0,0,1,1.819,1.819V147.3a1.822,1.822,0,0,1-1.819,1.819H256.4a1.822,1.822,0,0,1-1.819-1.819V56.885a1.822,1.822,0,0,1,1.819-1.819Z" transform="translate(-240.842 -55)"/><rect class="b" width="77.179" height="51.323" transform="translate(29.704 11.199)"/><rect class="c" width="77.179" height="51.323" transform="translate(30.9 11.199)"/><rect class="d" width="46.506" height="72.892" transform="translate(105.937 13.604) rotate(90)"/><rect class="b" width="46.506" height="0.903" transform="translate(105.933 13.608) rotate(90)"/><rect class="c" width="75.407" height="3.235" transform="translate(31.786 45.653)"/><g class="e" transform="translate(26.896 8.664)"><rect class="b" width="7.285" height="43.418" transform="translate(76.293)"/><rect class="c" width="3.611" height="39.93" transform="translate(72.679)"/><rect class="b" width="7.285" height="43.418" transform="translate(65.394)"/><rect class="c" width="3.611" height="39.93" transform="translate(61.779)"/><rect class="b" width="7.285" height="43.418" transform="translate(54.494)"/><rect class="c" width="3.611" height="39.93" transform="translate(50.88)"/><rect class="b" width="7.285" height="43.418" transform="translate(43.595)"/><rect class="c" width="3.611" height="39.93" transform="translate(39.98)"/><rect class="b" width="7.285" height="43.418" transform="translate(32.695)"/><rect class="c" width="3.611" height="39.93" transform="translate(29.084)"/><rect class="b" width="7.285" height="43.418" transform="translate(21.799)"/><rect class="c" width="3.611" height="39.93" transform="translate(18.185)"/><rect class="b" width="7.285" height="43.418" transform="translate(10.899)"/><rect class="c" width="3.611" height="39.93" transform="translate(7.285)"/><rect class="b" width="7.285" height="43.418" transform="translate(0)"/></g><rect class="a" width="17.085" height="35.11" transform="translate(121.893 73.951)"/><path class="c" d="M86.194,368.082h3.245V360.93H82.79Z" transform="translate(49.539 -259.021)"/><rect class="a" width="17.085" height="35.11" transform="translate(24.411 73.951)"/><rect class="c" width="100.314" height="30.723" transform="translate(38.664 73.951)"/><path class="b" d="M284.12,303.177h29.737a.273.273,0,0,0,.273-.273v-19.45a.273.273,0,0,0-.273-.273h-5.49a.259.259,0,0,0-.163.053,9.625,9.625,0,0,1-2.682,1.376,11.306,11.306,0,0,1-3.591.573h-5.883a10.579,10.579,0,0,1-6.292-1.939.257.257,0,0,0-.16-.053H284.1a.273.273,0,0,0-.273.273V302.9a.273.273,0,0,0,.29.273Zm29.464-.546H284.393V283.736h5.13a11.136,11.136,0,0,0,6.526,2h5.883a11.814,11.814,0,0,0,3.764-.6,10.191,10.191,0,0,0,2.758-1.4h5.13Z" transform="translate(-242.121 -207.17)"/><path class="b" d="M188.173,303.177h29.74a.273.273,0,0,0,.273-.273v-19.45a.273.273,0,0,0-.273-.273H212.72a.259.259,0,0,0-.163.053,9.541,9.541,0,0,1-2.665,1.376,11.305,11.305,0,0,1-3.591.573h-5.883a10.549,10.549,0,0,1-6.266-1.949.273.273,0,0,0-.163-.053h-5.816a.27.27,0,0,0-.273.273v19.44a.273.273,0,0,0,.273.283Zm29.464-.546H188.446V283.736h5.436a11.123,11.123,0,0,0,6.519,2h5.883a11.814,11.814,0,0,0,3.764-.6,10.071,10.071,0,0,0,2.762-1.4h4.83Z" transform="translate(-114.222 -207.17)"/><path class="b" d="M92.237,303.177h29.737a.273.273,0,0,0,.273-.273v-19.45a.27.27,0,0,0-.273-.273H116.78a.256.256,0,0,0-.16.053,9.624,9.624,0,0,1-2.665,1.376,11.326,11.326,0,0,1-3.594.573h-5.883a10.576,10.576,0,0,1-6.273-1.949.259.259,0,0,0-.163-.053h-5.79a.273.273,0,0,0-.273.273v19.44A.273.273,0,0,0,92.237,303.177Zm29.464-.546H92.51V283.736h5.413a11.133,11.133,0,0,0,6.522,2h5.9a11.785,11.785,0,0,0,3.764-.6,10.067,10.067,0,0,0,2.762-1.4h4.83Z" transform="translate(13.67 -207.17)"/><path class="c" d="M367.225,368.082H363.98V360.93h6.646Z" transform="translate(-325.316 -259.021)"/><path class="b" d="M133.136,182.628h2.695c-.02-1.865,0-6.6.19-17.452.333-19.654.956-20.866.956-20.866l-3.195,9.707a26.289,26.289,0,0,0-1.312,7.062C132.117,168.647,133.449,174.69,133.136,182.628Z" transform="translate(-14.528 -114.56)"/><path class="b" d="M158.773,142.62c-3.594-5.44-10.77-8.278-18.1-10.949-2.878-1.049,5.2,11.965,11.079,17.868,4.564,4.584,8.994,4.48,10.3,8.994C162.3,153.289,161.871,147.306,158.773,142.62Z" transform="translate(-42.213 -106.09)"/><path class="b" d="M84.315,112.919c2.818-6.362,9.937-14.614,17.938-20.427,3.141-2.282-4.61,17.322-10.077,25.337-4.257,6.249-8.228,10.053-8.847,14.51C80.644,126.763,81.5,119.278,84.315,112.919Z" transform="translate(36.362 -79.881)"/><path class="f" d="M125.546,254.939h0a5.966,5.966,0,0,1-5.956-5.626l-.53-5.393h12.971l-.526,5.393A5.969,5.969,0,0,1,125.546,254.939Z" transform="translate(-5.135 -180.988)"/><path class="f" d="M130.35,240.175H115.7l-.42-1.915h15.49Z" transform="translate(-2.614 -177.214)"/><path class="f" d="M131.154,250.035h-13.2l-.38-1.915h13.964Z" transform="translate(-4.141 -183.789)"/></g><g transform="translate(18.691 116.563)"><ellipse class="c" cx="64.587" cy="3.771" rx="64.587" ry="3.771" transform="translate(0)"/></g><g transform="translate(31.549 87.719)"><rect class="g" width="103.455" height="11.712" transform="translate(0.003)"/><rect class="h" width="22.192" height="11.712"/><rect class="g" width="11.422" height="20.903" transform="translate(92.036 11.712)"/><path class="h" d="M106.139,353.49v1.169L98.051,357.1v17.292H94.72v-20.9Z" transform="translate(-2.684 -341.778)"/><rect class="g" width="11.422" height="20.903" transform="translate(0 11.712)"/><rect class="i" width="11.422" height="20.903" transform="translate(0 11.712)"/><path class="h" d="M382.422,353.49v1.169l-8.091,2.442v17.292H371v-20.9Z" transform="translate(-371 -341.778)"/><rect class="g" width="11.422" height="20.903" transform="translate(22.192 11.712)"/><path class="h" d="M315.8,353.49v1.169l-8.091,2.442v17.292H304.38v-20.9Z" transform="translate(-282.188 -341.778)"/><rect class="g" width="11.422" height="20.903" transform="translate(69.844 11.712)"/><rect class="i" width="11.422" height="20.903" transform="translate(69.844 11.712)"/><path class="h" d="M172.752,353.49v1.169l-8.091,2.442v17.292H161.33v-20.9Z" transform="translate(-91.486 -341.778)"/></g><g transform="translate(41.575 27.237)"><path class="j" d="M172.523,222.531h63.252A1.426,1.426,0,0,0,237.207,221l-2.6-41.336a1.666,1.666,0,0,0-1.629-1.532H169.724a1.426,1.426,0,0,0-1.432,1.532L170.9,221a1.666,1.666,0,0,0,1.626,1.532Z" transform="translate(-168.288 -164.351)"/><path class="k" d="M172.523,222.531h63.252A1.426,1.426,0,0,0,237.207,221l-2.6-41.336a1.666,1.666,0,0,0-1.629-1.532H169.724a1.426,1.426,0,0,0-1.432,1.532L170.9,221a1.666,1.666,0,0,0,1.626,1.532Z" transform="translate(-168.288 -164.351)"/><path class="j" d="M171.1,222.531h63.248A1.426,1.426,0,0,0,235.787,221l-2.6-41.336a1.666,1.666,0,0,0-1.629-1.532H168.3a1.422,1.422,0,0,0-1.432,1.532l2.6,41.336a1.666,1.666,0,0,0,1.626,1.532Z" transform="translate(-166.395 -164.351)"/><path class="j" d="M131.436,313H206.7a1.835,1.835,0,0,1,1.666,1.029.526.526,0,0,1-.483.753H130.27a.526.526,0,0,1-.483-.753A1.829,1.829,0,0,1,131.436,313Z" transform="translate(-126.649 -254.294)"/><path class="k" d="M325.286,313h10.7a1.825,1.825,0,0,1,1.649,1.029.526.526,0,0,1-.48.753H324.12a.526.526,0,0,1-.483-.753A1.829,1.829,0,0,1,325.286,313Z" transform="translate(-320.499 -254.294)"/><path class="g" d="M332.123,315.926h2.765a.243.243,0,0,0,.24-.243h0a.243.243,0,0,0-.24-.243h-2.765a.243.243,0,0,0-.243.243h0A.243.243,0,0,0,332.123,315.926Z" transform="translate(-320.7 -255.921)"/><path class="l" d="M225.393,315.926h2.762a.243.243,0,0,0,.243-.243h0a.243.243,0,0,0-.243-.243h-2.761a.243.243,0,0,0-.243.243h0A.243.243,0,0,0,225.393,315.926Z" transform="translate(-178.417 -255.921)"/><rect class="g" width="2.209" height="0.486" rx="0.243" transform="translate(8.362 59.519)"/><path class="d" d="M237.221,224.374,234.8,186.023a.643.643,0,0,0-.633-.593H171.714a.55.55,0,0,0-.556.593l2.415,38.351a.646.646,0,0,0,.636.593h62.452a.556.556,0,0,0,.56-.593Z" transform="translate(-169.255 -169.219)"/><path class="m" d="M167.615,181.88l20.8,39.541h15.347a.553.553,0,0,0,.56-.6l-2.418-38.348a.646.646,0,0,0-.633-.6Z" transform="translate(-135.179 -166.852)"/><path class="m" d="M255.5,181.88l20.8,39.541h4.85l-20.8-39.541Z" transform="translate(-241.282 -166.852)"/><path class="m" d="M285.781,182.476l2.418,38.348a.643.643,0,0,0,.633.6h23.651l-20.8-39.541h-5.33a.556.556,0,0,0-.57.6Z" transform="translate(-282.7 -166.851)"/><path class="n" d="M272.937,181.1a.486.486,0,0,0,.476.45.416.416,0,0,0,.42-.45.483.483,0,0,0-.476-.45.416.416,0,0,0-.42.45Z" transform="translate(-239.772 -166.031)"/><path class="j" d="M237.833,150.021c1.822,2.085,2.875,8.478,1.526,11.622s14.3,6.293,1.389,11.4-23.245-.816-19.507-6.109-.4-14.107,3.924-16.323C229.075,148.6,234.182,145.84,237.833,150.021Z" transform="translate(-194.348 -144.15)"/><path class="o" d="M176.62,229.006c.683,2.332,1.409,4.664,2.162,7s1.536,4.637,2.365,6.952l.316.873.16.436.05.13.08.2c.05.127.127.263.193.393a3.628,3.628,0,0,0,1.4,1.419,3.8,3.8,0,0,0,1.746.46,6.442,6.442,0,0,0,2.5-.49,14.04,14.04,0,0,0,1.875-.929,29.837,29.837,0,0,0,5.956-4.817l-1.436-1.692c-.483.31-1,.64-1.5.949s-1.023.61-1.529.906a30.357,30.357,0,0,1-3.068,1.569,10.4,10.4,0,0,1-1.479.523,2.694,2.694,0,0,1-1.086.127c-.093,0-.077-.053,0-.023s.16.117.163.107,0,0,0-.02a.042.042,0,0,1,0-.02l-.027-.083-.127-.43-.257-.866-2.035-7q-1.039-3.5-2.139-7Z" transform="translate(-129.274 -197.395)"/><path class="p" d="M170.456,258.432,174.326,257l-1.536,4.091s-2.732.393-3.791-1.043l.863-1.156A1.332,1.332,0,0,1,170.456,258.432Z" transform="translate(-105.641 -216.948)"/><path class="p" d="M163.717,258.176l-1.472,3.354-3.494-.46,1.539-4.091Z" transform="translate(-91.617 -216.935)"/><path class="g" d="M221.021,212.964c1.772.45,3,7.735,3,7.735l-4.88,3.331s-4.664-7.348-3.314-9.294C217.257,212.694,218.44,212.307,221.021,212.964Z" transform="translate(-170.851 -187.386)"/><path class="q" d="M221.021,212.964c1.772.45,3,7.735,3,7.735l-4.88,3.331s-4.664-7.348-3.314-9.294C217.257,212.694,218.44,212.307,221.021,212.964Z" transform="translate(-170.851 -187.386)"/><path class="i" d="M225.451,221.5l-3.788.876-.363,3.708a42.757,42.757,0,0,0,2.122,3.821l2.961-2A32.562,32.562,0,0,0,225.451,221.5Z" transform="translate(-175.12 -193.274)"/><path class="g" d="M245.629,211.06s2.049.72-2.052,25.923H226.135c.293-7.1.3-11.479-3.091-26.046a51.3,51.3,0,0,1,7.405-.976,55.094,55.094,0,0,1,7.921,0C241.771,210.271,245.629,211.06,245.629,211.06Z" transform="translate(-195.458 -185.482)"/><path class="q" d="M245.629,211.06s2.049.72-2.052,25.923H226.135c.293-7.1.3-11.479-3.091-26.046a51.3,51.3,0,0,1,7.405-.976,55.094,55.094,0,0,1,7.921,0C241.771,210.271,245.629,211.06,245.629,211.06Z" transform="translate(-195.458 -185.482)"/><path class="i" d="M282.2,233.48l-2.252,1.919c.48,2.548.8,4.664,1,6.559C281.377,240.066,282.45,234.929,282.2,233.48Z" transform="translate(-250.51 -201.263)"/><path class="p" d="M244.92,183.47c.5,2.548,1,7.219-.786,8.921a6.788,6.788,0,0,0,6.079,3.817c4.414,0,1.842-3.817,1.842-3.817-2.841-.666-2.768-2.788-2.275-4.767Z" transform="translate(-209.143 -167.912)"/><path class="r" d="M244.294,206.941c.42.849,1.772,2.792,5.55,3.484a.42.42,0,0,0,.3-.06,2.526,2.526,0,0,0,.836-2.745.413.413,0,0,1,.553-.493,5.269,5.269,0,0,1,.833.44.4.4,0,0,1,.137.153c.276.52,1.4,3.065-1.982,4.634a.506.506,0,0,1-.17.04,8.078,8.078,0,0,1-7.7-4.33.42.42,0,0,1,.037-.46,4.3,4.3,0,0,1,1.023-.823.406.406,0,0,1,.583.16Z" transform="translate(-208.737 -183.415)"/><path class="r" d="M257.159,236.089l4.5-.13a.333.333,0,0,0,.333-.37l-.043-.556a.387.387,0,0,0-.39-.333l-4.5.13a.333.333,0,0,0-.333.373l.043.553A.386.386,0,0,0,257.159,236.089Z" transform="translate(-222.528 -202.077)"/><path class="i" d="M253.3,188.56l2.878,2.455a8.084,8.084,0,0,0-.246,1.406,3.511,3.511,0,0,1-2.692-2.485A3.811,3.811,0,0,1,253.3,188.56Z" transform="translate(-215.537 -171.307)"/><path class="p" d="M240.2,155.038c.8,4.187,1.053,5.976,3.464,7.865,3.628,2.845,8.594.939,9.054-3.4.416-3.907-.966-10.1-5.33-11.243a5.813,5.813,0,0,0-7.189,6.779Z" transform="translate(-207.776 -144.301)"/><path class="j" d="M274.653,154.4c.52,2.622.643,6.1-1.759,6.1s-4.284-4.087-2.212-7.289S274.35,152.85,274.653,154.4Z" transform="translate(-239.852 -146.756)"/><path class="j" d="M238.982,144.729c0,2.851,3.591,1.442,5.18.213s1.666-1.1,4.61-1.1,3.534-.207,4.4-1.612.789-2.332-1.169-2.035-.313-1.7-1.772-2.811-3.188-.829-5.183,1.7S238.982,139.788,238.982,144.729Z" transform="translate(-208.332 -136.766)"/><ellipse class="d" cx="2.432" cy="1.576" rx="2.432" ry="1.576" transform="translate(32.389 16.797) rotate(-106.34)"/><path class="d" d="M259.635,161.43a5.7,5.7,0,0,0,2.248-.463.123.123,0,0,0,.068-.164.13.13,0,0,0-.167-.067,5.446,5.446,0,0,1-4.241.023,5.3,5.3,0,0,1-2.9-2.915c-1-2.861-2.019-6.432-.839-8.661a3.428,3.428,0,0,1,2.3-1.709.126.126,0,0,0-.063-.243,3.681,3.681,0,0,0-2.455,1.832c-1.226,2.3-.2,5.943.826,8.857a5.56,5.56,0,0,0,3.055,3.058,5.763,5.763,0,0,0,2.175.45Z" transform="translate(-221.263 -143.743)"/><path class="s" d="M273.475,175.926c.3,1,.976,1.7,1.519,1.546s.743-1.109.446-2.122-.976-1.706-1.519-1.546S273.179,174.913,273.475,175.926Z" transform="translate(-241.649 -161.451)"/><rect class="d" width="2.175" height="0.923" rx="0.461" transform="translate(42.17 17.246) rotate(169.08)"/><path class="t" d="M244.65,170.05a9.231,9.231,0,0,0,1.506,2.032,1.489,1.489,0,0,1-1.2.39Z" transform="translate(-202.67 -158.963)"/><path class="j" d="M253.426,181.2h-.03a3,3,0,0,1-2.1-.64.067.067,0,0,1,0-.093.063.063,0,0,1,.09,0,2.888,2.888,0,0,0,2,.61.063.063,0,0,1,.073.057A.067.067,0,0,1,253.426,181.2Z" transform="translate(-212.182 -165.894)"/><path class="j" d="M258.543,162.846a.127.127,0,0,1-.123,0,.133.133,0,0,1-.04-.18,1.955,1.955,0,0,1,1.516-.946.133.133,0,0,1,.133.13.13.13,0,0,1-.127.13,1.7,1.7,0,0,0-1.3.826A.13.13,0,0,1,258.543,162.846Z" transform="translate(-221.11 -153.407)"/><path class="j" d="M254.624,168.825c.057.333.286.59.513.553s.356-.333.3-.693-.29-.59-.513-.553S254.564,168.482,254.624,168.825Z" transform="translate(-215.283 -157.681)"/><path class="j" d="M242.964,166.844c.057.333.286.59.513.553s.356-.35.3-.693-.29-.593-.513-.553S242.9,166.5,242.964,166.844Z" transform="translate(-199.739 -156.36)"/><path class="j" d="M242.46,165.51l.786-.38S242.933,165.846,242.46,165.51Z" transform="translate(-199.031 -155.681)"/><path class="j" d="M254.12,167.5l.786-.376S254.593,167.836,254.12,167.5Z" transform="translate(-214.575 -157.009)"/><path class="j" d="M243.056,159.962a.13.13,0,0,1-.133,0,1.665,1.665,0,0,0-1.506-.333.131.131,0,0,1-.087-.247,1.932,1.932,0,0,1,1.749.36.123.123,0,0,1,.023.18A.1.1,0,0,1,243.056,159.962Z" transform="translate(-198.512 -151.799)"/><path class="g" d="M248.828,295.617a13.2,13.2,0,0,0-.666-4.247H230.723a19.106,19.106,0,0,0-1.975,4.247Z" transform="translate(-200.046 -239.869)"/><path class="g" d="M229.232,288.029l-.137,1.559c-.063.123.08.246.283.246h17.655c.157,0,.286-.077.3-.177l.16-1.562c0-.107-.127-.2-.3-.2H229.535A.333.333,0,0,0,229.232,288.029Z" transform="translate(-198.818 -237.551)"/><path class="u" d="M229.232,288.029l-.137,1.559c-.063.123.08.246.283.246h17.655c.157,0,.286-.077.3-.177l.16-1.562c0-.107-.127-.2-.3-.2H229.535A.333.333,0,0,0,229.232,288.029Z" transform="translate(-198.818 -237.551)"/><path class="g" d="M276.152,289.732h-.473c-.1,0-.167-.047-.16-.107l.22-2.029c0-.06.09-.107.183-.107h.483c.1,0,.167.047.16.107l-.22,2.029A.2.2,0,0,1,276.152,289.732Z" transform="translate(-243.363 -237.282)"/><path class="g" d="M233.882,289.732h-.473c-.093,0-.167-.047-.16-.107l.223-2.029c0-.06.087-.107.183-.107h.473c.093,0,.167.047.16.107l-.223,2.029C234.059,289.685,233.975,289.732,233.882,289.732Z" transform="translate(-187.006 -237.282)"/><path class="g" d="M254.979,289.732h-.46c-.093,0-.167-.047-.16-.107l.223-2.029c0-.06.09-.107.183-.107h.473c.093,0,.167.047.16.107l-.223,2.029A.2.2,0,0,1,254.979,289.732Z" transform="translate(-215.148 -237.282)"/><path class="o" d="M293.943,228q-1.149,3.731-2.209,7.5l-1.063,3.751-.53,1.865-.133.46-.067.23-.017.053h0l.053-.083a1.332,1.332,0,0,1,.306-.313,1.665,1.665,0,0,1,.893-.316,1.5,1.5,0,0,1,.706.14c.24.13.217.16.2.137a1.1,1.1,0,0,1-.153-.163,6.038,6.038,0,0,1-.433-.616c-.293-.48-.583-1.019-.856-1.572-.566-1.106-1.076-2.279-1.592-3.458s-1-2.372-1.5-3.574-.976-2.412-1.469-3.6l-2.129.633c.553,2.6,1.2,5.15,2,7.692.393,1.276.829,2.538,1.332,3.818.26.64.536,1.279.879,1.942a9.865,9.865,0,0,0,.613,1.039,4.9,4.9,0,0,0,.466.593,3.1,3.1,0,0,0,.966.736,2.469,2.469,0,0,0,1.179.246,2.428,2.428,0,0,0,1.332-.49,2.748,2.748,0,0,0,.63-.666,3.624,3.624,0,0,0,.283-.516c.03-.073.063-.15.087-.217l.063-.163.087-.237.173-.47c.227-.623.456-1.246.666-1.869.426-1.246.853-2.488,1.252-3.738q1.226-3.744,2.285-7.525Z" transform="translate(-267.85 -197.609)"/><path class="g" d="M282.442,212.988c-1.749.53-4.424,7.388-4.424,7.388l6.779,4.847s3.048-5.863,2.315-8.121C286.346,214.75,284.434,212.381,282.442,212.988Z" transform="translate(-254.856 -187.533)"/><path class="q" d="M282.442,212.988c-1.749.53-4.424,7.388-4.424,7.388l6.779,4.847s3.048-5.863,2.315-8.121C286.346,214.75,284.434,212.381,282.442,212.988Z" transform="translate(-254.856 -187.533)"/><path class="p" d="M320.845,223.847l.929-4.1-3.864,2.039s-.047,2.758,1.512,3.628Z" transform="translate(-302.693 -192.107)"/><path class="p" d="M320.375,209.99l-2.465,1.749.22,3.541,3.864-2.039Z" transform="translate(-302.913 -185.598)"/></g><g transform="translate(87.748 9.057)"><path class="g" d="M130.743,148.09H103.761a3.724,3.724,0,0,0-3.751,4l.753,12.212a4.33,4.33,0,0,0,4.244,4h3.125l-1.276,4.194,6.1-4.194h19.021a3.724,3.724,0,0,0,3.751-4l-.746-12.212A4.331,4.331,0,0,0,130.743,148.09Z" transform="translate(-90.242 -126.137)"/><path class="d" d="M118.8,164.256h22.818a.7.7,0,0,0,.693-.763h0a.813.813,0,0,0-.8-.753H118.693a.7.7,0,0,0-.7.753h0a.809.809,0,0,0,.806.763Z" transform="translate(-102.809 -135.908)"/><path class="d" d="M117.949,177.666h9.574a.7.7,0,0,0,.706-.753h0a.813.813,0,0,0-.8-.753h-9.584a.7.7,0,0,0-.71.753h0A.816.816,0,0,0,117.949,177.666Z" transform="translate(-88.441 -144.857)"/><path class="d" d="M117.116,191.056h18.051a.7.7,0,0,0,.706-.753h0a.809.809,0,0,0-.8-.753H117.023a.7.7,0,0,0-.706.753h0a.813.813,0,0,0,.8.753Z" transform="translate(-95.813 -153.787)"/><path class="d" d="M156.453,177.666h3.774a.7.7,0,0,0,.706-.753h0a.816.816,0,0,0-.8-.753h-3.771a.7.7,0,0,0-.706.753h0A.813.813,0,0,0,156.453,177.666Z" transform="translate(-133.977 -144.857)"/><path class="g" d="M174.907,82.19h14.71a3.361,3.361,0,0,1,3.3,3.108l.573,9.507a2.9,2.9,0,0,1-2.921,3.108h-2.408l1.392,3.265-5.15-3.265h-8.534a3.361,3.361,0,0,1-3.3-3.108l-.583-9.507a2.9,2.9,0,0,1,2.921-3.108Z" transform="translate(-171.978 -82.19)"/><g class="v" transform="translate(0)"><path class="r" d="M174.907,82.19h14.71a3.361,3.361,0,0,1,3.3,3.108l.573,9.507a2.9,2.9,0,0,1-2.921,3.108h-2.408l1.392,3.265-5.15-3.265h-8.534a3.361,3.361,0,0,1-3.3-3.108l-.583-9.507a2.9,2.9,0,0,1,2.921-3.108Z" transform="translate(-171.978 -82.19)"/></g><path class="d" d="M197.771,97.043a.963.963,0,0,0,.933.736h.869c0-.246-.02-.4-.023-.45a3.125,3.125,0,0,0-.36-1.376,4.6,4.6,0,0,0-1.179-1.213,9.053,9.053,0,0,1-1.046-.886,1.253,1.253,0,0,1-.293-.726,1.159,1.159,0,0,1,.383-.949,1.645,1.645,0,0,1,1.166-.393,1.892,1.892,0,0,1,1.233.413,1.962,1.962,0,0,1,.5.623,1,1,0,0,0,.966.54h0a.846.846,0,0,0,.613-1.289,3.388,3.388,0,0,0-.763-.886,3.834,3.834,0,0,0-2.555-.843,3.579,3.579,0,0,0-2.545.853,2.435,2.435,0,0,0-.843,2,2.332,2.332,0,0,0,.426,1.186,8.562,8.562,0,0,0,1.609,1.526,3.115,3.115,0,0,1,.793.8A1.271,1.271,0,0,1,197.771,97.043Zm1.9,2.392v-.107a.963.963,0,0,0-.949-.893h-.12a.833.833,0,0,0-.843.893v.107a.966.966,0,0,0,.949.9h.107a.833.833,0,0,0,.856-.9Z" transform="translate(-187.751 -87.626)"/></g></svg>