<svg width="512" height="512" viewBox="0 0 512 512" fill="none" xmlns="http://www.w3.org/2000/svg">
<path d="M302.5 225.499L273 209.499C331 175.333 448.5 106.199 454.5 102.999C460.5 99.7993 469.333 101.666 473 102.999L492.5 114.999L302.5 225.499Z" fill="white"/>
<path d="M343.5 251L315 234.5L498 126.5V163L460 185V331L498 353V390L428.5 350.5V201.5L343.5 251Z" fill="white"/>
<path d="M416 224.5L387.5 240V338.5L140.5 197V228C242.167 286.833 446.9 405.2 452.5 408C458.1 410.8 470.833 409.167 476.5 408L492.5 399.5L416 355V224.5Z" fill="white"/>
<path d="M125.5 171.999L372 314.999V283C270.833 224.166 67.1 105.799 61.5 102.999C55.9 100.199 42.5 101.832 36.5 102.999L20 111.499L97 155.999V286.499L125.5 269.999V171.999Z" fill="white"/>
<path d="M214 285L21.5 395C26.5 398.5 37.6 406.1 42 408.5C46.8 409.7 55 408.667 58.5 408L242.5 300.5L214 285Z" fill="white"/>
<path d="M15 156V119.5L84.5 161.5V309L169 258.5L200 276.5L15 384.5V348L54 325V180L15 156Z" fill="white"/>
</svg>
