<svg width="100" height="100" viewBox="0 0 100 100" fill="none" xmlns="http://www.w3.org/2000/svg">
<path d="M91.4293 40.5225H89.6707C88.9769 40.5225 88.4146 41.0848 88.4146 41.7785C88.4146 42.4723 88.9769 43.0346 89.6707 43.0346H91.4293C93.9338 43.0346 95.9715 45.0729 95.9715 47.5771V78.2268C95.9715 80.7313 93.9338 82.7684 91.4293 82.7684H39.4254C36.9209 82.7684 34.8832 80.7311 34.8832 78.2268V75.3828C34.8832 74.6891 34.3209 74.1268 33.6271 74.1268C32.9334 74.1268 32.3711 74.6891 32.3711 75.3828V78.2268C32.3711 82.1158 35.5355 85.2807 39.4256 85.2807H91.4293C95.3193 85.2807 98.4838 82.1158 98.4838 78.2268V47.5773C98.4836 43.6873 95.3193 40.5225 91.4293 40.5225Z" fill="black"/>
<path d="M85.8998 62.8973V23.44C85.8998 18.6314 81.9881 14.7188 77.1795 14.7188H10.232C5.42344 14.7188 1.51172 18.6314 1.51172 23.44V62.8973C1.51172 67.7059 5.42344 71.6176 10.232 71.6176H77.1793C81.9881 71.6176 85.8998 67.7059 85.8998 62.8973ZM4.02402 62.8973V23.44C4.02402 20.016 6.80918 17.2311 10.232 17.2311H77.1793C80.6023 17.2311 83.3873 20.0162 83.3873 23.44V62.8973C83.3873 66.3203 80.6021 69.1053 77.1793 69.1053H10.232C6.80918 69.1053 4.02402 66.3201 4.02402 62.8973Z" fill="black"/>
<path d="M17.0697 22.5781H9.33418C8.64043 22.5781 8.07812 23.1404 8.07812 23.8342V31.5691C8.07812 32.2629 8.64043 32.8252 9.33418 32.8252C10.0279 32.8252 10.5902 32.2629 10.5902 31.5691V25.0902H17.0695C17.7633 25.0902 18.3256 24.5279 18.3256 23.8342C18.3256 23.1404 17.7637 22.5781 17.0697 22.5781Z" fill="black"/>
<path d="M70.3422 25.0907H76.8215V31.5696C76.8215 32.2634 77.3838 32.8257 78.0775 32.8257C78.7713 32.8257 79.3336 32.2634 79.3336 31.5696V23.8347C79.3336 23.1409 78.7713 22.5786 78.0775 22.5786H70.342C69.6482 22.5786 69.0859 23.1409 69.0859 23.8347C69.0859 24.5284 69.6482 25.0907 70.3422 25.0907Z" fill="black"/>
<path d="M17.0695 61.2467H10.5902V54.7678C10.5902 54.074 10.0279 53.5117 9.33418 53.5117C8.64043 53.5117 8.07812 54.074 8.07812 54.7678V62.5027C8.07812 63.1965 8.64043 63.7588 9.33418 63.7588H17.0697C17.7635 63.7588 18.3258 63.1965 18.3258 62.5027C18.3258 61.809 17.7635 61.2467 17.0695 61.2467Z" fill="black"/>
<path d="M79.3334 62.5027V54.7678C79.3334 54.074 78.7711 53.5117 78.0773 53.5117C77.3836 53.5117 76.8213 54.074 76.8213 54.7678V61.2467H70.342C69.6482 61.2467 69.0859 61.809 69.0859 62.5027C69.0859 63.1965 69.6482 63.7588 70.342 63.7588H78.0775C78.7711 63.7588 79.3334 63.1965 79.3334 62.5027Z" fill="black"/>
<path d="M40.5289 35.4746C39.8352 35.4746 39.2729 36.0369 39.2729 36.7307V41.7395H28.7543V32.7473C28.7543 32.0535 28.192 31.4912 27.4982 31.4912C26.8045 31.4912 26.2422 32.0535 26.2422 32.7473V42.9955C26.2422 43.6893 26.8045 44.2516 27.4982 44.2516H39.273V53.5891C39.273 54.2828 39.8354 54.8451 40.5291 54.8451C41.2229 54.8451 41.7852 54.2828 41.7852 53.5891V36.7305C41.785 36.0369 41.2227 35.4746 40.5289 35.4746Z" fill="black"/>
<path d="M60.5555 50.234L51.1291 44.598L60.2129 36.2771C60.7246 35.808 60.7596 35.0141 60.2908 34.502C59.8232 33.9926 59.0287 33.9563 58.516 34.4244L50.2934 41.9568V32.7473C50.2934 32.0535 49.7311 31.4912 49.0373 31.4912C48.3436 31.4912 47.7812 32.0535 47.7812 32.7473V53.5893C47.7812 54.283 48.3436 54.8453 49.0373 54.8453C49.7311 54.8453 50.2934 54.283 50.2934 53.5893V47.0262L59.2658 52.391C59.86 52.7459 60.6326 52.5533 60.9887 51.9572C61.3451 51.3617 61.1508 50.5902 60.5555 50.234Z" fill="black"/>
</svg>
