<svg width="100" height="100" viewBox="0 0 100 100" fill="none" xmlns="http://www.w3.org/2000/svg">
<path d="M94.5436 83.3334H93.0284V31.8183C93.0284 28.6365 90.4527 25.9092 87.1193 25.9092H12.8769C9.69508 25.9092 6.9678 28.4849 6.9678 31.8183V83.3334H5.45265C4.54356 83.3334 3.9375 83.9395 3.9375 84.8486C3.9375 91.2122 9.08902 96.3637 15.4527 96.3637H84.5436C90.9072 96.3637 96.0587 91.2122 96.0587 84.8486C96.0587 83.9395 95.4527 83.3334 94.5436 83.3334ZM9.99811 31.8183C9.99811 30.3031 11.2102 28.9395 12.8769 28.9395H87.1193C88.6345 28.9395 89.9981 30.1516 89.9981 31.8183V83.3334H9.99811V31.8183ZM84.5436 93.3334H15.4527C11.2102 93.3334 7.87689 90.3031 7.11932 86.3637H8.48295H91.5133H92.8769C92.2708 90.3031 88.786 93.3334 84.5436 93.3334Z" fill="black"/>
<path d="M55.4516 88.3335H44.5425C43.6334 88.3335 43.0273 88.9396 43.0273 89.8486C43.0273 90.7577 43.6334 91.3638 44.5425 91.3638H55.4516C56.3607 91.3638 56.9667 90.7577 56.9667 89.8486C56.9667 88.9396 56.3607 88.3335 55.4516 88.3335Z" fill="black"/>
<path d="M46.0593 12.7273C54.0896 4.69704 67.2714 4.69704 75.3017 12.7273C75.9078 13.3334 76.8169 13.3334 77.4229 12.7273C78.029 12.1213 78.029 11.2122 77.4229 10.6061C68.1805 1.36371 53.1805 1.36371 43.7866 10.6061C43.1805 11.2122 43.1805 12.1213 43.7866 12.7273C44.5442 13.3334 45.6048 13.3334 46.0593 12.7273Z" fill="black"/>
<path d="M73.4833 16.8183C74.0894 16.2122 74.0894 15.3031 73.4833 14.6971C70.15 11.3637 65.6045 9.39404 60.756 9.39404C55.9075 9.39404 51.3621 11.2122 48.0288 14.6971C47.4227 15.3031 47.4227 16.2122 48.0288 16.8183C48.6348 17.4243 49.5439 17.4243 50.15 16.8183C53.0288 13.9395 56.6651 12.4243 60.756 12.4243C64.6954 12.4243 68.4833 13.9395 71.3621 16.8183C71.9682 17.4243 72.8772 17.4243 73.4833 16.8183Z" fill="black"/>
<path d="M52.1186 18.7877C51.5125 19.3938 51.5125 20.3029 52.1186 20.9089C52.7247 21.515 53.6338 21.515 54.2398 20.9089C57.8762 17.2726 63.6338 17.2726 67.2701 20.9089C67.8762 21.515 68.7853 21.515 69.3913 20.9089C69.9974 20.3029 69.9974 19.3938 69.3913 18.7877C64.6944 13.9392 56.8156 13.9392 52.1186 18.7877Z" fill="black"/>
<path d="M60.4179 70.6719H60.1709V66.5113C60.17 65.5496 59.9691 64.5987 59.5811 63.7188C59.193 62.8388 58.6263 62.0492 57.9168 61.4L53.583 57.4422C53.382 57.2586 53.2214 57.0352 53.1116 56.7861C53.0018 56.5371 52.945 56.2679 52.945 55.9957C52.945 55.7235 53.0018 55.4542 53.1116 55.2052C53.2214 54.9561 53.382 54.7327 53.583 54.5491L57.9168 50.5913C58.6263 49.9421 59.1931 49.1525 59.5811 48.2726C59.9692 47.3926 60.1701 46.4416 60.171 45.4799V41.3281H60.418C61.1245 41.3281 61.8021 41.0474 62.3017 40.5478C62.8014 40.0482 63.082 39.3706 63.082 38.6641C63.082 37.9575 62.8014 37.2799 62.3017 36.7803C61.8021 36.2807 61.1245 36 60.418 36H39.582C38.8755 36 38.1979 36.2807 37.6983 36.7803C37.1986 37.2799 36.918 37.9575 36.918 38.6641C36.918 39.3706 37.1986 40.0482 37.6983 40.5478C38.1979 41.0474 38.8755 41.3281 39.582 41.3281H39.829V45.4801C39.8299 46.4418 40.0308 47.3928 40.4188 48.2727C40.8069 49.1526 41.3736 49.9423 42.0831 50.5915L46.417 54.5493C46.618 54.7329 46.7785 54.9563 46.8883 55.2053C46.9982 55.4544 47.0549 55.7236 47.0549 55.9958C47.0549 56.268 46.9982 56.5372 46.8883 56.7863C46.7785 57.0354 46.618 57.2588 46.417 57.4423L42.0831 61.4002C41.3736 62.0494 40.8069 62.839 40.4188 63.7189C40.0308 64.5988 39.8299 65.5498 39.829 66.5115V70.6719H39.582C38.8755 70.6719 38.1979 70.9526 37.6983 71.4522C37.1986 71.9518 36.918 72.6294 36.918 73.3359C36.918 74.0425 37.1986 74.7201 37.6983 75.2197C38.1979 75.7193 38.8755 76 39.582 76H60.418C61.1245 76 61.8021 75.7193 62.3017 75.2197C62.8014 74.7201 63.082 74.0425 63.082 73.3359C63.082 72.6294 62.8014 71.9518 62.3017 71.4522C61.8021 70.9526 61.1245 70.6719 60.418 70.6719H60.4179ZM60.4179 74.0425H39.582C39.4885 74.0435 39.3959 74.0259 39.3093 73.9909C39.2227 73.9558 39.1439 73.9039 39.0775 73.8382C39.0111 73.7725 38.9584 73.6942 38.9224 73.608C38.8864 73.5218 38.8679 73.4293 38.8679 73.3359C38.8679 73.2425 38.8864 73.15 38.9224 73.0638C38.9584 72.9775 39.0111 72.8993 39.0775 72.8336C39.1439 72.7679 39.2227 72.716 39.3093 72.6809C39.3959 72.6459 39.4885 72.6283 39.582 72.6293H55.8085C56.0666 72.627 56.3133 72.5229 56.4949 72.3396C56.6766 72.1563 56.7785 71.9087 56.7785 71.6506C56.7785 71.3925 56.6766 71.1449 56.4949 70.9616C56.3133 70.7783 56.0666 70.6742 55.8085 70.6719H41.7859V66.5113C41.7866 65.8216 41.9307 65.1395 42.209 64.5084C42.4873 63.8774 42.8938 63.311 43.4027 62.8454L47.7365 58.8875C48.1383 58.5205 48.4593 58.0739 48.6789 57.5759C48.8985 57.078 49.0119 56.5398 49.0119 55.9956C49.0119 55.4514 48.8985 54.9132 48.6789 54.4153C48.4593 53.9174 48.1383 53.4707 47.7365 53.1038L43.4027 49.146C42.8938 48.6804 42.4873 48.114 42.209 47.4829C41.9307 46.8518 41.7866 46.1697 41.7859 45.4799V40.3641C41.7859 40.3616 41.7859 40.3595 41.7859 40.357C41.7859 40.3545 41.7859 40.3519 41.7859 40.3491C41.7879 40.2216 41.7646 40.0948 41.7172 39.9764C41.6698 39.8579 41.5994 39.75 41.51 39.6589C41.4206 39.5679 41.314 39.4955 41.1965 39.446C41.0789 39.3964 40.9526 39.3707 40.825 39.3704H39.5816C39.4882 39.3714 39.3955 39.3538 39.3089 39.3188C39.2224 39.2837 39.1436 39.2318 39.0772 39.1661C39.0108 39.1004 38.9581 39.0221 38.9221 38.9359C38.8861 38.8497 38.8676 38.7572 38.8676 38.6638C38.8676 38.5704 38.8861 38.4779 38.9221 38.3917C38.9581 38.3054 39.0108 38.2272 39.0772 38.1615C39.1436 38.0958 39.2224 38.0439 39.3089 38.0088C39.3955 37.9738 39.4882 37.9562 39.5816 37.9572H60.4176C60.511 37.9562 60.6037 37.9738 60.6903 38.0088C60.7769 38.0439 60.8556 38.0958 60.922 38.1615C60.9885 38.2272 61.0412 38.3054 61.0771 38.3917C61.1131 38.4779 61.1316 38.5704 61.1316 38.6638C61.1316 38.7572 61.1131 38.8497 61.0771 38.9359C61.0412 39.0221 60.9885 39.1004 60.922 39.1661C60.8556 39.2318 60.7769 39.2837 60.6903 39.3188C60.6037 39.3538 60.511 39.3714 60.4176 39.3704H44.1917C43.9337 39.3727 43.687 39.4768 43.5053 39.6601C43.3236 39.8434 43.2217 40.091 43.2217 40.3491C43.2217 40.6072 43.3236 40.8548 43.5053 41.0381C43.687 41.2214 43.9337 41.3255 44.1917 41.3278H58.2135V45.4798C58.2129 46.1695 58.0688 46.8516 57.7905 47.4827C57.5122 48.1139 57.1057 48.6802 56.5968 49.1459L52.263 53.1036C51.8611 53.4706 51.5402 53.9173 51.3206 54.4152C51.101 54.9131 50.9876 55.4513 50.9876 55.9955C50.9876 56.5396 51.101 57.0779 51.3206 57.5758C51.5402 58.0737 51.8611 58.5204 52.263 58.8873L56.5968 62.8452C57.1056 63.3108 57.5121 63.8771 57.7905 64.5082C58.0688 65.1393 58.2128 65.8214 58.2135 66.5112V71.4674C58.1862 71.6089 58.1905 71.7547 58.2261 71.8944C58.2618 72.034 58.3279 72.1641 58.4198 72.2751C58.5117 72.3862 58.627 72.4755 58.7574 72.5368C58.8879 72.598 59.0303 72.6296 59.1745 72.6293H60.4178C60.5112 72.6283 60.6039 72.6459 60.6905 72.6809C60.7771 72.716 60.8559 72.7679 60.9223 72.8336C60.9887 72.8993 61.0414 72.9775 61.0774 73.0638C61.1134 73.15 61.1319 73.2425 61.1319 73.3359C61.1319 73.4293 61.1134 73.5218 61.0774 73.608C61.0414 73.6942 60.9887 73.7725 60.9223 73.8382C60.8559 73.9039 60.7771 73.9558 60.6905 73.9909C60.6039 74.0259 60.5113 74.0435 60.4179 74.0425Z" fill="black"/>
<path d="M53.8762 48.9186C53.8762 48.659 53.773 48.4101 53.5895 48.2266C53.4059 48.043 53.157 47.9399 52.8974 47.9399H47.1037C46.8441 47.9399 46.5952 48.0431 46.4116 48.2266C46.2281 48.4101 46.125 48.6591 46.125 48.9186C46.125 49.1782 46.2281 49.4271 46.4116 49.6106C46.5952 49.7942 46.8441 49.8973 47.1037 49.8973H52.8974C53.157 49.8973 53.4059 49.7942 53.5895 49.6106C53.773 49.4271 53.8762 49.1782 53.8762 48.9186Z" fill="black"/>
<path d="M52.2394 63.3904C50.5683 62.7257 48.6384 62.8676 46.943 63.7805C45.1467 64.7479 43.8424 66.4564 43.454 68.3508C43.4278 68.4768 43.4268 68.6068 43.451 68.7332C43.4751 68.8596 43.524 68.98 43.5947 69.0875C43.6655 69.195 43.7567 69.2875 43.8633 69.3597C43.9698 69.4319 44.0896 69.4824 44.2156 69.5082C44.3417 69.5341 44.4716 69.5348 44.598 69.5104C44.7244 69.486 44.8447 69.4369 44.952 69.3659C45.0594 69.2949 45.1517 69.2035 45.2236 69.0968C45.2956 68.9901 45.3458 68.8702 45.3714 68.7441C45.6448 67.4111 46.5793 66.2 47.8714 65.5042C49.0582 64.865 50.3891 64.7586 51.5227 65.2122L51.5425 65.22C53.0491 65.7849 54.2066 67.1204 54.6382 68.7924C54.6703 68.9168 54.7267 69.0337 54.804 69.1364C54.8813 69.239 54.9781 69.3255 55.0888 69.3907C55.1995 69.456 55.322 69.4988 55.4493 69.5167C55.5766 69.5347 55.7061 69.5273 55.8305 69.4952C55.955 69.4631 56.0719 69.4067 56.1745 69.3294C56.2772 69.2521 56.3636 69.1553 56.4289 69.0446C56.4942 68.9339 56.537 68.8114 56.5549 68.6841C56.5728 68.5568 56.5655 68.4273 56.5334 68.3029C55.9428 66.0172 54.338 64.1816 52.2394 63.3904Z" fill="black"/>
<path d="M49.9982 61.638C50.5387 61.638 50.9769 61.1998 50.9769 60.6593C50.9769 60.1188 50.5387 59.6807 49.9982 59.6807C49.4577 59.6807 49.0195 60.1188 49.0195 60.6593C49.0195 61.1998 49.4577 61.638 49.9982 61.638Z" fill="black"/>
</svg>
