<svg width="100" height="100" viewBox="0 0 100 100" fill="none" xmlns="http://www.w3.org/2000/svg">
<path d="M88.9231 84.2223H11.0769C8.27747 84.2223 6 81.9448 6 79.1453V20.8548C6 18.0553 8.27747 15.7778 11.0769 15.7778H88.9231C91.7225 15.7778 94 18.0553 94 20.8548V79.1453C94 81.9448 91.7225 84.2223 88.9231 84.2223ZM11.0769 18.4103C9.72909 18.4103 8.63248 19.5069 8.63248 20.8548V79.1453C8.63248 80.4932 9.72909 81.5898 11.0769 81.5898H88.9231C90.2709 81.5898 91.3675 80.4932 91.3675 79.1453V20.8548C91.3675 19.5069 90.2709 18.4103 88.9231 18.4103H11.0769Z" fill="black"/>
<path d="M16.7186 43.2501C15.9916 43.2501 15.4023 42.6608 15.4023 41.9339V26.4957C15.4023 25.7687 15.9916 25.1794 16.7186 25.1794H26.5157C27.2427 25.1794 27.832 25.7687 27.832 26.4957C27.832 27.2226 27.2427 27.8119 26.5157 27.8119H18.0348V41.9339C18.0348 42.6608 17.4457 43.2501 16.7186 43.2501Z" fill="black"/>
<path d="M32.1566 28C32.9874 28 33.6609 27.3265 33.6609 26.4957C33.6609 25.6649 32.9874 24.9915 32.1566 24.9915C31.3258 24.9915 30.6523 25.6649 30.6523 26.4957C30.6523 27.3265 31.3258 28 32.1566 28Z" fill="black"/>
<path d="M83.2858 74.8204H67.8475C67.1205 74.8204 66.5312 74.2311 66.5312 73.5042C66.5312 72.7772 67.1205 72.1879 67.8475 72.1879H81.9696V58.066C81.9696 57.3391 82.5589 56.7498 83.2858 56.7498C84.0128 56.7498 84.6021 57.3391 84.6021 58.066V73.5042C84.6021 74.2311 84.0128 74.8204 83.2858 74.8204Z" fill="black"/>
<path d="M32.1528 74.8204H16.7147C15.9877 74.8204 15.3984 74.2311 15.3984 73.5042V58.066C15.3984 57.3391 15.9877 56.7498 16.7147 56.7498C17.4416 56.7498 18.0309 57.3391 18.0309 58.066V72.1879H32.1528C32.8798 72.1879 33.4691 72.7772 33.4691 73.5042C33.4691 74.2311 32.8798 74.8204 32.1528 74.8204Z" fill="black"/>
<path d="M83.2858 43.2501C82.5589 43.2501 81.9696 42.6608 81.9696 41.9339V27.8119H67.8475C67.1205 27.8119 66.5312 27.2226 66.5312 26.4957C66.5312 25.7687 67.1205 25.1794 67.8475 25.1794H83.2858C84.0128 25.1794 84.6021 25.7687 84.6021 26.4957V41.9339C84.6021 42.6608 84.0128 43.2501 83.2858 43.2501Z" fill="black"/>
<path d="M38.1042 63C38.2492 63.0001 38.3928 62.9716 38.5268 62.9162C38.6608 62.8607 38.7825 62.7793 38.885 62.6767L62.6766 38.8849C62.7791 38.7824 62.8605 38.6607 62.916 38.5267C62.9714 38.3927 63 38.2492 63 38.1042C63 37.9592 62.9714 37.8156 62.916 37.6816C62.8605 37.5477 62.7791 37.4259 62.6766 37.3234C62.5741 37.2209 62.4524 37.1395 62.3184 37.0841C62.1844 37.0286 62.0409 37 61.8959 37C61.7509 37 61.6073 37.0286 61.4733 37.0841C61.3394 37.1395 61.2176 37.2209 61.1151 37.3234L37.3235 61.1152C37.169 61.2696 37.0638 61.4664 37.0212 61.6806C36.9786 61.8947 37.0005 62.1167 37.084 62.3185C37.1676 62.5203 37.3092 62.6927 37.4907 62.814C37.6723 62.9353 37.8858 63 38.1042 63Z" fill="black"/>
<path d="M42.5 48C43.5878 48 44.6512 47.6774 45.5556 47.0731C46.4601 46.4687 47.1651 45.6098 47.5813 44.6048C47.9976 43.5998 48.1065 42.4939 47.8943 41.427C47.6821 40.3601 47.1583 39.3801 46.3891 38.6109C45.6199 37.8417 44.6399 37.3179 43.573 37.1057C42.5061 36.8935 41.4002 37.0024 40.3952 37.4187C39.3902 37.8349 38.5313 38.5399 37.9269 39.4444C37.3226 40.3488 37 41.4122 37 42.5C37.0018 43.9581 37.5819 45.356 38.6129 46.3871C39.644 47.4181 41.0419 47.9982 42.5 48ZM42.5 39.1391C43.1647 39.1391 43.8145 39.3362 44.3672 39.7055C44.9199 40.0748 45.3507 40.5997 45.6051 41.2138C45.8595 41.828 45.926 42.5037 45.7963 43.1557C45.6667 43.8076 45.3466 44.4065 44.8765 44.8765C44.4065 45.3466 43.8076 45.6667 43.1557 45.7963C42.5037 45.926 41.828 45.8595 41.2138 45.6051C40.5997 45.3507 40.0748 44.9199 39.7055 44.3672C39.3362 43.8145 39.1391 43.1647 39.1391 42.5C39.14 41.6089 39.4944 40.7546 40.1245 40.1245C40.7546 39.4944 41.6089 39.14 42.5 39.1391Z" fill="black"/>
<path d="M63 57.5C63 56.4122 62.6774 55.3488 62.0731 54.4444C61.4687 53.5399 60.6098 52.8349 59.6048 52.4187C58.5998 52.0024 57.4939 51.8935 56.427 52.1057C55.3601 52.3179 54.3801 52.8417 53.6109 53.6109C52.8417 54.3801 52.3179 55.3601 52.1057 56.427C51.8935 57.4939 52.0024 58.5998 52.4187 59.6048C52.8349 60.6098 53.5399 61.4687 54.4444 62.0731C55.3488 62.6774 56.4122 63 57.5 63C58.9581 62.9982 60.356 62.4181 61.3871 61.3871C62.4181 60.356 62.9982 58.9581 63 57.5ZM54.1391 57.5C54.1391 56.8353 54.3362 56.1855 54.7055 55.6328C55.0748 55.0801 55.5997 54.6493 56.2138 54.3949C56.828 54.1405 57.5037 54.074 58.1557 54.2037C58.8076 54.3333 59.4065 54.6534 59.8765 55.1235C60.3466 55.5935 60.6667 56.1924 60.7963 56.8443C60.926 57.4963 60.8595 58.172 60.6051 58.7862C60.3507 59.4003 59.9199 59.9252 59.3672 60.2945C58.8145 60.6638 58.1647 60.8609 57.5 60.8609C56.6089 60.86 55.7546 60.5056 55.1245 59.8755C54.4944 59.2454 54.14 58.3911 54.1391 57.5Z" fill="black"/>
</svg>
