<svg width="100" height="100" viewBox="0 0 100 100" fill="none" xmlns="http://www.w3.org/2000/svg">
<g clip-path="url(#clip0_1936_50)">
<mask id="mask0_1936_50" style="mask-type:luminance" maskUnits="userSpaceOnUse" x="0" y="0" width="100" height="100">
<path d="M100 0H0V100H100V0Z" fill="white"/>
</mask>
<g mask="url(#mask0_1936_50)">
<path d="M91.6924 12.7783H28.3C24.3555 12.7783 21.0074 15.6002 20.3394 19.4896C20.2422 20.0539 20.6211 20.5897 21.1857 20.687C21.7514 20.7811 22.2867 20.4043 22.3834 19.8403C22.8803 16.9506 25.3684 14.8529 28.3 14.8529H91.6924C95.0096 14.8529 97.7078 17.5563 97.7078 20.8786V59.1291C97.7078 62.0756 95.6111 64.5682 92.7225 65.0555C92.1578 65.1506 91.7769 65.6866 91.8726 66.2506C91.9639 66.7932 92.4717 67.194 93.0678 67.1014C96.9582 66.4452 99.782 63.0914 99.782 59.1291V20.8784C99.782 16.4115 96.1529 12.7783 91.6924 12.7783Z" fill="black"/>
<path d="M81.6945 22.7764H68.4082C67.8354 22.7764 67.3711 23.2402 67.3711 23.8135C67.3711 24.3867 67.8355 24.8506 68.4082 24.8506H81.6945C85.0117 24.8506 87.71 27.5539 87.71 30.8762V69.1281C87.71 72.0746 85.6133 74.5662 82.7252 75.0533C82.1605 75.1484 81.7797 75.6844 81.8754 76.2484C81.9605 76.7549 82.3996 77.1135 82.8969 77.1135C82.9541 77.1135 83.0123 77.1084 83.0705 77.0992C86.9609 76.4418 89.7844 73.0902 89.7844 69.1279V30.876C89.7844 26.4096 86.1553 22.7764 81.6945 22.7764Z" fill="black"/>
<path d="M10.3434 29.4873C10.2461 30.0516 10.625 30.5873 11.1896 30.6846C11.7609 30.7814 12.2914 30.3977 12.3873 29.8379C12.8842 26.9482 15.3723 24.8506 18.3039 24.8506H70.1174C70.6902 24.8506 71.1545 24.3867 71.1545 23.8135C71.1545 23.2402 70.6901 22.7764 70.1174 22.7764H18.3041C14.3594 22.776 11.0113 25.5979 10.3434 29.4873Z" fill="black"/>
<path d="M71.6936 32.7773H8.30976C3.84609 32.7773 0.214844 36.4096 0.214844 40.8732V79.1271C0.214844 83.5908 3.84589 87.2221 8.30976 87.2221H71.6935C76.1571 87.2221 79.7884 83.591 79.7884 79.1271V40.8732C79.7884 36.4096 76.1573 32.7773 71.6936 32.7773ZM77.7142 79.1271C77.7142 82.4473 75.0134 85.1477 71.6936 85.1477H8.30976C4.99004 85.1477 2.28925 82.4473 2.28925 79.1271V40.8732C2.28925 37.5531 4.99004 34.8518 8.30976 34.8518H71.6935C75.0132 34.8518 77.714 37.5531 77.714 40.8732L77.7142 79.1271Z" fill="black"/>
<path d="M39.2248 74.1228L47.2914 59.8657C47.3654 59.7347 47.5537 59.7333 47.6299 59.8632L55.9777 74.1202C56.0539 74.2503 55.96 74.4142 55.8092 74.4142H39.3949C39.2453 74.4142 39.1512 74.2528 39.2248 74.1228Z" stroke="black" stroke-width="2"/>
<path d="M43.1845 66.8947L33.7243 50.6847C33.6481 50.5544 33.4595 50.556 33.3854 50.6872L20.2794 73.9277C20.2059 74.0577 20.3001 74.2189 20.4495 74.2189H39.3534" stroke="black" stroke-width="2"/>
<path d="M45.0195 53.2227C46.9612 53.2227 48.5352 51.6487 48.5352 49.707C48.5352 47.7654 46.9612 46.1914 45.0195 46.1914C43.0779 46.1914 41.5039 47.7654 41.5039 49.707C41.5039 51.6487 43.0779 53.2227 45.0195 53.2227Z" stroke="black" stroke-width="2"/>
</g>
</g>
<defs>
<clipPath id="clip0_1936_50">
<rect width="100" height="100" fill="white"/>
</clipPath>
</defs>
</svg>
