<?xml version="1.0" encoding="UTF-8"?>
<svg version="1.1" xmlns="http://www.w3.org/2000/svg" width="512" height="242">
<path d="M0 0 C168.96 0 337.92 0 512 0 C512 79.86 512 159.72 512 242 C343.04 242 174.08 242 0 242 C0 162.14 0 82.28 0 0 Z " fill="#FDFEFE" transform="translate(0,0)"/>
<path d="M0 0 C1.26021973 0.09787308 1.26021973 0.09787308 2.54589844 0.19772339 C16.70452601 1.29896842 30.8330214 2.64330937 44.9616394 4.07452393 C57.69996234 5.36133308 70.42250328 6.3946239 83.20898438 7.06665039 C90.28183548 7.45753424 97.18296462 8.24974981 104.18579102 9.31298828 C108.21663757 9.86532812 112.1886921 10.02805488 116.25 10.125 C124.04666541 10.46463244 129.25392203 11.46886675 134.8125 17.3125 C137.4813541 21.4759124 137.4226476 24.30414476 137.0859375 29.12890625 C137.03867523 29.81481339 136.99141296 30.50072052 136.94271851 31.20741272 C136.07773445 43.37593306 135.02230025 55.53146305 134 67.6875 C133.88675903 69.03943374 133.7735799 70.39137266 133.66046143 71.74331665 C132.09272479 90.47438712 130.47741569 109.19971353 128.73095703 127.91503906 C128.10821158 134.62428838 127.50160239 141.33500667 126.89312744 148.04556274 C126.57123808 151.59422811 126.24849442 155.14281572 125.92578125 158.69140625 C125.81919189 159.86388916 125.71260254 161.03637207 125.6027832 162.24438477 C125.49003052 163.48466431 125.49003052 163.48466431 125.375 164.75 C122.1119879 163.6623293 121.49660072 162.99933287 119.375 160.4375 C116.3145491 156.83469071 113.19175942 153.2992403 110 149.8125 C109.53062012 149.29880859 109.06124023 148.78511719 108.57763672 148.25585938 C105.63556706 145.0580894 102.6095076 141.97445242 99.5 138.9375 C90.16963793 129.59038683 90.16963793 129.59038683 89.6875 123.375 C89.99650765 116.87587138 92.55909356 110.90887964 94.8671875 104.8984375 C100.61069668 89.53997478 100.12765127 73.71809349 93.375 58.75 C85.38607626 42.65829612 73.24854824 31.19459955 56.23144531 24.96533203 C49.84184193 22.84178057 43.96276503 22.20561244 37.25 22.25 C35.74711426 22.25749268 35.74711426 22.25749268 34.21386719 22.26513672 C17.70974349 22.6482776 2.6952485 28.86775578 -9.33984375 40.2734375 C-23.34236538 55.44881992 -26.15115035 73.07004621 -25.625 92.75 C-25.61855469 93.64332031 -25.61210937 94.53664063 -25.60546875 95.45703125 C-24.95647493 108.41287086 -15.22989263 123.17851991 -5.9609375 131.84375 C7.9445784 143.19139509 23.50062444 148.51537043 41.375 146.75 C45.46286718 145.9846121 49.41274058 145.01071891 53.375 143.75 C52.116875 144.08 50.85875 144.41 49.5625 144.75 C32.1041392 148.1722355 15.3184379 145.66032767 0.375 135.75 C-13.19023545 125.82671313 -21.89821353 110.23968843 -24.625 93.75 C-26.3510826 76.21456999 -22.10680138 59.89502912 -11.3359375 45.7421875 C-1.71175235 34.52924798 11.50059639 26.50723861 26.375 24.75 C45.67194045 23.59854899 61.0159528 25.54718941 76.03857422 38.69140625 C88.96725672 50.37457394 96.22080762 63.25045825 97.625 80.890625 C97.84136135 91.22187924 96.04705326 100.38831027 92.25 109.9375 C89.92477376 115.83568548 88.36621107 120.39462971 89.375 126.75 C92.14273551 132.43290487 95.63392019 136.35794657 100.1875 140.6875 C104.52937123 144.86838582 108.64295515 149.12685272 112.57788086 153.69458008 C115.70051068 157.26602696 118.98378255 160.68534464 122.25 164.125 C128.04540911 170.26100309 133.80827725 176.4047892 139.375 182.75 C140.21289062 183.65105469 141.05078125 184.55210937 141.9140625 185.48046875 C148.94353757 193.36958551 148.94353757 193.36958551 149.1875 198.5625 C148.51157783 204.30783845 145.53322927 208.00692773 141.1875 211.625 C137.69718927 213.91948693 134.72359729 214.55948865 130.56640625 214.28515625 C123.75600431 212.62200996 119.53426707 205.68244857 115.46484375 200.44140625 C113.3771839 197.75281253 111.23053771 195.1240599 109.0625 192.5 C103.24442905 185.40454811 97.60955692 178.16731248 91.95898438 170.93847656 C81.39653602 156.67357737 81.39653602 156.67357737 69.375 143.75 C68.715 143.75 68.055 143.75 67.375 143.75 C67.81432861 144.16830078 68.25365723 144.58660156 68.70629883 145.01757812 C72.96011738 149.15512831 76.59156189 153.44643747 80.0625 158.25 C84.71032208 164.58394285 89.51422528 170.75125844 94.54174805 176.7890625 C95.01523682 177.36785156 95.48872559 177.94664062 95.9765625 178.54296875 C96.39244629 179.0433667 96.80833008 179.54376465 97.23681641 180.05932617 C98.65898975 182.17184235 99.49446871 184.36811481 100.375 186.75 C90.76902572 187.02630144 81.48850093 186.28119908 71.95751953 185.21212769 C57.44874656 183.59077303 42.93467548 182.25240826 28.375 181.1875 C15.09120804 180.21390655 1.83899267 179.07951771 -11.41235352 177.73413086 C-17.96329997 177.07557474 -24.48591992 176.54662819 -31.0625 176.25 C-38.16340524 175.84689184 -43.10524001 175.00170041 -48.5625 170.125 C-49.243125 169.34125 -49.92375 168.5575 -50.625 167.75 C-50.955 167.42 -51.285 167.09 -51.625 166.75 C-51.73770092 164.27038845 -51.78120057 161.82775352 -51.76953125 159.34765625 C-51.76717972 158.58671158 -51.76482819 157.82576691 -51.7624054 157.04176331 C-51.68389805 148.39208847 -51.02473999 139.80405553 -50.3125 131.1875 C-50.1754486 129.46942755 -50.03873614 127.75132802 -49.90234375 126.03320312 C-48.96169778 114.30944209 -47.8871889 102.60109258 -46.75073242 90.89477539 C-45.81625988 81.14990869 -45.03997946 71.39831812 -44.3125 61.63595581 C-43.34242803 48.64498064 -42.33607201 35.65846569 -41.125 22.6875 C-41.01865234 21.45757324 -40.91230469 20.22764648 -40.80273438 18.96044922 C-40.12045802 11.94716702 -39.52527967 6.4327587 -34.125 1.4375 C-25.14843242 -4.62168312 -10.33878513 -0.82162615 0 0 Z " fill="#03A99E" transform="translate(257.625,19.25)"/>
<path d="M0 0 C7.76621765 5.84774645 13.49537045 12.40025268 18 21 C18.50660156 21.91652344 19.01320313 22.83304688 19.53515625 23.77734375 C25.04058698 35.44763006 25.41759195 51.07542532 21.35205078 63.29516602 C15.21429651 78.74260331 3.85783102 89.79110071 -11.25 96.4375 C-23.78143484 101.73592925 -39.16386997 101.89091727 -51.82421875 96.8828125 C-67.06802595 89.97332755 -76.8337672 78.10268965 -83.0546875 62.859375 C-85.00203224 56.96905951 -85.18237471 51.26510338 -85.1875 45.125 C-85.19974609 44.36058594 -85.21199219 43.59617188 -85.22460938 42.80859375 C-85.26013013 28.86077785 -78.98033894 16.14206594 -69.40234375 6.1875 C-65.55051269 2.68014163 -61.41334721 -0.24531143 -57 -3 C-56.1853125 -3.52335937 -55.370625 -4.04671875 -54.53125 -4.5859375 C-37.79786509 -13.9339087 -15.446003 -9.5704646 0 0 Z " fill="#FDFCFC" transform="translate(325,59)"/>
<path d="M0 0 C14.32954126 11.88969561 23.32099034 24.16321331 26 43 C26.90491108 54.3679455 25.05930395 64.66441551 20.875 75.1875 C18.54977376 81.08568548 16.99121107 85.64462971 18 92 C20.76773551 97.68290487 24.25892019 101.60794657 28.8125 105.9375 C33.15437123 110.11838582 37.26795515 114.37685272 41.20288086 118.94458008 C44.32551068 122.51602696 47.60878255 125.93534464 50.875 129.375 C56.67040911 135.51100309 62.43327725 141.6547892 68 148 C68.83789062 148.90105469 69.67578125 149.80210937 70.5390625 150.73046875 C77.56853757 158.61958551 77.56853757 158.61958551 77.8125 163.8125 C77.13657783 169.55783845 74.15822927 173.25692773 69.8125 176.875 C66.32218927 179.16948693 63.34859729 179.80948865 59.19140625 179.53515625 C52.38100431 177.87200996 48.15926707 170.93244857 44.08984375 165.69140625 C42.0021839 163.00281253 39.85553771 160.3740599 37.6875 157.75 C31.86942905 150.65454811 26.23455692 143.41731248 20.58398438 136.18847656 C9.59387411 119.55535641 9.59387411 119.55535641 -5 108 C-6.78879802 107.8809314 -8.5822856 107.82477887 -10.375 107.8125 C-11.77878906 107.79123047 -11.77878906 107.79123047 -13.2109375 107.76953125 C-16.19920772 108.01646114 -18.23551094 108.87666532 -21 110 C-38.73680105 113.31229417 -55.79946187 111.08083378 -71 101 C-84.56523545 91.07671313 -93.27321353 75.48968843 -96 59 C-97.7260826 41.46456999 -93.48180138 25.14502912 -82.7109375 10.9921875 C-62.87362391 -12.11985723 -25.07655104 -18.68222312 0 0 Z M-77 15 C-85.27989842 25.97641707 -89.17609665 36.21378517 -89.1875 49.875 C-89.19974609 50.63941406 -89.21199219 51.40382812 -89.22460938 52.19140625 C-89.26184115 66.81108415 -83.04829813 79.59969143 -73 90 C-60.89509094 101.29534508 -49.00045561 105.48491169 -32.6328125 105.17578125 C-18.50788667 104.4923171 -4.96607452 98.11758579 5 88 C16.78784171 73.7752487 20.52439376 59.93551697 19.28662109 41.61523438 C18.65639465 35.86482073 16.81503207 31.06280327 14 26 C13.45730469 25.01773438 12.91460937 24.03546875 12.35546875 23.0234375 C4.79181469 10.35474379 -6.35839805 1.17012124 -20.87890625 -2.52734375 C-21.57886719 -2.68332031 -22.27882813 -2.83929688 -23 -3 C-23.58652344 -3.18175781 -24.17304688 -3.36351562 -24.77734375 -3.55078125 C-45.10419613 -7.65902031 -63.17233313 0.18127169 -77 15 Z " fill="#515151" transform="translate(329,54)"/>
<path d="M0 0 C1.03125 -0.00128906 2.0625 -0.00257812 3.125 -0.00390625 C6.78546781 0.7172457 7.77858156 1.57454615 10 4.5625 C10.31326966 7.41033758 10.39802075 9.85516631 10.28515625 12.6875 C10.27238144 13.47141113 10.25960663 14.25532227 10.2464447 15.06298828 C10.20426802 17.5636563 10.13587181 20.06256619 10.0625 22.5625 C9.99442315 25.06233977 9.93246581 27.56161234 9.88926697 30.06201172 C9.86204522 31.61605685 9.82043546 33.1699333 9.76271057 34.72314453 C9.70598993 37.77792842 9.84978675 40.20734219 11.04663086 43.03710938 C13.96643221 45.31718922 16.85329168 45.13502765 20.40625 45.09375 C21.12735962 45.0975769 21.84846924 45.10140381 22.59143066 45.10534668 C24.11451617 45.10806603 25.63764836 45.10070293 27.16064453 45.08398438 C29.49226981 45.06257099 31.82081432 45.08378084 34.15234375 45.109375 C35.6328193 45.10673172 37.11329294 45.10160674 38.59375 45.09375 C39.2906897 45.10184692 39.98762939 45.10994385 40.70568848 45.11828613 C42.91320152 45.11982631 42.91320152 45.11982631 46 44.5625 C47.86083837 42.64011862 47.86083837 42.64011862 49 40.5625 C49.66 40.5625 50.32 40.5625 51 40.5625 C50.97905273 39.49290039 50.95810547 38.42330078 50.93652344 37.32128906 C50.86405374 33.34811827 50.81817537 29.37500575 50.78027344 25.40136719 C50.76017372 23.68251721 50.73288911 21.96373548 50.69824219 20.24511719 C50.64964966 17.77261511 50.62701565 15.3010179 50.609375 12.828125 C50.58872986 12.06131409 50.56808472 11.29450317 50.54681396 10.50445557 C50.5453288 6.96294058 50.70370596 4.96137546 52.84472656 2.07910156 C55.68378173 0.08134321 57.55102999 0.0280103 61 0.0625 C62.03125 0.0521875 63.0625 0.041875 64.125 0.03125 C67 0.5625 67 0.5625 69.35546875 2.16796875 C71.57595848 5.40112839 71.43292952 7.47557527 71.3125 11.375 C71.27576172 13.14810547 71.27576172 13.14810547 71.23828125 14.95703125 C71.06862899 18.79346237 70.77999399 22.61900981 70.50268555 26.44897461 C69.98560062 33.96001796 69.80236078 41.45580739 69.71875 48.984375 C69.6906144 50.98135638 69.66247393 52.97833771 69.63405609 54.97531509 C69.57634004 59.11823206 69.52555771 63.26123923 69.47393799 67.40423584 C69.43084959 70.84417673 69.38609128 74.28407657 69.33703613 77.72393799 C69.30087875 80.28276507 69.26834423 82.84164693 69.2401123 85.40057373 C68.96080813 104.98181566 68.96080813 104.98181566 66.0625 109.75 C61.72044974 112.31978485 57.92841524 112.48657786 53 111.5625 C50.42362529 109.67734777 49.40332572 108.36915143 48 105.5625 C47.91288225 102.50007679 47.8845154 99.46063535 47.90234375 96.3984375 C47.9037587 95.49122955 47.90517365 94.58402161 47.90663147 93.64932251 C47.91223904 90.74534845 47.92479282 87.84145085 47.9375 84.9375 C47.94251402 82.97135528 47.9470771 81.00520935 47.95117188 79.0390625 C47.96136101 74.21348834 47.98093493 69.38808 48 64.5625 C35.13 64.5625 22.26 64.5625 9 64.5625 C8.89042969 67.46417969 8.78085938 70.36585937 8.66796875 73.35546875 C8.55207914 76.17211051 8.43142136 78.98851047 8.31030273 81.80493164 C8.22881592 83.75915706 8.1522711 85.71359516 8.08081055 87.66821289 C7.97709748 90.4813403 7.8555061 93.29321831 7.73046875 96.10546875 C7.6880732 97.41199654 7.6880732 97.41199654 7.64482117 98.74491882 C7.41688245 103.4420937 7.05035015 106.75486706 4 110.5625 C1.41991408 111.85254296 -0.55741574 111.76660224 -3.4375 111.8125 C-4.40558594 111.83828125 -5.37367187 111.8640625 -6.37109375 111.890625 C-9 111.5625 -9 111.5625 -10.78515625 110.234375 C-13.73095995 106.1803429 -13.05227452 101.72119315 -12.9140625 96.96875 C-12.89282318 96.1080188 -12.87158386 95.2472876 -12.84970093 94.36047363 C-12.80337931 92.52784753 -12.75444635 90.69528587 -12.703125 88.86279297 C-12.62684685 86.12869785 -12.55874563 83.39450324 -12.4921875 80.66015625 C-12.27385573 72.10592246 -11.97277338 63.56643319 -11.48046875 55.0234375 C-11.09950608 48.39146639 -10.90186395 41.77515986 -10.82421875 35.1328125 C-10.81225464 34.27141663 -10.80029053 33.41002075 -10.78796387 32.52252197 C-10.73940318 29.01026713 -10.69153036 25.49840778 -10.67407227 21.98583984 C-10.65864295 19.36760376 -10.61858994 16.75069687 -10.57421875 14.1328125 C-10.57612717 13.34327179 -10.57803558 12.55373108 -10.58000183 11.74026489 C-10.49680637 8.01143152 -10.12477582 5.76391702 -8.14379883 2.56616211 C-5.343206 -0.05136042 -3.78796756 -0.08049431 0 0 Z " fill="#505050" transform="translate(128,56.4375)"/>
<path d="M0 0 C9.37035938 -0.02312504 18.74070901 -0.04091591 28.11109066 -0.05181217 C32.46168459 -0.05704065 36.81225907 -0.06413765 41.1628418 -0.07543945 C45.35790258 -0.08626959 49.55294459 -0.0922771 53.74801826 -0.09487724 C55.35206968 -0.09673126 56.95612003 -0.10035144 58.5601635 -0.10573006 C60.79916515 -0.11294219 63.0380883 -0.11399087 65.27709961 -0.11352539 C66.55395126 -0.115746 67.83080292 -0.11796661 69.14634705 -0.12025452 C72 0 72 0 73 1 C74.40569303 9.70895531 74.36630671 17.00742404 69.2644043 24.4609375 C67.11339227 27.32762144 64.90468465 30.13980866 62.64599609 32.92236328 C60.08155316 36.15929733 57.8009538 39.57345132 55.5 43 C51.77602361 48.45019461 47.99937933 53.86098621 44.1875 59.25 C43.45889771 60.28302246 43.45889771 60.28302246 42.71557617 61.33691406 C39.88204404 65.35158266 37.03034896 69.3523925 34.1640625 73.34375 C32.88005238 75.14572222 31.59619557 76.94780369 30.3125 78.75 C29.69979248 79.59594727 29.08708496 80.44189453 28.45581055 81.31347656 C27.88902588 82.11237305 27.32224121 82.91126953 26.73828125 83.734375 C26.23337158 84.43788086 25.72846191 85.14138672 25.20825195 85.86621094 C23.66140503 88.33875827 23.66140503 88.33875827 23 93 C38.18 93.33 53.36 93.66 69 94 C69 99.28 69 104.56 69 110 C67.08793698 111.91206302 63.63873616 111.12785765 61.109375 111.12939453 C60.38907104 111.13114685 59.66876709 111.13289917 58.92663574 111.13470459 C56.53439966 111.13912288 54.1422369 111.13618521 51.75 111.1328125 C50.09472642 111.13348555 48.43945293 111.13445558 46.78417969 111.13571167 C43.31053733 111.13718861 39.83692063 111.13503421 36.36328125 111.13037109 C31.90067502 111.1246738 27.43812892 111.12795283 22.9755249 111.13394356 C19.5561477 111.13754927 16.13678485 111.13641054 12.71740723 111.13381577 C11.07149244 111.13314652 9.42557637 111.13397482 7.77966309 111.13629532 C5.48328169 111.13882202 3.18699901 111.13498103 0.890625 111.12939453 C-1.07342285 111.12820114 -1.07342285 111.12820114 -3.07714844 111.12698364 C-6 111 -6 111 -7 110 C-7.15366877 107.79544416 -7.22208764 105.58472882 -7.25 103.375 C-7.27578125 102.16585937 -7.3015625 100.95671875 -7.328125 99.7109375 C-6.66242708 92.18221101 -2.6965143 86.79465922 1.625 80.875 C2.71144537 79.36234381 3.79737888 77.84931986 4.8828125 76.3359375 C5.41551758 75.59698242 5.94822266 74.85802734 6.49707031 74.09667969 C8.53404457 71.25497486 10.51888476 68.38096245 12.5 65.5 C17.41677702 58.37731762 22.41361755 51.31206025 27.41210938 44.24658203 C29.05297851 41.92504485 30.6909381 39.60147896 32.328125 37.27734375 C32.86977295 36.50874023 33.4114209 35.74013672 33.96948242 34.94824219 C35.00651651 33.47652791 36.04315808 32.00453694 37.0793457 30.53222656 C37.54945068 29.86545898 38.01955566 29.19869141 38.50390625 28.51171875 C38.93848145 27.89345215 39.37305664 27.27518555 39.82080078 26.63818359 C40.78604477 25.29723387 41.80583499 23.99570034 42.83984375 22.70703125 C44.28105147 20.93045918 44.28105147 20.93045918 44 18 C43.17647789 17.9845388 43.17647789 17.9845388 42.33631897 17.96876526 C36.64278719 17.86092053 30.94942079 17.74630551 25.25610352 17.62768555 C23.12885993 17.58426577 21.0015799 17.54259607 18.87426758 17.50268555 C15.82361849 17.44515293 12.77315411 17.38141033 9.72265625 17.31640625 C8.76537125 17.29969376 7.80808624 17.28298126 6.8217926 17.26576233 C5.94095505 17.24581711 5.06011749 17.22587189 4.15258789 17.20532227 C3.37315323 17.18977798 2.59371857 17.1742337 1.79066467 17.15821838 C0 17 0 17 -1 16 C-1.09932392 13.68925832 -1.12969618 11.37537058 -1.125 9.0625 C-1.12757813 7.79535156 -1.13015625 6.52820313 -1.1328125 5.22265625 C-1 2 -1 2 0 0 Z " fill="#4F4F4F" transform="translate(408,58)"/>
<path d="M0 0 C0.72896484 -0.02900391 1.45792969 -0.05800781 2.20898438 -0.08789062 C5.45248979 -0.12653918 7.50677485 -0.14356294 10.06640625 1.95703125 C11.42613641 5.17239316 11.66791537 6.83136163 11.0625 10.3125 C9.34664205 13.14488253 7.23744897 15.57331569 5.0625 18.0625 C3.85787934 19.49072217 2.65345162 20.91910709 1.44921875 22.34765625 C0.86317871 23.03230957 0.27713867 23.71696289 -0.32666016 24.42236328 C-2.94281404 27.4921213 -5.45090676 30.6436412 -7.9453125 33.8125 C-9.49585864 35.7582834 -11.07423994 37.66284895 -12.6796875 39.5625 C-13.62029582 40.70791951 -14.56040472 41.85374934 -15.5 43 C-16.18195435 43.78443481 -16.18195435 43.78443481 -16.87768555 44.5847168 C-19.11739737 47.36283349 -19.92759522 49.07025748 -20.07421875 52.65625 C-18.57171085 57.48905892 -16.13121699 61.04625408 -13.1875 65.125 C-12.61056396 65.94524658 -12.03362793 66.76549316 -11.43920898 67.6105957 C-9.61955301 70.18838005 -7.78064347 72.75146992 -5.9375 75.3125 C-4.75641771 76.96607962 -3.57542612 78.61972403 -2.39453125 80.2734375 C3.08461795 87.9540887 3.08461795 87.9540887 8.75415039 95.49365234 C9.29934326 96.19828613 9.84453613 96.90291992 10.40625 97.62890625 C10.90189453 98.25869385 11.39753906 98.88848145 11.90820312 99.53735352 C13.6749012 102.25428705 13.7018175 104.18694779 13.0625 107.3125 C12.10546875 109.4296875 12.10546875 109.4296875 10.0625 111.3125 C4.06939499 112.81708358 -2.92459913 112.6269481 -8.9375 111.3125 C-12.75171276 108.7778941 -14.01891629 105.38478797 -15.9375 101.3125 C-17.71179054 98.27595293 -19.5812598 95.29944332 -21.4375 92.3125 C-22.39128913 90.73868354 -23.34442895 89.16447338 -24.296875 87.58984375 C-26.81065774 83.47678743 -29.4994087 79.52465194 -32.31640625 75.61328125 C-34.80071086 72.08736459 -37.07983718 68.43795291 -39.359375 64.77734375 C-40.62365912 62.80268216 -41.94810056 60.97896441 -43.375 59.125 C-44.9800881 56.23584142 -45.88624948 53.95313619 -45.69140625 50.609375 C-44.26916149 46.27631842 -40.96812696 43.17855657 -37.98046875 39.83203125 C-34.55663597 35.96418236 -31.56095538 31.82652269 -28.5625 27.625 C-28.02109375 26.86985107 -27.4796875 26.11470215 -26.921875 25.33666992 C-24.0948346 21.37889691 -21.29661368 17.40157996 -18.51171875 13.4140625 C-17.68969971 12.23976685 -17.68969971 12.23976685 -16.85107422 11.04174805 C-15.80268327 9.54110062 -14.7585643 8.03745743 -13.71923828 6.53051758 C-9.45440991 0.41368198 -7.19511272 0.09492233 0 0 Z " fill="#505050" transform="translate(93.9375,57.6875)"/>
<path d="M0 0 C3.6839569 1.38660044 6.18832373 3.27510386 9 6 C9.66773438 6.63808594 10.33546875 7.27617188 11.0234375 7.93359375 C16.17475767 13.32671058 17.96385696 18.2631454 18.4375 25.6875 C18.09409455 36.23599697 11.55223296 46.04805531 6.48876953 55.00146484 C5.49490437 56.75901108 4.51038475 58.5215368 3.52734375 60.28515625 C0.16161419 66.28907383 -3.28803367 72.2036218 -7 78 C-8.81982422 77.79467773 -8.81982422 77.79467773 -11 77 C-12.48876953 74.96899414 -12.48876953 74.96899414 -13.8828125 72.28515625 C-14.40584961 71.29684814 -14.92888672 70.30854004 -15.46777344 69.2902832 C-16.28810059 67.69253052 -16.28810059 67.69253052 -17.125 66.0625 C-18.27752448 63.86920206 -19.43118231 61.67649931 -20.5859375 59.484375 C-21.15795898 58.39060547 -21.72998047 57.29683594 -22.31933594 56.16992188 C-25.10145221 50.92253696 -28.04278822 45.76440281 -31.01611328 40.62329102 C-34.82167814 33.90205574 -36.04009835 27.45813078 -34.57421875 19.765625 C-32.46280325 12.25261279 -27.9513215 6.4880582 -21.1875 2.5625 C-20.135625 2.046875 -19.08375 1.53125 -18 1 C-13.05680809 -1.47159596 -5.41549329 -0.742579 0 0 Z " fill="#E86C33" transform="translate(302,67)"/>
<path d="M0 0 C1.08087891 -0.0309375 1.08087891 -0.0309375 2.18359375 -0.0625 C5.14438331 -0.0843106 7.62263594 0.02843525 10.35083008 1.23168945 C13.14567122 4.41112411 12.52403624 7.86432443 12.33203125 11.87109375 C12.30654709 12.72623062 12.28106293 13.58136749 12.25480652 14.4624176 C12.16806705 17.2051344 12.05280861 19.94585124 11.9375 22.6875 C11.87775997 24.49929059 11.81979793 26.31114073 11.76367188 28.12304688 C11.5297559 35.12889582 11.24223887 42.10437404 10.62109375 49.08813477 C10.08640077 55.27647544 9.88253692 61.44836323 9.73046875 67.65625 C9.66179294 69.96877948 9.59210267 72.28127902 9.52148438 74.59375 C9.4135882 78.19259353 9.31152548 81.79116738 9.22631836 85.390625 C9.14118283 88.8965961 9.0317551 92.40110725 8.91796875 95.90625 C8.89800339 96.98539673 8.87803802 98.06454346 8.85746765 99.1763916 C8.82095596 100.17843628 8.78444427 101.18048096 8.74682617 102.21289062 C8.72319504 103.09158813 8.6995639 103.97028564 8.67521667 104.87561035 C7.95187697 107.99709029 6.56626451 109.24022261 4.125 111.25 C2.14208984 111.75170898 2.14208984 111.75170898 0.0859375 111.74609375 C-0.65914062 111.74673828 -1.40421875 111.74738281 -2.171875 111.74804688 C-2.94015625 111.72806641 -3.7084375 111.70808594 -4.5 111.6875 C-5.27601562 111.69458984 -6.05203125 111.70167969 -6.8515625 111.70898438 C-9.1015625 111.68359375 -9.1015625 111.68359375 -12.875 111.25 C-15.2197387 107.73289195 -15.12095074 106.29951315 -15.10546875 102.140625 C-15.10353516 100.90957031 -15.10160156 99.67851562 -15.09960938 98.41015625 C-15.08736328 97.11980469 -15.07511719 95.82945312 -15.0625 94.5 C-15.06185547 93.25605469 -15.06121094 92.01210937 -15.06054688 90.73046875 C-15.03157866 84.50552135 -14.8284938 78.36847731 -14.39355469 72.15795898 C-13.88481345 64.77946092 -13.60911508 57.41201301 -13.41015625 50.01953125 C-13.33177391 47.39777466 -13.25298656 44.77603015 -13.17382812 42.15429688 C-13.05279988 38.08142505 -12.93534667 34.00849062 -12.82543945 29.93530273 C-12.71785406 25.96305986 -12.5953821 21.9913359 -12.47265625 18.01953125 C-12.42722435 16.18525322 -12.42722435 16.18525322 -12.38087463 14.31391907 C-12.34421188 13.1814122 -12.30754913 12.04890533 -12.26977539 10.88208008 C-12.24170303 9.88807693 -12.21363068 8.89407379 -12.18470764 7.86994934 C-11.86755284 5.18700129 -11.33050373 3.51263002 -9.875 1.25 C-6.74551748 -0.31474126 -3.43244398 0.02430049 0 0 Z " fill="#4F4F4F" transform="translate(35.875,57.75)"/>
<path d="M0 0 C13.29637153 10.0295009 24.9689612 24.89235887 27.49609375 41.8828125 C28.60535098 54.82722817 27.08758734 65.70994375 22.33984375 77.8359375 C19.98656934 83.85359634 17.86533654 89.41138992 19.49609375 95.8828125 C23.92936136 103.88658606 31.73670194 110.2320296 38.21484375 116.609375 C41.84566628 120.20117851 45.23759726 123.95077204 48.49609375 127.8828125 C48.99882812 128.4809375 49.5015625 129.0790625 50.01953125 129.6953125 C51.1847438 131.08584239 52.3415727 132.48339304 53.49609375 133.8828125 C50.49609375 133.8828125 50.49609375 133.8828125 47.83203125 131.36328125 C46.83656028 130.27332039 45.84988508 129.17527615 44.87109375 128.0703125 C44.36835938 127.52310547 43.865625 126.97589844 43.34765625 126.41210938 C41.10702941 123.92754332 39.56491567 122.08927827 38.49609375 118.8828125 C37.50609375 118.5528125 36.51609375 118.2228125 35.49609375 117.8828125 C33.98828125 116.3515625 33.98828125 116.3515625 32.37109375 114.3828125 C29.64753588 111.14931189 26.79439428 108.18696122 23.74609375 105.2578125 C19.19453131 100.714004 16.873966 97.48593244 15.93359375 91.0078125 C16.08791055 85.62487945 18.2458121 80.89912272 20.20727539 75.96826172 C26.2568789 60.55519033 25.97082502 44.33355599 20.3828125 28.78515625 C13.40165935 13.15478682 -0.14202144 2.11817861 -15.7421875 -4.171875 C-21.91999607 -6.28648557 -27.78986009 -6.30037814 -34.25390625 -6.3046875 C-35.20523438 -6.31693359 -36.1565625 -6.32917969 -37.13671875 -6.34179688 C-53.59913451 -6.37562376 -67.16711303 -0.23909865 -79.46484375 10.61328125 C-90.84986944 22.28164469 -96.03604589 39.52895892 -95.92626953 55.45361328 C-95.38910901 71.15063742 -88.44364145 86.65917414 -77.50390625 97.8828125 C-66.04467737 107.79208489 -53.20590286 113.27944201 -38.06640625 113.1328125 C-37.27169922 113.14054687 -36.47699219 113.14828125 -35.65820312 113.15625 C-30.70704616 113.14013558 -26.30155899 112.53873724 -21.52709961 111.21386719 C-19.22773604 110.83762283 -17.70470262 111.17771797 -15.50390625 111.8828125 C-17.06549684 112.36493464 -18.62822553 112.84337123 -20.19140625 113.3203125 C-21.06152344 113.58714844 -21.93164062 113.85398437 -22.828125 114.12890625 C-37.70267422 118.31983764 -52.91726283 116.32796626 -66.33984375 108.828125 C-81.42042485 99.8202345 -92.06321349 86.70164967 -97.50390625 69.8828125 C-98.25243342 66.84960164 -98.43218537 64.00267095 -98.50390625 60.8828125 C-98.54837891 59.94308594 -98.54837891 59.94308594 -98.59375 58.984375 C-99.45685714 40.13411498 -95.39964136 23.75411976 -82.81640625 9.0703125 C-74.78013759 0.71746355 -65.64137814 -4.93954722 -54.50390625 -8.1171875 C-53.30378906 -8.47167969 -52.10367188 -8.82617188 -50.8671875 -9.19140625 C-33.323604 -13.46912288 -14.78566555 -10.15004084 0 0 Z " fill="#E5F0EF" transform="translate(329.50390625,51.1171875)"/>
<path d="M0 0 C3.37696173 2.0386843 6.22246725 4.4449345 8 8 C8.55334456 13.4163919 8.50285843 17.58899309 5 22 C2.69951641 24.73224591 1.17240037 25.45533853 -2.375 25.8125 C-6.14597744 26.09318764 -8.72692989 26.09112813 -12 24 C-15.0787584 21.26332587 -16.6683562 19.63434063 -17.48828125 15.59375 C-17.72019396 11.19403459 -17.50934358 7.99942912 -14.6875 4.5 C-9.89334934 0.04032497 -6.41863387 -1.25397152 0 0 Z " fill="#FEFBF9" transform="translate(298,80)"/>
<path d="M0 0 C2.60557919 3.90836878 2.38385318 7.27258873 2.375 11.8125 C2.37338867 12.66328125 2.37177734 13.5140625 2.37011719 14.390625 C2.2009194 23.21545085 0.06295293 30.7311067 -3.15625 38.953125 C-5.50952441 44.97078384 -7.63075721 50.52857742 -6 57 C-1.56673239 65.00377356 6.24060819 71.3492171 12.71875 77.7265625 C16.34957253 81.31836601 19.74150351 85.06795954 23 89 C23.50273437 89.598125 24.00546875 90.19625 24.5234375 90.8125 C25.68865005 92.20302989 26.84547895 93.60058054 28 95 C25 95 25 95 22.3359375 92.48046875 C21.34046653 91.39050789 20.35379133 90.29246365 19.375 89.1875 C18.87226563 88.64029297 18.36953125 88.09308594 17.8515625 87.52929688 C15.61093566 85.04473082 14.06882192 83.20646577 13 80 C11.515 79.505 11.515 79.505 10 79 C8.4921875 77.46875 8.4921875 77.46875 6.875 75.5 C4.15144213 72.26649939 1.29830053 69.30414872 -1.75 66.375 C-6.30156244 61.8311915 -8.62212775 58.60311994 -9.5625 52.125 C-9.40805034 46.73743259 -7.24291132 42.01247008 -5.28881836 37.07446289 C-1.46740006 27.29850354 -0.7672778 18.01671043 -0.98486328 7.60961914 C-1.09364737 2.18729475 -1.09364737 2.18729475 0 0 Z " fill="#CBE1E0" transform="translate(355,90)"/>
<path d="M0 0 C0.99 0 1.98 0 3 0 C3.20753906 0.79921875 3.41507813 1.5984375 3.62890625 2.421875 C8.27162254 18.97247867 16.51625499 30.83209757 31 40 C40.29421678 45.00069272 48.93753878 47.35169454 59.4375 47.25 C60.23220703 47.25773437 61.02691406 47.26546875 61.84570312 47.2734375 C66.79686009 47.25732308 71.20234726 46.65592474 75.97680664 45.33105469 C78.27617021 44.95481033 79.79920363 45.29490547 82 46 C80.43840941 46.48212214 78.87568072 46.96055873 77.3125 47.4375 C76.44238281 47.70433594 75.57226562 47.97117188 74.67578125 48.24609375 C59.80123203 52.43702514 44.58664342 50.44515376 31.1640625 42.9453125 C16.17906605 33.99451635 5.26694924 20.81372257 0 4 C0 2.68 0 1.36 0 0 Z " fill="#B8D5D3" transform="translate(232,117)"/>
<path d="M0 0 C1.39482079 -0.08204828 2.79108728 -0.13966204 4.1875 -0.1875 C5.35345703 -0.23970703 5.35345703 -0.23970703 6.54296875 -0.29296875 C14.93672166 0.70787619 20.70557951 9.85582424 25.61474609 16.03125 C28.97373105 20.34701304 32.269002 24.71009741 35.55371094 29.08251953 C38.32458442 32.75612525 41.16223688 36.37798234 44 40 C43.01 40.66 42.02 41.32 41 42 C40.21689453 40.94425781 40.21689453 40.94425781 39.41796875 39.8671875 C33.82455845 32.36359329 28.10484176 24.97104901 22.29150391 17.63671875 C21.085469 16.10831459 19.89185338 14.57013339 18.69921875 13.03125 C18.01472656 12.1546875 17.33023437 11.278125 16.625 10.375 C16.03976562 9.61960938 15.45453125 8.86421875 14.8515625 8.0859375 C11.59247437 4.41430657 8.73001321 1.5918653 3.6875 1.25 C2.470625 1.1675 1.25375 1.085 0 1 C0 0.67 0 0.34 0 0 Z " fill="#DFECEB" transform="translate(315,161)"/>
<path d="M0 0 C0.33 0 0.66 0 1 0 C1 10.23 1 20.46 1 31 C-2.5414337 25.68784945 -2.18247691 20.18844562 -2.1875 14 C-2.19974609 13.2059375 -2.21199219 12.411875 -2.22460938 11.59375 C-2.23541743 7.2705262 -2.00964267 3.93985282 0 0 Z " fill="#E8F7F6" transform="translate(233,89)"/>
<path d="M0 0 C7.59 0 15.18 0 23 0 C22.01 0.33 21.02 0.66 20 1 C20 1.66 20 2.32 20 3 C15.05 3 10.1 3 5 3 C5 2.67 5 2.34 5 2 C3.35 1.67 1.7 1.34 0 1 C0 0.67 0 0.34 0 0 Z " fill="#DAE3E3" transform="translate(283,41)"/>
<path d="M0 0 C0.99 0 1.98 0 3 0 C3.25394531 0.86882812 3.50789062 1.73765625 3.76953125 2.6328125 C4.28580078 4.36144531 4.28580078 4.36144531 4.8125 6.125 C5.14894531 7.26195313 5.48539063 8.39890625 5.83203125 9.5703125 C6.9163579 13.04266366 6.9163579 13.04266366 8.69921875 16.2421875 C10 19 10 19 9 22 C0 6.39754098 0 6.39754098 0 0 Z " fill="#C6DEDC" transform="translate(232,117)"/>
<path d="M0 0 C3.67056937 1.47797262 5.41085783 3.47615477 7.75 6.625 C8.67039062 7.85089844 8.67039062 7.85089844 9.609375 9.1015625 C10.29773438 10.04128906 10.29773438 10.04128906 11 11 C10.01 11.66 9.02 12.32 8 13 C6.66094733 11.2126038 5.32890934 9.41995047 4 7.625 C3.2575 6.62726563 2.515 5.62953125 1.75 4.6015625 C0 2 0 2 0 0 Z " fill="#E8F0F0" transform="translate(348,190)"/>
<path d="M0 0 C3.76428019 3.31087949 4.80132193 7.24690847 6 12 C6.1875 15.0625 6.1875 15.0625 6 17 C3.51340379 14.51340379 2.9656889 12.39516054 1.875 9.0625 C1.52179688 8.00160156 1.16859375 6.94070312 0.8046875 5.84765625 C0 3 0 3 0 0 Z " fill="#E7F1F0" transform="translate(349,75)"/>
<path d="M0 0 C1.41702513 0.14230808 2.8336096 0.28900746 4.25 0.4375 C5.43335938 0.55931641 5.43335938 0.55931641 6.640625 0.68359375 C8.82364639 0.97634993 10.8773182 1.42064419 13 2 C13 2.66 13 3.32 13 4 C11.3954444 3.85851011 9.79136233 3.71164314 8.1875 3.5625 C7.29417969 3.48128906 6.40085937 3.40007813 5.48046875 3.31640625 C3 3 3 3 0 2 C0 1.34 0 0.68 0 0 Z " fill="#F5F6F6" transform="translate(303,42)"/>
<path d="M0 0 C2.4375 0.75 2.4375 0.75 4.4375 2.75 C4.1075 3.41 3.7775 4.07 3.4375 4.75 C0.4675 3.76 -2.5025 2.77 -5.5625 1.75 C-2.5625 -0.25 -2.5625 -0.25 0 0 Z " fill="#D9E3E2" transform="translate(318.5625,45.25)"/>
<path d="M0 0 C0.33 0 0.66 0 1 0 C1.03738281 0.59167969 1.07476562 1.18335938 1.11328125 1.79296875 C1.51376901 6.60667451 2.0385035 10.00841777 5 14 C4.01 14 3.02 14 2 14 C-0.28062828 10.57905758 -0.21925007 9.31812778 -0.125 5.3125 C-0.10695313 4.31863281 -0.08890625 3.32476562 -0.0703125 2.30078125 C-0.04710937 1.54152344 -0.02390625 0.78226563 0 0 Z " fill="#A3D7D4" transform="translate(347,138)"/>
<path d="M0 0 C1.65 1.65 3.3 3.3 5 5 C4.34 5.66 3.68 6.32 3 7 C1.5 5.75 1.5 5.75 0 4 C0 2.68 0 1.36 0 0 Z " fill="#CEE6E4" transform="translate(336,57)"/>
</svg>
