<?xml version="1.0" encoding="UTF-8"?>
<svg version="1.1" xmlns="http://www.w3.org/2000/svg" width="253" height="105">
<path d="M0 0 C83.49 0 166.98 0 253 0 C253 34.65 253 69.3 253 105 C169.51 105 86.02 105 0 105 C0 70.35 0 35.7 0 0 Z " fill="#FDFDFD" transform="translate(0,0)"/>
<path d="M0 0 C5.32164554 3.03786243 8.64463562 7.74786828 10.8984375 13.359375 C13.70888503 23.72451178 11.19263199 33.66390861 7.75 43.5 C9.4 44.49 11.05 45.48 12.75 46.5 C12.09 48.81 11.43 51.12 10.75 53.5 C7.82937259 53.0943573 6.10313322 52.79617625 3.8125 50.875 C1.79364684 49.20676702 1.79364684 49.20676702 -0.875 49.8125 C-1.98875 50.039375 -3.1025 50.26625 -4.25 50.5 C-10.71780798 51.20538174 -15.2155182 50.77528464 -20.56640625 46.91015625 C-25.63437264 42.66529345 -27.98220216 37.90329779 -29.25 31.5 C-30.09784696 21.58935653 -29.7756199 12.62666843 -23.4375 4.625 C-17.02578294 -2.13160159 -8.59713612 -3.70566212 0 0 Z " fill="#2F3E94" transform="translate(50.25,10.5)"/>
<path d="M0 0 C4.95 0 9.9 0 15 0 C15.33 7.92 15.66 15.84 16 24 C17.65 24.33 19.3 24.66 21 25 C21.99 24.34 22.98 23.68 24 23 C24.41527124 20.87305335 24.41527124 20.87305335 24.29296875 18.4296875 C24.28330078 17.53378906 24.27363281 16.63789062 24.26367188 15.71484375 C24.23853516 14.77769531 24.21339844 13.84054688 24.1875 12.875 C24.17396484 11.93011719 24.16042969 10.98523437 24.14648438 10.01171875 C24.11106306 7.67391221 24.06167271 5.33723763 24 3 C23.01 2.67 22.02 2.34 21 2 C21 1.34 21 0.68 21 0 C25.95 0 30.9 0 36 0 C36.05607422 2.76310547 36.05607422 2.76310547 36.11328125 5.58203125 C36.1789281 7.9922083 36.24537587 10.40236364 36.3125 12.8125 C36.34633789 14.63491211 36.34633789 14.63491211 36.38085938 16.49414062 C36.41630859 17.65751953 36.45175781 18.82089844 36.48828125 20.01953125 C36.51446533 21.09307861 36.54064941 22.16662598 36.56762695 23.27270508 C36.78528992 26.37295595 36.78528992 26.37295595 40 29 C35.05 29 30.1 29 25 29 C25 28.01 25 27.02 25 26 C24.30003906 26.4846875 23.60007812 26.969375 22.87890625 27.46875 C19.63959039 29.19169683 17.58286782 29.46313155 13.9375 29.5 C12.91527344 29.5309375 11.89304687 29.561875 10.83984375 29.59375 C8 29 8 29 5.67578125 27.14453125 C3.23295474 22.56067264 3.32568472 18.30997913 3.25 13.1875 C3.22035156 12.20845703 3.19070312 11.22941406 3.16015625 10.22070312 C3.08970798 7.81372047 3.03688975 5.4076921 3 3 C2.01 2.67 1.02 2.34 0 2 C0 1.34 0 0.68 0 0 Z " fill="#2E3D94" transform="translate(63,25)"/>
<path d="M0 0 C6.6 0 13.2 0 20 0 C20 1.98 20 3.96 20 6 C21.65 6 23.3 6 25 6 C25.36509207 13.42353883 25.36509207 13.42353883 23.8125 15.875 C22 17 22 17 19.5625 17.9375 C16.5974075 19.1669286 15.02472303 20.52533851 13 23 C13 23.99 13 24.98 13 26 C13.99 26.33 14.98 26.66 16 27 C16 27.99 16 28.98 16 30 C16.99 30.33 17.98 30.66 19 31 C19 32.32 19 33.64 19 35 C13.06 35 7.12 35 1 35 C2 30 2 30 4 27 C4.99 26.67 5.98 26.34 7 26 C6.45466911 22.18268377 4.93170573 20.44308811 2 18 C1.154375 17.690625 0.30875 17.38125 -0.5625 17.0625 C-3.7940227 15.65388754 -4.59087785 14.18906591 -6 11 C-6.1875 8.1875 -6.1875 8.1875 -6 6 C-4.02 6 -2.04 6 0 6 C0 4.02 0 2.04 0 0 Z " fill="#F9C40E" transform="translate(171,19)"/>
<path d="M0 0 C6.27 0 12.54 0 19 0 C19 0.66 19 1.32 19 2 C18.01 2.33 17.02 2.66 16 3 C16.47730838 4.4589426 16.95691042 5.91713496 17.4375 7.375 C17.70433594 8.18710938 17.97117188 8.99921875 18.24609375 9.8359375 C18.95179729 12.01031799 18.95179729 12.01031799 20 14 C22.31 9.38 24.62 4.76 27 0 C28.32 0 29.64 0 31 0 C31.49371094 0.92683594 31.98742187 1.85367188 32.49609375 2.80859375 C33.14313499 4.01827955 33.79027554 5.22791222 34.4375 6.4375 C34.76298828 7.04916016 35.08847656 7.66082031 35.42382812 8.29101562 C36.93715142 11.33716206 36.93715142 11.33716206 39 14 C39.495 12.9275 39.99 11.855 40.5 10.75 C40.7784375 10.14671875 41.056875 9.5434375 41.34375 8.921875 C42.21542924 6.70757164 42.21542924 6.70757164 42 3 C40.68 2.67 39.36 2.34 38 2 C38 1.34 38 0.68 38 0 C42.95 0 47.9 0 53 0 C53 0.66 53 1.32 53 2 C52.39768555 2.05921631 51.79537109 2.11843262 51.17480469 2.17944336 C48.01824779 3.37041639 47.59033717 5.10676544 46.203125 8.12890625 C45.71972656 9.16337891 45.23632812 10.19785156 44.73828125 11.26367188 C44.24714844 12.35228516 43.75601563 13.44089844 43.25 14.5625 C42.74339844 15.65498047 42.23679688 16.74746094 41.71484375 17.87304688 C40.46353181 20.57635286 39.22600239 23.28514486 38 26 C36.68 26 35.36 26 34 26 C32.82823482 23.87767021 31.66245215 21.75242209 30.5 19.625 C30.16613281 19.02171875 29.83226562 18.4184375 29.48828125 17.796875 C27 13.2265625 27 13.2265625 27 11 C26.34 11 25.68 11 25 11 C24.773125 11.804375 24.54625 12.60875 24.3125 13.4375 C22.66368412 17.91285739 20.39455588 21.88721318 18 26 C16.68 26 15.36 26 14 26 C13.71801758 25.30849854 13.43603516 24.61699707 13.14550781 23.90454102 C11.86265389 20.78382285 10.55671809 17.67329657 9.25 14.5625 C8.8065625 13.47388672 8.363125 12.38527344 7.90625 11.26367188 C7.46796875 10.22919922 7.0296875 9.19472656 6.578125 8.12890625 C6.18012695 7.17056885 5.78212891 6.21223145 5.37207031 5.22485352 C4.2050466 2.82670822 4.2050466 2.82670822 1.83886719 2.17944336 C1.23204102 2.12022705 0.62521484 2.06101074 0 2 C0 1.34 0 0.68 0 0 Z " fill="#6B3494" transform="translate(117,58)"/>
<path d="M0 0 C0 1.32 0 2.64 0 4 C1.5159375 3.01 1.5159375 3.01 3.0625 2 C6.84248434 -0.14580929 9.62047095 -0.56771673 14 0 C17.5386994 1.65139305 18.81070153 2.71605229 21 6 C21.22705078 7.99291992 21.22705078 7.99291992 21.1953125 10.23046875 C21.18886719 11.03291016 21.18242187 11.83535156 21.17578125 12.66210938 C21.15902344 13.49548828 21.14226562 14.32886719 21.125 15.1875 C21.11597656 16.03248047 21.10695312 16.87746094 21.09765625 17.74804688 C21.07410703 19.83215243 21.03823647 21.91611217 21 24 C22.32 24.66 23.64 25.32 25 26 C19.39 26 13.78 26 8 26 C8 25.34 8 24.68 8 24 C8.66 23.67 9.32 23.34 10 23 C10.02684679 20.35409986 10.04676357 17.70846904 10.0625 15.0625 C10.07087891 14.30775391 10.07925781 13.55300781 10.08789062 12.77539062 C10.09652441 10.85005687 10.05224333 8.92464419 10 7 C8.99163938 5.76732652 8.99163938 5.76732652 6.93359375 5.90234375 C5.69802734 5.91974609 5.69802734 5.91974609 4.4375 5.9375 C3.61121094 5.94652344 2.78492188 5.95554687 1.93359375 5.96484375 C0.97646484 5.98224609 0.97646484 5.98224609 0 6 C0.08672746 8.79322218 0.19355357 11.58312528 0.3125 14.375 C0.33505859 15.1690625 0.35761719 15.963125 0.38085938 16.78125 C0.47785075 18.86215581 0.72994825 20.93441332 1 23 C1.99 23.66 2.98 24.32 4 25 C4 25.66 4 26.32 4 27 C-1.94 27 -7.88 27 -14 27 C-14 26.01 -14 25.02 -14 24 C-12.68 23.67 -11.36 23.34 -10 23 C-9.505 14.09 -9.505 14.09 -9 5 C-10.32 4.67 -11.64 4.34 -13 4 C-13 3.34 -13 2.68 -13 2 C-11.39658445 1.66307215 -9.79223445 1.33058907 -8.1875 1 C-7.29417969 0.814375 -6.40085938 0.62875 -5.48046875 0.4375 C-3 0 -3 0 0 0 Z " fill="#6D3696" transform="translate(208,57)"/>
<path d="M0 0 C3.95414268 2.12915375 6.49654495 3.74021071 8 8 C8.19240838 10.87480754 8.27924569 13.62904831 8.25 16.5 C8.25773437 17.25925781 8.26546875 18.01851562 8.2734375 18.80078125 C8.25989235 22.66792278 8.19299412 25.72791354 6 29 C2.9168649 27.80100302 -0.06279492 26.52299523 -3 25 C-3.66 26.98 -4.32 28.96 -5 31 C-3.68 31.33 -2.36 31.66 -1 32 C-1 32.66 -1 33.32 -1 34 C-7.32884728 33.6348742 -7.32884728 33.6348742 -10.3125 30.8125 C-14.31115022 24.14808296 -14.84151692 17.65575148 -14 10 C-11.65054869 3.09697295 -7.45388079 -1.04354331 0 0 Z " fill="#F8F8FB" transform="translate(44,18)"/>
<path d="M0 0 C10.56 0 21.12 0 32 0 C30.46297165 3.07405671 29.26526722 5.08173841 27.13671875 7.64453125 C26.57919922 8.32193359 26.02167969 8.99933594 25.44726562 9.69726562 C24.86654297 10.39529297 24.28582031 11.09332031 23.6875 11.8125 C19.58989612 16.75468362 15.67113003 21.73092969 12 27 C13.91924787 26.77065591 15.8354406 26.51565657 17.75 26.25 C18.81734375 26.11078125 19.8846875 25.9715625 20.984375 25.828125 C24.43549768 24.88040737 25.76122515 23.74092996 28 21 C28.33 20.34 28.66 19.68 29 19 C29.66 19 30.32 19 31 19 C30.67 22.3 30.34 25.6 30 29 C19.11 29 8.22 29 -3 29 C-1.45499679 25.90999359 -0.24517904 23.89577577 1.8984375 21.3203125 C2.46046875 20.63839844 3.0225 19.95648438 3.6015625 19.25390625 C4.18679687 18.55136719 4.77203125 17.84882812 5.375 17.125 C9.17632571 12.55153 12.80486427 8.02092758 16 3 C12.27212459 3.06962076 8.6549185 3.23225085 5 4 C2.8613923 6.38987933 2.8613923 6.38987933 2 9 C1.34 9 0.68 9 0 9 C0 6.03 0 3.06 0 0 Z " fill="#374699" transform="translate(132,25)"/>
<path d="M0 0 C5.28 0 10.56 0 16 0 C16.02578125 1.84207031 16.0515625 3.68414063 16.078125 5.58203125 C16.1343938 7.9922116 16.1917414 10.40236693 16.25 12.8125 C16.26417969 14.02744141 16.27835938 15.24238281 16.29296875 16.49414062 C16.32519531 17.65751953 16.35742188 18.82089844 16.390625 20.01953125 C16.41157227 21.09307861 16.43251953 22.16662598 16.45410156 23.27270508 C16.79270441 26.53898601 16.79270441 26.53898601 21 29 C14.07 29 7.14 29 0 29 C1.32 28.01 2.64 27.02 4 26 C4.55048313 23.49276509 4.55048313 23.49276509 4.390625 20.67578125 C4.37773438 19.64775391 4.36484375 18.61972656 4.3515625 17.56054688 C4.30128906 15.95276367 4.30128906 15.95276367 4.25 14.3125 C4.22292969 12.68731445 4.22292969 12.68731445 4.1953125 11.02929688 C4.14813508 8.35197854 4.08232249 5.67643091 4 3 C2.68 2.67 1.36 2.34 0 2 C0 1.34 0 0.68 0 0 Z " fill="#2E3E94" transform="translate(107,25)"/>
<path d="M0 0 C0.33 7.26 0.66 14.52 1 22 C2.32 22.33 3.64 22.66 5 23 C5 23.66 5 24.32 5 25 C-1.27 25 -7.54 25 -14 25 C-14 24.34 -14 23.68 -14 23 C-12.68 22.67 -11.36 22.34 -10 22 C-9.505 13.09 -9.505 13.09 -9 4 C-10.32 3.67 -11.64 3.34 -13 3 C-13 2.34 -13 1.68 -13 1 C-8.45368876 0.11291488 -4.76562241 0 0 0 Z " fill="#672F92" transform="translate(186,58)"/>
<path d="M0 0 C6.6 0 13.2 0 20 0 C20 1.98 20 3.96 20 6 C21.65 6 23.3 6 25 6 C25.25 8.3125 25.25 8.3125 25 11 C22.95575462 12.97610386 21.8823175 14 19 14 C19 9.71 19 5.42 19 1 C13.06 1 7.12 1 1 1 C1.33 4.96 1.66 8.92 2 13 C2.66 12.67 3.32 12.34 4 12 C4.66 14.64 5.32 17.28 6 20 C5.01 20 4.02 20 3 20 C2.67 19.34 2.34 18.68 2 18 C1.21625 17.731875 0.4325 17.46375 -0.375 17.1875 C-3.70815887 15.67964242 -4.53552988 14.31432711 -6 11 C-6.1875 8.1875 -6.1875 8.1875 -6 6 C-4.02 6 -2.04 6 0 6 C0 4.02 0 2.04 0 0 Z " fill="#F6B124" transform="translate(171,19)"/>
<path d="M0 0 C3.5625 0.3125 3.5625 0.3125 5.5625 1.5625 C6.5625 3.3125 6.5625 3.3125 6.375 5.375 C5.5625 7.3125 5.5625 7.3125 3.5625 9.3125 C-2.54861111 9.86805556 -2.54861111 9.86805556 -5.4375 8.0625 C-6.4375 6.3125 -6.4375 6.3125 -6.25 4.25 C-4.77905983 0.74237344 -3.8059492 0.34599538 0 0 Z " fill="#334297" transform="translate(117.4375,10.6875)"/>
<path d="M0 0 C5.28 0 10.56 0 16 0 C16.33 1.65 16.66 3.3 17 5 C11.06 5 5.12 5 -1 5 C-0.67 3.35 -0.34 1.7 0 0 Z " fill="#222429" transform="translate(173,49)"/>
<path d="M0 0 C6.6 0 13.2 0 20 0 C20 1.98 20 3.96 20 6 C21.65 6 23.3 6 25 6 C25.25 8.3125 25.25 8.3125 25 11 C22.95575462 12.97610386 21.8823175 14 19 14 C19 9.71 19 5.42 19 1 C12.73 1 6.46 1 0 1 C0 0.67 0 0.34 0 0 Z " fill="#F8C161" transform="translate(171,19)"/>
<path d="M0 0 C0.66 0.99 1.32 1.98 2 3 C2.99 3.33 3.98 3.66 5 4 C5 4.99 5 5.98 5 7 C0.71 7 -3.58 7 -8 7 C-7.67 6.01 -7.34 5.02 -7 4 C-2.25 2.875 -2.25 2.875 0 4 C0 2.68 0 1.36 0 0 Z " fill="#E09821" transform="translate(182,42)"/>
<path d="M0 0 C5.94 0 11.88 0 18 0 C17.67 0.66 17.34 1.32 17 2 C16.32453125 1.96519531 15.6490625 1.93039063 14.953125 1.89453125 C14.06109375 1.86746094 13.1690625 1.84039063 12.25 1.8125 C11.36828125 1.77769531 10.4865625 1.74289063 9.578125 1.70703125 C6.49506897 2.05737853 5.21484036 2.85998533 3 5 C2.67 5.99 2.34 6.98 2 8 C1.34 8 0.68 8 0 8 C0 5.36 0 2.72 0 0 Z " fill="#2B3B92" transform="translate(132,26)"/>
<path d="M0 0 C4.29 0 8.58 0 13 0 C13.33 0.99 13.66 1.98 14 3 C9.38 3 4.76 3 0 3 C0 2.01 0 1.02 0 0 Z " fill="#D2C694" transform="translate(174,50)"/>
<path d="M0 0 C2 3 2 3 1.625 5.6875 C1.41875 6.450625 1.2125 7.21375 1 8 C0.34 8 -0.32 8 -1 8 C-1 8.99 -1 9.98 -1 11 C-1.99 10.67 -2.98 10.34 -4 10 C-3.71872579 8.51882199 -3.42466268 7.04006751 -3.125 5.5625 C-2.96257812 4.73878906 -2.80015625 3.91507813 -2.6328125 3.06640625 C-2.42398438 2.38449219 -2.21515625 1.70257812 -2 1 C-1.34 0.67 -0.68 0.34 0 0 Z " fill="#FBD33A" transform="translate(188,22)"/>
<path d="M0 0 C2.97 0.495 2.97 0.495 6 1 C6 3.31 6 5.62 6 8 C5.38125 7.505 4.7625 7.01 4.125 6.5 C2.16119096 4.80777227 2.16119096 4.80777227 0 5 C0 3.35 0 1.7 0 0 Z " fill="#FBD776" transform="translate(165,25)"/>
<path d="M0 0 C0.66 0.33 1.32 0.66 2 1 C1.42655063 3.86724686 1.1385485 4.8614515 -1 7 C-2.32 7 -3.64 7 -5 7 C-5 6.01 -5 5.02 -5 4 C-4.360625 3.71125 -3.72125 3.4225 -3.0625 3.125 C-0.84793921 2.17176549 -0.84793921 2.17176549 0 0 Z " fill="#F7B613" transform="translate(194,29)"/>
<path d="M0 0 C1.5 1.375 1.5 1.375 3 3 C3 3.66 3 4.32 3 5 C4.32 5.33 5.64 5.66 7 6 C6.67 6.66 6.34 7.32 6 8 C3.08482708 6.92598892 1.22189824 6.22189824 -1 4 C-0.625 1.875 -0.625 1.875 0 0 Z " fill="#F7B60F" transform="translate(167,29)"/>
<path d="M0 0 C-0.33 1.65 -0.66 3.3 -1 5 C-2.32 4.67 -3.64 4.34 -5 4 C-5.33 2.68 -5.66 1.36 -6 0 C-3.50907189 -1.24546405 -2.58919267 -0.7767578 0 0 Z " fill="#FCE1BC" transform="translate(184,27)"/>
<path d="M0 0 C1.65 0 3.3 0 5 0 C4.43628586 3.26954202 3.50037734 4.82575883 1 7 C0.34 6.67 -0.32 6.34 -1 6 C-0.67 4.02 -0.34 2.04 0 0 Z " fill="#FBDB7E" transform="translate(191,26)"/>
</svg>
