<?xml version="1.0" encoding="utf-8"?>
<!-- Generator: Adobe Illustrator 13.0.0, SVG Export Plug-In  -->
<!DOCTYPE svg PUBLIC "-//W3C//DTD SVG 1.1//EN" "http://www.w3.org/Graphics/SVG/1.1/DTD/svg11.dtd" [
	<!ENTITY ns_flows "http://ns.adobe.com/Flows/1.0/">
]>
<svg version="1.1"
	 xmlns="http://www.w3.org/2000/svg" xmlns:xlink="http://www.w3.org/1999/xlink" xmlns:a="http://ns.adobe.com/AdobeSVGViewerExtensions/3.0/"
	 x="0px" y="0px" width="487px" height="513px" viewBox="-0.101 -0.664 487 513" enable-background="new -0.101 -0.664 487 513"
	 xml:space="preserve">
<defs>
</defs>
<path fill-rule="evenodd" clip-rule="evenodd" fill="#45567C" d="M330,0c11.667,0,23.333,0,35,0c16.444,4.555,24.938,17.062,23,40
	c10.796,6.871,24.066,11.267,33,20c9.536-5.959,18.721-12.608,32-10c18.354,3.604,25.021,30.454,33,44c0,2.333,0,4.667,0,7
	c-2.666,15-14.122,21.211-26,27c2.578,10.258,3.044,26.854,0,37c11.057,6.943,23.276,12.724,26,28c0,2.333,0,4.667,0,7
	c-7.029,27.18-34.518,61.837-64,35c-11.64,5.693-20.353,14.313-34,18c16.429,56.32-95.548,57.477-80,1
	c-9.775-5.559-21.473-9.193-29-17c-12.418,20.582-26.41,39.59-49,50c56.038,19.175,109.65,66.496,115,140
	c0.798,10.958,0,25.029,0,43c0,15.396,3.539,37.428-7,42c-109.668,0-219.332,0-329,0c-2.229-1.438-4.62-2.713-7-4
	c-0.553-1.78-0.514-4.153-2-5c0-23.667,0-47.333,0-71c9.224-77.11,49.931-122.735,115-144c-7.634-7.366-16.856-13.145-25-20
	c-29.852-29.39-42.438-81.343-25-125c20.634-51.658,82.646-91.483,152-65c6.827-9.061,10.277-23.265,23-27
	c14.007-4.112,24.399,2.454,35,9c9.434-7.899,20.409-14.257,33-19C305.271,17.271,314.063,5.064,330,0z M330,24
	c-3.715,12.358,2.378,24.587-3,32c-4.702,6.481-19.809,7.795-27,12c-6.437,3.764-17.113,15.862-24,16
	c-10.604,0.213-19.493-14.535-28-13c-6.979,1.259-9.178,13.841-12,18c36.371,21.302,63.224,68.889,50,127
	c6.614,4.573,14.901,11.813,25,16c6.092,2.525,13.684,2.345,17,8c4.356,7.43,0.032,18.703,3,30c6.421,4.694,28.579,4.694,35,0
	c2.646-8.021-0.557-21.89,2-30c7.153-6.686,16.748-7.326,27-13c8.73-4.832,16.545-15.627,25-16c11.798-0.521,15.061,11.584,29,12
	c6.782-8.217,13.671-16.33,16-29c-4.907-10.469-22.947-7.728-26-20c-1.645-6.613,2.746-16.261,3-24c0.355-10.816-4.899-22.146-3-30
	c2.479-10.249,24.372-11.637,26-21c1.043-5.999-11.126-27.212-18-28c-7.017-0.805-18.16,13.631-28,13
	c-5.99-0.384-19.715-13.997-25-17c-9.081-5.16-23.822-4.417-27-15c-2.354-7.839,3.914-18.599-3-29
	C354.899,21.685,337.569,20.482,330,24z M134,98c-31.012,13.405-54.985,41.292-57,83c-3.772,78.099,83.346,127.219,149,85
	c24.732-15.904,45.186-46.646,42-88c-4.154-53.926-49.991-92.681-108-86C150.448,93.1,140.899,95.018,134,98z M153,302
	c-90.15,6.216-142.546,78.689-132,188c100.999,0,202,0,303,0C333.55,364.457,272.945,293.729,153,302z"/>
<path fill-rule="evenodd" clip-rule="evenodd" fill="#45567C" d="M341,89c43.273-4.649,80.771,40.908,59,85
	c-9.415,19.067-25.293,29.665-45,32C275.425,215.43,264.967,97.168,341,89z M327,114c-28.475,16.794-19.069,69.124,17,71
	c52.922,2.753,52.137-80.07-1-75C336.073,110.661,331.237,111.501,327,114z"/>
<path fill-rule="evenodd" clip-rule="evenodd" fill="#45567C" d="M0,503c1.486,0.847,1.447,3.22,2,5c2.38,1.287,4.771,2.563,7,4
	c-3,0-6,0-9,0C0,509,0,506,0,503z"/>
</svg>
