<?xml version="1.0" encoding="utf-8"?>
<!-- Generator: Adobe Illustrator 13.0.0, SVG Export Plug-In  -->
<!DOCTYPE svg PUBLIC "-//W3C//DTD SVG 1.1//EN" "http://www.w3.org/Graphics/SVG/1.1/DTD/svg11.dtd" [
	<!ENTITY ns_flows "http://ns.adobe.com/Flows/1.0/">
]>
<svg version="1.1"
	 xmlns="http://www.w3.org/2000/svg" xmlns:xlink="http://www.w3.org/1999/xlink" xmlns:a="http://ns.adobe.com/AdobeSVGViewerExtensions/3.0/"
	 x="0px" y="0px" width="363px" height="483px" viewBox="-0.673 -0.663 363 483" enable-background="new -0.673 -0.663 363 483"
	 xml:space="preserve">
<defs>
</defs>
<path fill-rule="evenodd" clip-rule="evenodd" fill="#45567C" d="M170,0c7.333,0,14.666,0,22,0
	c93.244,13.423,134.697,78.635,125,195c25.799,3.201,40.881,17.118,45,42c0,68,0,136,0,204c-3.846,22.822-17.018,36.316-39,41
	c-94.668,0-189.334,0-284,0c-21.968-4.699-35.158-18.177-39-41c0-68,0-136,0-204c4.688-23.979,17.639-39.694,45-41
	C35.177,79.179,76.41,13.409,170,0z M286,123c-5.398-57.451-58.055-97.383-115-92c-75.666,7.152-104.699,69.176-95,165
	c70,0,139.998,0,210,0C284.322,169.406,288.283,147.297,286,123z M30,277c0,41.823,0,77.407,0,116c0,17.297-2.436,48.347,4,55
	c8.482,8.771,51.725,4,71,4c60.67,0,94.332,0,151,0c18.834,0,63.02,5.286,72-4c7.176-7.421,4-36.686,4-52c0-42.287,0-70.982,0-113
	c0-14.986,3.908-44.622-4-53c-7.389-7.825-47.334-4-68-4c-72.596,0-151.854-3.901-217,0c-1.146,0.068-1.473,0.845-2,1
	C25.915,231.445,30,258.178,30,277z"/>
<path fill-rule="evenodd" clip-rule="evenodd" fill="#45567C" d="M196,358c-3.168,13.425,5.068,32.266-2,43
	c-5.146,7.813-20.676,8.087-26,0c-6.281-9.539,0.578-27.301-2-42c-42.759-12.62-37.859-83.782,10-88
	C231.164,266.138,243.678,343.27,196,358z M166,320c3.621,20.019,43.03,10.705,28-13c-1.999-3.151-7.91-6.45-16-5
	C166.865,303.996,164.023,309.079,166,320z"/>
<path fill-rule="evenodd" clip-rule="evenodd" fill="#45567C" d="M0,441c3.842,22.823,17.032,36.301,39,41c-13,0-26,0-39,0
	C0,468.333,0,454.667,0,441z"/>
<path fill-rule="evenodd" clip-rule="evenodd" fill="#45567C" d="M362,441c0,13.667,0,27.333,0,41c-13,0-26,0-39,0
	C344.982,477.316,358.154,463.822,362,441z"/>
</svg>
