<?xml version="1.0" encoding="utf-8"?>
<!-- Generator: Adobe Illustrator 13.0.0, SVG Export Plug-In  -->
<!DOCTYPE svg PUBLIC "-//W3C//DTD SVG 1.1//EN" "http://www.w3.org/Graphics/SVG/1.1/DTD/svg11.dtd" [
	<!ENTITY ns_flows "http://ns.adobe.com/Flows/1.0/">
]>
<svg version="1.1"
	 xmlns="http://www.w3.org/2000/svg" xmlns:xlink="http://www.w3.org/1999/xlink" xmlns:a="http://ns.adobe.com/AdobeSVGViewerExtensions/3.0/"
	 x="0px" y="0px" width="411px" height="317px" viewBox="-0.841 -0.722 411 317" enable-background="new -0.841 -0.722 411 317"
	 xml:space="preserve">
<defs>
</defs>
<path display="none" fill-rule="evenodd" clip-rule="evenodd" fill="#45567C" d="M41,0c-10.905,2.871-7,39.751-7,54
	c0,42.433,0,75.061,0,117c0,17.799,2.981,40.711,0,58c-2.031,11.777-11.558,25.82-17,38c-6.63,14.84-11.112,27.467-17,38
	C0,203.334,0,101.667,0,0C13.667,0,27.333,0,41,0z"/>
<path fill-rule="evenodd" clip-rule="evenodd" fill="#45567C" d="M41,0c109.333,0,218.667,0,328,0c10.757,0.333,7,39.289,7,57
	c0,40.32,0,74.081,0,114c0,18.629-2.55,40.188,0,57c2.082,13.73,11.687,27.107,17,39c6.221,13.922,10.65,25.74,17,38
	c0,1.332,0,2.666,0,4c-1.352,2.98-3.41,5.256-6,7c-132.668,0-265.331,0-398,0c-2.59-1.744-4.648-4.02-6-7c0-1.334,0-2.668,0-4
	c5.888-10.533,10.37-23.16,17-38c5.442-12.18,14.969-26.223,17-38c2.981-17.289,0-40.201,0-58c0-41.94,0-74.567,0-117
	C34,39.751,30.095,2.871,41,0z M54,17c-4.038,0.221-2.586,1.748-3,4c-2.657,14.471,0,33.163,0,50c0,50.621,0,102.797,0,151
	c102.665,0,205.335,0,308,0c0-68,0-136,0-204C259.33,15.667,155.335,17.666,54,17z M22,299c121.999,0,244.001,0,366,0
	c-8.255-20.412-18.001-39.334-26-60c-104.333,0-208.667,0-313,0C39.279,258.28,30.821,278.821,22,299z"/>
<path fill-rule="evenodd" clip-rule="evenodd" fill="#45567C" d="M163,145c-11.667,0-23.333,0-35,0c-6.413,8.502-7.796,33.776-24,23
	c0.36-20.228,8.739-33,16-51c2.929-7.261,6.576-16.511,10-25c3.875-9.608,8.919-31.51,21-22c3.55,2.794,7.25,16.071,10,23
	c7.079,17.838,11.778,29.5,19,47c3.687,8.934,15.017,30.315,0,31C168.112,171.542,168.977,151.611,163,145z M134,128
	c7.333,0,14.667,0,22,0c-3.386-9.281-6.341-18.992-11-27C141.041,109.708,137.719,119.053,134,128z"/>
<path fill-rule="evenodd" clip-rule="evenodd" fill="#45567C" d="M223,128c-4.702,13.088,5.931,42.319-9,43
	c-14.104,0.643-9-33.035-9-49c0-22.035-2.671-42.783,4-53c32.696-8.596,77.229,6.318,62,42C265.197,124.597,248.656,130.571,223,128
	z M254,90c-4.694-6.608-20.692-5.571-32-4c0,8.333,0,16.667,0,25C243.048,115.564,265.297,105.901,254,90z"/>
<path fill-rule="evenodd" clip-rule="evenodd" fill="#45567C" d="M305,169c-19.399,11.605-15-25.979-15-45
	c0-22.867-1.895-44.203,3-54c5.692-3.171,10.463-0.874,14,3C305.73,104.396,309.581,140.914,305,169z"/>
<path fill-rule="evenodd" clip-rule="evenodd" fill="#45567C" d="M0,309c1.352,2.98,3.41,5.256,6,7c-2,0-4,0-6,0
	C0,313.667,0,311.333,0,309z"/>
<path fill-rule="evenodd" clip-rule="evenodd" fill="#45567C" d="M410,309c0,2.332,0,4.666,0,7c-2,0-4,0-6,0
	C406.59,314.256,408.648,311.981,410,309z"/>
</svg>
