<?xml version="1.0" encoding="utf-8"?>
<!-- Generator: Adobe Illustrator 13.0.0, SVG Export Plug-In  -->
<!DOCTYPE svg PUBLIC "-//W3C//DTD SVG 1.1//EN" "http://www.w3.org/Graphics/SVG/1.1/DTD/svg11.dtd" [
	<!ENTITY ns_flows "http://ns.adobe.com/Flows/1.0/">
]>
<svg version="1.1"
	 xmlns="http://www.w3.org/2000/svg" xmlns:xlink="http://www.w3.org/1999/xlink" xmlns:a="http://ns.adobe.com/AdobeSVGViewerExtensions/3.0/"
	 x="0px" y="0px" width="477px" height="477px" viewBox="-0.782 -0.388 477 477" enable-background="new -0.782 -0.388 477 477"
	 xml:space="preserve">
<defs>
</defs>
<path display="none" fill-rule="evenodd" clip-rule="evenodd" fill="#45567C" d="M155,0c-8.195,4.981-5,29.956-5,43
	c0,15.751,2.425,34.936,0,45c-1.479,6.137-8.616,11.249-13,16c-2.856,3.095-12.258,10.153-10,16c4.889,12.657,34.63,1.005,51,5
	c0.432,7.902-1.006,17.672,1,24c20.438,5.368,46.443,3,72,3c25.234,0,51.527,1.588,73-2c8.723-23.819-4.561-58.772,2-86
	c3-12.446,26.854-21.713,23-32c-4.725-12.616-34.344-1.05-51-5c-0.922-9.744,3.064-24.396-5-27c61,0,122,0,183,0
	c0,23.333,0,46.667,0,70C473.355,7.705,370.63,2.038,365,70c-3.314,40.03,37.943,75.145,80,55c14.438-6.915,27.275-21.757,31-45
	c0,132.001,0,263.999,0,395.999c-51,0-102,0-153,0c49.381-5.287,27.064-82.27,32-132c44.598-2.055,91.814,10.395,101-26.999
	c4.201-17.102,1-49.042,1-76c0-25.544,3.252-54.141,0-74c-3.438-21-27.162-35.151-50-27c-37.611,13.424-20.029,83.191-24,130
	c-49.34,2.237-96.904-12.25-102,34c-1.928,17.505,0,43.304,0,67.999c0,52.266-8.072,97.404,33,104c-50.666,0-101.333,0-152,0
	c40.021-4.086,33-52.879,33-103c0-27.688,4.001-59.132-2-77.999c-12.25-38.515-58.209-20.988-100-25
	c-5.096-35.352,8.136-81.234-3-110c-11.382-29.403-60.531-29.771-70,2c-6.012,20.171-1,53.057-1,78c0,25.055-4.134,56.01,1,77
	c9.251,37.823,57.253,24.673,101,26.999c4.936,49.73-17.38,126.713,32,132c-51,0-102,0-153,0C0,344.333,0,212.667,0,81
	c1.913,54.639,85.482,68.809,107,17c14.102-33.954-7.906-71.996-41-77C27.011,15.104,6.071,40.515,0,71C0,47.333,0,23.667,0,0
	C51.667,0,103.333,0,155,0z M130,187c-7.391,8.157-4.245,35.659-2,47c68.696,3.329,151.304,3.329,220,0
	c3.348-11.831,3.033-35.113,0-47C282.302,183.679,194.818,183.698,130,187z"/>
<path fill-rule="evenodd" clip-rule="evenodd" fill="#45567C" d="M155,0c46,0,92,0,138,0c8.064,2.604,4.078,17.256,5,27
	c16.656,3.95,46.275-7.616,51,5c3.854,10.287-20,19.554-23,32c-6.561,27.228,6.723,62.181-2,86c-21.473,3.588-47.766,2-73,2
	c-25.556,0-51.562,2.368-72-3c-2.006-6.328-0.568-16.098-1-24c-16.37-3.995-46.111,7.657-51-5c-2.258-5.847,7.144-12.905,10-16
	c4.384-4.751,11.521-9.863,13-16c2.425-10.064,0-29.249,0-45C150,29.956,146.805,4.981,155,0z M165,14
	c-5.831,22.213,4.325,58.365-1,80c-2.032,8.254-13.268,11.664-12,17c44,0,88,0,132,0c0-32.333,0-64.667,0-97
	C244.333,14,204.667,14,165,14z M298,41c-1.25,27.083,2.555,59.221-2,83c-32.688,2.312-69.65,0.349-104,1c0,4.333,0,8.667,0,13
	c40,0,80,0,120,0c3.912-23.588-5.227-58.766,0-80c2.002-8.135,13.242-11.708,12-17C315.333,41,306.667,41,298,41z"/>
<path fill-rule="evenodd" clip-rule="evenodd" fill="#45567C" d="M476,70c0,3.333,0,6.667,0,10c-3.725,23.243-16.563,38.085-31,45
	c-42.057,20.145-83.314-14.97-80-55C370.63,2.038,473.355,7.705,476,70z M379,71c-4.93,56.813,82.053,60.74,83,5
	c0.449-26.441-21.867-45.024-48-41C395.208,37.894,380.781,50.48,379,71z"/>
<path fill-rule="evenodd" clip-rule="evenodd" fill="#45567C" d="M0,81c0-3.333,0-6.667,0-10c6.071-30.485,27.011-55.896,66-50
	c33.094,5.004,55.102,43.046,41,77C85.482,149.809,1.913,135.639,0,81z M20,54c-0.146,0.237-6.292,11.387-6,23
	c0.979,38.85,59.5,57.673,79,18c16.75-34.078-13.255-64.995-46-59C34.247,38.335,24.954,45.999,20,54z"/>
<path fill-rule="evenodd" clip-rule="evenodd" fill="#45567C" d="M183,49c0.615-15.711,26.253-10,48-10c12.48,0,33.851-2.713,34,7
	c0.178,11.438-29.635,7-40,7C208.278,53,190.434,55.698,183,49z"/>
<path fill-rule="evenodd" clip-rule="evenodd" fill="#45567C" d="M188,73c7.446-3.709,25.806-1,42-1c10.339,0,35-3.448,35,7
	c0,10.775-28.167,7-40,7c-12.386,0-39.83,4.001-42-5C181.9,76.439,184.29,74.848,188,73z"/>
<path fill-rule="evenodd" clip-rule="evenodd" fill="#45567C" d="M162,475.999c-3,0-6,0-9,0c-49.38-5.287-27.064-82.27-32-132
	C77.253,341.673,29.251,354.823,20,317c-5.134-20.99-1-51.945-1-77c0-24.943-5.012-57.829,1-78c9.469-31.771,58.618-31.403,70-2
	c11.136,28.766-2.096,74.648,3,110c41.791,4.012,87.75-13.515,100,25c6.001,18.867,2,50.312,2,77.999
	C195,423.12,202.021,471.913,162,475.999z M54,151c-24.594,1.213-21,25.479-21,52c0,12.828,0,26.033,0,39
	c0,24.914-4.842,61.628,2,76c12.816,26.921,67.955,2.846,98,13.999c12.57,34.436-19.114,130.52,25,130c25.819-0.303,23-27.844,23-56
	c0-34.602,9.462-112.625-14-120.999c-24.831-8.862-63.387,6.99-87-4C70.428,244.315,98.897,148.785,54,151z"/>
<path fill-rule="evenodd" clip-rule="evenodd" fill="#45567C" d="M323,475.999c-3,0-6,0-9,0c-41.072-6.596-33-51.734-33-104
	c0-24.695-1.928-50.494,0-67.999c5.096-46.25,52.66-31.763,102-34c3.971-46.809-13.611-116.576,24-130c22.838-8.151,46.563,6,50,27
	c3.252,19.859,0,48.456,0,74c0,26.958,3.201,58.898-1,76c-9.186,37.394-56.402,24.944-101,26.999
	C350.064,393.729,372.38,470.712,323,475.999z M441,318c7.416-15.576,2-53.567,2-76c0-34.308,10.27-92.691-24-91
	c-41.471,2.046-12.254,95.293-24,131c-25.043,9.136-61.422-5.772-86,3c-19.232,6.864-14,45.644-14,74.999
	c0,35.934-10.604,101.605,23,102c30.914,0.363,23-43.061,23-73c0-21.219-2.344-41.137,3-58C375.777,322.308,428.593,344.06,441,318z
	"/>
<path fill-rule="evenodd" clip-rule="evenodd" fill="#45567C" d="M348,187c3.033,11.887,3.348,35.169,0,47
	c-68.695,3.329-151.303,3.329-220,0c-2.245-11.341-5.391-38.843,2-47C194.818,183.698,282.302,183.679,348,187z M140,202
	c0,6.667,0,13.333,0,20c65.333,0,130.667,0,196,0c-0.568-7.432,1.199-17.198-1-23c-64.334,0-128.666,0-193,0
	C140.743,199.41,139.956,200.29,140,202z"/>
</svg>
