<?xml version="1.0" encoding="utf-8"?>
<!-- Generator: Adobe Illustrator 13.0.0, SVG Export Plug-In  -->
<!DOCTYPE svg PUBLIC "-//W3C//DTD SVG 1.1//EN" "http://www.w3.org/Graphics/SVG/1.1/DTD/svg11.dtd" [
	<!ENTITY ns_flows "http://ns.adobe.com/Flows/1.0/">
]>
<svg version="1.1"
	 xmlns="http://www.w3.org/2000/svg" xmlns:xlink="http://www.w3.org/1999/xlink" xmlns:a="http://ns.adobe.com/AdobeSVGViewerExtensions/3.0/"
	 x="0px" y="0px" width="482px" height="481px" viewBox="-0.938 -0.097 482 481" enable-background="new -0.938 -0.097 482 481"
	 xml:space="preserve">
<defs>
</defs>
<path fill-rule="evenodd" clip-rule="evenodd" fill="#45567C" d="M432.381,480.331c-5.333,0-10.667,0-16,0
	c-38.287-2.836-62.503-54.896-37-88c-7.086-10.914-18.082-17.918-26-28c-27.026,24.608-69.738,46.554-121,44
	c-44.69-2.227-80.16-21.184-104-44c-9.417,8.583-18.417,17.583-27,27c25.096,33.703,1.943,86.041-37,89c-5.333,0-10.667,0-16,0
	c-26.25-5.909-45.942-24.207-48-51c-2.764-35.98,29.072-71.126,72-59c5.861,1.655,9.995,3.963,16,9c10.746-7.588,18.92-17.746,28-27
	c-25.608-26.847-47.583-70.453-44-123c2.954-43.318,22.523-78.043,44-102c-10.082-7.918-17.086-18.914-28-26
	c-9.266,7.364-20.376,12.005-36,11c-35.322-2.271-55.445-30.667-52-63c3.245-30.453,31.954-52.308,63-49
	c35.976,3.833,65.694,52.889,38,88c7.587,10.746,17.747,18.92,27,28c25.13-24.324,63.999-44,112-44c48.454,0,87.103,20.479,113,44
	c7.918-10.082,18.914-17.086,26-28c-27.748-41.817,3.716-92.901,52-88c30.636,3.11,52.254,32.455,49,63
	c-3.078,28.89-30.983,56.582-69,48c-6.886-1.554-13.259-5.248-19-10c-10.746,7.587-18.92,17.747-28,27
	c24.294,25.112,44,64.084,44,112c0,48.355-20.501,87.139-44,113c10.082,7.918,17.086,18.914,28,26c9.256-7.37,20.383-12.004,36-11
	C494.776,372.601,495.832,474.336,432.381,480.331z M16.381,60.331c4.033,46.468,77.095,46.848,80-1
	c1.61-26.524-19.998-45.882-46-42C30.103,20.358,14.205,35.257,16.381,60.331z M384.381,60.331c4.033,46.468,77.095,46.848,80-1
	c1.61-26.524-19.998-45.882-46-42C398.104,20.358,382.205,35.257,384.381,60.331z M127.381,138.331
	c-22.366,23.977-41.591,63.212-39,110c2.929,52.894,31.044,92.88,63,116c40.854,29.558,99.609,34.659,145,17
	c42.298-16.456,75.51-52.119,89-95c17.596-55.934-2.789-111.747-28-142c-26.654-31.985-68.017-60.007-129-55
	C183.654,93.003,150.805,113.22,127.381,138.331z M16.381,428.331c4.033,46.468,77.095,46.848,80-1c1.61-26.524-19.998-45.882-46-42
	C30.103,388.358,14.205,403.257,16.381,428.331z M384.381,428.331c4.033,46.468,77.095,46.848,80-1c1.61-26.524-19.998-45.882-46-42
	C398.104,388.358,382.205,403.257,384.381,428.331z"/>
<path fill-rule="evenodd" clip-rule="evenodd" fill="#45567C" d="M200.381,8.331c5.333,0,10.667,0,16,0c0,5.333,0,10.667,0,16
	c-5.333,0-10.667,0-16,0C200.381,18.998,200.381,13.665,200.381,8.331z"/>
<path fill-rule="evenodd" clip-rule="evenodd" fill="#45567C" d="M232.381,8.331c5.333,0,10.667,0,16,0c0,5.333,0,10.667,0,16
	c-5.333,0-10.667,0-16,0C232.381,18.998,232.381,13.665,232.381,8.331z"/>
<path fill-rule="evenodd" clip-rule="evenodd" fill="#45567C" d="M264.381,8.331c5.333,0,10.667,0,16,0c0,5.333,0,10.667,0,16
	c-5.333,0-10.667,0-16,0C264.381,18.998,264.381,13.665,264.381,8.331z"/>
<path fill-rule="evenodd" clip-rule="evenodd" fill="#45567C" d="M48.381,32.331c5.333,0,10.667,0,16,0c0,5,0,10,0,15
	c3.356,2.311,10.983,0.35,16,1c0,5.333,0,10.667,0,16c-5.333,0-10.667,0-16,0c0,5.333,0,10.667,0,16c-5.333,0-10.667,0-16,0
	c0-5.333,0-10.667,0-16c-5.333,0-10.667,0-16,0c0-5.333,0-10.667,0-16c5,0,10,0,15,0C49.691,44.975,47.731,37.348,48.381,32.331z"/>
<path fill-rule="evenodd" clip-rule="evenodd" fill="#45567C" d="M416.381,32.331c5.333,0,10.667,0,16,0c0,5,0,10,0,15
	c3.356,2.311,10.983,0.35,16,1c0,5.333,0,10.667,0,16c-5.333,0-10.667,0-16,0c0,5.333,0,10.667,0,16c-5.333,0-10.667,0-16,0
	c0-5.333,0-10.667,0-16c-5.333,0-10.667,0-16,0c0-5.333,0-10.667,0-16c5,0,10,0,15,0C417.691,44.975,415.731,37.348,416.381,32.331z
	"/>
<path fill-rule="evenodd" clip-rule="evenodd" fill="#45567C" d="M184.381,40.331c5.333,0,10.667,0,16,0c0,5.333,0,10.667,0,16
	c-5.333,0-10.667,0-16,0C184.381,50.998,184.381,45.665,184.381,40.331z"/>
<path fill-rule="evenodd" clip-rule="evenodd" fill="#45567C" d="M216.381,40.331c5.333,0,10.667,0,16,0c0,5.333,0,10.667,0,16
	c-5.333,0-10.667,0-16,0C216.381,50.998,216.381,45.665,216.381,40.331z"/>
<path fill-rule="evenodd" clip-rule="evenodd" fill="#45567C" d="M248.381,40.331c5.333,0,10.667,0,16,0c0,5.333,0,10.667,0,16
	c-5.333,0-10.667,0-16,0C248.381,50.998,248.381,45.665,248.381,40.331z"/>
<path fill-rule="evenodd" clip-rule="evenodd" fill="#45567C" d="M280.381,40.331c5.333,0,10.667,0,16,0c0,5.333,0,10.667,0,16
	c-5.333,0-10.667,0-16,0C280.381,50.998,280.381,45.665,280.381,40.331z"/>
<path fill-rule="evenodd" clip-rule="evenodd" fill="#45567C" d="M321.381,216.331c-2.332,24.668-0.334,53.666-1,80
	c7.424,0.576,17.566-1.566,22,2c3.242,10.566,3.242,33.434,0,44c-63.368,3.328-140.632,3.328-204,0c-3.242-10.566-3.242-33.434,0-44
	c4.179-3.488,13.859-1.474,21-2c2.333-24.668,0.334-53.666,1-80c-12.379-1.397-29.927,4.104-32-6c-1.765-8.604,15.025-15.491,24-21
	c27.559-16.916,57.952-36.147,83-51c9.777-5.798,27.116,10.739,34,15c18.361,11.367,39.285,23.48,58,35
	c8.471,5.214,25.994,11.935,25,21C351.178,220.306,332.977,215.158,321.381,216.331z M239.381,154.331
	c-24.616,15.384-49.758,30.242-74,46c49.667-0.667,102,1.333,150-1C289.127,185.252,266.348,167.697,239.381,154.331z
	 M176.381,216.331c0,26.667,0,53.333,0,80c10.667,0,21.333,0,32,0c0-26.667,0-53.333,0-80
	C197.714,216.331,187.047,216.331,176.381,216.331z M224.381,216.331c0,26.667,0,53.333,0,80c10.667,0,21.333,0,32,0
	c0-26.667,0-53.333,0-80C245.714,216.331,235.047,216.331,224.381,216.331z M272.381,216.331c0,26.667,0,53.333,0,80
	c10.667,0,21.333,0,32,0c0-26.667,0-53.333,0-80C293.714,216.331,283.048,216.331,272.381,216.331z M152.381,328.331
	c58.667,0,117.333,0,176,0c0-5.333,0-10.667,0-16c-58.334,0-116.667,0-175,0C151.07,315.688,153.031,323.314,152.381,328.331z"/>
<path fill-rule="evenodd" clip-rule="evenodd" fill="#45567C" d="M40.381,184.331c5.333,0,10.667,0,16,0c0,5.333,0,10.667,0,16
	c-5.333,0-10.667,0-16,0C40.381,194.998,40.381,189.665,40.381,184.331z"/>
<path fill-rule="evenodd" clip-rule="evenodd" fill="#45567C" d="M424.381,184.331c5.333,0,10.667,0,16,0c0,5.333,0,10.667,0,16
	c-5.333,0-10.667,0-16,0C424.381,194.998,424.381,189.665,424.381,184.331z"/>
<path fill-rule="evenodd" clip-rule="evenodd" fill="#45567C" d="M8.381,200.331c5.333,0,10.667,0,16,0c0,5.333,0,10.667,0,16
	c-5.333,0-10.667,0-16,0C8.381,210.998,8.381,205.665,8.381,200.331z"/>
<path fill-rule="evenodd" clip-rule="evenodd" fill="#45567C" d="M456.381,200.331c5.333,0,10.667,0,16,0c0,5.333,0,10.667,0,16
	c-5.333,0-10.667,0-16,0C456.381,210.998,456.381,205.665,456.381,200.331z"/>
<path fill-rule="evenodd" clip-rule="evenodd" fill="#45567C" d="M40.381,216.331c5.333,0,10.667,0,16,0c0,5.333,0,10.667,0,16
	c-5.333,0-10.667,0-16,0C40.381,226.998,40.381,221.665,40.381,216.331z"/>
<path fill-rule="evenodd" clip-rule="evenodd" fill="#45567C" d="M424.381,216.331c5.333,0,10.667,0,16,0c0,5.333,0,10.667,0,16
	c-5.333,0-10.667,0-16,0C424.381,226.998,424.381,221.665,424.381,216.331z"/>
<path fill-rule="evenodd" clip-rule="evenodd" fill="#45567C" d="M8.381,232.331c5.333,0,10.667,0,16,0c0,5.333,0,10.667,0,16
	c-5.333,0-10.667,0-16,0C8.381,242.998,8.381,237.664,8.381,232.331z"/>
<path fill-rule="evenodd" clip-rule="evenodd" fill="#45567C" d="M456.381,232.331c5.333,0,10.667,0,16,0c0,5.333,0,10.667,0,16
	c-5.333,0-10.667,0-16,0C456.381,242.998,456.381,237.664,456.381,232.331z"/>
<path fill-rule="evenodd" clip-rule="evenodd" fill="#45567C" d="M40.381,248.331c5.333,0,10.667,0,16,0c0,5.333,0,10.667,0,16
	c-5.333,0-10.667,0-16,0C40.381,258.998,40.381,253.664,40.381,248.331z"/>
<path fill-rule="evenodd" clip-rule="evenodd" fill="#45567C" d="M424.381,248.331c5.333,0,10.667,0,16,0c0,5.333,0,10.667,0,16
	c-5.333,0-10.667,0-16,0C424.381,258.998,424.381,253.664,424.381,248.331z"/>
<path fill-rule="evenodd" clip-rule="evenodd" fill="#45567C" d="M8.381,264.331c5.333,0,10.667,0,16,0c0,5.333,0,10.667,0,16
	c-5.333,0-10.667,0-16,0C8.381,274.998,8.381,269.664,8.381,264.331z"/>
<path fill-rule="evenodd" clip-rule="evenodd" fill="#45567C" d="M456.381,264.331c5.333,0,10.667,0,16,0c0,5.333,0,10.667,0,16
	c-5.333,0-10.667,0-16,0C456.381,274.998,456.381,269.664,456.381,264.331z"/>
<path fill-rule="evenodd" clip-rule="evenodd" fill="#45567C" d="M40.381,280.331c5.333,0,10.667,0,16,0c0,5.333,0,10.667,0,16
	c-5.333,0-10.667,0-16,0C40.381,290.998,40.381,285.664,40.381,280.331z"/>
<path fill-rule="evenodd" clip-rule="evenodd" fill="#45567C" d="M424.381,280.331c5.333,0,10.667,0,16,0c0,5.333,0,10.667,0,16
	c-5.333,0-10.667,0-16,0C424.381,290.998,424.381,285.664,424.381,280.331z"/>
<path fill-rule="evenodd" clip-rule="evenodd" fill="#45567C" d="M48.381,400.331c5.333,0,10.667,0,16,0c0,5,0,10,0,15
	c3.356,2.311,10.983,0.351,16,1c0,5.333,0,10.667,0,16c-5.333,0-10.667,0-16,0c0,5.333,0,10.667,0,16c-5.333,0-10.667,0-16,0
	c0-5.333,0-10.667,0-16c-5.333,0-10.667,0-16,0c0-5.333,0-10.667,0-16c5,0,10,0,15,0C49.691,412.975,47.731,405.348,48.381,400.331z
	"/>
<path fill-rule="evenodd" clip-rule="evenodd" fill="#45567C" d="M416.381,400.331c5.333,0,10.667,0,16,0c0,5,0,10,0,15
	c3.356,2.311,10.983,0.351,16,1c0,5.333,0,10.667,0,16c-5.333,0-10.667,0-16,0c0,5.333,0,10.667,0,16c-5.333,0-10.667,0-16,0
	c0-5.333,0-10.667,0-16c-5.333,0-10.667,0-16,0c0-5.333,0-10.667,0-16c5,0,10,0,15,0
	C417.691,412.975,415.731,405.348,416.381,400.331z"/>
<path fill-rule="evenodd" clip-rule="evenodd" fill="#45567C" d="M184.381,424.331c5.333,0,10.667,0,16,0c0,5.333,0,10.667,0,16
	c-5.333,0-10.667,0-16,0C184.381,434.998,184.381,429.664,184.381,424.331z"/>
<path fill-rule="evenodd" clip-rule="evenodd" fill="#45567C" d="M216.381,424.331c5.333,0,10.667,0,16,0c0,5.333,0,10.667,0,16
	c-5.333,0-10.667,0-16,0C216.381,434.998,216.381,429.664,216.381,424.331z"/>
<path fill-rule="evenodd" clip-rule="evenodd" fill="#45567C" d="M248.381,424.331c5.333,0,10.667,0,16,0c0,5.333,0,10.667,0,16
	c-5.333,0-10.667,0-16,0C248.381,434.998,248.381,429.664,248.381,424.331z"/>
<path fill-rule="evenodd" clip-rule="evenodd" fill="#45567C" d="M280.381,424.331c5.333,0,10.667,0,16,0c0,5.333,0,10.667,0,16
	c-5.333,0-10.667,0-16,0C280.381,434.998,280.381,429.664,280.381,424.331z"/>
<path fill-rule="evenodd" clip-rule="evenodd" fill="#45567C" d="M200.381,456.331c5.333,0,10.667,0,16,0c0,5.333,0,10.667,0,16
	c-5.333,0-10.667,0-16,0C200.381,466.998,200.381,461.664,200.381,456.331z"/>
<path fill-rule="evenodd" clip-rule="evenodd" fill="#45567C" d="M232.381,456.331c5.333,0,10.667,0,16,0c0,5.333,0,10.667,0,16
	c-5.333,0-10.667,0-16,0C232.381,466.998,232.381,461.664,232.381,456.331z"/>
<path fill-rule="evenodd" clip-rule="evenodd" fill="#45567C" d="M264.381,456.331c5.333,0,10.667,0,16,0c0,5.333,0,10.667,0,16
	c-5.333,0-10.667,0-16,0C264.381,466.998,264.381,461.664,264.381,456.331z"/>
</svg>
