<?xml version="1.0" encoding="utf-8"?>
<!-- Generator: Adobe Illustrator 13.0.0, SVG Export Plug-In  -->
<!DOCTYPE svg PUBLIC "-//W3C//DTD SVG 1.1//EN" "http://www.w3.org/Graphics/SVG/1.1/DTD/svg11.dtd" [
	<!ENTITY ns_flows "http://ns.adobe.com/Flows/1.0/">
]>
<svg version="1.1"
	 xmlns="http://www.w3.org/2000/svg" xmlns:xlink="http://www.w3.org/1999/xlink" xmlns:a="http://ns.adobe.com/AdobeSVGViewerExtensions/3.0/"
	 x="0px" y="0px" width="513px" height="490px" viewBox="-0.404 -0.947 513 490" enable-background="new -0.404 -0.947 513 490"
	 xml:space="preserve">
<defs>
</defs>
<path fill-rule="evenodd" clip-rule="evenodd" fill="#45567C" d="M512,240.347c0,2.667,0,5.333,0,8
	c-11.366,17.731-22.062,30.504-35,48c-3.768,5.094-9.876,11.581-11,16c-7.022,27.589,8.566,56.789-2,80
	c-4.688,10.296-25.697,13.365-37,17c-15.305,4.921-27.487,8.991-41,13c-8.088,11.03-15.91,21.174-25,34
	c-6.297,8.884-15.919,29.86-27,32c-11.33,2.188-28.115-7.01-40-11c-13.819-4.639-25.77-8.78-38-13c-12.25,4.387-24.484,8.462-38,13
	c-12.164,4.084-27.508,12.633-39,11c-11.324-1.609-21.875-22.358-28-31c-9.244-13.043-16.422-23.215-24-35
	c-13.837-3.354-25.908-8.243-41-13c-11.023-3.475-33.103-6.477-38-16c-9.745-18.953,3.197-56.509-2-80
	c-2.282-10.316-16.491-24.102-23-33c-8.264-11.297-15.391-19.598-23-32c0-2.667,0-5.333,0-8c7.638-12.442,14.723-20.684,23-32
	c6.515-8.906,20.713-22.661,23-33c5.197-23.491-7.745-61.047,2-80c4.684-9.11,26.607-12.694,37-16c15.313-4.87,27.674-8.831,41-13
	c8.106-11.056,15.88-21.132,25-34c6.501-9.173,15.909-30.282,28-32c11.51-1.636,26.844,6.919,39,11c13.445,4.514,25.583,7.924,37,13
	c12.25-3.196,24.138-8.412,38-13c10.479-3.468,28.88-13.308,41-11c11.632,2.215,19.751,21.773,27,32c6.386,9.011,16.837,28.19,26,34
	c9.519,6.036,26.979,8.508,41,13c13.188,4.226,33.118,7.273,37,18c8.19,22.636-4.758,56.377,1,79c2.249,8.84,16.682,22.315,23,31
	C497.836,219.493,506.761,232.374,512,240.347z M165,65.347c-6.284,8.757-14.413,23.695-22,28c-8.979,5.094-22.432,6.639-33,10
	c-10.904,3.468-21.247,7.178-33,10c-3.528,26.012,4.799,49.209,0,71c-2.184,9.917-14.447,21.318-21,30
	c-8.132,10.773-15.961,20.819-21,31c5.806,9.256,14.184,18.475,22,29c6.495,8.746,18.073,21.087,20,31
	c4.204,21.626-3.09,44.196,0,70c11.796,3.019,22.974,6.513,34,10c10.845,3.431,24.502,5.52,33,11c9.605,6.193,15.284,20.563,22,30
	c7.551,10.61,14.567,20.411,23,29c10.823-3.944,21.345-8.143,33-12c10.86-3.595,24.179-10.301,35-10
	c10.939,0.304,22.558,7.544,33,11c11.604,3.841,22.418,6.037,33,11c8.905-8.102,15.096-18.985,23-30c6.313-8.798,13.835-24.92,23-30
	c9.11-5.05,22.072-6.537,33-10c10.521-3.335,21.325-7.056,33-10c0-24,0-48,0-72c13.151-20.515,29.066-38.267,42-59
	c-5.823-9.443-12.922-19.297-21-30c-6.491-8.599-18.841-20.173-21-30c-4.801-21.845,3.527-44.965,0-71
	c-11.717-3.283-22.855-6.494-34-10c-10.656-3.352-24.592-5.577-33-11c-9.605-6.194-15.284-20.563-22-30
	c-7.523-10.571-14.575-20.421-23-29c-10.489,4.934-21.622,7.234-33,11c-11.071,3.664-22.686,11-34,11c-11.238,0-22.885-7.321-34-11
	c-11.608-3.842-23.164-6.558-34-11C180.176,41.822,173.89,52.958,165,65.347z"/>
<path fill-rule="evenodd" clip-rule="evenodd" fill="#45567C" d="M227,279.347c17.505-15.325,35.589-33.59,54-52
	c17.529-17.529,35.364-41.151,54-53c8.935-5.681,21.249,1.668,22,11c1.148,14.272-19.884,28.884-28,37
	c-24.269,24.268-39.979,39.979-65,65c-8.239,8.238-23.891,28.712-36,29c-15.434,0.367-30.038-23.038-40-33
	c-9.965-9.965-33-24.075-33-39c0-8.69,6.233-14.938,15-15c14.127-0.1,24.431,18.432,30,24
	C210.5,263.846,216.034,268.778,227,279.347z"/>
</svg>
