<?xml version="1.0" encoding="utf-8"?>
<!-- Generator: Adobe Illustrator 13.0.0, SVG Export Plug-In  -->
<!DOCTYPE svg PUBLIC "-//W3C//DTD SVG 1.1//EN" "http://www.w3.org/Graphics/SVG/1.1/DTD/svg11.dtd" [
	<!ENTITY ns_flows "http://ns.adobe.com/Flows/1.0/">
]>
<svg version="1.1"
	 xmlns="http://www.w3.org/2000/svg" xmlns:xlink="http://www.w3.org/1999/xlink" xmlns:a="http://ns.adobe.com/AdobeSVGViewerExtensions/3.0/"
	 x="0px" y="0px" width="454px" height="450px" viewBox="-0.924 -0.693 454 450" enable-background="new -0.924 -0.693 454 450"
	 xml:space="preserve">
<defs>
</defs>
<path fill-rule="evenodd" clip-rule="evenodd" fill="#45567C" d="M286.815,115.903c0,6,0,12,0,18c10.999,6.964,22.06,10.322,27,24
	c5.789,16.027-0.167,38.172,2,60c81.199-9.054,140.788,49.926,136,123c-3.959,60.413-53.873,104.062-105,108
	c-55.481,4.274-94.781-26.558-116-64c-29.366,0-63.813,0-98,0c-34.335,0-69.776,3.42-98,0c-12.554-1.521-26.097-9.633-31-23
	c-4.709-12.837-4.405-63.833,3-76c6.119-10.054,15.557-12.728,24-17c0-6,0-12,0-18c-8.552-5.287-21.454-8.235-27-23
	c-5.178-13.784-4.986-60.251,1-73c5.528-11.774,16.65-15.67,26-20c0-6,0-12,0-18c-8.92-4.779-21.897-10.129-27-24
	c-5.786-15.729-4.336-58.76,0-70c11.468-29.724,48.801-22,93-22c40.333,0,88.341,0,130,0c40.148,0,77.14-4.865,87,23
	c3.423,9.673,2,23.125,2,35C315.815,89.187,313.276,109.642,286.815,115.903z M29.815,15.903c-20.551,7.181-18.62,70.836-7,81
	c10.037,8.779,47.538,5,66,5c49.287,0,91.584,0,142,0c20.944,0,55.755,3.245,65-6c9.254-9.254,11.741-63.259,0-75
	c-4.486-4.486-14.786-6-27-6c-62.354,0-110.663,0-168,0c-21.149,0-52.607-3.215-69,1C31.204,16.061,30.409,15.696,29.815,15.903z
	 M289.815,150.903c-11.941-5.624-42.633-2-62-2c-45.178,0-87.747,0-129,0c-30.744,0-75.18-6.681-82,14
	c-5.595,16.965-1.966,62.111,7,69c8.511,6.539,42.209,4,62,4c41.506,0,83.031,0,123,0c23.028,0,46.849,2.953,62,0
	c4.545-0.886,9.658-5.488,15-8c6.232-2.931,13.448-3.143,15-8C301.354,196.489,307.679,159.317,289.815,150.903z M318.815,231.903
	c-10.715,1.552-49.737,16.172-50,25c-0.132,4.413,7.9,4.403,7,10c-1.634,10.15-14.385,4.03-18,0c-12.069,15.597-22.056,33.277-24,59
	c17.653-4.722,18.086,18.925,0,14c2.082,25.918,12.352,43.648,24,60c2.767-4.057,17.304-12.011,18,0c0.245,4.23-7.377,6.198-7,10
	c0.148,1.497,8.792,6.948,12,9c14.911,9.535,29.583,14.052,48,16c-4.809-17.97,18.722-17.653,14,0c25.359-2.308,43.738-11.595,59-24
	c-4.173-2.936-10.232-17.349,1-18c4.473-0.26,6.374,7.359,10,7c1.423-0.141,6.97-8.807,9-12c9.476-14.902,13.76-29.927,16-48
	c-17.971,5.04-17.971-19.04,0-14c-1.389-11.898-3.669-22.069-9-34c-2.206-4.938-10.983-25.82-17-26c-2.488-0.074-15.265,17.324-16-1
	c0.327-4.673,5.673-4.327,6-9c-14.361-13.639-33.876-22.124-59-25c1.963,10.04-3.313,16.783-12,13c-2.438-2.562-2.086-7.914-2-13
	C324.69,232.183,322.988,231.299,318.815,231.903z M133.815,282.903c-33.736,0-69.326-3.446-98,0c-7.99,0.96-16.979,8.278-19,14
	c-3.721,10.533-3.27,50.679,0,60c6.426,18.318,33.992,14,59,14c50.578,0,104.695,0,150,0c-1.914-8.419-5.162-15.505-5-26
	c-25.715,5.026-31.616-29.432-12-35c4.774-1.355,9.052,0.357,13-1c3.01-8.657,5.398-17.936,9-26
	C201.076,282.903,167.683,282.903,133.815,282.903z"/>
<path fill-rule="evenodd" clip-rule="evenodd" fill="#45567C" d="M47.815,32.903c2.354,12.817,5.349,42.345-2,52
	c-17.975-0.761-8.617-38.159-8-51C40.175,31.896,44.509,31.269,47.815,32.903z"/>
<path fill-rule="evenodd" clip-rule="evenodd" fill="#45567C" d="M78.815,31.903c5.071,4.513,9.178,52.896-3,53
	c-13.679,0.117-5.055-38.833-6-51C72.04,32.461,74.638,31.392,78.815,31.903z"/>
<path fill-rule="evenodd" clip-rule="evenodd" fill="#45567C" d="M114.815,33.903c1.644,14.15,1.644,34.85,0,49
	c-20.603,9.704-12.587-35.573-11-48C104.627,30.411,112.48,31.648,114.815,33.903z"/>
<path fill-rule="evenodd" clip-rule="evenodd" fill="#45567C" d="M158.815,41.903c28.032-8.382,29.648,30.583,10,34
	c-9.613,1.672-25.875-2.764-22-22C147.509,50.462,151.858,43.983,158.815,41.903z"/>
<path fill-rule="evenodd" clip-rule="evenodd" fill="#45567C" d="M208.815,41.903c20.37-5.726,29.688,17.119,19,29
	C208.114,92.802,181.335,49.627,208.815,41.903z"/>
<path fill-rule="evenodd" clip-rule="evenodd" fill="#45567C" d="M258.815,41.903c25.132-7.064,31.57,29.221,11,34
	C248.261,80.911,236.437,48.194,258.815,41.903z"/>
<path fill-rule="evenodd" clip-rule="evenodd" fill="#45567C" d="M48.815,167.903c1.053,14.214,2.877,37.425-1,50
	c-20.505,5.362-10.725-37.353-10-50C40.98,164.863,45.201,166.346,48.815,167.903z"/>
<path fill-rule="evenodd" clip-rule="evenodd" fill="#45567C" d="M80.815,167.903c0.556,12.62,10.144,50.521-8,51
	c-0.027-0.973-1.224-0.776-2-1C69.567,205.393,61.016,159.367,80.815,167.903z"/>
<path fill-rule="evenodd" clip-rule="evenodd" fill="#45567C" d="M115.815,169.903c-1.113,15.554,2.362,35.695-2,48
	c-1.163-0.163-1.779,0.221-2,1c-18.144-0.479-8.556-38.38-8-51C107.688,164.142,113.198,166.909,115.815,169.903z"/>
<path fill-rule="evenodd" clip-rule="evenodd" fill="#45567C" d="M159.815,175.903c24.731-6.063,29.627,29.259,11,34
	c-10.52,2.678-26.17-1.481-24-20C147.485,184.192,151.236,178.007,159.815,175.903z"/>
<path fill-rule="evenodd" clip-rule="evenodd" fill="#45567C" d="M209.815,175.903c14.986-3.624,20.618,5.179,22,11
	c7.034,29.63-41.245,31.475-35,1C197.661,183.777,201.922,177.812,209.815,175.903z"/>
<path fill-rule="evenodd" clip-rule="evenodd" fill="#45567C" d="M259.815,175.903c10.859-2.626,19.863,2.298,22,11
	c7.922,32.263-42.412,28.68-34,0C248.873,183.299,250.937,178.05,259.815,175.903z"/>
<path fill-rule="evenodd" clip-rule="evenodd" fill="#45567C" d="M340.815,267.903c4.261,11.406,0.96,30.373,2,45
	c5.998,6.077,15.937,13.295,11,27c6.02,4.689,26.948,24.433,11,27c-9.167,1.476-12.949-13.444-21-16c-7.407,3.009-15.527,0.975-21-3
	c-11.675,6.325-20.105,15.895-34,20c-0.56-1.44-1.56-2.44-3-3c4.279-14.388,20.743-16.59,31-25c-1.955-14.622,4.165-21.168,12-26
	C332.112,298.44,319.761,262.309,340.815,267.903z"/>
<path fill-rule="evenodd" clip-rule="evenodd" fill="#45567C" d="M49.815,303.903c-1.601,15.732,3.446,38.113-3,49
	c-19.831,0.72-9.267-38.12-9-51C42.361,299.093,46.58,300.568,49.815,303.903z"/>
<path fill-rule="evenodd" clip-rule="evenodd" fill="#45567C" d="M80.815,301.903c3.261,12.457,3.261,37.543,0,50
	c-2.492,0.841-5.357,1.31-9,1c-4.843-11.293-4.843-40.707,0-52C75.77,299.963,77.614,300.123,80.815,301.903z"/>
<path fill-rule="evenodd" clip-rule="evenodd" fill="#45567C" d="M115.815,303.903c-1.601,15.732,3.446,38.113-3,49
	c-2.333,0-4.667,0-7,0c-7.585-9.525-3.394-35.789-3-50C106.963,299.266,112.39,299.889,115.815,303.903z"/>
<path fill-rule="evenodd" clip-rule="evenodd" fill="#45567C" d="M160.815,309.903c26.972-5.38,26.31,33.849,5,35
	C145.596,345.996,139.021,314.25,160.815,309.903z"/>
</svg>
