<svg width="478" height="478" viewBox="0 0 478 478" fill="none" xmlns="http://www.w3.org/2000/svg">
<path d="M453.109 354.278V341.478C453.109 317.351 433.483 297.725 409.357 297.725H392.911V191.368H414.554C417.968 205.41 430.535 215.96 445.585 215.96C463.272 215.96 477.623 201.531 477.623 183.844C477.623 166.156 463.272 151.805 445.585 151.805C430.535 151.805 417.89 162.278 414.477 176.396H392.833V135.204C392.833 104.096 367.543 78.7284 336.358 78.7284H292.605V63.5236C306.646 60.1102 317.119 47.543 317.119 32.4933C317.119 14.806 302.768 0.376892 285.08 0.376892C267.393 0.376892 253.042 14.806 253.042 32.4933C253.042 47.543 263.514 60.1878 277.555 63.5236V78.7284H230.002V59.6448C230.002 55.4557 226.666 52.1199 222.477 52.1199C218.288 52.1199 214.952 55.4557 214.952 59.6448V78.6508H167.475V63.446C181.517 60.0326 191.989 47.4654 191.989 32.4157C191.989 14.7284 177.638 0.299316 159.951 0.299316C142.263 0.299316 127.912 14.7284 127.912 32.4157C127.912 47.4654 138.385 60.1102 152.426 63.446V78.6508H141.41C110.302 78.6508 84.9348 103.941 84.9348 135.126V161.89H63.2912C59.8779 147.848 47.3106 137.298 32.1833 137.298C14.496 137.298 0.144531 151.65 0.144531 169.337C0.144531 187.024 14.496 201.453 32.1833 201.453C47.233 201.453 59.8003 190.981 63.2136 176.862H84.8573V297.725H68.4112C44.2851 297.725 24.6585 317.351 24.6585 341.478V354.278C10.7724 357.768 0.377258 370.258 0.377258 385.308C0.609986 402.995 14.9615 417.424 32.6488 417.424C50.336 417.424 64.6876 402.995 64.6876 385.308C64.6876 370.181 54.0597 357.458 39.9409 354.2V341.555C39.9409 325.73 52.8185 312.852 68.6439 312.852H85.09V329.996C85.09 361.104 110.38 386.471 141.565 386.471H168.949V414.554C154.908 417.967 144.435 430.534 144.435 445.584C144.435 463.271 158.787 477.701 176.474 477.701C194.162 477.701 208.513 463.271 208.513 445.584C208.513 430.534 198.04 417.89 183.999 414.554V386.394H231.553V405.478C231.553 409.667 234.889 413.002 239.078 413.002C243.267 413.002 246.603 409.667 246.603 405.478V386.394H294.157V414.476C280.115 417.89 269.643 430.457 269.643 445.507C269.643 463.194 283.994 477.623 301.682 477.623C319.369 477.623 333.72 463.194 333.72 445.507C333.72 430.457 323.248 417.812 309.206 414.476V386.394H336.591C367.699 386.394 393.066 361.104 393.066 329.919V312.774H409.512C425.337 312.774 438.215 325.652 438.215 341.478V354.122C424.096 357.458 413.468 370.103 413.468 385.23C413.468 402.918 427.82 417.347 445.507 417.347C463.194 417.347 477.546 402.918 477.546 385.23C477.391 370.258 466.995 357.768 453.109 354.278ZM445.585 166.777C454.971 166.777 462.574 174.379 462.574 183.766C462.574 193.153 454.971 200.833 445.585 200.833C436.198 200.833 428.595 193.153 428.595 183.766C428.518 174.457 436.198 166.777 445.585 166.777ZM268.169 32.4933C268.169 23.1066 275.771 15.4266 285.158 15.4266C294.545 15.4266 302.147 23.1066 302.147 32.4933C302.147 41.8799 294.545 49.4823 285.158 49.4823C275.771 49.4823 268.169 41.8799 268.169 32.4933ZM143.039 32.4933C143.039 23.1066 150.642 15.4266 160.028 15.4266C169.415 15.4266 177.017 23.1066 177.017 32.4933C177.017 41.8799 169.415 49.4823 160.028 49.4823C150.642 49.4823 143.039 41.8799 143.039 32.4933ZM32.416 186.481C23.0294 186.481 15.427 178.801 15.427 169.414C15.427 160.028 23.0294 152.425 32.416 152.425C41.8027 152.425 49.4051 160.028 49.4051 169.414C49.4827 178.801 41.8027 186.481 32.416 186.481ZM49.6379 385.308C49.6379 394.694 42.0354 402.374 32.6488 402.374C23.2621 402.374 15.6597 394.694 15.6597 385.308C15.6597 375.921 23.2621 368.319 32.6488 368.319C42.0354 368.241 49.6379 375.921 49.6379 385.308ZM193.463 445.507C193.463 454.893 185.861 462.573 176.474 462.573C167.088 462.573 159.485 454.893 159.485 445.507C159.485 436.12 167.088 428.518 176.474 428.518C185.861 428.518 193.463 436.12 193.463 445.507ZM318.593 445.507C318.593 454.893 310.991 462.573 301.604 462.573C292.217 462.573 284.615 454.893 284.615 445.507C284.615 436.12 292.217 428.518 301.604 428.518C310.913 428.518 318.593 436.12 318.593 445.507ZM377.861 329.919C377.861 352.726 359.32 371.344 336.435 371.344H141.565C118.758 371.344 100.14 352.804 100.14 329.919V135.126C100.14 112.319 118.68 93.7005 141.565 93.7005H336.435C359.243 93.7005 377.861 112.241 377.861 135.126V329.919ZM445.352 402.374C435.965 402.374 428.363 394.694 428.363 385.308C428.363 375.921 435.965 368.319 445.352 368.319C454.738 368.319 462.341 375.921 462.341 385.308C462.341 394.694 454.738 402.374 445.352 402.374Z" fill="#45567C"/>
<path d="M193.619 253.739C190.283 249.861 185.629 247.456 180.353 246.913C175.233 246.525 170.113 248.076 166.157 251.49C157.934 258.472 157.003 270.806 163.907 278.952L188.344 307.965C191.679 311.921 196.412 314.326 201.609 314.792C202.152 314.869 202.695 314.869 203.238 314.869C207.893 314.869 212.315 313.24 215.806 310.215C223.951 303.233 224.959 290.976 218.055 282.753L193.619 253.739ZM206.109 298.733C204.867 299.742 203.549 299.819 202.85 299.742C202.152 299.664 200.833 299.432 199.825 298.19L175.389 269.255C173.837 267.393 173.992 264.522 175.932 262.971C177.018 262.118 178.104 261.885 178.802 261.885H179.112C179.966 261.962 181.284 262.273 182.215 263.436L206.652 292.45C207.427 293.381 207.815 294.544 207.738 295.708C207.583 296.872 206.962 297.958 206.109 298.733Z" fill="#45567C"/>
<path d="M330.617 134.35C325.342 133.885 320.145 135.049 315.568 137.453L299.82 118.913C294.777 112.94 285.856 112.241 279.883 117.284L273.832 122.481C267.859 127.524 267.16 136.445 272.203 142.418L275.306 146.064L270.574 150.098C268.169 147.616 264.988 146.064 261.575 145.832C257.851 145.521 254.128 146.685 251.257 149.167L245.206 154.365C239.233 159.407 238.535 168.329 243.577 174.302L255.214 187.955L214.719 222.321L206.031 212.081C196.411 200.755 179.422 199.437 168.174 208.978L131.636 240.009C120.31 249.628 118.991 266.617 128.533 277.866L182.68 341.633C187.956 347.917 195.558 351.097 203.16 351.097C209.289 351.097 215.495 349.003 220.537 344.736L257.076 313.706C262.583 309.051 265.919 302.535 266.462 295.398C267.005 288.261 264.833 281.279 260.179 275.849L250.249 264.212L346.21 182.758C351.796 178.026 355.209 171.354 355.83 164.062C356.45 156.77 354.123 149.633 349.391 144.047C344.581 138.384 337.987 134.971 330.617 134.35ZM255.602 165.226L260.334 161.192C265.454 166.544 273.987 167.01 279.65 162.123L285.701 156.925C288.571 154.443 290.356 151.029 290.666 147.306C290.976 143.504 289.813 139.858 287.33 136.988L284.227 133.342L288.959 129.308L303.699 146.685L266.617 178.181L255.602 165.226ZM247.379 302.224L210.84 333.255C208.436 335.272 205.41 336.358 202.23 336.047C199.049 335.815 196.179 334.341 194.162 331.936L140.014 268.169C135.825 263.204 136.368 255.679 141.333 251.49L177.871 220.46C180.043 218.598 182.758 217.667 185.551 217.667C185.861 217.667 186.171 217.667 186.559 217.744C189.74 217.977 192.61 219.451 194.627 221.856L248.697 285.546C250.714 287.95 251.723 291.053 251.49 294.157C251.257 297.26 249.783 300.13 247.379 302.224ZM336.513 171.199L240.552 252.653L237.914 249.55L224.416 233.647L269.022 195.79C269.643 195.48 270.263 195.17 270.806 194.704L319.369 153.434C319.757 153.046 319.99 152.581 320.377 152.193C322.937 150.021 326.118 149.012 329.454 149.245C332.79 149.478 335.737 151.029 337.91 153.589C342.331 158.942 341.711 166.777 336.513 171.199Z" fill="#45567C"/>
</svg>
