<svg width="454" height="454" viewBox="0 0 454 454" fill="none" xmlns="http://www.w3.org/2000/svg">
<g clip-path="url(#clip0_1213_75)">
<path d="M226.987 0C101.625 0 0 101.626 0 226.987C0 352.348 101.625 453.974 226.987 453.974C352.265 453.974 453.856 352.479 453.974 227.201C453.973 101.804 352.382 0.118 226.987 0ZM226.987 432.853V432.64C113.408 432.64 21.334 340.566 21.334 226.987C21.334 113.408 113.408 21.334 226.987 21.334C340.566 21.334 432.64 113.407 432.64 226.987C432.64 340.6 340.6 432.736 226.987 432.853Z" fill="#45567C"/>
<path d="M368.147 202.191C367.975 201.841 367.783 201.502 367.574 201.173C365.377 197.196 362.65 193.536 359.467 190.293L339.84 170.666C319.953 150.896 287.834 150.896 267.947 170.666L250.667 187.946L226.774 211.839C226.286 210.576 225.562 209.418 224.641 208.426L208.854 192.639C204.671 188.456 197.89 188.456 193.707 192.639C189.524 196.822 189.524 203.603 193.707 207.786L209.494 223.573C210.486 224.494 211.644 225.218 212.907 225.706L171.734 267.306C166.166 273.137 158.463 276.449 150.401 276.479C142.285 276.496 134.539 273.087 129.068 267.092L109.868 248.319C104.116 242.715 100.883 235.017 100.908 226.986C100.699 218.962 103.873 211.221 109.655 205.653L118.402 198.613C122.848 194.748 123.319 188.011 119.454 183.565C115.589 179.119 108.852 178.648 104.406 182.513C103.993 182.872 103.609 183.262 103.255 183.68L95.788 191.36C86.263 200.685 80.883 213.444 80.855 226.773C80.796 240.579 86.338 253.819 96.215 263.466L115.202 282.026C124.536 292.025 137.577 297.735 151.255 297.813C164.997 297.863 178.168 292.318 187.735 282.453L263.468 207.146L283.095 187.519C294.111 175.56 312.736 174.796 324.694 185.812H324.695L344.322 205.439C346.151 207.287 347.729 209.367 349.015 211.626C351.621 216.91 358.016 219.08 363.299 216.475C368.581 213.87 370.752 207.475 368.147 202.191Z" fill="#45567C"/>
<path d="M270.72 255.573L263.253 248.106L256 240.853C251.817 236.67 245.036 236.67 240.853 240.853C236.67 245.036 236.67 251.817 240.853 256L248.32 263.467L256 270.934C260.544 274.683 267.267 274.039 271.016 269.495C274.378 265.421 274.252 259.501 270.72 255.573Z" fill="#45567C"/>
<path d="M326.187 281.6C324.42 275.709 318.211 272.366 312.32 274.133V275.2C307.636 276.439 302.711 276.439 298.027 275.2C292.136 273.904 286.31 277.629 285.014 283.52C283.718 289.411 287.443 295.237 293.334 296.533C296.841 297.27 300.417 297.628 304.001 297.6C308.987 297.638 313.951 296.918 318.721 295.467C324.611 293.699 327.954 287.491 326.187 281.6Z" fill="#45567C"/>
<path d="M364.365 236.265C364.297 236.229 364.229 236.194 364.16 236.16C358.916 233.526 352.529 235.623 349.867 240.853C348.525 243.573 346.801 246.088 344.747 248.32L339.414 253.44C335.475 257.82 335.832 264.565 340.212 268.504C344.139 272.036 350.06 272.162 354.134 268.8L359.681 263.467C363.358 259.68 366.449 255.366 368.854 250.667C371.591 245.45 369.582 239.002 364.365 236.265Z" fill="#45567C"/>
<path d="M172.8 161.92C166.111 158.809 158.843 157.138 151.467 157.013C149.851 156.654 148.176 156.654 146.56 157.013C140.669 157.543 136.323 162.749 136.853 168.64C137.383 174.531 142.589 178.877 148.48 178.347L147.413 178.134H150.4C154.975 178.146 159.491 179.166 163.627 181.121C169.11 183.275 175.301 180.575 177.455 175.092C179.393 170.154 177.41 164.542 172.8 161.92Z" fill="#45567C"/>
</g>
<defs>
<clipPath id="clip0_1213_75">
<rect width="453.973" height="453.973" fill="white"/>
</clipPath>
</defs>
</svg>
