<?xml version="1.0" encoding="utf-8"?>
<!-- Generator: Adobe Illustrator 19.0.0, SVG Export Plug-In . SVG Version: 6.00 Build 0)  -->
<svg version="1.1" id="Layer_1" xmlns="http://www.w3.org/2000/svg" xmlns:xlink="http://www.w3.org/1999/xlink" x="0px" y="0px"
	 viewBox="-101 216.4 408.1 361.6" style="enable-background:new -101 216.4 408.1 361.6;" xml:space="preserve">
<style type="text/css">
	.st0{fill:#007B75;}
	.st1{fill:#468DEC;}
	.st2{fill:#45567C;}
</style>
<g id="Layer_x0020_1">
	<g id="flexible.svg">
		<g>
			<rect x="264.7" y="237.7" class="st0" width="9.3" height="9.3"/>
			<rect x="241.1" y="237.7" class="st0" width="9.3" height="9.3"/>
			<rect x="217.4" y="237.7" class="st0" width="9.3" height="9.3"/>
			<rect x="-63.6" y="237.7" class="st1" width="249.8" height="9.3"/>
			<path class="st2" d="M284,216.4H-77.3c-13,0-23.7,10.7-23.7,23.7v236.6c0,12.9,10.7,23.6,23.7,23.6H49v47.9h-21
				c-6.2,0-11.2,4.9-11.2,11.1V578h173.1v-18.7c0-6.2-4.9-11.1-11.2-11.1h-21v-47.6h125.8c13,0,23.7-10.7,23.7-23.7V240.3
				C307.6,226.6,297,216.4,284,216.4z M-77.3,225.8H284c7.5,0,14.3,6.2,14.3,14.3v19.2H-90.8v-20C-90.8,232-84.6,225.8-77.3,225.8z
				 M298.3,268.2v190H-90.8v-190H298.3z M178.7,556.4c0.5,0,1.9,0.5,1.9,1.8v9.4H26.1v-9.4c0-0.5,0.5-1.8,1.8-1.8H178.7z
				 M148.8,547.1H58.6v-47.9h90.2V547.1z M284,490.4H-77.3c-7.5,0-14.3-6.3-14.3-14.3v-8h389.2v8C298.3,484.4,291.5,490.4,284,490.4
				z"/>
			<path class="st1" d="M-29.3,329.7c0,9.4,6.8,17.4,15.6,20.1v94.1h9.3v-94.1c8.9-1.9,15.6-9.9,15.6-20.1c0-9.3-6.7-17.4-15.6-20
				v-23.1h-9.3v23.1C-22.5,312.4-29.3,320.4-29.3,329.7z M-8.7,319.4c6.2,0,11.2,4.9,11.2,11.2c0,6.2-5,11.1-11.2,11.1
				s-11.2-4.9-11.2-11.1C-19.9,323.5-14.9,319.4-8.7,319.4z"/>
			<path class="st0" d="M42.3,428.3v15.6h9.3v-15.6c8.9-1.9,15.6-9.9,15.6-20.1c0-9.3-6.7-17.4-15.6-20V286.8h-9.3V389
				c-8.9,1.8-15.6,9.9-15.6,20C26.6,418.4,33.7,426.4,42.3,428.3z M47.2,397.6c6.2,0,11.2,5,11.2,11.2s-5,11.1-11.2,11.1
				S36,415,36,408.8S40.9,397.6,47.2,397.6z"/>
			<path class="st1" d="M98.9,389.6v54h9.3v-54c8.9-1.9,15.6-9.9,15.6-20.1c0-9.3-6.7-17.4-15.6-20v-62.7h-9.3v62.9
				c-8.9,1.8-15.6,9.9-15.6,20C82.8,379.1,89.5,387.2,98.9,389.6z M103.3,359.1c6.2,0,11.1,4.9,11.1,11.2c0,6.2-4.9,11.1-11.1,11.1
				l0,0c-6.3,0-11.2-4.9-11.2-11.1C92.1,363.6,97.1,359.1,103.3,359.1z"/>
			<path class="st1" d="M211.2,369.8v74.1h9.3v-74.1c8.9-1.8,15.6-9.9,15.6-20c0-9.4-6.8-17.4-15.6-20.1v-42.9h-9.3v42.9
				c-8.9,1.9-15.6,9.9-15.6,20.1C195.6,359.1,201.8,367.2,211.2,369.8z M215.3,339.1c6.2,0,11.2,4.9,11.2,11.1s-5,11.2-11.2,11.2
				c-6.2,0-10.7-5.7-10.7-12C204.7,343.3,209.1,339.1,215.3,339.1z"/>
			<path class="st0" d="M155,415.3v28.6h9.4v-28.6c8.8-1.9,15.6-9.9,15.6-20.1c0-9.3-6.8-17.4-15.6-20v-88.4H155V376
				c-8.8,1.9-15.6,9.9-15.6,20.1C138.9,405.1,145.7,413.2,155,415.3z M159.5,384.6c6.2,0,11.2,5,11.2,11.2s-5,11.1-11.2,11.1
				c-6.2,0-11.1-4.9-11.1-11.1S153.2,384.6,159.5,384.6z"/>
		</g>
	</g>
</g>
</svg>
