<svg width="46" height="47" viewBox="0 0 46 47" fill="none" xmlns="http://www.w3.org/2000/svg">
<path d="M5.8475 36.1985C15.8175 26.3185 25.8475 16.3885 35.8775 6.45854C35.8575 6.41854 35.8275 6.36855 35.8075 6.32855C35.6475 6.32855 35.4875 6.32855 35.3275 6.32855C33.3675 6.32855 31.4175 6.32855 29.4575 6.32855C27.6875 6.32855 26.3575 5.06854 26.3575 3.41855C26.3675 1.79855 27.7375 0.508545 29.4775 0.508545C33.9575 0.508545 38.4275 0.508545 42.9075 0.508545C44.6675 0.508545 45.8975 1.66855 45.9075 3.41855C45.9275 7.97855 45.9275 12.5385 45.9075 17.0985C45.9075 18.7185 44.8375 19.9485 43.4075 20.1085C41.8975 20.2785 40.5675 19.3985 40.1975 17.9485C40.1175 17.6385 40.1075 17.3085 40.1075 16.9885C40.1075 14.8985 40.1075 12.8085 40.1075 10.8285C30.1675 20.7685 20.1875 30.7585 10.1975 40.7385C10.1575 40.7185 10.1175 40.6985 10.0775 40.6785C10.2175 40.6785 10.3575 40.7085 10.4975 40.7085C12.5775 40.7085 14.6475 40.6985 16.7275 40.7185C18.0275 40.7385 19.0675 41.5785 19.4275 42.8185C19.7675 44.0085 19.3175 45.3285 18.2475 45.9785C17.8075 46.2485 17.2375 46.4585 16.7275 46.4585C12.0975 46.4985 7.4675 46.4985 2.8375 46.4785C1.2375 46.4785 0.0075 45.1985 0.0075 43.5985C-0.0025 39.0185 -0.0025 34.4385 0.0075 29.8685C0.0075 28.2385 1.3175 26.9485 2.9175 26.9285C4.5575 26.9185 5.8175 28.1485 5.8375 29.8185C5.8575 31.9985 5.8375 34.1685 5.8375 36.1885L5.8475 36.1985Z" fill="#01B6FE"/>
</svg>
