<svg width="63" height="43" viewBox="0 0 63 43" fill="none" xmlns="http://www.w3.org/2000/svg">
<path d="M26.4934 27.5061C24.9952 27.5917 23.5747 27.6695 22.1619 27.7473C21.7428 27.7706 21.3236 27.8017 20.9044 27.8251C20.0118 27.864 19.3054 27.5217 18.8629 26.7282C18.436 25.958 18.5447 25.2112 19.0104 24.48C21.8592 20.0381 24.7003 15.5883 27.5491 11.1386C29.5906 7.94915 31.6244 4.75968 33.6659 1.5702C34.3645 0.481105 35.4745 0.201054 36.4914 0.823391C37.322 1.33682 37.5549 2.10696 37.4773 3.05603C37.159 6.94564 36.864 10.843 36.569 14.7404C36.5535 14.966 36.569 15.1916 36.569 15.5106C38.0206 15.4328 39.4412 15.355 40.8539 15.2772C41.3197 15.2538 41.7854 15.2227 42.2512 15.1916C43.0973 15.1449 43.7571 15.4794 44.184 16.2185C44.6032 16.9497 44.5644 17.7043 44.1219 18.4122C43.0662 20.0925 41.9872 21.765 40.916 23.4376C37.1124 29.3809 33.3088 35.3242 29.513 41.2753C28.9774 42.1155 28.3253 42.6523 27.2696 42.4655C26.0742 42.2633 25.4532 41.3064 25.5619 39.984C25.8879 36.0477 26.1829 32.1036 26.4856 28.1596C26.5012 27.9806 26.4856 27.7939 26.4856 27.5061H26.4934Z" fill="#01B6FE"/>
<path d="M60.2756 35.0908C60.26 37.1212 58.6066 38.327 56.9765 37.6813C54.6323 36.7634 52.3035 35.7988 49.9903 34.7952C48.725 34.2507 48.205 32.8271 48.725 31.6291C49.2762 30.3533 50.6113 29.7621 51.9154 30.2911C54.2053 31.2168 56.4875 32.1736 58.7619 33.1305C59.7399 33.5428 60.2445 34.2896 60.2756 35.0831V35.0908Z" fill="#03B6FE"/>
<path d="M11.8845 12.9201C11.7525 12.889 11.4498 12.8423 11.1781 12.7256C8.89593 11.7843 6.60601 10.8586 4.33938 9.8784C2.85675 9.24051 2.32114 7.73134 3.05081 6.41665C3.64076 5.34312 4.84394 4.84525 5.97725 5.29644C8.33704 6.22995 10.6813 7.20235 13.0178 8.20587C14.1123 8.67262 14.7333 9.93286 14.4771 10.9597C14.1977 12.1188 13.1963 12.9279 11.8845 12.9201Z" fill="#03B6FE"/>
<path d="M57.8537 5.13308C59.0413 5.18753 60.0039 5.93434 60.2678 7.05454C60.5395 8.19809 59.9806 9.34163 58.8162 9.85506C57.256 10.5396 55.6802 11.1698 54.1122 11.8232C53.4213 12.111 52.7382 12.4066 52.0396 12.6711C50.6889 13.1923 49.2917 12.6322 48.7794 11.3642C48.2593 10.0651 48.8337 8.72708 50.1921 8.15141C52.3811 7.22569 54.5779 6.31552 56.7825 5.42091C57.124 5.28088 57.4966 5.22643 57.8537 5.13308Z" fill="#02B6FE"/>
<path d="M5.37955 37.8214C4.06769 37.8214 3.10515 37.1134 2.83346 36.0866C2.53073 34.943 3.00424 33.7139 4.08322 33.2394C6.45076 32.2048 8.83383 31.209 11.2402 30.26C12.4667 29.7776 13.8096 30.4544 14.2908 31.6524C14.7799 32.8738 14.2831 34.2429 13.0488 34.7719C10.7434 35.7676 8.4069 36.7089 6.07817 37.658C5.80648 37.7669 5.49598 37.7902 5.37955 37.8136V37.8214Z" fill="#02B6FE"/>
<path d="M6.15579 19.1123C7.36673 19.1123 8.58543 19.1046 9.79638 19.1123C11.2247 19.1279 12.2881 20.1547 12.2959 21.4928C12.2959 22.8308 11.2324 23.8732 9.80414 23.8888C7.35121 23.9043 4.90604 23.9043 2.4531 23.8888C1.02481 23.8888 -0.0153534 22.8386 0.000171497 21.4694C0.0156964 20.1392 1.0481 19.1279 2.44534 19.1123C3.67957 19.0968 4.92156 19.1123 6.15579 19.1123Z" fill="#01B6FE"/>
<path d="M56.9532 19.1123C58.1642 19.1123 59.3829 19.1046 60.5938 19.1123C61.9911 19.1279 62.9924 20.1392 62.9924 21.5006C62.9924 22.8308 61.96 23.881 60.5783 23.8888C58.1254 23.9043 55.6724 23.9043 53.2195 23.8888C51.8378 23.881 50.7898 22.8464 50.7666 21.5317C50.7433 20.1936 51.8223 19.1434 53.235 19.1123C53.2816 19.1123 53.3282 19.1123 53.3747 19.1123C54.5624 19.1123 55.7578 19.1123 56.9455 19.1123H56.9532Z" fill="#01B6FE"/>
</svg>
