<svg width="31" height="32" viewBox="0 0 31 32" fill="none" xmlns="http://www.w3.org/2000/svg">
<path d="M0 15.9522C0 12.0561 0 8.15995 0 4.25646C0 2.02905 1.52905 0.5 3.74911 0.5C11.6075 0.5 19.466 0.5 27.3171 0.5C29.4415 0.5 31 2.05845 31 4.1903C31 12.0487 31 19.8998 31 27.7582C31 29.9562 29.4636 31.5 27.2729 31.5C19.3998 31.5 11.534 31.5 3.6609 31.5C1.56581 31.5 0 29.9342 0 27.8318C0 23.8768 0 19.9145 0 15.9596V15.9522ZM26.7731 2.88914C26.729 2.88914 26.6481 2.87444 26.5599 2.87444C18.944 2.87444 11.3355 2.87444 3.71971 2.87444C2.83756 2.87444 2.37444 3.36697 2.37444 4.27852C2.37444 11.8282 2.37444 19.3852 2.37444 26.9349C2.37444 27.0599 2.38914 27.1848 2.39649 27.251C10.5269 19.1279 18.65 11.0049 26.7731 2.88914Z" fill="#36B3FF"/>
</svg>
