<svg width="72" height="72" viewBox="0 0 72 72" fill="none" xmlns="http://www.w3.org/2000/svg">
<path d="M69.8906 0H61.4531C60.2872 0 59.3438 0.943453 59.3438 2.10938V4.21875H52.7344C51.5685 4.21875 50.625 5.1622 50.625 6.32812C50.625 7.49405 51.5685 8.4375 52.7344 8.4375H59.3438V10.5469C59.3438 11.7128 60.2872 12.6562 61.4531 12.6562H63.5625V19.2656C63.5625 20.4315 64.506 21.375 65.6719 21.375C66.8378 21.375 67.7812 20.4315 67.7812 19.2656V12.6562H69.8906C71.0565 12.6562 72 11.7128 72 10.5469V2.10938C72 0.943453 71.0565 0 69.8906 0Z" fill="#36B3FF"/>
<path d="M69.8906 59.3438H67.7812V53.0156C67.7812 51.8497 66.8378 50.9062 65.6719 50.9062C64.506 50.9062 63.5625 51.8497 63.5625 53.0156V59.3438H61.4531C60.2872 59.3438 59.3438 60.2872 59.3438 61.4531V63.5625H46.4062V28.5469L24.0892 50.9062H27.4219C28.6033 50.9062 29.5312 51.8342 29.5312 53.0156C29.5312 54.1967 28.6033 55.125 27.4219 55.125H18.9844C17.8453 55.125 16.875 54.1529 16.875 53.0156V44.5781C16.875 43.3967 17.803 42.4688 18.9844 42.4688C20.1658 42.4688 21.0938 43.3967 21.0938 44.5781V47.9108L43.4531 25.5938H8.4375V12.6562H10.5469C11.7128 12.6562 12.6562 11.7128 12.6562 10.5469V8.4375H18.9844C20.1503 8.4375 21.0938 7.49405 21.0938 6.32812C21.0938 5.1622 20.1503 4.21875 18.9844 4.21875H12.6562V2.10938C12.6562 0.943453 11.7128 0 10.5469 0H2.10938C0.943453 0 0 0.943453 0 2.10938V10.5469C0 11.7128 0.943453 12.6562 2.10938 12.6562H4.21875V55.125H10.5469C14.0363 55.125 16.875 57.9637 16.875 61.4531V67.7812H59.3438V69.8906C59.3438 71.0565 60.2872 72 61.4531 72H69.8906C71.0565 72 72 71.0565 72 69.8906V61.4531C72 60.2872 71.0565 59.3438 69.8906 59.3438Z" fill="#36B3FF"/>
<path d="M10.5469 59.3438H2.10938C0.943453 59.3438 0 60.2872 0 61.4531V69.8906C0 71.0565 0.943453 72 2.10938 72H10.5469C11.7128 72 12.6562 71.0565 12.6562 69.8906V61.4531C12.6562 60.2872 11.7128 59.3438 10.5469 59.3438Z" fill="#36B3FF"/>
<path d="M27.4219 8.4375H31.6406C32.8065 8.4375 33.75 7.49405 33.75 6.32812C33.75 5.1622 32.8065 4.21875 31.6406 4.21875H27.4219C26.256 4.21875 25.3125 5.1622 25.3125 6.32812C25.3125 7.49405 26.256 8.4375 27.4219 8.4375Z" fill="#36B3FF"/>
<path d="M40.0781 8.4375H44.2969C45.4628 8.4375 46.4062 7.49405 46.4062 6.32812C46.4062 5.1622 45.4628 4.21875 44.2969 4.21875H40.0781C38.9122 4.21875 37.9688 5.1622 37.9688 6.32812C37.9688 7.49405 38.9122 8.4375 40.0781 8.4375Z" fill="#36B3FF"/>
<path d="M65.6719 34.0312C66.8378 34.0312 67.7812 33.0878 67.7812 31.9219V27.7031C67.7812 26.5372 66.8378 25.5938 65.6719 25.5938C64.506 25.5938 63.5625 26.5372 63.5625 27.7031V31.9219C63.5625 33.0878 64.506 34.0312 65.6719 34.0312Z" fill="#36B3FF"/>
<path d="M63.5625 44.5781C63.5625 45.744 64.506 46.6875 65.6719 46.6875C66.8378 46.6875 67.7812 45.744 67.7812 44.5781V40.3594C67.7812 39.1935 66.8378 38.25 65.6719 38.25C64.506 38.25 63.5625 39.1935 63.5625 40.3594V44.5781Z" fill="#36B3FF"/>
<path d="M46.4062 27.7031V28.5469L50.625 24.3278V27.7031C50.625 28.869 51.5685 29.8125 52.7344 29.8125C53.9003 29.8125 54.8438 28.869 54.8438 27.7031V19.2656C54.8449 18.1114 53.8848 17.1562 52.7344 17.1562H44.2969C43.131 17.1562 42.1875 18.0997 42.1875 19.2656C42.1875 20.4315 43.131 21.375 44.2969 21.375H47.6719L43.4531 25.5938H44.2969C45.4783 25.5938 46.4062 26.5217 46.4062 27.7031Z" fill="#36B3FF"/>
</svg>
