<svg width="72" height="72" viewBox="0 0 72 72" fill="none" xmlns="http://www.w3.org/2000/svg">
<path d="M69.8824 0H2.11765C0.948706 0 0 0.948706 0 2.11765V11.1529C0 12.3219 0.948706 13.2706 2.11765 13.2706H69.8824C71.0513 13.2706 72 12.3219 72 11.1529V2.11765C72 0.948706 71.0513 0 69.8824 0Z" fill="#36B3FF"/>
<path d="M38.3379 32.1911L33.6 29.4847V42.5153L38.3379 39.8089C38.7614 39.5661 39.2555 39.4786 39.7369 39.5576L44.0471 40.2762V31.7238L39.7369 32.4424C39.2555 32.5214 38.7614 32.4339 38.3379 32.1911Z" fill="#36B3FF"/>
<path d="M4.51765 57.4588C4.51765 58.6278 5.46635 59.5765 6.63529 59.5765H53.0824C53.0824 56.7607 53.0824 40.4372 53.0824 38.1176H48.2824V42.7765C48.2824 44.0833 47.1113 45.0798 45.816 44.8659L39.7835 43.8593C31.8391 48.3991 32.2434 48.2824 31.4824 48.2824C30.3209 48.2824 29.3647 47.34 29.3647 46.1647V25.8353C29.3647 24.2125 31.124 23.1896 32.5327 23.9972L39.7835 28.1407L45.816 27.1341C47.1037 26.9209 48.2824 27.9107 48.2824 29.2235V33.8824H55.2C56.3689 33.8824 57.3176 34.8311 57.3176 36V59.5765H65.3647C66.5337 59.5765 67.4824 58.6278 67.4824 57.4588V17.5059H4.51765V57.4588ZM23.0005 47.0259C17.1902 49.141 17.4805 49.0842 16.9708 49.0842C16.1054 49.0842 15.2936 48.5506 14.9802 47.6908C14.5807 46.5925 15.1468 45.3769 16.2466 44.9774L21.552 43.0447C22.6518 42.6452 23.8673 43.2113 24.2668 44.3111C24.6664 45.4094 24.1002 46.6249 23.0005 47.0259ZM14.9802 23.9816C15.3798 22.8819 16.5953 22.3158 17.6951 22.7153L23.0005 24.648C24.1002 25.0475 24.6664 26.2631 24.2668 27.3614C23.9534 28.2212 23.1416 28.7548 22.2762 28.7548C21.7601 28.7548 21.9323 28.7663 16.2466 26.6965C15.1468 26.2955 14.5807 25.08 14.9802 23.9816ZM16.8 33.8824H22.4471C23.616 33.8824 24.5647 34.8311 24.5647 36C24.5647 37.1689 23.616 38.1176 22.4471 38.1176H16.8C15.6311 38.1176 14.6824 37.1689 14.6824 36C14.6824 34.8311 15.6311 33.8824 16.8 33.8824Z" fill="#36B3FF"/>
<path d="M43.5925 68.3322C42.19 69.6376 43.1194 72 45.0353 72C45.552 72 46.0701 71.8122 46.4781 71.4325L53.0824 65.2871V69.8824C53.0824 71.0513 54.0311 72 55.2 72C56.3689 72 57.3177 71.0513 57.3177 69.8824V65.2871L63.9219 71.4325C64.3299 71.8122 64.848 72 65.3647 72C67.2806 72 68.2101 69.6376 66.8075 68.3322L57.3176 59.5765H53.0824L43.5925 68.3322Z" fill="#36B3FF"/>
</svg>
