<svg width="98" height="64" viewBox="0 0 98 64" fill="none" xmlns="http://www.w3.org/2000/svg">
<path d="M98 41.4114C97.4476 44.1114 96.4012 46.577 94.658 48.7325C92.1182 51.8766 88.8984 54.1438 85.3676 55.9951C79.5525 59.0469 73.321 60.8256 66.8924 61.962C57.924 63.548 48.8918 63.8746 39.829 63.0928C30.9883 62.3306 22.3585 60.6245 14.2617 56.7992C10.0398 54.8056 6.17045 52.3093 3.23095 48.5762C1.64323 46.5602 0.535716 44.3181 0.14989 41.752C0.133235 41.632 0.0527389 41.5231 0 41.4086C0 40.3839 0 39.3591 0 38.3344C0.668952 36.5222 1.14083 34.5984 2.05404 32.9175C3.86937 29.5808 6.73393 27.1991 9.93157 25.2529C11.8912 24.0606 14.1701 24.7671 15.3526 26.7942C16.4629 28.6985 15.7689 31.0886 13.9092 32.3283C12.4603 33.2944 10.9808 34.2996 9.78723 35.5478C7.18082 38.2785 7.20858 41.2522 9.67065 44.1282C11.7525 46.5574 14.4394 48.1462 17.2789 49.4948C23.0913 52.2563 29.2701 53.7473 35.5988 54.6632C42.8878 55.7186 50.2074 55.9057 57.5354 55.2272C65.8931 54.4538 74.051 52.8315 81.6426 49.0425C84.1102 47.8111 86.4169 46.3312 88.2489 44.2175C90.7526 41.3276 90.8386 38.4712 88.2822 35.6287C87.0581 34.2661 85.5148 33.1911 84.1047 32.0017C83.6911 31.6526 83.1942 31.3958 82.814 31.0216C81.3289 29.5613 81.1513 27.5118 82.3393 25.9845C83.6495 24.3036 85.7424 23.8903 87.5272 24.9849C90.6554 26.9031 93.4839 29.1536 95.5823 32.2334C96.8481 34.0902 97.5281 36.162 97.9944 38.3316V41.4058L98 41.4114Z" fill="#36B3FF"/>
<path d="M57.0135 14.489C55.6201 14.489 54.3433 14.5113 53.072 14.4694C52.8277 14.461 52.503 14.2433 52.3697 14.0283C50.9735 11.7638 47.9452 11.4148 46.1632 13.386C44.6143 15.1005 44.3534 17.2309 44.334 19.2999C45.2722 18.5432 46.1132 17.5744 47.1708 17.0606C51.1595 15.1284 56.1059 17.6665 57.0385 22.0112C58.2932 27.8524 53.1497 32.588 47.1541 31.1249C44.012 30.3571 41.8775 28.4025 40.856 25.3869C39.507 21.4025 39.5792 17.3566 41.2113 13.4642C43.368 8.3182 50.027 6.67918 54.396 10.1303C55.7728 11.2193 56.6277 12.6377 57.0163 14.4862L57.0135 14.489ZM49.05 27.4448C51.2706 27.428 52.9193 25.8253 52.9082 23.6893C52.8971 21.4192 51.24 19.7914 48.9584 19.8053C46.6684 19.8193 45.0973 21.3327 45.1001 23.5217C45.1029 25.7304 46.846 27.4587 49.05 27.442V27.4448Z" fill="#36B3FF"/>
<path d="M78.6254 19.769C78.3534 22.0614 78.1202 24.2756 77.1681 26.353C75.7025 29.5557 73.2127 31.2171 69.7125 31.1947C66.2484 31.1724 63.7225 29.5222 62.3929 26.3139C60.6858 22.1871 60.6858 17.9457 62.1847 13.7714C63.4782 10.1778 66.3095 8.31541 69.9374 8.37963C73.5153 8.44106 76.3354 10.4626 77.4762 14.0757C78.0564 15.913 78.2534 17.8703 78.6226 19.7718L78.6254 19.769ZM73.8567 19.8751C73.6818 17.9206 73.5569 16.0051 72.6881 14.2377C71.8387 12.5037 70.2316 11.7331 68.5911 12.272C67.1422 12.7494 66.4483 13.9361 66.0513 15.2987C65.2852 17.929 65.2547 20.6095 65.8071 23.2732C66.0097 24.2561 66.3622 25.2641 66.8868 26.1073C68.097 28.0591 70.6063 28.1903 72.0636 26.4145C72.5354 25.8393 72.9296 25.1133 73.0961 24.3957C73.4403 22.9102 73.6096 21.3857 73.8511 19.8779L73.8567 19.8751Z" fill="#36B3FF"/>
<path d="M19.6411 24.3594H23.7991C24.8289 26.7384 26.4583 27.6151 29.0369 27.1767C30.7856 26.8808 31.9959 25.5712 31.9542 24.0188C31.9126 22.3881 30.6469 21.1679 28.7927 21.0395C27.8406 20.9725 26.8802 20.9753 25.9253 21.0004C25.3979 21.0143 25.1509 20.8273 25.1537 20.2995C25.1565 19.5066 25.1537 18.7136 25.1537 17.7726C26.2862 17.7726 27.3965 17.8396 28.4957 17.7586C30.5969 17.6051 31.8571 15.8069 31.1909 13.9361C31.0382 13.5033 30.7468 13.0677 30.4054 12.7662C28.3874 10.9848 24.9483 11.9872 24.1933 14.5532C24.1489 14.7068 24.1128 14.8603 24.0656 15.039H20.0602C20.0824 12.9951 20.8235 11.3449 22.3696 10.094C25.1759 7.82398 30.658 7.78768 33.5225 9.99911C35.2879 11.3617 35.9402 13.1962 35.5627 15.3518C35.2018 17.4068 33.9222 18.6884 31.6211 19.2692C32.0708 19.406 32.2734 19.4786 32.4816 19.5317C36.6036 20.5843 38.0414 25.0072 35.249 28.2545C33.0284 30.8401 30.0279 31.4013 26.8136 31.1389C24.9649 30.9881 23.2606 30.3906 21.8478 29.1229C20.4516 27.8692 19.7188 26.3028 19.6383 24.365L19.6411 24.3594Z" fill="#36B3FF"/>
<path d="M92.0988 6.42788C92.0932 9.77573 89.5396 12.3362 86.2226 12.3222C82.9 12.3083 80.3713 9.74222 80.3769 6.39158C80.3852 3.05211 82.9417 0.488868 86.2587 0.500036C89.5868 0.511205 92.1043 3.06607 92.0988 6.42788ZM86.2559 8.36288C87.3939 8.35729 88.1822 7.58106 88.2044 6.44463C88.2266 5.26912 87.4217 4.46496 86.2281 4.47055C85.0734 4.47613 84.3018 5.23282 84.2795 6.37762C84.2601 7.54755 85.079 8.37125 86.2559 8.36288Z" fill="#36B3FF"/>
</svg>
