<svg width="88" height="85" viewBox="0 0 88 85" fill="none" xmlns="http://www.w3.org/2000/svg">
<path d="M14.0642 54.4178C16.4989 56.5959 19.26 58.3229 22.219 59.6209L37.7806 49.8491C41 47.8177 45.312 48.2981 48.0071 51.0078L53.2395 56.2402C61.0826 50.4578 65.9997 41.2066 65.9997 31.1671C65.9997 13.9812 52.0185 0 34.8325 0C17.6466 0 3.66539 13.9812 3.66539 31.1671C3.66539 40.0369 7.45311 48.5107 14.0642 54.4178ZM36.2259 33.9172H33.4392C29.1528 33.9172 25.6657 30.4301 25.6657 26.1437C25.6657 22.29 28.4451 19.1183 32.0825 18.4729V15.5836C32.0825 14.0655 33.3145 12.8335 34.8325 12.8335C36.3506 12.8335 37.5826 14.0655 37.5826 15.5836V18.3336H41.2493C42.7673 18.3336 43.9993 19.5656 43.9993 21.0837C43.9993 22.6017 42.7673 23.8337 41.2493 23.8337H33.4392C32.1852 23.8337 31.1658 24.853 31.1658 26.1071C31.1658 27.3978 32.1852 28.4171 33.4392 28.4171H36.2259C40.5123 28.4171 43.9993 31.9042 43.9993 36.1906C43.9993 40.0443 41.22 43.216 37.5826 43.8613V46.747C37.5826 48.2651 36.3506 49.4971 34.8325 49.4971C33.3145 49.4971 32.0825 48.2651 32.0825 46.747V44.0007H28.4158C26.8977 44.0007 25.6657 42.7687 25.6657 41.2506C25.6657 39.7326 26.8977 38.5006 28.4158 38.5006H36.2259C37.4799 38.5006 38.4993 37.4812 38.4993 36.2272C38.4993 34.9365 37.4799 33.9172 36.2259 33.9172Z" fill="#36B3FF"/>
<path d="M84.3333 40.334H69.6664C68.185 40.334 66.843 41.2286 66.2783 42.5963C65.71 43.9677 66.0253 45.5444 67.074 46.593L71.8151 51.3341L56.8329 66.3163L44.7583 54.2418C43.5593 53.0355 41.6746 52.8265 40.2373 53.7175L1.73669 77.5512C0.0133326 78.6182 -0.514675 80.8769 0.548674 82.5966C1.24168 83.7186 2.4407 84.3346 3.66905 84.3346C4.32906 84.3346 4.99274 84.1586 5.59408 83.7846L41.6233 61.4799L54.2368 74.0935C55.6705 75.5272 57.9879 75.5272 59.4216 74.0935L76.9998 56.5189L81.7409 61.2599C82.4412 61.9603 83.3799 62.3343 84.3333 62.3343C84.8063 62.3343 85.283 62.2426 85.7376 62.0556C87.109 61.4873 88 60.1489 88 58.6676V44.0007C88 41.9766 86.361 40.334 84.3333 40.334Z" fill="#36B3FF"/>
</svg>
