<svg width="67" height="110" viewBox="0 0 67 110" fill="none" xmlns="http://www.w3.org/2000/svg">
<path d="M1.45525 63.5938H22.7189C22.7189 64.0894 22.7189 64.5324 22.7189 64.9754C22.7189 69.3482 22.6664 73.7234 22.7389 78.0961C22.8415 84.3386 27.9254 89.0342 34.1601 88.7439C39.5392 88.4961 44.1302 83.9431 44.2653 78.5517C44.3753 74.0563 44.3028 69.5559 44.3103 65.058C44.3103 64.6075 44.3103 64.1569 44.3103 63.6238H65.4914C65.5214 63.9517 65.5714 64.232 65.5714 64.5149C65.5664 69.3457 65.6415 74.1789 65.5314 79.0097C65.1761 94.6735 52.9694 107.994 37.4126 109.779C20.197 111.754 4.84032 100.298 1.88057 83.1872C1.50028 80.9896 1.50278 78.7119 1.47026 76.4692C1.41021 72.2241 1.45275 67.979 1.45275 63.5988L1.45525 63.5938Z" fill="#01B6FE"/>
<path d="M22.7114 60.7278H1.42272C1.42272 59.5815 1.42272 58.4701 1.42272 57.3613C1.42272 54.7807 1.42022 52.2026 1.42272 49.6221C1.42523 47.4645 1.6579 47.2317 3.7595 47.2292C4.46253 47.2292 5.16557 47.2292 6.08877 47.2292C6.08877 45.9452 6.01621 44.7162 6.12129 43.4997C6.16883 42.9391 6.42402 42.2282 6.83433 41.9053C7.69248 41.2295 8.80583 41.9354 8.87088 43.1768C8.93843 44.4584 8.88589 45.7474 8.88589 47.2317C9.43381 47.2317 9.86914 47.2317 10.3045 47.2317C13.8397 47.2317 17.3748 47.2467 20.9075 47.2217C21.9483 47.2142 22.6789 47.5971 22.6889 48.6709C22.7314 52.6532 22.7064 56.638 22.7064 60.7304L22.7114 60.7278Z" fill="#01B6FE"/>
<path d="M65.594 60.7278H44.3128C44.3128 60.2898 44.3128 59.8893 44.3128 59.4889C44.3128 56.1599 44.3128 52.8334 44.3128 49.5044C44.3128 47.5771 44.6531 47.2317 46.532 47.2317C49.8995 47.2292 53.2696 47.2317 56.6372 47.2317C57.085 47.2317 57.5328 47.2317 58.1308 47.2317C58.1308 45.9026 58.1233 44.7087 58.1308 43.5148C58.1383 42.5586 58.356 41.7051 59.5394 41.7226C60.6977 41.7401 60.9379 42.5736 60.9404 43.5373C60.9429 44.6987 60.9404 45.8626 60.9404 47.2342C62.0212 47.2342 63.0395 47.2342 64.0553 47.2342C65.016 47.2317 65.5739 47.7248 65.5789 48.6659C65.604 52.6532 65.589 56.6405 65.589 60.7304L65.594 60.7278Z" fill="#01B6FE"/>
<path d="M12.1559 32.3189C8.74578 32.3189 5.33319 32.3264 1.9231 32.3164C0.391941 32.3114 0.0892106 31.9384 0.0166555 30.3865C-0.318599 23.3331 4.46253 18.7877 9.37376 17.6338C16.5592 15.9468 23.7422 21.3307 24.0574 28.6995C24.1608 31.1124 23.0225 32.3189 20.6423 32.3189C17.8127 32.3189 14.9855 32.3189 12.1559 32.3189Z" fill="#01B6FE"/>
<path d="M54.9734 32.3189C51.6033 32.3189 48.2358 32.3239 44.8657 32.3189C43.2745 32.3164 43.0193 31.9985 42.9393 30.4216C42.5615 23.0353 47.6954 18.7151 52.2538 17.6438C59.5319 15.9343 66.7949 21.4484 66.9975 28.9223C67.0592 31.1883 65.9626 32.3214 63.7075 32.3214C60.7953 32.3214 57.8856 32.3214 54.9734 32.3214V32.3189Z" fill="#01B6FE"/>
<path d="M12.1008 0.000197384C16.4266 0.0202213 19.8192 3.47686 19.7867 7.82956C19.7541 12.0546 16.254 15.5062 12.0208 15.4862C7.76004 15.4662 4.25738 11.8969 4.30741 7.62682C4.35745 3.40177 7.85261 -0.0198266 12.1008 0.000197384Z" fill="#02B6FE"/>
<path d="M47.245 7.68439C47.26 3.37173 50.7227 -0.0298385 55.076 0.000197384C59.2967 0.0302333 62.7468 3.53192 62.7268 7.76949C62.7068 11.9845 59.2066 15.4762 54.9934 15.4862C50.7152 15.4962 47.2325 11.9895 47.2475 7.68689L47.245 7.68439Z" fill="#02B6FE"/>
<path d="M17.55 40.2659C17.55 41.1369 17.545 42.0054 17.55 42.8765C17.555 43.8226 17.0846 44.4283 16.1564 44.4208C15.3058 44.4133 14.7979 43.8451 14.7904 42.9591C14.7754 41.177 14.7779 39.3973 14.7904 37.6152C14.7954 36.7316 15.2807 36.1509 16.1364 36.1359C17.0571 36.1209 17.5575 36.6991 17.5525 37.6552C17.5475 38.5263 17.5525 39.3948 17.5525 40.2659H17.55Z" fill="#05B7FE"/>
<path d="M49.4842 40.2333C49.4842 39.3623 49.4867 38.4937 49.4842 37.6227C49.4792 36.7241 49.9471 36.1685 50.8077 36.1359C51.6709 36.1034 52.2163 36.6415 52.2338 37.5201C52.2713 39.3423 52.2638 41.1644 52.2388 42.9891C52.2263 43.8702 51.6959 44.4233 50.8428 44.4183C49.9871 44.4133 49.4942 43.8602 49.4867 42.9641C49.4792 42.053 49.4867 41.1419 49.4867 40.2308L49.4842 40.2333Z" fill="#05B7FE"/>
</svg>
