<svg width="636" height="683" viewBox="0 0 636 683" fill="none" xmlns="http://www.w3.org/2000/svg">
<path d="M554.818 265.007C566.353 353.382 531.87 533.319 458.277 578.757C384.683 624.195 189.435 594.782 113.257 537.634C37.0789 480.486 -8.10086 315.396 1.20775 235.869C10.5164 156.343 104.466 91.7005 169.109 60.4731C233.751 29.2456 324.78 14.4157 389.064 48.5046C453.349 82.5935 543.282 176.631 554.818 265.007C566.353 353.382 531.87 533.319 458.277 578.757L554.818 265.007Z" fill="#36B3FF"/>
<ellipse cx="238.5" cy="663.497" rx="185.5" ry="19.5" fill="#36B3FF" fill-opacity="0.2"/>
<path d="M232.347 245.737L223.03 211.988L215.852 212.047L207.531 212.135L198.888 246.059L195.694 258.521L220.686 258.286L235.804 258.14L232.347 245.737Z" fill="#696B6D"/>
<path d="M232.347 245.737L223.03 211.988L215.852 212.047L213.303 212.076V258.345L220.686 258.286L235.804 258.14L232.347 245.737Z" fill="#484B4C"/>
<path d="M245.151 268.577C241.488 259.869 237.738 254.65 234.603 254.708C233.226 254.708 225.901 254.855 218.166 254.972C232.874 257.259 242.66 295.377 242.719 298.016L254.995 294.702C254.995 294.702 248.813 277.286 245.151 268.577Z" fill="#696B6D"/>
<path d="M215.149 255.031C206.388 255.178 198.038 255.324 198.038 255.324C198.038 255.324 189.483 250.399 180.253 294.321L194.053 298.778C194.053 298.778 200.646 257.905 215.149 255.002V255.031Z" fill="#7B7D80"/>
<path d="M215.149 255.031C200.646 257.934 194.053 298.808 194.053 298.808L204.044 298.632C204.044 298.632 207.56 280.804 217.082 280.628L216.643 255.002C216.145 255.002 215.647 255.002 215.149 255.002V255.031Z" fill="#484B4C"/>
<path d="M218.166 255.002C217.668 255.002 217.141 255.002 216.643 255.002L217.082 280.629C226.575 280.482 229.857 298.221 229.857 298.221L242.719 298.016C242.66 295.377 232.874 257.26 218.166 254.973V255.002Z" fill="#2C2E30"/>
<path d="M181.894 294.879L97.8059 652.859L109.32 658.899L194.053 298.808L181.894 294.879Z" fill="#B6B8BA"/>
<g style="mix-blend-mode:multiply">
<path d="M187.871 296.813L102.699 655.438L109.32 658.898L194.053 298.807L187.871 296.813Z" fill="#B6B8BA"/>
</g>
<path d="M253.032 295.26L242.719 298.045L339.669 651.627L354.143 649.428L253.032 295.26Z" fill="#B6B8BA"/>
<g style="mix-blend-mode:multiply">
<path d="M253.032 295.26L247.26 296.814L346.672 650.542L354.143 649.428L253.032 295.26Z" fill="#B6B8BA"/>
</g>
<path d="M206.828 290.129C206.828 290.129 209.172 294.644 209.259 299.541L225.14 299.277C225.14 299.277 225.52 292.475 227.19 289.806C227.19 289.806 223.675 280.57 217.082 280.688C210.49 280.805 206.828 290.158 206.828 290.158V290.129Z" fill="#282A2C"/>
<path d="M224.026 299.307L212.453 299.483L210.344 299.541L210.197 639.371L212.365 639.342L225.374 639.108L224.026 299.307Z" fill="#B6B8BA"/>
<g style="mix-blend-mode:multiply">
<path d="M216.731 639.254L225.374 639.108L224.026 299.307L216.731 299.424V639.254Z" fill="#B6B8BA"/>
</g>
<path d="M97.8059 648.812L112.075 651.627C112.075 651.627 111.401 662.593 106.068 664.499C100.736 666.405 91.2136 663.414 97.8059 648.812Z" fill="#696B6D"/>
<path d="M355.257 647.903L338.732 651.627C338.732 651.627 339.406 662.593 344.738 664.499C350.071 666.405 361.849 662.505 355.257 647.903Z" fill="#696B6D"/>
<path d="M209.435 633.185H226.927C226.927 633.185 229.036 643.857 223.44 646.76C217.844 649.663 204.747 646.819 209.435 633.185Z" fill="#696B6D"/>
<path d="M116.469 204.569L60.5082 229.199C60.5082 229.199 52.8026 234.066 57.3732 248.873C61.9439 263.68 72.3743 260.103 76.1832 259.341C80.4023 258.491 134.752 242.305 134.752 242.305L116.469 204.54V204.569Z" fill="#696B6D"/>
<g style="mix-blend-mode:multiply">
<path d="M90.4226 232.6C84.9436 234.946 79.5233 237.438 74.0444 239.755C71.3489 240.898 67.4521 242.599 64.4636 241.426C59.9222 239.637 58.3108 235.62 58.4573 231.369C56.5529 234.037 54.4726 239.432 57.4025 248.873C61.9732 263.68 72.4036 260.103 76.2125 259.341C80.4316 258.491 134.781 242.305 134.781 242.305L123.384 218.761C112.397 223.335 101.41 227.88 90.4519 232.542L90.4226 232.6Z" fill="#696B6D"/>
</g>
<path d="M531.725 24.5391L106.273 202.84C103.783 203.661 103.607 215.976 108.09 229.639C112.573 243.274 120.044 253.096 122.534 252.275L570.575 142.673L536.764 28.5267L531.695 24.5391H531.725Z" fill="#E6E7E8"/>
<g style="mix-blend-mode:screen">
<path d="M541.891 45.7969L105.013 216.21C105.424 219.406 106.156 222.954 107.211 226.678L549.275 70.6904L541.891 45.7676V45.7969Z" fill="#E6E7E8"/>
</g>
<g style="mix-blend-mode:multiply">
<path d="M475.295 114.847C404.01 138.304 175.36 213.278 158.601 218.057C147.058 221.341 132.203 225.769 120.278 221.429C112.045 218.438 107.475 212.105 105.189 204.218C103.842 207.883 104.34 218.292 108.061 229.639C112.543 243.273 120.015 253.096 122.505 252.275L570.575 142.673L554.314 87.7842C527.974 96.903 501.693 106.168 475.295 114.877V114.847Z" fill="#E6E7E8"/>
</g>
<g style="mix-blend-mode:multiply">
<path d="M541.657 149.74L570.575 142.673L536.764 28.5267L531.695 24.5391L507.231 34.8014C497.679 76.5252 515.815 116.842 541.657 149.74Z" fill="#E6E7E8"/>
</g>
<path d="M528.853 103.09C534.537 118.953 543.474 137.542 556.951 149.535L623.401 133.261L585.43 5.0408L579.746 0.554688L520.972 25.1843C513.589 50.4004 520.239 79.047 528.853 103.061V103.09Z" fill="#696B6D"/>
<path d="M553.523 33.2769C565.712 29.3479 578.134 25.8001 590.44 21.959L585.43 5.0408L579.746 0.554688L520.972 25.1843C519.067 31.6643 518.101 38.3494 517.866 45.1226C529.732 41.1349 541.628 37.0886 553.552 33.2476L553.523 33.2769Z" fill="#545658"/>
<path d="M532.399 112.238C538.053 125.696 545.993 139.77 556.922 149.505L623.372 133.232L609.221 85.4385C583.701 94.7039 558.24 104.116 532.369 112.209L532.399 112.238Z" fill="#545658"/>
<path d="M628.177 58.1407C640.248 94.7626 638.08 128.423 623.401 133.261C608.693 138.099 587.012 112.326 574.97 75.704C562.928 39.0527 565.038 5.45089 579.746 0.583611C594.425 -4.25435 616.135 21.5188 628.206 58.1407H628.177Z" fill="black"/>
<path d="M583.438 7.23939C581.181 7.97241 579.277 9.58506 577.753 11.9014C589.444 16.1823 603.654 36.5604 612.444 63.3304C621.233 90.1005 621.936 114.935 615.08 125.315C617.688 126.283 620.179 126.429 622.435 125.696C634.887 121.591 636.234 91.7425 625.482 59.0202C614.729 26.298 595.89 3.10513 583.438 7.21007V7.23939Z" fill="#96A5A8"/>
<path d="M612.444 63.3304C603.625 36.5896 589.444 16.1822 577.754 11.9014C570.898 22.3103 571.601 47.1452 580.39 73.8859C589.209 100.656 603.39 121.034 615.081 125.315C621.936 114.906 621.263 90.0711 612.444 63.3304Z" fill="#292D2F"/>
<path d="M597.97 39.9321C601.31 47.6728 600.636 55.3842 596.476 57.2021C592.315 58.9907 586.221 54.2114 582.881 46.4706C579.541 38.7299 580.215 31.0185 584.375 29.2006C588.536 27.3827 594.63 32.1913 597.97 39.9321Z" fill="white"/>
<path d="M608.371 71.1001C609.777 74.3254 609.484 77.5507 607.756 78.2838C606.027 79.0461 603.478 77.023 602.101 73.7976C600.724 70.5723 600.988 67.3764 602.716 66.614C604.445 65.8517 606.994 67.8748 608.371 71.0708V71.1001Z" fill="white"/>
<path d="M57.0216 187.388C57.0216 187.388 53.3007 188.56 55.9083 196.565C58.5159 204.57 64.2292 201.139 64.2292 201.139L124.204 178.063L115.151 159.063L57.0216 187.388Z" fill="#696B6D"/>
<g style="mix-blend-mode:multiply">
<path d="M109.233 183.81L124.234 178.034L115.18 159.034L102.787 165.074C102.933 171.584 105.248 178.679 109.233 183.81Z" fill="#696B6D"/>
</g>
<path d="M77.5896 226.707L70.3234 191.405L78.2049 189.675L95.3448 220.198L77.5896 226.707Z" fill="#3F4244"/>
<g style="mix-blend-mode:multiply">
<path d="M83.4201 198.999L78.2049 189.704L70.3527 191.434L72.6673 202.781C76.4176 202.166 79.9042 200.524 83.4201 199.028V198.999Z" fill="#3F4244"/>
</g>
<g style="mix-blend-mode:multiply">
<path d="M76.4469 221.224L77.5603 226.677L95.3155 220.197L91.9168 214.157C86.8774 216.767 81.7207 219.494 76.4176 221.224H76.4469Z" fill="#3F4244"/>
</g>
<path d="M62.7056 183.077L70.3234 200.552L82.8341 195.802L75.6265 176.011L62.7056 183.077Z" fill="#3F4244"/>
<path d="M75.6265 189.469C75.6265 191.258 74.1909 192.695 72.4036 192.695C70.6164 192.695 69.1807 191.258 69.1807 189.469C69.1807 187.681 70.6164 186.244 72.4036 186.244C74.1909 186.244 75.6265 187.681 75.6265 189.469Z" fill="#17181A"/>
<path d="M110.522 173.754C111.928 177.008 114.067 180.761 117.055 183.107L130.767 178.797L121.069 152.467L119.809 151.616L107.826 157.568C106.625 162.934 108.412 168.857 110.551 173.783L110.522 173.754Z" fill="#696B6D"/>
<path d="M114.741 158.771C117.231 157.774 119.78 156.865 122.3 155.897L121.011 152.437L119.751 151.587L107.768 157.539C107.445 158.917 107.357 160.325 107.387 161.761C109.819 160.764 112.25 159.767 114.711 158.771H114.741Z" fill="#545658"/>
<path d="M111.401 175.629C112.778 178.386 114.624 181.23 117.055 183.106L130.767 178.796L127.134 168.974C121.919 171.261 116.704 173.577 111.401 175.629Z" fill="#545658"/>
<path d="M130.738 162.963C133.756 170.469 133.785 177.565 130.738 178.767C127.72 179.969 122.827 174.868 119.81 167.361C116.792 159.855 116.762 152.76 119.81 151.557C122.827 150.326 127.72 155.428 130.738 162.963Z" fill="black"/>
<path d="M120.659 152.907C120.19 153.082 119.809 153.464 119.546 153.962C122.065 154.695 125.318 158.771 127.515 164.254C129.713 169.737 130.211 174.927 128.921 177.214C129.478 177.39 130.006 177.39 130.474 177.214C133.023 176.187 132.906 169.913 130.211 163.198C127.515 156.484 123.237 151.88 120.688 152.936L120.659 152.907Z" fill="#96A5A8"/>
<path d="M127.486 164.283C125.259 158.8 122.036 154.724 119.516 153.991C118.227 156.278 118.696 161.468 120.923 166.951C123.12 172.434 126.372 176.51 128.892 177.243C130.181 174.956 129.713 169.766 127.486 164.283Z" fill="#292D2F"/>
<path d="M124.146 159.562C124.966 161.146 124.908 162.758 124.058 163.198C123.208 163.638 121.86 162.7 121.069 161.146C120.278 159.562 120.308 157.95 121.157 157.51C122.007 157.07 123.355 158.008 124.146 159.562Z" fill="white"/>
<path d="M126.753 165.954C127.076 166.628 127.076 167.303 126.724 167.478C126.372 167.654 125.816 167.273 125.464 166.628C125.142 165.983 125.142 165.309 125.493 165.103C125.845 164.928 126.402 165.309 126.753 165.954Z" fill="white"/>
<path d="M228.948 192.342C224.905 179.91 222.18 164.458 225.638 151.117L176.884 171.319C176.884 171.319 176.796 171.466 176.767 171.525C174.745 175.864 173.544 180.409 173.28 185.188C172.899 192.782 173.632 200.406 175.771 207.707C178.906 218.409 183.945 229.199 191.709 237.321L249.399 223.452C239.35 216.18 232.611 203.66 228.919 192.313L228.948 192.342Z" fill="#484B4C"/>
<path d="M179.228 176.627C177.587 177.184 175.976 177.741 174.335 178.328C173.778 180.556 173.397 182.872 173.28 185.218C173.222 186.391 173.251 187.564 173.222 188.737C185.908 183.547 219.631 168.007 224.055 166.189C224.026 164.488 224.055 162.788 224.143 161.087C218.02 163.169 188.076 173.607 179.199 176.627H179.228Z" fill="#696B6D"/>
<g style="mix-blend-mode:multiply">
<path d="M230.941 197.709C226.487 199.028 191.475 210.933 178.32 215.184C181.425 223.306 185.791 231.106 191.768 237.351L249.458 223.482C240.961 217.354 234.896 207.473 230.97 197.709H230.941Z" fill="#484B4C"/>
</g>
</svg>
