<svg width="91" height="92" viewBox="0 0 91 92" fill="none" xmlns="http://www.w3.org/2000/svg">
<path d="M77.219 34.9235C67.8402 40.3054 58.6578 45.5743 49.2054 51.0004C44.6166 43.0552 40.0916 35.2279 35.4145 27.1354C44.6902 21.8075 53.9217 16.5042 63.4183 11.0486C68.0218 19.0134 72.5468 26.8408 77.219 34.9235Z" fill="#36B3FF"/>
<path d="M24.799 64.902C31.4981 61.0031 37.9518 57.2417 44.3712 53.5097C47.7281 56.8881 48.4348 60.7183 46.7957 64.8186C46.3932 65.8252 46.3392 67.2002 46.668 68.2265C49.2054 76.0489 51.8801 83.8222 54.6236 91.9491C51.7476 91.9491 49.0876 92.0522 46.4521 91.8656C45.8828 91.8263 45.1516 90.8344 44.8963 90.1322C42.7713 84.2396 40.7444 78.3175 38.4524 71.7276C37.9469 72.9995 37.6427 73.6771 37.412 74.3793C35.6844 79.6434 33.9422 84.9025 32.2834 90.1911C31.8858 91.4629 31.346 92.0718 29.9031 91.9933C27.5621 91.8607 25.2063 91.9589 22.5611 91.9589C24.7745 85.4427 26.8504 79.1916 29.0442 72.9847C29.643 71.2857 29.8 70.0581 28.1019 68.8059C26.8504 67.8778 26.0112 66.385 24.799 64.907V64.902Z" fill="#36B3FF"/>
<path d="M13.7909 44.6168C20.4458 40.7473 26.8455 37.0252 33.5054 33.1508C36.5678 38.4934 39.5518 43.6936 42.6977 49.1835C36.1114 53.0236 29.6037 56.8145 22.9684 60.679C19.8912 55.2971 16.9073 50.0723 13.7909 44.6168Z" fill="#36B3FF"/>
<path d="M64.8563 4.57167C67.531 3.00031 69.9898 1.55172 72.6302 0C78.7453 10.5527 84.8358 21.0562 91 31.6924C88.4283 33.2146 85.9892 34.6534 83.2457 36.2738C77.111 25.7015 71.0352 15.2225 64.8563 4.57167Z" fill="#36B3FF"/>
<path d="M4.57896 65.7368C2.99374 63.0508 1.56067 60.6201 0 57.9832C3.95076 55.69 7.79846 53.4557 11.8719 51.0888C13.3737 53.6226 14.8558 56.1172 16.4656 58.8376C12.5197 61.1259 8.67204 63.3552 4.57405 65.7368H4.57896Z" fill="#36B3FF"/>
</svg>
