<svg width="47" height="69" viewBox="0 0 47 69" fill="none" xmlns="http://www.w3.org/2000/svg">
<path d="M20.4079 18.8515L23.5 20.6998L30.9211 16.1412L27.8289 14.6624L20.4079 18.8515Z" fill="#36B3FF"/>
<path d="M25.1077 13.3069L23.5 12.4448L16.0789 16.1412L18.058 17.3733L25.1077 13.3069Z" fill="#36B3FF"/>
<path d="M24.7368 32.5285L32.1579 28.832V18.2355L24.7368 22.918V32.5285Z" fill="#36B3FF"/>
<path d="M14.8421 28.832L22.2632 32.5285V22.918L14.8421 18.2355V28.832Z" fill="#36B3FF"/>
<path d="M35.8684 59.1429V67.2751L45.2685 57.9107H37.1053C36.363 57.9107 35.8684 58.4034 35.8684 59.1429Z" fill="#36B3FF"/>
<path d="M45.7632 0H1.23684C0.494616 0 0 0.492737 0 1.23214V67.7679C0 68.5073 0.494616 69 1.23684 69H33.3947V59.1429C33.3947 57.048 35.0024 55.4464 37.1053 55.4464H47V1.23214C47 0.492737 46.5054 0 45.7632 0ZM16.0789 4.92857H30.9211V7.39286H16.0789V4.92857ZM12.3684 15.2785L23.5 9.73381L34.6316 15.2785V30.3108L23.5 35.8555L12.3684 30.3108V15.2785ZM28.4474 59.1429H7.42105V56.6786H28.4474V59.1429ZM39.5789 52.9821H7.42105V50.5179H39.5789V52.9821ZM39.5789 46.8214H7.42105V44.3571H39.5789V46.8214ZM39.5789 40.6607H7.42105V38.1964H39.5789V40.6607Z" fill="#36B3FF"/>
</svg>
