<svg width="75" height="76" viewBox="0 0 75 76" fill="none" xmlns="http://www.w3.org/2000/svg">
<path fill-rule="evenodd" clip-rule="evenodd" d="M27.9438 72.7499L31.0193 62.8213H43.9367L47.0562 72.7499H27.9438Z" fill="#36B3FF"/>
<path fill-rule="evenodd" clip-rule="evenodd" d="M51.9332 76H23.0668C22.4956 76 22.0562 75.5103 22.0562 74.976C22.0562 74.3972 22.4956 73.952 23.0668 73.952H51.9332C52.4604 73.952 52.9438 74.3972 52.9438 74.976C52.9438 75.5103 52.4604 76 51.9332 76Z" fill="#36B3FF"/>
<path fill-rule="evenodd" clip-rule="evenodd" d="M72.1002 61.6192H2.89982C1.27417 61.6192 0 60.5507 0 59.215V54.8518H75V59.215C75 60.5507 73.7258 61.6192 72.1002 61.6192ZM0 53.6497V16.6069C0 15.2267 1.27417 14.2027 2.89982 14.2027H28.3831L21.3533 16.1172C19.7715 16.5179 18.4534 17.5419 17.6186 19.0112C17.0475 20.0797 16.7399 21.2818 16.8278 22.4839L14.7188 23.0627C14.1476 23.1963 13.6643 23.5525 13.4007 24.0867C13.0931 24.5765 13.0053 25.1553 13.181 25.7341L15.1142 33.0803C15.3779 34.0598 16.2127 34.7276 17.2232 34.7276C17.5747 34.7276 17.3989 34.7276 17.7944 34.6386L19.9033 34.0598C20.9139 36.1523 23.0228 37.488 25.3515 37.488C25.703 37.488 26.0984 37.488 26.4499 37.399L33.348 49.5091C33.6995 50.2215 34.4464 50.6222 35.1933 50.6222C35.5887 50.6222 35.9842 50.5331 36.2917 50.3105L41.4763 47.283C41.9596 47.0158 42.3111 46.5261 42.4868 45.9473C42.6186 45.413 42.5308 44.7897 42.2671 44.3L36.7311 34.6386L39.9385 33.7481H39.9824C44.2882 32.5905 48.7258 32.9022 52.9438 34.416C54.6573 35.0393 56.8981 36.1078 58.3919 37.2654C58.7434 37.5771 59.2267 37.7551 59.71 37.7551C60.1494 37.7551 60.5448 37.6216 60.8963 37.399C61.6872 36.8647 62.0387 35.8852 61.819 34.9947L56.3269 14.2027H72.1002C73.7258 14.2027 75 15.2267 75 16.6069V53.6497H0Z" fill="#36B3FF"/>
<path fill-rule="evenodd" clip-rule="evenodd" d="M25.3515 36.3303C23.1107 36.3303 21.1775 34.8165 20.6063 32.5904L18.1459 23.3743C17.7944 22.0831 17.9701 20.7474 18.6292 19.5898C19.2882 18.4323 20.3866 17.5863 21.6608 17.2747L34.6661 13.7129C34.9297 13.6683 35.1933 13.6683 35.413 13.8019C35.6766 13.9355 35.8084 14.1581 35.8963 14.4252L40.3778 31.3883C40.5097 31.9226 40.2021 32.4569 39.6749 32.5904L26.6257 36.1522C26.2302 36.2413 25.7909 36.3303 25.3515 36.3303ZM25.1318 30.1862C24.8242 30.2307 24.6485 30.5424 24.7364 30.854C24.7803 31.1212 25 31.2993 25.2636 31.2993C25.3076 31.2993 25.3515 31.2547 25.3954 31.2547L34.5343 28.806C34.7979 28.717 34.9736 28.4053 34.9297 28.0936C34.8418 27.782 34.5343 27.6039 34.2267 27.6929L25.1318 30.1862ZM24.2091 27.2477H24.3409L33.4358 24.7545C33.7434 24.6654 33.9192 24.3538 33.8313 24.0866C33.7434 23.775 33.4358 23.5969 33.1722 23.6859L24.0334 26.1347C23.7698 26.2237 23.594 26.5354 23.638 26.847C23.7258 27.0696 23.9455 27.2477 24.2091 27.2477ZM23.1107 23.2407C23.1986 23.2407 23.2425 23.1962 23.2865 23.1962L32.3814 20.7474C32.6889 20.6584 32.8647 20.3467 32.7768 20.0351C32.6889 19.7234 32.3814 19.5453 32.0738 19.6344L22.9789 22.1276C22.6713 22.1722 22.4956 22.4838 22.5835 22.7955C22.6713 23.0626 22.891 23.2407 23.1107 23.2407Z" fill="#36B3FF"/>
<path fill-rule="evenodd" clip-rule="evenodd" d="M59.71 36.553C59.4903 36.553 59.2707 36.4639 59.0949 36.3304C59.007 36.2859 51.4499 30.4089 41.5202 32.1898C41.6081 31.8336 41.6081 31.4329 41.5202 31.0767L37.0387 14.1136C36.9069 13.7575 36.7311 13.4013 36.4675 13.1341C45.9578 9.66139 49.6485 0.756883 49.6485 0.623315C49.8243 0.222613 50.2197 0 50.6591 0C51.0984 0.0445225 51.4499 0.35618 51.5378 0.756883L60.6766 35.2618C60.8084 35.7071 60.6327 36.1523 60.2812 36.3749C60.1054 36.5085 59.9297 36.553 59.71 36.553ZM49.9561 11.0861C49.8682 10.7744 49.5606 10.5964 49.2531 10.6854C48.9455 10.7744 48.7698 11.0861 48.8577 11.3978L53.1195 27.4259C53.1634 27.693 53.3831 27.8711 53.6468 27.8711C53.6907 27.8711 53.7346 27.8711 53.7786 27.8266C54.0861 27.782 54.2619 27.4704 54.174 27.1587L49.9561 11.0861Z" fill="#36B3FF"/>
<path fill-rule="evenodd" clip-rule="evenodd" d="M35.1933 49.42C34.8858 49.42 34.5343 49.2419 34.3585 48.9303L27.6362 37.1318L35.5887 34.9502L41.2566 44.8787C41.3884 45.1013 41.4323 45.413 41.3445 45.6356C41.2566 45.9027 41.1248 46.1253 40.8612 46.2589L35.7206 49.2864C35.5448 49.3755 35.3691 49.42 35.1933 49.42Z" fill="#36B3FF"/>
<path fill-rule="evenodd" clip-rule="evenodd" d="M17.2232 33.5254C16.7838 33.5254 16.3884 33.2583 16.2566 32.7685L14.3234 25.4223C14.2355 25.1552 14.2794 24.888 14.4112 24.6654C14.5431 24.4428 14.7627 24.2647 15.0264 24.1757L17.0035 23.6414V23.6859L19.464 32.9021V32.9466L17.4868 33.4809C17.3989 33.5254 17.3111 33.5254 17.2232 33.5254Z" fill="#36B3FF"/>
</svg>
