<svg width="83" height="83" viewBox="0 0 83 83" fill="none" xmlns="http://www.w3.org/2000/svg">
<path d="M76.203 39.4042C75.0451 38.2462 73.1692 38.2462 72.0113 39.4042L66.0827 45.3327C64.9248 46.4907 64.9248 48.3665 66.0827 49.5244C67.2406 50.6823 69.1165 50.6823 70.2744 49.5244L70.7879 49.0109C68.5639 64.8405 54.9686 77.0714 38.5357 77.0714C20.556 77.0714 5.92857 62.444 5.92857 44.4643C5.92857 26.4846 20.556 11.8571 38.5357 11.8571C40.1742 11.8571 41.5 10.5299 41.5 8.89286C41.5 7.25584 40.1742 5.92857 38.5357 5.92857C17.2878 5.92857 0 23.2149 0 44.4643C0 65.7136 17.2878 83 38.5357 83C58.4383 83 74.8638 67.8328 76.8644 48.449L77.9399 49.5244C78.5188 50.1034 79.2773 50.3929 80.0357 50.3929C80.7942 50.3929 81.5526 50.1034 82.1316 49.5244C83.2895 48.3665 83.2895 46.4907 82.1316 45.3327L76.203 39.4042Z" fill="#36B3FF"/>
<path d="M38.5357 20.75C25.4599 20.75 14.8214 31.3884 14.8214 44.4643C14.8214 57.5401 25.4599 68.1786 38.5357 68.1786C51.6116 68.1786 62.25 57.5401 62.25 44.4643C62.25 38.9933 60.3695 33.9634 57.2452 29.9464L82.1316 5.06013C83.2895 3.9022 83.2895 2.02637 82.1316 0.868443C80.9736 -0.289481 79.0978 -0.289481 77.9399 0.868443L53.0535 25.7548C49.0366 22.6305 44.0067 20.75 38.5357 20.75ZM38.5357 42.9821C43.4395 42.9821 47.4286 46.9712 47.4286 51.875C47.4286 56.2713 44.215 59.9074 40.0179 60.618V63.7321C40.0179 64.5514 39.3549 65.2143 38.5357 65.2143C37.7165 65.2143 37.0536 64.5514 37.0536 63.7321V60.618C32.8565 59.9074 29.6429 56.2713 29.6429 51.875C29.6429 51.0558 30.3058 50.3929 31.125 50.3929C31.9442 50.3929 32.6071 51.0558 32.6071 51.875C32.6071 55.1447 35.266 57.8036 38.5357 57.8036C41.8054 57.8036 44.4643 55.1447 44.4643 51.875C44.4643 48.6053 41.8054 45.9464 38.5357 45.9464C33.6319 45.9464 29.6429 41.9574 29.6429 37.0536C29.6429 32.6573 32.8565 29.0212 37.0536 28.3105V25.1964C37.0536 24.3772 37.7165 23.7143 38.5357 23.7143C39.3549 23.7143 40.0179 24.3772 40.0179 25.1964V28.3105C44.215 29.0212 47.4286 32.6573 47.4286 37.0536C47.4286 37.8728 46.7657 38.5357 45.9464 38.5357C45.1272 38.5357 44.4643 37.8728 44.4643 37.0536C44.4643 33.7839 41.8054 31.125 38.5357 31.125C35.266 31.125 32.6071 33.7839 32.6071 37.0536C32.6071 40.3233 35.266 42.9821 38.5357 42.9821Z" fill="#36B3FF"/>
<path d="M75.5893 35.5714C79.6821 35.5714 83 32.2535 83 28.1607C83 24.0679 79.6821 20.75 75.5893 20.75C71.4965 20.75 68.1786 24.0679 68.1786 28.1607C68.1786 32.2535 71.4965 35.5714 75.5893 35.5714Z" fill="#36B3FF"/>
<path d="M54.8393 14.8214C58.9321 14.8214 62.25 11.5035 62.25 7.41071C62.25 3.31789 58.9321 0 54.8393 0C50.7465 0 47.4286 3.31789 47.4286 7.41071C47.4286 11.5035 50.7465 14.8214 54.8393 14.8214Z" fill="#36B3FF"/>
</svg>
