<svg width="93" height="91" viewBox="0 0 93 91" fill="none" xmlns="http://www.w3.org/2000/svg">
<path d="M46.6266 91C34.0226 91 21.4185 91 8.81443 91C5.12427 91 3.31748 89.1956 3.31748 85.5067C3.31748 79.0784 3.31748 72.65 3.31748 66.2196C3.31748 62.8225 5.20706 60.9359 8.60747 60.9359C14.4956 60.9339 20.3857 60.94 26.2739 60.9318C27.8302 60.9298 29.0968 61.5196 29.695 62.952C31.7667 67.9253 35.7114 70.6566 40.724 71.9965C46.6308 73.5748 52.3264 72.9829 57.6143 69.7708C60.1765 68.213 62.0951 66.0655 63.2416 63.2746C63.9039 61.6634 65.1333 60.9277 66.8718 60.9298C72.8302 60.94 78.7867 60.9257 84.7451 60.9359C87.7544 60.9421 89.8695 63.0445 89.8737 66.0511C89.8861 72.6849 89.884 79.3188 89.8737 85.9527C89.8695 89.0435 87.8868 90.9938 84.7472 90.9938C72.0396 91 59.3321 90.9959 46.6246 90.9959L46.6266 91Z" fill="#01B6FE"/>
<path d="M37.0152 46.7085C35.4651 43.3607 33.9294 40.0068 32.3627 36.6672C30.0261 31.6836 27.6605 26.7123 25.328 21.7287C24.5374 20.0394 25.0569 18.3296 26.5636 17.4479C28.2835 16.443 30.2745 17.0986 31.1996 19.0324C33.145 23.1036 35.0574 27.1932 36.9821 31.2747C38.8924 35.3253 40.8027 39.3759 42.7129 43.4265C42.8226 43.6608 42.9365 43.8909 43.2428 44.0841V43.0175C43.2428 30.021 43.2428 17.0225 43.2428 4.02607C43.2428 1.56817 44.5322 -0.0163141 46.5128 0.000126729C48.5079 0.0165675 49.7497 1.57228 49.7497 4.05895C49.7497 17.0225 49.7497 29.9861 49.7497 42.9497C49.7497 43.3237 49.7497 43.6977 49.7497 44.0718C49.8035 44.0944 49.8573 44.117 49.9132 44.1396C50.0726 43.8354 50.2443 43.5374 50.3913 43.2271C54.2367 35.1382 58.0779 27.0453 61.9295 18.9584C62.6042 17.5404 63.8315 16.8355 65.2264 17.0081C66.7352 17.1972 67.9501 18.2165 68.0887 19.6716C68.1591 20.4073 67.9687 21.2478 67.652 21.9301C63.9722 29.832 60.2448 37.7133 56.5298 45.6028C56.3705 45.9419 56.2276 46.2913 56.0786 46.6345C56.0683 46.7229 56.0579 46.8133 56.0476 46.9016C56.1242 46.8688 56.2028 46.8359 56.2794 46.803C59.9323 43.7882 63.5914 40.7816 67.234 37.7564C73.9706 32.1645 80.6969 26.5582 87.4336 20.9642C88.7913 19.836 90.4221 19.7579 91.6929 20.7258C92.8746 21.6239 93.3693 23.1981 92.6967 24.4764C92.3448 25.1463 91.7467 25.7279 91.1548 26.2232C84.2588 32.0001 77.342 37.7523 70.4315 43.5128C63.283 49.4705 56.1345 55.4262 48.986 61.3839C47.1771 62.8924 45.8236 62.8924 44.0292 61.3963C30.024 49.7151 16.0168 38.0421 2.01775 26.3609C1.4693 25.9026 0.893944 25.4238 0.504853 24.8381C-0.358184 23.5434 -0.0767139 21.8582 1.05951 20.8204C2.21851 19.762 3.9777 19.6222 5.22983 20.6128C7.22081 22.1911 9.15385 23.8414 11.1076 25.4669C19.5041 32.4481 27.8985 39.4314 36.2929 46.4125C36.4771 46.5646 36.6738 46.7023 36.8662 46.8462C36.9552 46.8996 37.0463 46.9551 37.1353 47.0106L37.0152 46.7085Z" fill="#03B6FE"/>
<path d="M37.0152 46.7085L37.1353 47.0106C37.0463 46.9551 36.9552 46.9016 36.8662 46.8462C36.9118 46.7968 36.9614 46.7496 37.0173 46.7064L37.0152 46.7085Z" fill="#FEFEFE"/>
<path d="M56.2794 46.7968C56.2028 46.8297 56.1242 46.8626 56.0476 46.8955C56.0579 46.8071 56.0683 46.7167 56.0786 46.6283C56.1449 46.6838 56.2111 46.7413 56.2794 46.7968Z" fill="#FEFEFE"/>
</svg>
