<svg width="81" height="81" viewBox="0 0 81 81" fill="none" xmlns="http://www.w3.org/2000/svg">
<path d="M13.3592 5.78571H32.9265C33.4749 5.78781 33.9766 5.47746 34.2196 4.98584L36.7132 0H9.57246L12.0661 4.98584C12.3091 5.47746 12.8108 5.78781 13.3592 5.78571Z" fill="#36B3FF"/>
<path d="M5.78571 81H40.5C43.6954 81 46.2857 78.4096 46.2857 75.2143V70.875H34.7143C29.9232 70.8702 26.0405 66.9875 26.0357 62.1964V52.9393L10.206 44.4979C9.26589 43.9943 8.6791 43.0144 8.6791 41.9479C8.6791 40.8814 9.26589 39.9014 10.206 39.3978L26.0357 30.9536V21.6964C26.0405 16.9054 29.9232 13.0226 34.7143 13.0179H46.2857V5.78572C46.2857 2.59035 43.6954 1.81049e-06 40.5 1.81049e-06H39.9475L36.8073 6.28039C36.0761 7.75372 34.5713 8.68363 32.9265 8.67857H13.3592C11.7144 8.68363 10.2096 7.75372 9.47845 6.28039L6.33825 1.81049e-06H5.78571C2.59035 1.81049e-06 0 2.59035 0 5.78572V75.2143C0 78.4096 2.59035 81 5.78571 81ZM11.5714 75.2143H34.7143C35.5131 75.2143 36.1607 75.8619 36.1607 76.6607C36.1607 77.4596 35.5131 78.1071 34.7143 78.1071H11.5714C10.7726 78.1071 10.125 77.4596 10.125 76.6607C10.125 75.8619 10.7726 75.2143 11.5714 75.2143Z" fill="#36B3FF"/>
<path d="M75.2143 15.9107H34.7143C31.5189 15.9107 28.9286 18.5011 28.9286 21.6964V31.8214C28.929 32.3558 28.6348 32.8469 28.1634 33.0986L11.5714 41.9464L28.1678 50.7913C28.6384 51.0447 28.931 51.5369 28.9286 52.0714V62.1964C28.9286 65.3918 31.5189 67.9821 34.7143 67.9821H75.2143C78.4097 67.9821 81 65.3918 81 62.1964V21.6964C81 18.5011 78.4097 15.9107 75.2143 15.9107ZM75.0393 32.8137L70.3094 45.8315C69.8926 46.973 68.8068 47.7323 67.5916 47.7321H45.5827L45.8634 49.4172C45.9799 50.1141 46.583 50.6248 47.2895 50.625H69.4286C70.2274 50.625 70.875 51.2726 70.875 52.0714C70.875 52.8703 70.2274 53.5179 69.4286 53.5179H68.9209C69.2508 54.1938 69.4243 54.9353 69.4286 55.6875C69.4286 58.4834 67.162 60.75 64.3661 60.75C61.5701 60.75 59.3036 58.4834 59.3036 55.6875C59.3078 54.9353 59.4813 54.1938 59.8113 53.5179H53.0131C53.342 54.194 53.5145 54.9356 53.5179 55.6875C53.5352 57.92 52.0879 59.9003 49.9556 60.5619C47.8233 61.2234 45.5093 60.41 44.2599 58.5597C43.0105 56.7094 43.1208 54.2592 44.5312 52.5285C43.7213 51.8629 43.1805 50.9259 43.0096 49.8917L39.4759 28.6899C39.3593 27.993 38.7563 27.4823 38.0497 27.4821H36.1607C35.3619 27.4821 34.7143 26.8346 34.7143 26.0357C34.7143 25.2369 35.3619 24.5893 36.1607 24.5893H38.0497C40.1729 24.584 41.9862 26.1203 42.3297 28.2155L42.4483 28.9286H72.3214C73.2659 28.9284 74.1509 29.3893 74.6923 30.1632C75.2337 30.9371 75.3632 31.9265 75.0393 32.8137Z" fill="#36B3FF"/>
<path d="M48.4554 57.8571C49.6536 57.8571 50.625 56.8858 50.625 55.6875C50.625 54.4892 49.6536 53.5178 48.4554 53.5178C47.2571 53.5178 46.2857 54.4892 46.2857 55.6875C46.2857 56.8858 47.2571 57.8571 48.4554 57.8571Z" fill="#36B3FF"/>
<path d="M45.0996 44.8393H67.5916L72.3229 31.8185L42.93 31.8214L45.0996 44.8393Z" fill="#36B3FF"/>
<path d="M64.3661 57.8571C65.5643 57.8571 66.5357 56.8858 66.5357 55.6875C66.5357 54.4892 65.5643 53.5178 64.3661 53.5178C63.1678 53.5178 62.1964 54.4892 62.1964 55.6875C62.1964 56.8858 63.1678 57.8571 64.3661 57.8571Z" fill="#36B3FF"/>
</svg>
