<svg width="75" height="85" viewBox="0 0 75 85" fill="none" xmlns="http://www.w3.org/2000/svg">
<path fill-rule="evenodd" clip-rule="evenodd" d="M50.3455 36.1487C63.9617 36.1487 75 47.0845 75 60.5743C75 74.0643 63.9617 85 50.3455 85C36.7292 85 25.6911 74.0643 25.6911 60.5743C25.6909 47.0845 36.7292 36.1487 50.3455 36.1487ZM36.6569 61.9729L44.9003 70.1397C46.1021 71.3304 48.0508 71.3304 49.2527 70.1397C55.1572 64.2902 58.1661 61.181 64.0427 55.3009C65.2377 54.11 65.2324 52.1849 64.0305 51.0007C62.8287 49.8165 60.8853 49.8218 59.6902 51.0125L47.0715 63.6669L41.0092 57.6608C39.8073 56.4702 37.8586 56.4702 36.6567 57.6608C35.4551 58.8517 35.4551 60.7822 36.6569 61.9729ZM13.845 11.6786C13.845 19.8247 18.9163 26.4287 25.1729 26.4287C31.4291 26.4287 36.5007 19.8247 36.5007 11.6786C36.5007 3.53247 31.4289 0 25.1729 0C18.9167 0 13.845 3.5323 13.845 11.6786ZM39.6791 30.7474C30.147 28.4047 20.4833 28.2464 10.6664 30.7474C5.00281 32.1896 0 35.2908 0 40.8439V63.4988H10.0548V46.0518C10.0548 45.2947 10.6744 44.6809 11.4386 44.6809C12.2028 44.6809 12.8224 45.2947 12.8224 46.0518V63.4989H23.0819C22.9781 62.5381 22.9233 61.5626 22.9233 60.5745C22.9233 46.8873 33.1427 35.5648 46.4333 33.6833C44.5642 32.3243 42.1889 31.3641 39.6791 30.7474Z" fill="#36B3FF"/>
</svg>
