<svg width="79" height="72" viewBox="0 0 79 72" fill="none" xmlns="http://www.w3.org/2000/svg">
<path d="M63.5621 13.942C62.986 13.942 62.4034 13.7424 61.936 13.3333C55.7049 7.90059 47.7357 4.90932 39.5 4.90932C31.7382 4.90932 24.1477 7.61586 18.1239 12.5348C17.0673 13.3955 15.5103 13.2417 14.6479 12.1944C13.7855 11.1471 13.9369 9.59913 14.9903 8.7384C21.8929 3.10279 30.5993 0.000251321 39.5 0.000251321C48.9339 0.000251321 58.0584 3.42351 65.1915 9.64167C66.2152 10.5351 66.3172 12.0864 65.4186 13.1075C64.9314 13.6573 64.2467 13.942 63.5621 13.942Z" fill="#36B3FF"/>
<path d="M23.8646 13.0911H15.6354C14.2727 13.0911 13.1667 11.9915 13.1667 10.6366V2.45479C13.1667 1.46316 13.769 0.566431 14.6907 0.186796C15.6124 -0.192839 16.6756 0.0166147 17.38 0.720249L25.6092 8.90204C26.3136 9.6024 26.5275 10.6595 26.1457 11.5758C25.7639 12.4922 24.862 13.0911 23.8646 13.0911Z" fill="#36B3FF"/>
<path d="M39.895 72C30.4578 72 21.3333 68.5767 14.2035 62.3586C13.1765 61.4651 13.0778 59.9139 13.9764 58.8928C14.875 57.875 16.4353 57.7735 17.4623 58.667C23.6901 64.0997 31.656 67.0909 39.895 67.0909C47.6567 67.0909 55.2473 64.3844 61.2711 59.4655C62.3244 58.6015 63.8781 58.7553 64.7471 59.8059C65.6128 60.8531 65.4581 62.4011 64.4047 63.2618C57.5021 68.8975 48.7957 72 39.895 72Z" fill="#36B3FF"/>
<path d="M63.3646 72C62.7227 72 62.0907 71.7513 61.62 71.28L53.3908 63.0982C52.6864 62.3979 52.4725 61.3408 52.8543 60.4244C53.2361 59.508 54.138 58.9091 55.1354 58.9091H63.3646C64.7273 58.9091 65.8333 60.0088 65.8333 61.3637V69.5455C65.8333 70.5371 65.231 71.4338 64.3093 71.8135C64.0032 71.9378 63.6839 72 63.3646 72Z" fill="#36B3FF"/>
<path d="M16.4583 36.0001C21.0032 36.0001 24.6875 32.337 24.6875 27.8183C24.6875 23.2997 21.0032 19.6365 16.4583 19.6365C11.9135 19.6365 8.22917 23.2997 8.22917 27.8183C8.22917 32.337 11.9135 36.0001 16.4583 36.0001Z" fill="#36B3FF"/>
<path d="M23.8646 39.2728H9.05208C4.05862 39.2728 0 43.3081 0 48.2728V49.9092C0 51.2641 1.106 52.3637 2.46875 52.3637H30.4479C31.8107 52.3637 32.9167 51.2641 32.9167 49.9092V48.2728C32.9167 43.3081 28.858 39.2728 23.8646 39.2728Z" fill="#36B3FF"/>
<path d="M62.5417 36.0001C67.0865 36.0001 70.7708 32.337 70.7708 27.8183C70.7708 23.2997 67.0865 19.6365 62.5417 19.6365C57.9968 19.6365 54.3125 23.2997 54.3125 27.8183C54.3125 32.337 57.9968 36.0001 62.5417 36.0001Z" fill="#36B3FF"/>
<path d="M69.9479 39.2728H55.1354C50.142 39.2728 46.0833 43.3081 46.0833 48.2728V49.9092C46.0833 51.2641 47.1893 52.3637 48.5521 52.3637H76.5312C77.894 52.3637 79 51.2641 79 49.9092V48.2728C79 43.3081 74.9414 39.2728 69.9479 39.2728Z" fill="#36B3FF"/>
</svg>
