<svg width="23" height="43" viewBox="0 0 23 43" fill="none" xmlns="http://www.w3.org/2000/svg">
<path d="M17.6428 15.4742C17.6428 18.2928 17.634 21.1144 17.6574 23.933C17.6574 24.1912 17.789 24.5056 17.9646 24.6955C20.8963 27.8405 21.8618 31.5166 20.5306 35.62C19.1993 39.7233 16.2764 42.174 12.0749 42.8653C5.41274 43.9572 -0.53257 38.2546 0.0379695 31.4068C0.257408 28.787 1.29901 26.5558 3.13058 24.7074C3.37343 24.4611 3.45535 24.2208 3.45535 23.8855C3.4495 18.2809 3.43487 12.6763 3.45535 7.07464C3.47291 3.57954 6.10909 0.526521 9.43285 0.0725728C13.8801 -0.532691 17.5959 2.71615 17.6369 7.27343C17.6603 10.006 17.6398 12.7386 17.6428 15.4712V15.4742ZM16.5368 15.7115C16.5368 12.8395 16.5631 9.96745 16.5309 7.09541C16.4783 2.67461 11.8759 -0.227092 7.96993 1.71331C5.67314 2.8556 4.55254 4.80194 4.54962 7.38914C4.54084 13.0472 4.54962 18.7052 4.53499 24.3632C4.53499 24.6243 4.43551 24.9626 4.25996 25.1317C1.8754 27.4341 0.798688 30.2171 1.1849 33.552C1.8081 38.9341 7.09217 42.8208 12.3207 41.6934C16.0511 40.8893 18.5702 38.6047 19.606 34.893C20.6476 31.1517 19.6294 27.885 16.8557 25.1999C16.6216 24.9715 16.5339 24.7578 16.5339 24.4374C16.5456 21.5298 16.5397 18.6221 16.5397 15.7145L16.5368 15.7115Z" fill="#36B3FF"/>
<path d="M21.2064 9.54317C20.829 9.54317 20.4545 9.54317 20.0771 9.54317C19.5943 9.53724 19.4158 9.24054 19.4158 8.80143C19.4158 8.36528 19.5767 8.05375 20.0654 8.05078C20.8173 8.04781 21.5692 8.04188 22.3212 8.05078C22.7571 8.05968 22.997 8.33561 23 8.78659C23 9.23757 22.763 9.50757 22.3329 9.54021C22.2978 9.54021 22.2656 9.54021 22.2305 9.54021C21.8882 9.54021 21.5458 9.54021 21.2064 9.54021V9.54317Z" fill="#36B3FF"/>
<path d="M21.2445 15.9429C20.87 15.9429 20.4925 15.9489 20.118 15.9429C19.6323 15.934 19.407 15.6967 19.4158 15.1953C19.4246 14.7591 19.5855 14.4595 20.08 14.4624C20.8319 14.4684 21.5839 14.4565 22.3358 14.4684C22.7688 14.4743 23.0029 14.7532 23 15.2071C22.9941 15.6611 22.7542 15.9281 22.3241 15.9429C21.9642 15.9548 21.6073 15.9429 21.2474 15.9429H21.2445Z" fill="#36B3FF"/>
<path d="M21.2006 20.8622C21.5751 20.8622 21.9525 20.8533 22.327 20.8622C22.7571 20.8741 22.997 21.147 22.997 21.601C22.997 22.0579 22.763 22.3249 22.327 22.3309C21.5751 22.3398 20.8231 22.3398 20.0712 22.3309C19.6148 22.3249 19.4129 22.0876 19.4129 21.601C19.4129 21.1174 19.6236 20.8741 20.0712 20.8622C20.4457 20.8503 20.8231 20.8622 21.1977 20.8622H21.2006Z" fill="#36B3FF"/>
<path d="M15.2904 17.0407C15.2904 19.5983 15.2992 22.1558 15.2816 24.7163C15.2787 25.1376 15.4074 25.3987 15.7176 25.6835C18.2513 27.9978 19.2286 30.8639 18.2777 34.2047C17.3355 37.5188 15.0475 39.483 11.7033 40.0467C8.20107 40.6341 4.72224 38.6789 3.21543 35.4034C1.72033 32.1516 2.49275 28.2529 5.15819 25.8794C5.64681 25.4462 5.82528 25.0249 5.82236 24.3781C5.79603 19.349 5.80773 14.32 5.80773 9.29098C5.80773 8.41572 5.88965 8.33264 6.744 8.33264C9.31874 8.33264 11.8935 8.33264 14.4653 8.33264C15.1295 8.33264 15.2875 8.48989 15.2904 9.15746C15.2904 11.7862 15.2904 14.412 15.2904 17.0407Z" fill="#36B3FF"/>
</svg>
