<svg width="39" height="39" viewBox="0 0 39 39" fill="none" xmlns="http://www.w3.org/2000/svg">
<path d="M34.2714 38.9921H31.1715V29.9372C30.9601 29.8586 30.7801 29.788 30.5922 29.7173C28.1185 28.822 26.4198 26.411 26.4198 23.7723C26.4198 21.1728 28.0872 18.7696 30.5765 17.8979C31.0541 17.733 31.1558 17.4974 31.1558 17.034C31.1402 11.6073 31.148 6.18063 31.148 0.753927V0.0471204H34.2792V0.769634C34.2792 6.2199 34.2792 11.6623 34.2792 17.1126C34.2792 17.4974 34.334 17.7094 34.7646 17.8586C37.3087 18.7068 38.9683 21.0393 38.9996 23.7251C39.0309 26.3717 37.3244 28.822 34.8194 29.733C34.655 29.7958 34.4828 29.8508 34.2792 29.9215V39L34.2714 38.9921Z" fill="#02B6FE"/>
<path d="M7.76547 21.4634C10.8341 22.6099 12.5093 24.6832 12.4858 27.4791C12.4545 30.644 10.7558 32.6466 7.78113 33.6911V38.9372H4.736C4.736 37.3901 4.72034 35.8665 4.74383 34.3508C4.75165 33.8717 4.65772 33.6204 4.14106 33.4398C1.65956 32.5759 0 30.1806 0 27.5497C0 24.9188 1.62824 22.5393 4.11758 21.6597C4.61858 21.4869 4.736 21.2513 4.736 20.7565C4.72034 14.1126 4.72817 7.46859 4.72817 0.824607V0.0549738H7.76547V21.4634Z" fill="#02B6FE"/>
<path d="M17.9733 38.8665V38.1518C17.9733 31.4686 17.9733 24.7853 17.9733 18.0942C17.9733 17.7094 17.9498 17.4503 17.4723 17.301C15.0065 16.5 13.3156 14.2147 13.253 11.6937C13.1825 8.91361 14.6777 6.51832 17.1827 5.56021C17.8246 5.31675 18.0124 5.01832 17.989 4.35079C17.9263 2.91361 17.9733 1.47644 17.9733 0H21.0263C21.0263 1.52356 21.0419 3.02356 21.0184 4.51571C21.0106 5.04188 21.1045 5.30105 21.676 5.50524C24.1184 6.37696 25.731 8.77225 25.7466 11.3796C25.7623 13.9869 24.1262 16.3901 21.6525 17.2932C21.128 17.4817 21.0184 17.733 21.0184 18.2513C21.0341 24.856 21.0341 31.4607 21.0341 38.0654V38.8665H17.9733Z" fill="#01B6FE"/>
</svg>
