<svg width="41" height="27" viewBox="0 0 41 27" fill="none" xmlns="http://www.w3.org/2000/svg">
<path d="M20.5108 13.4807C22.458 10.7963 24.6507 8.36346 27.1521 6.22373C28.2072 5.31997 29.3546 4.52612 30.446 3.66388C30.7159 3.45137 30.9006 3.50267 31.1607 3.68098C34.1654 5.73033 36.7738 8.21446 39.1123 10.9917C39.72 11.7123 40.2767 12.4744 40.8674 13.2096C41.0255 13.4074 41.0546 13.5467 40.8869 13.7714C38.1326 17.4646 34.9481 20.7133 31.1462 23.3318C30.8763 23.5174 30.7013 23.5174 30.4315 23.3318C26.5784 20.684 23.3599 17.3889 20.5911 13.6297C20.5667 13.5955 20.5497 13.554 20.5084 13.4807H20.5108ZM30.6162 16.8417C32.4637 16.8417 33.9612 15.342 33.9563 13.4929C33.9514 11.661 32.471 10.1734 30.643 10.1612C28.7954 10.149 27.2883 11.6414 27.281 13.488C27.2761 15.3395 28.7687 16.8417 30.6162 16.8417ZM36.0299 14.6287C35.4222 14.6287 34.9263 15.127 34.9263 15.7328C34.9263 16.341 35.4149 16.8344 36.025 16.8393C36.6546 16.8466 37.1676 16.3361 37.1554 15.7157C37.1433 15.1099 36.6425 14.6263 36.0299 14.6287Z" fill="#01B6FE"/>
<path d="M28.4309 2.08107C27.5898 2.74546 26.8022 3.38542 25.9903 3.99119C25.8809 4.07424 25.6354 4.04493 25.4847 3.9863C23.6104 3.26085 21.6851 2.87736 19.6699 3.02147C17.4359 3.18269 15.3841 3.9399 13.437 5.00732C10.0531 6.86125 7.23081 9.40645 4.67833 12.2765C4.34043 12.6551 4.01955 13.0484 3.65005 13.4807C4.02684 13.9253 4.38905 14.3698 4.77071 14.7997C7.20164 17.5403 9.86837 20 13.0675 21.8198C15.2991 23.0875 17.6546 23.9473 20.2533 24.0059C22.0619 24.0474 23.7854 23.6517 25.4531 22.9874C25.735 22.875 25.9101 22.9116 26.1386 23.0997C26.8751 23.7079 27.6336 24.2893 28.4334 24.9219C28.217 25.0294 28.0201 25.1295 27.8208 25.2248C25.0908 26.5169 22.2442 27.2131 19.2056 26.9419C16.4003 26.6903 13.8381 25.7035 11.4242 24.2966C7.7097 22.1349 4.61756 19.2404 1.85845 15.9673C1.25072 15.2467 0.696469 14.4822 0.105753 13.747C-0.0376715 13.5662 -0.0328097 13.4416 0.105753 13.256C3.4653 8.77382 7.35479 4.87541 12.3333 2.20564C14.9636 0.796259 17.7543 -0.0513254 20.7614 0.00241196C23.4718 0.0512641 25.9952 0.828013 28.4285 2.07863L28.4309 2.08107Z" fill="#02B6FE"/>
<path d="M21.2887 18.383C19.0377 19.4236 16.4998 18.8178 14.7544 16.8613C12.5058 14.3381 13.1038 10.8329 16.106 8.97899C17.7469 7.96531 19.4558 7.8212 21.2814 8.60039C21.1964 8.71519 21.1259 8.8129 21.0529 8.9106C19.9663 10.342 18.8821 11.7733 17.7882 13.1974C17.618 13.4197 17.618 13.5833 17.7882 13.8056C18.8554 15.1979 19.9104 16.5975 20.9703 17.9922C21.0651 18.1168 21.1696 18.234 21.2912 18.3806L21.2887 18.383Z" fill="#02B6FE"/>
</svg>
