<svg width="229" height="179" viewBox="0 0 229 179" fill="none" xmlns="http://www.w3.org/2000/svg">
<path d="M147.583 51.8072C147.56 58.8157 141.87 64.5012 134.895 64.4856C127.903 64.4701 122.256 58.7107 122.295 51.6359C122.33 44.6352 128.035 38.9691 135.022 39.0003C141.975 39.0314 147.602 44.7675 147.583 51.8072Z" fill="#36B3FF"/>
<path d="M64.7924 89.6324C64.7731 96.6488 59.0951 102.33 52.1153 102.319C45.1163 102.311 39.4692 96.5632 39.5001 89.4885C39.531 82.4838 45.2322 76.8139 52.2158 76.8372C59.1684 76.8606 64.8078 82.6005 64.7885 89.6324H64.7924Z" fill="#36B3FF"/>
<path d="M134.933 102.323C127.965 102.323 122.299 96.6177 122.291 89.5974C122.283 82.5422 127.973 76.8256 134.983 76.8372C141.944 76.8528 147.595 82.5772 147.583 89.6052C147.575 96.6255 141.909 102.323 134.933 102.323Z" fill="#36B3FF"/>
<path d="M147.583 127.29C147.572 134.311 141.901 140.004 134.925 140C127.926 139.996 122.268 134.256 122.291 127.185C122.318 120.177 128.011 114.495 134.991 114.515C141.951 114.534 147.595 120.262 147.583 127.29Z" fill="#36B3FF"/>
<path d="M52.1231 64.4854C45.1588 64.4777 39.5001 58.7611 39.5001 51.7369C39.5001 44.6816 45.1936 38.9767 52.2081 39.0001C59.1646 39.0234 64.8078 44.7517 64.7924 51.7836C64.7769 58.8 59.0989 64.4932 52.1231 64.4854Z" fill="#36B3FF"/>
<path d="M52.1849 114.511C59.1453 114.526 64.8001 120.247 64.7924 127.275C64.7847 134.326 59.0873 140.023 52.069 139.996C45.1125 139.973 39.4808 134.233 39.5001 127.197C39.5194 120.185 45.209 114.499 52.1849 114.515V114.511Z" fill="#36B3FF"/>
<path d="M106.875 101.019H80.5208C84.9126 93.3255 89.2619 85.7098 93.6961 77.9424C98.1188 85.6865 102.472 93.3099 106.875 101.019Z" fill="#36B3FF"/>
<path d="M163.169 100.996C167.557 93.3099 171.902 85.6982 176.332 77.9463C180.751 85.6865 185.097 93.2982 189.496 100.996H163.169Z" fill="#36B3FF"/>
<path d="M106.883 138.712H80.5131C84.9049 131.018 89.2542 123.403 93.6961 115.62C98.1111 123.352 102.464 130.976 106.883 138.712Z" fill="#36B3FF"/>
<path d="M176.329 115.62C180.759 123.379 185.104 130.991 189.5 138.689H163.157C167.541 131.011 171.89 123.395 176.329 115.62Z" fill="#36B3FF"/>
<path d="M106.871 63.1781H80.5247C84.9087 55.4963 89.258 47.8807 93.6961 40.1094C98.1149 47.8456 102.468 55.4691 106.871 63.1781Z" fill="#36B3FF"/>
<path d="M176.329 40.1094C180.751 47.8573 185.101 55.4691 189.496 63.1664H163.165C167.545 55.4924 171.898 47.869 176.329 40.1094Z" fill="#36B3FF"/>
</svg>
