<svg width="189" height="179" viewBox="0 0 189 179" fill="none" xmlns="http://www.w3.org/2000/svg">
<path d="M39.5 119.092C40.3808 115.009 41.8323 111.262 44.7105 108.067C50.5083 101.631 61.1692 99.9381 67.9801 104.697C64.9489 109.98 61.9053 115.274 58.6838 120.884H77.4583C77.5617 124.146 76.8545 126.992 75.3865 129.561C71.2098 136.889 64.9447 140.474 56.4259 139.843C49.7432 139.349 42.9282 133.843 40.6289 126.971C40.1741 125.615 39.8722 124.212 39.5 122.83C39.5 121.586 39.5 120.341 39.5 119.096V119.092Z" fill="#36B3FF"/>
<path d="M96.5677 39C99.4996 39.8921 102.671 40.3361 105.318 41.7594C117.695 48.4233 118.382 65.9213 106.546 73.8923C103.143 67.9919 99.7436 62.0997 96.1417 55.8507C92.5647 62.0292 89.1365 67.9421 85.7083 73.8591C76.4782 67.996 74.3981 55.0872 81.1305 46.7677C84.6496 42.4191 88.9917 39.7593 94.6158 39.3361C94.8598 39.3195 95.0914 39.1162 95.3271 39C95.7406 39 96.1541 39 96.5677 39Z" fill="#36B3FF"/>
<path d="M149.5 123.245C148.598 127.104 147.267 130.727 144.447 133.685C139.042 139.349 132.533 141.366 125.11 139.071C117.666 136.772 113.159 131.532 111.835 123.714C111.72 123.038 111.645 122.349 111.571 121.669C111.558 121.544 111.645 121.411 111.773 121.005H133.612C130.122 114.917 126.855 109.22 123.588 103.523C128.708 100.731 136.867 101.892 141.796 105.751C145.948 109.005 148.251 113.274 149.5 118.266V123.245Z" fill="#36B3FF"/>
</svg>
