<svg width="672" height="408" viewBox="0 0 672 408" fill="none" xmlns="http://www.w3.org/2000/svg">
<path d="M340.92 38.115H301.622C299.716 38.115 298.166 36.5664 298.166 34.6614V16.932C298.166 15.027 299.716 13.4784 301.622 13.4784H340.92C342.826 13.4784 344.376 15.027 344.376 16.932V34.6614C344.376 36.5664 342.826 38.115 340.92 38.115ZM301.622 15.0898C300.606 15.0898 299.779 15.9168 299.779 16.932V34.6614C299.779 35.6767 300.606 36.5036 301.622 36.5036H340.92C341.936 36.5036 342.764 35.6767 342.764 34.6614V16.932C342.764 15.9168 341.936 15.0898 340.92 15.0898H301.622Z" fill="black"/>
<path d="M350.055 32.8618H344.358C343.479 32.8618 342.764 32.1469 342.764 31.2684V20.325C342.764 19.4465 343.479 18.7316 344.358 18.7316H350.055C350.934 18.7316 351.649 19.4465 351.649 20.325V31.2706C351.649 32.1491 350.934 32.8641 350.055 32.8641V32.8618ZM344.376 31.2505H350.039V20.3407H344.376V31.2527V31.2505Z" fill="black"/>
<path d="M308.261 17.4519H303.377V34.1415H308.261V17.4519Z" fill="black"/>
<path d="M315.963 17.4519H311.079V34.1415H315.963V17.4519Z" fill="black"/>
<path d="M323.665 17.4519H318.781V34.1415H323.665V17.4519Z" fill="black"/>
<path d="M331.992 34.1841H325.855V17.4093H331.992V34.1841ZM327.109 32.9313H330.739V18.6621H327.109V32.9335V32.9313Z" fill="black"/>
<path d="M339.694 34.1841H333.557V17.4093H339.694V34.1841ZM334.811 32.9313H338.441V18.6621H334.811V32.9335V32.9313Z" fill="black"/>
<path d="M375.502 29.415C375.502 27.0685 374.616 25.9771 373.141 25.9771C372.201 25.9771 371.159 26.3335 370.363 27.3756L369.916 27.0842C370.845 25.3563 372.381 24.4957 374.067 24.4957C376.733 24.4957 378.334 26.2483 378.334 28.9981C378.334 32.3419 376.087 34.016 373.269 34.016C369.934 34.016 367.829 31.674 367.829 27.5324C367.829 22.8933 371.414 19.1059 377.305 18.5075L377.444 19.451C372.829 20.5917 370.719 23.0704 370.719 27.1111C370.719 31.1518 371.746 32.8842 373.298 32.8842C374.625 32.8842 375.502 31.7928 375.502 29.415Z" fill="black"/>
<path d="M381.576 25.0538C382.713 24.619 383.775 24.4263 385.009 24.4263C388.294 24.4263 390.424 26.0578 390.424 29.1102C390.424 32.1626 388.027 34.0182 384.645 34.0182C381.971 34.0182 380.367 32.7341 380.044 30.4638C380.28 29.8587 380.793 29.5607 381.379 29.5607C382.206 29.5607 382.628 30.0044 382.876 31.3244L383.231 33.2204L382.394 32.4741C383.107 32.7879 383.625 32.8887 384.26 32.8887C386.255 32.8887 387.464 31.5597 387.464 29.4307C387.464 27.1896 386.233 25.9794 384.208 25.9794C383.506 25.9794 382.78 26.0645 382.042 26.2348L381.39 25.9188L381.879 18.8392H389.928V21.2125H382.343L383.15 19.628L382.755 25.4079H381.576V25.0538Z" fill="black"/>
<path d="M399.464 23.3102C399.464 26.6226 397.823 28.0815 396.074 28.0815C394.325 28.0815 392.67 26.6226 392.67 23.3102C392.67 19.9978 394.303 18.5052 396.074 18.5052C397.845 18.5052 399.464 19.9642 399.464 23.3102ZM396.074 27.3061C396.821 27.3061 397.462 26.5755 397.462 23.3102C397.462 20.0449 396.821 19.2964 396.074 19.2964C395.327 19.2964 394.673 20.0113 394.673 23.3102C394.673 26.6091 395.327 27.3061 396.074 27.3061ZM395.704 33.6865L406.327 18.2296L407.231 18.8974L396.608 34.3544L395.704 33.6865ZM409.989 29.1236C409.989 32.436 408.348 33.895 406.599 33.895C404.85 33.895 403.195 32.436 403.195 29.1236C403.195 25.8113 404.827 24.3187 406.599 24.3187C408.37 24.3187 409.989 25.7777 409.989 29.1236ZM406.599 33.1195C407.345 33.1195 407.987 32.3889 407.987 29.1236C407.987 25.8583 407.345 25.1098 406.599 25.1098C405.852 25.1098 405.197 25.8247 405.197 29.1236C405.197 32.4226 405.852 33.1195 406.599 33.1195Z" fill="black"/>
<path d="M38.3323 38.4915V37.3978H45.3526V38.4915L42.1149 38.8411H41.5387L38.3346 38.4915H38.3323ZM42.1127 51.3891L45.3504 51.7387V52.8324H38.3301V51.7387L41.5342 51.3891H42.1127ZM40.3279 44.6097C40.3279 42.214 40.3279 39.7958 40.2584 37.4001H43.4154C43.3459 39.7488 43.3459 42.1692 43.3459 44.6097V45.6115C43.3459 48.0162 43.3459 50.4344 43.4154 52.8301H40.2584C40.3279 50.4815 40.3279 48.0611 40.3279 45.6205V44.6097Z" fill="black"/>
<path d="M54.9604 49.4259C54.9604 48.0588 54.207 47.4447 52.4985 46.7388L51.5635 46.3376C49.0029 45.244 47.3975 43.8791 47.3975 41.4027C47.3975 38.6685 49.6554 37.0056 52.8998 37.0056C54.5097 37.0056 55.9313 37.4695 57.0008 38.2136L56.8349 41.3579H55.0636L54.4537 37.8461L56.1398 38.5632V39.7263C54.9492 38.7201 54.0792 38.2831 52.8617 38.2831C51.2944 38.2831 50.0747 39.1571 50.0747 40.6609C50.0747 42.0078 50.9177 42.7563 52.4536 43.3906L53.4559 43.8164C56.4761 45.0804 57.6802 46.3937 57.6802 48.6661C57.6802 51.4115 55.4784 53.2223 51.8886 53.2223C50.1442 53.2223 48.3078 52.7495 47.1015 51.9987L47.2406 48.6393H49.0298L49.6352 52.3147L47.9782 51.7051V50.589C49.4379 51.5079 50.3146 51.9471 51.855 51.9471C53.7833 51.9471 54.9604 50.9588 54.9604 49.4259Z" fill="black"/>
<path d="M73.9361 45.1162C73.9361 50.347 70.4203 53.2223 66.6938 53.2223C62.9673 53.2223 59.4358 50.4792 59.4358 45.1162C59.4358 39.7532 62.9897 37.0101 66.6938 37.0101C70.3979 37.0101 73.9361 39.7532 73.9361 45.1162ZM66.6938 51.9673C69.4965 51.9673 70.6401 48.7939 70.6401 45.1162C70.6401 41.4386 69.4988 38.2584 66.6938 38.2584C63.8888 38.2584 62.7341 41.4475 62.7341 45.1162C62.7341 48.7849 63.8911 51.9673 66.6938 51.9673Z" fill="black"/>
<path d="M563.9 51.7185L566.261 51.3689H566.7L569.081 51.7185V52.8122H563.9V51.7185ZM572.579 37.3059L577.871 52.81H574.783L570.465 39.6121L571.171 39.0137L566.577 52.81H565.337L570.667 37.3059H572.579ZM574.341 46.8352L574.79 48.0498H567.675L568.057 46.8352H574.341ZM572.301 51.7432L575.079 51.3936H576.099L579.037 51.7432V52.81H572.301V51.7432Z" fill="black"/>
<path d="M578.644 38.4736V37.3799H585.707V38.4736L582.461 38.8232H581.893L578.647 38.4736H578.644ZM587.106 51.3264C589.483 51.3264 590.781 49.8741 590.781 46.044V37.3799H592.124V46.3421C592.124 51.2524 589.792 53.2022 586.292 53.2022C582.792 53.2022 580.492 51.4115 580.492 46.992V44.4708C580.492 42.1266 580.492 39.742 580.422 37.3799H583.579C583.51 39.695 583.51 42.0795 583.51 44.4708V46.2816C583.51 50.0601 584.817 51.3241 587.106 51.3241V51.3264ZM591.048 38.7537L588.53 38.4736V37.3799H594.097V38.4736L591.624 38.7537H591.048Z" fill="black"/>
<path d="M595.97 38.6192L597.342 37.3799L596.665 41.6134H595.037L595.172 37.3799H608.365L608.49 41.6134H606.871L606.194 37.3799L607.557 38.6192H595.967H595.97ZM602.125 51.3689L605.51 51.7185V52.8122H598.026V51.7185L601.378 51.3689H602.125ZM600.255 44.5896C600.255 42.1938 600.255 39.7757 600.185 37.3799H603.342C603.273 39.7286 603.273 42.149 603.273 44.5896V45.5913C603.273 47.9961 603.273 50.4142 603.342 52.81H600.185C600.255 50.4613 600.255 48.0409 600.255 45.6003V44.5896Z" fill="black"/>
<path d="M624.076 45.0961C624.076 50.3268 620.56 53.2022 616.833 53.2022C613.107 53.2022 609.575 50.459 609.575 45.0961C609.575 39.7331 613.129 36.9899 616.833 36.9899C620.537 36.9899 624.076 39.7331 624.076 45.0961ZM616.833 51.9471C619.636 51.9471 620.78 48.7737 620.78 45.0961C620.78 41.4184 619.638 38.2382 616.833 38.2382C614.028 38.2382 612.874 41.4274 612.874 45.0961C612.874 48.7648 614.031 51.9471 616.833 51.9471Z" fill="black"/>
<path d="M41.5364 74.1633V73.0696H45.041V74.5107H44.7405L41.5364 74.1611V74.1633ZM45.5141 87.0609L48.7182 87.4105V88.5042H41.5364V87.4105L44.7405 87.0609H45.5141ZM43.5342 80.2815C43.5342 77.8858 43.5342 75.4676 43.4647 73.0719H46.6217C46.5522 75.4206 46.5522 77.841 46.5522 80.2815V81.1063C46.5522 83.688 46.5522 86.1062 46.6217 88.5019H43.4647C43.5342 86.1533 43.5342 83.7329 43.5342 81.2923V80.2815ZM51.1734 73.0719L52.5456 74.3112H45.0432V73.0719H53.3416L53.5052 77.144H51.8774L51.1734 73.0719ZM50.3617 81.1937H45.0432V79.97H50.3617V81.1937ZM49.633 80.2883L49.9827 77.9418H51.1846V83.4303H49.9827L49.633 80.9673V80.286V80.2883Z" fill="black"/>
<path d="M58.9964 80.1067C60.9426 80.1067 62.1063 79.1117 62.1063 77.1104C62.1063 75.369 61.1444 74.4434 59.4762 74.4434C59.021 74.4434 58.3887 74.5308 57.6174 74.7684L58.8237 74.0154L58.4336 75.8598C58.1959 76.9535 57.7183 77.4174 56.8865 77.4174C56.3483 77.4174 55.882 77.1731 55.6465 76.6173C55.8663 74.3672 57.8349 73.3229 60.1219 73.3229C63.1825 73.3229 64.8933 74.8715 64.8933 77.0095C64.8933 78.8181 63.5233 80.4227 60.7139 80.9135V80.5258C63.992 80.8082 65.3664 82.2761 65.3664 84.4859C65.3664 86.969 63.252 88.8314 59.8618 88.8314C57.1241 88.8314 55.3797 87.6548 55.1151 85.2613C55.3954 84.6383 55.8775 84.3716 56.4246 84.3716C57.2856 84.3716 57.6959 84.8669 57.9627 86.2362L58.3484 88.2173L57.3237 87.3209C58.0277 87.6122 58.6085 87.6996 59.1533 87.6996C61.3282 87.6996 62.4493 86.5723 62.4493 84.4523C62.4493 82.4801 61.3305 81.3416 59.1735 81.3416H58.1959V80.1112H58.9986L58.9964 80.1067Z" fill="black"/>
<path d="M67.8306 86.978C67.8306 85.9426 68.6535 85.0865 69.6983 85.0865C70.7432 85.0865 71.5661 85.9426 71.5661 86.978C71.5661 88.0134 70.7432 88.8291 69.6983 88.8291C68.6535 88.8291 67.8306 87.991 67.8306 86.978Z" fill="black"/>
<path d="M78.0774 80.1067C80.0236 80.1067 81.1873 79.1117 81.1873 77.1104C81.1873 75.369 80.2254 74.4434 78.5572 74.4434C78.1021 74.4434 77.4698 74.5308 76.6985 74.7684L77.9048 74.0154L77.5146 75.8598C77.2792 76.9535 76.7994 77.4174 75.9675 77.4174C75.4294 77.4174 74.963 77.1731 74.7276 76.6173C74.9473 74.3672 76.916 73.3229 79.203 73.3229C82.2636 73.3229 83.9744 74.8715 83.9744 77.0095C83.9744 78.8181 82.6044 80.4227 79.7927 80.9135V80.5258C83.0708 80.8082 84.4452 82.2761 84.4452 84.4859C84.4452 86.969 82.3308 88.8314 78.9406 88.8314C76.2029 88.8314 74.4585 87.6548 74.1939 85.2613C74.4742 84.6383 74.9563 84.3716 75.5034 84.3716C76.3644 84.3716 76.7747 84.8669 77.0415 86.2362L77.4272 88.2173L76.4025 87.3209C77.1065 87.6122 77.6873 87.6996 78.2321 87.6996C80.407 87.6996 81.5281 86.5723 81.5281 84.4523C81.5281 82.4801 80.4093 81.3416 78.2523 81.3416H77.2747V80.1112H78.0774V80.1067Z" fill="black"/>
<path d="M50.7967 355.154H49.0724V353.957L51.7698 353.608L50.7967 354.119C51.0299 351.443 51.6151 350.085 52.6196 349.078C53.7317 347.969 54.9963 347.599 56.1869 347.599C57.3775 347.599 58.4291 347.983 58.6892 349.054C58.66 349.789 58.0972 350.342 57.1555 350.342C56.4716 350.342 55.882 349.982 55.281 349.179L54.4313 348.352L56.5479 347.862L56.938 348.552C56.716 348.395 56.3685 348.256 56.0905 348.256C55.3416 348.256 54.6263 348.845 54.2519 349.491C53.6487 350.506 53.4178 352.1 53.5972 354.8V359.999C53.5972 361.626 53.6196 363.256 53.6667 364.885H50.7249C50.772 363.256 50.7944 361.629 50.7944 359.999V355.154H50.7967ZM55.5905 363.935V364.885H49.1711V363.935L51.6308 363.469H53.0702L55.5905 363.935ZM56.4156 353.749V355.154H52.2048V353.749H56.4156Z" fill="black"/>
<path d="M62.7857 348.37H64.6355L58.4224 368.608H56.5726L62.7857 348.37Z" fill="black"/>
<path d="M67.1871 356.25C68.3239 355.815 69.3867 355.623 70.6199 355.623C73.9047 355.623 76.0348 357.254 76.0348 360.306C76.0348 363.359 73.6379 365.215 70.2566 365.215C67.5817 365.215 65.9785 363.93 65.6557 361.66C65.8911 361.055 66.4046 360.757 66.9898 360.757C67.8171 360.757 68.2387 361.201 68.4876 362.521L68.8418 364.417L68.0055 363.67C68.7185 363.984 69.2364 364.085 69.871 364.085C71.8665 364.085 73.0751 362.756 73.0751 360.627C73.0751 358.386 71.8441 357.176 69.8194 357.176C69.1176 357.176 68.3911 357.261 67.6535 357.431L67.001 357.115L67.4898 350.035H75.5392V352.409H67.9539L68.7611 350.824L68.3665 356.604H67.1871V356.25Z" fill="black"/>
<path d="M78.4698 363.361C78.4698 362.326 79.2927 361.47 80.3375 361.47C81.3824 361.47 82.2053 362.326 82.2053 363.361C82.2053 364.397 81.3824 365.212 80.3375 365.212C79.2927 365.212 78.4698 364.374 78.4698 363.361Z" fill="black"/>
<path d="M92.2951 360.611C92.2951 358.265 91.4095 357.173 89.9341 357.173C88.9946 357.173 87.952 357.53 87.156 358.572L86.7098 358.281C87.6381 356.553 89.174 355.692 90.8601 355.692C93.5261 355.692 95.127 357.445 95.127 360.194C95.127 363.538 92.8803 365.212 90.0619 365.212C86.7278 365.212 84.6224 362.87 84.6224 358.729C84.6224 354.09 88.2076 350.302 94.0979 349.704L94.2369 350.647C89.6225 351.788 87.5125 354.267 87.5125 358.307C87.5125 362.348 88.5395 364.081 90.0911 364.081C91.4184 364.081 92.2951 362.989 92.2951 360.611Z" fill="black"/>
<path d="M86.8489 48.7155V47.066L93.6987 37.5749H95.636V52.5455H93.0485V39.3633H93.7772L88.1516 47.243L87.9655 46.7231H97.9253V48.7155H86.8489Z" fill="black"/>
<path d="M109.656 45.1431C109.656 50.7056 107.147 52.875 104.488 52.875C101.829 52.875 99.3177 50.7056 99.3177 45.1431C99.3177 39.5807 101.8 37.3665 104.488 37.3665C107.177 37.3665 109.656 39.556 109.656 45.1431ZM104.488 51.7432C105.746 51.7432 106.849 50.4232 106.849 45.1431C106.849 39.8631 105.744 38.4893 104.488 38.4893C103.233 38.4893 102.123 39.7869 102.123 45.1431C102.123 50.4994 103.201 51.7432 104.488 51.7432Z" fill="black"/>
<path d="M121.758 45.1431C121.758 50.7056 119.249 52.875 116.589 52.875C113.93 52.875 111.419 50.7056 111.419 45.1431C111.419 39.5807 113.901 37.3665 116.589 37.3665C119.278 37.3665 121.758 39.556 121.758 45.1431ZM116.589 51.7432C117.847 51.7432 118.95 50.4232 118.95 45.1431C118.95 39.8631 117.845 38.4893 116.589 38.4893C115.334 38.4893 114.224 39.7869 114.224 45.1431C114.224 50.4994 115.302 51.7432 116.589 51.7432Z" fill="black"/>
<path d="M553.837 348.057V346.244H559.651V348.635H559.151L553.837 348.057ZM560.151 369.444L565.465 370.022V371.835H553.837V370.022L559.151 369.444H560.151ZM557.151 358.202C557.151 354.229 557.151 350.217 557.034 346.244H562.211C562.095 350.213 562.095 354.078 562.095 358.446V359.618C562.095 363.85 562.095 367.861 562.211 371.835H557.034C557.151 367.94 557.151 363.926 557.151 359.876V358.202ZM559.68 358.083H564.362C568.359 358.083 569.942 355.847 569.942 353.048C569.942 349.879 568.234 348.245 564.66 348.245H559.653V346.244H565.478C571.467 346.244 574.884 348.695 574.884 352.835C574.884 355.943 572.496 358.942 566.534 359.338L566.608 358.986C571.072 359.215 572.687 360.856 573.543 364.668L574.996 370.844L572.794 369.475L577.691 370.022V371.835C576.416 372.167 575.646 372.305 574.176 372.305C571.33 372.305 569.835 371.519 569.413 369.121L568.27 363.753C567.696 360.898 566.51 360.033 563.758 360.033H559.682V358.086L559.68 358.083Z" fill="black"/>
<path d="M579.541 348.057V346.244H585.355V348.635H584.855L579.541 348.057ZM585.355 369.444V371.835H579.541V370.022L584.855 369.444H585.355ZM582.853 358.202C582.853 354.229 582.853 350.217 582.736 346.244H587.972C587.855 350.139 587.855 354.152 587.855 358.202V359.569C587.855 363.85 587.855 367.861 587.972 371.835H582.736C582.853 367.94 582.853 363.926 582.853 359.876V358.202ZM595.393 346.244L597.669 348.299H585.355V346.244H598.992L599.261 352.996H596.562L595.393 346.244ZM593.963 359.713H585.355V357.684H593.963V359.713ZM600.033 365.08L599.763 371.833H585.355V369.791H598.441L596.165 371.833L597.333 365.08H600.033ZM592.757 358.209L593.335 354.318H595.326V363.036H593.335L592.757 358.953V358.209Z" fill="black"/>
<path d="M622.502 368.085V370.136L620.01 370.69L621.145 364.811H623.798L623.643 370.575C621.396 371.801 618.703 372.482 615.692 372.482C608.08 372.482 602.463 367.487 602.463 359.038C602.463 350.589 608.425 345.594 615.809 345.594C618.318 345.594 620.86 346.096 623.313 347.474L623.468 353.265H620.815L619.667 347.357L622.159 347.927V350.165C620.143 348.319 618.293 347.649 616.497 347.649C611.84 347.649 607.93 351.344 607.93 359.051C607.93 366.759 611.555 370.412 616.268 370.412C618.327 370.412 620.499 369.686 622.499 368.085H622.502Z" fill="black"/>
<path d="M539.093 368.146C544.124 363.117 544.124 354.963 539.093 349.934C534.062 344.905 525.904 344.905 520.873 349.934C515.841 354.963 515.841 363.117 520.873 368.146C525.904 373.175 534.062 373.175 539.093 368.146Z" fill="#EC0022"/>
<path d="M269.619 40.0603L275.794 30.2599H263.442L269.619 40.0603Z" fill="black"/>
<path d="M267.823 35.3024C267.605 35.3024 267.383 35.2486 267.177 35.1365C266.527 34.7802 266.289 33.9644 266.648 33.3145L272.038 23.5052H263.442C262.968 23.5052 262.529 23.2564 262.287 22.8485C262.045 22.4406 262.036 21.9364 262.262 21.5218L267.897 11.1992C268.251 10.5493 269.067 10.3095 269.717 10.6636C270.368 11.0177 270.608 11.8334 270.253 12.4834L265.702 20.8203H274.305C274.78 20.8203 275.22 21.0713 275.46 21.4792C275.702 21.8871 275.709 22.3936 275.48 22.8082L268.995 34.6054C268.751 35.0491 268.291 35.3024 267.818 35.3024H267.823Z" fill="black"/>
<path d="M533.341 53.489C528.821 53.489 525.141 49.8114 525.141 45.2933C525.141 40.7752 528.821 37.0975 533.341 37.0975C537.861 37.0975 541.54 40.7752 541.54 45.2933C541.54 49.8114 537.861 53.489 533.341 53.489ZM533.341 38.7089C529.708 38.7089 526.751 41.6627 526.751 45.2933C526.751 48.9239 529.706 51.8799 533.341 51.8799C536.975 51.8799 539.928 48.9261 539.928 45.2933C539.928 41.6604 536.973 38.7089 533.341 38.7089Z" fill="black"/>
<path d="M533.341 34.267C532.897 34.267 532.536 33.9062 532.536 33.4624V28.6642C532.536 28.2205 532.897 27.8596 533.341 27.8596C533.785 27.8596 534.146 28.2205 534.146 28.6642V33.4624C534.146 33.9062 533.785 34.267 533.341 34.267Z" fill="black"/>
<path d="M528.527 35.2889C528.217 35.2889 527.924 35.1119 527.791 34.8116L525.839 30.428C525.657 30.0223 525.838 29.545 526.247 29.3657C526.652 29.1841 527.13 29.3657 527.309 29.7736L529.262 34.1572C529.444 34.5628 529.262 35.0402 528.854 35.2195C528.749 35.2665 528.637 35.2889 528.527 35.2889Z" fill="black"/>
<path d="M524.545 38.18C524.352 38.18 524.159 38.1127 524.007 37.9738L520.439 34.7645C520.11 34.4665 520.083 33.9577 520.379 33.6283C520.677 33.2988 521.186 33.2719 521.516 33.5678L525.083 36.777C525.412 37.0751 525.439 37.5838 525.143 37.9133C524.984 38.0903 524.764 38.18 524.545 38.18Z" fill="black"/>
<path d="M522.083 42.4426C522 42.4426 521.917 42.4291 521.834 42.4022L517.269 40.9186C516.845 40.7819 516.614 40.327 516.751 39.9034C516.888 39.4798 517.343 39.249 517.767 39.3857L522.332 40.8693C522.755 41.006 522.986 41.461 522.85 41.8845C522.74 42.2252 522.424 42.4403 522.083 42.4403V42.4426Z" fill="black"/>
<path d="M516.793 47.8369C516.385 47.8369 516.038 47.5299 515.993 47.1153C515.946 46.6738 516.267 46.2771 516.71 46.2301L521.484 45.7281C521.926 45.6832 522.323 46.0015 522.37 46.4452C522.417 46.8867 522.096 47.2834 521.652 47.3304L516.879 47.8325C516.849 47.8347 516.823 47.8369 516.793 47.8369Z" fill="black"/>
<path d="M518.935 54.4124C518.657 54.4124 518.385 54.2689 518.237 54.009C518.015 53.6235 518.148 53.1305 518.533 52.9086L522.69 50.5106C523.076 50.2887 523.569 50.4209 523.791 50.8042C524.013 51.1896 523.881 51.6827 523.495 51.9046L519.338 54.3026C519.211 54.3765 519.074 54.4101 518.937 54.4101L518.935 54.4124Z" fill="black"/>
<path d="M523.563 59.5512C523.399 59.5512 523.233 59.5019 523.09 59.3966C522.729 59.1344 522.65 58.6324 522.912 58.2716L525.733 54.39C525.995 54.0291 526.498 53.9507 526.859 54.2129C527.22 54.4751 527.298 54.9771 527.036 55.3379L524.215 59.2196C524.058 59.4369 523.812 59.5512 523.563 59.5512Z" fill="black"/>
<path d="M529.883 62.3638C529.827 62.3638 529.771 62.3571 529.715 62.3459C529.28 62.254 529.002 61.826 529.094 61.3912L530.092 56.6983C530.184 56.2635 530.612 55.9856 531.047 56.0775C531.482 56.1694 531.76 56.5975 531.668 57.0322L530.67 61.7251C530.59 62.1039 530.256 62.3638 529.883 62.3638Z" fill="black"/>
<path d="M536.798 62.3638C536.426 62.3638 536.092 62.1039 536.011 61.7251L535.013 57.0322C534.922 56.5975 535.2 56.1694 535.635 56.0775C536.07 55.9856 536.498 56.2635 536.59 56.6983L537.588 61.3912C537.679 61.826 537.401 62.254 536.966 62.3459C536.91 62.3571 536.854 62.3638 536.798 62.3638Z" fill="black"/>
<path d="M543.121 59.5512C542.872 59.5512 542.626 59.4369 542.469 59.2196L539.648 55.3379C539.386 54.9771 539.466 54.4751 539.825 54.2129C540.186 53.9507 540.688 54.0314 540.951 54.39L543.772 58.2716C544.034 58.6324 543.953 59.1344 543.594 59.3966C543.451 59.4997 543.285 59.5512 543.121 59.5512Z" fill="black"/>
<path d="M547.749 54.4124C547.612 54.4124 547.473 54.3765 547.348 54.3048L543.191 51.9068C542.805 51.6849 542.673 51.1919 542.895 50.8064C543.117 50.4209 543.61 50.2887 543.996 50.5128L548.153 52.9108C548.538 53.1327 548.671 53.6257 548.446 54.0112C548.296 54.2689 548.027 54.4146 547.749 54.4146V54.4124Z" fill="black"/>
<path d="M549.888 47.8369C549.859 47.8369 549.832 47.8369 549.803 47.8325L545.029 47.3304C544.588 47.2834 544.267 46.8889 544.312 46.4452C544.359 46.0037 544.756 45.6832 545.198 45.7281L549.971 46.2301C550.413 46.2771 550.734 46.6716 550.689 47.1153C550.646 47.5299 550.296 47.8369 549.888 47.8369Z" fill="black"/>
<path d="M544.599 42.4426C544.26 42.4426 543.944 42.2274 543.832 41.8868C543.695 41.4632 543.926 41.0105 544.35 40.8716L548.915 39.3879C549.339 39.2512 549.792 39.4821 549.931 39.9056C550.068 40.3292 549.837 40.7819 549.413 40.9209L544.848 42.4045C544.765 42.4314 544.682 42.4448 544.599 42.4448V42.4426Z" fill="black"/>
<path d="M542.139 38.18C541.919 38.18 541.7 38.0903 541.54 37.9133C541.242 37.5838 541.269 37.0729 541.601 36.777L545.168 33.5678C545.498 33.2697 546.009 33.2966 546.305 33.6283C546.603 33.9577 546.577 34.4687 546.245 34.7645L542.677 37.9738C542.523 38.1127 542.33 38.18 542.139 38.18Z" fill="black"/>
<path d="M538.155 35.2889C538.045 35.2889 537.935 35.2665 537.827 35.2195C537.422 35.0379 537.238 34.5628 537.419 34.1572L539.372 29.7736C539.554 29.3679 540.029 29.1841 540.435 29.3657C540.841 29.5472 541.025 30.0223 540.843 30.428L538.89 34.8116C538.756 35.1119 538.462 35.2889 538.155 35.2889Z" fill="black"/>
<path d="M11.9686 81.4828C10.8812 81.4828 10 80.602 10 79.5151V13.9311C10 12.8442 10.8812 11.9634 11.9686 11.9634H221.107C222.194 11.9634 223.075 12.8442 223.075 13.9311C223.075 15.0181 222.194 15.8988 221.107 15.8988H13.9373V79.5151C13.9373 80.602 13.0561 81.4828 11.9686 81.4828Z" fill="black"/>
<path d="M660.031 81.4828C658.944 81.4828 658.063 80.602 658.063 79.5151V15.9011H450.893C449.806 15.9011 448.925 15.0203 448.925 13.9334C448.925 12.8464 449.806 11.9657 450.893 11.9657H660.031C661.119 11.9657 662 12.8464 662 13.9334V79.5151C662 80.602 661.119 81.4828 660.031 81.4828Z" fill="black"/>
<path d="M221.107 397.498H11.9686C10.8812 397.498 10 396.617 10 395.53V329.946C10 328.859 10.8812 327.978 11.9686 327.978C13.0561 327.978 13.9373 328.859 13.9373 329.946V393.56H221.107C222.194 393.56 223.075 394.441 223.075 395.528C223.075 396.615 222.194 397.496 221.107 397.496V397.498Z" fill="black"/>
<path d="M660.031 397.498H450.893C449.806 397.498 448.925 396.617 448.925 395.53C448.925 394.443 449.806 393.562 450.893 393.562H658.063V329.948C658.063 328.861 658.944 327.981 660.031 327.981C661.119 327.981 662 328.861 662 329.948V395.532C662 396.619 661.119 397.5 660.031 397.5V397.498Z" fill="black"/>
<path d="M68.14 192.106C68.14 190.401 66.7572 189.018 65.0514 189.018C63.3456 189.018 61.9628 190.401 61.9628 192.106V223.529C61.9628 225.235 63.3456 226.617 65.0514 226.617C66.7572 226.617 68.14 225.235 68.14 223.529V192.106Z" fill="#2E97CC"/>
<path d="M157.112 192.106C157.112 190.401 155.73 189.018 154.024 189.018C152.318 189.018 150.935 190.401 150.935 192.106V223.529C150.935 225.235 152.318 226.617 154.024 226.617C155.73 226.617 157.112 225.235 157.112 223.529V192.106Z" fill="#2E97CC"/>
<path d="M246.408 192.106C246.408 190.401 245.025 189.018 243.319 189.018C241.613 189.018 240.23 190.401 240.23 192.106V223.529C240.23 225.235 241.613 226.617 243.319 226.617C245.025 226.617 246.408 225.235 246.408 223.529V192.106Z" fill="#2E97CC"/>
<path d="M335.703 192.106C335.703 190.401 334.32 189.018 332.614 189.018C330.908 189.018 329.526 190.401 329.526 192.106V223.529C329.526 225.235 330.908 226.617 332.614 226.617C334.32 226.617 335.703 225.235 335.703 223.529V192.106Z" fill="#2E97CC"/>
<path d="M424.996 192.106C424.996 190.401 423.613 189.018 421.907 189.018C420.201 189.018 418.819 190.401 418.819 192.106V223.529C418.819 225.235 420.201 226.617 421.907 226.617C423.613 226.617 424.996 225.235 424.996 223.529V192.106Z" fill="#2E97CC"/>
<path d="M514.291 192.106C514.291 190.401 512.908 189.018 511.203 189.018C509.497 189.018 508.114 190.401 508.114 192.106V223.529C508.114 225.235 509.497 226.617 511.203 226.617C512.908 226.617 514.291 225.235 514.291 223.529V192.106Z" fill="#2E97CC"/>
<path d="M603.586 192.106C603.586 190.401 602.204 189.018 600.498 189.018C598.792 189.018 597.409 190.401 597.409 192.106V223.529C597.409 225.235 598.792 226.617 600.498 226.617C602.204 226.617 603.586 225.235 603.586 223.529V192.106Z" fill="#2E97CC"/>
<path d="M541.691 196.788H540.245C538.938 196.788 537.879 197.847 537.879 199.152V216.485C537.879 217.791 538.938 218.85 540.245 218.85H541.691C542.997 218.85 544.056 217.791 544.056 216.485V199.152C544.056 197.847 542.997 196.788 541.691 196.788Z" fill="#2E97CC"/>
<path d="M571.456 196.788H570.01C568.703 196.788 567.644 197.847 567.644 199.152V216.485C567.644 217.791 568.703 218.85 570.01 218.85H571.456C572.762 218.85 573.821 217.791 573.821 216.485V199.152C573.821 197.847 572.762 196.788 571.456 196.788Z" fill="#2E97CC"/>
<path d="M482.161 196.788H480.714C479.408 196.788 478.349 197.847 478.349 199.152V216.485C478.349 217.791 479.408 218.85 480.714 218.85H482.161C483.467 218.85 484.526 217.791 484.526 216.485V199.152C484.526 197.847 483.467 196.788 482.161 196.788Z" fill="#2E97CC"/>
<path d="M452.396 196.788H450.949C449.643 196.788 448.584 197.847 448.584 199.152V216.485C448.584 217.791 449.643 218.85 450.949 218.85H452.396C453.702 218.85 454.761 217.791 454.761 216.485V199.152C454.761 197.847 453.702 196.788 452.396 196.788Z" fill="#2E97CC"/>
<path d="M392.868 196.788H391.421C390.115 196.788 389.056 197.847 389.056 199.152V216.485C389.056 217.791 390.115 218.85 391.421 218.85H392.868C394.174 218.85 395.233 217.791 395.233 216.485V199.152C395.233 197.847 394.174 196.788 392.868 196.788Z" fill="#2E97CC"/>
<path d="M363.102 196.788H361.656C360.35 196.788 359.291 197.847 359.291 199.152V216.485C359.291 217.791 360.35 218.85 361.656 218.85H363.102C364.409 218.85 365.468 217.791 365.468 216.485V199.152C365.468 197.847 364.409 196.788 363.102 196.788Z" fill="#2E97CC"/>
<path d="M303.572 196.788H302.126C300.82 196.788 299.761 197.847 299.761 199.152V216.485C299.761 217.791 300.82 218.85 302.126 218.85H303.572C304.879 218.85 305.938 217.791 305.938 216.485V199.152C305.938 197.847 304.879 196.788 303.572 196.788Z" fill="#2E97CC"/>
<path d="M273.807 196.788H272.361C271.055 196.788 269.996 197.847 269.996 199.152V216.485C269.996 217.791 271.055 218.85 272.361 218.85H273.807C275.114 218.85 276.173 217.791 276.173 216.485V199.152C276.173 197.847 275.114 196.788 273.807 196.788Z" fill="#2E97CC"/>
<path d="M214.277 196.788H212.831C211.524 196.788 210.465 197.847 210.465 199.152V216.485C210.465 217.791 211.524 218.85 212.831 218.85H214.277C215.583 218.85 216.643 217.791 216.643 216.485V199.152C216.643 197.847 215.583 196.788 214.277 196.788Z" fill="#2E97CC"/>
<path d="M184.512 196.788H183.066C181.759 196.788 180.7 197.847 180.7 199.152V216.485C180.7 217.791 181.759 218.85 183.066 218.85H184.512C185.818 218.85 186.877 217.791 186.877 216.485V199.152C186.877 197.847 185.818 196.788 184.512 196.788Z" fill="#2E97CC"/>
<path d="M125.143 196.788H123.697C122.391 196.788 121.332 197.847 121.332 199.152V216.485C121.332 217.791 122.391 218.85 123.697 218.85H125.143C126.45 218.85 127.509 217.791 127.509 216.485V199.152C127.509 197.847 126.45 196.788 125.143 196.788Z" fill="#2E97CC"/>
<path d="M95.3782 196.788H93.9319C92.6255 196.788 91.5664 197.847 91.5664 199.152V216.485C91.5664 217.791 92.6255 218.85 93.9319 218.85H95.3782C96.6846 218.85 97.7437 217.791 97.7437 216.485V199.152C97.7437 197.847 96.6846 196.788 95.3782 196.788Z" fill="#2E97CC"/>
<path d="M332.613 215.264L318.268 240.1V268.779H346.961V240.1L332.613 215.264Z" fill="#2E97CC"/>
<path d="M332.796 154.861C328.763 154.861 326.867 158.412 326.867 162.946C326.891 167.361 328.667 170.983 332.7 170.983C336.66 170.983 338.604 167.649 338.604 162.85C338.604 158.58 336.948 154.861 332.796 154.861ZM332.748 157.62C334.212 157.62 334.956 159.444 334.956 162.898C334.956 166.449 334.188 168.224 332.772 168.224C331.38 168.224 330.515 166.521 330.515 162.946C330.515 159.3 331.428 157.62 332.748 157.62Z" fill="black"/>
<path d="M233.556 163.21V165.633H239.844V163.21H233.556Z" fill="black"/>
<path d="M246.236 170.719H249.764V155.125H246.764L242.611 157.045L243.211 159.779L246.188 158.364H246.236V170.719Z" fill="black"/>
<path d="M144.601 163.21V165.633H150.89V163.21H144.601Z" fill="black"/>
<path d="M163.714 170.719V167.721H157.809V167.673L159.249 166.473C161.53 164.458 163.402 162.371 163.402 159.732C163.402 156.925 161.482 154.861 157.929 154.861C155.841 154.861 153.993 155.581 152.841 156.469L153.873 159.06C154.689 158.46 155.865 157.788 157.209 157.788C159.009 157.788 159.753 158.796 159.753 160.067C159.729 161.891 158.073 163.642 154.641 166.713L152.649 168.512V170.719H163.714Z" fill="black"/>
<path d="M54.7881 163.21V165.633H61.0768V163.21H54.7881Z" fill="black"/>
<path d="M62.7154 169.904C63.6275 170.456 65.3316 170.983 67.3479 170.983C71.3083 170.983 73.7326 168.968 73.7326 166.233C73.7326 164.17 72.2204 162.754 70.3482 162.419V162.371C72.2684 161.723 73.2045 160.403 73.2045 158.748C73.2045 156.613 71.3563 154.861 68.0439 154.861C66.0037 154.861 64.1555 155.437 63.2194 156.037L63.9635 158.676C64.5876 158.292 65.9317 157.74 67.2038 157.74C68.764 157.74 69.5081 158.436 69.5081 159.372C69.5081 160.691 67.9719 161.171 66.7478 161.171H65.3076V163.786H66.7958C68.404 163.786 69.9402 164.482 69.9402 166.041C69.9402 167.193 68.98 168.104 67.0838 168.104C65.5957 168.104 64.1075 167.505 63.4594 167.145L62.7154 169.904Z" fill="black"/>
<path d="M414.217 157.956V163.186H409.2V165.417H414.217V170.719H416.569V165.417H421.585V163.186H416.569V157.956H414.217Z" fill="black"/>
<path d="M428.203 170.719H431.732V155.125H428.731L424.579 157.045L425.179 159.779L428.155 158.364H428.203V170.719Z" fill="black"/>
<path d="M503.241 157.956V163.186H498.224V165.417H503.241V170.719H505.593V165.417H510.609V163.186H505.593V157.956H503.241Z" fill="black"/>
<path d="M523.66 170.719V167.721H517.755V167.673L519.195 166.473C521.475 164.458 523.348 162.371 523.348 159.732C523.348 156.925 521.427 154.861 517.875 154.861C515.787 154.861 513.939 155.581 512.787 156.469L513.819 159.06C514.635 158.46 515.811 157.788 517.155 157.788C518.955 157.788 519.699 158.796 519.699 160.067C519.675 161.891 518.019 163.642 514.587 166.713L512.595 168.512V170.719H523.66Z" fill="black"/>
<path d="M592.439 157.956V163.186H587.423V165.417H592.439V170.719H594.792V165.417H599.808V163.186H594.792V157.956H592.439Z" fill="black"/>
<path d="M601.673 169.904C602.585 170.456 604.29 170.983 606.306 170.983C610.266 170.983 612.691 168.968 612.691 166.233C612.691 164.17 611.178 162.754 609.306 162.419V162.371C611.226 161.723 612.162 160.403 612.162 158.748C612.162 156.613 610.314 154.861 607.002 154.861C604.962 154.861 603.114 155.437 602.177 156.037L602.921 158.676C603.546 158.292 604.89 157.74 606.162 157.74C607.722 157.74 608.466 158.436 608.466 159.372C608.466 160.691 606.93 161.171 605.706 161.171H604.266V163.786H605.754C607.362 163.786 608.898 164.482 608.898 166.041C608.898 167.193 607.938 168.104 606.042 168.104C604.554 168.104 603.065 167.505 602.417 167.145L601.673 169.904Z" fill="black"/>
<path d="M38.0097 258.907C38.7075 259.001 39.7825 259.095 41.2724 259.095C43.7617 259.095 45.8174 258.567 47.1564 257.455C48.3634 256.419 49.2497 254.741 49.2497 252.309C49.2497 250.066 48.4199 248.502 47.0998 247.521C45.8928 246.617 44.3087 246.164 41.8758 246.164C40.4426 246.164 39.0658 246.277 38.0097 246.447V258.907ZM40.8763 248.483C41.1215 248.426 41.5552 248.37 42.1776 248.37C44.667 248.37 46.2134 249.765 46.2134 252.404C46.2134 255.438 44.4973 256.871 41.8758 256.852C41.5364 256.852 41.1215 256.852 40.8763 256.796V248.483Z" fill="black"/>
<path d="M58.7224 253.516C58.7224 251.329 57.7606 249.519 54.6866 249.519C53.0081 249.519 51.7446 249.991 51.1034 250.349L51.6314 252.196C52.2349 251.819 53.2345 251.499 54.1774 251.499C55.5918 251.499 55.8559 252.196 55.8559 252.705V252.818C52.5932 252.818 50.4433 253.949 50.4433 256.343C50.4433 257.813 51.556 259.171 53.423 259.171C54.5169 259.171 55.4598 258.775 56.0633 258.04H56.1199L56.2896 258.963H58.8733C58.7602 258.454 58.7224 257.606 58.7224 256.739V253.516ZM55.9502 255.608C55.9502 255.778 55.9313 255.947 55.8936 256.098C55.705 256.682 55.1015 257.154 54.4037 257.154C53.7625 257.154 53.2722 256.796 53.2722 256.06C53.2722 254.967 54.4414 254.609 55.9502 254.609V255.608Z" fill="black"/>
<path d="M61.0104 258.963H63.877V254.289C63.877 254.062 63.8959 253.836 63.9336 253.648C64.1222 252.762 64.8388 252.196 65.8949 252.196C66.2155 252.196 66.4418 252.234 66.6682 252.272V249.576C66.4607 249.538 66.3287 249.519 66.0647 249.519C65.1594 249.519 64.0467 250.085 63.5753 251.442H63.4998L63.3867 249.746H60.935C60.9916 250.537 61.0104 251.423 61.0104 252.781V258.963Z" fill="black"/>
<path d="M70.986 245.58H68.1194V258.963H70.986V256.079L71.7026 255.174L73.9469 258.963H77.4735L73.7017 253.478L77.002 249.746H73.5508L71.6838 252.517C71.4575 252.856 71.2312 253.233 71.0237 253.629H70.986V245.58Z" fill="black"/>
<path d="M86.2302 255.269C86.2679 255.061 86.3245 254.628 86.3245 254.138C86.3245 251.857 85.1929 249.538 82.2132 249.538C79.0071 249.538 77.555 252.121 77.555 254.458C77.555 257.342 79.3466 259.152 82.4772 259.152C83.7219 259.152 84.8723 258.963 85.8153 258.567L85.4381 256.626C84.6649 256.89 83.8728 257.022 82.8921 257.022C81.5531 257.022 80.365 256.456 80.2896 255.269H86.2302ZM80.2707 253.308C80.3461 252.554 80.8365 251.442 82.0434 251.442C83.3636 251.442 83.6653 252.611 83.6653 253.308H80.2707Z" fill="black"/>
<path d="M88.0467 258.963H90.9133V254.289C90.9133 254.062 90.9321 253.836 90.9698 253.648C91.1584 252.762 91.8751 252.196 92.9312 252.196C93.2518 252.196 93.4781 252.234 93.7044 252.272V249.576C93.4969 249.538 93.3649 249.519 93.1009 249.519C92.1957 249.519 91.083 250.085 90.6115 251.442H90.5361L90.4229 249.746H87.9712C88.0278 250.537 88.0467 251.423 88.0467 252.781V258.963Z" fill="black"/>
<path d="M566.835 258.907C567.476 259.001 568.532 259.095 569.947 259.095C572.474 259.095 574.02 258.681 574.944 257.945C575.736 257.305 576.264 256.4 576.264 255.231C576.264 253.61 575.19 252.498 573.737 252.121V252.083C575.171 251.536 575.831 250.5 575.831 249.388C575.831 248.219 575.208 247.352 574.322 246.88C573.379 246.334 572.304 246.164 570.55 246.164C569.098 246.164 567.589 246.296 566.835 246.428V258.907ZM569.683 248.332C569.909 248.294 570.267 248.257 570.909 248.257C572.21 248.257 572.945 248.765 572.945 249.727C572.945 250.669 572.153 251.291 570.626 251.291H569.683V248.332ZM569.683 253.346H570.663C572.097 253.346 573.247 253.855 573.247 255.118C573.247 256.456 572.097 256.965 570.795 256.965C570.305 256.965 569.966 256.965 569.683 256.928V253.346Z" fill="black"/>
<path d="M578.122 258.963H580.989V254.289C580.989 254.062 581.008 253.836 581.046 253.648C581.234 252.762 581.951 252.196 583.007 252.196C583.327 252.196 583.554 252.234 583.78 252.272V249.576C583.573 249.538 583.441 249.519 583.177 249.519C582.271 249.519 581.159 250.085 580.687 251.442H580.612L580.499 249.746H578.047C578.104 250.537 578.122 251.423 578.122 252.781V258.963Z" fill="black"/>
<path d="M588.153 258.963V249.746H585.287V258.963H588.153ZM586.739 245.749C585.815 245.749 585.211 246.372 585.211 247.182C585.211 247.974 585.796 248.615 586.701 248.615C587.663 248.615 588.247 247.974 588.247 247.182C588.229 246.372 587.663 245.749 586.739 245.749Z" fill="black"/>
<path d="M599.194 252.498C599.194 251.122 599.231 250.349 599.269 249.746H596.78L596.685 250.858H596.648C596.176 250.085 595.384 249.538 594.12 249.538C591.839 249.538 589.934 251.423 589.934 254.402C589.934 257.041 591.556 258.888 593.838 258.888C594.894 258.888 595.78 258.454 596.327 257.7H596.365V258.285C596.365 260 595.327 260.716 593.97 260.716C592.876 260.716 591.876 260.358 591.292 260.019L590.726 262.206C591.556 262.658 592.819 262.903 594.045 262.903C595.403 262.903 596.78 262.639 597.779 261.772C598.835 260.848 599.194 259.397 599.194 257.625V252.498ZM596.327 254.854C596.327 255.099 596.308 255.401 596.233 255.627C596.044 256.287 595.459 256.777 594.705 256.777C593.517 256.777 592.838 255.702 592.838 254.326C592.838 252.649 593.668 251.706 594.724 251.706C595.516 251.706 596.063 252.215 596.27 252.969C596.308 253.139 596.327 253.327 596.327 253.497V254.854Z" fill="black"/>
<path d="M601.494 258.963H604.36V253.497C604.36 253.289 604.379 253.044 604.454 252.875C604.662 252.347 605.133 251.857 605.888 251.857C606.963 251.857 607.378 252.686 607.378 253.893V258.963H610.244V253.591C610.244 250.801 608.849 249.538 607.019 249.538C606.491 249.538 605.963 249.67 605.529 249.896C605.077 250.123 604.7 250.443 604.398 250.858H604.36V245.58H601.494V258.963Z" fill="black"/>
<path d="M612.829 248.03V249.746H611.604V251.857H612.829V255.627C612.829 256.928 613.093 257.813 613.621 258.36C614.093 258.831 614.866 259.152 615.79 259.152C616.582 259.152 617.28 259.039 617.638 258.907L617.62 256.739C617.356 256.796 617.167 256.814 616.771 256.814C615.922 256.814 615.639 256.305 615.639 255.193V251.857H617.695V249.746H615.639V247.257L612.829 248.03Z" fill="black"/>
<path d="M627.413 255.269C627.451 255.061 627.508 254.628 627.508 254.138C627.508 251.857 626.376 249.538 623.396 249.538C620.19 249.538 618.738 252.121 618.738 254.458C618.738 257.342 620.53 259.152 623.66 259.152C624.905 259.152 626.055 258.963 626.998 258.567L626.621 256.626C625.848 256.89 625.056 257.022 624.075 257.022C622.736 257.022 621.548 256.456 621.473 255.269H627.413ZM621.454 253.308C621.529 252.554 622.02 251.442 623.227 251.442C624.547 251.442 624.848 252.611 624.848 253.308H621.454Z" fill="black"/>
<path d="M629.23 258.963H632.096V254.289C632.096 254.062 632.115 253.836 632.153 253.648C632.341 252.762 633.058 252.196 634.114 252.196C634.435 252.196 634.661 252.234 634.887 252.272V249.576C634.68 249.538 634.548 249.519 634.284 249.519C633.379 249.519 632.266 250.085 631.795 251.442H631.719L631.606 249.746H629.154C629.211 250.537 629.23 251.423 629.23 252.781V258.963Z" fill="black"/>
</svg>
