<svg width="88" height="87" viewBox="0 0 88 87" fill="none" xmlns="http://www.w3.org/2000/svg">
<path d="M48.6249 32.9478C51.1387 34.1414 53.0392 35.8908 54.3196 38.307C54.4584 38.5693 54.9441 38.7894 55.271 38.7938C58.4384 38.8294 61.6036 38.7938 64.7711 38.8316C65.3934 38.8383 65.6642 38.6071 65.953 38.0936C68.2385 34.037 71.7305 31.9208 76.4313 31.9297C81.6358 31.9408 86.256 35.6129 87.4961 40.6343C88.7519 45.7201 86.4597 51.006 81.8552 53.4845C81.0717 53.9068 80.7605 54.3469 80.7807 55.2472C80.8456 58.0213 80.8367 60.7976 80.7852 63.5694C80.7695 64.4341 80.9799 64.9165 81.8149 65.3655C86.4955 67.8884 88.7877 73.221 87.4782 78.3046C86.1777 83.3526 81.497 86.9669 76.2433 86.9736C70.9829 86.9803 66.2731 83.3748 64.9793 78.3468C63.6541 73.1987 65.9754 67.8328 70.6762 65.3277C71.3992 64.9431 71.6723 64.5475 71.6566 63.7273C71.6007 60.8065 71.6231 57.8812 71.6455 54.9604C71.6499 54.358 71.547 53.9713 70.9179 53.6667C68.6369 52.562 66.9715 50.8171 65.7694 48.5987C65.5948 48.2764 65.0688 47.9585 64.6994 47.9541C61.6081 47.903 58.5145 47.9074 55.4232 47.9519C55.0807 47.9563 54.5882 48.243 54.4271 48.5409C53.2116 50.7971 51.4991 52.5153 49.2315 53.7379C48.8935 53.9201 48.6003 54.5159 48.5936 54.9271C48.5398 57.8479 48.5936 60.7731 48.5443 63.6939C48.5309 64.4986 48.7726 64.9143 49.5091 65.3099C54.1875 67.8284 56.5312 73.2054 55.215 78.2268C53.8674 83.3659 49.3121 86.9358 44.0517 86.9758C38.7151 87.0158 34.0927 83.4993 32.6981 78.3335C31.3438 73.3232 33.5711 67.9884 38.1802 65.4366C39.0576 64.952 39.3665 64.4564 39.3442 63.4739C39.2725 60.6264 39.3016 57.7768 39.333 54.9293C39.3397 54.298 39.1584 53.9513 38.5652 53.649C36.3468 52.5198 34.6635 50.8237 33.5666 48.5965C33.298 48.0519 32.9869 47.8585 32.3735 47.8652C29.318 47.8985 26.2625 47.8963 23.2092 47.8652C22.5981 47.8585 22.2914 48.0519 22.0273 48.6009C20.9819 50.766 19.3657 52.4286 17.2302 53.5467C16.6034 53.8757 16.4378 54.2602 16.4445 54.9271C16.4803 57.9612 16.4758 60.9954 16.449 64.0273C16.4423 64.6475 16.6124 64.9943 17.1944 65.3144C22.1146 68.0173 24.4045 73.5233 22.8286 78.7358C21.2416 83.9817 16.3236 87.3337 10.7386 86.9736C5.66621 86.6446 1.36161 82.8191 0.280421 77.6755C-0.762711 72.723 1.73543 67.5416 6.35342 65.2232C7.0563 64.8698 7.30701 64.5008 7.29358 63.7273C7.24658 60.8042 7.25777 57.8812 7.28911 54.9604C7.29582 54.3603 7.11451 54.0602 6.56384 53.7801C1.8093 51.3706 -0.61721 46.7249 0.13492 41.5857C0.837803 36.7866 4.65889 32.9944 9.74696 32.0431C14.4164 31.1695 19.4418 33.5857 21.7698 37.9002C22.1638 38.6293 22.5779 38.8649 23.3927 38.8516C26.4102 38.7982 29.4277 38.816 32.4452 38.8427C33.0361 38.8472 33.3674 38.6938 33.6517 38.1425C34.7732 35.973 36.4588 34.3281 38.6726 33.2656C39.2748 32.9767 39.4561 32.6321 39.4494 31.9942C39.418 29.0356 39.4068 26.0748 39.4561 23.1162C39.4673 22.376 39.2166 22.027 38.5652 21.6847C34.2203 19.3974 31.9437 14.9051 32.5257 9.9126C33.0316 5.5692 36.47 1.65924 40.8574 0.434465C46.5252 -1.14819 52.4751 1.71037 54.736 7.10073C57.0147 12.54 54.8456 18.7683 49.6098 21.6069C48.8353 22.027 48.5869 22.456 48.6003 23.3029C48.6518 26.5171 48.6204 29.7358 48.6204 32.9478H48.6249Z" fill="#01B6FE"/>
</svg>
