<svg width="34" height="31" viewBox="0 0 34 31" fill="none" xmlns="http://www.w3.org/2000/svg">
<path d="M12.1279 0.500061C9.28401 0.485114 6.51536 3.20559 7.77931 6.58376H3.0094C2.21126 6.58376 1.44581 6.89872 0.881434 7.45937C0.317061 8.02001 0 8.78041 0 9.57329V12.5628C0 12.9593 0.158531 13.3395 0.440717 13.6198C0.722903 13.9001 1.10563 14.0576 1.5047 14.0576H15.047V9.57329H18.0564V14.0576H31.5987C31.9978 14.0576 32.3805 13.9001 32.6627 13.6198C32.9449 13.3395 33.1034 12.9593 33.1034 12.5628V9.57329C33.1034 8.78041 32.7864 8.02001 32.222 7.45937C31.6576 6.89872 30.8922 6.58376 30.094 6.58376H25.3241C27.0846 1.69587 20.4639 -1.75703 17.4094 2.4582L16.5517 3.59423L15.694 2.42831C14.7461 1.09797 13.437 0.515009 12.1279 0.500061ZM12.0376 3.59423C13.3768 3.59423 14.0539 5.20857 13.106 6.15027C12.158 7.09198 10.5329 6.41933 10.5329 5.08899C10.5329 4.69255 10.6914 4.31236 10.9736 4.03203C11.2558 3.75171 11.6385 3.59423 12.0376 3.59423ZM21.0658 3.59423C22.405 3.59423 23.0821 5.20857 22.1342 6.15027C21.1862 7.09198 19.5611 6.41933 19.5611 5.08899C19.5611 4.69255 19.7197 4.31236 20.0018 4.03203C20.284 3.75171 20.6668 3.59423 21.0658 3.59423ZM1.5047 15.5523V27.5105C1.5047 28.3033 1.82176 29.0637 2.38614 29.6244C2.95051 30.185 3.71596 30.5 4.51411 30.5H28.5893C29.3875 30.5 30.1529 30.185 30.7173 29.6244C31.2817 29.0637 31.5987 28.3033 31.5987 27.5105V15.5523H18.0564V27.5105H15.047V15.5523H1.5047Z" fill="#36B3FF"/>
</svg>
