<svg width="19" height="38" viewBox="0 0 19 38" fill="none" xmlns="http://www.w3.org/2000/svg">
<path d="M8.07889e-05 0V4.59778H19V0H0H8.07889e-05ZM2.32889 6.10457V27.5822H3.82822V6.10425H2.32889V6.10457ZM15.1719 6.10457V27.5822H16.671V6.10425H15.1719V6.10457ZM10.6193 7.53558V9.04206H13.4923V7.53542H10.6193V7.53558ZM6.80642 10.9921V12.4987H13.6252V10.992H6.80642V10.9921ZM10.6193 14.2723V15.7789H13.4923V14.2723H10.6193ZM10.6193 17.6709V19.1777H13.4923V17.6709H10.6193ZM6.80642 21.1276V22.6342H13.6252V21.1276H6.80642ZM10.6193 24.4079V25.9144H13.4923V24.408H10.6193V24.4079ZM8.07889e-05 29.0915V33.6868H19V29.0915H0H8.07889e-05ZM3.66265 35.1959V37.9998L15.3374 38V35.1959H3.66281H3.66265Z" fill="#36B3FF"/>
</svg>
