<svg width="36" height="41" viewBox="0 0 36 41" fill="none" xmlns="http://www.w3.org/2000/svg">
<path d="M31.0966 16.3927C31.0966 16.5405 31.0966 16.6601 31.0966 16.7822C31.0966 19.464 31.092 22.1483 31.1013 24.8302C31.1013 25.3699 31.0242 25.8767 30.7183 26.3342C30.6786 26.3929 30.6763 26.4844 30.6763 26.5618C30.6763 28.8894 30.6763 31.2146 30.6763 33.5422C30.6763 35.5179 30.6763 37.4959 30.6763 39.4715C30.6763 40.1215 30.4054 40.6283 29.7959 40.8676C28.8922 41.2242 27.818 40.8629 27.6265 39.7531C27.6125 39.6756 27.6125 39.5935 27.6125 39.5161C27.6125 36.3227 27.6125 33.1316 27.6125 29.9382C27.6125 29.1287 27.6125 28.3192 27.6125 27.5097C27.6125 27.4487 27.6125 27.3901 27.6125 27.3197H25.0647C25.0647 27.613 25.0647 27.9039 25.0647 28.1972C25.0647 29.3892 25.0694 30.5788 25.0694 31.7707C25.0694 34.2063 25.0694 36.6418 25.0647 39.0773C25.0647 39.3753 25.0671 39.685 24.9947 39.9713C24.8382 40.572 24.3221 40.9497 23.6846 40.9896C22.8743 41.0412 22.2718 40.6611 22.0686 39.9619C22.0336 39.8446 22.0079 39.7226 22.0056 39.6029C22.0033 37.1955 22.0033 34.7905 22.0056 32.3831C22.0056 32.3526 22.0079 32.3221 22.0126 32.2729H22.8533C22.7715 31.9045 22.6992 31.5619 22.6221 31.2193C22.4213 30.3371 22.2204 29.4549 22.0196 28.5726C22.0056 28.5069 22.0056 28.4389 22.0056 28.3709C22.0056 27.7561 22.0056 27.1437 22.0009 26.529C22.0009 26.4492 21.9729 26.36 21.9309 26.2943C21.6997 25.9189 21.5759 25.513 21.5736 25.0766C21.5689 23.9785 21.5806 22.878 21.5642 21.7799C21.5596 21.5406 21.625 21.4256 21.8445 21.3341C22.3465 21.1229 22.7272 20.7663 22.9467 20.2595C23.1826 19.7151 23.1849 19.1614 22.9397 18.6194C22.2952 17.2115 21.6413 15.8084 20.9991 14.4006C20.9571 14.3091 20.9454 14.1847 20.9688 14.0885C21.1859 13.1664 21.4195 12.249 21.639 11.3269C21.8725 10.3531 22.7482 9.63043 23.7453 9.62809C25.4734 9.62105 27.2015 9.62105 28.9319 9.62809C29.8846 9.63278 30.7043 10.271 31.0079 11.1767C31.141 11.5756 31.3325 11.9557 31.5076 12.3381C32.9671 15.4987 34.429 18.6569 35.8909 21.8151C36.1431 22.3595 35.9469 22.9109 35.4191 23.1572C34.8283 23.4318 34.2936 23.244 34.032 22.6786C33.0699 20.595 32.1078 18.5138 31.1457 16.4302C31.1457 16.4255 31.1363 16.4232 31.106 16.395L31.0966 16.3927Z" fill="#36B3FF"/>
<path d="M19.8525 18.9924C19.6914 18.6428 19.5373 18.312 19.3901 17.9929C19.0515 18.1524 18.7153 18.3096 18.379 18.4668C17.6014 18.8305 16.8167 19.1848 16.0461 19.5626C15.4226 19.8676 15.0536 20.3932 14.9626 21.076C14.8084 22.2421 15.4856 23.1807 16.6299 23.4177C17.0316 23.5021 17.4332 23.4505 17.8115 23.2769C18.3603 23.0235 18.9067 22.7677 19.4555 22.5143C19.4882 22.5002 19.5209 22.4885 19.5676 22.4697C20.2262 25.3816 20.8823 28.284 21.5432 31.2006H8.25111C8.37721 30.6374 8.50098 30.079 8.62708 29.5206C9.04976 27.6482 9.47477 25.7758 9.89978 23.9034C10.0656 23.1713 10.2361 22.4369 10.3972 21.7048C10.4252 21.5758 10.4369 21.4373 10.4369 21.3036C10.4392 20.1985 10.4369 19.0957 10.4112 17.9765C10.3248 18.1642 10.2361 18.3519 10.1497 18.5396C9.3043 20.3674 8.46128 22.1929 7.61593 24.0207C7.41744 24.4524 7.02278 24.6753 6.58142 24.612C6.16342 24.5533 5.82948 24.2154 5.78044 23.7532C5.76176 23.5913 5.79445 23.4036 5.86217 23.2558C6.89201 21.008 7.93119 18.7672 8.96803 16.5241C9.53315 15.3016 10.0913 14.0768 10.6657 12.8614C10.9903 12.1762 11.5485 11.7609 12.2887 11.6577C12.7931 11.5873 13.3115 11.6155 13.823 11.6131C14.8925 11.6084 15.962 11.6178 17.0316 11.6084C17.7975 11.6014 18.4234 11.8947 18.9044 12.4813C19.0492 12.6572 19.1426 12.8778 19.2384 13.089C20.1444 15.0435 21.0388 17.0027 21.9542 18.9502C22.2111 19.4992 22.0266 20.0952 21.4335 20.3721C20.0907 20.9986 18.748 21.6274 17.4029 22.2515C16.9078 22.4815 16.3427 22.275 16.1185 21.7893C15.892 21.3013 16.0975 20.7428 16.5972 20.5082C17.6737 20.0014 18.7526 19.5016 19.8549 18.9877L19.8525 18.9924Z" fill="#36B3FF"/>
<path d="M24.6981 1.17648C26.6177 1.14832 28.229 2.75323 28.257 4.72183C28.285 6.65759 26.6924 8.31412 24.7822 8.33758C22.7786 8.36339 21.1462 6.79367 21.1229 4.81569C21.0972 2.79078 22.7318 1.1577 24.6981 1.17648Z" fill="#36B3FF"/>
<path d="M16.0881 10.4165C14.2316 10.4118 12.7488 8.91948 12.7558 7.06116C12.7628 5.19815 14.248 3.70586 16.0975 3.71055C17.9446 3.71524 19.4322 5.22865 19.4275 7.09636C19.4228 8.92183 17.9143 10.4212 16.0881 10.4165Z" fill="#36B3FF"/>
<path d="M5.7711 6.41826C4.62451 5.26619 3.48725 4.1329 2.36401 2.99022C1.89696 2.5139 1.78487 1.69972 2.06977 1.0662C2.36868 0.397483 3.02254 -0.0154779 3.74646 0.00329301C4.21818 0.0150248 4.62684 0.181617 4.96078 0.519494C5.22232 0.784633 5.4792 1.05212 5.76176 1.34307C6.04432 1.05212 6.29886 0.775247 6.57208 0.512454C7.35672 -0.245422 8.58972 -0.149221 9.25059 0.711895C9.78302 1.40642 9.74099 2.40832 9.11281 3.05357C8.01058 4.18452 6.88734 5.29435 5.76877 6.4206L5.7711 6.41826Z" fill="#36B3FF"/>
<path d="M18.9558 32.1063V32.301C18.9558 34.7013 18.9558 37.1017 18.9558 39.4997C18.9558 40.4288 18.2389 41.0858 17.3188 40.9708C16.6719 40.8887 16.1045 40.335 16.0998 39.6569C16.0858 37.158 16.0928 34.6615 16.0928 32.1626C16.0928 32.1508 16.0975 32.1391 16.1021 32.1063H18.9558Z" fill="#36B3FF"/>
<path d="M10.8432 32.1039H13.6969C13.7015 32.1579 13.7085 32.2119 13.7085 32.2635C13.7085 34.6873 13.7085 37.1087 13.7085 39.5325C13.7085 40.2435 13.2205 40.8301 12.5292 40.9685C11.8847 41.0975 11.2122 40.7385 10.9553 40.105C10.8829 39.929 10.8455 39.7249 10.8455 39.5349C10.8385 37.0993 10.8385 34.6638 10.8385 32.2283C10.8385 32.1931 10.8432 32.1555 10.8479 32.1039H10.8432Z" fill="#36B3FF"/>
<path d="M1.62607 9.67501C1.13801 9.18697 0.652285 8.72473 0.18991 8.23669C-0.0926522 7.9387 -0.0482829 7.46004 0.245956 7.1949C0.544865 6.92507 0.997899 6.93446 1.28747 7.22071C1.39255 7.32395 1.4883 7.43423 1.63308 7.5844C1.73583 7.46239 1.81756 7.34976 1.91331 7.25122C2.2309 6.92742 2.71195 6.91569 3.00619 7.21602C3.31211 7.52809 3.30043 7.98797 2.97817 8.31412C2.52981 8.76462 2.08378 9.21747 1.62607 9.67736V9.67501Z" fill="#36B3FF"/>
<path d="M6.65148 12.141C6.15641 11.653 5.66368 11.1884 5.19664 10.698C4.92808 10.4165 4.97245 9.97535 5.24801 9.69848C5.52357 9.42395 5.94858 9.39579 6.24515 9.6492C6.37826 9.76417 6.48101 9.91199 6.6328 10.0833C6.75657 9.9378 6.84063 9.82518 6.94105 9.72663C7.26331 9.40518 7.72101 9.3911 8.02226 9.68674C8.33518 9.99646 8.33051 10.4517 8.00358 10.7848C7.55521 11.2377 7.10452 11.6882 6.65615 12.1387L6.65148 12.141Z" fill="#36B3FF"/>
</svg>
