<svg width="30" height="30" viewBox="0 0 30 30" fill="none" xmlns="http://www.w3.org/2000/svg">
<path d="M3 30C2.175 30 1.469 29.7065 0.882 29.1195C0.294 28.5315 0 27.825 0 27V21H3V27H9V30H3ZM0 9V3C0 2.175 0.294 1.4685 0.882 0.8805C1.469 0.2935 2.175 0 3 0H9V3H3V9H0ZM21 30V27H27V21H30V27C30 27.825 29.7065 28.5315 29.1195 29.1195C28.5315 29.7065 27.825 30 27 30H21ZM27 9V3H21V0H27C27.825 0 28.5315 0.2935 29.1195 0.8805C29.7065 1.4685 30 2.175 30 3V9H27ZM15 15C13.725 15 12.6565 14.5685 11.7945 13.7055C10.9315 12.8435 10.5 11.775 10.5 10.5C10.5 9.25 10.9315 8.1875 11.7945 7.3125C12.6565 6.4375 13.725 6 15 6C16.25 6 17.3125 6.4375 18.1875 7.3125C19.0625 8.1875 19.5 9.25 19.5 10.5C19.5 11.775 19.0625 12.8435 18.1875 13.7055C17.3125 14.5685 16.25 15 15 15ZM6 24V21.15C6 20.625 6.1315 20.1315 6.3945 19.6695C6.6565 19.2065 7.0125 18.8375 7.4625 18.5625C8.6125 17.8875 9.8185 17.375 11.0805 17.025C12.3435 16.675 13.65 16.5 15 16.5C16.35 16.5 17.6565 16.675 18.9195 17.025C20.1815 17.375 21.3875 17.8875 22.5375 18.5625C22.9875 18.8375 23.344 19.2065 23.607 19.6695C23.869 20.1315 24 20.625 24 21.15V24H6Z" fill="#36B3FF"/>
</svg>
