<svg width="22" height="32" viewBox="0 0 22 32" fill="none" xmlns="http://www.w3.org/2000/svg">
<path d="M11 31C8.34784 31 5.8043 29.9464 3.92893 28.0711C2.05357 26.1957 1 23.6522 1 21C3.65217 21 6.1957 22.0536 8.07107 23.9289C9.94643 25.8043 11 28.3478 11 31ZM11 31C13.6522 31 16.1957 29.9464 18.0711 28.0711C19.9464 26.1957 21 23.6522 21 21C18.3478 21 15.8043 22.0536 13.9289 23.9289C12.0536 25.8043 11 28.3478 11 31ZM11 31V14.3333M11 14.3333C8.78986 14.3333 6.67025 13.4554 5.10744 11.8926C3.54464 10.3298 2.66667 8.21014 2.66667 6V1L7.66667 4.33333L11 1L14.3333 4.33333L19.3333 1V6C19.3333 8.21014 18.4554 10.3298 16.8926 11.8926C15.3298 13.4554 13.2101 14.3333 11 14.3333Z" stroke="#36B3FF" stroke-width="2" stroke-linecap="round" stroke-linejoin="round"/>
</svg>
