<svg width="30" height="26" viewBox="0 0 30 26" fill="none" xmlns="http://www.w3.org/2000/svg">
<path d="M18.1037 4.71016C19.4908 5.57987 20.4635 7.05161 20.6406 8.75996C21.2063 9.02428 21.8341 9.17628 22.4998 9.17628C24.93 9.17628 26.8997 7.2066 26.8997 4.7768C26.8997 2.34663 24.93 0.376953 22.4998 0.376953C20.0928 0.377702 18.1404 2.31218 18.1037 4.71016ZM15.2213 13.7188C17.6514 13.7188 19.6211 11.7487 19.6211 9.31892C19.6211 6.88912 17.6511 4.91945 15.2213 4.91945C12.7915 4.91945 10.8207 6.8895 10.8207 9.3193C10.8207 11.7491 12.7915 13.7188 15.2213 13.7188ZM17.0876 14.0187H13.3542C10.2478 14.0187 7.7207 16.5462 7.7207 19.6525V24.2182L7.73231 24.2897L8.0468 24.3882C11.0112 25.3144 13.5867 25.6233 15.7065 25.6233C19.8469 25.6233 22.2467 24.4428 22.3946 24.3676L22.6885 24.219H22.72V19.6525C22.7211 16.5462 20.1939 14.0187 17.0876 14.0187ZM24.3669 9.47654H20.6623C20.6222 10.9588 19.9895 12.2935 18.9888 13.2534C21.7499 14.0744 23.7701 16.6349 23.7701 19.6592V21.0662C27.4279 20.9322 29.5358 19.8955 29.6747 19.8258L29.9685 19.6768H30V15.1096C30 12.0037 27.4729 9.47654 24.3669 9.47654ZM7.50094 9.17703C8.36166 9.17703 9.16249 8.92581 9.84088 8.49788C10.0565 7.09129 10.8106 5.86216 11.8877 5.02503C11.8922 4.94266 11.9 4.86104 11.9 4.77793C11.9 2.34775 9.92999 0.378076 7.50094 0.378076C5.07039 0.378076 3.10109 2.34775 3.10109 4.77793C3.10109 7.20698 5.07039 9.17703 7.50094 9.17703ZM11.4523 13.2534C10.4564 12.2983 9.82591 10.9707 9.77986 9.49751C9.64246 9.4874 9.50655 9.47654 9.36653 9.47654H5.63347C2.52714 9.47654 0 12.0037 0 15.1096V19.6761L0.0116061 19.7465L0.326095 19.8457C2.70423 20.5881 4.82666 20.9303 6.67016 21.0381V19.6592C6.67091 16.6349 8.69038 14.0752 11.4523 13.2534Z" fill="#36B3FF"/>
</svg>
