<svg width="39" height="40" viewBox="0 0 39 40" fill="none" xmlns="http://www.w3.org/2000/svg">
<path d="M36.3134 15.8674C35.5309 15.3302 34.5806 14.8352 33.4944 14.3956L33.8106 14.2887C34.4084 14.0866 34.7292 13.4382 34.527 12.8404C34.325 12.2424 33.676 11.922 33.0787 12.1239L29.4707 13.3437C29.13 13.459 28.8634 13.7278 28.7512 14.0694C28.6389 14.411 28.6941 14.7857 28.9001 15.0804L31.0814 18.2025C31.3036 18.5206 31.6584 18.6908 32.019 18.6908C32.245 18.6908 32.4732 18.624 32.6724 18.4847C33.1897 18.1234 33.3161 17.411 32.9546 16.8937L32.708 16.5407C33.6064 16.9085 34.3852 17.3152 35.0201 17.7511C36.113 18.5014 36.7148 19.3041 36.7148 20.0114C36.7148 21.2194 34.943 22.6128 32.0909 23.6478C30.6127 24.1842 28.9147 24.6141 27.0679 24.927C27.2238 23.3384 27.3042 21.6851 27.3042 19.9998C27.3042 14.9668 26.587 10.2184 25.2845 6.6294C24.6255 4.81339 23.8435 3.37061 22.9601 2.341C22.2395 1.50128 21.0542 0.5 19.5 0.5C17.9458 0.5 16.7605 1.50128 16.0398 2.34123C15.1565 3.37084 14.3745 4.81361 13.7155 6.62963C13.0678 8.41441 12.5649 10.4859 12.2228 12.7366C9.97745 13.0785 7.91068 13.5808 6.12955 14.2271C4.31354 14.886 2.87077 15.6681 1.84115 16.5515C1.00128 17.2721 0 18.4574 0 20.0116C0 21.5658 1.00128 22.7511 1.84123 23.4718C2.87084 24.3551 4.31361 25.1371 6.12963 25.7961C9.71862 27.0986 14.467 27.8158 19.5 27.8158C21.1804 27.8158 22.829 27.7359 24.4134 27.5809C24.1008 29.4227 23.6716 31.1163 23.1365 32.591C22.1014 35.443 20.708 37.2148 19.5 37.2148C18.8055 37.2148 18.0078 36.5873 17.2541 35.4477C16.8311 34.8082 16.4345 34.0301 16.0733 33.1365L16.3165 33.3158C16.8243 33.6901 17.5398 33.5821 17.9143 33.0741C18.2886 32.5662 18.1804 31.8508 17.6725 31.4764L14.6069 29.2165C14.3173 29.0031 13.9442 28.9385 13.6 29.042C13.2556 29.1455 12.9799 29.4052 12.8561 29.7428L11.545 33.3186C11.3277 33.911 11.632 34.5675 12.2244 34.7847C12.3542 34.8323 12.4869 34.8548 12.6176 34.8548C13.0833 34.8548 13.5207 34.5679 13.6904 34.1053L13.8371 33.7055C15.2726 37.4285 17.2631 39.5 19.5 39.5C21.0542 39.5 22.2395 38.4987 22.9602 37.6588C23.8435 36.6292 24.6255 35.1864 25.2846 33.3704C25.93 31.5919 26.4316 29.5286 26.7736 27.2872C29.0203 26.9452 31.0883 26.4428 32.8704 25.7961C34.6865 25.1371 36.1292 24.3551 37.1589 23.4717C37.9987 22.7511 39 21.5659 39 20.0116C39 18.9624 38.5339 17.3917 36.3134 15.8674ZM19.5 25.5306C14.7261 25.5306 10.2546 24.8621 6.90909 23.6479C4.05699 22.6131 2.28516 21.2197 2.28516 20.0116C2.28516 18.8035 4.05699 17.4102 6.90909 16.3752C8.38668 15.839 10.0839 15.4092 11.9299 15.0964C11.7756 16.6778 11.6959 18.3231 11.6959 20C11.6959 20.875 11.7179 21.7543 11.7614 22.6137C11.7932 23.2439 12.3292 23.7317 12.9602 23.6971C13.5904 23.6652 14.0755 23.1285 14.0436 22.4983C14.0021 21.6773 13.981 20.8367 13.981 20.0001C13.981 18.1999 14.0761 16.4427 14.2597 14.7727C15.9336 14.5882 17.6952 14.4926 19.5 14.4926C20.0922 14.4926 20.6889 14.5032 21.2736 14.524C21.9044 14.5462 22.4336 14.0536 22.4561 13.4229C22.4785 12.7923 21.9856 12.2628 21.3549 12.2404C20.7433 12.2186 20.1191 12.2075 19.4999 12.2075C17.8182 12.2075 16.1682 12.2876 14.5826 12.4428C14.8956 10.5919 15.3261 8.89018 15.8636 7.40917C16.8987 4.55699 18.292 2.78516 19.5 2.78516C20.708 2.78516 22.1014 4.55699 23.1364 7.40909C24.3505 10.7546 25.019 15.2261 25.019 20C25.019 21.8086 24.9231 23.5738 24.7378 25.2508C23.0647 25.4352 21.3039 25.5306 19.5 25.5306Z" fill="#36B3FF"/>
</svg>
