<svg width="38" height="39" viewBox="0 0 38 39" fill="none" xmlns="http://www.w3.org/2000/svg">
<path d="M24.5312 32.9626C24.5312 36.0382 22.0511 38.5122 18.9754 38.5C15.9183 38.4877 13.4627 36.026 13.4627 32.9626C13.4627 29.887 15.9367 27.4192 19.0184 27.4315C22.0756 27.4437 24.5312 29.9055 24.5312 32.9688V32.9626ZM15.0465 32.9442C15.0404 35.142 16.7961 36.9038 18.9939 36.91C21.1732 36.91 22.9289 35.1727 22.9473 32.9933C22.9658 30.7956 21.2223 29.0215 19.0246 29.0092C16.8268 28.9969 15.0588 30.7465 15.0527 32.9442H15.0465Z" fill="#36B3FF"/>
<path d="M32.4811 13.9627C35.5383 13.9627 37.9939 16.4305 38 19.4938C38 22.5694 35.526 25.0373 32.4504 25.0311C29.3748 25.025 26.9192 22.5387 26.9315 19.457C26.9499 16.3998 29.4178 13.9565 32.4811 13.9627ZM36.4162 19.4754C36.4039 17.2777 34.6359 15.5281 32.4381 15.5465C30.2404 15.5649 28.4969 17.3391 28.5215 19.5368C28.5399 21.7161 30.3018 23.4534 32.4811 23.4473C34.6788 23.4473 36.4346 21.6732 36.4223 19.4754H36.4162Z" fill="#36B3FF"/>
<path d="M18.9939 0.5C22.0695 0.5 24.5373 2.97399 24.5312 6.04959C24.525 9.10677 22.0572 11.5685 19 11.5685C15.9244 11.5685 13.4504 9.0945 13.4627 6.01889C13.4688 2.95557 15.9367 0.5 18.9939 0.5ZM19.0184 2.08384C16.8207 2.07157 15.0588 3.8273 15.0527 6.02503C15.0527 8.20435 16.7838 9.96008 18.9632 9.98464C21.1609 10.0092 22.9351 8.2596 22.9535 6.06187C22.9658 3.86413 21.2223 2.09612 19.0246 2.08384H19.0184Z" fill="#36B3FF"/>
<path d="M5.53119 13.9627C8.61293 13.9627 11.0808 16.4305 11.0746 19.5123C11.0685 22.5694 8.60679 25.0311 5.54347 25.0311C2.46172 25.0373 -0.0061275 22.5633 1.14284e-05 19.4816C0.00615036 16.4182 2.46786 13.9627 5.53119 13.9627ZM9.48466 19.5061C9.48466 17.3084 7.73507 15.5465 5.53733 15.5465C3.35801 15.5465 1.60841 17.2838 1.58386 19.4631C1.56544 21.6609 3.31503 23.435 5.51277 23.4473C7.71051 23.4596 9.47852 21.7038 9.48466 19.5061Z" fill="#36B3FF"/>
<path d="M25.7344 7.84829C25.9984 7.39401 26.2439 6.96429 26.5263 6.48545C28.8407 7.83602 30.6394 9.65314 32.0207 11.9737C31.5541 12.2438 31.1183 12.4955 30.6517 12.7656C29.43 10.6968 27.8032 9.06994 25.7344 7.84829Z" fill="#36B3FF"/>
<path d="M30.6517 26.2282C31.1305 26.5045 31.5541 26.7562 32.0145 27.0263C30.6517 29.3407 28.8469 31.1455 26.5263 32.5206C26.2624 32.0602 26.0045 31.6244 25.7344 31.1517C27.791 29.9361 29.4239 28.3093 30.6517 26.2282Z" fill="#36B3FF"/>
<path d="M7.34831 12.7656C6.86948 12.4893 6.44589 12.2376 5.98547 11.9675C7.34217 9.65314 9.14702 7.85443 11.4737 6.47931C11.7376 6.93359 11.9955 7.3756 12.2656 7.84216C10.2091 9.0638 8.5761 10.6845 7.34831 12.7594V12.7656Z" fill="#36B3FF"/>
<path d="M12.2656 31.1455C12.0016 31.6059 11.7499 32.0357 11.5044 32.4592C9.96964 31.9436 6.8265 28.825 6.01616 27.0079C6.43975 26.7623 6.86948 26.5106 7.34217 26.2282C8.56382 28.2848 10.1906 29.9177 12.2595 31.1455H12.2656Z" fill="#36B3FF"/>
<path d="M15.0465 32.9442C15.0527 30.7465 16.8268 28.9969 19.0184 29.0092C21.2162 29.0214 22.9596 30.7956 22.9412 32.9933C22.9228 35.1727 21.167 36.91 18.9877 36.91C16.79 36.91 15.0343 35.142 15.0404 32.9442L15.0465 32.9442Z" fill="#36B3FF"/>
<path d="M36.41 19.4754C36.4223 21.6732 34.6666 23.4412 32.4688 23.4473C30.2895 23.4473 28.5338 21.7161 28.5092 19.5368C28.4908 17.3391 30.2343 15.5649 32.4258 15.5465C34.6236 15.5281 36.3916 17.2777 36.4039 19.4754H36.41Z" fill="#36B3FF"/>
<path d="M19.0184 2.08384C21.2162 2.09612 22.9658 3.86413 22.9473 6.06187C22.9351 8.2596 21.1548 10.0031 18.957 9.98464C16.7777 9.96008 15.0404 8.20435 15.0465 6.02503C15.0465 3.8273 16.8145 2.07157 19.0123 2.08384L19.0184 2.08384Z" fill="#36B3FF"/>
<path d="M9.48466 19.5123C9.48466 21.71 7.71051 23.4596 5.51277 23.4534C3.31503 23.4412 1.56544 21.667 1.58386 19.4693C1.60227 17.29 3.35187 15.5526 5.53733 15.5526C7.73507 15.5526 9.4908 17.3145 9.48466 19.5123Z" fill="#36B3FF"/>
</svg>
