<?xml version="1.0" encoding="UTF-8"?>
<svg version="1.1" xmlns="http://www.w3.org/2000/svg" width="317" height="139">
<path d="M0 0 C104.61 0 209.22 0 317 0 C317 45.87 317 91.74 317 139 C212.39 139 107.78 139 0 139 C0 93.13 0 47.26 0 0 Z " fill="#FDFEFE" transform="translate(0,0)"/>
<path d="M0 0 C0.99 0 1.98 0 3 0 C3 0.66 3 1.32 3 2 C3.99 1.67 4.98 1.34 6 1 C7.9375 0.83203125 7.9375 0.83203125 10 0.8125 C10.680625 0.79832031 11.36125 0.78414062 12.0625 0.76953125 C14 1 14 1 17 3 C17.474375 2.484375 17.94875 1.96875 18.4375 1.4375 C22.30997616 -0.73486467 25.75229924 0.24666846 30 1 C30 2.65 30 4.3 30 6 C27.36 5.67 24.72 5.34 22 5 C22 5.99 22 6.98 22 8 C23.423125 8.433125 23.423125 8.433125 24.875 8.875 C28 10 28 10 30 12 C30.2475 10.9275 30.495 9.855 30.75 8.75 C32.60869565 3.17391304 32.60869565 3.17391304 36 1 C39.13042639 0.3786045 41.87154733 0.3598362 45 1 C48.0625 3.125 48.0625 3.125 50 6 C50 7.98 50 9.96 50 12 C45.38 12 40.76 12 36 12 C36.66 13.65 37.32 15.3 38 17 C40.97 17 43.94 17 47 17 C47.495 18.98 47.495 18.98 48 21 C43.9680536 22.34398213 40.2159948 22.58597762 36 22 C33.4375 20 33.4375 20 32 18 C31.51015625 18.65484375 31.0203125 19.3096875 30.515625 19.984375 C27.04606111 22.76433613 23.97948943 22.44279238 19.75 22.25 C17.1925 22.1675 14.635 22.085 12 22 C11.67 16.72 11.34 11.44 11 6 C9.02 6 7.04 6 5 6 C5 11.28 5 16.56 5 22 C3.35 22 1.7 22 0 22 C0 14.74 0 7.48 0 0 Z " fill="#48A477" transform="translate(215,58)"/>
<path d="M0 0 C6.57692308 0.57692308 6.57692308 0.57692308 8 2 C8.2226746 3.43534841 8.42761906 4.87345525 8.625 6.3125 C10.18917075 14.53624619 14.3056724 21.99380719 21 27 C21.375 30.0625 21.375 30.0625 21 33 C19 35 19 35 15.875 35.125 C14.92625 35.08375 13.9775 35.0425 13 35 C12.77957031 33.89205078 12.77957031 33.89205078 12.5546875 32.76171875 C11.02894229 25.86079069 8.8245842 20.25295158 5.20703125 14.1796875 C4 12 4 12 4 10 C-2.78262231 16.13279023 -5.43856939 24.15746789 -6 33 C-8 35 -8 35 -11 35.25 C-14 35 -14 35 -16 33 C-16.5 30.1875 -16.5 30.1875 -16 27 C-14.60696886 25.83914072 -13.20223923 24.68816149 -11.73046875 23.62890625 C-8.68508495 20.76225829 -7.07890624 17.0184301 -5.19921875 13.328125 C-4 11 -4 11 -3 10 C-2.7746669 7.9720021 -2.55232815 5.94325126 -2.37890625 3.91015625 C-2 2 -2 2 0 0 Z " fill="#2A7A8E" transform="translate(44,48)"/>
<path d="M0 0 C1.32 0 2.64 0 4 0 C5.65 4.62 7.3 9.24 9 14 C11.46301423 11.53698577 11.76766521 9.72639964 12.625 6.375 C12.88539062 5.37210938 13.14578125 4.36921875 13.4140625 3.3359375 C13.60742188 2.56507812 13.80078125 1.79421875 14 1 C15.32 0.67 16.64 0.34 18 0 C20.47257757 9.62656867 21.92369243 19.13595767 23 29 C21.35 29 19.7 29 18 29 C17.34 24.38 16.68 19.76 16 15 C14.23945126 19.64144669 12.53472968 24.27775484 11 29 C10.01 29 9.02 29 8 29 C6.68 24.71 5.36 20.42 4 16 C2.26315467 19.47369066 1.69915888 21.07619937 1.375 24.75 C1.26285156 25.94882813 1.26285156 25.94882813 1.1484375 27.171875 C1.09945312 27.77515625 1.05046875 28.3784375 1 29 C-0.65 29 -2.3 29 -4 29 C-3.50940538 19.12043934 -1.97298648 9.66639286 0 0 Z " fill="#4CA579" transform="translate(92,51)"/>
<path d="M0 0 C3.03215675 2.19831364 3.81654398 3.44963194 5 7 C5.34531267 12.35234642 5.47574585 15.65531768 2 20 C-0.49686714 22.58604097 -1.82765016 22.97493093 -5.4375 23.5 C-9 23 -9 23 -11.9375 21.3125 C-15.18319905 16.09971062 -14.92461587 10.96797513 -14 5 C-10.71059162 -0.62382724 -6.06464198 -1.24693573 0 0 Z " fill="#EE5449" transform="translate(174,58)"/>
<path d="M0 0 C2.5625 0.25 2.5625 0.25 5.5625 2.25 C5.9699348 4.32112691 6.37634609 6.3924609 6.77734375 8.46484375 C8.97204274 16.25001978 12.49329705 23.22247791 19.5625 27.25 C20 30.3125 20 30.3125 19.5625 33.25 C17.5625 35.25 17.5625 35.25 14.5625 35.5 C11.5625 35.25 11.5625 35.25 9.5625 33.25 C9.10546875 31.18359375 9.10546875 31.18359375 8.75 28.6875 C7.88407826 23.83693026 6.16225489 20.23226225 3.5859375 16.0625 C2.5625 14.25 2.5625 14.25 2.5625 12.25 C1.386875 11.816875 1.386875 11.816875 0.1875 11.375 C-2.4375 10.25 -2.4375 10.25 -4.4375 8.25 C-4.6875 5.25 -4.6875 5.25 -4.4375 2.25 C-2.4375 0.25 -2.4375 0.25 0 0 Z " fill="#449F74" transform="translate(61.4375,47.75)"/>
<path d="M0 0 C3.65788473 0.74849954 5.15414164 2.42038457 7.1953125 5.44921875 C7.1953125 7.42921875 7.1953125 9.40921875 7.1953125 11.44921875 C2.5753125 11.44921875 -2.0446875 11.44921875 -6.8046875 11.44921875 C-6.1446875 13.09921875 -5.4846875 14.74921875 -4.8046875 16.44921875 C-1.8346875 16.44921875 1.1353125 16.44921875 4.1953125 16.44921875 C4.5253125 17.76921875 4.8553125 19.08921875 5.1953125 20.44921875 C1.46364503 22.31505248 -2.74013784 21.98678822 -6.8046875 21.44921875 C-9.4296875 19.69921875 -9.4296875 19.69921875 -10.8046875 16.44921875 C-12.11907598 6.19978515 -12.11907598 6.19978515 -9.05078125 2.11328125 C-5.89738041 -0.22297746 -3.81598114 -0.18261296 0 0 Z " fill="#41A171" transform="translate(206.8046875,58.55078125)"/>
<path d="M0 0 C0.99 0 1.98 0 3 0 C3 0.66 3 1.32 3 2 C3.99 1.67 4.98 1.34 6 1 C8.72331488 0.76811378 11.25039269 0.86906632 14 1 C16 3 16 3 16.22705078 4.97119141 C16.21657715 5.75671387 16.20610352 6.54223633 16.1953125 7.3515625 C16.18886719 8.20234375 16.18242187 9.053125 16.17578125 9.9296875 C16.15902344 10.81914063 16.14226562 11.70859375 16.125 12.625 C16.11597656 13.5221875 16.10695312 14.419375 16.09765625 15.34375 C16.0740497 17.56276586 16.0411231 19.78125077 16 22 C14.68 22 13.36 22 12 22 C11.67 16.72 11.34 11.44 11 6 C9.02 6 7.04 6 5 6 C5 11.28 5 16.56 5 22 C3.35 22 1.7 22 0 22 C0 14.74 0 7.48 0 0 Z " fill="#55AA80" transform="translate(215,58)"/>
<path d="M0 0 C0.99 0.33 1.98 0.66 3 1 C2.67 2.65 2.34 4.3 2 6 C-0.31 5.67 -2.62 5.34 -5 5 C-3.86516076 8.40451771 -3.44722063 8.6005564 -0.4375 10.1875 C0.696875 10.785625 1.83125 11.38375 3 12 C3.1953125 18.0546875 3.1953125 18.0546875 3 20 C1 22 1 22 -1.3828125 22.1953125 C-2.28773438 22.17210938 -3.19265625 22.14890625 -4.125 22.125 C-5.49011719 22.09792969 -5.49011719 22.09792969 -6.8828125 22.0703125 C-7.58148438 22.04710938 -8.28015625 22.02390625 -9 22 C-9.33 20.68 -9.66 19.36 -10 18 C-6.67465243 16.89155081 -4.37817425 17.15545644 -1 18 C-2.17868885 14.46393346 -3.02241769 14.13379608 -6.0625 12.1875 C-9.91041563 9.41534573 -9.91041563 9.41534573 -10.6875 5.8125 C-10 3 -10 3 -8.9375 1.125 C-5.95545582 -0.60650952 -3.3753701 -0.24109786 0 0 Z " fill="#4BA578" transform="translate(190,58)"/>
<path d="M0 0 C1.21236328 0.04060547 1.21236328 0.04060547 2.44921875 0.08203125 C3.06410156 0.11683594 3.67898437 0.15164062 4.3125 0.1875 C4.9725 1.5075 5.6325 2.8275 6.3125 4.1875 C3.97479203 4.88015421 2.14450144 5.18350003 -0.3125 5.125 C-2.87874804 4.91990775 -2.87874804 4.91990775 -4.6875 7.1875 C-5.00287716 11.52393601 -5.13647847 13.51403229 -2.6875 17.1875 C-0.48024927 17.55112818 -0.48024927 17.55112818 1.9375 17.375 C2.75476563 17.34792969 3.57203125 17.32085937 4.4140625 17.29296875 C5.35378906 17.24076172 5.35378906 17.24076172 6.3125 17.1875 C6.3125 18.5075 6.3125 19.8275 6.3125 21.1875 C2.5635077 23.06199615 -1.61470547 22.84605233 -5.6875 22.1875 C-8.52814179 20.48813151 -9.03604524 19.27021556 -10.6875 16.1875 C-11.47193803 12.24223812 -11.0929862 9.056399 -9.375 5.375 C-5.05889423 -0.21995192 -5.05889423 -0.21995192 0 0 Z " fill="#4EA67B" transform="translate(136.6875,57.8125)"/>
<path d="M0 0 C0.66 0.33 1.32 0.66 2 1 C2.38671875 2.86328125 2.38671875 2.86328125 2.6875 5.3125 C4.17210009 13.55499969 8.30649373 20.9944214 15 26 C15.375 29.0625 15.375 29.0625 15 32 C13 34 13 34 9.875 34.125 C8.92625 34.08375 7.9775 34.0425 7 34 C6.84144531 33.23816406 6.68289062 32.47632813 6.51953125 31.69140625 C5.1033432 25.42418731 3.38411455 20.21158272 -0.01171875 14.7421875 C-1 13 -1 13 -1 11 C-0.34 11 0.32 11 1 11 C0.67 7.37 0.34 3.74 0 0 Z " fill="#2E8E76" transform="translate(50,49)"/>
<path d="M0 0 C4.29 0 8.58 0 13 0 C12.67 1.65 12.34 3.3 12 5 C9.36 5.33 6.72 5.66 4 6 C4 11.28 4 16.56 4 22 C2.68 22 1.36 22 0 22 C0 14.74 0 7.48 0 0 Z " fill="#5AAD85" transform="translate(147,58)"/>
<path d="M0 0 C0.77730469 0.15082031 1.55460938 0.30164062 2.35546875 0.45703125 C3.14566406 0.59496094 3.93585938 0.73289063 4.75 0.875 C5.63751953 1.07029297 5.63751953 1.07029297 6.54296875 1.26953125 C6.54296875 2.91953125 6.54296875 4.56953125 6.54296875 6.26953125 C3.57296875 5.93953125 0.60296875 5.60953125 -2.45703125 5.26953125 C-2.45703125 4.60953125 -2.45703125 3.94953125 -2.45703125 3.26953125 C-3.44703125 3.76453125 -3.44703125 3.76453125 -4.45703125 4.26953125 C-5.04342945 7.05676782 -5.04342945 7.05676782 -4.45703125 10.26953125 C-2.74049187 11.81828859 -0.98865127 12.93877445 1.01171875 14.09375 C1.51703125 14.48175781 2.02234375 14.86976562 2.54296875 15.26953125 C2.54296875 16.25953125 2.54296875 17.24953125 2.54296875 18.26953125 C-0.09703125 17.93953125 -2.73703125 17.60953125 -5.45703125 17.26953125 C-5.78703125 18.91953125 -6.11703125 20.56953125 -6.45703125 22.26953125 C-6.78703125 22.26953125 -7.11703125 22.26953125 -7.45703125 22.26953125 C-7.5925194 19.53869223 -7.6913298 16.81461318 -7.76953125 14.08203125 C-7.81142578 13.31310547 -7.85332031 12.54417969 -7.89648438 11.75195312 C-7.98766482 7.50294453 -7.81153528 5.75884668 -5.23828125 2.20703125 C-2.45703125 0.26953125 -2.45703125 0.26953125 0 0 Z " fill="#77BC9A" transform="translate(238.45703125,57.73046875)"/>
<path d="M0 0 C0.66 0 1.32 0 2 0 C2.33 1.65 2.66 3.3 3 5 C3.94875 5.2475 4.8975 5.495 5.875 5.75 C9 7 9 7 10.375 8.75 C11.17308164 11.62309392 11.25801855 14.03278665 11 17 C9 19 9 19 6.6171875 19.1953125 C5.71226562 19.17210938 4.80734375 19.14890625 3.875 19.125 C2.50988281 19.09792969 2.50988281 19.09792969 1.1171875 19.0703125 C0.41851562 19.04710938 -0.28015625 19.02390625 -1 19 C-1 17.35 -1 15.7 -1 14 C1.64 14.33 4.28 14.66 7 15 C5.83352109 11.73385905 4.94508755 10.96705253 1.875 9.125 C0.92625 8.42375 -0.0225 7.7225 -1 7 C-1.4375 3.8125 -1.4375 3.8125 -1 1 C-0.67 0.67 -0.34 0.34 0 0 Z " fill="#43A173" transform="translate(234,61)"/>
<path d="M0 0 C2.64 0 5.28 0 8 0 C8 7.26 8 14.52 8 22 C6.35 22 4.7 22 3 22 C3 16.39 3 10.78 3 5 C2.01 5 1.02 5 0 5 C0 3.35 0 1.7 0 0 Z " fill="#56AC82" transform="translate(115,58)"/>
<path d="M0 0 C0.33 0 0.66 0 1 0 C1 6.93 1 13.86 1 21 C0.01 20.67 -0.98 20.34 -2 20 C-2.33 19.01 -2.66 18.02 -3 17 C-3.62648437 17.02320312 -4.25296875 17.04640625 -4.8984375 17.0703125 C-6.12433594 17.09738281 -6.12433594 17.09738281 -7.375 17.125 C-8.59316406 17.15980469 -8.59316406 17.15980469 -9.8359375 17.1953125 C-12 17 -12 17 -14 15 C-14 13.68 -14 12.36 -14 11 C-9.38 11 -4.76 11 0 11 C-0.185625 9.741875 -0.37125 8.48375 -0.5625 7.1875 C-1.00732761 4.17255732 -0.99843846 2.99531539 0 0 Z " fill="#E3F2EA" transform="translate(214,59)"/>
<path d="M0 0 C1.2375 0.1546875 1.2375 0.1546875 2.5 0.3125 C4.63586678 3.51630017 4.73132175 4.33189967 4.625 8 C4.60695313 8.80824219 4.58890625 9.61648437 4.5703125 10.44921875 C4.53550781 11.37154297 4.53550781 11.37154297 4.5 12.3125 C3.51 12.3125 2.52 12.3125 1.5 12.3125 C1.5 11.6525 1.5 10.9925 1.5 10.3125 C0.9225 10.8075 0.345 11.3025 -0.25 11.8125 C-2.5 13.3125 -2.5 13.3125 -6.5 13.3125 C-6.21812064 11.51926747 -5.9241719 9.72792874 -5.625 7.9375 C-5.46257813 6.93976562 -5.30015625 5.94203125 -5.1328125 4.9140625 C-4.29971111 1.48909011 -3.54966794 0.44370849 0 0 Z " fill="#1E6794" transform="translate(46.5,47.6875)"/>
<path d="M0 0 C3.14041545 0.05562733 4.42145416 0.19335122 7.1875 1.8125 C7.661875 2.3075 8.13625 2.8025 8.625 3.3125 C7.625 5.3125 7.625 5.3125 5.625 8.3125 C3.0234375 8.60546875 3.0234375 8.60546875 0 8.5 C-1.50433594 8.45939453 -1.50433594 8.45939453 -3.0390625 8.41796875 C-3.80992187 8.38316406 -4.58078125 8.34835938 -5.375 8.3125 C-5.705 7.6525 -6.035 6.9925 -6.375 6.3125 C-7.035 6.3125 -7.695 6.3125 -8.375 6.3125 C-6.30534707 1.87752943 -5.05296104 0.02518087 0 0 Z " fill="#40A071" transform="translate(255.375,58.6875)"/>
<path d="M0 0 C2.5 0.25 2.5 0.25 4.5 2.25 C4.6953125 4.6328125 4.6953125 4.6328125 4.625 7.375 C4.60695313 8.28507812 4.58890625 9.19515625 4.5703125 10.1328125 C4.54710938 10.83148438 4.52390625 11.53015625 4.5 12.25 C0.7404812 11.72784461 -1.86771463 11.07726947 -4.5 8.25 C-4.875 5.1875 -4.875 5.1875 -4.5 2.25 C-2.5 0.25 -2.5 0.25 0 0 Z " fill="#2C7A8F" transform="translate(61.5,47.75)"/>
<path d="M0 0 C0.66 0.33 1.32 0.66 2 1 C2.6132879 9.92674617 2.6132879 9.92674617 0.5 13.625 C-3.25717423 15.69144583 -5.73756522 15.48124264 -10 15 C-10.66 14.01 -11.32 13.02 -12 12 C-11.34 12 -10.68 12 -10 12 C-10 11.34 -10 10.68 -10 10 C-6.535 9.505 -6.535 9.505 -3 9 C-2.01 6.03 -1.02 3.06 0 0 Z " fill="#EE4438" transform="translate(176,65)"/>
<path d="M0 0 C3 0.25 3 0.25 5 2.25 C5.25 4.75 5.25 4.75 5 7.25 C3 9.25 3 9.25 0 9.5 C-3 9.25 -3 9.25 -5 7.25 C-5.25 4.75 -5.25 4.75 -5 2.25 C-3 0.25 -3 0.25 0 0 Z " fill="#FDF0EC" transform="translate(169,64.75)"/>
<path d="M0 0 C0.33 0 0.66 0 1 0 C1.185625 0.886875 1.37125 1.77375 1.5625 2.6875 C3.26534624 6.61145004 4.96354196 7.70079737 8.5390625 9.82421875 C9.02117187 10.21222656 9.50328125 10.60023437 10 11 C10 11.99 10 12.98 10 14 C8.783125 13.9175 7.56625 13.835 6.3125 13.75 C2.83360474 13.72528316 2.06167336 13.95888443 -1 16 C-1.66 16.66 -2.32 17.32 -3 18 C-3.66 17.67 -4.32 17.34 -5 17 C-4.525625 16.566875 -4.05125 16.13375 -3.5625 15.6875 C-0.76275611 12.6637766 -0.90878772 9.78572665 -1 5.875 C-1.03767103 4.25043671 -1.04657584 2.62433238 -1 1 C-0.67 0.67 -0.34 0.34 0 0 Z " fill="#F1F2ED" transform="translate(179,62)"/>
<path d="M0 0 C1.65 0 3.3 0 5 0 C5 6.27 5 12.54 5 19 C3.68 19 2.36 19 1 19 C0.67 12.73 0.34 6.46 0 0 Z " fill="#3FA070" transform="translate(226,61)"/>
<path d="M0 0 C0.66 0.33 1.32 0.66 2 1 C2.45703125 2.96875 2.45703125 2.96875 2.8125 5.5 C3.66971528 10.39736924 5.39640867 13.93358078 8.07421875 18.08984375 C9 20 9 20 8 23 C7.01 23.33 6.02 23.66 5 24 C3.99491199 22.21118264 2.99607264 20.41885304 2 18.625 C1.1646875 17.12839844 1.1646875 17.12839844 0.3125 15.6015625 C-1 13 -1 13 -1 11 C-0.34 11 0.32 11 1 11 C0.67 7.37 0.34 3.74 0 0 Z " fill="#37868D" transform="translate(50,49)"/>
<path d="M0 0 C-0.41059966 3.38744718 -1.18203882 5.29581308 -3 8.25 C-5.47812229 12.31735288 -5.78752616 16.31495175 -6 21 C-6.33 21 -6.66 21 -7 21 C-7.33 18.03 -7.66 15.06 -8 12 C-9.32 12.33 -10.64 12.66 -12 13 C-10.90700499 11.01464194 -9.80023764 9.03686057 -8.6875 7.0625 C-8.07261719 5.96035156 -7.45773438 4.85820313 -6.82421875 3.72265625 C-4.77651253 0.66644375 -3.6765302 0 0 0 Z " fill="#317798" transform="translate(44,60)"/>
<path d="M0 0 C1.43655854 -0.08131463 2.8744483 -0.13933559 4.3125 -0.1875 C5.51326172 -0.23970703 5.51326172 -0.23970703 6.73828125 -0.29296875 C9.47851584 0.06198392 10.29171079 0.89366282 12 3 C11.34 3 10.68 3 10 3 C10 4.65 10 6.3 10 8 C6.7 8 3.4 8 0 8 C0 7.01 0 6.02 0 5 C0.66 5 1.32 5 2 5 C2 4.34 2 3.68 2 3 C3.65 3 5.3 3 7 3 C7 2.34 7 1.68 7 1 C4.36 1.33 1.72 1.66 -1 2 C-0.67 1.34 -0.34 0.68 0 0 Z " fill="#6AB590" transform="translate(200,59)"/>
<path d="M0 0 C0.99 0 1.98 0 3 0 C4.17571451 3.67410785 4.07366746 7.16929183 4 11 C3.01 11.33 2.02 11.66 1 12 C1 12.99 1 13.98 1 15 C0.34 15 -0.32 15 -1 15 C-1.33 15.66 -1.66 16.32 -2 17 C-1.85848172 14.9163691 -1.71162064 12.83310062 -1.5625 10.75 C-1.48128906 9.58984375 -1.40007812 8.4296875 -1.31640625 7.234375 C-1.06752213 4.69022624 -0.71885058 2.44046752 0 0 Z " fill="#399D6C" transform="translate(106,52)"/>
<path d="M0 0 C0.33 0 0.66 0 1 0 C1.10957031 0.59167969 1.21914062 1.18335938 1.33203125 1.79296875 C2.37707796 7.0172179 2.37707796 7.0172179 4.75 11.75 C5.36875 12.86375 5.36875 12.86375 6 14 C5.1875 16.8125 5.1875 16.8125 4 19 C1 18 1 18 -0.6875 15.0625 C-2 12 -2 12 -2 10 C-1.34 10 -0.68 10 0 10 C0 6.7 0 3.4 0 0 Z " fill="#45938E" transform="translate(66,50)"/>
<path d="M0 0 C1.625 1.5 1.625 1.5 3 4 C2.65955497 6.83163803 1.86771089 9.25986036 1 12 C-1.97 10.35 -4.94 8.7 -8 7 C-8 6.01 -8 5.02 -8 4 C-5.36 4.33 -2.72 4.66 0 5 C0 3.35 0 1.7 0 0 Z " fill="#E7F5EE" transform="translate(245,59)"/>
<path d="M0 0 C1.508013 0.92455559 3.00624917 1.8650747 4.5 2.8125 C5.75296875 3.59560547 5.75296875 3.59560547 7.03125 4.39453125 C7.6809375 4.92433594 8.330625 5.45414062 9 6 C9 6.99 9 7.98 9 9 C6.03 9 3.06 9 0 9 C0 6.03 0 3.06 0 0 Z " fill="#EDF7F2" transform="translate(232,67)"/>
<path d="M0 0 C2.4375 1.25 2.4375 1.25 3.4375 4.25 C3.56531786 6.92394964 3.48141871 9.57095857 3.4375 12.25 C3.1075 12.25 2.7775 12.25 2.4375 12.25 C2.1075 9.94 1.7775 7.63 1.4375 5.25 C1.1075 5.25 0.7775 5.25 0.4375 5.25 C0.1075 7.23 -0.2225 9.21 -0.5625 11.25 C-0.8925 11.25 -1.2225 11.25 -1.5625 11.25 C-2.2225 9.27 -2.8825 7.29 -3.5625 5.25 C-5.2125 4.92 -6.8625 4.59 -8.5625 4.25 C-8.5625 3.92 -8.5625 3.59 -8.5625 3.25 C-6.9125 2.92 -5.2625 2.59 -3.5625 2.25 C-3.8925 1.59 -4.2225 0.93 -4.5625 0.25 C-2.5625 -0.75 -2.5625 -0.75 0 0 Z " fill="#EA6154" transform="translate(175.5625,60.75)"/>
<path d="M0 0 C0.66 0 1.32 0 2 0 C2 1.98 2 3.96 2 6 C2.66 6 3.32 6 4 6 C4.33 8.64 4.66 11.28 5 14 C3.35 14 1.7 14 0 14 C0 9.38 0 4.76 0 0 Z " fill="#42A172" transform="translate(110,66)"/>
<path d="M0 0 C1.32 0.33 2.64 0.66 4 1 C3.34 6.94 2.68 12.88 2 19 C1.34 19 0.68 19 0 19 C0 12.73 0 6.46 0 0 Z " fill="#329864" transform="translate(148,60)"/>
<path d="M0 0 C0.33 0 0.66 0 1 0 C1.08333357 4.8333472 0.95261487 9.23692563 0 14 C0.66 14 1.32 14 2 14 C2 12.35 2 10.7 2 9 C2.33 9 2.66 9 3 9 C3 11.97 3 14.94 3 18 C1.35 18 -0.3 18 -2 18 C-1.85805236 15.93722893 -1.71127784 13.87478969 -1.5625 11.8125 C-1.48128906 10.66394531 -1.40007812 9.51539062 -1.31640625 8.33203125 C-1.04596188 5.48401829 -0.62478253 2.78789518 0 0 Z " fill="#61AF8A" transform="translate(90,62)"/>
<path d="M0 0 C1.8871875 0.0309375 1.8871875 0.0309375 3.8125 0.0625 C4.1425 0.7225 4.4725 1.3825 4.8125 2.0625 C3.8225 2.3925 2.8325 2.7225 1.8125 3.0625 C1.4825 3.7225 1.1525 4.3825 0.8125 5.0625 C-1.1675 5.0625 -3.1475 5.0625 -5.1875 5.0625 C-5.1875 4.0725 -5.1875 3.0825 -5.1875 2.0625 C-5.8475 1.7325 -6.5075 1.4025 -7.1875 1.0625 C-4.43671116 0.14557039 -2.82801087 -0.04636083 0 0 Z " fill="#52A97F" transform="translate(225.1875,58.9375)"/>
<path d="M0 0 C0.33 1.32 0.66 2.64 1 4 C-1.97 4 -4.94 4 -8 4 C-8 3.01 -8 2.02 -8 1 C-5.07175348 0.02391783 -3.04386724 -0.08226668 0 0 Z " fill="#D9EEE4" transform="translate(259,63)"/>
<path d="M0 0 C0.99 0 1.98 0 3 0 C3 2.31 3 4.62 3 7 C-1.29 7 -5.58 7 -10 7 C-10 6.67 -10 6.34 -10 6 C-6.7 6 -3.4 6 0 6 C0 4.02 0 2.04 0 0 Z " fill="#339B67" transform="translate(210,62)"/>
<path d="M0 0 C0 0.99 0 1.98 0 3 C-2.52475462 4.26237731 -4.31200466 4.09856404 -7.125 4.0625 C-8.03507813 4.05347656 -8.94515625 4.04445313 -9.8828125 4.03515625 C-10.58148438 4.02355469 -11.28015625 4.01195313 -12 4 C-12 3.67 -12 3.34 -12 3 C-8.535 2.505 -8.535 2.505 -5 2 C-6.32 1.34 -7.64 0.68 -9 0 C-3.375 -1.125 -3.375 -1.125 0 0 Z " fill="#58AB83" transform="translate(212,76)"/>
<path d="M0 0 C1.21816406 0.03480469 1.21816406 0.03480469 2.4609375 0.0703125 C3.68683594 0.09738281 3.68683594 0.09738281 4.9375 0.125 C5.87722656 0.15980469 5.87722656 0.15980469 6.8359375 0.1953125 C6.8359375 1.5153125 6.8359375 2.8353125 6.8359375 4.1953125 C5.37713641 4.05423503 3.91890199 3.90728835 2.4609375 3.7578125 C1.24277344 3.63599609 1.24277344 3.63599609 0 3.51171875 C-2.1640625 3.1953125 -2.1640625 3.1953125 -4.1640625 2.1953125 C-2.1640625 0.1953125 -2.1640625 0.1953125 0 0 Z " fill="#3B9E6E" transform="translate(135.1640625,58.8046875)"/>
<path d="M0 0 C0.66 0.33 1.32 0.66 2 1 C2 2.65 2 4.3 2 6 C-1.96 6 -5.92 6 -10 6 C-10 5.67 -10 5.34 -10 5 C-8.72125 4.9175 -7.4425 4.835 -6.125 4.75 C-3.94666582 4.54130069 -3.94666582 4.54130069 -2 4 C-0.4100567 2.07935207 -0.4100567 2.07935207 0 0 Z " fill="#309965" transform="translate(262,63)"/>
<path d="M0 0 C2.33944736 0.28730055 4.6739143 0.61936779 7 1 C7 1.33 7 1.66 7 2 C5.02 2 3.04 2 1 2 C1 2.66 1 3.32 1 4 C3.97 4 6.94 4 10 4 C10 4.33 10 4.66 10 5 C6.7 5 3.4 5 0 5 C-0.33 3.68 -0.66 2.36 -1 1 C-0.67 0.67 -0.34 0.34 0 0 Z " fill="#62B08A" transform="translate(181,75)"/>
<path d="M0 0 C0.33 0 0.66 0 1 0 C1 3.3 1 6.6 1 10 C0.34 10 -0.32 10 -1 10 C-1.33 10.66 -1.66 11.32 -2 12 C-2.17835515 7.45194365 -1.99785435 4.1205746 0 0 Z " fill="#B3DAC8" transform="translate(195,65)"/>
<path d="M0 0 C0.99 0.66 1.98 1.32 3 2 C1.93453047 4.13093906 0.70840281 5.36587557 -1 7 C-1.33 6.01 -1.66 5.02 -2 4 C-4.31 4 -6.62 4 -9 4 C-8.67 3.34 -8.34 2.68 -8 2 C-5.67284 1.62599214 -3.33882138 1.29235267 -1 1 C-0.67 0.67 -0.34 0.34 0 0 Z " fill="#63B28B" transform="translate(261,60)"/>
<path d="M0 0 C-0.33 3.96 -0.66 7.92 -1 12 C-1.33 12 -1.66 12 -2 12 C-2.33 9.03 -2.66 6.06 -3 3 C-4.32 3.33 -5.64 3.66 -7 4 C-4.83989616 0.75984424 -3.8842653 0 0 0 Z " fill="#4F8CA2" transform="translate(39,69)"/>
<path d="M0 0 C2.625 0.9375 2.625 0.9375 5 2 C4.67 2.66 4.34 3.32 4 4 C2.68 4 1.36 4 0 4 C-0.33 4.66 -0.66 5.32 -1 6 C-2.65 5.67 -4.3 5.34 -6 5 C-6 4.67 -6 4.34 -6 4 C-4.35 3.67 -2.7 3.34 -1 3 C-1.33 2.34 -1.66 1.68 -2 1 C-1.34 0.67 -0.68 0.34 0 0 Z " fill="#ED675C" transform="translate(173,60)"/>
<path d="M0 0 C1.32 0 2.64 0 4 0 C4 1.65 4 3.3 4 5 C2.35 4.67 0.7 4.34 -1 4 C-0.67 2.68 -0.34 1.36 0 0 Z " fill="#54A97F" transform="translate(119,51)"/>
<path d="M0 0 C1.98 0 3.96 0 6 0 C6.33 0.99 6.66 1.98 7 3 C4.36 3 1.72 3 -1 3 C-0.67 2.01 -0.34 1.02 0 0 Z " fill="#F2FAF6" transform="translate(202,63)"/>
<path d="M0 0 C2.31 0 4.62 0 7 0 C6.34 1.32 5.68 2.64 5 4 C3.35 3.67 1.7 3.34 0 3 C0 2.01 0 1.02 0 0 Z " fill="#57AC83" transform="translate(153,58)"/>
<path d="M0 0 C0.66 0.33 1.32 0.66 2 1 C2.51953125 3.14453125 2.51953125 3.14453125 2.8125 5.8125 C2.97685547 7.12154297 2.97685547 7.12154297 3.14453125 8.45703125 C2.96959881 11.53489662 2.03300934 12.74635398 0 15 C-0.33 13.68 -0.66 12.36 -1 11 C-0.34 11 0.32 11 1 11 C0.67 7.37 0.34 3.74 0 0 Z " fill="#578FA9" transform="translate(50,49)"/>
<path d="M0 0 C0.99 0.33 1.98 0.66 3 1 C3.6875 3.0625 3.6875 3.0625 4 5 C2.68 5.99 1.36 6.98 0 8 C-0.98120464 4.94736336 -0.98120464 3.05263664 0 0 Z " fill="#3C957D" transform="translate(70,65)"/>
<path d="M0 0 C-0.62390625 0.07089844 -1.2478125 0.14179687 -1.890625 0.21484375 C-4.19229321 0.80004532 -4.19229321 0.80004532 -5.046875 3.06640625 C-5.27890625 3.89011719 -5.5109375 4.71382813 -5.75 5.5625 C-5.99234375 6.38878906 -6.2346875 7.21507813 -6.484375 8.06640625 C-6.65453125 8.70449219 -6.8246875 9.34257813 -7 10 C-7.33 10 -7.66 10 -8 10 C-8.36272727 3.59181818 -8.36272727 3.59181818 -6.8125 1.0625 C-4.43958382 -0.32851983 -2.70313576 -0.21917317 0 0 Z " fill="#C2E3D3" transform="translate(139,62)"/>
<path d="M0 0 C0.33 0 0.66 0 1 0 C1.125 2.875 1.125 2.875 1 6 C-1 8 -1 8 -4.125 8.125 C-5.548125 8.063125 -5.548125 8.063125 -7 8 C-5 6.66666667 -3 5.33333333 -1 4 C-0.27617533 1.94074861 -0.27617533 1.94074861 0 0 Z " fill="#4CA07F" transform="translate(64,75)"/>
<path d="M0 0 C0.66 0.33 1.32 0.66 2 1 C2 2.98 2 4.96 2 7 C0.68 7 -0.64 7 -2 7 C-1.34 4.69 -0.68 2.38 0 0 Z " fill="#C7E4D5" transform="translate(107,65)"/>
<path d="M0 0 C0.5625 1.9375 0.5625 1.9375 1 4 C0 5 0 5 -2.5625 5.0625 C-3.7690625 5.0315625 -3.7690625 5.0315625 -5 5 C-5.33 4.01 -5.66 3.02 -6 2 C-3.525 2.495 -3.525 2.495 -1 3 C-0.67 2.01 -0.34 1.02 0 0 Z " fill="#359A67" transform="translate(79,78)"/>
<path d="M0 0 C0 0.99 0 1.98 0 3 C-0.99 3 -1.98 3 -3 3 C-3 2.34 -3 1.68 -3 1 C-4.98 1 -6.96 1 -9 1 C-9 0.67 -9 0.34 -9 0 C-3.375 -1.125 -3.375 -1.125 0 0 Z " fill="#62B08A" transform="translate(263,76)"/>
<path d="M0 0 C-0.8125 1.9375 -0.8125 1.9375 -2 4 C-2.99 4.33 -3.98 4.66 -5 5 C-5 3.68 -5 2.36 -5 1 C-3 0 -3 0 0 0 Z " fill="#196B8C" transform="translate(63,49)"/>
</svg>
