<?xml version="1.0" encoding="utf-8"?>
<!-- Generator: Adobe Illustrator 19.0.0, SVG Export Plug-In . SVG Version: 6.00 Build 0)  -->
<svg version="1.1" xmlns="http://www.w3.org/2000/svg" xmlns:xlink="http://www.w3.org/1999/xlink" x="0px" y="0px"
	 viewBox="0 0 406 395" style="enable-background:new 0 0 406 395;" xml:space="preserve">
<style type="text/css">
	.st0{display:none;}
	.st1{display:inline;}
	.st2{display:none;fill:#FFFFFF;}
	.st3{fill:#45567C;}
</style>
<g id="Layer_1" class="st0">
	<g class="st1">
		<path class="st2" d="M6.8,190c0-63.1,0-126.2,0-189.2c131.5,0,263.1,0,394.6,0c0,131.5,0,263.1,0,394.6c-131.5,0-263.1,0-394.6,0
			c0-63.3,0-126.7,0-190c0.2,1.1,0.6,2.2,0.7,3.3c2.4,21,10.5,39.6,25.1,54.9c25.7,26.8,57.2,36.8,93.4,28.7
			c30.4-6.8,51.8-26.2,67.8-52.2c9.7-15.9,15.1-33.5,21.3-50.9c6.2-17.3,14.8-33.2,27.7-46.5c20.4-21,45.1-30.5,74.2-25.4
			c44.3,7.8,73.1,48.1,66.8,92.8c-5.2,37.5-38.5,67.8-76.3,69c-29.2,0.9-52.8-10.3-70.4-33.8c-0.8-1.1-1.7-2.2-2.7-3.4
			c-4.5,2.9-8.8,5.6-13.1,8.4c5.9,9,12.6,16.7,20.8,23c30.4,23.4,63.8,28.6,99.1,13.8c57.7-24.2,77.4-94.8,41.1-145.8
			c-34.2-48-103.2-56.6-149-11.2c-16.8,16.6-27.6,36.8-34.9,58.9c-6.4,19.3-13.1,38.3-25.8,54.5c-21.6,27.5-49.2,40.5-84.5,34.1
			c-34.2-6.2-62.4-37.3-64.9-71.8c-2.3-31.1,9.1-56.1,34.1-74.7c34.6-25.6,86.4-17.5,111.9,17.2c1.3,1.7,2.6,3.4,3.9,5.2
			c4.6-2.9,8.7-5.6,13.8-8.9c-6-6.6-11.2-13.5-17.5-19.1c-22.8-20.1-49.5-28.7-79.7-23.8c-36.3,5.8-61.6,26.4-75.7,60.2
			C10.2,170.7,9.1,180.6,6.8,190z"/>
		<path class="st3" d="M6.8,190c2.3-9.4,3.5-19.3,7.1-28.1c14.1-33.8,39.4-54.4,75.7-60.2c30.1-4.8,56.9,3.7,79.7,23.8
			c6.3,5.6,11.5,12.5,17.5,19.1c-5.1,3.3-9.3,6-13.8,8.9c-1.4-1.8-2.7-3.5-3.9-5.2c-25.4-34.7-77.3-42.8-111.9-17.2
			C32,149.7,20.7,174.8,23,205.8c2.5,34.5,30.8,65.6,64.9,71.8c35.4,6.5,62.9-6.6,84.5-34.1c12.7-16.2,19.5-35.3,25.8-54.5
			c7.3-22.2,18.2-42.3,34.9-58.9c45.8-45.4,114.9-36.8,149,11.2c36.3,51,16.7,121.7-41.1,145.8c-35.2,14.7-68.7,9.6-99.1-13.8
			c-8.2-6.3-14.9-14-20.8-23c4.3-2.8,8.6-5.5,13.1-8.4c1,1.3,1.9,2.3,2.7,3.4c17.6,23.5,41.1,34.8,70.4,33.8
			c37.8-1.2,71.1-31.5,76.3-69c6.2-44.7-22.5-85-66.8-92.8c-29.1-5.1-53.8,4.4-74.2,25.4c-12.9,13.3-21.5,29.2-27.7,46.5
			c-6.2,17.3-11.6,35-21.3,50.9c-16,26.1-37.4,45.4-67.8,52.2c-36.3,8.1-67.7-1.9-93.4-28.7C18,248.3,9.9,229.7,7.5,208.7
			c-0.1-1.1-0.5-2.2-0.7-3.3C6.8,200.3,6.8,195.1,6.8,190z"/>
	</g>
</g>
<g id="Layer_2">
	<path class="st3" d="M395.8,279.3c-2.4,4.1-6,5.2-10.7,5.2c-50.4-0.1-100.7-0.1-151.1-0.1c-1.5,0-2.9,0-4.8,0
		c0,7.3-0.1,14.2,0.1,21.2c0,0.8,2,1.9,3.2,2.3c28.8,8.8,57.5,17.5,86.3,26.2c2.6,0.8,5.3,1.5,7.9,2.4c4.6,1.6,6.7,5.4,5.4,9.6
		c-1.3,4.1-5.3,6-10,4.6c-23.7-7.1-47.3-14.2-70.9-21.4c-9-2.7-17.9-5.6-26.9-8c-4-1.1-8.3-1.2-13.1-1.9c0,3.1,0,5.4,0,7.7
		c0,5.1,0.1,10.2,0,15.4c-0.1,5.4-3.2,8.8-7.7,8.7c-4.4-0.1-7.3-3.3-7.3-8.6c-0.1-7.4,0-14.7,0-22.9c-4.1,0.3-8.1,0-11.6,1.1
		c-32.5,9.6-65,19.5-97.5,29.3c-0.2,0.1-0.5,0.2-0.7,0.2c-5.8,1.7-10.1,0.1-11.4-4.4c-1.3-4.5,1.2-8.2,7.1-9.9
		c30.5-9.2,60.9-18.4,91.4-27.6c1.5-0.5,3.1-1,4.6-1.6c0-7.4,0-14.6,0-22.4c-1.7,0-3.2,0-4.8,0c-50.2,0-100.5,0-150.7,0.1
		c-4.6,0-8.3-1.1-10.7-5.2c0-76.3,0-152.5,0-228.8c2.2-4.1,5.6-5.3,10.2-5.3c48.5,0.1,97,0.1,145.5,0.1c1.1,0,2.3-0.1,3.4,0.1
		c3.9,0.4,6.7,3.4,6.8,7.2c0.1,4-2.6,7.2-6.7,7.7c-1.4,0.2-2.7,0.1-4.1,0.1c-45,0-90,0-135,0c-1.5,0-3,0-4.7,0c0,58,0,115.7,0,173.8
		c117.7,0,235.5,0,353.5,0c0-57.9,0-115.6,0-173.8c-1.6,0-3.1,0-4.6,0c-45.6,0-91.2,0-136.9,0c-1.4,0-2.8,0.1-4.1-0.1
		c-3.8-0.5-6.5-3.7-6.5-7.5c0-3.8,2.9-6.9,6.7-7.3c1.1-0.1,2.2-0.1,3.4-0.1c49,0,98,0,147-0.1c4.6,0,8,1.3,10.2,5.3
		C395.8,126.8,395.8,203,395.8,279.3z M26.9,249.5c0,6.7,0,13.1,0,19.7c118,0,235.7,0,353.6,0c0-6.7,0-13.1,0-19.7
		C262.7,249.5,145,249.5,26.9,249.5z M193.3,304.7c7.1,0,13.8,0,20.5,0c0-6.8,0-13.4,0-20.1c-6.9,0-13.6,0-20.5,0
		C193.3,291.3,193.3,297.9,193.3,304.7z"/>
	<path class="st3" d="M227.7,166.3c0,10.4,0.1,19.8,0,29.2c-0.1,4.3-2.8,7.3-6.7,7.8c-3.3,0.4-6.9-1.7-7.9-5.1
		c-0.4-1.4-0.4-3-0.4-4.4c0-16.9,0-33.7,0-50.6c0-10.7,0-21.5,0-32.2c0-5.3,3.7-8.7,8.6-8c3.8,0.5,6.3,3.6,6.4,8c0.1,7,0,14,0,21
		c0,1.2,0,2.4,0,4.4c2.4-2.1,4.1-3.6,5.8-5.2c8.6-7.9,17.3-15.9,25.9-23.8c4.7-4.3,8.8-4.6,12.1-1.1c3.3,3.5,2.6,8-2.1,12.3
		c-10.8,9.9-21.5,19.8-32.3,29.7c-1,0.9-2,1.9-3.9,3.6c1.3,0.9,2.6,1.4,3.5,2.4c12.1,11.6,24.2,23.2,36.1,34.9
		c1.5,1.4,2.9,3.3,3.4,5.2c0.9,3.3-0.4,6.2-3.4,8c-3.4,1.9-6.5,1.3-9.3-1.3c-8.7-8.4-17.4-16.8-26.2-25.2
		C234.4,172.8,231.4,169.9,227.7,166.3z"/>
	<path class="st3" d="M190.4,177.4c0,5.9,0,11.6,0,17.4c0,5.2-3,8.6-7.4,8.6c-4.3,0-7.5-3.4-7.6-8.5c-0.1-5.8,0-11.7,0-17.9
		c-3.9,0-7.3,0-10.8,0c-8.4,0-16.7,0.1-25.1,0c-7.4-0.1-10.7-5.9-7-12.4c10.6-18.5,21.3-37,32.1-55.4c1.1-1.9,2.6-3.7,4.2-5.2
		c4.1-3.8,8.8-5.2,14.1-3c5.3,2.2,7.7,6.5,7.7,12.2c0,10.6-0.1,21.2-0.1,31.9c0,5.5,0,11,0,16.9c5.8,0,11.4,0.6,11.5,8
		C202,174.4,199.1,176.2,190.4,177.4z M175.3,121.8c-0.2-0.1-0.5-0.1-0.7-0.2c-7.6,13.3-15.3,26.5-23.2,40.2c8.4,0,16,0,23.8,0
		C175.3,148.3,175.3,135,175.3,121.8z"/>
	<path class="st3" d="M210.6,52.6c0,4.2-3.1,7.5-7.1,7.6c-4.1,0.1-7.7-3.4-7.6-7.6c0-3.9,3.5-7.3,7.5-7.4
		C207.4,45.2,210.6,48.5,210.6,52.6z"/>
</g>
</svg>
