<?xml version="1.0" encoding="utf-8"?>
<!-- Generator: Adobe Illustrator 27.3.1, SVG Export Plug-In . SVG Version: 6.00 Build 0)  -->
<svg version="1.1" id="Layer_1" xmlns="http://www.w3.org/2000/svg" xmlns:xlink="http://www.w3.org/1999/xlink" x="0px" y="0px"
	 viewBox="0 0 96 31" style="enable-background:new 0 0 96 31;" xml:space="preserve">
<style type="text/css">
	.st0{font-family:'ArialMT';}
	.st1{font-size:7.3167px;}
	.st2{fill:#3B00A2;}
	.st3{fill:#FFFFFF;}
	.st4{clip-path:url(#SVGID_00000154428219197599549900000001518763254623014040_);}
	.st5{fill:#BFBFBF;}
	.st6{fill:#070707;fill-opacity:0;}
	.st7{opacity:6.090000e-02;fill:#070707;enable-background:new    ;}
	.st8{opacity:0.1218;fill:#070707;enable-background:new    ;}
	.st9{opacity:0.1827;fill:#070707;enable-background:new    ;}
	.st10{opacity:0.2436;fill:#070707;enable-background:new    ;}
	.st11{opacity:0.3045;fill:#070707;enable-background:new    ;}
	.st12{opacity:0.3655;fill:#070707;enable-background:new    ;}
	.st13{opacity:0.4264;fill:#070707;enable-background:new    ;}
	.st14{opacity:0.4873;fill:#070707;enable-background:new    ;}
	.st15{opacity:0.5482;fill:#070707;enable-background:new    ;}
	.st16{opacity:0.6091;fill:#070707;enable-background:new    ;}
	.st17{opacity:0.67;fill:#070707;enable-background:new    ;}
</style>
<g>
	<text transform="matrix(1.335 0 0 1 41.9022 21.5787)" class="st0 st1">Bakground</text>
</g>
<g>
	<text transform="matrix(1.335 0 0 1 50.0199 28.1666)" class="st2 st0 st1">remover</text>
</g>
<g>
	<rect x="61.1" y="2" class="st3" width="23.5" height="11.8"/>
	<g>
		<g>
			<defs>
				<path id="SVGID_1_" d="M76,9.8V9.5l-1-0.5c-0.1,0.1-0.1,0.1-0.2,0.2c-0.2,0.2-0.5,0.4-0.8,0.5c-0.3,0.1-0.7,0.2-1.2,0.2
					c-0.5,0-1-0.1-1.4-0.2c-0.4-0.2-0.7-0.4-0.9-0.7c-0.2-0.3-0.3-0.6-0.3-1c0-0.4,0.1-0.7,0.3-1c0,0,0-0.1,0.1-0.1L61.1,2v11.8
					h23.5v0l-7.9-3.9L76,9.8L76,9.8z M69.3,9.6C69,9.7,68.6,9.8,68,9.8h-2.4V6H68c0.5,0,0.9,0.1,1.2,0.3c0.3,0.2,0.4,0.4,0.4,0.7
					c0,0.2-0.1,0.4-0.2,0.6c-0.2,0.2-0.4,0.3-0.6,0.3c0.3,0,0.5,0.2,0.7,0.3c0.2,0.2,0.3,0.4,0.3,0.6C69.7,9.1,69.6,9.4,69.3,9.6z"
					/>
			</defs>
			<clipPath id="SVGID_00000122699413156225048200000000544857665136966839_">
				<use xlink:href="#SVGID_1_"  style="overflow:visible;"/>
			</clipPath>
			<g style="clip-path:url(#SVGID_00000122699413156225048200000000544857665136966839_);">
				<rect x="57" y="0.9" class="st5" width="2.8" height="2.6"/>
				<rect x="59.7" y="3.6" class="st5" width="2.8" height="2.6"/>
				<rect x="59.7" y="3.6" class="st5" width="2.8" height="2.6"/>
				<rect x="62.6" y="0.9" class="st5" width="2.8" height="2.6"/>
				<rect x="65.3" y="3.6" class="st5" width="2.8" height="2.6"/>
				<rect x="65.3" y="3.6" class="st5" width="2.8" height="2.6"/>
				<rect x="68.3" y="0.9" class="st5" width="2.8" height="2.6"/>
				<rect x="71" y="3.6" class="st5" width="2.8" height="2.6"/>
				<rect x="71" y="3.6" class="st5" width="2.8" height="2.6"/>
				<rect x="73.9" y="0.9" class="st5" width="2.8" height="2.6"/>
				<rect x="76.6" y="3.6" class="st5" width="2.8" height="2.6"/>
				<rect x="76.6" y="3.6" class="st5" width="2.8" height="2.6"/>
				<rect x="79.5" y="0.9" class="st5" width="2.8" height="2.6"/>
				<rect x="82.2" y="3.6" class="st5" width="2.8" height="2.6"/>
				<rect x="82.2" y="3.6" class="st5" width="2.8" height="2.6"/>
				<rect x="85.1" y="0.9" class="st5" width="2.8" height="2.6"/>
				<rect x="87.9" y="3.6" class="st5" width="2.8" height="2.6"/>
				<rect x="87.9" y="3.6" class="st5" width="2.8" height="2.6"/>
				<rect x="57" y="6.2" class="st5" width="2.8" height="2.6"/>
				<rect x="59.7" y="8.9" class="st5" width="2.8" height="2.6"/>
				<rect x="59.7" y="8.9" class="st5" width="2.8" height="2.6"/>
				<rect x="62.6" y="6.2" class="st5" width="2.8" height="2.6"/>
				<rect x="65.3" y="8.9" class="st5" width="2.8" height="2.6"/>
				<rect x="65.3" y="8.9" class="st5" width="2.8" height="2.6"/>
				<rect x="68.2" y="6.2" class="st5" width="2.8" height="2.6"/>
				<rect x="70.9" y="8.9" class="st5" width="2.8" height="2.6"/>
				<rect x="70.9" y="8.9" class="st5" width="2.8" height="2.6"/>
				<rect x="73.8" y="6.2" class="st5" width="2.8" height="2.6"/>
				<rect x="76.6" y="8.9" class="st5" width="2.8" height="2.6"/>
				<rect x="76.6" y="8.9" class="st5" width="2.8" height="2.6"/>
				<rect x="79.5" y="6.2" class="st5" width="2.8" height="2.6"/>
				<rect x="82.2" y="8.9" class="st5" width="2.8" height="2.6"/>
				<rect x="82.2" y="8.9" class="st5" width="2.8" height="2.6"/>
				<rect x="85.1" y="6.2" class="st5" width="2.8" height="2.6"/>
				<rect x="87.8" y="8.9" class="st5" width="2.8" height="2.6"/>
				<rect x="87.8" y="8.9" class="st5" width="2.8" height="2.6"/>
				<rect x="56.9" y="11.5" class="st5" width="2.8" height="2.6"/>
				<rect x="62.5" y="11.5" class="st5" width="2.8" height="2.6"/>
				<rect x="68.2" y="11.5" class="st5" width="2.8" height="2.6"/>
				<rect x="73.8" y="11.5" class="st5" width="2.8" height="2.6"/>
				<rect x="79.4" y="11.5" class="st5" width="2.8" height="2.6"/>
				<rect x="85" y="11.5" class="st5" width="2.8" height="2.6"/>
			</g>
		</g>
	</g>
	<path class="st2" d="M61.1,2l9.6,4.8c0.2-0.3,0.5-0.5,0.9-0.6c0.4-0.2,0.8-0.2,1.4-0.2c0.6,0,1.1,0.1,1.6,0.3
		c0.4,0.2,0.7,0.5,0.8,0.9h-1.4c-0.1-0.1-0.2-0.2-0.4-0.3c-0.2-0.1-0.4-0.1-0.6-0.1c-0.4,0-0.7,0.1-1,0.3c-0.1,0.1-0.1,0.1-0.2,0.2
		l0.9,0.5V7.7h2.7v0.9c-0.1,0.2-0.2,0.3-0.3,0.5l1,0.5V6h2.1c0.4,0,0.8,0.1,1,0.2c0.3,0.1,0.5,0.3,0.6,0.4C80,6.8,80,7,80,7.2
		c0,0.3-0.1,0.5-0.3,0.7c-0.2,0.2-0.5,0.3-0.9,0.4l1.2,1.5h-1.4l-1.1-1.5h-0.3v1.5h-0.6l7.9,3.9V2L61.1,2L61.1,2z"/>
	<path class="st2" d="M78.6,7.6c0.1-0.1,0.2-0.2,0.2-0.4c0-0.1-0.1-0.3-0.2-0.3c-0.1-0.1-0.3-0.1-0.5-0.1h-0.8v1h0.8
		C78.3,7.7,78.5,7.7,78.6,7.6z"/>
	<path class="st2" d="M73.8,8.4l0.3,0.2c0-0.1,0.1-0.1,0.1-0.2H73.8z"/>
	<path d="M68.8,7.9c0.3-0.1,0.5-0.2,0.6-0.3c0.2-0.1,0.2-0.3,0.2-0.6c0-0.3-0.1-0.6-0.4-0.7C68.9,6.1,68.5,6,68,6h-2.3v3.9H68
		c0.5,0,1-0.1,1.3-0.3c0.3-0.2,0.5-0.4,0.5-0.8c0-0.2-0.1-0.4-0.3-0.6C69.3,8,69.1,7.9,68.8,7.9z M66.9,6.7h0.8c0.2,0,0.4,0,0.5,0.1
		s0.2,0.2,0.2,0.3s-0.1,0.2-0.2,0.3c-0.1,0.1-0.3,0.1-0.5,0.1h-0.8V6.7z M68.3,9c-0.1,0.1-0.3,0.1-0.5,0.1h-0.9V8.2h0.9
		c0.2,0,0.4,0,0.5,0.1s0.2,0.2,0.2,0.3C68.5,8.8,68.4,8.9,68.3,9z"/>
	<path class="st3" d="M74.2,8.4c0,0.1-0.1,0.1-0.1,0.2L75.1,9c0.1-0.1,0.2-0.3,0.3-0.5V7.7h-2.7v0.1l1.2,0.6L74.2,8.4L74.2,8.4z"/>
	<path class="st3" d="M71.9,7.1c0.2-0.2,0.6-0.3,1-0.3c0.2,0,0.4,0,0.6,0.1c0.2,0.1,0.3,0.2,0.4,0.3h1.4c-0.1-0.4-0.4-0.7-0.8-0.9
		c-0.4-0.2-0.9-0.3-1.6-0.3c-0.5,0-1,0.1-1.4,0.2c-0.4,0.1-0.6,0.3-0.9,0.6l1,0.5C71.8,7.2,71.8,7.2,71.9,7.1z"/>
	<polygon points="73.8,8.4 72.6,7.8 72.6,8.4 	"/>
	<path d="M70.3,7.9c0,0.4,0.1,0.7,0.3,1s0.5,0.5,0.9,0.7c0.4,0.2,0.9,0.2,1.4,0.2c0.4,0,0.8-0.1,1.2-0.2c0.3-0.1,0.6-0.3,0.8-0.5
		C74.9,9.1,75,9.1,75.1,9l-0.9-0.5c-0.1,0.1-0.2,0.3-0.4,0.3C73.5,9,73.3,9,73,9c-0.4,0-0.8-0.1-1.1-0.3c-0.3-0.2-0.4-0.5-0.4-0.8
		c0-0.2,0.1-0.4,0.2-0.6l-1-0.5c0,0-0.1,0.1-0.1,0.1C70.4,7.2,70.3,7.5,70.3,7.9z"/>
	<path class="st3" d="M77.3,9.8V8.4h0.3l1.1,1.5h1.4l-1.2-1.5c0.4-0.1,0.7-0.2,0.9-0.4C79.9,7.7,80,7.5,80,7.2C80,7,80,6.8,79.8,6.6
		c-0.1-0.2-0.4-0.3-0.6-0.4C78.9,6,78.6,6,78.1,6H76v3.5l0.7,0.4L77.3,9.8L77.3,9.8z M77.3,6.8h0.8c0.2,0,0.4,0,0.5,0.1
		s0.2,0.2,0.2,0.3c0,0.2-0.1,0.3-0.2,0.4c-0.1,0.1-0.3,0.1-0.5,0.1h-0.8V6.8z"/>
	<polygon points="76.7,9.8 76,9.5 76,9.8 	"/>
	<g>
		<path class="st6" d="M85.8,14.5H63.4V3.3h22.4V14.5z M62.7,3v11.9h23.9V3L62.7,3L62.7,3z"/>
		<path class="st7" d="M85.7,14.4H63.2V3.2h22.4V14.4z M62.5,2.9v11.9h23.9V2.9H62.5z"/>
		<path class="st8" d="M85.5,14.3H63V3.1h22.4V14.3z M62.3,2.8v11.9h23.9V2.8L62.3,2.8L62.3,2.8z"/>
		<path class="st9" d="M85.3,14.2H62.9V3.1h22.4V14.2z M62.1,2.7v11.9H86V2.7L62.1,2.7L62.1,2.7z"/>
		<path class="st10" d="M85.1,14.2H62.7V3h22.4V14.2z M62,2.6v11.9h23.9V2.6H62z"/>
		<path class="st11" d="M85,14.1H62.5V2.9H85V14.1z M61.8,2.5v11.9h23.9V2.5L61.8,2.5L61.8,2.5z"/>
		<path class="st12" d="M84.8,14H62.4V2.8h22.4V14z M61.6,2.4v11.9h23.9V2.4H61.6z"/>
		<path class="st13" d="M84.6,13.9H62.2V2.7h22.4V13.9z M61.5,2.4v11.9h23.9V2.4H61.5z"/>
		<path class="st14" d="M84.5,13.8H62V2.6h22.4V13.8z M61.3,2.3v11.9h23.9V2.3L61.3,2.3L61.3,2.3z"/>
		<path class="st15" d="M84.3,13.7H61.9V2.6h22.4V13.7z M61.1,2.2v11.9H85V2.2H61.1z"/>
		<path class="st16" d="M84.1,13.7H61.7V2.5h22.4V13.7z M61,2.1V14h23.9V2.1L61,2.1L61,2.1z"/>
		<path class="st17" d="M84,13.6H61.5V2.4H84V13.6z M60.8,2v11.9h23.9V2L60.8,2L60.8,2z"/>
	</g>
</g>
</svg>
