<?xml version="1.0" encoding="utf-8"?>
<!-- Generator: Adobe Illustrator 19.0.0, SVG Export Plug-In . SVG Version: 6.00 Build 0)  -->
<svg version="1.1" xmlns="http://www.w3.org/2000/svg" xmlns:xlink="http://www.w3.org/1999/xlink" x="0px" y="0px"
	 viewBox="0 0 406 395" style="enable-background:new 0 0 406 395;" xml:space="preserve">
<style type="text/css">
	.st0{display:none;}
	.st1{display:inline;}
	.st2{display:none;fill:#FFFFFF;}
	.st3{fill:#45567C;}
</style>
<g id="Layer_1" class="st0">
	<g class="st1">
		<path class="st2" d="M6.8,190c0-63.1,0-126.2,0-189.2c131.5,0,263.1,0,394.6,0c0,131.5,0,263.1,0,394.6c-131.5,0-263.1,0-394.6,0
			c0-63.3,0-126.7,0-190c0.2,1.1,0.6,2.2,0.7,3.3c2.4,21,10.5,39.6,25.1,54.9c25.7,26.8,57.2,36.8,93.4,28.7
			c30.4-6.8,51.8-26.2,67.8-52.2c9.7-15.9,15.1-33.5,21.3-50.9c6.2-17.3,14.8-33.2,27.7-46.5c20.4-21,45.1-30.5,74.2-25.4
			c44.3,7.8,73.1,48.1,66.8,92.8c-5.2,37.5-38.5,67.8-76.3,69c-29.2,0.9-52.8-10.3-70.4-33.8c-0.8-1.1-1.7-2.2-2.7-3.4
			c-4.5,2.9-8.8,5.6-13.1,8.4c5.9,9,12.6,16.7,20.8,23c30.4,23.4,63.8,28.6,99.1,13.8c57.7-24.2,77.4-94.8,41.1-145.8
			c-34.2-48-103.2-56.6-149-11.2c-16.8,16.6-27.6,36.8-34.9,58.9c-6.4,19.3-13.1,38.3-25.8,54.5c-21.6,27.5-49.2,40.5-84.5,34.1
			c-34.2-6.2-62.4-37.3-64.9-71.8c-2.3-31.1,9.1-56.1,34.1-74.7c34.6-25.6,86.4-17.5,111.9,17.2c1.3,1.7,2.6,3.4,3.9,5.2
			c4.6-2.9,8.7-5.6,13.8-8.9c-6-6.6-11.2-13.5-17.5-19.1c-22.8-20.1-49.5-28.7-79.7-23.8c-36.3,5.8-61.6,26.4-75.7,60.2
			C10.2,170.7,9.1,180.6,6.8,190z"/>
	</g>
</g>
<g id="Layer_2">
	<path class="st3" d="M155.6,2.3c8.6,1.9,16,5.8,19.6,14.2c1.8,4.2,2.8,9.1,2.9,13.6c0.2,38.3,0.2,76.5,0.1,114.8
		c0,13.8-6.8,23.3-19,26.6c-3.3,0.9-6.8,1-10.2,1c-36.5,0.1-73,0-109.4,0c-19.1,0-25.5-4.6-31.6-22.6c0-41.8,0-83.7,0-125.5
		c1.7-3.9,3-8.1,5.2-11.7c3.8-6.2,10.2-8.7,17-10.5C71.9,2.3,113.7,2.3,155.6,2.3z M92.8,155.7c19,0,38,0,57,0
		c8.5,0,11.4-2.8,11.4-11.1c0-38,0-76,0-114c0-8.2-3.1-11.3-11.3-11.3c-37.9,0-75.8,0-113.6,0c-8.3,0-11.5,3.2-11.5,11.6
		c0,37.8,0,75.5,0,113.3c0,8.5,3,11.6,11.4,11.6C55,155.7,73.9,155.7,92.8,155.7z"/>
	<path class="st3" d="M399.7,150.1c-1.4,5.6-3.3,10.9-7.6,15.1c-5.5,5.4-12.2,7.5-19.8,7.5c-38.5,0-77,0.1-115.5,0
		c-13.7,0-23.2-7.1-26.4-19.3c-0.8-3.2-0.9-6.6-0.9-9.8c-0.1-36.6,0.3-73.2-0.2-109.8C229,17.1,235.7,5.8,252,2.3
		c41.8,0,83.7,0,125.5,0c3.9,1.7,8.1,3,11.6,5.2c6.2,3.8,8.7,10.2,10.6,17C399.7,66.4,399.7,108.2,399.7,150.1z M314.3,155.7
		c18.9,0,37.8,0,56.6,0c9,0,11.8-2.9,11.8-11.9c0-37.5,0-75,0-112.5c0-9-3-12-11.9-12c-37.6,0-75.2,0-112.9,0
		c-8.7,0-11.7,2.9-11.7,11.7c0,37.8,0,75.5,0,113.3c0,8.7,2.8,11.5,11.4,11.5C276.6,155.7,295.5,155.7,314.3,155.7z"/>
	<path class="st3" d="M7.8,246.5c1.7-4.1,2.8-8.5,5.2-12.1c5.1-7.5,12.8-10.5,21.8-10.5c38.8,0,77.5-0.1,116.3,0.1
		c16.4,0.1,26.8,10.5,26.9,26.9c0.2,38.8,0,77.5,0.1,116.3c0,11-5.3,23.3-22.6,27.1c-41.8,0-83.7,0-125.5,0c-3.9-1.7-8.1-3-11.6-5.2
		c-6.2-3.8-8.7-10.2-10.6-17C7.8,330.2,7.8,288.3,7.8,246.5z M93.1,240.8c-18.9,0-37.8,0-56.6,0c-8.8,0-11.8,2.9-11.8,11.6
		c0,37.6,0,75.2,0,112.9c0,9,3,12,11.9,12c37.6,0,75.2,0,112.9,0c8.7,0,11.6-2.9,11.6-11.7c0-37.8,0-75.5,0-113.3
		c0-8.7-2.8-11.5-11.4-11.5C130.9,240.8,112,240.8,93.1,240.8z"/>
	<path class="st3" d="M252,394.2c-8.6-1.9-16-5.8-19.6-14.2c-1.8-4.2-2.8-9.1-2.9-13.6c-0.2-38.3-0.2-76.5-0.1-114.8
		c0-13.8,6.8-23.3,19-26.6c3.3-0.9,6.8-1,10.2-1c36.5-0.1,73,0,109.4,0c19.1,0,25.5,4.6,31.6,22.6c0,41.8,0,83.7,0,125.5
		c-1.7,3.9-3,8.1-5.2,11.6c-3.8,6.2-10.2,8.7-17,10.5C335.7,394.2,293.8,394.2,252,394.2z M314.7,240.8c-19.1,0-38.3,0-57.4,0
		c-8.1,0-11,2.9-11,11.1c0,38,0,76,0,114c0,8.2,3.1,11.3,11.3,11.3c37.9,0,75.8,0,113.6,0c8.3,0,11.5-3.2,11.5-11.6
		c0-37.8,0-75.5,0-113.3c0-8.6-3-11.6-11.4-11.6C352.5,240.8,333.6,240.8,314.7,240.8z"/>
</g>
</svg>
