<svg xmlns="http://www.w3.org/2000/svg" viewBox="0 0 383.28 379.87"><g id="Layer_2" data-name="Layer 2"><g id="Layer_1-2" data-name="Layer 1"><path d="M383.28,300.92c-2.74,5.2-7,6.93-12.86,6.81-14.72-.29-29.45-.25-44.17-.05-16.84.22-32.88,4.25-48.69,10-56.33,20.5-112.79,40.66-169.2,60.94-8.07,2.9-12.45.83-15.35-7.24L50.89,254.05c-.33-.93-.68-1.87-.92-2.84a5.5,5.5,0,0,1,3.59-6.86,5.27,5.27,0,0,1,6.85,3c1.22,2.58,2.07,5.33,3,8Q83,309.82,102.56,364.27c.41,1.14.92,2.25,1.55,3.79L224.6,324.74l-.17-.82c-5.53.92-11.07,1.8-16.59,2.75q-42.14,7.24-84.27,14.5a9.4,9.4,0,0,1-11.28-7.85c-3.56-20-7-40-10.41-60q-8-46.94-16-93.88-7.33-42.89-14.74-85.76c-.09-.48-.19-1-.45-2.27l-58.94,20.2c7.53,20.93,14.9,41.41,22.26,61.89Q42.78,198,51.58,222.35c1,2.77,1.31,5.35-1.11,7.56-3.22,2.94-7.66,1.51-9.37-3.16-4.4-12-8.71-24.1-13-36.16Q14.59,153.18,1.16,115.77C-1.6,108.08.49,103.66,8.21,101Q37.31,90.9,66.42,80.87c.69-.24,1.37-.55,2.26-.92-1-6-2-12-2.93-18-1-6.58,2.09-10.69,8.78-11.85l60.72-10.45c.48-.09.94-.22,1.8-.42,0-7.86.33-15.71-.07-23.52C136.25,1.62,142.27,0,152.77,0q85.9.29,171.8,0a15.51,15.51,0,0,1,11.65,4.72c13.52,13.12,27.24,26,40.87,39,2.13,2,4.13,4.19,6.19,6.29ZM123.1,329.68l125-21.44-.06-.6H149.27c-8.72,0-12.21-3.5-12.21-12.23q0-53,0-105.94a25.21,25.21,0,0,1,0-2.61c.33-3.37,2.81-5.73,5.85-5.64s5.14,2.34,5.42,5.59c.11,1.37.07,2.75.07,4.12V296.19H371.77V59.48c-4.28,0-8.26,0-12.25,0-9.23-.09-18.47.08-27.67-.44-7.78-.44-12.07-5.46-12.26-13.28-.11-4.37-.06-8.74-.07-13.1,0-6.84,0-13.67,0-20.68H148.43V156.73c0,1.24,0,2.49,0,3.74-.24,3.77-2.5,6.13-5.74,6s-5.42-2.6-5.59-6.29c0-1,0-2,0-3V50.84l-60,10.33C92.44,150.8,107.7,239.86,123.1,329.68ZM364.94,47.91l-34.08-32.5c0,10.66-.08,20.43.13,30.19,0,.79,1.92,2.19,3,2.21C343.89,48,353.83,47.91,364.94,47.91Z"/><path d="M261.64,93.26h-78.2c-5.15-.05-8.06-2.14-8.06-5.79s2.92-5.76,8.06-5.76h156a13.63,13.63,0,0,1,3.33.28c2.88.74,4.55,2.65,4.45,5.65a5.17,5.17,0,0,1-4.45,5.25,21.28,21.28,0,0,1-4.45.34Q300,93.27,261.64,93.26Z"/><path d="M260.86,252.86h-76.7a18.6,18.6,0,0,1-4.09-.25c-2.88-.66-4.67-2.63-4.62-5.56s1.87-5.08,5-5.54a22.12,22.12,0,0,1,3.36-.15H340.24c4.4.12,7,2.14,7,5.57.1,3.59-2.56,5.91-7.1,5.92q-27.87.06-55.75,0Z"/><path d="M261.66,161.66h77.45a17.91,17.91,0,0,1,3.36.08c3.1.59,4.87,2.58,4.76,5.73-.09,3-1.85,4.81-4.81,5.34a12.83,12.83,0,0,1-2.24.05H182.67a15.34,15.34,0,0,1-2.25,0c-3.21-.45-5-2.54-5-5.58a5.27,5.27,0,0,1,5-5.53,25.22,25.22,0,0,1,3.37-.05Z"/><path d="M261.31,121.74h77.44c5.79,0,8.45,1.73,8.53,5.51.09,4-2.7,5.86-8.61,5.86H184.15a26.88,26.88,0,0,1-3.36-.06,5.93,5.93,0,0,1-5.41-5.71,5.69,5.69,0,0,1,5.49-5.52c1.24-.11,2.5-.08,3.74-.08Z"/><path d="M260.87,212.78H183.42c-5.29,0-8.07-2-8-5.65s2.91-5.72,8.09-5.72q77.82,0,155.64,0a14.35,14.35,0,0,1,4.4.51,5.52,5.52,0,0,1-1.09,10.7,33.08,33.08,0,0,1-4.11.14Z"/></g></g></svg>