<svg width="1440" height="257" viewBox="0 0 1440 257" fill="none" xmlns="http://www.w3.org/2000/svg">
<path d="M310 1.00012C169.903 -6.11917 61.0424 26.7357 0 26.7357V257H1440V35.6348L1348 22.0004L1264 35.6348C1264 35.6348 1202.5 55.5004 1164 53.0004C1125.5 50.5004 1113 48.0004 1113 48.0004L1015 28.9605L993.5 27.5004L970 28.9605L869 59.0004C816 72.0004 818 67.0004 798 72.0004C778 77.0004 751 77.5004 705 80.0004L679.5 81.5004L654 80.0004L597 67.0004L504.35 35.6348C494.01 35.6348 402.064 1.00012 310 1.00012Z" fill="#3b00a2"/>
</svg>
