<?xml version="1.0" encoding="utf-8"?>
<!-- Generator: Adobe Illustrator 25.0.0, SVG Export Plug-In . SVG Version: 6.00 Build 0)  -->
<svg version="1.1" id="Layer_1" xmlns="http://www.w3.org/2000/svg" xmlns:xlink="http://www.w3.org/1999/xlink" x="0px" y="0px"
	 viewBox="0 0 44.6 44.6" style="enable-background:new 0 0 44.6 44.6;" xml:space="preserve">
<style type="text/css">
	.st0{fill:#333333;}
</style>
<g transform="translate(22.3) rotate(45)">
	<path class="st0" d="M23.1,0c-4.7,0-8.5,3.8-8.5,8.5v2.4c0,0.6,0.5,1.2,1.2,1.2c0.7,0,1.2-0.5,1.2-1.2V8.5c0-3.4,2.7-6.1,6.1-6.1
		s6.1,2.7,6.1,6.1s-2.7,6.1-6.1,6.1l0,0H8.5c-4.7,0-8.5,3.8-8.5,8.5s3.8,8.5,8.5,8.5s8.5-3.8,8.5-8.5v-2.3c0-0.6-0.5-1.2-1.2-1.2
		c-0.6,0-1.2,0.5-1.2,1.2v2.3c0,3.4-2.7,6.1-6.1,6.1s-6.1-2.7-6.1-6.1S5.1,17,8.5,17l0,0h14.6c4.7,0,8.5-3.8,8.5-8.5
		C31.5,3.8,27.7,0,23.1,0z"/>
</g>
</svg>
