<?xml version="1.0" encoding="utf-8"?>
<!-- Generator: Adobe Illustrator 25.0.0, SVG Export Plug-In . SVG Version: 6.00 Build 0)  -->
<svg version="1.1" id="Layer_1" xmlns="http://www.w3.org/2000/svg" xmlns:xlink="http://www.w3.org/1999/xlink" x="0px" y="0px"
	 viewBox="0 0 62.8 57.6" style="enable-background:new 0 0 62.8 57.6;" xml:space="preserve">
<style type="text/css">
	.st0{fill:#ECEFF1;}
	.st1{fill:#FFC107;}
	.st2{fill:#36B3FF;}
	.st3{fill:#009BFF;}
</style>
<path class="st0" d="M16.3,45.8c-4.2,0-7.9-2.7-9.3-6.7l0-0.3c-0.3-0.9-0.4-1.9-0.5-2.8V18.1L0.2,39.3c-0.8,3.1,1,6.3,4.2,7.2
	l40.5,10.8c0.5,0.1,1,0.2,1.5,0.2c2.6,0,5-1.7,5.7-4.3l2.4-7.5L16.3,45.8z"/>
<path class="st0" d="M62.8,5.9V36c0,3.2-2.6,5.9-5.9,5.9H16.3c-0.3,0-0.5,0-0.8-0.1c-2.8-0.3-4.9-2.6-5.1-5.4c0-0.2,0-0.3,0-0.5v-30
	C10.4,2.7,13,0,16.3,0h40.5C60.1,0,62.8,2.6,62.8,5.9z"/>
<path class="st1" d="M28.8,13.1c0,2.9-2.3,5.2-5.2,5.2s-5.2-2.3-5.2-5.2s2.3-5.2,5.2-5.2l0,0C26.4,7.8,28.8,10.2,28.8,13.1z"/>
<path class="st2" d="M62.8,28.6V36c0,3.2-2.6,5.9-5.9,5.9H16.3c-0.3,0-0.5,0-0.8-0.1l26.9-26.9c1.8-1.8,4.7-1.8,6.5,0L62.8,28.6z"/>
<path class="st3" d="M47.2,41.9H16.4c-0.3,0-0.5,0-0.8-0.1c-2.8-0.3-4.9-2.6-5.1-5.4L22.9,24c1.8-1.8,4.7-1.8,6.5,0L47.2,41.9z"/>
</svg>
