<?xml version="1.0" encoding="utf-8"?>
<!-- Generator: Adobe Illustrator 27.3.1, SVG Export Plug-In . SVG Version: 6.00 Build 0)  -->
<svg version="1.1" id="Layer_1" xmlns="http://www.w3.org/2000/svg" xmlns:xlink="http://www.w3.org/1999/xlink" x="0px" y="0px"
	 viewBox="0 0 5225.1 1347.4" style="enable-background:new 0 0 5225.1 1347.4;" xml:space="preserve">
<style type="text/css">
	.st0{fill:#3B00A2;}
	.st1{fill:#FFFFFF;}
	.st2{clip-path:url(#SVGID_00000029763885460213897280000000441852894327622071_);}
	.st3{fill:#BFBFBF;}
	.st4{fill:#070707;fill-opacity:0;}
	.st5{opacity:6.090000e-02;fill:#070707;enable-background:new    ;}
	.st6{opacity:0.1218;fill:#070707;enable-background:new    ;}
	.st7{opacity:0.1827;fill:#070707;enable-background:new    ;}
	.st8{opacity:0.2436;fill:#070707;enable-background:new    ;}
	.st9{opacity:0.3045;fill:#070707;enable-background:new    ;}
	.st10{opacity:0.3655;fill:#070707;enable-background:new    ;}
	.st11{opacity:0.4264;fill:#070707;enable-background:new    ;}
	.st12{opacity:0.4873;fill:#070707;enable-background:new    ;}
	.st13{opacity:0.5482;fill:#070707;enable-background:new    ;}
	.st14{opacity:0.6091;fill:#070707;enable-background:new    ;}
	.st15{opacity:0.67;fill:#070707;enable-background:new    ;}
</style>
<g>
	<g>
		<path d="M2449.3,448.6c11.4,15.8,17.2,33.8,17.2,54c0,29.2-9.5,52.4-28.5,69.4c-19,17.1-45.5,25.6-79.6,25.6h-151.7V248.3h146.6
			c33.1,0,59,8.1,77.7,24.4c18.7,16.3,28.1,38.3,28.1,66.2c0,20.6-5,37.7-15.1,51.3c-10.1,13.6-23.4,23.1-40.1,28.4
			C2422.7,422.8,2437.8,432.9,2449.3,448.6z M2286,389.6h52c13,0,23-3.1,29.9-9.2s10.4-15.2,10.4-27.1c0-11.9-3.5-21.1-10.4-27.4
			c-7-6.3-16.9-9.5-29.9-9.5h-52V389.6z M2375.3,519.3c7.3-6.5,10.9-15.8,10.9-28.1c0-12.3-3.8-21.9-11.4-28.9
			c-7.6-7-18-10.5-31.3-10.5H2286V529h58.5C2357.7,529,2368,525.8,2375.3,519.3z"/>
		<path d="M2715.1,536h-121.6l-19.5,61.7h-83l117.8-349.5h91.9l117.8,349.5h-84L2715.1,536z M2694.7,470.3l-40.4-128l-39.9,128
			H2694.7z"/>
		<path d="M3043.1,597.7l-109.5-154.3v154.3h-79.3V248.3h79.3v153.3l108.6-153.3h93.2l-126.2,171.3l130.8,178.2L3043.1,597.7
			L3043.1,597.7z"/>
		<path d="M3393.8,358.8c-5.9-11.6-14.3-20.5-25.3-26.6c-11-6.1-23.9-9.2-38.7-9.2c-25.7,0-46.2,9-61.7,27.1
			c-15.5,18.1-23.2,42.2-23.2,72.4c0,32.2,8.1,57.3,24.4,75.4c16.2,18.1,38.6,27.1,67,27.1c19.5,0,36-5.3,49.4-15.9
			c13.4-10.6,23.3-25.9,29.5-45.8h-100.7v-62.7h172.6v79.2c-5.9,21.2-15.9,41-29.9,59.2c-14.1,18.3-31.9,33-53.6,44.3
			c-21.7,11.3-46.1,16.9-73.3,16.9c-32.2,0-60.8-7.5-86.1-22.7c-25.2-15.1-44.8-36.1-58.9-63c-14.1-26.9-21.1-57.6-21.1-92.1
			c0-34.5,7-65.3,21.1-92.4c14.1-27,33.6-48.1,58.7-63.2c25-15.1,53.7-22.7,85.8-22.7c39,0,71.8,10.1,98.6,30.4
			c26.8,20.3,44.5,48.3,53.1,84.1L3393.8,358.8L3393.8,358.8z"/>
		<path d="M3697.2,597.7l-67.7-131.9h-19v131.9h-79.3V248.3h133.1c25.7,0,47.6,4.8,65.6,14.4c18.1,9.6,31.6,22.8,40.6,39.6
			c9,16.8,13.4,35.4,13.4,56c0,23.2-6.1,44-18.3,62.2c-12.2,18.3-30.2,31.2-54.1,38.8l75.1,138.4L3697.2,597.7L3697.2,597.7z
			 M3610.5,405.6h49.2c14.5,0,25.4-3.8,32.7-11.4c7.3-7.6,10.9-18.4,10.9-32.4c0-13.3-3.6-23.7-10.9-31.4
			c-7.3-7.6-18.2-11.4-32.7-11.4h-49.2V405.6z"/>
		<path d="M3903.4,578.3c-25.5-15.3-45.8-36.6-60.8-64c-15-27.4-22.5-58.2-22.5-92.4c0-34.2,7.5-64.9,22.5-92.1
			c15-27.2,35.3-48.5,60.8-63.7c25.5-15.3,53.6-22.9,84.2-22.9c30.6,0,58.7,7.6,84.2,22.9c25.5,15.3,45.6,36.5,60.3,63.7
			c14.7,27.2,22,57.9,22,92.1s-7.4,65-22.3,92.4c-14.8,27.4-34.9,48.7-60.3,64c-25.4,15.3-53.4,22.9-84,22.9
			C3957,601.2,3929,593.6,3903.4,578.3z M4050,495.7c15.6-18.6,23.4-43.1,23.4-73.7c0-30.9-7.8-55.5-23.4-73.9
			c-15.6-18.4-36.4-27.6-62.4-27.6c-26.3,0-47.2,9.1-62.9,27.4c-15.6,18.3-23.4,43-23.4,74.2c0,30.9,7.8,55.5,23.4,73.9
			c15.6,18.4,36.6,27.6,62.9,27.6C4013.6,523.6,4034.4,514.3,4050,495.7z"/>
		<path d="M4276.2,248.3v209.1c0,20.9,4.8,37,14.4,48.3c9.6,11.3,23.7,16.9,42.2,16.9s32.8-5.6,42.7-16.9
			c9.9-11.3,14.8-27.4,14.8-48.3V248.3h79.3v208.6c0,31.2-6.2,57.6-18.6,79.2c-12.4,21.6-29,37.8-49.9,48.8
			c-20.9,11-44.2,16.4-69.8,16.4c-25.7,0-48.6-5.4-68.9-16.2c-20.3-10.8-36.3-27-48-48.8c-11.8-21.7-17.6-48.2-17.6-79.4V248.2
			L4276.2,248.3L4276.2,248.3z"/>
		<path d="M4816.7,597.7h-79.3l-132.7-215.6v215.6h-79.3V248.3h79.3l132.7,216.6V248.3h79.3V597.7z"/>
		<path d="M5086.2,270.2c25.7,14.6,45.5,35.1,59.6,61.5c14.1,26.4,21.1,56.8,21.1,91.4c0,34.2-7,64.6-21.1,91.1
			c-14.1,26.6-34,47.1-59.9,61.7c-25.8,14.6-55.7,21.9-89.8,21.9h-122V248.3h122C5030.5,248.3,5060.5,255.6,5086.2,270.2z
			 M5061.2,497.7c16.7-17.6,25-42.5,25-74.7c0-32.2-8.3-57.3-25-75.2c-16.7-17.9-40.1-26.9-70.1-26.9h-37.6v203.1h37.6
			C5021.1,524.1,5044.5,515.3,5061.2,497.7z"/>
	</g>
	<g>
		<path class="st0" d="M2683.3,1125.6l-64.4-125.5c-2-3.9-6.1-6.4-10.5-6.4l0,0c-6.5,0-11.8,5.3-11.8,11.8v108.3
			c0,6.5-5.3,11.8-11.8,11.8h-55.7c-6.5,0-11.8-5.3-11.8-11.8V787.9c0-6.5,5.3-11.8,11.8-11.8h121.3c25.7,0,47.6,4.8,65.6,14.4
			c18.1,9.6,31.6,22.8,40.6,39.6c9,16.8,13.4,35.4,13.4,56c0,23.2-6.1,44-18.3,62.2c-10,15-24,26.4-41.8,34.2
			c-6.4,2.8-9.1,10.4-5.7,16.5l59.2,109.1c4.3,7.9-1.4,17.5-10.4,17.5L2683.3,1125.6L2683.3,1125.6z M2596.6,921.6
			c0,6.5,5.3,11.8,11.8,11.8h37.4c14.5,0,25.4-3.8,32.7-11.4c7.3-7.6,10.9-18.4,10.9-32.4c0-13.3-3.6-23.7-10.9-31.4
			c-7.3-7.6-18.2-11.4-32.7-11.4h-37.4c-6.5,0-11.8,5.3-11.8,11.8V921.6z"/>
		<path class="st0" d="M2899.1,856.1v47.1c0,6.5,5.3,11.8,11.8,11.8h82.6c6.5,0,11.8,5.3,11.8,11.8v42.1c0,6.5-5.3,11.8-11.8,11.8
			h-82.6c-6.5,0-11.8,5.3-11.8,11.8v53c0,6.5,5.3,11.8,11.8,11.8h96.5c6.5,0,11.8,5.3,11.8,11.8v44.6c0,6.5-5.3,11.8-11.8,11.8
			h-175.9c-6.5,0-11.8-5.3-11.8-11.8V787.9c0-6.5,5.3-11.8,11.8-11.8h175.9c6.5,0,11.8,5.3,11.8,11.8v44.6c0,6.5-5.3,11.8-11.8,11.8
			h-96.5C2904.3,844.3,2899.1,849.6,2899.1,856.1z"/>
		<path class="st0" d="M3439.5,787.9v325.9c0,6.5-5.3,11.8-11.8,11.8H3372c-6.5,0-11.8-5.3-11.8-11.8V986c0-13.3-18.6-16.5-23-3.9
			l-47.1,135.6c-1.7,4.8-6.1,7.9-11.2,7.9h-47.2c-5,0-9.5-3.2-11.2-7.9L3173,981.3c-4.4-12.6-23-9.4-23,3.9v128.6
			c0,6.5-5.3,11.8-11.8,11.8h-55.7c-6.5,0-11.8-5.3-11.8-11.8V787.9c0-6.5,5.3-11.8,11.8-11.8h73.7c4.9,0,9.3,3,11.1,7.6l77.4,204.9
			c3.9,10.2,18.3,10.2,22.1,0l76.6-204.8c1.7-4.6,6.1-7.7,11.1-7.7h73.2C3434.2,776.1,3439.5,781.4,3439.5,787.9z"/>
		<path class="st0" d="M3566.4,1106.2c-25.5-15.3-45.8-36.6-60.8-64c-15-27.4-22.5-58.2-22.5-92.4c0-34.2,7.5-64.9,22.5-92.1
			c15-27.2,35.3-48.4,60.8-63.7c25.5-15.3,53.6-22.9,84.2-22.9c30.6,0,58.7,7.6,84.2,22.9c25.5,15.3,45.6,36.5,60.3,63.7
			c14.7,27.2,22,57.9,22,92.1s-7.4,65-22.3,92.4c-14.8,27.4-34.9,48.7-60.3,64c-25.4,15.3-53.4,22.9-84,22.9
			C3620,1129.1,3591.9,1121.4,3566.4,1106.2z M3713,1023.5c15.6-18.6,23.4-43.1,23.4-73.7c0-30.9-7.8-55.5-23.4-73.9
			c-15.6-18.4-36.4-27.6-62.4-27.6c-26.3,0-47.2,9.1-62.9,27.4c-15.6,18.3-23.4,43-23.4,74.2c0,30.9,7.8,55.5,23.4,73.9
			c15.6,18.4,36.6,27.6,62.9,27.6C3676.6,1051.4,3697.4,1042.1,3713,1023.5z"/>
		<path class="st0" d="M4161.8,791.6l-107.7,325.9c-1.6,4.8-6.1,8.1-11.2,8.1h-82.2c-5.1,0-9.6-3.3-11.2-8.1l-107.7-325.9
			c-2.5-7.6,3.2-15.5,11.2-15.5h59.3c5.2,0,9.8,3.4,11.3,8.4l66.9,218.7c3.4,11.1,19.2,11.1,22.6,0l67.3-218.7
			c1.5-5,6.1-8.3,11.3-8.3h58.9C4158.7,776.1,4164.4,784,4161.8,791.6z"/>
		<path class="st0" d="M4279.2,856.1v47.1c0,6.5,5.3,11.8,11.8,11.8h82.6c6.5,0,11.8,5.3,11.8,11.8v42.1c0,6.5-5.3,11.8-11.8,11.8
			H4291c-6.5,0-11.8,5.3-11.8,11.8v53c0,6.5,5.3,11.8,11.8,11.8h96.5c6.5,0,11.8,5.3,11.8,11.8v44.6c0,6.5-5.3,11.8-11.8,11.8
			h-175.9c-6.5,0-11.8-5.3-11.8-11.8V787.9c0-6.5,5.3-11.8,11.8-11.8h175.9c6.5,0,11.8,5.3,11.8,11.8v44.6c0,6.5-5.3,11.8-11.8,11.8
			H4291C4284.5,844.3,4279.2,849.6,4279.2,856.1z"/>
		<path class="st0" d="M4616.9,1125.6l-64.4-125.5c-2-3.9-6.1-6.4-10.5-6.4l0,0c-6.5,0-11.8,5.3-11.8,11.8v108.3
			c0,6.5-5.3,11.8-11.8,11.8h-55.7c-6.5,0-11.8-5.3-11.8-11.8V787.9c0-6.5,5.3-11.8,11.8-11.8H4584c25.7,0,47.6,4.8,65.6,14.4
			c18.1,9.6,31.6,22.8,40.6,39.6c9,16.8,13.4,35.4,13.4,56c0,23.2-6.1,44-18.3,62.2c-10,15-24,26.4-41.8,34.2
			c-6.4,2.8-9.1,10.4-5.7,16.5l59.2,109.1c4.3,7.9-1.4,17.5-10.4,17.5L4616.9,1125.6L4616.9,1125.6z M4530.2,921.6
			c0,6.5,5.3,11.8,11.8,11.8h37.4c14.5,0,25.4-3.8,32.7-11.4c7.3-7.6,10.9-18.4,10.9-32.4c0-13.3-3.6-23.7-10.9-31.4
			c-7.3-7.6-18.2-11.4-32.7-11.4H4542c-6.5,0-11.8,5.3-11.8,11.8V921.6z"/>
	</g>
	<g>
		<g>
			<rect x="53" y="93.7" class="st1" width="1912.7" height="1130.2"/>
		</g>
		<g>
			<g>
				<defs>
					<path id="SVGID_1_" d="M1268.2,845.5v-33.7l-79.6-47c-4.6,6.3-9.7,12.5-15.3,18.5c-18.1,19.3-41,35-68.8,46.9
						c-27.8,12-59.1,17.9-94.1,17.9c-41.3,0-78.1-8-110.4-24c-32.3-16-57.5-38.2-75.6-66.7s-27.1-61-27.1-97.6s9-69.2,27.1-97.8
						c1.9-3.1,3.9-6,6-8.9L53,93.7v1131.9h1912.7v-1.7l-640.3-378.4L1268.2,845.5L1268.2,845.5z M719.1,818.4
						c-24.4,18.1-58.5,27.2-102.1,27.2H422.4V475.3h188.1c42.5,0,75.7,8.6,99.7,25.8c24,17.2,36,40.6,36,70.1
						c0,21.8-6.4,39.9-19.3,54.3C714,640,696.8,650,675.4,655.7c24.2,4.6,43.6,15.2,58.3,31.9c14.7,16.7,22,35.8,22,57.2
						C755.7,775.7,743.5,800.3,719.1,818.4z"/>
				</defs>
				<clipPath id="SVGID_00000034056201586087487650000000868755766313387949_">
					<use xlink:href="#SVGID_1_"  style="overflow:visible;"/>
				</clipPath>
				<g style="clip-path:url(#SVGID_00000034056201586087487650000000868755766313387949_);">
					<g>
						<rect x="-280.3" y="-11" class="st3" width="228.6" height="253.8"/>
					</g>
					<g>
						<rect x="-59.3" y="242.8" class="st3" width="228.6" height="253.8"/>
					</g>
					<g>
						<rect x="-59.3" y="242.8" class="st3" width="228.6" height="253.8"/>
					</g>
					<g>
						<rect x="177.2" y="-11" class="st3" width="228.6" height="253.8"/>
					</g>
					<g>
						<rect x="398.2" y="242.8" class="st3" width="228.6" height="253.8"/>
					</g>
					<g>
						<rect x="398.2" y="242.8" class="st3" width="228.6" height="253.8"/>
					</g>
					<g>
						<rect x="634.7" y="-11" class="st3" width="228.6" height="253.8"/>
					</g>
					<g>
						<rect x="855.7" y="242.8" class="st3" width="228.6" height="253.8"/>
					</g>
					<g>
						<rect x="855.7" y="242.8" class="st3" width="228.6" height="253.8"/>
					</g>
					<g>
						<rect x="1092.2" y="-11" class="st3" width="228.6" height="253.8"/>
					</g>
					<g>
						<rect x="1313.2" y="242.8" class="st3" width="228.6" height="253.8"/>
					</g>
					<g>
						<rect x="1313.2" y="242.8" class="st3" width="228.6" height="253.8"/>
					</g>
					<g>
						<rect x="1549.7" y="-11" class="st3" width="228.6" height="253.8"/>
					</g>
					<g>
						<rect x="1770.7" y="242.8" class="st3" width="228.6" height="253.8"/>
					</g>
					<g>
						<rect x="1770.7" y="242.8" class="st3" width="228.6" height="253.8"/>
					</g>
					<g>
						<rect x="2007.2" y="-11" class="st3" width="228.6" height="253.8"/>
					</g>
					<g>
						<rect x="2228.2" y="242.8" class="st3" width="228.6" height="253.8"/>
					</g>
					<g>
						<rect x="2228.2" y="242.8" class="st3" width="228.6" height="253.8"/>
					</g>
					<g>
						<rect x="-284.2" y="496.6" class="st3" width="228.6" height="253.8"/>
					</g>
					<g>
						<rect x="-63.3" y="750.4" class="st3" width="228.6" height="253.8"/>
					</g>
					<g>
						<rect x="-63.3" y="750.4" class="st3" width="228.6" height="253.8"/>
					</g>
					<g>
						<rect x="173.3" y="496.6" class="st3" width="228.6" height="253.8"/>
					</g>
					<g>
						<rect x="394.2" y="750.4" class="st3" width="228.6" height="253.8"/>
					</g>
					<g>
						<rect x="394.2" y="750.4" class="st3" width="228.6" height="253.8"/>
					</g>
					<g>
						<rect x="630.8" y="496.6" class="st3" width="228.6" height="253.8"/>
					</g>
					<g>
						<rect x="851.7" y="750.4" class="st3" width="228.6" height="253.8"/>
					</g>
					<g>
						<rect x="851.7" y="750.4" class="st3" width="228.6" height="253.8"/>
					</g>
					<g>
						<rect x="1088.3" y="496.6" class="st3" width="228.6" height="253.8"/>
					</g>
					<g>
						<rect x="1309.2" y="750.4" class="st3" width="228.6" height="253.8"/>
					</g>
					<g>
						<rect x="1309.2" y="750.4" class="st3" width="228.6" height="253.8"/>
					</g>
					<g>
						<rect x="1545.8" y="496.6" class="st3" width="228.6" height="253.8"/>
					</g>
					<g>
						<rect x="1766.8" y="750.4" class="st3" width="228.6" height="253.8"/>
					</g>
					<g>
						<rect x="1766.8" y="750.4" class="st3" width="228.6" height="253.8"/>
					</g>
					<g>
						<rect x="2003.3" y="496.6" class="st3" width="228.6" height="253.8"/>
					</g>
					<g>
						<rect x="2224.3" y="750.4" class="st3" width="228.6" height="253.8"/>
					</g>
					<g>
						<rect x="2224.3" y="750.4" class="st3" width="228.6" height="253.8"/>
					</g>
					<g>
						<rect x="-288.2" y="1004.1" class="st3" width="228.6" height="253.8"/>
					</g>
					<g>
						<rect x="169.3" y="1004.1" class="st3" width="228.6" height="253.8"/>
					</g>
					<g>
						<rect x="626.8" y="1004.1" class="st3" width="228.6" height="253.8"/>
					</g>
					<g>
						<rect x="1084.3" y="1004.1" class="st3" width="228.6" height="253.8"/>
					</g>
					<g>
						<rect x="1541.8" y="1004.1" class="st3" width="228.6" height="253.8"/>
					</g>
					<g>
						<rect x="1999.4" y="1004.1" class="st3" width="228.6" height="253.8"/>
					</g>
				</g>
			</g>
		</g>
		<g>
			<path class="st0" d="M53,93.7l777.5,459.5c17.5-24.4,40.5-43.8,69.3-58c32.2-16,68.8-24,110.1-24c50,0,92.2,10.7,126.5,32.2
				c34.3,21.5,57.1,51.2,68.2,89.1H1092c-7.5-12.3-18.4-21.7-32.4-28.2c-14.1-6.5-30.7-9.8-49.7-9.8c-32.9,0-59.3,9.6-79.2,28.7
				c-6.2,6-11.5,12.6-15.7,19.9l75.3,44.5v-10.9h221.4v83.9c-5.2,15.5-12.9,30.2-23.1,44.2l79.6,47V475.3h170.9
				c32.9,0,61,5.1,84.2,15.3c23.2,10.2,40.6,24.2,52.1,41.9c11.5,17.8,17.3,37.5,17.3,59.3c0,24.6-7.8,46.6-23.5,65.9
				c-15.7,19.3-38.8,33.1-69.4,41.1l96.4,146.6h-114.9l-86.9-139.8H1370v139.8h-44.7l640.3,378.4V93.7L53,93.7L53,93.7z"/>
		</g>
		<g>
			<path class="st0" d="M1475.1,629.8c9.3-8.1,14-19.5,14-34.3c0-14.1-4.7-25.1-14-33.2c-9.3-8.1-23.3-12.1-42-12.1H1370V642h63.1
				C1451.8,642,1465.8,637.9,1475.1,629.8z"/>
		</g>
		<g>
			<path class="st0" d="M1084.3,703.1l27.5,16.2c2.9-5,5.4-10.5,7.6-16.2H1084.3z"/>
		</g>
		<g>
			<path d="M675.4,655.7c21.4-5.6,38.6-15.6,51.5-30.1c12.9-14.4,19.3-32.5,19.3-54.3c0-29.5-12-52.9-36-70.1
				c-24-17.2-57.3-25.8-99.7-25.8H422.4v370.2H617c43.6,0,77.7-9,102.1-27.2c24.4-18.1,36.6-42.6,36.6-73.6c0-21.4-7.4-40.5-22-57.2
				C719,670.9,699.6,660.2,675.4,655.7z M524.2,547.6h66.7c16.7,0,29.5,3.3,38.4,10c8.9,6.7,13.4,16.4,13.4,29
				c0,12.7-4.5,22.2-13.4,28.7c-8.9,6.5-21.7,9.8-38.4,9.8h-66.7V547.6z M638.8,762.5c-9.3,6.9-22.5,10.3-39.6,10.3h-75V691H598
				c17.1,0,30.4,3.7,40.2,11.1c9.7,7.4,14.6,17.6,14.6,30.6C652.7,745.7,648.1,755.6,638.8,762.5z"/>
		</g>
		<g>
			<path class="st1" d="M1119.4,703.1c-2.2,5.8-4.7,11.2-7.6,16.2l76.8,45.4c10.2-14,17.9-28.7,23.1-44.2v-83.9H990.3v10.9
				l94.1,55.6L1119.4,703.1L1119.4,703.1z"/>
		</g>
		<g>
			<path class="st1" d="M930.7,583.2c19.8-19.2,46.2-28.7,79.2-28.7c19.1,0,35.6,3.3,49.7,9.8c14.1,6.5,24.9,15.9,32.4,28.2h112.5
				c-11.1-38-33.8-67.7-68.2-89.1c-34.3-21.4-76.5-32.2-126.5-32.2c-41.3,0-78,8-110.1,24c-28.7,14.3-51.8,33.6-69.3,58l84.5,49.9
				C919.3,595.8,924.5,589.2,930.7,583.2z"/>
		</g>
		<g>
			<polygon points="1084.3,703.1 990.3,647.5 990.3,703.1 			"/>
		</g>
		<g>
			<path d="M797.4,659.9c0,36.6,9,69.1,27.1,97.6c18.1,28.5,43.3,50.7,75.6,66.7c32.3,16,69.2,24,110.4,24c34.9,0,66.3-6,94.1-17.9
				c27.8-12,50.7-27.6,68.8-46.9c5.6-6,10.7-12.2,15.3-18.5l-76.8-45.4c-7.6,13.3-17.7,24.1-30.2,32.3
				c-17.3,11.2-38.4,16.9-63.4,16.9c-36.5,0-65.2-9.6-86-28.7C911.4,720.6,901,694,901,659.9c0-22,4.7-40.9,14-56.8l-84.5-49.9
				c-2.1,2.9-4.1,5.9-6,8.9C806.4,590.7,797.4,623.3,797.4,659.9z"/>
		</g>
		<g>
			<path class="st1" d="M1370,845.5V705.8h24.4l86.9,139.8h114.9l-96.4-146.6c30.6-8.1,53.7-21.8,69.4-41.1
				c15.7-19.3,23.5-41.3,23.5-65.9c0-21.8-5.8-41.6-17.3-59.3c-11.5-17.7-28.9-31.7-52.1-41.9c-23.2-10.2-51.3-15.3-84.2-15.3
				h-170.9v336.5l57.1,33.7L1370,845.5L1370,845.5z M1370,550.2h63.1c18.7,0,32.6,4,42,12.1c9.3,8.1,14,19.2,14,33.2
				c0,14.8-4.7,26.2-14,34.3c-9.3,8.1-23.3,12.1-42,12.1H1370V550.2z"/>
		</g>
		<g>
			<polygon points="1325.3,845.5 1268.2,811.8 1268.2,845.5 			"/>
		</g>
		<g>
			<path class="st4" d="M2062.7,1293.2H238.3v-1075h1824.4V1293.2z M179.3,183.4V1328h1942.4V183.4L179.3,183.4L179.3,183.4z"/>
			<path class="st5" d="M2049.1,1285.1H224.6V210h1824.4V1285.1z M165.6,175.3v1144.5H2108V175.3H165.6z"/>
			<path class="st6" d="M2035.3,1276.9H210.9v-1075h1824.4V1276.9z M151.9,167.1v1144.5h1942.4V167.1L151.9,167.1L151.9,167.1z"/>
			<path class="st7" d="M2021.6,1268.7H197.2v-1075h1824.4V1268.7z M138.2,159v1144.5h1942.4V159L138.2,159L138.2,159z"/>
			<path class="st8" d="M2008,1260.6H183.5v-1075H2008V1260.6z M124.5,150.8v1144.5h1942.4V150.8H124.5z"/>
			<path class="st9" d="M1994.2,1252.4H169.8v-1075h1824.4V1252.4z M110.8,142.6v1144.5h1942.4V142.6L110.8,142.6L110.8,142.6z"/>
			<path class="st10" d="M1980.5,1244.3H156.1v-1075h1824.4L1980.5,1244.3L1980.5,1244.3z M97.1,134.5V1279h1942.4V134.5H97.1z"/>
			<path class="st11" d="M1966.9,1236.1H142.4v-1075h1824.4V1236.1z M83.4,126.3v1144.5h1942.4V126.3H83.4z"/>
			<path class="st12" d="M1953.1,1228H128.7v-1075h1824.4V1228z M69.7,118.2v1144.5h1942.4V118.2H69.7z"/>
			<path class="st13" d="M1939.4,1219.8H115v-1075h1824.4V1219.8z M56,110v1144.5h1942.4V110H56z"/>
			<path class="st14" d="M1925.8,1211.6H101.3v-1075h1824.4V1211.6z M42.3,101.8v1144.5h1942.4V101.8L42.3,101.8L42.3,101.8z"/>
			<path class="st15" d="M1912,1203.5H87.6v-1075H1912V1203.5z M28.6,93.7v1144.5H1971V93.7L28.6,93.7L28.6,93.7z"/>
		</g>
	</g>
</g>
</svg>
