<?xml version="1.0" encoding="utf-8"?>
<!-- Generator: Adobe Illustrator 25.0.0, SVG Export Plug-In . SVG Version: 6.00 Build 0)  -->
<svg version="1.1" id="Layer_2" xmlns="http://www.w3.org/2000/svg" xmlns:xlink="http://www.w3.org/1999/xlink" x="0px" y="0px"
	 viewBox="0 0 1638.47 471.06" style="enable-background:new 0 0 1638.47 471.06;" xml:space="preserve">
<style type="text/css">
	.st0{fill:#CA1421;}
	.st1{fill:#FFFFFF;}
	.st2{enable-background:new    ;}
</style>
<g>
	<g id="Netf_lairs">
		<g>
			<path class="st0" d="M545.78,80.23c0-3.31,2.97-5.97,6.28-5.97h4.99c2.34,0,3.98,0.66,5.62,2.34l135.25,144.22h0.66V83.86
				c0-3.31,2.65-6.32,6.32-6.32h30.5c3.31,0,6.32,2.97,6.32,6.32v223.11c0,3.31-2.97,5.97-6.32,5.97h-4.64
				c-2.34,0-3.98-0.66-5.62-2.34L589.22,160.77h-0.66v142.54c0,3.31-2.65,6.28-6.32,6.28h-30.18c-3.31,0-6.28-3-6.28-6.28V80.23z"/>
			<path class="st0" d="M833.16,153.16c39.78,0,70.28,29.52,70.28,70.94c0,2.34-0.35,7.64-0.66,9.94c-0.31,3.98-3.98,6.98-7.29,6.98
				h-98.12c0.35,18.91,15.91,35.49,38.14,35.49c15.25,0,25.86-5.65,32.83-11.27c3.63-2.97,7.61-3.31,9.94,0l12.95,17.24
				c2.65,2.97,3,6.63-0.66,9.94c-13.26,11.27-32.17,20.9-57.02,20.9c-45.75,0-77.57-36.46-77.57-80.22
				C755.94,189.94,787.76,153.16,833.16,153.16z M861.67,213.8c-0.66-14.9-12.6-26.52-29.52-26.52c-18.56,0-30.5,11.27-32.49,26.52
				H861.67z"/>
			<path class="st0" d="M925,193.6h-14.93c-3.98,0-6.98-3.63-6.98-7.29v-22.54c0-4.29,3-7.29,6.98-7.29H925v-42.43
				c0-3.98,3.63-7.29,7.29-7.29h27.18c3.98,0,6.98,3.31,6.98,7.29v42.43h35.8c3.98,0,7.29,2.97,7.29,7.29v22.54
				c0,3.63-3.31,7.29-7.29,7.29h-35.8v68.95c0,10.29,4.95,12.6,12.6,12.6c6.63,0,19.23-3.63,23.2-4.95
				c4.33-1.67,7.96,0.31,8.62,3.98l4.29,20.2c1.01,3.98-0.66,6.98-4.29,8.97c-5.3,2.97-27.18,9.94-43.09,9.94
				c-34.16,0-42.74-22.86-42.74-49.41V193.6H925z"/>
			<path class="st0" d="M1036.69,193.6h-15.91c-4.33,0-7.29-3.63-7.29-7.29v-22.54c0-4.29,2.97-7.29,7.29-7.29h15.91v-18.25
				c0-40.79,21.53-63.96,62.01-63.96c20.2,0,38.1,8.62,45.08,14.9c2.65,1.67,3.31,5.97,1.64,8.62l-11.58,20.2
				c-1.67,2.97-5.97,3.98-9.28,1.99c-4.95-3.31-15.56-7.96-23.87-7.96c-19.23,0-22.54,10.26-22.54,26.17v18.25h41.77
				c4.29,0,7.29,2.97,7.29,7.29v22.54c0,3.63-3,7.29-7.29,7.29h-41.77v108.73c0,3.98-3.31,7.29-7.29,7.29h-26.87
				c-3.98,0-7.29-3.31-7.29-7.29V193.6z"/>
			<path class="st0" d="M1150.24,84.87c0-3.66,3.66-7.29,7.29-7.29h26.83c3.66,0,7.29,3.63,7.29,7.29v217.46
				c0,3.98-3.63,7.29-7.29,7.29h-26.83c-3.63,0-7.29-3.31-7.29-7.29V84.87z"/>
			<path class="st0" d="M1264.93,212.83c15.56,0,29.52,4.29,29.52,4.29c0.66-19.54-4.99-28.86-21.22-28.86
				c-13.92,0-34.16,2.97-43.09,5.65c-4.95,1.64-7.96-1.99-8.62-6.63l-3.31-17.24c-1.33-5.62,1.64-8.3,4.95-9.28
				c3.31-1.33,27.5-7.64,52.38-7.64c47.73,0,57.68,24.88,57.68,66.65v82.56c0,3.98-3.31,7.29-7.29,7.29h-11.27
				c-2.65,0-4.64-1.01-6.63-5.3l-4.33-10.29c-8.93,8.62-24.18,19.23-48.05,19.23c-30.5,0-51.71-19.58-51.71-52.38
				C1203.94,233.69,1226.13,212.83,1264.93,212.83z M1265.91,282.44c13.61,0,25.54-10.61,27.53-16.26v-22.54
				c0,0-10.29-4.64-22.54-4.64c-17.59,0-27.18,8.3-27.18,21.88C1243.72,273.82,1251.64,282.44,1265.91,282.44z"/>
			<path class="st0" d="M1348.43,103.75c0-14.59,11.27-26.21,26.21-26.21c14.9,0,26.52,11.62,26.52,26.21s-11.62,26.52-26.52,26.52
				C1359.7,130.27,1348.43,118.33,1348.43,103.75z M1354.4,163.77c0-4.29,3.66-7.29,7.29-7.29h26.83c3.66,0,7.29,2.97,7.29,7.29
				v138.56c0,3.98-3.63,7.29-7.29,7.29h-26.83c-3.63,0-7.29-3.31-7.29-7.29V163.77z"/>
			<path class="st0" d="M1418.39,163.77c0-4.29,3.63-7.29,7.29-7.29h12.25c3.63,0,5.3,1.67,6.63,4.99l5.65,14.9
				c5.3-7.64,19.54-23.2,43.09-23.2c18.25,0,33.15,4.99,28.86,14.93l-9.94,22.54c-1.64,3.63-5.3,4.95-8.93,3.31
				c-3.63-1.67-7.29-2.97-14.27-2.97c-16.57,0-26.52,10.61-29.17,15.91v95.47c0,5.65-3.63,7.29-8.62,7.29h-25.51
				c-3.63,0-7.29-3.31-7.29-7.29v-138.6H1418.39z"/>
			<path class="st0" d="M1522.13,299.33c-1.99-1.33-3.66-4.95-1.99-8.3l9.94-19.89c1.67-3.63,5.3-4.95,8.97-2.65
				c6.98,4.33,17.9,9.94,33.81,9.94c11.58,0,16.89-4.33,16.89-10.96c0-6.98-8.62-13.26-28.86-21.22
				c-29.52-11.27-42.74-25.19-42.74-48.4s17.59-44.77,55.03-44.77c22.54,0,37.13,5.97,45.4,11.27c3.31,2.65,5.3,6.63,3.31,10.61
				l-8.62,17.55c-2.34,3.66-6.28,4.33-9.6,2.97c-7.29-3.31-17.9-7.61-30.5-7.61c-10.29,0-14.59,4.95-14.59,9.94
				c0,6.98,7.64,10.61,21.88,16.57c29.52,11.93,50.74,22.54,50.74,53.04c0,24.22-20.55,45.75-59.01,45.75
				C1546.66,313.25,1530.75,305.29,1522.13,299.33z"/>
		</g>
	</g>
	<g id="Algorithm_to_Excellence">
		<path d="M544.9,394.56l18.3-40.48c0.18-0.35,0.5-0.67,1.03-0.67h0.6c0.53,0,0.85,0.28,1.03,0.67l18.15,40.48
			c0.35,0.78-0.11,1.56-1.03,1.56h-2.41c-0.53,0-0.88-0.35-1.03-0.67l-4.46-9.94h-21.34l-4.39,9.94c-0.11,0.28-0.5,0.67-1.03,0.67
			h-2.41C545.01,396.12,544.55,395.34,544.9,394.56z M573.46,381.82c-2.94-6.55-5.84-13.16-8.78-19.75h-0.5l-8.78,19.75H573.46z"/>
		<path d="M602.9,355.18c0-0.6,0.5-1.13,1.13-1.13h2.34c0.6,0,1.13,0.53,1.13,1.13v36.95h17.34c0.67,0,1.13,0.53,1.13,1.13v1.73
			c0,0.6-0.5,1.13-1.13,1.13h-20.81c-0.67,0-1.13-0.53-1.13-1.13V355.18z"/>
		<path d="M662.21,353.41c6.09,0,10.47,2.09,14.54,5.59c0.5,0.5,0.53,1.2,0.07,1.7c-0.53,0.53-1.2,1.13-1.7,1.7
			c-0.53,0.6-0.88,0.53-1.56-0.07c-3.08-2.72-7.4-4.71-11.43-4.71c-9.52,0-16.74,7.93-16.74,17.27c0,9.27,7.22,17.38,16.74,17.38
			c6.62,0,10.83-2.51,10.83-2.51v-8.42h-6.94c-0.67,0-1.13-0.5-1.13-1.1V378c0-0.67,0.5-1.13,1.13-1.13h10.4
			c0.6,0,1.1,0.53,1.1,1.13v13.77c0,0.28-0.25,0.78-0.5,0.96c0,0-6.12,3.96-14.86,3.96c-12.03,0-21.73-9.55-21.73-21.59
			C640.45,363.07,650.18,353.41,662.21,353.41z"/>
		<path d="M718.87,353.41c12.03,0,21.66,9.7,21.66,21.73c0,12.03-9.63,21.59-21.66,21.59s-21.59-9.55-21.59-21.59
			C697.28,363.1,706.84,353.41,718.87,353.41z M718.87,392.51c9.55,0,17.45-7.82,17.45-17.38c0-9.55-7.89-17.52-17.45-17.52
			c-9.55,0-17.38,7.93-17.38,17.52C701.5,384.69,709.32,392.51,718.87,392.51z"/>
		<path d="M762.08,355.18c0-0.6,0.5-1.13,1.13-1.13h15.57c7.22,0,13.13,5.66,13.13,12.81c0,5.52-3.68,10.16-8.92,12.28l8.25,15.29
			c0.42,0.78,0,1.73-1.03,1.73h-2.9c-0.71,0-1.03-0.28-1.31-0.88l-7.82-15.57h-11.5v15.32c0,0.6-0.53,1.13-1.13,1.13h-2.34
			c-0.67,0-1.13-0.53-1.13-1.13V355.18L762.08,355.18z M778.5,375.67c4.64,0,8.67-3.86,8.67-8.78c0-4.57-4.03-8.49-8.67-8.49h-11.68
			v17.27C766.82,375.67,778.5,375.67,778.5,375.67z"/>
		<path d="M813.82,355.18c0-0.6,0.53-1.13,1.13-1.13h2.41c0.6,0,1.13,0.53,1.13,1.13v39.81c0,0.6-0.53,1.13-1.13,1.13h-2.41
			c-0.6,0-1.13-0.53-1.13-1.13V355.18z"/>
		<path d="M850.09,358.04h-10.47c-0.67,0-1.13-0.53-1.13-1.13v-1.73c0-0.6,0.5-1.13,1.13-1.13h25.51c0.67,0,1.13,0.53,1.13,1.13
			v1.73c0,0.6-0.5,1.13-1.13,1.13h-10.47v36.95c0,0.6-0.53,1.13-1.13,1.13h-2.3c-0.6,0-1.13-0.53-1.13-1.13V358.04z"/>
		<path d="M886.26,355.18c0-0.6,0.53-1.13,1.13-1.13h2.34c0.67,0,1.13,0.53,1.13,1.13v17.55h24.42v-17.55c0-0.6,0.5-1.13,1.13-1.13
			h2.34c0.6,0,1.13,0.53,1.13,1.13v39.81c0,0.6-0.53,1.13-1.13,1.13h-2.34c-0.67,0-1.13-0.53-1.13-1.13v-18.22h-24.42v18.22
			c0,0.6-0.5,1.13-1.13,1.13h-2.34c-0.6,0-1.13-0.53-1.13-1.13V355.18z"/>
		<path d="M949.25,354.26c0.11-0.5,0.6-0.85,1.1-0.85h0.96c0.42,0,0.88,0.28,1.03,0.67l11.93,33.16c0.11,0,0.18,0,0.28,0
			l11.71-33.16c0.11-0.35,0.6-0.67,1.03-0.67h0.96c0.5,0,0.96,0.35,1.1,0.85l7.75,40.41c0.18,0.85-0.18,1.45-1.1,1.45h-2.41
			c-0.5,0-0.96-0.42-1.1-0.85l-5.34-30.96c-0.07,0-0.18,0-0.25,0l-11.08,31.78c-0.11,0.35-0.67,0.67-1.03,0.67h-1.1
			c-0.35,0-0.88-0.28-1.03-0.67l-11.18-31.78c-0.07,0-0.18,0-0.25,0l-5.24,30.96c-0.07,0.42-0.6,0.85-1.1,0.85h-2.41
			c-0.88,0-1.27-0.6-1.1-1.45L949.25,354.26z"/>
		<path d="M1041.29,358.04h-10.47c-0.67,0-1.13-0.53-1.13-1.13v-1.73c0-0.6,0.5-1.13,1.13-1.13h25.51c0.67,0,1.13,0.53,1.13,1.13
			v1.73c0,0.6-0.5,1.13-1.13,1.13h-10.47v36.95c0,0.6-0.53,1.13-1.13,1.13h-2.3c-0.6,0-1.13-0.53-1.13-1.13V358.04z"/>
		<path d="M1094.52,353.41c12.03,0,21.66,9.7,21.66,21.73c0,12.03-9.63,21.59-21.66,21.59c-12.03,0-21.59-9.55-21.59-21.59
			C1072.93,363.1,1082.48,353.41,1094.52,353.41z M1094.52,392.51c9.55,0,17.45-7.82,17.45-17.38c0-9.55-7.89-17.52-17.45-17.52
			c-9.55,0-17.38,7.93-17.38,17.52C1077.14,384.69,1084.96,392.51,1094.52,392.51z"/>
		<path d="M1164.8,355.18c0-0.6,0.5-1.13,1.13-1.13h23.71c0.67,0,1.13,0.53,1.13,1.13v1.73c0,0.6-0.5,1.13-1.13,1.13h-20.21v14.69
			h17.27c0.6,0,1.13,0.53,1.13,1.13v1.73c0,0.67-0.53,1.13-1.13,1.13h-17.27v15.32h20.21c0.67,0,1.13,0.53,1.13,1.13v1.73
			c0,0.6-0.5,1.13-1.13,1.13h-23.71c-0.67,0-1.13-0.53-1.13-1.13V355.18z"/>
		<path d="M1220.6,374.53l-11.71-18.83c-0.5-0.78,0-1.7,1.03-1.7h3.26c0.42,0,0.85,0.25,1.03,0.53l9.27,15.92h0.07l9.38-15.92
			c0.18-0.28,0.53-0.53,1.03-0.53h3.26c1.03,0,1.49,0.88,1.03,1.7l-11.71,18.83l12.14,19.92c0.5,0.85,0,1.7-1.03,1.7h-2.76
			c-0.5,0-0.88-0.28-1.03-0.53l-10.3-17.02h-0.07l-10.16,17.02c-0.18,0.28-0.53,0.53-1.03,0.53h-2.76c-1.1,0-1.56-0.88-1.1-1.7
			L1220.6,374.53z"/>
		<path d="M1277.33,353.41c6.09,0,10.47,2.09,14.54,5.59c0.5,0.5,0.53,1.2,0.07,1.7l-1.63,1.63c-0.5,0.6-0.96,0.53-1.56-0.07
			c-3.11-2.69-7.11-4.49-11.5-4.49c-9.52,0-16.77,8-16.77,17.34c0,9.27,7.29,17.27,16.77,17.27c5.24,0,8.32-1.8,11.5-4.49
			c0.6-0.5,1.1-0.42,1.56,0.07l1.38,1.38c0.5,0.35,0.35,1.2-0.07,1.63c-3.96,3.61-8.95,5.84-14.3,5.84
			c-12.03,0-21.73-9.55-21.73-21.59C1255.6,363.17,1265.3,353.41,1277.33,353.41z"/>
		<path d="M1313.39,355.18c0-0.6,0.5-1.13,1.13-1.13h23.71c0.67,0,1.13,0.53,1.13,1.13v1.73c0,0.6-0.5,1.13-1.13,1.13h-20.21v14.69
			h17.27c0.6,0,1.13,0.53,1.13,1.13v1.73c0,0.67-0.53,1.13-1.13,1.13h-17.27v15.32h20.21c0.67,0,1.13,0.53,1.13,1.13v1.73
			c0,0.6-0.5,1.13-1.13,1.13h-23.71c-0.67,0-1.13-0.53-1.13-1.13V355.18z"/>
		<path d="M1360.67,355.18c0-0.6,0.5-1.13,1.13-1.13h2.34c0.6,0,1.13,0.53,1.13,1.13v36.95h17.34c0.67,0,1.13,0.53,1.13,1.13v1.73
			c0,0.6-0.5,1.13-1.13,1.13h-20.81c-0.67,0-1.13-0.53-1.13-1.13V355.18z"/>
		<path d="M1403.03,355.18c0-0.6,0.5-1.13,1.13-1.13h2.34c0.6,0,1.13,0.53,1.13,1.13v36.95h17.34c0.67,0,1.13,0.53,1.13,1.13v1.73
			c0,0.6-0.5,1.13-1.13,1.13h-20.81c-0.67,0-1.13-0.53-1.13-1.13V355.18z"/>
		<path d="M1445.35,355.18c0-0.6,0.5-1.13,1.13-1.13h23.71c0.67,0,1.13,0.53,1.13,1.13v1.73c0,0.6-0.5,1.13-1.13,1.13h-20.21v14.69
			h17.27c0.6,0,1.13,0.53,1.13,1.13v1.73c0,0.67-0.53,1.13-1.13,1.13h-17.27v15.32h20.21c0.67,0,1.13,0.53,1.13,1.13v1.73
			c0,0.6-0.5,1.13-1.13,1.13h-23.71c-0.67,0-1.13-0.53-1.13-1.13V355.18z"/>
		<path d="M1492.67,354.5c0-0.6,0.53-1.1,1.13-1.1h0.88c0.42,0,0.71,0.11,0.96,0.5l26.75,33.34c0.07,0,0.07,0,0.11,0v-32.06
			c0-0.6,0.5-1.13,1.13-1.13h2.09c0.6,0,1.13,0.53,1.13,1.13v40.48c0,0.6-0.53,1.1-1.13,1.1h-0.5c-0.42,0-0.71-0.11-0.96-0.5
			l-27.25-33.97h-0.07v32.73c0,0.6-0.5,1.13-1.13,1.13h-2.12c-0.6,0-1.13-0.53-1.13-1.13V354.5H1492.67z"/>
		<path d="M1570.2,353.41c6.09,0,10.47,2.09,14.54,5.59c0.5,0.5,0.53,1.2,0.07,1.7l-1.63,1.63c-0.5,0.6-0.96,0.53-1.56-0.07
			c-3.11-2.69-7.11-4.49-11.5-4.49c-9.52,0-16.77,8-16.77,17.34c0,9.27,7.29,17.27,16.77,17.27c5.24,0,8.32-1.8,11.5-4.49
			c0.6-0.5,1.1-0.42,1.56,0.07l1.38,1.38c0.5,0.35,0.35,1.2-0.07,1.63c-3.96,3.61-8.95,5.84-14.33,5.84
			c-12.03,0-21.73-9.55-21.73-21.59C1548.44,363.17,1558.17,353.41,1570.2,353.41z"/>
		<path d="M1606.23,355.18c0-0.6,0.5-1.13,1.13-1.13h23.71c0.67,0,1.13,0.53,1.13,1.13v1.73c0,0.6-0.5,1.13-1.13,1.13h-20.21v14.69
			h17.27c0.6,0,1.13,0.53,1.13,1.13v1.73c0,0.67-0.53,1.13-1.13,1.13h-17.27v15.32h20.21c0.67,0,1.13,0.53,1.13,1.13v1.73
			c0,0.6-0.5,1.13-1.13,1.13h-23.71c-0.67,0-1.13-0.53-1.13-1.13V355.18z"/>
	</g>
</g>
<g>
	<circle cx="238.42" cy="235.53" r="232.15"/>
	<g>
		<polygon class="st1" points="248.32,160.69 248.32,243.63 85.89,115.76 293.24,343.84 293.24,160.69 		"/>
	</g>
	<g id="Color_Fill_1_copy_3_">
		<g>
			<polygon class="st0" points="85.42,160.55 85.42,343.71 130.35,343.71 130.35,260.77 292.77,388.63 			"/>
		</g>
	</g>
	<g id="Rectangle_1_1_" class="st2">
		<g id="Rectangle_1_2_">
			<g>
				<rect x="313.6" y="160.55" class="st1" width="103.67" height="41.47"/>
			</g>
		</g>
	</g>
	<g id="Rectangle_1_copy_2_" class="st2">
		<rect x="313.6" y="233.12" class="st0" width="54.43" height="41.47"/>
	</g>
</g>
</svg>
