<svg xmlns="http://www.w3.org/2000/svg" viewBox="0 0 680 445.11"><defs><style>.cls-1{fill:#e0e0e0;}.cls-2{fill:#ebebeb;}.cls-3{fill:#f5f5f5;}.cls-4{fill:#263238;}.cls-5{fill:#6aa9ff;}.cls-6{fill:#455a64;}.cls-7{fill:#b78876;}.cls-8{fill:#aa6550;}.cls-9{fill:#fafafa;}.cls-10{opacity:0.4;}</style></defs><g id="Layer_2" data-name="Layer 2"><g id="Layer_1-2" data-name="Layer 1"><g id="freepik--background-complete--inject-14"><path class="cls-1" d="M250,140c0,.14-.57.24-1.25.22s-1.25-.16-1.25-.3.57-.24,1.26-.22S250,139.9,250,140Z"/><path class="cls-1" d="M260,140.53a6.43,6.43,0,0,1-2.51.11,6.17,6.17,0,0,1-2.48-.42,12.41,12.41,0,0,1,5,.31Z"/><path class="cls-1" d="M270,141.44a6.29,6.29,0,0,1-2.52,0,6,6,0,0,1-2.46-.5,6.24,6.24,0,0,1,2.51,0A6.34,6.34,0,0,1,270,141.44Z"/><path class="cls-1" d="M279.93,142.66a12.31,12.31,0,0,1-5-.65A12,12,0,0,1,279.93,142.66Z"/><path class="cls-1" d="M289.82,144.21a6.25,6.25,0,0,1-2.51-.15,6.43,6.43,0,0,1-2.43-.67,6.3,6.3,0,0,1,2.52.16A6.2,6.2,0,0,1,289.82,144.21Z"/><path class="cls-1" d="M299.66,146.11a12.19,12.19,0,0,1-4.91-1,6.22,6.22,0,0,1,2.5.24A6,6,0,0,1,299.66,146.11Z"/><path class="cls-1" d="M309.42,148.33a6,6,0,0,1-2.49-.32,6.32,6.32,0,0,1-2.38-.83,12,12,0,0,1,4.87,1.15Z"/><path class="cls-1" d="M319.1,150.89a12.18,12.18,0,0,1-4.83-1.32A12.18,12.18,0,0,1,319.1,150.89Z"/><path class="cls-1" d="M328.69,153.77a6.5,6.5,0,0,1-2.46-.49,6.23,6.23,0,0,1-2.32-1,12,12,0,0,1,4.78,1.48Z"/><path class="cls-1" d="M338.18,157a6.46,6.46,0,0,1-2.45-.57,6.28,6.28,0,0,1-2.28-1.07,6.28,6.28,0,0,1,2.45.57A6.2,6.2,0,0,1,338.18,157Z"/><path class="cls-1" d="M347.57,160.46a12,12,0,0,1-4.68-1.79A12.15,12.15,0,0,1,347.57,160.46Z"/><path class="cls-1" d="M356.83,164.25a6.19,6.19,0,0,1-2.41-.73,6.43,6.43,0,0,1-2.21-1.2,6,6,0,0,1,2.41.72A6.29,6.29,0,0,1,356.83,164.25Z"/><path class="cls-1" d="M366,168.33a6.11,6.11,0,0,1-2.38-.8,6.18,6.18,0,0,1-2.17-1.27,6.27,6.27,0,0,1,2.38.8A6.18,6.18,0,0,1,366,168.33Z"/><path class="cls-1" d="M375,172.7a6.61,6.61,0,0,1-2.36-.88,6.4,6.4,0,0,1-2.13-1.34,6.07,6.07,0,0,1,2.36.87C374.1,172,375.05,172.53,375,172.7Z"/><path class="cls-1" d="M383.86,177.32a6.16,6.16,0,0,1-2.33-.94,6.4,6.4,0,0,1-2.09-1.4,6.16,6.16,0,0,1,2.33.94A6.4,6.4,0,0,1,383.86,177.32Z"/><path class="cls-1" d="M392.6,182.21a12.47,12.47,0,0,1-4.35-2.47,6.07,6.07,0,0,1,2.3,1A6.23,6.23,0,0,1,392.6,182.21Z"/><path class="cls-1" d="M401.2,187.34a6.28,6.28,0,0,1-2.28-1.07c-1.18-.72-2.08-1.4-2-1.52a6,6,0,0,1,2.27,1.07A6.51,6.51,0,0,1,401.2,187.34Z"/><path class="cls-1" d="M409.65,192.71a6.23,6.23,0,0,1-2.25-1.18,8.11,8.11,0,0,1-2-1.57,6.22,6.22,0,0,1,2.25,1.14C408.85,191.89,409.73,192.59,409.65,192.71Z"/><path class="cls-1" d="M418,198.31a6.26,6.26,0,0,1-2.21-1.2c-1.14-.78-2-1.51-1.92-1.63a6.26,6.26,0,0,1,2.21,1.2A9,9,0,0,1,418,198.31Z"/><path class="cls-1" d="M426.11,204.12a6.35,6.35,0,0,1-2.18-1.26c-1.12-.81-2-1.56-1.88-1.67a6.08,6.08,0,0,1,2.18,1.25C425.35,203.25,426.19,204,426.11,204.12Z"/><path class="cls-1" d="M434.11,210.14a6.5,6.5,0,0,1-2.11-1.31c-1.1-.84-1.92-1.61-1.83-1.73a6.25,6.25,0,0,1,2.15,1.31C433.38,209.25,434.2,210,434.11,210.14Z"/><path class="cls-1" d="M442,216.35a6.27,6.27,0,0,1-2.11-1.36c-1.08-.87-1.88-1.66-1.79-1.77a6.37,6.37,0,0,1,2.11,1.36A8,8,0,0,1,442,216.35Z"/><path class="cls-1" d="M449.66,222.75a6.14,6.14,0,0,1-2.08-1.41c-1.06-.89-1.84-1.7-1.75-1.81a6.08,6.08,0,0,1,2.09,1.41C449,221.83,449.76,222.64,449.66,222.75Z"/><path class="cls-1" d="M457.21,229.33c-.09.11-1-.54-2-1.46s-1.8-1.74-1.7-1.85,1,.55,2.05,1.46S457.31,229.23,457.21,229.33Z"/><path class="cls-1" d="M464.61,236.08c-.1.11-1-.56-2-1.5s-1.76-1.79-1.66-1.89,1,.57,2,1.51S464.71,236,464.61,236.08Z"/><path class="cls-1" d="M471.85,243c-.1.11-1-.59-2-1.54s-1.72-1.82-1.62-1.93,1,.59,2,1.55S472,242.89,471.85,243Z"/><path class="cls-1" d="M477.23,248.32c-.1.1-.58-.21-1.07-.7s-.8-1-.7-1.07.58.21,1.07.7S477.33,248.22,477.23,248.32Z"/><path class="cls-2" d="M645.91,282.68s-8.16-4.31-15.7,14.93-10,30.16-10,30.16-2.09,4.08-5,1.83-7.2-9-11.56-7.29-5.54,7.12-3.9,14.66,4.61,24.18,4.87,25.69-.37,3.76-2.58,2.54-15.43-13.32-20.79-6.7,2.64,26.86,3.47,29.09.48,3.25-.55,3.93-5.09-3.81-9-7.1-9-6.41-11.77-2.34-2.25,19.81,15.12,43.74l8.78,10.56,13.63-2.1c28.9-6.29,39.77-17.67,40.41-22.56s-5.24-6-10.34-6.1-11.11.5-11.43-.69.09-2.18,2.2-3.29,21.57-10.89,22-19.4-17.51-8.28-20-8.84-1.42-2.69-.24-3.62,14.5-11.38,20.74-15.92,9-9.19,6.85-13.54c-2.1-4.18-9.82-2-13.47-2.25s-2.5-4.68-2.5-4.68,5.41-9.81,12.6-29.18-2-21.6-2-21.6"/><path class="cls-1" d="M587.63,433.41C593,419.2,600.51,399.63,608.9,378s16-41.13,21.38-55.31l6.38-16.8c.75-2,1.34-3.5,1.74-4.57l.47-1.18c0-.14.11-.27.17-.4a1.15,1.15,0,0,1-.13.42c-.13.28-.24.68-.43,1.19-.38,1.07-.94,2.62-1.66,4.6-1.45,4-3.59,9.75-6.26,16.85-5.34,14.21-12.87,33.77-21.26,55.36s-16,41.14-21.38,55.32"/><path class="cls-1" d="M609.2,331.89a4.17,4.17,0,0,1,.44.9c.26.58.6,1.44,1,2.5.84,2.12,1.91,5.08,3,8.37l2.86,8.44.88,2.55a4.36,4.36,0,0,1,.29,1,4.33,4.33,0,0,1-.44-.89c-.26-.58-.61-1.44-1-2.51-.82-2.13-1.85-5.11-3-8.4s-2.14-6.17-2.92-8.41c-.36-1-.65-1.86-.9-2.54A5.13,5.13,0,0,1,609.2,331.89Z"/><path class="cls-1" d="M619,355.72c0-.11,6-2.6,13.42-5.56S646,344.89,646,345s-6,2.6-13.43,5.56S619.05,355.83,619,355.72Z"/><path class="cls-1" d="M604.63,388.29a4.24,4.24,0,0,1,1-.15l2.74-.26c2.32-.22,5.51-.54,9-1s6.68-1,9-1.43l2.71-.48a3.76,3.76,0,0,1,1-.13,5,5,0,0,1-1,.29c-.63.16-1.55.37-2.69.61-2.28.49-5.45,1.08-9,1.56s-6.74.76-9.06.9c-1.17.07-2.11.12-2.76.13A4.93,4.93,0,0,1,604.63,388.29Z"/><path class="cls-1" d="M591,368.69a7,7,0,0,1,.61.71l1.54,2c1.28,1.73,3,4.14,4.93,6.81s3.61,5.1,4.83,6.88l1.43,2.11a3.64,3.64,0,0,1,.47.81,4.65,4.65,0,0,1-.61-.72l-1.53-2c-1.28-1.73-3-4.13-4.94-6.8s-3.61-5.11-4.83-6.88l-1.41-2.08A5,5,0,0,1,591,368.69Z"/><path class="cls-1" d="M574.66,395.83a5.54,5.54,0,0,1,.77.91c.52.68,1.18,1.56,2,2.6,1.65,2.21,3.92,5.27,6.39,8.67s4.7,6.5,6.29,8.75l1.87,2.68a8.07,8.07,0,0,1,.64,1,6.89,6.89,0,0,1-.78-.92l-2-2.6c-1.66-2.21-3.92-5.27-6.39-8.67s-4.7-6.5-6.29-8.75l-1.87-2.68A10.33,10.33,0,0,1,574.66,395.83Z"/><path class="cls-1" d="M592.33,419.75a6.89,6.89,0,0,1,1.27-.22l3.47-.46c2.92-.38,7-.93,11.4-1.67s8.45-1.49,11.35-2.06l3.43-.68a7.81,7.81,0,0,1,1.27-.2,7.57,7.57,0,0,1-1.23.37c-.8.2-2,.48-3.41.8-2.88.65-6.88,1.47-11.34,2.19s-8.5,1.24-11.44,1.55c-1.47.16-2.66.27-3.48.32A7,7,0,0,1,592.33,419.75Z"/><polygon class="cls-3" points="423.99 388.05 422.46 381.96 424.61 379.81 431 381.34 438.69 392.53 436.76 394.85 423.99 388.05"/><path class="cls-2" d="M484.83,434.07l-63.54-57.25a1.58,1.58,0,0,0-2.23.1l0,0h0a1.48,1.48,0,0,0,.14,2.06l63.07,56.87"/><path class="cls-1" d="M84.24,108.53a2.81,2.81,0,0,1,0-.41,7.09,7.09,0,0,0-.08-1.19,4.59,4.59,0,0,0-.06-.88c-.06-.32-.11-.67-.17-1a17.49,17.49,0,0,0-.53-2.59,24.07,24.07,0,0,0-2.79-6.66,25.2,25.2,0,0,0-6.37-7.08,24.89,24.89,0,0,0-23.61-3.55,23,23,0,0,0-6.3,3.39A26.44,26.44,0,0,0,39,93.8a24.09,24.09,0,0,0-3.56,6.86,27,27,0,0,0-1.27,7.87,26.55,26.55,0,0,0,1.28,7.86A24.26,24.26,0,0,0,39,123.24a22.56,22.56,0,0,0,5.27,5.29,25.23,25.23,0,0,0,3,2A26.06,26.06,0,0,0,50.52,132a25,25,0,0,0,30-10.64,23.88,23.88,0,0,0,2.79-6.65,18.9,18.9,0,0,0,.54-2.59,7.74,7.74,0,0,1,.16-1c0-.32,0-.62.06-.88,0-.5.06-.9.08-1.19a2.81,2.81,0,0,1,0-.41,2.81,2.81,0,0,1,0,.41V111A9.12,9.12,0,0,1,84,112.1a18,18,0,0,1-.49,2.62,23.61,23.61,0,0,1-2.74,6.75A25.19,25.19,0,0,1,50.44,132.4,26.47,26.47,0,0,1,47.12,131a28.09,28.09,0,0,1-6-4.44,27.61,27.61,0,0,1-2.5-3,24.79,24.79,0,0,1-3.62-7,25.17,25.17,0,0,1,0-16,24.7,24.7,0,0,1,3.64-7,28.22,28.22,0,0,1,2.46-3,27.44,27.44,0,0,1,6-4.44,26.47,26.47,0,0,1,3.32-1.45A25.19,25.19,0,0,1,80.76,95.57a23.67,23.67,0,0,1,2.74,6.76A18,18,0,0,1,84,105a10.5,10.5,0,0,0,.14,1.06,8.58,8.58,0,0,1,0,.88v1.2A2.18,2.18,0,0,1,84.24,108.53Z"/><path class="cls-1" d="M76.83,108.53a27.35,27.35,0,0,0-.65-4.31,17.06,17.06,0,0,0-2-4.69A17.57,17.57,0,0,0,53.09,92a16.66,16.66,0,0,0-4.43,2.39A15.93,15.93,0,0,0,45,98.15a17.4,17.4,0,0,0,0,20.7,20.29,20.29,0,0,0,1.71,2,19,19,0,0,0,2,1.69,16.66,16.66,0,0,0,4.43,2.39,17.67,17.67,0,0,0,21.1-7.4,17,17,0,0,0,2-4.68,27.35,27.35,0,0,0,.65-4.31,1.41,1.41,0,0,1,0,.29v.84a8,8,0,0,1-.11,1.38,14.67,14.67,0,0,1-.34,1.85,17,17,0,0,1-1.93,4.78A17.87,17.87,0,0,1,53,125.45,17.13,17.13,0,0,1,48.4,123a22.06,22.06,0,0,1-2-1.74,23.41,23.41,0,0,1-1.77-2.08,17.88,17.88,0,0,1,0-21.3,20.58,20.58,0,0,1,1.76-2.08,22.06,22.06,0,0,1,2-1.74A17.13,17.13,0,0,1,53,91.63a18,18,0,0,1,9.45-.75,17.7,17.7,0,0,1,7.54,3.4,17.46,17.46,0,0,1,4.52,5.12,16.55,16.55,0,0,1,1.93,4.78,14.67,14.67,0,0,1,.34,1.85,8.94,8.94,0,0,1,.11,1.37v.85A.88.88,0,0,1,76.83,108.53Z"/><path class="cls-1" d="M58.81,95.53c-.15,0-.26-4.85-.26-10.84s.11-10.85.26-10.85.26,4.86.26,10.85S59,95.53,58.81,95.53Z"/><path class="cls-1" d="M58.81,140.38c-.15,0-.26-4.85-.26-10.84s.11-10.85.26-10.85.26,4.86.26,10.85S59,140.38,58.81,140.38Z"/><path class="cls-1" d="M49.7,108.53c0,.14-4.86.26-10.85.26S28,108.66,28,108.53s4.86-.26,10.85-.26S49.7,108.38,49.7,108.53Z"/><path class="cls-1" d="M89.61,108.53c0,.14-4.86.26-10.85.26s-10.84-.12-10.84-.26,4.85-.26,10.84-.26S89.61,108.38,89.61,108.53Z"/><path class="cls-1" d="M44.21,73.35a9.49,9.49,0,0,1-1.6.1l-4.35.08c-3.67,0-8.75.08-14.36.08h-.29l.26-.26c0,5.54,0,10.54-.08,14.16,0,1.74-.06,3.18-.08,4.28a9.14,9.14,0,0,1-.1,1.57,9.14,9.14,0,0,1-.1-1.57c0-1.1,0-2.54-.08-4.28,0-3.62-.08-8.62-.08-14.16v-.26h.55c5.61,0,10.69,0,14.36.08l4.35.08A9.49,9.49,0,0,1,44.21,73.35Z"/><path class="cls-1" d="M23.9,119.24a9.44,9.44,0,0,1,.1,1.59c0,1.12,0,2.59.08,4.35,0,3.68.07,8.75.07,14.36v.3l-.26-.26c5.55,0,10.55,0,14.17.07l4.28.09a8.18,8.18,0,0,1,1.56.1,9.09,9.09,0,0,1-1.56.1l-4.28.08c-3.62,0-8.62.07-14.17.08h-.26v-.57c0-5.61,0-10.68.08-14.36,0-1.76.06-3.23.08-4.35A10.4,10.4,0,0,1,23.9,119.24Z"/><path class="cls-1" d="M70.89,139.84a9.49,9.49,0,0,1,1.6-.11l4.35-.08c3.67-.05,8.75-.07,14.35-.07h.3l-.26.26c0-5.55,0-10.55.08-14.17,0-1.73.06-3.17.08-4.28a8.18,8.18,0,0,1,.1-1.56,8.18,8.18,0,0,1,.1,1.56c0,1.11,0,2.55.08,4.28,0,3.62.08,8.62.08,14.17v.26h-.56c-5.6,0-10.68,0-14.35-.08l-4.35-.08A10.66,10.66,0,0,1,70.89,139.84Z"/><path class="cls-1" d="M91.2,94a9.49,9.49,0,0,1-.11-1.6c0-1.12,0-2.58-.08-4.35-.05-3.67-.08-8.75-.08-14.35v-.3l.27.26c-5.55,0-10.55,0-14.17-.08l-4.28-.08a8.18,8.18,0,0,1-1.56-.1,8.18,8.18,0,0,1,1.56-.1L77,73.17c3.62,0,8.62-.08,14.17-.08h.26v.56c0,5.6,0,10.68-.08,14.35,0,1.77-.06,3.23-.08,4.35A10.66,10.66,0,0,1,91.2,94Z"/><path class="cls-1" d="M563.24,194.53a1.82,1.82,0,0,1,0-.33c0-.25,0-.57-.08-1a10.21,10.21,0,0,0-.18-1.56,15.2,15.2,0,0,0-.44-2.11,19.54,19.54,0,0,0-2.27-5.39,20.37,20.37,0,0,0-26.93-7.45,22.29,22.29,0,0,0-2.48,1.6,21,21,0,0,0-2.28,1.94,21.28,21.28,0,0,0-2,2.34,19.48,19.48,0,0,0-2.88,5.56,20,20,0,0,0,0,12.73,19.48,19.48,0,0,0,2.88,5.56,21.28,21.28,0,0,0,2,2.34,23.58,23.58,0,0,0,2.29,2,20.87,20.87,0,0,0,2.48,1.59,20.26,20.26,0,0,0,26.93-7.44,19.73,19.73,0,0,0,2.27-5.4,13.75,13.75,0,0,0,.44-2.1,10.21,10.21,0,0,0,.18-1.56c0-.41.06-.73.08-1a1.82,1.82,0,0,1,0-.33,1.82,1.82,0,0,1,0,.33v1a10.42,10.42,0,0,1-.14,1.58,12.87,12.87,0,0,1-.39,2.13,19.19,19.19,0,0,1-2.22,5.5,20.52,20.52,0,0,1-24.71,8.9,21.57,21.57,0,0,1-2.7-1.17,23.31,23.31,0,0,1-2.54-1.63,22.36,22.36,0,0,1-2.35-2,22.81,22.81,0,0,1-2-2.39,20.21,20.21,0,0,1-3-5.7,20.55,20.55,0,0,1,0-13.06,19.82,19.82,0,0,1,3-5.7,22.81,22.81,0,0,1,2-2.39,22.36,22.36,0,0,1,2.35-2,18.81,18.81,0,0,1,5.24-2.81A20.56,20.56,0,0,1,560.5,184a19.19,19.19,0,0,1,2.22,5.5,12.57,12.57,0,0,1,.39,2.12,10.42,10.42,0,0,1,.14,1.58v1A1.45,1.45,0,0,1,563.24,194.53Z"/><path class="cls-1" d="M557.23,194.53a24.27,24.27,0,0,0-.55-3.5,14.42,14.42,0,0,0-5.26-7.82,14.21,14.21,0,0,0-13.44-2,13.53,13.53,0,0,0-3.59,1.93,13.34,13.34,0,0,0-3,3,14.1,14.1,0,0,0,0,16.74,14.2,14.2,0,0,0,14,5.58,14.11,14.11,0,0,0,6-2.64,14.28,14.28,0,0,0,5.26-7.82,24.36,24.36,0,0,0,.55-3.49.89.89,0,0,1,0,.23v.69a6,6,0,0,1-.08,1.12,12.38,12.38,0,0,1-.27,1.5,14,14,0,0,1-1.56,3.9,14.54,14.54,0,0,1-17.51,6.33A14.65,14.65,0,0,1,531,185.83a14.57,14.57,0,0,1,24.33,1.24,14,14,0,0,1,1.56,3.89,12.91,12.91,0,0,1,.27,1.51,6,6,0,0,1,.08,1.12v.68A1.13,1.13,0,0,1,557.23,194.53Z"/><path class="cls-1" d="M542.59,184a76.19,76.19,0,0,1-.26-8.81,76,76,0,0,1,.26-8.8,73.85,73.85,0,0,1,.26,8.8A74,74,0,0,1,542.59,184Z"/><path class="cls-1" d="M542.59,220.36a76.19,76.19,0,0,1-.26-8.81,76,76,0,0,1,.26-8.8,73.85,73.85,0,0,1,.26,8.8A74,74,0,0,1,542.59,220.36Z"/><path class="cls-1" d="M535.19,194.53a147.8,147.8,0,0,1-17.61,0A147.8,147.8,0,0,1,535.19,194.53Z"/><path class="cls-1" d="M567.6,194.53a147.64,147.64,0,0,1-17.6,0,147.8,147.8,0,0,1,17.61,0Z"/><path class="cls-1" d="M530.74,165.93a5.66,5.66,0,0,1-1.3.1l-3.53.09c-3,0-7.1.07-11.66.07H514l.26-.26c0,4.5,0,8.56-.07,11.5,0,1.39-.06,2.55-.09,3.48a6,6,0,0,1-.1,1.27,6.73,6.73,0,0,1-.1-1.27c0-.93,0-2.09-.08-3.48-.05-2.94-.08-7-.08-11.5v-.26h.5c4.56,0,8.68,0,11.66.08l3.53.08A6.37,6.37,0,0,1,530.74,165.93Z"/><path class="cls-1" d="M514.25,203.19a5.66,5.66,0,0,1,.1,1.3c0,.94,0,2.12.09,3.53,0,3,.07,7.1.07,11.65v.24l-.26-.26c4.5,0,8.56,0,11.5.08l3.48.08a7.68,7.68,0,0,1,1.27.1,6,6,0,0,1-1.27.11l-3.48.08c-2.94,0-7,.07-11.5.08H514v-.51c0-4.55,0-8.67.08-11.65,0-1.41.06-2.6.08-3.53A7,7,0,0,1,514.25,203.19Z"/><path class="cls-1" d="M552.4,219.91a6.28,6.28,0,0,1,1.3-.1l3.53-.08c3,0,7.11-.08,11.66-.08h.24l-.26.26c0-4.49,0-8.56.07-11.49q.06-2.08.09-3.48a6,6,0,0,1,.1-1.27,6.73,6.73,0,0,1,.1,1.27c0,.93,0,2.09.08,3.48.05,2.93.08,7,.08,11.49v.27h-.5c-4.55,0-8.67,0-11.66-.08L553.7,220A6.28,6.28,0,0,1,552.4,219.91Z"/><path class="cls-1" d="M568.89,182.66a5.66,5.66,0,0,1-.1-1.3c0-.94,0-2.12-.09-3.53,0-3-.07-7.11-.07-11.66v-.24l.26.26c-4.5,0-8.56,0-11.5-.07l-3.47-.09a6.09,6.09,0,0,1-1.28-.1,6.84,6.84,0,0,1,1.28-.1l3.47-.08c2.94-.05,7-.08,11.5-.08h.26v.5c0,4.55,0,8.68-.08,11.66,0,1.41-.06,2.59-.08,3.53A6.28,6.28,0,0,1,568.89,182.66Z"/><path class="cls-2" d="M316.45,434.06c25.23-12.24,35.07-40.87,38.38-67.47.55-4.44,1.78-9,.3-13.23s-6-7.64-10.22-6.41c-3.53,1-5.57,4.61-7.9,7.47a26.16,26.16,0,0,1-11.94,8.25c-3,1-6.67,1.35-9.2-.62-3.47-2.71-3.09-8-2.36-12.44q2-12.27,4.06-24.54c.73-4.39,1.46-8.87.75-13.26s-3.1-8.74-7.09-10.58-9.55-.24-11.12,3.92c-.65,1.73-.58,3.64-1,5.45s-1.59,3.68-3.4,3.92-3.39-1.29-4.5-2.79c-3.83-5.16-6-11.36-8-17.5s-3.84-12.41-7.18-17.9-8.43-10.23-14.66-11.59-13.56,1.46-16.13,7.38,0,12.8,3.16,18.44a99.3,99.3,0,0,0,17.32,22.72c1.23,1.2,2.57,2.5,2.84,4.21.48,3.08-2.75,5.55-5.8,6.05-3.45.57-6.95-.33-10.44-.47s-7.44.77-9.25,3.81c-2.51,4.2.49,9.51,3.7,13.18a85.11,85.11,0,0,0,22.58,18.31c3,1.69,6.28,3.27,8.52,6s3.19,6.88,1.12,9.73-6.26,3.19-9.55,2-6-3.48-9.05-5.21c-5.68-3.24-13.54-4.07-18.24.53-3.09,3-4.07,7.77-3.44,12.06s2.68,8.23,4.93,11.92c7.87,12.9,18.81,24,32,31.09s26,10.47,40.73,7.59"/><path class="cls-1" d="M312.88,435.47c.71-10.63,1.18-5.11-.62-19.08a397.92,397.92,0,0,0-8.88-44.86q-1.49-5.89-2.93-11.64c-1-3.82-1.94-7.61-3.11-11.25a199.24,199.24,0,0,0-7.92-20.57c-2.84-6.42-5.77-12.41-8.55-18s-5.49-10.72-8.15-15.31a157.56,157.56,0,0,0-14.15-20.69c-1.85-2.3-3.35-4-4.38-5.21L253,267.53a2.91,2.91,0,0,0-.43-.43,3.34,3.34,0,0,0,.36.48l1.12,1.37c1,1.2,2.45,3,4.26,5.31A165.33,165.33,0,0,1,272.21,295c2.62,4.59,5.29,9.74,8,15.32s5.65,11.58,8.46,18a200.8,200.8,0,0,1,7.85,20.5c1.16,3.63,2.11,7.38,3.08,11.21s1.94,7.71,2.93,11.64a409,409,0,0,1,9,44.82c1.83,13.92,1.41,8.35.78,19"/><path class="cls-1" d="M297.12,348.53a9.14,9.14,0,0,0,.73-1.81c.42-1.17,1-2.9,1.63-5,1.32-4.27,2.94-10.24,4.7-16.82s3.45-12.52,4.83-16.76c.69-2.13,1.26-3.84,1.67-5a9.34,9.34,0,0,0,.55-1.87,8.66,8.66,0,0,0-.85,1.76c-.5,1.14-1.16,2.83-1.91,4.94-1.53,4.21-3.32,10.14-5.08,16.73s-3.27,12.39-4.46,16.88l-1.39,5.11A8.32,8.32,0,0,0,297.12,348.53Z"/><path class="cls-1" d="M242.31,329a11.89,11.89,0,0,0,2.21.63c1.43.36,3.5.87,6,1.58,5.08,1.38,12,3.54,19.61,6.25s14.31,5.49,19.14,7.63c2.41,1.05,4.35,2,5.69,2.57a12.68,12.68,0,0,0,2.12.89,13,13,0,0,0-2-1.18c-1.3-.71-3.2-1.69-5.6-2.82-4.77-2.28-11.5-5.13-19.09-7.87a203.25,203.25,0,0,0-19.75-6c-2.56-.64-4.66-1.06-6.11-1.32A13.88,13.88,0,0,0,242.31,329Z"/><path class="cls-1" d="M311.73,415.24a2.53,2.53,0,0,0,.5-.63l1.29-1.89c1.12-1.65,2.67-4.07,4.54-7.09,3.76-6,8.68-14.54,14-24s10.15-18,13.77-24.1l4.31-7.22,1.17-2a4.84,4.84,0,0,0,.36-.72,5.09,5.09,0,0,0-.5.63c-.3.43-.78,1.13-1.29,1.89-1.12,1.64-2.67,4.07-4.54,7.08-3.76,6-8.68,14.55-14,24s-10.15,18-13.77,24.1c-1.77,3-3.23,5.4-4.31,7.22-.47.78-.85,1.44-1.17,2A2.92,2.92,0,0,0,311.73,415.24Z"/><path class="cls-1" d="M240.52,379.1a3.33,3.33,0,0,0,.7.42l2.06,1.08,7.62,3.93c6.44,3.28,15.28,7.91,25,13s18.65,9.7,25.15,12.85c3.26,1.57,5.9,2.82,7.75,3.64l2.13.94a3.47,3.47,0,0,0,.76.28,5.44,5.44,0,0,0-.69-.43l-2-1.08-7.62-3.88c-6.44-3.28-15.27-7.92-25-13.05s-18.64-9.69-25.15-12.84c-3.25-1.58-5.9-2.82-7.74-3.65l-2.13-.94A3.06,3.06,0,0,0,240.52,379.1Z"/><path class="cls-3" d="M484.23,71.73H643.11s-14.05-25.57-55-21.85c-39,3.55-41-12.58-60.9-14.56S490.85,48.53,484.23,71.73Z"/><path class="cls-3" d="M561,118.53h87.29s-7.72-14-30.19-12c-21.46,2-22.55-6.91-33.46-8S564.62,105.75,561,118.53Z"/><path class="cls-2" d="M295.46,105.53H416.2S405.53,86.1,374.45,88.92c-29.68,2.71-31.19-9.55-46.29-11.06S300.5,87.91,295.46,105.53Z"/></g><g id="freepik--Floor--inject-14"><path class="cls-4" d="M680,435.87c0,.14-152.23.26-340,.26S0,436,0,435.87s152.2-.26,340-.26S680,435.72,680,435.87Z"/></g><g id="freepik--Plants--inject-14"><path class="cls-5" d="M347.2,302.65s7.56.34,4.91,17.07-5.4,25.48-5.4,25.48-.22,3.76,2.75,3.36,8.83-3.39,11.2-.37,1,7.34-3.32,12-13.29,15.18-14.1,16.14-1.29,2.81.78,2.87,16.42-3,17.47,3.88-13,17.9-14.51,19.13-1.69,2.1-1.24,3,5.18-.58,9.3-1.29,9-.8,9.29,3.23-6.62,14.93-28.83,24.65l-10.58,3.83-8.76-7.1c-17.83-16.42-20.79-29-19.22-32.7s6.17-2,9.83,0,7.65,5,8.37,4.25.84-1.59-.19-3.25S304.22,380.2,307.46,374s15.81,1.4,17.79,2,2.11-1.31,1.67-2.45-5.54-14.07-8.07-19.86-2.57-10.25.77-12.41,7.78,2.65,10.46,4,3.7-2.27,3.7-2.27.25-9.18,3.2-25.86,10.37-14.44,10.37-14.44"/><path class="cls-4" d="M344.86,317.64V318c0,.2-.08.52-.13.9-.14.81-.33,2-.57,3.44L342,334.93c-1.76,10.7-4.19,25.45-6.88,41.73s-5.13,31.07-7,41.73c-.95,5.31-1.73,9.61-2.27,12.62-.28,1.47-.49,2.61-.65,3.42-.07.38-.13.67-.17.89s0,.2-.08.3a1.61,1.61,0,0,1,0-.31,7.4,7.4,0,0,1,.14-.89c.13-.81.32-2,.56-3.44l2.14-12.64c1.8-10.68,4.23-25.44,6.88-41.75s5.13-31,7-41.71c1-5.31,1.73-9.62,2.27-12.62.28-1.47.5-2.62.65-3.43.08-.37.13-.67.18-.89A1.71,1.71,0,0,1,344.86,317.64Z"/><path class="cls-4" d="M352.64,352.71a22.7,22.7,0,0,1-2.27,2l-5.54,4.75c-2.16,1.86-4.13,3.53-5.59,4.69-.74.59-1.34,1-1.77,1.35a3.07,3.07,0,0,1-.69.43,26.7,26.7,0,0,1,2.26-2l5.51-4.79c2.16-1.86,4.15-3.51,5.63-4.66.74-.57,1.34-1,1.77-1.33A3.11,3.11,0,0,1,352.64,352.71Z"/><path class="cls-4" d="M335.83,365.53c-.1.08-3.46-4.06-7.5-9.25s-7.25-9.45-7.16-9.52,3.46,4.07,7.5,9.25S335.92,365.42,335.83,365.53Z"/><path class="cls-4" d="M332.49,394.53a2.85,2.85,0,0,1-.73-.39c-.46-.27-1.11-.69-1.91-1.22-1.59-1.06-3.74-2.58-6-4.39s-4.29-3.53-5.69-4.83c-.7-.64-1.26-1.18-1.64-1.56a3.26,3.26,0,0,1-.55-.62,24.79,24.79,0,0,1,2.39,2c1.46,1.24,3.48,2.93,5.76,4.72s4.41,3.35,5.95,4.48A25.49,25.49,0,0,1,332.49,394.53Z"/><path class="cls-4" d="M350.24,386.27a17.37,17.37,0,0,1-2.54,1.3c-1.59.76-3.8,1.78-6.26,2.88s-4.69,2.07-6.31,2.75a18.26,18.26,0,0,1-2.67,1,18.41,18.41,0,0,1,2.54-1.3c1.59-.76,3.81-1.77,6.26-2.87s4.69-2.07,6.32-2.76A18.14,18.14,0,0,1,350.24,386.27Z"/><path class="cls-4" d="M350.55,412.23a3.13,3.13,0,0,1-.86.47l-2.43,1.14c-2.05.94-4.9,2.21-8.06,3.58s-6,2.61-8.12,3.47l-2.48,1a3.84,3.84,0,0,1-.94.31,4.06,4.06,0,0,1,.87-.47L331,420.6c2.06-.94,4.91-2.21,8.07-3.59s6-2.6,8.12-3.47l2.48-1A5.08,5.08,0,0,1,350.55,412.23Z"/><path class="cls-4" d="M328.14,421.82a6.33,6.33,0,0,1-.89-.56c-.57-.37-1.36-.94-2.34-1.66-2-1.43-4.62-3.46-7.46-5.83s-5.34-4.59-7.1-6.25c-.88-.83-1.59-1.52-2.06-2a4.81,4.81,0,0,1-.71-.78,4.74,4.74,0,0,1,.82.66l2.16,1.89c1.81,1.6,4.33,3.79,7.17,6.15s5.46,4.43,7.36,5.92l2.26,1.77A4.35,4.35,0,0,1,328.14,421.82Z"/><path class="cls-5" d="M40.4,409.67a15.86,15.86,0,0,1,9.84-1.14,8.13,8.13,0,0,1,4.86,2.17c1.22,1.34,1.45,3.7,0,4.85a4.62,4.62,0,0,1-3.06.78c-2.6,0-5.49-.49-7.57,1.07-1.18.9-2,2.38-3.39,2.82a3.35,3.35,0,0,1-3.69-1.69A5.75,5.75,0,0,1,37,414.3,6.47,6.47,0,0,1,40.4,409.67Z"/><path class="cls-5" d="M33.55,396.44c1.83,2.61,5.38,1.75,7,.15s2.35-3.91,3-6.11c1.45-5,2.91-10.33,1.84-15.46a8.6,8.6,0,0,0-2-4.2,4.47,4.47,0,0,0-4.25-1.41c-1.79.47-2.91,2.23-3.71,3.9a36.8,36.8,0,0,0-3.64,15.81c0,2.54.29,5.21,1.73,7.32"/><path class="cls-5" d="M28.52,400.19A9.51,9.51,0,0,0,30,391.44a16.9,16.9,0,0,0-5.18-7.52,28.07,28.07,0,0,0-9.29-5.48,9.74,9.74,0,0,0-4.17-.71,4.39,4.39,0,0,0-3.51,2.12c-1,1.86,0,4.12,1,6a70.28,70.28,0,0,0,6.09,9.28c1.83,2.36,3.93,4.68,6.71,5.74s5.68.94,7.15-1"/><path class="cls-4" d="M33.42,435.87a5.34,5.34,0,0,0,.17-1.19c.08-.87.19-1.95.31-3.24a44.82,44.82,0,0,1,.73-4.76,37.89,37.89,0,0,1,1.73-5.61A20.67,20.67,0,0,1,39.22,416a11,11,0,0,1,3.63-3,9.93,9.93,0,0,1,3-.95,6.71,6.71,0,0,0,1.18-.17,6,6,0,0,0-1.2,0,9,9,0,0,0-3.18.83,10.69,10.69,0,0,0-3.83,3,20.47,20.47,0,0,0-3,5.18,34.3,34.3,0,0,0-1.71,5.7,39,39,0,0,0-.63,4.82c-.11,1.37-.15,2.49-.16,3.26A6.13,6.13,0,0,0,33.42,435.87Z"/><path class="cls-4" d="M33.64,433.37a2.53,2.53,0,0,0,0-.55v-1.58c0-1.36,0-3.34.07-5.79.12-4.88.54-10.15,1.36-17.56.77-7,1.8-15.09,2.89-20.37.23-1.2.47-2.28.69-3.23s.39-1.76.57-2.42.27-1.13.37-1.53a2.53,2.53,0,0,0,.09-.55,3.24,3.24,0,0,0-.19.52c-.12.4-.27.9-.46,1.51s-.41,1.47-.65,2.41-.5,2-.76,3.22a177.34,177.34,0,0,0-3,18.9c-.81,7.43-1.18,14.2-1.21,19.1,0,2.45,0,4.43.08,5.8,0,.64.07,1.16.1,1.57A3.41,3.41,0,0,0,33.64,433.37Z"/><path class="cls-4" d="M33.68,420.32a11.36,11.36,0,0,0,0-1.65c-.06-1.05-.21-2.58-.51-4.46a58.05,58.05,0,0,0-1.45-6.5A53.48,53.48,0,0,0,29,400a40.8,40.8,0,0,0-8-12.43,20.6,20.6,0,0,0-1.87-1.75c-.29-.24-.55-.48-.81-.67l-.72-.51a9.58,9.58,0,0,0-1.39-.88,45.9,45.9,0,0,1,4.54,4,43.05,43.05,0,0,1,7.78,12.38,60.69,60.69,0,0,1,2.74,7.62c.71,2.39,1.18,4.58,1.54,6.43s.54,3.37.66,4.42A9,9,0,0,0,33.68,420.32Z"/></g><g id="freepik--Arrow--inject-14"><polygon class="cls-6" points="451.76 342.78 454.4 335.08 458.25 334.25 464.13 340.44 464.59 358.04 460.85 359.21 451.76 342.78"/><path class="cls-4" d="M485.46,435.87l-28.7-107.22a2.07,2.07,0,0,0-2.52-1.47h0a1.92,1.92,0,0,0-1.3,2.35L481.38,436"/></g><g id="freepik--Bullseye--inject-14"><polygon class="cls-4" points="522.79 362.08 506.08 435.87 516.16 435.87 533.15 364.74 522.79 362.08"/><path class="cls-4" d="M563.67,366.42c0,.76,15.25,69.45,15.25,69.45h9.47L571.3,362.08Z"/><path class="cls-4" d="M593.38,348.64c.26.76,40.76,87.23,40.76,87.23h10.48L599.43,342.8Z"/><ellipse class="cls-4" cx="561.66" cy="316.33" rx="67.49" ry="57.78" transform="translate(-4.13 625.22) rotate(-58.02)"/><ellipse class="cls-3" cx="558.8" cy="314.41" rx="65.58" ry="54.25" transform="translate(1.22 630.97) rotate(-58.95)"/><path class="cls-4" d="M549.14,377.64a47.37,47.37,0,0,1-20.89-4.73c-11.48-5.58-20.16-15.81-24.45-28.8-5.5-16.68-3.43-36.27,5.69-53.74,16.83-32.27,52.64-47.76,79.81-34.54,11.48,5.59,20.17,15.82,24.45,28.8,5.5,16.69,3.43,36.27-5.69,53.74l-.44-.23.44.23C595.31,362.82,571.67,377.64,549.14,377.64ZM568.4,252.1c-22.16,0-45.45,14.63-58,38.74-9,17.23-11,36.53-5.62,53,4.22,12.69,12.67,22.69,23.91,28.17,26.69,13,61.9-2.3,78.49-34.1h0c9-17.23,11-36.53,5.62-53-4.2-12.73-12.7-22.75-23.94-28.22A46.43,46.43,0,0,0,568.4,252.1Z"/><ellipse class="cls-5" cx="558.78" cy="313.49" rx="21.46" ry="15.97" transform="translate(10.49 644.98) rotate(-60.45)"/><path class="cls-5" d="M550.87,355.17a26.85,26.85,0,0,1-12.64-3c-6.58-3.46-11.28-9.43-13.59-17.26-3.25-11.05-1.28-24.2,5.41-36.07,11.69-20.74,34.34-30.7,50.49-22.2,6.58,3.46,11.28,9.42,13.59,17.25,3.26,11.06,1.29,24.2-5.41,36.07C579.87,345.64,564.72,355.17,550.87,355.17Zm16.83-73.64c-10.93,0-23.27,8.09-30.68,21.23-5.56,9.85-7.31,21-4.7,29.88,1.68,5.71,5,10,9.63,12.44,12.36,6.5,30.22-2,39.81-19.06,5.55-9.85,7.31-21,4.69-29.87-1.68-5.71-5-10-9.63-12.44A19.44,19.44,0,0,0,567.7,281.53Z"/><path class="cls-5" d="M549.17,371a41.5,41.5,0,0,1-20.39-5.15c-9.73-5.43-16.8-14.8-19.9-26.4-4.12-15.4-1.14-33.17,8.19-48.77,16.9-28.27,49.61-40.7,72.92-27.7,9.73,5.42,16.8,14.8,19.9,26.4,4.11,15.39,1.11,33.19-8.18,48.77C589.36,358.76,568.56,371,549.17,371Zm20.3-105.23c-16.59,0-34.67,10.83-45.54,29-8.22,13.76-10.89,29.28-7.32,42.6,2.57,9.63,8.13,17.05,16.07,21.48,19.56,10.91,47.46-.22,62.16-24.82,8.22-13.75,10.89-29.28,7.33-42.59-2.58-9.63-8.14-17.06-16.07-21.49a34,34,0,0,0-16.63-4.18Z"/><polygon class="cls-6" points="476.71 258.34 474.28 250.57 476.89 247.63 485.3 249.14 496.09 263.05 493.76 266.21 476.71 258.34"/><path class="cls-4" d="M469.81,247l85.95,69a1.73,1.73,0,0,0,2.43-.26l.12-.17h0a1.68,1.68,0,0,0,.12-2.37l-.12-.12-85.89-69a2.07,2.07,0,0,0-2.9.31v0h0A1.9,1.9,0,0,0,469.81,247Z"/><path class="cls-4" d="M558.53,308.87a3.23,3.23,0,0,1,.79,1.69,6.17,6.17,0,0,1-.66,4.43,6.45,6.45,0,0,1-3.47,2.84,3.32,3.32,0,0,1-1.84.26c0-.09.7-.16,1.71-.6a6.87,6.87,0,0,0,3.15-2.76,6.36,6.36,0,0,0,.74-4.1C558.79,309.53,558.45,308.91,558.53,308.87Z"/></g><g id="freepik--Character--inject-14"><polygon class="cls-6" points="70.52 174.35 70.46 168.22 72.98 166.66 78.72 169.58 83.47 181.95 81.11 183.72 70.52 174.35"/><path class="cls-4" d="M117.86,232,70.52,163.06a1.55,1.55,0,0,0-2.16-.4h0a1.43,1.43,0,0,0-.35,2l0,0,47,68.4"/><polygon class="cls-6" points="88.22 174.61 89.89 169.15 92.56 168.48 96.83 172.67 97.58 184.98 94.99 185.89 88.22 174.61"/><path class="cls-4" d="M114.06,239,91.39,164.6a1.45,1.45,0,0,0-1.78-1h0a1.33,1.33,0,0,0-.85,1.67l22.49,73.84"/><path class="cls-6" d="M85.12,198l38,64.83a12.57,12.57,0,0,0,17.21,4.46l.61-.38h0a12.54,12.54,0,0,0,3.7-17l-40.46-65.64Z"/><path class="cls-4" d="M85.12,198s7.84,6.54,15.13,1.44,3.93-15.19,3.93-15.19Z"/><polygon class="cls-6" points="108.76 195.36 152.81 130.22 158.27 130.15 109.73 200.29 108.76 195.36"/><path class="cls-7" d="M256.18,137.12h0a5.49,5.49,0,0,0-4.36,2.19c-.78,1.05-1.78,2.13-2.75,2.31-2,.38-5.49.95-5.49.95L243,154.24l12.86-.54,12-3.25s7.49-.08,8.76-.19,1.47-1.62-.91-1.63a27.79,27.79,0,0,1-5.18-1.11s6.23-.63,7-1.37.64-1.38-.22-1.48c-1.68-.19-7.12.29-7.51,0S256.18,137.12,256.18,137.12Z"/><path class="cls-5" d="M196,407.9l-.43,17.83s18,6.43,18.22,9.73l-34.6.41-.47-27.82Z"/><path class="cls-1" d="M184.87,424.36a1.42,1.42,0,0,0-1,1.62,1.37,1.37,0,0,0,1.61,1,1.47,1.47,0,0,0,1-1.72,1.42,1.42,0,0,0-1.77-.82"/><path class="cls-1" d="M179.21,435.87l-.05-2.81,33.27.66s1.55.66,1.38,1.74Z"/><path class="cls-4" d="M196.15,425.53c0,.17-.85.25-1.67.81s-1.26,1.27-1.42,1.2.09-1,1.1-1.7S196.19,425.39,196.15,425.53Z"/><path class="cls-4" d="M199.8,427c0,.16-.69.46-1.26,1.18s-.72,1.48-.89,1.47-.28-1,.44-1.84S199.79,426.85,199.8,427Z"/><path class="cls-4" d="M201.91,431.33c-.15,0-.4-.81,0-1.74s1.2-1.3,1.28-1.16-.41.64-.75,1.41S202.08,431.31,201.91,431.33Z"/><path class="cls-4" d="M195.8,421.47c-.07.16-.85-.07-1.8,0s-1.7.39-1.79.24.62-.75,1.75-.83S195.88,421.34,195.8,421.47Z"/><path class="cls-4" d="M195.82,417.87a3.18,3.18,0,0,1-1.73,0,7.61,7.61,0,0,1-1.82-.53,7.29,7.29,0,0,1-1-.52,2,2,0,0,1-.52-.4.74.74,0,0,1-.09-.9.93.93,0,0,1,.73-.39,2.48,2.48,0,0,1,.66.08,6.84,6.84,0,0,1,1.08.36,6,6,0,0,1,1.61,1c.81.73,1.09,1.36,1,1.39s-.47-.46-1.29-1.07a6.74,6.74,0,0,0-2.56-1.15c-.37-.09-.68-.09-.77.08s0,.08,0,.19a1.58,1.58,0,0,0,.39.29,10.36,10.36,0,0,0,.92.52,10,10,0,0,0,1.68.62A11.26,11.26,0,0,1,195.82,417.87Z"/><path class="cls-4" d="M195.6,418.12a2.76,2.76,0,0,1-.47-1.67,5.56,5.56,0,0,1,.21-1.9,5.12,5.12,0,0,1,.43-1.06,1.48,1.48,0,0,1,1.09-.89.8.8,0,0,1,.73.48,2,2,0,0,1,.19.63,3.82,3.82,0,0,1,0,1.17,3.94,3.94,0,0,1-.72,1.8c-.66.9-1.36,1.11-1.38,1.06a6.28,6.28,0,0,0,1-1.29,4.07,4.07,0,0,0,.53-1.63,3.35,3.35,0,0,0,0-1c-.06-.36-.2-.66-.33-.62a1.25,1.25,0,0,0-.6.58,5.28,5.28,0,0,0-.42.94,6.37,6.37,0,0,0-.32,1.73C195.51,417.46,195.69,418.09,195.6,418.12Z"/><path class="cls-5" d="M105.06,403.61l-5.52,21.92L90.18,441.6a2.32,2.32,0,0,0,.86,3.17l.14.07h0a2.25,2.25,0,0,0,2.11,0c4.21-2.27,19.63-10.68,19.94-12.31.36-1.88,7.36-22.71,7.36-22.71Z"/><path class="cls-1" d="M91.16,444.82,113.62,431l-.26.92a3.41,3.41,0,0,1-1.4,2c-1.83,1.24-7,4.56-18.62,10.92a2.34,2.34,0,0,1-2.18,0Z"/><path class="cls-1" d="M111.09,422.74a1.42,1.42,0,0,0-.86,1.66,1.35,1.35,0,0,0,1.64.87,1.47,1.47,0,0,0,.9-1.76,1.38,1.38,0,0,0-1.8-.71"/><path class="cls-4" d="M98.76,436.68a6.9,6.9,0,0,0-1.44-2.22A6.83,6.83,0,0,0,95,433.29c0-.06.32-.15.84-.09a3.63,3.63,0,0,1,1.86.89,3.48,3.48,0,0,1,1.09,1.74C98.88,436.35,98.82,436.68,98.76,436.68Z"/><path class="cls-4" d="M96.41,439.17c-.13.06-.64-.84-1.67-1.47a17.43,17.43,0,0,0-2-.86,2.52,2.52,0,0,1,2.31.44C96.18,438,96.53,439.14,96.41,439.17Z"/><path class="cls-4" d="M102.68,433.74a25.34,25.34,0,0,0-2.42-2.44,24.27,24.27,0,0,0-3-1.65,6.3,6.3,0,0,1,5.44,4.09Z"/><path class="cls-4" d="M104.91,427.22c-.09.12-1.15-.72-2.7-1.21s-2.9-.45-2.91-.6a4.53,4.53,0,0,1,3.06.13A4.48,4.48,0,0,1,104.91,427.22Z"/><path class="cls-4" d="M106.7,420.84a10.71,10.71,0,0,0-2.79-1.34,11,11,0,0,0-3.08-.07c0-.06.29-.26.87-.41a4.83,4.83,0,0,1,2.33,0,4.94,4.94,0,0,1,2.08,1.05C106.56,420.47,106.74,420.8,106.7,420.84Z"/><path class="cls-4" d="M104.29,418.3a1.85,1.85,0,0,1,.2-.83,5.87,5.87,0,0,1,1.25-2,2.64,2.64,0,0,1,1.42-.91.92.92,0,0,1,1,.48,1.61,1.61,0,0,1,.08,1.08,3.27,3.27,0,0,1-3.57,2.15,3.81,3.81,0,0,1-3.07-2.91,1.32,1.32,0,0,1,.24-1.07.92.92,0,0,1,1-.21,3.26,3.26,0,0,1,1.22,1.14,6.35,6.35,0,0,1,1,2.1,2,2,0,0,1,.13.85,10.53,10.53,0,0,0-1.43-2.74,3.17,3.17,0,0,0-1.09-1,.49.49,0,0,0-.57.12.85.85,0,0,0-.11.71,3.39,3.39,0,0,0,2.68,2.49,2.84,2.84,0,0,0,3.06-1.79,1.08,1.08,0,0,0,0-.75.49.49,0,0,0-.53-.27,2.27,2.27,0,0,0-1.21.75A8.67,8.67,0,0,0,104.29,418.3Z"/><path class="cls-4" d="M125.36,99.08A41.78,41.78,0,0,1,123,92.85c-.35-1.64-.9-4.09-.28-5.64a3.94,3.94,0,0,1,4.2-2.69,9.51,9.51,0,0,1,5.33-7.61,24.17,24.17,0,0,1,9.07-2.61,7.59,7.59,0,0,1,3.44.35,4.31,4.31,0,0,1,2.11,2.16,7.63,7.63,0,0,1,6.69-1.24c2.53.62,5.43,1.9,6.59,4.23a7.37,7.37,0,0,1,.34,5.57c-.45,1.55-2,4-3.54,3.47"/><path class="cls-7" d="M127.85,141.91l22.66-1c.13-2.41-1.09-17.29-1.09-17.29s8.56-1.33,8.67-9.89-1.38-28.23-1.38-28.23h0a29.73,29.73,0,0,0-29.91,3.76l-1.27,1Z"/><path class="cls-8" d="M149.42,123.59a20.73,20.73,0,0,1-11.16-3.29s2.78,6.14,11.32,5.37Z"/><path class="cls-7" d="M126.58,99.07c-.14-.06-5.88-1.74-5.69,4.12s6,4.46,6,4.29S126.58,99.07,126.58,99.07Z"/><path class="cls-8" d="M125.06,105.32a2.81,2.81,0,0,1-.27.16,1.1,1.1,0,0,1-.76,0,2.52,2.52,0,0,1-1.24-2.23,3.37,3.37,0,0,1,.24-1.47,1.2,1.2,0,0,1,.74-.81.52.52,0,0,1,.61.26c.08.17.05.28.08.29s.12-.1.07-.34a.68.68,0,0,0-.24-.36.82.82,0,0,0-.57-.13,1.43,1.43,0,0,0-1,.94,3.43,3.43,0,0,0-.3,1.64,2.65,2.65,0,0,0,1.57,2.49,1.11,1.11,0,0,0,.93-.19C125.05,105.46,125.08,105.33,125.06,105.32Z"/><path class="cls-4" d="M155.56,99.65c-.15.16-1.07-.54-2.39-.55s-2.28.64-2.42.47.08-.35.51-.66a3.27,3.27,0,0,1,1.94-.57,3.19,3.19,0,0,1,1.9.63C155.5,99.29,155.64,99.58,155.56,99.65Z"/><path class="cls-4" d="M141.93,99.2a1.22,1.22,0,0,1-1.18,1.23,1.16,1.16,0,0,1-1.26-1.05v0a1.23,1.23,0,0,1,1.18-1.24,1.18,1.18,0,0,1,1.26,1.1Z"/><path class="cls-4" d="M142.15,97.76c-.15.16-1.08-.53-2.39-.52s-2.29.66-2.43.5.08-.36.51-.67a3.45,3.45,0,0,1,1.94-.6,3.24,3.24,0,0,1,1.9.62C142.09,97.4,142.22,97.69,142.15,97.76Z"/><path class="cls-4" d="M146.93,107.53a8.6,8.6,0,0,1,2.13-.39c.34,0,.66-.1.72-.33a1.82,1.82,0,0,0-.23-1l-1-2.56a45,45,0,0,1-2.24-6.7,43.77,43.77,0,0,1,2.77,6.5l.95,2.58a1.94,1.94,0,0,1,.18,1.32.86.86,0,0,1-.56.49,2.24,2.24,0,0,1-.57.08A8.15,8.15,0,0,1,146.93,107.53Z"/><path class="cls-4" d="M143.05,108.43c.22,0,.22,1.42,1.44,2.43s2.75.86,2.76,1.06-.34.28-1,.29a3.56,3.56,0,0,1-2.3-.8,3.05,3.05,0,0,1-1.12-2C142.8,108.78,143,108.42,143.05,108.43Z"/><path class="cls-4" d="M142.49,92.6c-.13.36-1.44.19-3,.38s-2.79.6-3,.28c-.09-.15.13-.49.63-.83a5.24,5.24,0,0,1,4.56-.51C142.26,92.15,142.55,92.43,142.49,92.6Z"/><path class="cls-4" d="M154.6,93.7c-.23.3-1.13,0-2.23,0s-2,.2-2.22-.11c-.09-.15,0-.45.45-.74a3.24,3.24,0,0,1,3.59.11C154.58,93.25,154.71,93.53,154.6,93.7Z"/><path class="cls-4" d="M125.07,89.81c.11,2.5-.44,5.28,0,7.73.06.37,1,1.36,1.11,1.72.5,2.17,1.4,3.1,2.69.86a19.07,19.07,0,0,0,1-4.22L131.43,88A13.78,13.78,0,0,0,138,89.53a6.65,6.65,0,0,0,5.56-3.29A6.9,6.9,0,0,0,153,88.6a7.16,7.16,0,0,0,1.24-.95,2.88,2.88,0,0,0,3.81.81,3.42,3.42,0,0,0,1.4-3.78c-.59-2.09-2.83-3.22-4.92-3.83-8.14-2.4-17.15-.52-24.47,3.78a12.1,12.1,0,0,0-3,2.22c-.83.92-2,2-2,3.23"/><path class="cls-6" d="M131.23,90.05a4,4,0,0,0-1.32.25,4.23,4.23,0,0,0-1.2.81c-.41.38-.81.87-1.3,1.34a4.22,4.22,0,0,1-1.64,1.09,3,3,0,0,1-1.62.06c-.91-.23-1.28-.72-1.24-.75a8.61,8.61,0,0,0,1.31.4,2.79,2.79,0,0,0,1.4-.15,4.15,4.15,0,0,0,1.44-1c.46-.45.88-.94,1.34-1.33a4.34,4.34,0,0,1,1.38-.8C130.7,89.67,131.27,90,131.23,90.05Z"/><path class="cls-6" d="M130.3,92.63a2.45,2.45,0,0,0-.92.44,5,5,0,0,0-.73.86A3.93,3.93,0,0,1,127.57,95a4,4,0,0,1-2.66.63c-.7-.09-1.08-.34-1-.39a6.57,6.57,0,0,1,1.08,0,4.36,4.36,0,0,0,2.35-.69c.82-.5,1.22-1.39,1.88-1.8S130.34,92.53,130.3,92.63Z"/><path class="cls-6" d="M152.46,75.42a1.83,1.83,0,0,1,.75,0,3.24,3.24,0,0,1,1.68,1.2c1.09,1.44,1.39,4,.64,6.59a9.25,9.25,0,0,1-4.06,5.26,8.86,8.86,0,0,1-1.85.85,1.71,1.71,0,0,1-.74.14q1.23-.58,2.4-1.29a9.44,9.44,0,0,0,3.77-5.11c.72-2.41.47-4.89-.45-6.23a3.22,3.22,0,0,0-1.46-1.22C152.72,75.53,152.45,75.46,152.46,75.42Z"/><path class="cls-6" d="M159.63,78.8a3.54,3.54,0,0,1,0,1.65,10.27,10.27,0,0,1-1.42,3.73,10.55,10.55,0,0,1-2.75,2.9,3.76,3.76,0,0,1-1.48.74,16.22,16.22,0,0,0,3.8-3.91A16.67,16.67,0,0,0,159.63,78.8Z"/><path class="cls-5" d="M205.44,137.39c-16.25-1.11-27.25-3.56-36.89-5.1s-17.25-2.22-17.25-2.22l8.26,15,11.57,19.62c-1.29-4.54,2.28-8.2,4.72-8.3,2.69-.11,73.11.12,73.11.12l-1.45-16.58Z"/><polygon class="cls-5" points="115.59 163 122.87 194.83 120.18 223.87 179.76 223.57 171.56 159.47 151.3 129.71 108.76 132.6 115.59 163"/><polygon class="cls-5" points="151.3 129.71 150.19 125.76 126.92 126.64 126.92 131.72 151.3 129.71"/><path class="cls-5" d="M122,151.53l7.81-.25v-18.2l-21-2S80.4,128.77,74.59,129s-14.33,2.77-14.36,12.57c0,13.9,44.24,20.41,56.52,24.24"/><path class="cls-4" d="M128.54,133.11a5.53,5.53,0,0,1,.16,1.07c.07.76.17,1.78.3,3,.23,2.69.56,6.42,1,10.91v.24h-.24l-18.44-.3-23.73-.5-7.18-.21-2-.09a3.82,3.82,0,0,1-.68-.06,3.86,3.86,0,0,1,.68,0h2l7.19.06,23.71.36,18.44.39-.22.23c-.32-4.49-.59-8.23-.78-10.92-.08-1.27-.14-2.29-.19-3A8.53,8.53,0,0,1,128.54,133.11Z"/><path class="cls-4" d="M117.47,150.92a3.22,3.22,0,0,1,.29,1.47,9.28,9.28,0,0,1-2.51,6.66c-.65.67-1.15,1-1.19.91a16.74,16.74,0,0,0,2.62-4.17A17.17,17.17,0,0,0,117.47,150.92Z"/><path class="cls-4" d="M173.08,171.38a19.06,19.06,0,0,1-.54-3c-.28-1.87-.66-4.46-1.13-7.3s-.95-5.41-1.34-7.26a22.09,22.09,0,0,1-.59-3,14.48,14.48,0,0,1,1,2.93c.48,1.83,1,4.4,1.5,7.25s.79,5.46,1,7.34A16.28,16.28,0,0,1,173.08,171.38Z"/><path class="cls-9" d="M174.61,180.31a11.33,11.33,0,0,0-2-1.14,10.48,10.48,0,0,0-6.12-.37c-2.61.48-5.38,2.07-8.4,3.87a36,36,0,0,1-5,2.52,22,22,0,0,1-5.81,1.43A23.24,23.24,0,0,1,136,185.08a27.91,27.91,0,0,1-4.46-2.35,35.77,35.77,0,0,0-3.77-2.13,10.4,10.4,0,0,0-6-1.08,9.22,9.22,0,0,0-2.17.72,1.81,1.81,0,0,1,.5-.33,6.23,6.23,0,0,1,1.63-.59,10.39,10.39,0,0,1,6.23.94,39.64,39.64,0,0,1,3.84,2.1,29.05,29.05,0,0,0,4.4,2.27,23.11,23.11,0,0,0,11.13,1.47,21.91,21.91,0,0,0,5.69-1.38,34.58,34.58,0,0,0,4.9-2.47c3-1.77,5.87-3.36,8.56-3.81a10.47,10.47,0,0,1,6.28.54,6.56,6.56,0,0,1,1.47.91A3,3,0,0,1,174.61,180.31Z"/><path class="cls-4" d="M156.19,202.33a4.16,4.16,0,0,1-1.22,0,21.33,21.33,0,0,1-3.28-.52,24,24,0,0,1-16.42-13.53,20.51,20.51,0,0,1-1.13-3.13,4.76,4.76,0,0,1-.25-1.19c.1,0,.5,1.67,1.71,4.16a25.11,25.11,0,0,0,16.18,13.34C154.46,202.17,156.2,202.23,156.19,202.33Z"/><path class="cls-9" d="M177.48,208.65c0,.06-.72-.41-2.13-.9a14.47,14.47,0,0,0-6.2-.58,28.3,28.3,0,0,0-8.91,2.65c-3.21,1.44-6.62,3.38-10.55,4.66a23.48,23.48,0,0,1-11.5.72,39.63,39.63,0,0,1-9-2.86c-2.46-1.09-4.37-2.12-5.68-2.85-.66-.36-1.16-.66-1.5-.86a2.45,2.45,0,0,1-.5-.34,3,3,0,0,1,.55.24l1.54.78c1.34.67,3.27,1.66,5.73,2.69a41,41,0,0,0,8.93,2.72,23.36,23.36,0,0,0,11.26-.73c3.86-1.26,7.27-3.18,10.52-4.61a27.83,27.83,0,0,1,9.07-2.58,14.06,14.06,0,0,1,6.3.76,9,9,0,0,1,1.56.76A2.78,2.78,0,0,1,177.48,208.65Z"/><path class="cls-9" d="M171.53,160.37a2.38,2.38,0,0,1-.49.34,12,12,0,0,1-1.49.82,16.92,16.92,0,0,1-6.06,1.41,32.7,32.7,0,0,1-9.19-.9c-3.4-.75-7-1.93-10.93-2.73a31.71,31.71,0,0,0-5.74-.7,23.35,23.35,0,0,0-5.34.49,35.82,35.82,0,0,0-8.57,3.14c-2.34,1.17-4.17,2.25-5.44,3l-1.47.84a3.71,3.71,0,0,1-.53.26,3.27,3.27,0,0,1,.48-.35l1.42-.92c1.24-.78,3-1.91,5.37-3.13a35.15,35.15,0,0,1,8.64-3.28,23.22,23.22,0,0,1,5.45-.53,31.06,31.06,0,0,1,5.84.7c3.94.81,7.57,2,10.93,2.78a33.73,33.73,0,0,0,9.06,1,18.15,18.15,0,0,0,6-1.24C170.82,160.78,171.5,160.32,171.53,160.37Z"/><path class="cls-9" d="M107.29,147.68a6.4,6.4,0,0,1,0,2.39,14.74,14.74,0,0,1-1.89,5.46,14.53,14.53,0,0,1-3.83,4.32A6.51,6.51,0,0,1,99.49,161c0-.08.74-.54,1.85-1.47a16.53,16.53,0,0,0,5.58-9.54C107.19,148.58,107.2,147.67,107.29,147.68Z"/><path class="cls-9" d="M95.86,130.15c.07.06-.59.84-1.35,2.27a16.07,16.07,0,0,0-1.21,12.23c.48,1.55,1,2.44.89,2.48s-.18-.19-.41-.59a9.61,9.61,0,0,1-.83-1.78,14.66,14.66,0,0,1-.77-6.4,14.46,14.46,0,0,1,2-6.12,9.46,9.46,0,0,1,1.15-1.59C95.65,130.31,95.83,130.13,95.86,130.15Z"/><path class="cls-9" d="M70.94,152.53a4,4,0,0,1-.46-.87,10.86,10.86,0,0,1-.43-1.07c-.18-.48-.34-1-.47-1.46a21.92,21.92,0,0,1-.72-3.93,25.77,25.77,0,0,1,.1-4.89,25.17,25.17,0,0,1,1.13-4.76,21.27,21.27,0,0,1,1.67-3.63,14.73,14.73,0,0,1,.82-1.29,8,8,0,0,1,.69-.93,3.83,3.83,0,0,1,.66-.73c.08.06-.8,1.15-1.85,3.13a25,25,0,0,0-1.54,3.61,24.72,24.72,0,0,0-1.2,9.45,25.44,25.44,0,0,0,.6,3.88C70.46,151.25,71,152.53,70.94,152.53Z"/><path class="cls-9" d="M120.29,131.84a8.69,8.69,0,0,1,.31,2.27,52.16,52.16,0,0,1-.42,11,8.54,8.54,0,0,1-.48,2.23,12.3,12.3,0,0,1,.12-2.27c.11-1.4.26-3.33.34-5.46s.08-4.07.07-5.47A12.42,12.42,0,0,1,120.29,131.84Z"/><g class="cls-10"><path d="M80.94,147.18c12.77,4.56,26.86,6.52,40.22,4.22,2.78-.47,5.79-1,7.38-3.28"/></g><path class="cls-9" d="M175.23,133.53a2.18,2.18,0,0,1-.21.47c-.15.3-.39.74-.73,1.28a23.31,23.31,0,0,1-3.35,4.25,19.32,19.32,0,0,1-6.72,4.37,17.32,17.32,0,0,1-4.66,1,20.82,20.82,0,0,1-5.11-.3A79.64,79.64,0,0,1,145,142a35,35,0,0,0-7.78-1.54,16.52,16.52,0,0,0-5.29.44c-1.22.33-1.86.64-1.88.59s.14-.1.45-.25a10.83,10.83,0,0,1,1.37-.54,16.23,16.23,0,0,1,5.37-.61,34.09,34.09,0,0,1,7.89,1.45,90.18,90.18,0,0,0,9.42,2.52,21,21,0,0,0,5,.3,17.09,17.09,0,0,0,4.53-.95,19.58,19.58,0,0,0,6.64-4.19,25.82,25.82,0,0,0,3.43-4.09A9.7,9.7,0,0,1,175.23,133.53Z"/><path class="cls-9" d="M151.11,127.21a3.8,3.8,0,0,1-.92.35c-.6.19-1.48.46-2.58.72a20.94,20.94,0,0,1-3.94.59,23.41,23.41,0,0,1-4.87-.43c-1.7-.3-3.29-.63-4.76-.78a16.87,16.87,0,0,0-3.89,0,13.23,13.23,0,0,0-3.43,1.05,2.51,2.51,0,0,1,.81-.56,9,9,0,0,1,2.56-.85,14.89,14.89,0,0,1,4-.12c1.5.13,3.11.45,4.8.75a26.2,26.2,0,0,0,4.76.46,22.11,22.11,0,0,0,3.89-.47A36.34,36.34,0,0,1,151.11,127.21Z"/><path class="cls-9" d="M191.3,136a2.73,2.73,0,0,1,.15.89,16.56,16.56,0,0,1,0,2.44,19.78,19.78,0,0,1-.51,3.59,22.08,22.08,0,0,1-3.68,8.05,20.61,20.61,0,0,1-2.38,2.73A15.55,15.55,0,0,1,183,155.3c-.47.33-.74.5-.77.47s1-.83,2.38-2.3a23.67,23.67,0,0,0,2.25-2.75,26.23,26.23,0,0,0,2.17-3.78,27.32,27.32,0,0,0,1.44-4.1,26,26,0,0,0,.61-3.51C191.31,137.31,191.21,136,191.3,136Z"/><path class="cls-9" d="M214.1,137.84c.08,0-.19,1.06-.45,2.75a31.22,31.22,0,0,0,.74,13.22,24.75,24.75,0,0,1,.75,2.68,9.65,9.65,0,0,1-1.1-2.58,25.54,25.54,0,0,1-1.25-6.65,25.86,25.86,0,0,1,.5-6.74A9.66,9.66,0,0,1,214.1,137.84Z"/><path class="cls-9" d="M236.76,156.53a12.31,12.31,0,0,1-.08-2.5v-6c0-2.23,0-4.29-.06-6a13.06,13.06,0,0,1,.06-2.5A11,11,0,0,1,237,142c.11,1.54.2,3.67.21,6s-.07,4.49-.17,6A11.76,11.76,0,0,1,236.76,156.53Z"/><polygon class="cls-4" points="178.5 216.03 200.51 418.88 174.41 420.88 151.99 243.53 124.93 419.72 96.81 415.62 121.26 216.72 178.5 216.03"/><path class="cls-6" d="M133.65,226.61a2.36,2.36,0,0,1,0,.75,11.29,11.29,0,0,1-.42,2,13.35,13.35,0,0,1-1.18,2.78,14.73,14.73,0,0,1-5.05,5.35,14.15,14.15,0,0,1-2.71,1.32,10,10,0,0,1-2,.52,2.3,2.3,0,0,1-.74.06c0-.1,1-.28,2.57-.92a16.87,16.87,0,0,0,2.58-1.39,17.22,17.22,0,0,0,2.74-2.3,18.11,18.11,0,0,0,2.16-2.85,15.22,15.22,0,0,0,1.24-2.65C133.43,227.65,133.55,226.6,133.65,226.61Z"/><path class="cls-6" d="M152.76,225.17a44.86,44.86,0,0,1,.26,6.76,45,45,0,0,1-.26,6.77,45,45,0,0,1-.26-6.77A44.86,44.86,0,0,1,152.76,225.17Z"/><path class="cls-6" d="M178.36,236.13a5.69,5.69,0,0,1-2.42-.29,10.53,10.53,0,0,1-7.53-8.41,5.53,5.53,0,0,1,0-2.43c.09,0,.06.93.39,2.36a11.06,11.06,0,0,0,7.28,8.13C177.44,236,178.37,236,178.36,236.13Z"/><path class="cls-6" d="M125.72,413.24a4.35,4.35,0,0,1-1.14,0c-.73,0-1.78-.13-3.07-.27-2.6-.28-6.17-.78-10.07-1.57s-7.4-1.69-9.9-2.43c-1.25-.37-2.25-.69-2.94-.93a5.09,5.09,0,0,1-1.06-.42,4.74,4.74,0,0,1,1.12.23l3,.77c2.52.65,6,1.49,9.9,2.27s7.44,1.34,10,1.72l3,.43A5.13,5.13,0,0,1,125.72,413.24Z"/><path class="cls-6" d="M200,411a38.84,38.84,0,0,1-3.89.22c-2.4.12-5.71.36-9.34.86s-6.88,1.16-9.22,1.7-3.78.92-3.8.85a3.59,3.59,0,0,1,1-.39c.64-.22,1.58-.5,2.74-.81a75.69,75.69,0,0,1,18.64-2.58c1.2,0,2.18,0,2.85.05A4.36,4.36,0,0,1,200,411Z"/><path class="cls-6" d="M117.58,215.35s49.24-70.09,39.24-85.2h4.05s3.48,4.4,0,17.53c-3.23,12.17-40.69,76.19-40.69,76.19Z"/><polyline class="cls-6" points="160.87 135.12 150.28 131.72 142.08 133.11 141.81 136.22 142.84 142.05 150.34 141.73 160.87 138.02 160.87 135.94"/><polygon class="cls-4" points="141.51 135.29 261.46 136.79 261.46 139.62 141.51 138.2 141.51 135.29"/><path class="cls-4" d="M202.58,266.88s-.13-.21-.35-.62-.57-1-1-1.84l-3.8-7.1c-3.28-6.2-8-15.15-13.91-26.23l-46-87.1-.06-.11v-.11c.54-1.42,1.13-3,1.72-4.48,14.21-37.1,27.07-70.68,36.39-95,4.68-12.14,8.46-22,11.09-28.77,1.31-3.38,2.33-6,3-7.81.34-.88.61-1.55.8-2l.29-.69-.24.7-.76,2-2.94,7.85L176,44.42c-9.29,24.34-22.1,57.94-36.26,95.05-.58,1.54-1.17,3.07-1.71,4.49v-.21l45.84,87.18c5.82,11.11,10.52,20.08,13.77,26.3,1.61,3.09,2.85,5.5,3.71,7.14l1,1.87C202.49,266.66,202.58,266.88,202.58,266.88Z"/><path class="cls-7" d="M128.54,133.11h7.77l6.48,3a3.57,3.57,0,0,1,1.9,2.06l2.31,6.36a3.54,3.54,0,0,1-2.11,4.54l-.15.05-6.1-3.55c-.62.73-8.53,1.92-8.53,1.92Z"/><path class="cls-7" d="M129.17,133.11s9.38-2.28,9.68-2.38a21.32,21.32,0,0,0,1.85-1.95c.84-.9,1.56,0,1.16,1.12,0,0,.12.86.12.87a25.17,25.17,0,0,1-2.27,3.89Z"/><path class="cls-8" d="M128.54,133.11a22.17,22.17,0,0,1,3-.82l3.25-.83a31.26,31.26,0,0,0,3.89-1.21,1.47,1.47,0,0,0,.41-.22c.12-.1.25-.25.37-.37s.5-.49.74-.74l.37-.36.18-.18a.81.81,0,0,1,.29-.19,1,1,0,0,1,1.15.39,1,1,0,0,1,.11.6,1,1,0,0,1-.07.46,3.62,3.62,0,0,1-.18.88,9.93,9.93,0,0,1-.54,1.5,8.75,8.75,0,0,1-1.22,1.95c-.36.41-.59.6-.61.58a18.47,18.47,0,0,0,1.49-2.68,10.75,10.75,0,0,0,.46-1.46q.09-.41.15-.84a3.29,3.29,0,0,0,.05-.44.45.45,0,0,0-.05-.3.46.46,0,0,0-.55-.18c-.09,0-.17.13-.3.26l-.36.37-.74.75c-.13.13-.24.25-.39.38a2.26,2.26,0,0,1-.54.32,26.62,26.62,0,0,1-4,1.19c-1.23.3-2.35.54-3.29.73A15.92,15.92,0,0,1,128.54,133.11Z"/><path class="cls-8" d="M145.82,142.05a4.08,4.08,0,0,1-.75-1.67,7.67,7.67,0,0,0-1.91-3.73,18,18,0,0,0-3.75-2.11,4.14,4.14,0,0,1-1.51-1.06c0-.06.64.31,1.67.73.51.21,1.13.45,1.82.75a8.12,8.12,0,0,1,2.12,1.3,7.08,7.08,0,0,1,1.91,4A12.18,12.18,0,0,1,145.82,142.05Z"/><path class="cls-8" d="M147.08,146.26a12.42,12.42,0,0,1-.46-1.69,11.34,11.34,0,0,0-4.94-6.48,14.32,14.32,0,0,1-1.51-.9,4,4,0,0,1,1.7.58,9.94,9.94,0,0,1,3.29,2.79,9.63,9.63,0,0,1,1.84,4A4.2,4.2,0,0,1,147.08,146.26Z"/><path class="cls-8" d="M145.62,149c-.17.06-.4-2.28-2.22-4.29s-4-2.77-3.9-2.93a3.17,3.17,0,0,1,1.4.45,9,9,0,0,1,2.88,2.13,7.7,7.7,0,0,1,1.7,3.17A3,3,0,0,1,145.62,149Z"/><path class="cls-6" d="M189.85,0A1.87,1.87,0,0,0,188,1.85a2,2,0,0,0,0,.25c.75,5.55,3.73,20.61,14.58,27C216,37,247.4,67.28,252.21,99.1c5.09,33.7,5.16,44.18,5.16,44.18s6.85,66.86-28,97.64c-23.68,20.91-30.11,23.83-28.34,40.31h1.56s-1.56-12.06,14-24.57S243,233,251,219.06a101.44,101.44,0,0,0,11-39.92c.85-13.32,4.72-28,8.84-33.24l3.52-3.85s-11-10.33-12.93-18.62c-1.66-7.22-5.64-33.21-8.1-40.35-4.41-12.8-10.1-19.49-16.67-29.13C232.47,47.8,215,31.78,204.45,25.1S189.81,4.74,189.81,0Z"/><path class="cls-4" d="M268.25,139.85a1.64,1.64,0,0,1-.26.33c-.18.22-.47.51-.8.94a26.82,26.82,0,0,0-2.64,3.94,33.43,33.43,0,0,0-2.81,6.94,50,50,0,0,0-1.7,9.79c-.31,3.67-.33,7.72-.36,12.07,0,2.17,0,4.42-.14,6.74,0,1.16-.15,2.33-.25,3.52s-.17,2.4-.37,3.61a91.87,91.87,0,0,1-28.54,55.61c-.88.86-1.83,1.6-2.73,2.4s-1.8,1.54-2.71,2.25c-1.83,1.44-3.63,2.78-5.37,4.09a80.35,80.35,0,0,0-9.2,7.78,32.41,32.41,0,0,0-5.85,8,23.59,23.59,0,0,0-2.34,7.08,18.28,18.28,0,0,0-.11,4.73,7.54,7.54,0,0,0,.17,1.22,3,3,0,0,1,.06.42,11.48,11.48,0,0,1-.33-1.63,17.32,17.32,0,0,1,0-4.77,23,23,0,0,1,2.28-7.18,32.83,32.83,0,0,1,5.84-8.1,81.23,81.23,0,0,1,9.21-7.87c1.73-1.32,3.53-2.66,5.34-4.1.91-.71,1.81-1.47,2.7-2.25s1.84-1.53,2.7-2.39a92,92,0,0,0,28.4-55.32c.2-1.2.26-2.41.37-3.59s.22-2.35.27-3.5c.1-2.31.14-4.56.16-6.73.05-4.34.09-8.4.43-12.09a48.4,48.4,0,0,1,1.78-9.84,32.78,32.78,0,0,1,2.92-7,24.58,24.58,0,0,1,2.73-3.9c.35-.42.65-.71.84-.92A1.64,1.64,0,0,1,268.25,139.85Z"/><path class="cls-4" d="M189.21.84a3.09,3.09,0,0,1,0,.43c0,.3.06.72.1,1.25a33.16,33.16,0,0,0,.85,4.74,34.66,34.66,0,0,0,2.71,7.1,28.6,28.6,0,0,0,6,8.06,121.45,121.45,0,0,0,9.39,7.87c3.49,2.69,7.3,5.47,11.17,8.58a108.27,108.27,0,0,1,11.34,10.71A101.12,101.12,0,0,1,241,62.84a106.61,106.61,0,0,1,8,14.7,112.53,112.53,0,0,1,5.23,14.69A110.41,110.41,0,0,1,257,106.07c.55,4.38.81,8.49,1.29,12.2a54.43,54.43,0,0,0,2,9.88,32,32,0,0,0,3.11,6.93,24,24,0,0,0,2.91,3.83c.37.41.68.69.88.89a1.47,1.47,0,0,1,.29.32,12.14,12.14,0,0,1-1.24-1.14,22.43,22.43,0,0,1-3-3.79,31.79,31.79,0,0,1-3.22-6.95,53.27,53.27,0,0,1-2.12-9.92c-.5-3.73-.78-7.83-1.35-12.2a109.28,109.28,0,0,0-2.8-13.76,112.44,112.44,0,0,0-5.24-14.61,105.83,105.83,0,0,0-8-14.63,102.18,102.18,0,0,0-10.15-13.2A108.13,108.13,0,0,0,219.1,39.25c-3.85-3.12-7.65-5.91-11.14-8.62a117,117,0,0,1-9.37-8,28.48,28.48,0,0,1-6-8.19A34.54,34.54,0,0,1,190,7.31a30.91,30.91,0,0,1-.77-4.78V1.27A2.07,2.07,0,0,1,189.21.84Z"/></g></g></g></svg>