<svg xmlns="http://www.w3.org/2000/svg" viewBox="0 0 470.24 399.48"><defs><style>.cls-1{fill:#455a64;}.cls-14,.cls-15,.cls-16,.cls-17,.cls-18,.cls-19,.cls-2,.cls-20,.cls-21,.cls-22,.cls-23,.cls-24,.cls-25,.cls-26,.cls-28,.cls-29,.cls-30,.cls-31,.cls-32,.cls-33,.cls-34,.cls-35,.cls-36,.cls-37,.cls-38,.cls-6{fill:#6aa9ff;}.cls-28,.cls-3,.cls-9{opacity:0.5;}.cls-4,.cls-40,.cls-42{opacity:0.2;}.cls-10,.cls-11,.cls-14,.cls-15,.cls-16,.cls-17,.cls-18,.cls-19,.cls-20,.cls-21,.cls-22,.cls-23,.cls-24,.cls-25,.cls-28,.cls-29,.cls-30,.cls-31,.cls-32,.cls-33,.cls-34,.cls-35,.cls-36,.cls-37,.cls-38,.cls-39,.cls-4,.cls-40,.cls-45,.cls-46,.cls-49,.cls-5,.cls-51,.cls-6,.cls-9{isolation:isolate;}.cls-10,.cls-11,.cls-40,.cls-5,.cls-8,.cls-9{fill:#fff;}.cls-5{opacity:0.9;}.cls-45,.cls-6,.cls-7{opacity:0.3;}.cls-10{opacity:0.65;}.cls-11{opacity:0.8;}.cls-12{fill:#37474f;}.cls-13{fill:#263238;}.cls-14{opacity:0.28;}.cls-15{opacity:0.25;}.cls-16{opacity:0.23;}.cls-17{opacity:0.21;}.cls-18{opacity:0.18;}.cls-19{opacity:0.16;}.cls-20{opacity:0.14;}.cls-21{opacity:0.12;}.cls-22{opacity:0.09;}.cls-23{opacity:0.07;}.cls-24{opacity:0.05;}.cls-25{opacity:0.02;}.cls-26{fill-opacity:0;}.cls-27{opacity:0.7;}.cls-29{opacity:0.46;}.cls-30{opacity:0.42;}.cls-31{opacity:0.38;}.cls-32{opacity:0.35;}.cls-33{opacity:0.31;}.cls-34{opacity:0.27;}.cls-35{opacity:0.19;}.cls-36{opacity:0.15;}.cls-37{opacity:0.08;}.cls-38{opacity:0.04;}.cls-39,.cls-41{opacity:0.05;}.cls-43{fill:#fafafa;}.cls-44{fill:#f0f0f0;}.cls-46{opacity:0.15;}.cls-47{fill:#f28f8f;}.cls-48{fill:#e0e0e0;}.cls-49{opacity:0.4;}.cls-50{fill:#ffa8a7;}.cls-51{opacity:0.1;}.cls-52{fill:#f5f5f5;}</style></defs><g id="Layer_2" data-name="Layer 2"><g id="Layer_1-2" data-name="Layer 1"><g id="freepik--Floor--inject-42"><g id="freepik--floor--inject-42-2" data-name="freepik--floor--inject-42"><ellipse id="freepik--floor--inject-42-3" data-name="freepik--floor--inject-42" class="cls-1" cx="235.12" cy="263.74" rx="235.12" ry="135.74"/></g><path class="cls-2" d="M41.81,287.44l34.29-19.8-.5-.86-34,19.66H26.46l-19.1,11c.13.3.26.61.4.92l19-10.95Z"/><path class="cls-2" d="M52,307l-.5-.87-23,13.26H20.59l.78,1h7.42Z"/><path class="cls-2" d="M76.06,280.38l-.47-.82L16.43,313.65c.19.28.37.56.56.83Z"/><path class="cls-2" d="M246.2,165.24l55.05-31.78-1.56-.26-54,31.17Z"/><path class="cls-2" d="M283.64,130.91l-1.65-.19-12.23,7.06.5.86Z"/><path class="cls-2" d="M173.06,146l-16.84,9.72a5.18,5.18,0,0,0-3.14.13l-23.36-13.48-1.32.39,23.74,13.7a1.17,1.17,0,0,0-.08,1.64l0,0L138.49,166l21.72,12.54.5-.86L140.49,166,153,158.75a5,5,0,0,0,3.36.14l18.92,10.92.5-.86-18.36-10.6a1.23,1.23,0,0,0,.35-1.7,1.27,1.27,0,0,0-.43-.4L175.06,146l-17.93-10.35-1.46.31Z"/><path class="cls-2" d="M198.17,144.56V129.69l-1,.09V144L173,158a4.91,4.91,0,0,0-3.83.25,1.34,1.34,0,0,0-.84,1.7,1.33,1.33,0,0,0,.84.84,4.87,4.87,0,0,0,4.4,0c1-.61,1.18-1.53.43-2.22l23.9-13.8Z"/><path class="cls-2" d="M435.92,334.4l.75-.72-12.33-7.12V311.17L317.15,249.28l-.44-.76-.44.25-.44-.25-.11-.07H291.28l25-14.43L453.93,313.5l.56-.83L318,233.86c4.24-.15,15.21,0,22.43.2h.17l1.68-1L461,301.58c.15-.3.3-.6.44-.9L343.24,232.56l8.64-5,1.62.94h0l.08.05h0l82,47.1c-.73.69-.59,1.6.45,2.2a4.85,4.85,0,0,0,4.39,0,1.34,1.34,0,0,0,.84-1.7,1.33,1.33,0,0,0-.84-.84,4.91,4.91,0,0,0-3.85-.24l-81-46.51h23.33v.07l.12-.07h13.35l68,39.23V290l4.48,2.59c.12-.32.23-.64.34-1l-3.82-2.21V267.19l-25-14.45,4.1-2.36V239.21l21-12.13c-.14-.3-.29-.6-.44-.9l-21.32,12.31-.25.14V249.8l-4.1,2.37L417,241.56v-8.47l17.59-10.15.25-.15V206.45l9.06-5.24-.68-.76-48.71,28.11-1.65-.95-.12-.07H380.85l56.8-32.79-.75-.72-58,33.53h-25l-1-.58,30.74-17.73-.5-.87-31.16,18-15.46-8.92h1.3l42.09-24.31h19.71a1.9,1.9,0,0,0,.77.77,4.87,4.87,0,0,0,4.4,0c1-.6,1.18-1.52.43-2.21l17.33-10-.86-.66-17.47,10.08a4.91,4.91,0,0,0-3.83.25,2,2,0,0,0-.77.77h-20l-42.1,24.31h-2.8L317.27,206.4l48.4-27.94h28.7L407,171.15l-1-.59-12,6.9h-28.7l-49.14,28.36-14.59-8.47,61-35.2a5,5,0,0,0,3.36,0L382,171.42l12.68-7.32-1-.55-11.64,6.72-15.13-8.71a1.18,1.18,0,0,0,.13-1.66,1.41,1.41,0,0,0-.18-.17l8.49-4.9-1.14-.5-8.35,4.82a5.23,5.23,0,0,0-3.18,0l-17-9.84,5.94-3.43c-.42-.14-.84-.29-1.27-.42l-5.67,3.27-7.33-4.23c.68-.68.52-1.57-.49-2.15a4.81,4.81,0,0,0-4.4,0c-1,.6-1.18,1.52-.43,2.21l-61,35.2-3.78-2.2-.12-.06H247.07l33.14-19.14H295.3l33.22-19.18-1.41-.34L295,157.36H279.94l-34.28,19.8.19.34h-7.41l-18-10.42,33.43-19.3.25-.14V128.45h-1v18.61L219.44,166.5l-3.1-1.79-.5.87,2.6,1.5-15.85,9.11-3.11-1.8-.5.87,2.61,1.5-17.09,9.87-.25.14v.64l-3.66-2.11-.5.86,4.16,2.41v8.91l-8.56-5-.5.87,9.06,5.23v1.24L170.14,208l-12.74-7.36-.5.86,12.2,7.09-14,8.11-12.75-7.35-.5.86,12.25,7.07L93.91,252H71.32L30.59,275.56v-15L232.4,144.07l.25-.14V128h-1v15.33L73.92,234.42H42.59L.17,258.93c0,.4-.06.8-.08,1.2L42.9,235.42H72.19L29.84,259.87l-.25.14v16.12l-25,14.43.34,1L71.59,253H94.14l60.92-35.17,7,4L145.2,231.6a4.94,4.94,0,0,0-4,.17,1.34,1.34,0,0,0-.84,1.7,1.33,1.33,0,0,0,.84.84,5,5,0,0,0,3.84.25l4.2,2.43-12.38,7.15-.25.14v13.1L67.93,297l-.25.14v19.31l-15.45,8.92a4.91,4.91,0,0,0-3.83.25,1.9,1.9,0,0,0-.77.77H26.5c.3.33.6.67.91,1H47.59a1.31,1.31,0,0,0,.33.44l-12.73,7.38.77.71,13-7.51a4.91,4.91,0,0,0,3.83-.25c1-.6,1.19-1.52.44-2.21l15.2-8.78.25-.14V297.74l68.62-39.62.25-.14v-13.1l12.63-7.32,24.23,14-85,49.1-.25.14V322L47.85,345.83l.86.66,41.15-23.75.25-.15V301.4l85.3-49.25,10.87,6.28L171.37,267l-.25.15v22.18L68.77,348.46l17.75,10.25a1.22,1.22,0,0,0-.48,1.66,1.27,1.27,0,0,0,.4.43l-7.57,4.37,1.07.54,7.56-4.36a5,5,0,0,0,3.35-.14l12.49,7.21L95.47,373l1.15.49,8.72-5-13.58-7.9a1.16,1.16,0,0,0,0-1.63l0,0,27.36-15.79.25-.15V331.81l97-56,12.79,7.39L142,333.47l-.25.14v15l-17.54,10.13-.25.14v16.35l-9.12,5.26,1.25.43,92.8-53.58.25-.14V311.75l34.72-20.05.93.54v22.19l13.79,8-16.92,9.77H229.8l-94.45,54.54,1.36.36,93.36-53.9H242L259.64,323l12.78,7.38-29.83,17.17c-1,.15-10.27.23-15.15.23h-.13l-74.75,43,1.47.3,73.54-42.35c2,0,14.9,0,15.46-.33l30.43-17.57,12.8,7.39-44.79,25.86H222.85l-30.26,17.64h-8.12l-19.88,11.48,1.53.27,18.64-10.75h8.12l30.22-17.61h18.59l45.52-26.28,24.6,14.2H279.89l-42.67,24.63a5,5,0,0,0-3.83.26,1.33,1.33,0,0,0-.82,1.71,1.31,1.31,0,0,0,.82.82,4.81,4.81,0,0,0,4.4,0c1-.6,1.18-1.52.43-2.21l41.94-24.21h60.6L311,371.28H279.69l-44.36,25.61.5.86L280,372.28h29.29l-42.36,24.45.5.87,75.37-43.51h9.63l5.39,3.11-16.08,9.28a4.91,4.91,0,0,0-3.83.25,1.34,1.34,0,0,0-.84,1.7,1.33,1.33,0,0,0,.84.84,4.85,4.85,0,0,0,4.39,0c1.05-.6,1.19-1.52.44-2.21l16.08-9.28,21.81,12.6,1.11-.51-28.95-16.72h-.08L281.59,312.2c.74-.69.6-1.61-.44-2.21a4.85,4.85,0,0,0-4.39,0,1.34,1.34,0,0,0-.84,1.7,1.33,1.33,0,0,0,.84.84,4.91,4.91,0,0,0,3.83.25l70.09,40.31H313.81l-68-39.24V291.67l-.93-.54,8.84-5.11,137,79.08.11.07h.51l1.93-1H391.1L254.76,285.44l12.8-7.39,122,70.44c1,.58,17.34.25,24.47.07l2.58,1.49.91-.63-3.23-1.86h-.14c-8.76.22-23.06.42-24.09.07L268.59,277.48,279.76,271a2.2,2.2,0,0,0,.51.4,4.91,4.91,0,0,0,3.83.25L390.47,333.1l.12.06h25.79l12.69,7.4.8-.69-13.14-7.59-.12-.07H390.83l-95.39-55.07h28.61L380.1,309.5c-.75.69-.6,1.61.44,2.21a4.85,4.85,0,0,0,4.39,0,1.33,1.33,0,0,0,.82-1.71,1.31,1.31,0,0,0-.82-.82,4.87,4.87,0,0,0-3.83-.26l-56.66-32.76-.12-.07H293.71l-8.64-5c.75-.69.6-1.61-.44-2.21a3.48,3.48,0,0,0-.69-.29l32.33-18.67,107.07,61.82v15.39ZM416,241l-6.33-3.66,6.33-3.65ZM433.8,207v15.19l-25.13,14.51-13.16-7.6ZM289.59,248.27l-12.8-7.39,13.49-7.79,1.57.9.12.07h.14c7.24-.18,18.25-.35,22.44-.21ZM211,230.45l-18,10.37v-2.19l-22.34-12.89,27-15.62v12.67Zm-10.07-22.16,24.23,14L212,229.89l-13.26-7.65V209.56Zm-2.18.1V207l1.18.68Zm19.33,38a4.09,4.09,0,0,0-1.53-.48v-3.78l7.33-4.23,28.06,16.2-12,6.9-21.4-12.44c.74-.67.6-1.59-.44-2.19Zm33.63-18.83H239.81l-1.78,1-10.87-6.28,7.72-4.45Zm-15.81-10.29,12-6.9h3.06L279.71,227l-1,.58h-25ZM237,229.16l-13.15,7.6L213,230.48l13.15-7.6Zm-14.15,8.17L216.59,241v-7.31Zm2,0L238,229.74l28.07,16.2-13.16,7.59ZM239,229.16l1-.6h13.36l21.38,12.35-7.71,4.45Zm16.39-.6h23.51l1.74-1,8.63,5-13.49,7.79ZM281.67,227l16.45-9.5h17l.12.07-25,14.41Zm-1-.58-27.78-16h26.24l1.69-1,13.89,8,.11.07h1.3Zm.15-18.16-14.65-8.46L285,188.93l14.62,8.42Zm-1,.57-1,.56h-27.7l-.79-.46,14.8-8.55Zm-44.94,7.89-24.23-14,16.45-9.51a1.93,1.93,0,0,0,.76.74,4.85,4.85,0,0,0,4.39,0,1.87,1.87,0,0,0,.78-.77h19.7l11.44,6.61Zm-1,.57-7.72,4.46-24.23-14,7.72-4.46ZM193,242l19-11,3.55,2.05v8.51l-18.42,10.63-4.09-2.37Zm22.51.72v3.17a4.54,4.54,0,0,0-1.87.51,1.34,1.34,0,0,0-.84,1.7,1.33,1.33,0,0,0,.84.84,5,5,0,0,0,3.84.25L239,261.56,226.2,269l-28.07-16.21ZM240,262.17l12.8,7.39L240,277l-12.79-7.39Zm1-.58,12-6.9,5.7,3.29.5-.87-5.2-3,13.16-7.59,12.79,7.38L253.84,269Zm27.11-15.65,7.71-4.45,12.8,7.38-7.72,4.46Zm72.2-12.85c-6.63-.17-21.19-.47-24,0-2.83-.43-17.39-.13-24,0l-.94-.55,25-14.42,25,14.42ZM350.88,227l-8.64,5-25-14.41.13-.07h17Zm-34.61-20,16.42,9.48H317.13l-.86.49-.74-.43-.11-.06H299.86Zm-1-.58-17.41,10.06h-2.77l-13.27-7.67,18.77-10.86Zm-23.1-21.65V168.62L333,145.06a5,5,0,0,0,3.36,0l25.29,14.61a1.21,1.21,0,0,0-.26,1.68,1,1,0,0,0,.2.21l-61,35.2-14.65-8.45,5.95-3.44Zm-1-15.54v15l-6.2,3.58-13-7.48ZM271,180.85l13,7.48-18.8,10.85-12.05-7-.12-.07h-1.56ZM219.4,167.62l18.77,10.84h28.7l3.15,1.81-19.85,11.46H232.71a2.66,2.66,0,0,0-.46-.35,4.91,4.91,0,0,0-3.83-.25l-24.83-14.37Zm-34.19,19.74,17.34-10,24.87,14.36a1.67,1.67,0,0,0-.25.28l-17.52,10.12L185.21,188Zm0,1.8,23.44,13.53-7.72,4.45-15.72-9.08Zm-.25,11.4.25-.14v-1.24l12.54,7.24v2.52l-28,16.19-5.67-3.28,15-8.68-8-4.61Zm-28.9,16.69,14-8.11,7,4-14,8.11ZM146,234a1.18,1.18,0,0,0,.22-1.64l-.11-.12L163,222.43l5.67,3.28L150.18,236.4Zm5.2,3,18.52-10.69L192,239.17v2.19L175.41,251Zm25.23,14.59,15.63-9v7.83l4.09,2.36-8.85,5.11Zm-57.82,79.53-.25.15v11.17l-27.55,15.9a5.21,5.21,0,0,0-3.15-.13l-16.87-9.72,101.1-58.37.25-.14V267.76L187.28,259l28.07,16.2Zm69.72-72.66,8.85-5.11,28,16.24-8.85,5.11Zm29.07,16.78,8.85-5.11L239,277.49l-8.88,5.07ZM208.48,311l-.25.15v15.39l-83.18,48V359.4l60.36-34.84-.5-.86L142.81,348V334.2l87.33-50.42,12.78,7.38Zm35.44-20.46-12.78-7.38,8.85-5.1,12.77,7.37Zm9.84-5.69L241,277.5l12.8-7.39,12.8,7.37Zm28.18-16.47a4.4,4.4,0,0,0-1.7.5,1.55,1.55,0,0,0-.9,1.21l-11.75,6.79-12.8-7.34,26.1-15.07,1.05.6Zm1-.37V254.48l-1.05-.61,7.72-4.45H315.1Z"/><path class="cls-2" d="M49.59,201.21l-39.2,22.63c-.29.56-.59,1.11-.87,1.66l41.2-23.79h28.4l13.85,8-9.52,5.49a4.91,4.91,0,0,0-3.83.25,2,2,0,0,0-.77.77h-36L4.06,238.61c-.15.47-.3.94-.44,1.41l39.48-22.8H78.85a1.9,1.9,0,0,0,.77.77,4.87,4.87,0,0,0,4.4,0c1-.6,1.18-1.52.43-2.21l9.52-5.5,7.3,4.22.5-.87L95,209.71l15.86-9.15,7.29,4.22.5-.87-6.8-3.92,17.9-10.34,7.3,4.22.5-.87-6.8-3.92,7.72-4.46,3.48,2,.5-.87-3-1.72,11-6.33-.5-.86-11.45,6.61-13.28-7.67c.81-.69.69-1.65-.38-2.27a5,5,0,0,0-3.93-.22l-1-.59V156.36L108,149.56l-1.22.46,12,6.95v15.19L91.39,156.3l-1.11.51,29.61,17.1c-.68.68-.52,1.57.49,2.15a4.89,4.89,0,0,0,3.73.29L137.44,184l-7.72,4.45L81.8,160.83l-1.06.54,48,27.7L110.85,199.4,87.78,186.08l-.12-.07H67.59a2,2,0,0,0-.72-.68,4.93,4.93,0,0,0-3.73-.28L52,178.56l-.88.64,11,6.36c-.81.7-.69,1.65.38,2.27a4.87,4.87,0,0,0,4.4,0,1.83,1.83,0,0,0,.81-.86H87.38l22.45,13L94,209.12l-14.58-8.41H50.69L35.52,192l-.76.72Z"/><path class="cls-2" d="M65.65,171.56a4.87,4.87,0,0,0,4.4,0,1.34,1.34,0,0,0,.84-1.7,1.33,1.33,0,0,0-.84-.84,4.64,4.64,0,0,0-2.4-.5l-2.89,1.71A1.48,1.48,0,0,0,65.65,171.56Z"/><g class="cls-3"><path d="M41.81,287.44l34.29-19.8-.5-.86-34,19.66H26.46l-19.1,11c.13.3.26.61.4.92l19-10.95Z"/><path d="M52,307l-.5-.87-23,13.26H20.59l.78,1h7.42Z"/><path d="M76.06,280.38l-.47-.82L16.43,313.65c.19.28.37.56.56.83Z"/><path d="M246.2,165.24l55.05-31.78-1.56-.26-54,31.17Z"/><path d="M283.64,130.91l-1.65-.19-12.23,7.06.5.86Z"/><path d="M173.06,146l-16.84,9.72a5.18,5.18,0,0,0-3.14.13l-23.36-13.48-1.32.39,23.74,13.7a1.17,1.17,0,0,0-.08,1.64l0,0L138.49,166l21.72,12.54.5-.86L140.49,166,153,158.75a5,5,0,0,0,3.36.14l18.92,10.92.5-.86-18.36-10.6a1.23,1.23,0,0,0,.35-1.7,1.27,1.27,0,0,0-.43-.4L175.06,146l-17.93-10.35-1.46.31Z"/><path d="M198.17,144.56V129.69l-1,.09V144L173,158a4.91,4.91,0,0,0-3.83.25,1.34,1.34,0,0,0-.84,1.7,1.33,1.33,0,0,0,.84.84,4.87,4.87,0,0,0,4.4,0c1-.61,1.18-1.53.43-2.22l23.9-13.8Z"/><path d="M435.92,334.4l.75-.72-12.33-7.12V311.17L317.15,249.28l-.44-.76-.44.25-.44-.25-.11-.07H291.28l25-14.43L453.93,313.5l.56-.83L318,233.86c4.24-.15,15.21,0,22.43.2h.17l1.68-1L461,301.58c.15-.3.3-.6.44-.9L343.24,232.56l8.64-5,1.62.94h0l.08.05h0l82,47.1c-.73.69-.59,1.6.45,2.2a4.85,4.85,0,0,0,4.39,0,1.34,1.34,0,0,0,.84-1.7,1.33,1.33,0,0,0-.84-.84,4.91,4.91,0,0,0-3.85-.24l-81-46.51h23.33v.07l.12-.07h13.35l68,39.23V290l4.48,2.59c.12-.32.23-.64.34-1l-3.82-2.21V267.19l-25-14.45,4.1-2.36V239.21l21-12.13c-.14-.3-.29-.6-.44-.9l-21.32,12.31-.25.14V249.8l-4.1,2.37L417,241.56v-8.47l17.59-10.15.25-.15V206.45l9.06-5.24-.68-.76-48.71,28.11-1.65-.95-.12-.07H380.85l56.8-32.79-.75-.72-58,33.53h-25l-1-.58,30.74-17.73-.5-.87-31.16,18-15.46-8.92h1.3l42.09-24.31h19.71a1.9,1.9,0,0,0,.77.77,4.87,4.87,0,0,0,4.4,0c1-.6,1.18-1.52.43-2.21l17.33-10-.86-.66-17.47,10.08a4.91,4.91,0,0,0-3.83.25,2,2,0,0,0-.77.77h-20l-42.1,24.31h-2.8L317.27,206.4l48.4-27.94h28.7L407,171.15l-1-.59-12,6.9h-28.7l-49.14,28.36-14.59-8.47,61-35.2a5,5,0,0,0,3.36,0L382,171.42l12.68-7.32-1-.55-11.64,6.72-15.13-8.71a1.18,1.18,0,0,0,.13-1.66,1.41,1.41,0,0,0-.18-.17l8.49-4.9-1.14-.5-8.35,4.82a5.23,5.23,0,0,0-3.18,0l-17-9.84,5.94-3.43c-.42-.14-.84-.29-1.27-.42l-5.67,3.27-7.33-4.23c.68-.68.52-1.57-.49-2.15a4.81,4.81,0,0,0-4.4,0c-1,.6-1.18,1.52-.43,2.21l-61,35.2-3.78-2.2-.12-.06H247.07l33.14-19.14H295.3l33.22-19.18-1.41-.34L295,157.36H279.94l-34.28,19.8.19.34h-7.41l-18-10.42,33.43-19.3.25-.14V128.45h-1v18.61L219.44,166.5l-3.1-1.79-.5.87,2.6,1.5-15.85,9.11-3.11-1.8-.5.87,2.61,1.5-17.09,9.87-.25.14v.64l-3.66-2.11-.5.86,4.16,2.41v8.91l-8.56-5-.5.87,9.06,5.23v1.24L170.14,208l-12.74-7.36-.5.86,12.2,7.09-14,8.11-12.75-7.35-.5.86,12.25,7.07L93.91,252H71.32L30.59,275.56v-15L232.4,144.07l.25-.14V128h-1v15.33L73.92,234.42H42.59L.17,258.93c0,.4-.06.8-.08,1.2L42.9,235.42H72.19L29.84,259.87l-.25.14v16.12l-25,14.43.34,1L71.59,253H94.14l60.92-35.17,7,4L145.2,231.6a4.94,4.94,0,0,0-4,.17,1.34,1.34,0,0,0-.84,1.7,1.33,1.33,0,0,0,.84.84,5,5,0,0,0,3.84.25l4.2,2.43-12.38,7.15-.25.14v13.1L67.93,297l-.25.14v19.31l-15.45,8.92a4.91,4.91,0,0,0-3.83.25,1.9,1.9,0,0,0-.77.77H26.5c.3.33.6.67.91,1H47.59a1.31,1.31,0,0,0,.33.44l-12.73,7.38.77.71,13-7.51a4.91,4.91,0,0,0,3.83-.25c1-.6,1.19-1.52.44-2.21l15.2-8.78.25-.14V297.74l68.62-39.62.25-.14v-13.1l12.63-7.32,24.23,14-85,49.1-.25.14V322L47.85,345.83l.86.66,41.15-23.75.25-.15V301.4l85.3-49.25,10.87,6.28L171.37,267l-.25.15v22.18L68.77,348.46l17.75,10.25a1.22,1.22,0,0,0-.48,1.66,1.27,1.27,0,0,0,.4.43l-7.57,4.37,1.07.54,7.56-4.36a5,5,0,0,0,3.35-.14l12.49,7.21L95.47,373l1.15.49,8.72-5-13.58-7.9a1.16,1.16,0,0,0,0-1.63l0,0,27.36-15.79.25-.15V331.81l97-56,12.79,7.39L142,333.47l-.25.14v15l-17.54,10.13-.25.14v16.35l-9.12,5.26,1.25.43,92.8-53.58.25-.14V311.75l34.72-20.05.93.54v22.19l13.79,8-16.92,9.77H229.8l-94.45,54.54,1.36.36,93.36-53.9H242L259.64,323l12.78,7.38-29.83,17.17c-1,.15-10.27.23-15.15.23h-.13l-74.75,43,1.47.3,73.54-42.35c2,0,14.9,0,15.46-.33l30.43-17.57,12.8,7.39-44.79,25.86H222.85l-30.26,17.64h-8.12l-19.88,11.48,1.53.27,18.64-10.75h8.12l30.22-17.61h18.59l45.52-26.28,24.6,14.2H279.89l-42.67,24.63a5,5,0,0,0-3.83.26,1.33,1.33,0,0,0-.82,1.71,1.31,1.31,0,0,0,.82.82,4.81,4.81,0,0,0,4.4,0c1-.6,1.18-1.52.43-2.21l41.94-24.21h60.6L311,371.28H279.69l-44.36,25.61.5.86L280,372.28h29.29l-42.36,24.45.5.87,75.37-43.51h9.63l5.39,3.11-16.08,9.28a4.91,4.91,0,0,0-3.83.25,1.34,1.34,0,0,0-.84,1.7,1.33,1.33,0,0,0,.84.84,4.85,4.85,0,0,0,4.39,0c1.05-.6,1.19-1.52.44-2.21l16.08-9.28,21.81,12.6,1.11-.51-28.95-16.72h-.08L281.59,312.2c.74-.69.6-1.61-.44-2.21a4.85,4.85,0,0,0-4.39,0,1.34,1.34,0,0,0-.84,1.7,1.33,1.33,0,0,0,.84.84,4.91,4.91,0,0,0,3.83.25l70.09,40.31H313.81l-68-39.24V291.67l-.93-.54,8.84-5.11,137,79.08.11.07h.51l1.93-1H391.1L254.76,285.44l12.8-7.39,122,70.44c1,.58,17.34.25,24.47.07l2.58,1.49.91-.63-3.23-1.86h-.14c-8.76.22-23.06.42-24.09.07L268.59,277.48,279.76,271a2.2,2.2,0,0,0,.51.4,4.91,4.91,0,0,0,3.83.25L390.47,333.1l.12.06h25.79l12.69,7.4.8-.69-13.14-7.59-.12-.07H390.83l-95.39-55.07h28.61L380.1,309.5c-.75.69-.6,1.61.44,2.21a4.85,4.85,0,0,0,4.39,0,1.33,1.33,0,0,0,.82-1.71,1.31,1.31,0,0,0-.82-.82,4.87,4.87,0,0,0-3.83-.26l-56.66-32.76-.12-.07H293.71l-8.64-5c.75-.69.6-1.61-.44-2.21a3.48,3.48,0,0,0-.69-.29l32.33-18.67,107.07,61.82v15.39ZM416,241l-6.33-3.66,6.33-3.65ZM433.8,207v15.19l-25.13,14.51-13.16-7.6ZM289.59,248.27l-12.8-7.39,13.49-7.79,1.57.9.12.07h.14c7.24-.18,18.25-.35,22.44-.21ZM211,230.45l-18,10.37v-2.19l-22.34-12.89,27-15.62v12.67Zm-10.07-22.16,24.23,14L212,229.89l-13.26-7.65V209.56Zm-2.18.1V207l1.18.68Zm19.33,38a4.09,4.09,0,0,0-1.53-.48v-3.78l7.33-4.23,28.06,16.2-12,6.9-21.4-12.44c.74-.67.6-1.59-.44-2.19Zm33.63-18.83H239.81l-1.78,1-10.87-6.28,7.72-4.45Zm-15.81-10.29,12-6.9h3.06L279.71,227l-1,.58h-25ZM237,229.16l-13.15,7.6L213,230.48l13.15-7.6Zm-14.15,8.17L216.59,241v-7.31Zm2,0L238,229.74l28.07,16.2-13.16,7.59ZM239,229.16l1-.6h13.36l21.38,12.35-7.71,4.45Zm16.39-.6h23.51l1.74-1,8.63,5-13.49,7.79ZM281.67,227l16.45-9.5h17l.12.07-25,14.41Zm-1-.58-27.78-16h26.24l1.69-1,13.89,8,.11.07h1.3Zm.15-18.16-14.65-8.46L285,188.93l14.62,8.42Zm-1,.57-1,.56h-27.7l-.79-.46,14.8-8.55Zm-44.94,7.89-24.23-14,16.45-9.51a1.93,1.93,0,0,0,.76.74,4.85,4.85,0,0,0,4.39,0,1.87,1.87,0,0,0,.78-.77h19.7l11.44,6.61Zm-1,.57-7.72,4.46-24.23-14,7.72-4.46ZM193,242l19-11,3.55,2.05v8.51l-18.42,10.63-4.09-2.37Zm22.51.72v3.17a4.54,4.54,0,0,0-1.87.51,1.34,1.34,0,0,0-.84,1.7,1.33,1.33,0,0,0,.84.84,5,5,0,0,0,3.84.25L239,261.56,226.2,269l-28.07-16.21ZM240,262.17l12.8,7.39L240,277l-12.79-7.39Zm1-.58,12-6.9,5.7,3.29.5-.87-5.2-3,13.16-7.59,12.79,7.38L253.84,269Zm27.11-15.65,7.71-4.45,12.8,7.38-7.72,4.46Zm72.2-12.85c-6.63-.17-21.19-.47-24,0-2.83-.43-17.39-.13-24,0l-.94-.55,25-14.42,25,14.42ZM350.88,227l-8.64,5-25-14.41.13-.07h17Zm-34.61-20,16.42,9.48H317.13l-.86.49-.74-.43-.11-.06H299.86Zm-1-.58-17.41,10.06h-2.77l-13.27-7.67,18.77-10.86Zm-23.1-21.65V168.62L333,145.06a5,5,0,0,0,3.36,0l25.29,14.61a1.21,1.21,0,0,0-.26,1.68,1,1,0,0,0,.2.21l-61,35.2-14.65-8.45,5.95-3.44Zm-1-15.54v15l-6.2,3.58-13-7.48ZM271,180.85l13,7.48-18.8,10.85-12.05-7-.12-.07h-1.56ZM219.4,167.62l18.77,10.84h28.7l3.15,1.81-19.85,11.46H232.71a2.66,2.66,0,0,0-.46-.35,4.91,4.91,0,0,0-3.83-.25l-24.83-14.37Zm-34.19,19.74,17.34-10,24.87,14.36a1.67,1.67,0,0,0-.25.28l-17.52,10.12L185.21,188Zm0,1.8,23.44,13.53-7.72,4.45-15.72-9.08Zm-.25,11.4.25-.14v-1.24l12.54,7.24v2.52l-28,16.19-5.67-3.28,15-8.68-8-4.61Zm-28.9,16.69,14-8.11,7,4-14,8.11ZM146,234a1.18,1.18,0,0,0,.22-1.64l-.11-.12L163,222.43l5.67,3.28L150.18,236.4Zm5.2,3,18.52-10.69L192,239.17v2.19L175.41,251Zm25.23,14.59,15.63-9v7.83l4.09,2.36-8.85,5.11Zm-57.82,79.53-.25.15v11.17l-27.55,15.9a5.21,5.21,0,0,0-3.15-.13l-16.87-9.72,101.1-58.37.25-.14V267.76L187.28,259l28.07,16.2Zm69.72-72.66,8.85-5.11,28,16.24-8.85,5.11Zm29.07,16.78,8.85-5.11L239,277.49l-8.88,5.07ZM208.48,311l-.25.15v15.39l-83.18,48V359.4l60.36-34.84-.5-.86L142.81,348V334.2l87.33-50.42,12.78,7.38Zm35.44-20.46-12.78-7.38,8.85-5.1,12.77,7.37Zm9.84-5.69L241,277.5l12.8-7.39,12.8,7.37Zm28.18-16.47a4.4,4.4,0,0,0-1.7.5,1.55,1.55,0,0,0-.9,1.21l-11.75,6.79-12.8-7.34,26.1-15.07,1.05.6Zm1-.37V254.48l-1.05-.61,7.72-4.45H315.1Z"/><path d="M49.59,201.21l-39.2,22.63c-.29.56-.59,1.11-.87,1.66l41.2-23.79h28.4l13.85,8-9.52,5.49a4.91,4.91,0,0,0-3.83.25,2,2,0,0,0-.77.77h-36L4.06,238.61c-.15.47-.3.94-.44,1.41l39.48-22.8H78.85a1.9,1.9,0,0,0,.77.77,4.87,4.87,0,0,0,4.4,0c1-.6,1.18-1.52.43-2.21l9.52-5.5,7.3,4.22.5-.87L95,209.71l15.86-9.15,7.29,4.22.5-.87-6.8-3.92,17.9-10.34,7.3,4.22.5-.87-6.8-3.92,7.72-4.46,3.48,2,.5-.87-3-1.72,11-6.33-.5-.86-11.45,6.61-13.28-7.67c.81-.69.69-1.65-.38-2.27a5,5,0,0,0-3.93-.22l-1-.59V156.36L108,149.56l-1.22.46,12,6.95v15.19L91.39,156.3l-1.11.51,29.61,17.1c-.68.68-.52,1.57.49,2.15a4.89,4.89,0,0,0,3.73.29L137.44,184l-7.72,4.45L81.8,160.83l-1.06.54,48,27.7L110.85,199.4,87.78,186.08l-.12-.07H67.59a2,2,0,0,0-.72-.68,4.93,4.93,0,0,0-3.73-.28L52,178.56l-.88.64,11,6.36c-.81.7-.69,1.65.38,2.27a4.87,4.87,0,0,0,4.4,0,1.83,1.83,0,0,0,.81-.86H87.38l22.45,13L94,209.12l-14.58-8.41H50.69L35.52,192l-.76.72Z"/><path d="M65.65,171.56a4.87,4.87,0,0,0,4.4,0,1.34,1.34,0,0,0,.84-1.7,1.33,1.33,0,0,0-.84-.84,4.64,4.64,0,0,0-2.4-.5l-2.89,1.71A1.48,1.48,0,0,0,65.65,171.56Z"/></g></g><g id="freepik--Shadows--inject-42"><ellipse id="freepik--Shadow--inject-42" class="cls-4" cx="342.43" cy="343.72" rx="26.15" ry="15.1"/><ellipse id="freepik--shadow--inject-42-2" data-name="freepik--shadow--inject-42" class="cls-4" cx="124.56" cy="336.69" rx="26.15" ry="15.1"/></g><g id="freepik--Charts--inject-42"><g id="freepik--Chart--inject-42"><path class="cls-2" d="M17.85,73.16,141.35,2.31c1.73-1,3.14-.19,3.14,1.82V95.47a7,7,0,0,1-3.14,5.44L17.85,171.76c-1.74,1-3.15.19-3.15-1.81V78.61A7,7,0,0,1,17.85,73.16Z"/><path class="cls-5" d="M17.85,73.16,141.35,2.31c1.73-1,3.14-.19,3.14,1.82V95.47a7,7,0,0,1-3.14,5.44L17.85,171.76c-1.74,1-3.15.19-3.15-1.81V78.61A7,7,0,0,1,17.85,73.16Z"/><path class="cls-6" d="M142.75,2.88h0c.64,0,.74.78.74,1.25V95.47a5.94,5.94,0,0,1-2.64,4.57L17.35,170.9a2,2,0,0,1-.91.29c-.64,0-.74-.78-.74-1.24V78.61A5.92,5.92,0,0,1,18.34,74L141.85,3.18a1.82,1.82,0,0,1,.9-.3m0-1a2.87,2.87,0,0,0-1.4.43L17.85,73.16a7,7,0,0,0-3.15,5.45V170c0,1.42.71,2.24,1.74,2.24a2.94,2.94,0,0,0,1.41-.43l123.5-70.85a7,7,0,0,0,3.14-5.44V4.13C144.49,2.7,143.78,1.88,142.75,1.88Z"/><g class="cls-7"><path class="cls-2" d="M29.52,152.77A201.75,201.75,0,0,1,31,131.21c.92-7.78,2.81-20.89,10.31-25.22s10.31,3.49,11.39,7.34c1.41,5,8.74,1.84,9.77-6.4S64.18,72.45,73,67.38s11.63,7.18,12.63,10.55c2,6.69,7.74,4.85,9.62.41s7-5.52,9,.72,3.15,13.4,9.43,9.72c5.51-3.22,3-9.11,8.36-11.89,4.25-2.21,6.22,8.29,6.22,18.92Z"/><path class="cls-2" d="M30.41,100.66c0,1.15,1,1.48,2.29.75l12.45-7.17a4.59,4.59,0,0,0,2.29-3.39c0-1.15-1-1.48-2.29-.75L32.7,97.27A4.59,4.59,0,0,0,30.41,100.66Z"/><path class="cls-2" d="M65.25,63.87c0,1.14,1,1.47,2.3.74L80,57.45a4.6,4.6,0,0,0,2.3-3.4c0-1.14-1-1.48-2.3-.75l-12.4,7.17A4.61,4.61,0,0,0,65.25,63.87Z"/><path class="cls-2" d="M89.74,68.66c0,1.15,1,1.48,2.3.75l12.44-7.17a4.58,4.58,0,0,0,2.3-3.39c0-1.15-1-1.48-2.3-.75L92,65.27A4.58,4.58,0,0,0,89.74,68.66Z"/><path class="cls-2" d="M112.64,73.92c0,1.14,1,1.48,2.29.74l12.45-7.16a4.56,4.56,0,0,0,2.29-3.4c0-1.14-1-1.48-2.29-.74l-12.45,7.2A4.61,4.61,0,0,0,112.64,73.92Z"/></g><path class="cls-8" d="M41.34,107.49a.5.5,0,0,1-.5-.5v-1a.5.5,0,1,1,1,0v1A.52.52,0,0,1,41.34,107.49Z"/><path class="cls-8" d="M41.34,141.82a.5.5,0,0,1-.5-.5v-1.91a.5.5,0,0,1,.5-.5.52.52,0,0,1,.5.5v1.91A.5.5,0,0,1,41.34,141.82Zm0-5.72a.5.5,0,0,1-.5-.5v-1.91a.5.5,0,0,1,1,0v1.87a.51.51,0,0,1-.48.54Zm0-5.72a.5.5,0,0,1-.5-.5V128a.5.5,0,0,1,1,0v1.91a.52.52,0,0,1-.5.5Zm0-5.73a.5.5,0,0,1-.5-.5v-1.9a.5.5,0,0,1,1,0v1.9A.5.5,0,0,1,41.34,124.65Zm0-5.72a.5.5,0,0,1-.5-.5v-1.87a.5.5,0,0,1,.5-.5.52.52,0,0,1,.5.5v1.91A.5.5,0,0,1,41.34,118.93Zm0-5.72a.5.5,0,0,1-.5-.5V110.8a.5.5,0,1,1,1,0v1.91A.52.52,0,0,1,41.34,113.21Z"/><path class="cls-8" d="M41.34,146.64a.5.5,0,0,1-.5-.5v-1a.5.5,0,0,1,1,0v1A.52.52,0,0,1,41.34,146.64Z"/><path class="cls-8" d="M99.33,76.56a.5.5,0,0,1-.5-.5v-1a.5.5,0,0,1,1,0v1A.5.5,0,0,1,99.33,76.56Z"/><path class="cls-8" d="M99.33,107.89a.5.5,0,0,1-.5-.5V105.3a.5.5,0,0,1,.5-.5.52.52,0,0,1,.5.5v2.09A.5.5,0,0,1,99.33,107.89Zm0-6.27a.5.5,0,0,1-.5-.5V99a.5.5,0,0,1,1,0v2.08A.5.5,0,0,1,99.33,101.62Zm0-6.26a.5.5,0,0,1-.5-.5V92.77a.5.5,0,0,1,1,0v2.09A.52.52,0,0,1,99.33,95.36Zm0-6.27a.5.5,0,0,1-.5-.5V86.5a.5.5,0,0,1,1,0v2.06a.51.51,0,0,1-.49.53Zm0-6.27a.5.5,0,0,1-.5-.5V80.23a.5.5,0,0,1,1,0v2.09A.5.5,0,0,1,99.33,82.82Z"/><path class="cls-8" d="M99.33,113.07a.5.5,0,0,1-.5-.5v-1a.5.5,0,0,1,.5-.5.52.52,0,0,1,.5.5v1A.5.5,0,0,1,99.33,113.07Z"/><path class="cls-8" d="M122,78.39a.52.52,0,0,1-.5-.5v-1a.5.5,0,0,1,.5-.5h0a.5.5,0,0,1,.5.5v1A.5.5,0,0,1,122,78.39Z"/><path class="cls-8" d="M122,95.23a.5.5,0,0,1-.5-.5V92.86a.5.5,0,0,1,.5-.5h0a.5.5,0,0,1,.5.5v1.87A.5.5,0,0,1,122,95.23Zm0-5.61a.52.52,0,0,1-.5-.5V87.25a.5.5,0,0,1,.5-.5h0a.49.49,0,0,1,.5.48h0v1.88a.5.5,0,0,1-.5.5ZM122,84a.5.5,0,0,1-.5-.5V81.63a.52.52,0,0,1,.5-.5.5.5,0,0,1,.5.5V83.5A.5.5,0,0,1,122,84Z"/><path class="cls-8" d="M122,100a.52.52,0,0,1-.5-.5v-1a.5.5,0,0,1,.5-.5.54.54,0,0,1,.5.5v1A.5.5,0,0,1,122,100Z"/><path class="cls-8" d="M75,68a.5.5,0,0,1-.5-.5v-1A.52.52,0,0,1,75,66a.5.5,0,0,1,.5.5v1A.5.5,0,0,1,75,68Z"/><path class="cls-8" d="M75,122.13a.5.5,0,0,1-.5-.5v-2a.5.5,0,0,1,1,0v2A.5.5,0,0,1,75,122.13Zm0-6a.52.52,0,0,1-.5-.5v-2a.52.52,0,0,1,.5-.5.5.5,0,0,1,.5.5v2a.51.51,0,0,1-.5.49Zm0-6a.5.5,0,0,1-.5-.5v-2a.5.5,0,0,1,1,0v2a.51.51,0,0,1-.5.47Zm0-6a.52.52,0,0,1-.5-.5v-2a.52.52,0,0,1,.5-.5.5.5,0,0,1,.5.5v2a.5.5,0,0,1-.5.46Zm0-6a.5.5,0,0,1-.5-.5v-2a.5.5,0,0,1,1,0v2a.51.51,0,0,1-.5.44Zm0-6a.52.52,0,0,1-.5-.5v-2a.5.5,0,0,1,1,0v2a.51.51,0,0,1-.5.43Zm0-6a.5.5,0,0,1-.5-.5v-2a.52.52,0,0,1,.5-.5.5.5,0,0,1,.5.5v2A.5.5,0,0,1,75,86Zm0-6a.5.5,0,0,1-.5-.5v-2a.5.5,0,0,1,1,0v2A.5.5,0,0,1,75,80Zm0-6a.52.52,0,0,1-.5-.5v-2a.52.52,0,0,1,.5-.5.5.5,0,0,1,.5.5v2A.49.49,0,0,1,75,74Z"/><path class="cls-8" d="M75,127.14a.5.5,0,0,1-.5-.5v-1a.52.52,0,0,1,.5-.5.5.5,0,0,1,.5.5v1A.5.5,0,0,1,75,127.14Z"/></g><g id="freepik--chart--inject-42-2" data-name="freepik--chart--inject-42"><path class="cls-2" d="M453.07,73.16,329.59,2.31c-1.73-1-3.14-.19-3.14,1.82V95.47a7,7,0,0,0,3.14,5.44l123.48,70.85c1.73,1,3.14.19,3.14-1.81V78.61A7,7,0,0,0,453.07,73.16Z"/><path class="cls-5" d="M453.07,73.16,329.59,2.31c-1.73-1-3.14-.19-3.14,1.82V95.47a7,7,0,0,0,3.14,5.44l123.48,70.85c1.73,1,3.14.19,3.14-1.81V78.61A7,7,0,0,0,453.07,73.16Z"/><path class="cls-6" d="M328.16,2.88a1.86,1.86,0,0,1,.91.3L452.59,74a5.92,5.92,0,0,1,2.64,4.58V170c0,.46-.1,1.24-.74,1.24a2,2,0,0,1-.91-.29L330.08,100a5.94,5.94,0,0,1-2.64-4.57V4.13c0-.47.1-1.25.74-1.25m0-1c-1,0-1.74.82-1.74,2.25V95.47a7,7,0,0,0,3.14,5.44l123.49,70.85a2.87,2.87,0,0,0,1.4.43c1,0,1.74-.82,1.74-2.24V78.61a7,7,0,0,0-3.14-5.45L329.59,2.31a2.87,2.87,0,0,0-1.4-.43Z"/><polygon class="cls-6" points="334.93 93.82 334.93 89.75 347.11 78.02 356.24 97.37 365.42 86.81 372.83 100.27 394.39 72.42 403.23 92.37 416.88 71.54 435.25 124.52 448.66 141.34 448.66 159.48 334.93 93.82"/><path class="cls-8" d="M416.88,141.56a.5.5,0,0,1-.5-.5v-2a.52.52,0,0,1,.5-.5.5.5,0,0,1,.5.5v2A.5.5,0,0,1,416.88,141.56Zm0-6a.5.5,0,0,1-.5-.5v-2a.52.52,0,0,1,.5-.5.5.5,0,0,1,.5.5v2A.5.5,0,0,1,416.88,135.56Zm0-6a.5.5,0,0,1-.5-.5v-2a.52.52,0,0,1,.5-.5.5.5,0,0,1,.5.5v2A.5.5,0,0,1,416.88,129.56Zm0-6a.5.5,0,0,1-.5-.5v-2a.52.52,0,0,1,.5-.5.5.5,0,0,1,.5.5v2A.5.5,0,0,1,416.88,123.56Zm0-6a.5.5,0,0,1-.5-.5v-2a.52.52,0,0,1,.5-.5.5.5,0,0,1,.5.5v2A.5.5,0,0,1,416.88,117.56Zm0-6a.5.5,0,0,1-.5-.5v-2a.52.52,0,0,1,.5-.5.5.5,0,0,1,.5.5v2A.5.5,0,0,1,416.88,111.56Zm0-6a.5.5,0,0,1-.5-.5v-2a.52.52,0,0,1,.5-.5.5.5,0,0,1,.5.5v2A.5.5,0,0,1,416.88,105.56Zm0-6a.5.5,0,0,1-.5-.5v-2a.52.52,0,0,1,.5-.5.5.5,0,0,1,.5.5v2A.5.5,0,0,1,416.88,99.56Zm0-6a.5.5,0,0,1-.5-.5v-2a.52.52,0,0,1,.5-.5.5.5,0,0,1,.5.5v2A.5.5,0,0,1,416.88,93.56Zm0-6a.5.5,0,0,1-.5-.5v-2a.52.52,0,0,1,.5-.5.5.5,0,0,1,.5.5v2A.5.5,0,0,1,416.88,87.56Zm0-6a.5.5,0,0,1-.5-.5v-2a.52.52,0,0,1,.5-.5.5.5,0,0,1,.5.5v2A.5.5,0,0,1,416.88,81.56Zm0-6a.5.5,0,0,1-.5-.5v-2a.52.52,0,0,1,.5-.5.5.5,0,0,1,.5.5v2A.5.5,0,0,1,416.88,75.56Z"/><path class="cls-8" d="M394.47,124.62a.5.5,0,0,1-.5-.5v-2a.5.5,0,0,1,1,0v2A.5.5,0,0,1,394.47,124.62Zm0-6a.5.5,0,0,1-.5-.5v-2a.5.5,0,0,1,1,0v2A.5.5,0,0,1,394.47,118.62Zm0-6a.5.5,0,0,1-.5-.5v-2a.5.5,0,0,1,1,0v2A.5.5,0,0,1,394.47,112.62Zm0-6a.5.5,0,0,1-.5-.5v-2a.5.5,0,0,1,1,0v2A.5.5,0,0,1,394.47,106.62Zm0-6a.5.5,0,0,1-.5-.5v-2a.5.5,0,0,1,1,0v2A.5.5,0,0,1,394.47,100.62Zm0-6a.5.5,0,0,1-.5-.5v-2a.5.5,0,0,1,1,0v2A.5.5,0,0,1,394.47,94.62Zm0-6a.5.5,0,0,1-.5-.5v-2a.5.5,0,0,1,1,0v2A.5.5,0,0,1,394.47,88.62Zm0-6a.5.5,0,0,1-.5-.5v-2a.5.5,0,0,1,1,0v2A.5.5,0,0,1,394.47,82.62Zm0-6a.5.5,0,0,1-.5-.5v-2a.5.5,0,0,1,1,0v2A.5.5,0,0,1,394.47,76.62Z"/><path class="cls-8" d="M347.11,100.56a.5.5,0,0,1-.5-.5v-2a.5.5,0,0,1,1,0v2A.5.5,0,0,1,347.11,100.56Zm0-6a.5.5,0,0,1-.5-.5v-2a.5.5,0,0,1,1,0v2A.5.5,0,0,1,347.11,94.56Zm0-6a.5.5,0,0,1-.5-.5v-2a.5.5,0,0,1,1,0v2A.5.5,0,0,1,347.11,88.56Zm0-6a.5.5,0,0,1-.5-.5v-2a.5.5,0,0,1,1,0v2A.5.5,0,0,1,347.11,82.56Z"/><path class="cls-8" d="M365.16,108.94a.52.52,0,0,1-.5-.5v-2a.5.5,0,0,1,1,0v2A.5.5,0,0,1,365.16,108.94Zm0-6a.52.52,0,0,1-.5-.5v-2a.5.5,0,0,1,1,0v2A.5.5,0,0,1,365.16,102.94Zm0-6a.52.52,0,0,1-.5-.5v-2a.5.5,0,0,1,1,0v2A.5.5,0,0,1,365.16,96.94Zm0-6a.52.52,0,0,1-.5-.5v-2a.5.5,0,0,1,1,0v2A.5.5,0,0,1,365.16,90.94Z"/><path class="cls-6" d="M353.59,72.07c0,1.14-1,1.48-2.29.75L344,68.56a4.59,4.59,0,0,1-2.29-3.39c0-1.15,1-1.48,2.29-.75l7.26,4.23A4.56,4.56,0,0,1,353.59,72.07Z"/><path class="cls-6" d="M371.48,85.35c0,1.15-1,1.48-2.29.75l-7.25-4.23a4.58,4.58,0,0,1-2.3-3.39c0-1.14,1-1.48,2.3-.75L369.19,82A4.59,4.59,0,0,1,371.48,85.35Z"/><path class="cls-6" d="M400.39,69.06c0,1.14-1,1.48-2.29.75l-7.26-4.25a4.61,4.61,0,0,1-2.29-3.4c0-1.14,1-1.47,2.29-.74l7.26,4.22A4.59,4.59,0,0,1,400.39,69.06Z"/><path class="cls-6" d="M424,68.56c0,1.14-1,1.48-2.3.74l-7.25-4.22a4.6,4.6,0,0,1-2.3-3.4c0-1.14,1-1.47,2.3-.74l7.25,4.22A4.6,4.6,0,0,1,424,68.56Z"/></g></g><g id="freepik--Stage--inject-42"><g id="freepik--stage--inject-42-2" data-name="freepik--stage--inject-42"><path class="cls-4" d="M379.9,231.92,242,311.47a14.19,14.19,0,0,1-12.85,0L91.28,231.93c-1.78-1-2.67-2.35-2.67-3.71A3.79,3.79,0,0,1,90,225.43a6.32,6.32,0,0,1,1.26-.91L229.18,145A14.19,14.19,0,0,1,242,145L379.9,224.5C383.44,226.56,383.44,229.89,379.9,231.92Z"/><path class="cls-2" d="M235.59,274.84v26.8a13.07,13.07,0,0,1-6.4-1.51L91.28,220.56c-1.78-1-2.67-2.37-2.67-3.71V193.67a3.83,3.83,0,0,1,1.41-2.8l20,11.52Z"/><path class="cls-9" d="M235.59,274.84v26.8a13.07,13.07,0,0,1-6.4-1.51L91.28,220.56c-1.78-1-2.67-2.37-2.67-3.71V193.67a3.83,3.83,0,0,1,1.41-2.8l20,11.52Z"/><path class="cls-2" d="M235.59,274.84v26.8a13.11,13.11,0,0,0,6.41-1.51l137.9-79.57c1.78-1,2.67-2.37,2.67-3.71V193.66a3.83,3.83,0,0,0-1.41-2.8l-20,11.52Z"/><path class="cls-10" d="M235.59,274.84v26.8a13.11,13.11,0,0,0,6.41-1.51l137.9-79.57c1.78-1,2.67-2.37,2.67-3.71V193.66a3.83,3.83,0,0,0-1.41-2.8l-20,11.52Z"/><path class="cls-2" d="M379.9,197.36,242,276.92a14.26,14.26,0,0,1-12.85,0L91.28,197.37c-1.78-1-2.67-2.34-2.67-3.7a3.83,3.83,0,0,1,1.41-2.8,6.32,6.32,0,0,1,1.26-.91l137.9-79.53a14.19,14.19,0,0,1,12.85,0L379.9,190C383.44,192,383.44,195.34,379.9,197.36Z"/><path class="cls-11" d="M379.9,197.36,242,276.92a14.26,14.26,0,0,1-12.85,0L91.28,197.37c-1.78-1-2.67-2.34-2.67-3.7a3.83,3.83,0,0,1,1.41-2.8,6.32,6.32,0,0,1,1.26-.91l137.9-79.53a14.19,14.19,0,0,1,12.85,0L379.9,190C383.44,192,383.44,195.34,379.9,197.36Z"/><path class="cls-8" d="M235.59,110.48a11.66,11.66,0,0,1,5.64,1.33l137.86,79.51c1.19.69,1.86,1.54,1.86,2.35s-.68,1.64-1.85,2.32L241.2,275.56a12.67,12.67,0,0,1-11.26,0L92.07,196c-1.19-.67-1.87-1.52-1.87-2.32a2.29,2.29,0,0,1,.9-1.63,5,5,0,0,1,1-.7L230,111.81a11.45,11.45,0,0,1,5.62-1.33m0-1.59a12.93,12.93,0,0,0-6.42,1.54L91.28,190a6,6,0,0,0-1.26.91,3.83,3.83,0,0,0-1.41,2.8c0,1.36.89,2.69,2.67,3.7l137.87,79.55a14.26,14.26,0,0,0,12.85,0l137.9-79.56c3.54-2,3.54-5.36,0-7.41L242,110.43a13.21,13.21,0,0,0-6.43-1.54Z"/><path class="cls-1" d="M231.32,126.56l-112,64.62c-2.37,1.37-2.37,3.58,0,4.95l112,64.61a9.43,9.43,0,0,0,8.56,0l112.05-64.62c2.37-1.37,2.37-3.58,0-5l-112-64.61A9.43,9.43,0,0,0,231.32,126.56Z"/><path class="cls-12" d="M351.9,191.19l-112-64.63a8.73,8.73,0,0,0-4.28-1v4.35l115.56,66.65.74-.43C354.27,194.77,354.27,192.56,351.9,191.19Z"/><path class="cls-13" d="M235.59,125.56a8.73,8.73,0,0,0-4.28,1l-112,64.62c-2.37,1.37-2.37,3.58,0,4.95l.74.43,115.54-66.65Z"/></g><g id="freepik--Light--inject-42"><g class="cls-3"><path class="cls-6" d="M243.33,244.4a13.81,13.81,0,0,1-7.87,1.85h0V261.8a9.8,9.8,0,0,0,5.28-1.57l109.85-63.4c2.05-1.13,3-2.13,3-3.5V180.76Z"/><path class="cls-14" d="M243.33,230.49a13.65,13.65,0,0,1-7.87,1.85h0v15.55a9.8,9.8,0,0,0,5.28-1.57l109.85-63.4c2.05-1.13,3-2.12,3-3.49V166.86Z"/><path class="cls-15" d="M243.33,216.56a13.81,13.81,0,0,1-7.87,1.85h0V234a9.8,9.8,0,0,0,5.28-1.57L350.59,169c2.05-1.13,3-2.13,3-3.5V153Z"/><path class="cls-16" d="M243.33,202.68a13.65,13.65,0,0,1-7.87,1.85h0v15.55a9.9,9.9,0,0,0,5.28-1.56l109.85-63.41c2.05-1.13,3-2.12,3-3.49V139.05Z"/><path class="cls-17" d="M243.33,188.78a13.81,13.81,0,0,1-7.87,1.85h0v15.55a9.8,9.8,0,0,0,5.28-1.57l109.85-63.4c2.05-1.13,3-2.12,3-3.5V125.14Z"/><path class="cls-18" d="M243.33,174.88a13.72,13.72,0,0,1-7.87,1.84h0v15.55a9.9,9.9,0,0,0,5.28-1.56L350.59,127.3c2.05-1.12,3-2.12,3-3.49V111.24Z"/><path class="cls-19" d="M243.33,161a13.73,13.73,0,0,1-7.87,1.85h0v15.55a9.8,9.8,0,0,0,5.28-1.57l109.85-63.4c2.05-1.13,3-2.12,3-3.49V97.33Z"/><path class="cls-20" d="M243.33,147.07a13.72,13.72,0,0,1-7.87,1.84h0v15.55a9.9,9.9,0,0,0,5.28-1.56L350.59,99.49c2.05-1.12,3-2.12,3-3.49V83.43Z"/><path class="cls-21" d="M243.33,133.16a13.65,13.65,0,0,1-7.87,1.85h0v15.55a9.8,9.8,0,0,0,5.28-1.57L350.59,85.56c2.05-1.13,3-2.12,3-3.49V69.56Z"/><path class="cls-22" d="M243.33,119.26a13.72,13.72,0,0,1-7.87,1.84h0v15.55a9.9,9.9,0,0,0,5.28-1.56L350.59,71.68c2.05-1.12,3-2.12,3-3.49V55.62Z"/><path class="cls-23" d="M243.33,105.35a13.65,13.65,0,0,1-7.87,1.85h0v15.55a9.8,9.8,0,0,0,5.28-1.57l109.85-63.4c2.05-1.13,3-2.12,3-3.49V41.72Z"/><path class="cls-24" d="M243.33,91.45a13.81,13.81,0,0,1-7.87,1.85h0v15.56a9.91,9.91,0,0,0,5.28-1.57L350.59,43.88c2.05-1.13,3-2.13,3-3.5V27.81Z"/><path class="cls-25" d="M243.33,77.56a13.65,13.65,0,0,1-7.87,1.85h0V95a9.8,9.8,0,0,0,5.28-1.57L350.59,30c2.05-1.13,3-2.12,3-3.49V13.91Z"/><path class="cls-26" d="M243.33,63.64a13.81,13.81,0,0,1-7.87,1.85h0V81a9.8,9.8,0,0,0,5.28-1.57l109.85-63.4c2.05-1.13,3-2.13,3-3.5V0Z"/></g><g class="cls-27"><path class="cls-28" d="M227.59,244.4a13.76,13.76,0,0,0,7.88,1.85h0V261.8a9.8,9.8,0,0,1-5.28-1.57l-109.82-63.4c-2.05-1.13-3-2.13-3-3.5V180.76Z"/><path class="cls-29" d="M227.59,230.49a13.61,13.61,0,0,0,7.88,1.85h0v15.55a9.8,9.8,0,0,1-5.28-1.57l-109.82-63.4c-2.05-1.13-3-2.12-3-3.49V166.86Z"/><path class="cls-30" d="M227.59,216.56a13.76,13.76,0,0,0,7.88,1.85h0V234a9.8,9.8,0,0,1-5.28-1.57L120.37,169c-2.05-1.13-3-2.13-3-3.5V153Z"/><path class="cls-31" d="M227.59,202.68a13.61,13.61,0,0,0,7.88,1.85h0v15.55a9.9,9.9,0,0,1-5.28-1.56L120.36,155.11c-2-1.13-3-2.12-3-3.49V139.05Z"/><path class="cls-32" d="M227.59,188.78a13.76,13.76,0,0,0,7.88,1.85h0v15.55a9.8,9.8,0,0,1-5.28-1.57l-109.82-63.4c-2.05-1.13-3-2.12-3-3.5V125.14Z"/><path class="cls-33" d="M227.59,174.88a13.75,13.75,0,0,0,7.88,1.84h0v15.55a9.9,9.9,0,0,1-5.28-1.56L120.36,127.3c-2-1.12-3-2.12-3-3.49V111.24Z"/><path class="cls-34" d="M227.59,161a13.68,13.68,0,0,0,7.88,1.85h0v15.55a9.8,9.8,0,0,1-5.28-1.57L120.37,113.4c-2.05-1.13-3-2.12-3-3.49V97.33Z"/><path class="cls-16" d="M227.59,147.07a13.75,13.75,0,0,0,7.88,1.84h0v15.55a9.9,9.9,0,0,1-5.28-1.56L120.36,99.49c-2-1.12-3-2.12-3-3.49V83.43Z"/><path class="cls-35" d="M227.59,133.16a13.61,13.61,0,0,0,7.88,1.85h0v15.55a9.8,9.8,0,0,1-5.28-1.57L120.36,85.56c-2-1.13-3-2.12-3-3.49V69.56Z"/><path class="cls-36" d="M227.59,119.26a13.75,13.75,0,0,0,7.88,1.84h0v15.55a9.9,9.9,0,0,1-5.28-1.56L120.36,71.68c-2-1.12-3-2.12-3-3.49V55.62Z"/><path class="cls-21" d="M227.59,105.35a13.61,13.61,0,0,0,7.88,1.85h0v15.55a9.8,9.8,0,0,1-5.28-1.57L120.37,57.78c-2.05-1.13-3-2.12-3-3.49V41.72Z"/><path class="cls-37" d="M227.59,91.45a13.76,13.76,0,0,0,7.88,1.85h0v15.56a9.88,9.88,0,0,1-5.28-1.57L120.37,43.89c-2.05-1.13-3-2.13-3-3.5V27.81Z"/><path class="cls-38" d="M227.59,77.56a13.61,13.61,0,0,0,7.88,1.85h0V95a9.8,9.8,0,0,1-5.28-1.57L120.36,30c-2-1.13-3-2.12-3-3.49V13.91Z"/><path class="cls-26" d="M227.59,63.64a13.76,13.76,0,0,0,7.88,1.85h0V81a9.8,9.8,0,0,1-5.28-1.57L120.36,16.07c-2-1.13-3-2.13-3-3.5V0Z"/></g></g></g><g id="freepik--Brain--inject-42"><g id="freepik--brain--inject-42-2" data-name="freepik--brain--inject-42"><path class="cls-2" d="M315.4,134.79s3.34,3.33,1,9.49c-2.23,6-9.53,7-9.53,7s1,9.81-14.92,11a10.13,10.13,0,0,0,0-2.06s7.31-.29,7.42-11.64-8.4-13.1-8.4-13.1a10.43,10.43,0,0,0,1.32-9.12c-2.08-6.22-6.48-5.56-6.48-5.56s3.19-2.34,1.79-8.14c-1.3-5.39-5.35-6.09-5.35-6.09s3-5.36-2.47-12.6-11.09-6.12-11.09-6.12a16.29,16.29,0,0,0-3.88-9.7c-3.89-4.53-10-3.89-10-3.89a15.8,15.8,0,0,0-5.22-12.18c-5.82-5.5-11.66-5.25-11.66-5.25A9.32,9.32,0,0,0,234,48.72a10.71,10.71,0,0,0-10.54-1.51s-1-7.12-7.16-8.48c-8.05-1.76-12,3-12,3s-2.68-3.53-8.81-4.53a31.42,31.42,0,0,1,8.1-7.45c7.25-4.44,18.23-1.61,18.23-1.61a14.18,14.18,0,0,1,9.58-2.64,10.9,10.9,0,0,1,8.19,4.78s3.36-2.48,11.5-2,10.09,6.9,10.09,6.9a19.8,19.8,0,0,1,11.34,3.19c6,3.73,6,11.7,6,11.7s7.27-2,13.64,4.61,3.56,12.76,3.56,12.76a14.4,14.4,0,0,1,11.33,21.25,6.39,6.39,0,0,1,4.07,3.9c1.24,3.19,0,5.14,0,5.14s6.19,2.64,7.8,9.2-1.61,10.45-1.61,10.45a10.22,10.22,0,0,1,5.14,9.22C322.48,133.38,315.4,134.79,315.4,134.79Z"/><path class="cls-39" d="M315.4,134.79s3.34,3.33,1,9.49c-2.23,6-9.53,7-9.53,7s1,9.81-14.92,11a10.13,10.13,0,0,0,0-2.06s7.31-.29,7.42-11.64-8.4-13.1-8.4-13.1a10.43,10.43,0,0,0,1.32-9.12c-2.08-6.22-6.48-5.56-6.48-5.56s3.19-2.34,1.79-8.14c-1.3-5.39-5.35-6.09-5.35-6.09s3-5.36-2.47-12.6-11.09-6.12-11.09-6.12a16.29,16.29,0,0,0-3.88-9.7c-3.89-4.53-10-3.89-10-3.89a15.8,15.8,0,0,0-5.22-12.18c-5.82-5.5-11.66-5.25-11.66-5.25A9.32,9.32,0,0,0,234,48.72a10.71,10.71,0,0,0-10.54-1.51s-1-7.12-7.16-8.48c-8.05-1.76-12,3-12,3a11,11,0,0,0-2.67-2.27c-.17-.11-.32-.2-.51-.3a15.69,15.69,0,0,0-5.63-2,31.25,31.25,0,0,1,8.1-7.41c7.25-4.44,18.23-1.61,18.23-1.61a14.18,14.18,0,0,1,9.58-2.64,10.9,10.9,0,0,1,8.19,4.78s3.36-2.48,11.5-2,10.09,6.9,10.09,6.9a19.8,19.8,0,0,1,11.34,3.19c6,3.73,6,11.7,6,11.7s7.27-2,13.64,4.61,3.56,12.76,3.56,12.76a14.4,14.4,0,0,1,11.33,21.25,6.39,6.39,0,0,1,4.07,3.9c1.24,3.19,0,5.14,0,5.14s6.19,2.64,7.8,9.2-1.61,10.45-1.61,10.45a10.22,10.22,0,0,1,5.14,9.22C322.48,133.38,315.4,134.79,315.4,134.79Z"/><path class="cls-4" d="M293.66,134.47a12.18,12.18,0,0,0,.4-8.71c-1.19-3.55-3.19-5.38-5.06-6.24a11.1,11.1,0,0,0,.42-7.3,9.85,9.85,0,0,0-4.81-6.72c.61-2.52.81-7.17-3.35-12.67s-8.42-6.67-10.89-6.89a18.49,18.49,0,0,0-4.15-9,13.77,13.77,0,0,0-9.59-4.53,18.09,18.09,0,0,0-5.72-11.69,20.52,20.52,0,0,0-11.11-5.63,11.29,11.29,0,0,0-4.65-7.87,12.66,12.66,0,0,0-10.31-2.37c-.87-2.61-3-6.82-8.12-7.94-6.18-1.36-10.3.71-12.35,2.24a17,17,0,0,0-7.5-3.62,36.15,36.15,0,0,0-2.67,3.39c5.86.63,8.44,3.78,8.58,4a1.9,1.9,0,0,0,2.94.09c.14-.16,3.45-3.86,10.19-2.37,4.78,1,5.68,6.66,5.71,6.89a1.92,1.92,0,0,0,2.18,1.6,2.13,2.13,0,0,0,.49-.15,8.8,8.8,0,0,1,8.61,1.32,7.42,7.42,0,0,1,3.19,6.37,1.9,1.9,0,0,0,.49,1.49,1.71,1.71,0,0,0,1.45.62c.19,0,5.18-.09,10.29,4.73a14,14,0,0,1,4.57,10.64A1.89,1.89,0,0,0,255,76.22s5.23-.46,8.39,3.22a14.62,14.62,0,0,1,3.42,8.47,1.91,1.91,0,0,0,.69,1.44,2,2,0,0,0,1.54.42c.19,0,4.63-.69,9.25,5.4s2.42,10.4,2.33,10.56a1.91,1.91,0,0,0,1.31,2.78c.12,0,2.89.63,3.85,4.66,1.06,4.39-1,6.12-1.07,6.17a1.85,1.85,0,0,0-.62,2.2,1.91,1.91,0,0,0,2,1.2c.29,0,3-.16,4.44,4.27a8.48,8.48,0,0,1-1,7.4,1.91,1.91,0,0,0-.27,1.8,2,2,0,0,0,1.37,1.2c.29.06,7,1.66,6.92,11.22-.1,9.28-5.42,9.75-5.62,9.77a1.93,1.93,0,0,0-1.81,2c0,.05,0,.11,0,.16a9,9,0,0,1,0,1.47,4.78,4.78,0,0,0,1.87.31,14.32,14.32,0,0,0,1.9-.22v-.37c2.67-.92,7.26-3.85,7.36-13.09C301.34,140.41,297.12,136.19,293.66,134.47Z"/><path class="cls-2" d="M291.93,160.23s7.31-.29,7.43-11.64S291,135.5,291,135.5a10.48,10.48,0,0,0,1.31-9.14c-2.06-6.21-6.47-5.55-6.47-5.55s3.19-2.34,1.79-8.14c-1.3-5.4-5.35-6.08-5.35-6.08s3-5.38-2.48-12.62-11.09-6.12-11.09-6.12a16.35,16.35,0,0,0-3.87-9.7c-3.88-4.52-10-3.87-10-3.87a15.89,15.89,0,0,0-5.15-12.2c-5.82-5.5-11.65-5.25-11.65-5.25a9.35,9.35,0,0,0-3.94-8.11,10.69,10.69,0,0,0-10.53-1.51s-1-7.12-7.18-8.48c-8-1.77-12,3-12,3s-5.44-7.2-18.54-4C174.8,40.4,174,48.62,174,48.62s-11.28-2.11-16.45,5.64S154,72,154,72s-6.46,4.53-6.14,11.31A20.61,20.61,0,0,0,151.11,94s-6.47,11-1.94,20a21,21,0,0,0,12.6,11s0,9.69,4.52,14.54,12.6,4.52,12.6,4.52a17.43,17.43,0,0,0,8.73,10c6.78,3.23,13.89.64,13.89.64a17.56,17.56,0,0,0,8.08,5.5c5.17,1.61,11.63,0,11.63,0A8.32,8.32,0,0,0,228,167c6.14,1.29,9.37-2.58,9.37-2.58s1.94,4.2,6.46,4.52a9,9,0,0,0,7.11-2.58s2.59,8.07,13.25,8.4,13.28-4.28,13.28-4.28,5.14,3.64,10.31-.24A11.07,11.07,0,0,0,291.93,160.23Z"/><path class="cls-40" d="M291.93,160.23s7.31-.29,7.43-11.64S291,135.5,291,135.5a10.48,10.48,0,0,0,1.31-9.14c-2.06-6.21-6.47-5.55-6.47-5.55s3.19-2.34,1.79-8.14c-1.3-5.4-5.35-6.08-5.35-6.08s3-5.38-2.48-12.62-11.09-6.12-11.09-6.12a16.35,16.35,0,0,0-3.87-9.7c-3.88-4.52-10-3.87-10-3.87a15.89,15.89,0,0,0-5.15-12.2c-5.82-5.5-11.65-5.25-11.65-5.25a9.35,9.35,0,0,0-3.94-8.11,10.69,10.69,0,0,0-10.53-1.51s-1-7.12-7.18-8.48c-8-1.77-12,3-12,3s-5.44-7.2-18.54-4C174.8,40.4,174,48.62,174,48.62s-11.28-2.11-16.45,5.64S154,72,154,72s-6.46,4.53-6.14,11.31A20.61,20.61,0,0,0,151.11,94s-6.47,11-1.94,20a21,21,0,0,0,12.6,11s0,9.69,4.52,14.54,12.6,4.52,12.6,4.52a17.43,17.43,0,0,0,8.73,10c6.78,3.23,13.89.64,13.89.64a17.56,17.56,0,0,0,8.08,5.5c5.17,1.61,11.63,0,11.63,0A8.32,8.32,0,0,0,228,167c6.14,1.29,9.37-2.58,9.37-2.58s1.94,4.2,6.46,4.52a9,9,0,0,0,7.11-2.58s2.59,8.07,13.25,8.4,13.28-4.28,13.28-4.28,5.14,3.64,10.31-.24A11.07,11.07,0,0,0,291.93,160.23Z"/><g class="cls-41"><path d="M206.75,68a32.15,32.15,0,0,0-4-6c-1.15-1.31-3-3.25-4.89-3-.56.06-.2,1,.2,1,1.75.31,3,1.8,3.94,3.17a39,39,0,0,1,2.76,4.65,32.07,32.07,0,0,1,3.83,13.66c.16,4-.82,8.09-4.65,10.07-4.49,2.32-10.29.85-14.52-1.31a11.87,11.87,0,0,1-6.73-9c-.07-.5-.85-.92-.83-.19a12.11,12.11,0,0,0,1.56,6.17A12.68,12.68,0,0,0,188,91.38c4.34,2.54,9.6,4,14.59,2.71C214.29,91.11,210.94,75.76,206.75,68Z"/><path d="M194.08,74.19a10.71,10.71,0,0,0-1.61-4.58,14.86,14.86,0,0,0-3.19-3.7A11.53,11.53,0,0,0,185,63.4c-.69-.18-.64.79-.22,1.06a25.2,25.2,0,0,1,3.69,2.46,13.49,13.49,0,0,1,2.71,3.4,10.07,10.07,0,0,1,1.18,3.93,10.2,10.2,0,0,1-.07,2.21c-.1.7-.28,1.36-.39,2.06-.05.32.36,1,.72.64A6.38,6.38,0,0,0,194.08,74.19Z"/><path d="M199.78,50.67a32.1,32.1,0,0,0-10.91-1,19.79,19.79,0,0,0-9.67,3.39c-5.09,3.37-8.91,8.38-9.87,14.49-.53,3.37-.82,7.59,2.16,10,.36.28,1,.12.81-.43a14.06,14.06,0,0,1-1.16-6,26.8,26.8,0,0,1,.8-5.2A18.91,18.91,0,0,1,177.6,57a20.27,20.27,0,0,1,10.15-5.42,26.49,26.49,0,0,1,6.1-.15,33.62,33.62,0,0,0,6.1.29C200.5,51.67,200.13,50.77,199.78,50.67Z"/><path d="M177.06,88.34c-3.06-4.91-8.86-8.83-14.75-8.71-4.62.09-11.74,2.67-11.08,8.44a10.37,10.37,0,0,0,4.5,7.11,3.75,3.75,0,0,0,3.71.21c1.38-.79,1.52-2.53,1.89-3.9.06-.22-.19-.71-.44-.44-1.14,1.22-2.25,4.22-4.36,2.73a9.13,9.13,0,0,1-3.3-5.24c-.83-4.45,4.31-6.6,7.85-7.1,4.93-.71,9.46,1.89,12.67,5.46,2.08,2.32,4.82,7.13,1.44,9.53a5.14,5.14,0,0,1-3.84.9c-1.56-.3-1.71-1.5-2-2.86-.15-.67-1.36-1-1.59-.21a3.58,3.58,0,0,0,1.89,4.23,6.65,6.65,0,0,0,5,.24,5.87,5.87,0,0,0,3.78-3.27C179.36,93.15,178.29,90.32,177.06,88.34Z"/><path d="M222.5,144.25c-2.58-5-7.4-8.39-12.36-10.69-.83-.38-1.66-.74-2.5-1.07a14.24,14.24,0,0,0,2.53-3,25.33,25.33,0,0,0,3.29-7.12,8.72,8.72,0,0,0-.94-7.31,7.73,7.73,0,0,0-2.81-2.58c-1.13-.6-3.05-1.26-4.3-.69-.5.23.06,1,.39,1,1.29.31,2.42.32,3.55,1.13a5.79,5.79,0,0,1,2.05,2.82,8.85,8.85,0,0,1-.24,5.79,25.28,25.28,0,0,1-2.83,5.82,13.14,13.14,0,0,1-2,2.4,6,6,0,0,1-1.19.79c-4.26-1.49-8.66-2.6-13-4-6.25-2-12-5.07-16.38-10a21.51,21.51,0,0,1-5.47-10.31,22.44,22.44,0,0,1-.3-4.91c.06-1.34.17-3.11,1.16-4.13.47-.49-.43-1.48-1-1.12-2.07,1.34-2,4.67-2,6.86a20.3,20.3,0,0,0,2.48,9.91,33,33,0,0,0,14.62,13.41c10.38,5,23.59,5.07,32,13.79a16,16,0,0,1,4.47,8.12,12.88,12.88,0,0,1,0,5.1c-.35,1.59-1.36,2.73-1.87,4.21-.14.39.42,1.09.84.88,2.45-1.17,3.31-4.49,3.49-7A15.77,15.77,0,0,0,222.5,144.25Z"/><path d="M209.44,144.84c-2.84-2.05-6.31-2.56-9.64-3.32s-6.67-1.44-9.94-2.43a42.85,42.85,0,0,1-4.79-1.75c-2.24-1-4.19-2.43-6.39-3.42a.48.48,0,0,0-.67.63c.66,1.41,2.35,2.45,3.64,3.24a25.5,25.5,0,0,0,4.06,2,62,62,0,0,0,9.16,2.69c3.74.86,7.8,1.29,11.4,2.62a12.09,12.09,0,0,1,3.09,1.7c1.14.84,2.81,2.15,2.93,3.66,0,.49.88.94,1,.25C213.59,148.19,211.33,146.21,209.44,144.84Z"/><path d="M164.06,117.18a19.94,19.94,0,0,0-3.85-5c-2-2.19-3.47-4.49-3.46-7.6a26.51,26.51,0,0,1,.63-4.86c.31-1.65.84-3.55.19-5.16-.11-.28-.51-.51-.7-.18a7.78,7.78,0,0,0-.58,2.43c-.13.76-.27,1.5-.42,2.25a35.56,35.56,0,0,0-.72,4.47,11,11,0,0,0,2.27,7.58c1.27,1.66,2.84,3,4.09,4.73a6.94,6.94,0,0,1,1.27,2.53c.36,1.56-.17,3-.52,4.52,0,.23.19.92.52.62A5.47,5.47,0,0,0,164.06,117.18Z"/><path d="M280.26,107.88a19.92,19.92,0,0,0-4.32,2,14.06,14.06,0,0,1-5,1.37c-3.1.24-6.11-.77-9.2-.75a9.47,9.47,0,0,0-7.17,3.17,12.28,12.28,0,0,0-1.78,2.45c-.62-.69-1.27-1.37-1.95-2a25.73,25.73,0,0,0-8.84-5.4,54.67,54.67,0,0,0-11.31-2.35c-3.46-.46-6.81-.9-10-2.49-2.62-1.32-5.67-3.17-6.46-6.21-.14-.51-1-.67-.9,0,.22,2.62,2.18,4.6,4.15,6.14a19.43,19.43,0,0,0,7.36,3.55c7,1.65,14.46,1.46,20.67,5.53a23,23,0,0,1,10.35,15.22c.93,5.27,1.34,11.85-2.82,15.89a44.48,44.48,0,0,1-9.84,6.93c-.83.45-1.74,1-2.62,1.55a23.91,23.91,0,0,0,.95-4.82,25.09,25.09,0,0,0-.84-9.94,22.59,22.59,0,0,0-4.73-8.21c-2.52-2.82-5.66-4.68-8.68-6.9a21,21,0,0,1-4.73-4.59c-1.5-2-2.75-4.3-4.08-6.45-.26-.42-.56.13-.42.44,1.52,3.38,3,6.78,5.55,9.54s5.81,4.55,8.55,7a22.36,22.36,0,0,1,7.44,16.65,21.33,21.33,0,0,1-.7,6c-.36,1.33-.91,2.6-1.31,3.91a6.1,6.1,0,0,0-1.36,2.88c-.08.5.78,1.27,1.19.76a23,23,0,0,1,3.52-3.73,27.23,27.23,0,0,1,4-2.44,46.52,46.52,0,0,0,9-6.18,13.53,13.53,0,0,0,4.52-7.16,25.4,25.4,0,0,0,.35-8.65,27.72,27.72,0,0,0-2-8.46,23.11,23.11,0,0,0-2.22-3.78,8.59,8.59,0,0,1,.62-1.62,10.4,10.4,0,0,1,2.27-2.59c2.09-1.74,4.85-1.57,7.39-1.23,2.92.4,5.82.8,8.72,0a17.84,17.84,0,0,0,4.1-1.67,10.69,10.69,0,0,0,3.27-2.39C281.2,108.49,280.71,107.78,280.26,107.88Z"/><path d="M271.1,96.93c-1.71-4.05-6.16-5.76-10-7.13a55.9,55.9,0,0,1-12.38-5.67,21.06,21.06,0,0,1-4.81-4.27,18.1,18.1,0,0,1-3.5-9.23c-.07-.54-1.31-1.1-1.45-.35-1.55,8.33,5.32,14.32,12,17.74a102.42,102.42,0,0,0,11.15,4.4c3.05,1.17,7.8,3.52,7.13,7.58-.32,2-2.14,2.59-3.85,3a27.89,27.89,0,0,1-7,.58A66.51,66.51,0,0,1,244,101.26,34.1,34.1,0,0,1,223.2,85.78a32.5,32.5,0,0,1-4.42-14.64,35.26,35.26,0,0,1,.4-7.68c.45-3,1-6.26,2.75-8.83.11-.17,0-.68-.28-.46A11.55,11.55,0,0,0,218.77,60a52.9,52.9,0,0,0-1.31,6.84,32.12,32.12,0,0,0,1.8,15.2A35.67,35.67,0,0,0,238,101.33a58.74,58.74,0,0,0,13.8,3.56c5,.8,10.28,1.15,15.2-.21a6.13,6.13,0,0,0,4.17-3A5.75,5.75,0,0,0,271.1,96.93Z"/><path d="M254.59,96.31c-1.78-.61-3.72-.8-5.52-1.39a38.5,38.5,0,0,1-5.37-2.09,24.43,24.43,0,0,1-8.08-6.55,24,24,0,0,1-5-10.25c-.73-4,.37-7.84.59-11.8,0-.33-.56-1.14-.8-.55a24.4,24.4,0,0,0-1.68,13.63,24.65,24.65,0,0,0,5.4,10.52,23.47,23.47,0,0,0,9,6.84,35.76,35.76,0,0,0,6,1.81c1.68.36,4,1.07,5.69.58C255.06,97,254.9,96.4,254.59,96.31Z"/><path d="M284.67,129.16c-3.81-3.56-10.69-4.62-11.9-10.51-.08-.36-.77-.75-.83-.18-.43,4.91,5.4,8,8.94,10.15a11,11,0,0,1,4.81,5.43c1.16,2.85.75,5.52-.23,8.33-.11.34.28.88.63.64C290.85,139.73,288,132.3,284.67,129.16Z"/><path d="M293.39,150.56c-2.05,1.83-4.08,3.23-6.9,3.35a13.55,13.55,0,0,1-6.88-1.66,7.44,7.44,0,0,1-4.3-5.69,12,12,0,0,1,.26-4.47,24.92,24.92,0,0,0,.91-4.35l.2.15a11.89,11.89,0,0,1,2.79,3.94c.12.21.62.52.8.18.86-1.61-.39-3.34-1.53-4.46a20.47,20.47,0,0,0-4.1-3,42.39,42.39,0,0,1-4.81-3.16,19.46,19.46,0,0,1-2.16-2c-1-1-1.73-2.25-2.65-3.33-.17-.2-.39,0-.38.22.11,1.91,1.76,3.79,3.05,5.07a27.08,27.08,0,0,0,4.93,3.73c.79.48,1.57,1,2.34,1.49a.73.73,0,0,0-.32.48c-.29,1.48-.85,2.9-1.23,4.35a13.64,13.64,0,0,0-.45,4.22,8.84,8.84,0,0,0,2.51,6.17,15.65,15.65,0,0,0,12.76,3.82,9.65,9.65,0,0,0,3.4-1.23,4.94,4.94,0,0,0,2.53-3.26C294.25,150.78,293.75,150.2,293.39,150.56Z"/><path d="M278.27,166.39a6.68,6.68,0,0,0-.59-2,19.35,19.35,0,0,0-2.27-3.82,10.58,10.58,0,0,0-3.53-2.84,12.44,12.44,0,0,0-2.13-.89l-.43-.14a6.84,6.84,0,0,0,.45-2,19.51,19.51,0,0,0-.8-6.4c-.57-2.05-1.49-4.17-3.54-5.11-.82-.38-.86.8-.29,1.16.88.55,1.33,2.24,1.63,3.16a19.85,19.85,0,0,1,.8,3.67c.22,1.82.39,3.79-.44,5.43a.31.31,0,0,0-.14.26,4.93,4.93,0,0,1-.34.54c-1.64,2.1-4.37,3-6.68,4.16s-4.86,2.5-5.21,5.24c-.06.43.61,1.05,1,.6a16.07,16.07,0,0,1,5.78-4.46,23.67,23.67,0,0,0,5.86-3.35,7.59,7.59,0,0,0,1.2-1.39h.16l.85.26a12,12,0,0,1,1.65.69,8.54,8.54,0,0,1,2.68,2.13,20.66,20.66,0,0,1,1.55,2.27,15.61,15.61,0,0,1,.92,1.71,13.38,13.38,0,0,1,.68,1.61,4,4,0,0,0,.36.94c.08.11.24.3.4.22C278.42,167.77,278.32,166.92,278.27,166.39Z"/><path d="M261.59,146.28c0-.32-.48-.69-.58-.18a9,9,0,0,1-2.28,4.76,24.57,24.57,0,0,1-4,3.19,22.23,22.23,0,0,0-3.9,3.2,7.55,7.55,0,0,0-1.46,2.16,4.09,4.09,0,0,0-.18,2.63c0,.18.33.68.57.41a22.22,22.22,0,0,0,1.8-2.8,10.2,10.2,0,0,1,1.6-1.93,34.48,34.48,0,0,1,3.74-2.85,13.4,13.4,0,0,0,3.66-3.46A7.56,7.56,0,0,0,261.59,146.28Z"/><path d="M210.24,105.31a13.88,13.88,0,0,0-4.37-1.26,36.83,36.83,0,0,0-13.15.7A45.66,45.66,0,0,0,182.59,108a24.82,24.82,0,0,0-4.77,2.86c-1,.77-3,2.2-2.43,3.65.09.23.36.55.64.47,1.45-.42,2.57-2,3.78-2.86a22.93,22.93,0,0,1,4.08-2.34,44.41,44.41,0,0,1,8.86-2.91,42.57,42.57,0,0,1,11.41-1.22,26.14,26.14,0,0,1,3.94.46,8.78,8.78,0,0,1,3.5,1.66.27.27,0,0,0,.38,0l0,0C212.46,106.56,211.05,105.74,210.24,105.31Z"/><path d="M189.26,96.21a5.32,5.32,0,0,0-1.53,1.22c-.56.54-1.13,1-1.72,1.54a19,19,0,0,1-3.94,2.5,16.76,16.76,0,0,1-4.21,1.32,20.26,20.26,0,0,1-2.06.22,6.72,6.72,0,0,0-2,.16c-.5.18-.22.86.11,1.06,1.3.79,3.38.48,4.8.24a16.63,16.63,0,0,0,4.6-1.54,19.34,19.34,0,0,0,3.94-2.63,15.34,15.34,0,0,0,1.7-1.72,2.7,2.7,0,0,0,.9-1.79C189.9,96.49,189.59,96.07,189.26,96.21Z"/></g><g class="cls-41"><path d="M262.88,38.05c-.17-.19-.37,0-.4.18-.19,1,0,2-.13,3a11.56,11.56,0,0,1-1.18,3.85c-1.18,2.33-3.18,4.7-5.76,5.5-6.35,2-11.79-2.17-16.19-6.22a22.72,22.72,0,0,0-.89-2.38,21.3,21.3,0,0,0-3.61-5.49,34.92,34.92,0,0,0-4.43-4.34,13.14,13.14,0,0,0-2.7-1.78,4.28,4.28,0,0,0-2.59-.61c-.51.11-.26.88.14,1a10.21,10.21,0,0,1,4.25,2.7,42.86,42.86,0,0,1,3.74,4,18.93,18.93,0,0,1,3.24,5.08,17.94,17.94,0,0,1,1,3.45c.1.53.19,1.06.3,1.58a9.11,9.11,0,0,0,.76,1.89c.11.25.49.53.67.19a5,5,0,0,0,.54-2.41,17.07,17.07,0,0,0,5.46,4.15,15.45,15.45,0,0,0,10.65,1.17,11.32,11.32,0,0,0,6.61-5.31C264,44.56,265.13,40.66,262.88,38.05Z"/><path d="M276.74,59.37c-2.24-1.69-5.11-3.25-8-3.17-.57,0-.17,1.06.28,1.09A13,13,0,0,1,274.87,60c1.35,1,3.45,2.68,3.4,4.56,0,2.63-4.56,3.06-6.4,3a18.17,18.17,0,0,1-9.8-3.68,20,20,0,0,1-4-3.58c-1.34-1.62-1.91-3.57-2.86-5.42-.15-.28-.71-.54-.76,0a10.37,10.37,0,0,0,2,6.36,17.73,17.73,0,0,0,4.21,4.3,19.91,19.91,0,0,0,11.28,4.14c2.79.06,7.81-.92,8.46-4.28C280.84,62.87,278.49,60.7,276.74,59.37Z"/><path d="M305,87.19c-1.19-.34-2.65.12-3.85.3-1.43.22-2.86.46-4.3.61a26.16,26.16,0,0,1-8.51-.37,20.7,20.7,0,0,1-6.51-2.66,27.76,27.76,0,0,1-6-5.6c-.31-.35-.75-.2-.73.27a7.21,7.21,0,0,0,1.57,3.49A12.76,12.76,0,0,0,279.35,86a21.18,21.18,0,0,0,7.31,3.45,26.19,26.19,0,0,0,9.16.76,49,49,0,0,0,5.1-.76c.87-.16,1.72-.37,2.58-.56.58-.13,1.54-.17,1.89-.73a.66.66,0,0,0-.26-.89A.42.42,0,0,0,305,87.19Z"/><path d="M296.12,72.66c-.61,0-.12,1,.23,1.06,1.59.44,2.07,3.83,1.37,5.17-1.05,2-4.3,2.08-6.23,2.1a17.84,17.84,0,0,1-8.91-2.31c-2.57-1.47-4.63-3.6-7.1-5.2-.42-.26-.52.37-.31.63,2.32,2.75,4.73,5.53,8,7.1a19.27,19.27,0,0,0,11,1.57c2.47-.37,5.47-1.46,5.72-4.35C300.16,76.14,298.85,72.56,296.12,72.66Z"/><path d="M308.17,96.71a2.59,2.59,0,0,0-.38-.17,5.66,5.66,0,0,0-.59-.15,7.42,7.42,0,0,0-1.14-.15,11.64,11.64,0,0,0-2.5.16A22,22,0,0,0,298.18,98a10,10,0,0,0-3.8,2.75,9.62,9.62,0,0,0-1.68,5.39,6.81,6.81,0,0,0,.77,3.76,6,6,0,0,0,5,3,1,1,0,0,0,.49-.13.62.62,0,0,0,.1-.73,1.92,1.92,0,0,0-.54-.56,11.15,11.15,0,0,1-2.45-2.35,6.27,6.27,0,0,1,1.9-8.66l.1-.06a19.87,19.87,0,0,1,5-1.94,9.38,9.38,0,0,1,5.74,0,.37.37,0,0,0,.4-.34v-.06C309.3,97.74,308.44,96.84,308.17,96.71Z"/><path d="M312.84,119.61c-2-4.3-6.84-6.94-11.37-7.7-2.47-.42-6.78-.6-8.39,1.74a.77.77,0,0,0-.17.44.57.57,0,0,0,.45.49,1.7,1.7,0,0,0,.71,0c2-.37,3.77-1,5.86-.84a14,14,0,0,1,10,5.5c1.68,2.49,2.12,6.61.22,9.13-1.63,2.15-4.6,2.16-7,1.51A7.43,7.43,0,0,1,299.5,128c-.85-1-.26-2.09.47-3,.38-.46-.31-1.48-.86-1.12-1.64,1.06-3,2.8-1.88,4.76a7.11,7.11,0,0,0,3.73,2.73c3.26,1.26,7.25,1.56,10.14-.78C314.19,128.07,314.41,123,312.84,119.61Z"/><path d="M308.31,140.56a11.62,11.62,0,0,0-3.09-4,5.91,5.91,0,0,0-4.56-1.51c-.55.1-.21,1,.23,1,2.83.21,4.72,2.94,5.68,5.34a12.11,12.11,0,0,1,.86,3.75,11.41,11.41,0,0,1-.06,1.85,5,5,0,0,1-.11.66,4,4,0,0,0-.11,1.29c.08.35.36.73.76.58.67-.27,1.15-1.31,1.36-1.94a6.89,6.89,0,0,0,.27-2.43A11.66,11.66,0,0,0,308.31,140.56Z"/></g><g class="cls-42"><path class="cls-8" d="M212.83,63.86c-.7-.12-1.39.32-1.78,1.59-.9,2.86,0,7.6.29,10.52a79.22,79.22,0,0,0,2.1,12.44c.84,3.31,1.94,6.66,4.14,9.27a19.79,19.79,0,0,0,7.94,5.26c8.11,3.25,17.24,3.74,25,7.81,1,.5,2.17,1,3,.35a1.77,1.77,0,0,0,.21-2.22,4.36,4.36,0,0,0-1.88-1.49c-3.09-1.51-6.53-2.08-9.85-3a40,40,0,0,1-15.41-7.63,28.14,28.14,0,0,1-9.36-14.2c-.93-3.55-1-7.24-1.53-10.86-.27-1.91-.14-4.06-.91-5.86A3.09,3.09,0,0,0,212.83,63.86Z"/><path class="cls-8" d="M195.85,78.12a7.19,7.19,0,0,1-6.31,6.25,2.5,2.5,0,0,0-1.71.49c-.77.84.25,2.11,1.19,2.75,3.12,2.13,6.87,4.12,10.51,3.13,3.81-1,6.14-5.15,6.31-9.1.15-3.31-2-20.7-8.76-15.41C193.91,68.72,196.24,74.79,195.85,78.12Z"/><path class="cls-8" d="M188.71,77.88c2.55-8.88-14-18.81-14.59-7.31a8.11,8.11,0,0,0,.72,4.42c2.52,4.47,6.79-2.48,10.31,1.86a10,10,0,0,0,1.32,1.65,1.44,1.44,0,0,0,1.92.06A1.58,1.58,0,0,0,188.71,77.88Z"/><path class="cls-8" d="M228.06,117.07a7.67,7.67,0,0,0,2,1.81c6.93,5,12.81,12.3,13.52,20.81.15,1.83.32,4.1,2,4.8a3.65,3.65,0,0,0,3-.44c3.24-1.78,5.07-5.53,5.29-9.22a22,22,0,0,0-2.53-10.68c-2.13-4.59-5.8-8.59-10.8-9.94C238.49,113.67,224.68,112,228.06,117.07Z"/><path class="cls-8" d="M184.88,115.39c2.08.3,4.14,1.7,6.32,1.93,2.69.29,5.84,0,8.1-1.59a23.71,23.71,0,0,1,2.28-1.83,4.5,4.5,0,0,1,5.24,1.08,7.46,7.46,0,0,1,1.75,5.35,7.69,7.69,0,0,1-3,6.19c-2.6,1.78-6.11,1.12-9.12.22-4.78-1.43-9.52-3.35-13.29-6.61a5.23,5.23,0,0,1-1.54-1.89,2.13,2.13,0,0,1,.35-2.3,2.82,2.82,0,0,1,1.78-.6A6.07,6.07,0,0,1,184.88,115.39Z"/><path class="cls-8" d="M228.12,89.56c4.14,4.6,9.83,7.53,15.61,9.74,5.5,2.11,14.14,5.18,20,2.71,1.8-.76,3.31-2.59,3-4.52s-1.92-3.14-3.56-4c-5.81-3.13-12.51-4.38-18.4-7.34-1.13-.57-2.67-1.08-3.53-.15s-.31,2.32.57,3.11a21,21,0,0,0,4.69,3.17c2.21,1,6.6,1.36,8.33,3s.24,2.82-1.84,2.51c-5.83-.88-11.66-2.5-16.58-5.75a22.76,22.76,0,0,1-9-11,32.23,32.23,0,0,1-1.45-5.1c-.18-1,.2-3.81-.71-4.52-2.87-2.26-2.57,6.6-2.38,7.72A21.08,21.08,0,0,0,228.12,89.56Z"/><path class="cls-8" d="M218,45.18a8.35,8.35,0,0,0-7.34-3.29A14.05,14.05,0,0,0,203,45a18.08,18.08,0,0,0-14.25-3.93c-3.76.54-7.66,2.23-10,5.41-.43.6-.76,1.53-.18,2a1.5,1.5,0,0,0,.87.25c3.91.18,7.83-1.6,11.9-1.52a23.61,23.61,0,0,1,12.1,3.24c2.34,1.45,4.39,3.43,7,4.39a6.44,6.44,0,0,0,7.56-9.7Z"/><path class="cls-8" d="M161.19,55.82a18.63,18.63,0,0,0-4.13,11.33c-.07,4.48,1.83,8.18,6.82,8.21a2.94,2.94,0,0,0,1.4-.26c1.36-.72,1.26-2.65,1.12-4.18a21.9,21.9,0,0,1,3-13.11c.66-1.11,1.46-2.36,1.09-3.6a2.88,2.88,0,0,0-2.4-1.82C165.27,52,162.89,53.72,161.19,55.82Z"/><path class="cls-8" d="M235.43,151.39a29.65,29.65,0,0,0-.65-10.41,21.44,21.44,0,0,0-8.26-12.53c-2.13-1.52-6.36-4-8.92-2.2s-1.84,5.28-.3,7.38,3.87,3.55,5.58,5.55a16.66,16.66,0,0,1,3.6,9.13c.31,2.94-.69,5.45-.59,8.23a3.07,3.07,0,0,0,1.22,2.49,3.11,3.11,0,0,0,1.76.45,6.26,6.26,0,0,0,5-3.33A13.15,13.15,0,0,0,235.43,151.39Z"/><path class="cls-8" d="M187.2,135.64l14.09,4.68a36.18,36.18,0,0,1,7.73,3.25,12.1,12.1,0,0,1,5.32,6.28c.42,1.29.73,2.9,2,3.35a2.39,2.39,0,0,0,2.82-1.73,5.41,5.41,0,0,0-.47-3.58c-2.45-5.88-8.11-9.84-14-12.3s-12.18-3.77-18.06-6.23a49.79,49.79,0,0,1-15.77-10.53c-2.11-2.09-4.42-2.47-4.2,1.14C167.28,129.56,179.75,133.17,187.2,135.64Z"/><path class="cls-8" d="M269.77,120.62c-1.51-1.94-3.5-.47-3.58,2.24s1.95,5.22,4.22,6.83,4.91,2.71,7,4.53a17.29,17.29,0,0,1,2.86,3c1,1.48,1.57,6.22,4.3,3.56,1.95-1.89.93-6.28-.38-8.14-1.62-2.29-4.14-3.73-6.58-5.11-2.59-1.47-6-3.37-7.39-6.09A6.53,6.53,0,0,0,269.77,120.62Z"/><path class="cls-8" d="M278.59,155.35a11.45,11.45,0,0,1-6.63-6.21c-.18-.45-.52-1-1-.89s-.43.71-.36,1.14c.26,1.65.29,3.46,1.13,4.92a15.67,15.67,0,0,0,3.57,4,9.82,9.82,0,0,1,2.75,3.32c.6,1.36.51,2.91,1.39,4.18a4.17,4.17,0,0,0,1.86,1.46,5.5,5.5,0,0,0,7-3.06C290.72,157.79,283.22,157.09,278.59,155.35Z"/><path class="cls-8" d="M162.65,83.11a7.86,7.86,0,0,0-3,.47,3.25,3.25,0,0,0-2,2.15,3.55,3.55,0,0,0,2,3.58,18.3,18.3,0,0,0,4.21,1.29,16.09,16.09,0,0,1,6.24,3.28c.79.67,1.78,1.48,2.74,1.07a2.28,2.28,0,0,0,1.06-2.09,7.91,7.91,0,0,0-1-4.36C170.77,84.7,166.77,83.09,162.65,83.11Z"/></g><path class="cls-2" d="M236.79,36.69c2.22,3,4.09,6.28,6.89,8.72s6.92,3.85,10.28,2.26a7.66,7.66,0,0,0,4.09-5.61c.53-3.18-1-7.65-3.7-9.47a10.49,10.49,0,0,0-11.86.4,1.75,1.75,0,0,1-.8.44,1.73,1.73,0,0,1-1-.35c-1.78-1.1-5.78-4.79-8-4C229.59,30.1,236,35.56,236.79,36.69Z"/><path class="cls-2" d="M264.43,51.15a1.06,1.06,0,0,0-.09.85,1,1,0,0,0,.73.42c1.92.46,3.88.71,5.79,1.23a21.28,21.28,0,0,1,9.56,5.64,10.3,10.3,0,0,1,3.29,6.34c.14,2.43-1.41,5.06-3.8,5.48-.38,1.22.78,2.34,1.85,3a31.73,31.73,0,0,0,5.43,2.81c2.1.84,4.93,1.26,6.24-.58,1-1.37.48-3.37-.66-4.6a11.07,11.07,0,0,0-4.33-2.46c2.91-3.14,2.81-8.39.28-11.84a13.06,13.06,0,0,0-11.31-4.86,4.11,4.11,0,0,1-2.49-.31c-1.57-1-.82-3.41-.91-4.94-.17-2.74-2.23-6.89-5.5-4.74C265.93,44.32,265.52,48.56,264.43,51.15Z"/><path class="cls-2" d="M262.59,57.91a2.23,2.23,0,0,0-2.11.78c-.48.85.23,1.88,1,2.53a14.9,14.9,0,0,0,3.33,2.28,15.38,15.38,0,0,0,7.83,1.62,2.47,2.47,0,0,0,1-.22c2.44-1.33-.44-5.37-2.09-6C269,57.87,265.3,58,262.59,57.91Z"/><path class="cls-2" d="M284.84,91.37a1.81,1.81,0,0,0-1.5.25,1.29,1.29,0,0,0-.11,1.56c.63,1.1,1.65,2,2.32,3.14a8.91,8.91,0,0,1,1.3,4.58c0,1.29-.26,2.67.38,3.79.35.6.93,1,1.24,1.66.19.37.28.79.47,1.16a1.19,1.19,0,0,0,.95.71c.66,0,1-.76,1.18-1.4.61-2.32.56-5,1.6-7.16,1.17-2.45,3.36-3.15,5.66-4,2.66-1,5.53-1.22,8.29-1.89a3.43,3.43,0,0,0,1.07-.43,1.14,1.14,0,0,0,.51-1c-.16-1.33-2.83-1-3.66-.9A67.74,67.74,0,0,1,284.84,91.37Z"/><path class="cls-2" d="M298.38,108.16c0-3.78,5.21-6.43,8.47-6.45a12.89,12.89,0,0,1,7,2.29c2.62,1.72,3.59,6,2.91,8.92a4.58,4.58,0,0,1-1.27,2.39,2.34,2.34,0,0,1-2.54.46,4.21,4.21,0,0,1-1.27-1.25,13.54,13.54,0,0,0-10-5C300.39,109.45,298.77,109.36,298.38,108.16Z"/><path class="cls-2" d="M304.59,117.06a12.44,12.44,0,0,0-6.09-.86,3.9,3.9,0,0,0-2.2.81,1.66,1.66,0,0,0-.38,2.14,2.53,2.53,0,0,0,.91.68,38.85,38.85,0,0,1,4.83,3.1,3.88,3.88,0,0,1,1.37,1.5,12.06,12.06,0,0,0,.56,1.95,3.09,3.09,0,0,0,2.34,1.07,3.37,3.37,0,0,0,1.78-.08,2.71,2.71,0,0,0,1.29-2,7.23,7.23,0,0,0-5.42-8.66,7.77,7.77,0,0,0-1.67-.18"/><path class="cls-2" d="M260.19,69.14a1.11,1.11,0,0,0-1,.14.74.74,0,0,0,0,.93,2.2,2.2,0,0,0,.84.57,35.06,35.06,0,0,1,6.66,3.59,9.66,9.66,0,0,1,3.95,6.24c.07.63.11,1.37.64,1.71a1.27,1.27,0,0,0,1.65-.49,3.62,3.62,0,0,0,.49-1.82c.26-2.91,1-7.39-2.43-8.73a23.78,23.78,0,0,0-3.92-.66C264.79,70.15,262.51,69.56,260.19,69.14Z"/><path class="cls-2" d="M205.17,32.37c-.81.52-1.71,1.22-1.68,2.18a2,2,0,0,0,1.67,1.66,6.5,6.5,0,0,0,2.52-.22c5.61-1.18,12.12-.66,16.08,3.49a13.66,13.66,0,0,0,2.29,2.27c2.48,1.6,5.75,1.32,8.48,2a2.71,2.71,0,0,0-.4-1.62C229,32.37,215,26.1,205.17,32.37Z"/><path class="cls-2" d="M307.59,134.34c-.61.11-1.32.38-1.46,1s.32,1.08.72,1.49l1.86,1.87a7.88,7.88,0,0,1,1.19,1.39c.81,1.32.8,3,1.12,4.48.1.46.34,1,.81,1.05a1,1,0,0,0,.7-.33c1.48-1.32,1.63-3.54,1.62-5.53C314.19,135.44,311.83,133.56,307.59,134.34Z"/><path class="cls-43" d="M215.13,98.5a2.07,2.07,0,1,1-2.08-2.06h0A2.07,2.07,0,0,1,215.13,98.5Z"/><path class="cls-43" d="M200.82,59a2.07,2.07,0,1,1-2.08-2.06h0A2.07,2.07,0,0,1,200.82,59Z"/><path class="cls-43" d="M183.87,81A2.07,2.07,0,1,1,181.8,79h0A2.06,2.06,0,0,1,183.87,81Z"/><path class="cls-43" d="M163.83,92.21a2.07,2.07,0,1,1-2.07-2.07h0a2.06,2.06,0,0,1,2.06,2.06Z"/><path class="cls-43" d="M207,111.65a2.06,2.06,0,1,1-2.06-2.06h0A2.07,2.07,0,0,1,207,111.65Z"/><path class="cls-43" d="M175.74,116.15a2.07,2.07,0,1,1-2.08-2.06h0A2.07,2.07,0,0,1,175.74,116.15Z"/><path class="cls-43" d="M254.4,117.56a2.06,2.06,0,1,1-2.06-2.07,2.06,2.06,0,0,1,2.06,2.07Z"/><path class="cls-43" d="M239.5,158a2.07,2.07,0,1,1-2.07-2.07h0A2.06,2.06,0,0,1,239.5,158Z"/><path class="cls-43" d="M257.4,96.56a2.06,2.06,0,1,1-2.06-2.06h0A2.06,2.06,0,0,1,257.4,96.56Z"/><path class="cls-44" d="M257.26,54.86a2.07,2.07,0,1,1-2.08-2.06h0A2.07,2.07,0,0,1,257.26,54.86Z"/><path class="cls-44" d="M295,82.47a2.07,2.07,0,1,1-2.07-2.07h0A2.06,2.06,0,0,1,295,82.46Z"/><path class="cls-44" d="M300.59,112.89a2.07,2.07,0,1,1-2.07-2.07h0a2.06,2.06,0,0,1,2.06,2.06Z"/><path class="cls-44" d="M232.42,32.84a2.07,2.07,0,1,1-2.07-2.07,2.07,2.07,0,0,1,2.07,2.07Z"/><path class="cls-43" d="M233.89,64.06A2.06,2.06,0,1,1,231.83,62h0A2.07,2.07,0,0,1,233.89,64.06Z"/><circle class="cls-43" cx="234.55" cy="128.99" r="2.06"/><path class="cls-43" d="M278.76,137.85a2.06,2.06,0,1,1-2.06-2.06h0A2.06,2.06,0,0,1,278.76,137.85Z"/><path class="cls-43" d="M180.86,135.65a2.07,2.07,0,1,1-2.07-2.09,2.07,2.07,0,0,1,2.07,2.09Z"/><path class="cls-43" d="M215.13,150.56a2.07,2.07,0,1,1-2.08-2.06h0A2.07,2.07,0,0,1,215.13,150.56Z"/><path class="cls-43" d="M270.92,157.41a2.07,2.07,0,1,1-2.07-2.07,2.07,2.07,0,0,1,2.07,2.07Z"/></g></g><g id="freepik--character-2--inject-42"><g id="freepik--character-girl--inject-42"><polygon class="cls-2" points="330.58 262.74 318.97 263.54 318.57 264.07 328.52 283.66 339.57 281.82 330.58 262.74"/><polygon class="cls-45" points="330.58 262.74 318.97 263.54 318.57 264.07 328.52 283.66 339.57 281.82 330.58 262.74"/><polygon class="cls-2" points="330.97 262.21 318.97 263.54 328.92 283.13 339.97 281.3 330.97 262.21"/><polygon class="cls-44" points="330.9 264.07 320.83 265.19 329.13 281.22 338.4 279.68 330.9 264.07"/><path class="cls-46" d="M328.92,264.86l-.41-.8c-.23-.45-1.17-.73-2.09-.63l-1.78.18c-.93.1-1.5.53-1.27,1l.41.8Z"/><path class="cls-12" d="M328,262a1,1,0,0,0-.94-.41l-.69.1A3.09,3.09,0,0,0,323.8,260c-1.63.06-.74,2-.74,2l-.73.11c-.4.06-.63.33-.51.6l.22.49,6.19-.69Z"/><path class="cls-13" d="M327.43,262.56c-.58,0-.8.09-.45.77s.74,1.37.74,1.37L325,265s-.5-1-.7-1.37a1,1,0,0,0-.92-.62l-.26-.33,4.34-.41Z"/><path class="cls-12" d="M329.07,265l-.41-.81a2.32,2.32,0,0,0-2.07-.6l-1.77.19c-.93.09-1.5.53-1.27,1l.41.81Z"/><path class="cls-47" d="M335,271.62s.31-1.78-.22-2.39-2.73-.53-3.81-1-1,.82-.43,1.24C331.73,270.37,334.19,270.79,335,271.62Z"/><g id="freepik--Character--inject-42"><path class="cls-48" d="M353.26,248.25c1.78.09,3.42,1.41,5.23,5.9s5.53,14.33,4.93,16c-.41,1.16-13.72,4.64-13.72,4.64l-1.92-4.07,8.83-4-5-11.55Z"/><path class="cls-2" d="M341.7,345.33a23,23,0,0,1,.63,2.3,6.27,6.27,0,0,1,.12,2.92c-.3.64-1.46,1.05-3.27,1a10.69,10.69,0,0,0-4.24,1.48,11.18,11.18,0,0,1-5.33.85c-1.61-.19-3.27-1.12-3.53-1.79s-.48-1.58,3.87-3c0,0,5.26-1.71,7.09-3.73Z"/><path class="cls-49" d="M341.7,345.33a23,23,0,0,1,.63,2.3,6.27,6.27,0,0,1,.12,2.92c-.3.64-1.46,1.05-3.27,1a10.69,10.69,0,0,0-4.24,1.48,11.18,11.18,0,0,1-5.33.85c-1.61-.19-3.27-1.12-3.53-1.79s-.48-1.58,3.87-3c0,0,5.26-1.71,7.09-3.73Z"/><path class="cls-50" d="M341.7,345.45l-.83-.1-3.83.08c-1.83,2-7.05,3.72-7.09,3.73l-.7.24c-.75.6-.11,1.64,1.69,1.8s7.38-1.72,8.62-2.32A3.7,3.7,0,0,0,341.7,345.45Z"/><path class="cls-50" d="M341.7,343.81v1.64c0,.6-.7,1.49-2.53,1.43-1.28-.05-2.18-.4-2.13-1.45V343.9Z"/><path class="cls-2" d="M354,338.46c.33.13.4.77.41,2,0,1,.18,2.62-.95,2.92a3.49,3.49,0,0,1-3.44-.83c-.87-1.14-1.44-2.15-2.68-3.55-1.07-1.21-2.24-2.35-2.64-4s0-2.16,1-2.57,2-.07,3.41,1.13a6.17,6.17,0,0,0,1.27.67C351.34,334.56,353.65,338.32,354,338.46Z"/><path class="cls-49" d="M354,338.46c.33.13.4.77.41,2,0,1,.18,2.62-.95,2.92a3.49,3.49,0,0,1-3.44-.83c-.87-1.14-1.44-2.15-2.68-3.55-1.07-1.21-2.24-2.35-2.64-4s0-2.16,1-2.57,2-.07,3.41,1.13a6.17,6.17,0,0,0,1.27.67C351.34,334.56,353.65,338.32,354,338.46Z"/><path class="cls-50" d="M354,337.29v1.55s-1,2-3.91,0c-.06-.16-.32-3.15-.32-3.15Z"/><path class="cls-50" d="M350.39,334.23a6.17,6.17,0,0,1-1.27-.67h0c-1.16-.37-3.6.06-2.5,1.74a13,13,0,0,0,3.44,3.54c1.3.64,1.76-.16,1.76-.16l-.46-3.62A3,3,0,0,0,350.39,334.23Z"/><path class="cls-2" d="M356.11,315.9a37.09,37.09,0,0,0-1.67-8s1-6.82,1.74-13.37c1.8-15.37.6-15.62-1.57-21,0,0-19.71-2.54-20.53,5.66-1,10.2-.56,30-.39,33.61s.47,5.26,1.54,12.84c.82,5.77,1.59,18.39,1.59,18.39a5,5,0,0,0,5.07-.26s2.47-15.52,2.41-19.69a35.8,35.8,0,0,0-1.33-9.14s1.67-16.63,2.1-19.28c0,0,.48,5.31.65,8.93s1.15,7.1,2,13.83c.75,5.85,2,18.05,2,18.05,2.59,1.49,4.39.81,4.39.81S356.68,321,356.11,315.9Z"/><path class="cls-51" d="M345.07,295.7l1.08-6.85a15.19,15.19,0,0,0,6.08-2.12,8.11,8.11,0,0,1-4.88,2.86l-1.1,8-.44,8.32Z"/><polygon class="cls-50" points="342.07 244.4 342.8 252.06 349.53 251.63 348.99 243.14 342.07 244.4"/><path class="cls-1" d="M355.59,251c-.68-2-2.08-3.21-5.16-3.25H349.3c-.22,1.13-3.53,2-6.81.89-.46.11-1.72.35-2.44.44l-1.56.23c-2.39.78-3.44,4.92-3.67,11.49s-1.21,20.6-1.21,20.6,5.13,2.75,13.22,1.68a16.14,16.14,0,0,0,9.81-4.68,50.5,50.5,0,0,0-3.74-10.52C356.69,258.56,356.59,254,355.59,251Z"/><path class="cls-12" d="M342.8,283.34a28.18,28.18,0,0,0,4-.25,15.69,15.69,0,0,0,9.8-4.72,50.7,50.7,0,0,0-3.73-10.48A43.34,43.34,0,0,0,356,257c-.31,2-3.21,9.57-7,11.85a6.79,6.79,0,0,1,4,2.85C354.84,274.18,353.33,282.8,342.8,283.34Z"/><path class="cls-13" d="M338.59,234.89s-2.55-3-.55-6c2.35-3.48,6.48-4.66,11.59-3.14,2.54.75,6.25,4.25,6.44,9.16.15,3.78-10.46,6.28-10.29,8.87Z"/><path class="cls-47" d="M337.08,236s-1.49,2.25-1.29,2.49a3.4,3.4,0,0,0,1.14.49Z"/><path class="cls-50" d="M341.64,228.86c-1.45.75-4,2.13-4.6,7.47s.56,7.38,1.31,8.09c.5.49,3.1.66,4.46.24,1.69-.52,5.37-2.34,7.1-5.17,2-3.32,2.44-7.76.1-9.49A8.76,8.76,0,0,0,341.64,228.86Z"/><path class="cls-13" d="M341.21,229.09s-1.26,5,.25,8.15c0,0,.88-2,2.56-1.39s1.53,2.81.2,4a2.51,2.51,0,0,1-2.61.56,4.55,4.55,0,0,0,2.41,3.86s4.94,2.36,9.4-2.41c4.05-4.33,3.53-12.09-2.44-14.08A10.27,10.27,0,0,0,341.21,229.09Z"/><path class="cls-13" d="M359.36,229.33a5.26,5.26,0,1,1-5.26-5.26,5.25,5.25,0,0,1,5.26,5.26Z"/><path class="cls-13" d="M337.36,226.84c-2.22,2.26-2.35,8.8,4.1,10.4l4.21-11.56C343.22,224.08,339.35,224.82,337.36,226.84Z"/><path class="cls-13" d="M340.81,239a1.27,1.27,0,1,1,.86-2.39Z"/><path class="cls-50" d="M339,249.25s-1-.15-5,.91-13.26,3.19-13.26,3.19-10.93-5.27-11.41-5.84-.21-1.73-.08-2.37.35-2.06.49-2.46c.25-.69-.78-.5-1.38.15s-.88,1.92-1.18,2.14-2.6-2.43-3.72-3.71-1.64-2.17-2.39-1.64c-.54.38-.19,1.13.61,2.23a12,12,0,0,1,1,1.45c.1.19-.2.35-.31.46s-.61.51-.63.81a4.17,4.17,0,0,1,0,.5c-.11.36-.56.53-.69.89s0,.54,0,.81-.13.33-.16.51a1.23,1.23,0,0,0,.36.94,9,9,0,0,0,2.88,1.86c.86.47,1.74.67,2.73,1.11s12.38,8.56,14.43,8.38c2.32-.2,16.47-2.73,16.47-2.73C341.39,254.31,339,249.25,339,249.25Z"/><path class="cls-52" d="M350.41,247.72a7.5,7.5,0,0,1,3.34.59c1.57.74,2.53,2.49,2.61,6.38s-3,13.42-3,13.42,3.28,7.74,3.89,11.14-.23,13.53-.23,13.53-6.44,5.27-19.26,3c-.26,0-.47-12-.73-12.1s-.5,11.86-.73,11.81c-1.21-.26-2.47-.59-3.78-1-2-.61.27-10,.31-14.32s.35-20.76,1.79-25a16.8,16.8,0,0,1,3.43-6.2h2.74Z"/><path class="cls-48" d="M340,249c-5.63-.42-12.75,2.69-19.27,4.35l-9-4.47s-2.82,3-1.19,5.18c0,0,8.35,6,10.34,6.4s16.7-2.59,16.7-2.59a5.44,5.44,0,0,0,3.29-4.54C341.25,249.78,340,249,340,249Z"/><path class="cls-48" d="M342.29,246.65a.76.76,0,0,0-.62.44c-.23.44-.85,1.88-.85,1.88s1.54,2,5.17,1.55,4.42-2.8,4.42-2.8-.37-2.08-1.26-2v.4s-.34.8-2.5,1.08C343.59,247.56,342.29,246.65,342.29,246.65Z"/><path class="cls-44" d="M342.07,268.71s6.33,1.59,10.19-.7c.59.53.55,1.13,0,2.14,0,0-3.78,2.24-10.16.61A1.56,1.56,0,0,1,342.07,268.71Z"/><path class="cls-48" d="M343.24,269.86a.57.57,0,1,1-.58-.56h0a.56.56,0,0,1,.57.55Z"/><path class="cls-48" d="M352.31,269.3a.56.56,0,0,1-.56.56.57.57,0,0,1-.57-.56.59.59,0,0,1,.57-.57A.57.57,0,0,1,352.31,269.3Z"/></g></g></g><g id="freepik--character-1--inject-42"><g id="freepik--character-boy--inject-42"><path class="cls-2" d="M111.21,329.56c-.32.13-.39.76-.41,2,0,.94-.18,2.59.92,2.89a3.45,3.45,0,0,0,3.41-.8,42.82,42.82,0,0,1,2.66-3.49,9.76,9.76,0,0,0,2.62-4c.36-1.49,0-2.13-1-2.54-1.4-.56-3.54,1.43-4.63,1.76C113.84,325.71,111.59,329.45,111.21,329.56Z"/><path class="cls-49" d="M111.18,329.56c-.32.13-.39.76-.42,2,0,.94-.18,2.59.93,2.89a3.47,3.47,0,0,0,3.41-.8,42.7,42.7,0,0,1,2.65-3.49,9.68,9.68,0,0,0,2.63-4c.36-1.49,0-2.13-1-2.54-1.4-.56-3.55,1.43-4.63,1.76S111.51,329.47,111.18,329.56Z"/><path class="cls-50" d="M111.19,328.43V330a3.72,3.72,0,0,0,3.86,0c.06-.15.35-2.19.35-2.19Z"/><path class="cls-2" d="M123.77,338.09a24.19,24.19,0,0,0-.62,2.51,6.75,6.75,0,0,0-.06,3.16c.34.68,1.61,1.1,3.56,1.05a11.47,11.47,0,0,1,4.62,1.49,11.93,11.93,0,0,0,5.79.79c1.73-.24,3.51-1.29,3.78-2s-.13-1.46-4.26-3.12c0,0-5.74-1.72-7.77-3.87Z"/><path class="cls-49" d="M123.77,338.09a24.19,24.19,0,0,0-.62,2.51,6.75,6.75,0,0,0-.06,3.16c.34.68,1.61,1.1,3.56,1.05a11.47,11.47,0,0,1,4.62,1.49,11.93,11.93,0,0,0,5.79.79c1.73-.24,3.51-1.29,3.78-2s-.13-1.46-4.26-3.12c0,0-5.74-1.72-7.77-3.87Z"/><path class="cls-50" d="M123.73,336.45v1.77c0,.64.79,1.6,2.77,1.48,1.39-.08,2.35-.47,2.27-1.62v-1.65Z"/><path class="cls-2" d="M109.74,308.2c.58-5,.89-8.09.89-8.09s-.72-6-1.12-12.52c-.45-7-.36-15.35.23-18.31,0,0,22.55-5.09,23.14,3s-.25,28.79-.44,32.36-.73,6.74-1.33,12.54-2.34,19.23-2.34,19.23a5.33,5.33,0,0,1-5,0s-2-16.2-1.89-20.32a35.58,35.58,0,0,1,1.36-9s-.58-6.68-1.09-12.5-1-8.6-1.12-11.13l-.49-.23s-.27,10.06-.46,13.63-.68,7-1.56,13.65c-.77,5.76-3.16,18-3.16,18-2.55,1.46-4.13-.09-4.13-.09S109.15,313.2,109.74,308.2Z"/><path class="cls-51" d="M121,283.49s-5.56-2.58-8.36-5a18.19,18.19,0,0,0,6,5.06s1.48,12.45,1.46,12.2l.42-12.3Z"/><polygon class="cls-50" points="124.84 237.22 123.67 244.63 116.99 244.29 117.77 235.63 124.84 237.22"/><path class="cls-48" d="M115.59,240.07S111,238.88,109,242.2s-.14,10.5-.14,10.5Z"/><path class="cls-52" d="M109.12,244.63c.61-2,3.93-5,6.49-4.56l1.74.29c.3,1.25,3.5,2.21,6.77,1.44,1,.26,1.89.53,2.71.8,2.35.78,4.52,2.75,4.88,10.41,0,0,2.08,22.71,2.1,34.15a21.47,21.47,0,0,1-4.16,1.26c-.15,0-.75-13.91-.9-13.88s0,14-.22,14.08a37.55,37.55,0,0,1-11,0,21.86,21.86,0,0,1-9.1-3.44s0-14.62,1-21.84c-.47-4.94-.57-8.23-.79-10C108.07,248.47,108.7,246,109.12,244.63Z"/><path class="cls-44" d="M120.75,265.45s-6.49.59-10-2.27c-.66.43-.71,1-.3,2.11,0,0,3.4,2.8,10,2.18A1.55,1.55,0,0,0,120.75,265.45Z"/><path class="cls-48" d="M119.42,266.41a.57.57,0,0,0,.48.65.57.57,0,1,0-.48-.65Z"/><path class="cls-48" d="M110.59,264.44a.58.58,0,0,0,.48.65.56.56,0,0,0,.64-.47h0a.57.57,0,0,0-.41-.7.56.56,0,0,0-.69.41A.36.36,0,0,0,110.59,264.44Z"/><path class="cls-48" d="M124.49,239.47s.32-.09.55.35a16.84,16.84,0,0,1,.62,2.42s-1.41,1.61-5,1.17a5.07,5.07,0,0,1-4.43-3.09s.46-2.14,1.34-2l-.06.75s.34.8,2.5,1.08A6.74,6.74,0,0,0,124.49,239.47Z"/><polygon class="cls-2" points="145.98 231.71 159.88 238.96 152.97 257.86 139.99 250.59 145.98 231.71"/><polygon class="cls-45" points="145.98 231.71 159.88 238.96 152.97 257.86 139.99 250.59 145.98 231.71"/><polygon class="cls-2" points="145.38 231.41 159.29 238.66 152.38 257.56 139.4 250.29 145.38 231.41"/><polygon class="cls-52" points="146.18 233.31 157.85 239.4 151.73 255.64 140.84 249.55 146.18 233.31"/><path class="cls-46" d="M149.08,235.31l.22-.58c.13-.32,1.1-.13,2.17.43l2.05,1.06c1.08.55,1.85,1.26,1.72,1.58l-.22.58Z"/><path class="cls-12" d="M149.3,233c.08-.2.5-.17.94.07l.81.43s.49-1.24,2.34-.38,1.43,2.31,1.43,2.31l.86.47c.47.26.8.64.75.84l-.11.37-7.16-3.74S149.22,233.2,149.3,233Z"/><path class="cls-13" d="M150.07,233.84c.67.32.93.48.74,1s-.42,1-.42,1l3.17,1.66s.26-.72.38-1,.34-.41.85-.15l.19-.2-5-2.54Z"/><path class="cls-12" d="M148.94,235.34l.22-.58c.13-.32,1.1-.13,2.17.43l2.06,1.06c1.07.55,1.84,1.26,1.72,1.58l-.23.58Z"/><path class="cls-50" d="M127.22,242.76c2.66.8,4.28.94,7.22,5.46s9.59,13,10.23,14.08a5.76,5.76,0,0,1,.29,5.16c-.72,1.28-2.44.53-5.36-2s-8.77-9.28-8.77-9.28A48.16,48.16,0,0,1,127.22,242.76Z"/><path class="cls-50" d="M144.06,268.09c2.46-.3,7.77-7.74,9.41-10.29a18.26,18.26,0,0,1,5-5.25c2.6-1.93,2.22-4.88,1.09-7.59-.4-.94-1.73-.33-1.73-.33l-.47,1.29-.82,2.22c-.55.51-.86.68-.9.53a18.09,18.09,0,0,0,.4-2.73c0-1.51-1.07-.52-1.38,0a19,19,0,0,0-1.11,2.48c-.53,1.34-.31,2.7-1,3.62s-9.21,9.13-9.21,9.13Z"/><path class="cls-48" d="M126.83,242.56a14.1,14.1,0,0,1,4,1.3c2.11,1.07,2.81,2.88,5.87,6.84s7,9.39,7,9.39l7.13-6.27a4.11,4.11,0,0,0,3.26,3,44.26,44.26,0,0,1-6.17,9.15c-3.53,3.79-3.55,3.6-6.77,1.71s-10.62-11-10.62-11S123.18,250.92,126.83,242.56Z"/><path class="cls-47" d="M129.78,228.13s1.75,2.66,1.55,2.92-1.48.49-1.48.49Z"/><path class="cls-13" d="M126.88,227.75a2.09,2.09,0,1,1,2.09,2.09h0A2.09,2.09,0,0,1,126.88,227.75Zm.46,0a1.63,1.63,0,1,0,1.64-1.62h0A1.63,1.63,0,0,0,127.34,227.75Z"/><path class="cls-50" d="M124.92,220.78c3.54.75,4.57,2.31,4.9,7.93.35,5.89-.25,7.73-1,8.53-.52.53-3.42.63-4.88.22-1.83-.5-6-2-7.91-4.92-2.28-3.49-2.87-8.2-.43-10.14C119,219.68,123.48,220.48,124.92,220.78Z"/><polygon class="cls-13" points="130.85 227.31 124.56 228.13 124.81 228.57 130.85 227.79 130.85 227.31"/><path class="cls-13" d="M130.21,222.62l-.1.1c-.69.65-1.56,1.06-2.27,1.67a5.2,5.2,0,0,0-1.61,2.57c-.24.81-.33,1.78-1.21,2.16,0,0-.56-2.18-2.4-1.91s-2.09,2.63-.93,4.06,2.25.88,2.25.88-.06,3.11-1.43,4.87a9.43,9.43,0,0,1-4.45-.11c-1.77-.38-4.28-2.59-5.33-4.94-2.23-5-2.38-9.42.78-10.76.34-2.28,2.14-3.31,4.19-3.78,3.07-.7,5.94,1.12,9,.44.64-.14,1.26-.37,1.9-.45a.28.28,0,0,1,.22,0c.16.08.15.3.1.46a4,4,0,0,1-.89,1.64,9.55,9.55,0,0,0,3.44-.43A4.44,4.44,0,0,1,130.21,222.62Z"/><path class="cls-13" d="M113.46,222l-2.12-1.25a1.23,1.23,0,0,1,2.12,1.25Z"/><path class="cls-13" d="M125.06,230.36l-.07-2.47a1.24,1.24,0,0,1,.07,2.47Z"/></g></g></g></g></svg>