<svg width="180" height="60" viewBox="0 0 180 60" fill="none" xmlns="http://www.w3.org/2000/svg">
<rect x="1" y="1" width="178" height="58" rx="15" fill="white"/>
<rect x="1" y="1" width="178" height="58" rx="15" stroke="black" stroke-width="2"/>
<g clip-path="url(#clip0_56_472)">
<path d="M37.8851 24.3486C33.7031 22.0096 26.9907 18.2535 16.5794 12.424C15.8775 11.9604 15.0699 11.8997 14.3721 12.1358L32.235 29.9988L37.8851 24.3486Z" fill="#32BBFF"/>
<path d="M14.3723 12.1357C14.2415 12.18 14.1143 12.2335 13.9925 12.298C13.222 12.7148 12.6558 13.5169 12.6558 14.5313V45.466C12.6558 46.4804 13.2219 47.2825 13.9925 47.6992C14.114 47.7637 14.2412 47.8174 14.3719 47.8619L32.2352 29.9987L14.3723 12.1357Z" fill="#32BBFF"/>
<path d="M32.2354 29.999L14.3721 47.8623C15.0701 48.1002 15.8777 48.0441 16.5798 47.5738C26.6766 41.92 33.3132 38.2084 37.5437 35.8495C37.6614 35.7833 37.7768 35.7186 37.8909 35.6546L32.2354 29.999Z" fill="#32BBFF"/>
<path d="M12.6558 29.999V45.4664C12.6558 46.4808 13.2219 47.2829 13.9925 47.6996C14.114 47.7641 14.2412 47.8177 14.3719 47.8623L32.2352 29.999H12.6558Z" fill="#2C9FD9"/>
<path d="M16.5798 12.4238C15.7462 11.8734 14.7632 11.8891 13.9927 12.298L31.9642 30.2697L37.8854 24.3485C33.7034 22.0094 26.9911 18.2534 16.5798 12.4238Z" fill="#29CC5E"/>
<path d="M31.9644 29.7275L13.9927 47.6991C14.7633 48.108 15.7462 48.1316 16.5798 47.5733C26.6765 41.9195 33.3132 38.2079 37.5436 35.849C37.6614 35.7828 37.7768 35.7181 37.8908 35.6541L31.9644 29.7275Z" fill="#D93F21"/>
<path d="M45.3443 29.9989C45.3443 29.1418 44.9119 28.2768 44.0547 27.7971C44.0547 27.7971 42.4516 26.9027 37.538 24.1543L31.6934 29.9989L37.5437 35.8493C42.4034 33.1206 44.0546 32.2006 44.0546 32.2006C44.9119 31.721 45.3443 30.856 45.3443 29.9989Z" fill="#FFD500"/>
<path d="M44.0547 32.2008C44.9119 31.7211 45.3443 30.8561 45.3443 29.999H31.6934L37.5437 35.8494C42.4034 33.1208 44.0547 32.2008 44.0547 32.2008Z" fill="#FFAA00"/>
</g>
<path d="M58.375 24H55.233V13.8182H58.5142C59.5019 13.8182 60.3471 14.022 61.0497 14.4297C61.7524 14.834 62.291 15.4157 62.6655 16.1747C63.04 16.9304 63.2273 17.8352 63.2273 18.8892C63.2273 19.9498 63.0384 20.8629 62.6605 21.6286C62.2827 22.3909 61.7325 22.9775 61.0099 23.3885C60.2874 23.7962 59.4091 24 58.375 24ZM56.4659 22.9062H58.2955C59.1373 22.9062 59.835 22.7438 60.3885 22.419C60.942 22.0942 61.3546 21.6319 61.6264 21.032C61.8982 20.4321 62.0341 19.7178 62.0341 18.8892C62.0341 18.0672 61.8999 17.3596 61.6314 16.7663C61.3629 16.1697 60.9619 15.7124 60.4283 15.3942C59.8946 15.0727 59.2301 14.9119 58.4347 14.9119H56.4659V22.9062ZM68.2386 24.1591C67.5492 24.1591 66.9444 23.995 66.424 23.6669C65.907 23.3388 65.5026 22.8797 65.2109 22.2898C64.9226 21.6998 64.7784 21.0104 64.7784 20.2216C64.7784 19.4261 64.9226 18.7318 65.2109 18.1385C65.5026 17.5452 65.907 17.0845 66.424 16.7564C66.9444 16.4283 67.5492 16.2642 68.2386 16.2642C68.928 16.2642 69.5313 16.4283 70.0483 16.7564C70.5687 17.0845 70.973 17.5452 71.2614 18.1385C71.553 18.7318 71.6989 19.4261 71.6989 20.2216C71.6989 21.0104 71.553 21.6998 71.2614 22.2898C70.973 22.8797 70.5687 23.3388 70.0483 23.6669C69.5313 23.995 68.928 24.1591 68.2386 24.1591ZM68.2386 23.1051C68.7623 23.1051 69.1932 22.9709 69.5312 22.7024C69.8693 22.4339 70.1196 22.081 70.282 21.6435C70.4444 21.206 70.5256 20.732 70.5256 20.2216C70.5256 19.7112 70.4444 19.2356 70.282 18.7947C70.1196 18.3539 69.8693 17.9976 69.5312 17.7259C69.1932 17.4541 68.7623 17.3182 68.2386 17.3182C67.715 17.3182 67.2841 17.4541 66.946 17.7259C66.608 17.9976 66.3577 18.3539 66.1953 18.7947C66.0329 19.2356 65.9517 19.7112 65.9517 20.2216C65.9517 20.732 66.0329 21.206 66.1953 21.6435C66.3577 22.081 66.608 22.4339 66.946 22.7024C67.2841 22.9709 67.715 23.1051 68.2386 23.1051ZM74.9602 24L72.6335 16.3636H73.8665L75.517 22.2102H75.5966L77.2273 16.3636H78.4801L80.0909 22.1903H80.1705L81.821 16.3636H83.054L80.7273 24H79.5739L77.9034 18.1335H77.7841L76.1136 24H74.9602ZM85.7784 19.4062V24H84.6051V16.3636H85.7386V17.5568H85.8381C86.017 17.169 86.2888 16.8575 86.6534 16.6222C87.018 16.3835 87.4886 16.2642 88.0653 16.2642C88.5824 16.2642 89.0348 16.3703 89.4226 16.5824C89.8104 16.7912 90.112 17.1094 90.3274 17.5369C90.5429 17.9612 90.6506 18.4981 90.6506 19.1477V24H89.4773V19.2273C89.4773 18.6274 89.3215 18.16 89.0099 17.8253C88.6984 17.4872 88.2708 17.3182 87.7273 17.3182C87.3527 17.3182 87.018 17.3994 86.723 17.5618C86.4313 17.7242 86.201 17.9612 86.032 18.2727C85.8629 18.5843 85.7784 18.9621 85.7784 19.4062ZM93.9679 13.8182V24H92.7946V13.8182H93.9679ZM99.2191 24.1591C98.5297 24.1591 97.9248 23.995 97.4045 23.6669C96.8874 23.3388 96.4831 22.8797 96.1914 22.2898C95.9031 21.6998 95.7589 21.0104 95.7589 20.2216C95.7589 19.4261 95.9031 18.7318 96.1914 18.1385C96.4831 17.5452 96.8874 17.0845 97.4045 16.7564C97.9248 16.4283 98.5297 16.2642 99.2191 16.2642C99.9085 16.2642 100.512 16.4283 101.029 16.7564C101.549 17.0845 101.953 17.5452 102.242 18.1385C102.533 18.7318 102.679 19.4261 102.679 20.2216C102.679 21.0104 102.533 21.6998 102.242 22.2898C101.953 22.8797 101.549 23.3388 101.029 23.6669C100.512 23.995 99.9085 24.1591 99.2191 24.1591ZM99.2191 23.1051C99.7428 23.1051 100.174 22.9709 100.512 22.7024C100.85 22.4339 101.1 22.081 101.262 21.6435C101.425 21.206 101.506 20.732 101.506 20.2216C101.506 19.7112 101.425 19.2356 101.262 18.7947C101.1 18.3539 100.85 17.9976 100.512 17.7259C100.174 17.4541 99.7428 17.3182 99.2191 17.3182C98.6954 17.3182 98.2646 17.4541 97.9265 17.7259C97.5884 17.9976 97.3382 18.3539 97.1758 18.7947C97.0134 19.2356 96.9322 19.7112 96.9322 20.2216C96.9322 20.732 97.0134 21.206 97.1758 21.6435C97.3382 22.081 97.5884 22.4339 97.9265 22.7024C98.2646 22.9709 98.6954 23.1051 99.2191 23.1051ZM106.718 24.179C106.234 24.179 105.794 24.0878 105.4 23.9055C105.006 23.7199 104.692 23.4531 104.46 23.1051C104.228 22.7538 104.112 22.3295 104.112 21.8324C104.112 21.3949 104.199 21.0402 104.371 20.7685C104.543 20.4934 104.774 20.2779 105.062 20.1222C105.35 19.9664 105.669 19.8504 106.017 19.7741C106.368 19.6946 106.721 19.6316 107.075 19.5852C107.539 19.5256 107.916 19.4808 108.204 19.451C108.496 19.4179 108.708 19.3632 108.84 19.2869C108.976 19.2107 109.044 19.0781 109.044 18.8892V18.8494C109.044 18.3589 108.91 17.9777 108.642 17.706C108.376 17.4342 107.974 17.2983 107.433 17.2983C106.873 17.2983 106.434 17.4209 106.116 17.6662C105.798 17.9115 105.574 18.1733 105.445 18.4517L104.331 18.054C104.53 17.59 104.795 17.2287 105.127 16.9702C105.461 16.7083 105.826 16.526 106.22 16.4233C106.618 16.3172 107.009 16.2642 107.394 16.2642C107.639 16.2642 107.921 16.294 108.239 16.3537C108.56 16.41 108.87 16.5277 109.169 16.7067C109.47 16.8857 109.72 17.1558 109.919 17.517C110.118 17.8783 110.218 18.3622 110.218 18.9688V24H109.044V22.9659H108.985C108.905 23.1316 108.772 23.3089 108.587 23.4979C108.401 23.6868 108.154 23.8475 107.846 23.9801C107.538 24.1127 107.162 24.179 106.718 24.179ZM106.896 23.125C107.36 23.125 107.752 23.0339 108.07 22.8516C108.391 22.6693 108.633 22.4339 108.796 22.1456C108.961 21.8572 109.044 21.554 109.044 21.2358V20.1619C108.994 20.2216 108.885 20.2763 108.716 20.326C108.55 20.3724 108.358 20.4138 108.139 20.4503C107.924 20.4834 107.713 20.5133 107.508 20.5398C107.306 20.563 107.142 20.5829 107.016 20.5994C106.711 20.6392 106.426 20.7038 106.161 20.7933C105.899 20.8795 105.687 21.0104 105.524 21.1861C105.365 21.3584 105.286 21.5937 105.286 21.892C105.286 22.2997 105.436 22.608 105.738 22.8168C106.043 23.0223 106.429 23.125 106.896 23.125ZM115.243 24.1591C114.606 24.1591 114.044 23.9983 113.557 23.6768C113.07 23.352 112.689 22.8946 112.414 22.3047C112.139 21.7114 112.001 21.0104 112.001 20.2017C112.001 19.3996 112.139 18.7036 112.414 18.1136C112.689 17.5237 113.072 17.0679 113.562 16.7464C114.053 16.425 114.619 16.2642 115.262 16.2642C115.76 16.2642 116.152 16.3471 116.441 16.5128C116.732 16.6752 116.954 16.8608 117.107 17.0696C117.263 17.2751 117.384 17.4441 117.47 17.5767H117.569V13.8182H118.743V24H117.609V22.8267H117.47C117.384 22.9659 117.261 23.1416 117.102 23.3537C116.943 23.5625 116.716 23.7498 116.421 23.9155C116.126 24.0779 115.733 24.1591 115.243 24.1591ZM115.402 23.1051C115.872 23.1051 116.27 22.9825 116.595 22.7372C116.92 22.4886 117.167 22.1456 117.336 21.7081C117.505 21.2673 117.589 20.7585 117.589 20.1818C117.589 19.6117 117.506 19.1129 117.341 18.6854C117.175 18.2545 116.93 17.9197 116.605 17.6811C116.28 17.4392 115.879 17.3182 115.402 17.3182C114.904 17.3182 114.49 17.4458 114.159 17.701C113.831 17.9529 113.584 18.2959 113.418 18.7301C113.256 19.161 113.174 19.6449 113.174 20.1818C113.174 20.7254 113.257 21.2192 113.423 21.6634C113.592 22.1042 113.841 22.4555 114.169 22.7173C114.5 22.9759 114.911 23.1051 115.402 23.1051ZM128.094 24.1591C127.405 24.1591 126.8 23.995 126.279 23.6669C125.762 23.3388 125.358 22.8797 125.066 22.2898C124.778 21.6998 124.634 21.0104 124.634 20.2216C124.634 19.4261 124.778 18.7318 125.066 18.1385C125.358 17.5452 125.762 17.0845 126.279 16.7564C126.8 16.4283 127.405 16.2642 128.094 16.2642C128.783 16.2642 129.387 16.4283 129.904 16.7564C130.424 17.0845 130.828 17.5452 131.117 18.1385C131.408 18.7318 131.554 19.4261 131.554 20.2216C131.554 21.0104 131.408 21.6998 131.117 22.2898C130.828 22.8797 130.424 23.3388 129.904 23.6669C129.387 23.995 128.783 24.1591 128.094 24.1591ZM128.094 23.1051C128.618 23.1051 129.049 22.9709 129.387 22.7024C129.725 22.4339 129.975 22.081 130.137 21.6435C130.3 21.206 130.381 20.732 130.381 20.2216C130.381 19.7112 130.3 19.2356 130.137 18.7947C129.975 18.3539 129.725 17.9976 129.387 17.7259C129.049 17.4541 128.618 17.3182 128.094 17.3182C127.57 17.3182 127.14 17.4541 126.801 17.7259C126.463 17.9976 126.213 18.3539 126.051 18.7947C125.888 19.2356 125.807 19.7112 125.807 20.2216C125.807 20.732 125.888 21.206 126.051 21.6435C126.213 22.081 126.463 22.4339 126.801 22.7024C127.14 22.9709 127.57 23.1051 128.094 23.1051ZM134.519 19.4062V24H133.345V16.3636H134.479V17.5568H134.578C134.757 17.169 135.029 16.8575 135.394 16.6222C135.758 16.3835 136.229 16.2642 136.806 16.2642C137.323 16.2642 137.775 16.3703 138.163 16.5824C138.551 16.7912 138.852 17.1094 139.068 17.5369C139.283 17.9612 139.391 18.4981 139.391 19.1477V24H138.218V19.2273C138.218 18.6274 138.062 18.16 137.75 17.8253C137.439 17.4872 137.011 17.3182 136.468 17.3182C136.093 17.3182 135.758 17.3994 135.463 17.5618C135.172 17.7242 134.941 17.9612 134.772 18.2727C134.603 18.5843 134.519 18.9621 134.519 19.4062ZM148.793 16.3636V17.358H144.836V16.3636H148.793ZM145.989 14.5341H147.163V21.8125C147.163 22.1439 147.211 22.3925 147.307 22.5582C147.406 22.7206 147.532 22.83 147.685 22.8864C147.84 22.9394 148.004 22.9659 148.177 22.9659C148.306 22.9659 148.412 22.9593 148.495 22.946C148.578 22.9295 148.644 22.9162 148.694 22.9062L148.933 23.9602C148.853 23.9901 148.742 24.0199 148.599 24.0497C148.457 24.0829 148.276 24.0994 148.058 24.0994C147.726 24.0994 147.401 24.0282 147.083 23.8857C146.768 23.7431 146.506 23.526 146.298 23.2344C146.092 22.9427 145.989 22.5748 145.989 22.1307V14.5341ZM151.896 19.4062V24H150.722V13.8182H151.896V17.5568H151.995C152.174 17.1624 152.442 16.8492 152.8 16.6172C153.162 16.3819 153.642 16.2642 154.242 16.2642C154.763 16.2642 155.218 16.3686 155.609 16.5774C156 16.7829 156.304 17.0994 156.519 17.527C156.738 17.9512 156.847 18.4915 156.847 19.1477V24H155.674V19.2273C155.674 18.6207 155.517 18.1518 155.202 17.8203C154.89 17.4856 154.458 17.3182 153.904 17.3182C153.52 17.3182 153.175 17.3994 152.87 17.5618C152.568 17.7242 152.33 17.9612 152.154 18.2727C151.982 18.5843 151.896 18.9621 151.896 19.4062ZM162.195 24.1591C161.46 24.1591 160.825 23.9967 160.291 23.6719C159.761 23.3438 159.352 22.8864 159.063 22.2997C158.778 21.7098 158.636 21.0237 158.636 20.2415C158.636 19.4593 158.778 18.7699 159.063 18.1733C159.352 17.5734 159.753 17.1061 160.267 16.7713C160.784 16.4332 161.387 16.2642 162.076 16.2642C162.474 16.2642 162.867 16.3305 163.254 16.4631C163.642 16.5956 163.995 16.8111 164.313 17.1094C164.632 17.4044 164.885 17.7955 165.074 18.2827C165.263 18.7699 165.357 19.3698 165.357 20.0824V20.5795H159.471V19.5653H164.164C164.164 19.1345 164.078 18.75 163.906 18.4119C163.737 18.0739 163.495 17.8071 163.18 17.6115C162.868 17.416 162.5 17.3182 162.076 17.3182C161.609 17.3182 161.204 17.4342 160.863 17.6662C160.525 17.8949 160.265 18.1932 160.083 18.5611C159.9 18.929 159.809 19.3234 159.809 19.7443V20.4205C159.809 20.9972 159.909 21.486 160.107 21.8871C160.31 22.2848 160.59 22.5881 160.948 22.7969C161.306 23.0024 161.722 23.1051 162.195 23.1051C162.504 23.1051 162.782 23.062 163.031 22.9759C163.283 22.8864 163.5 22.7538 163.682 22.5781C163.864 22.3991 164.005 22.1771 164.105 21.9119L165.238 22.2301C165.119 22.6146 164.918 22.9527 164.637 23.2443C164.355 23.5327 164.007 23.758 163.593 23.9205C163.178 24.0795 162.713 24.1591 162.195 24.1591ZM64.62 35.5945C64.5076 35.2301 64.3524 34.904 64.1545 34.6161C63.9611 34.3237 63.7272 34.0741 63.4528 33.8672C63.1829 33.6603 62.8725 33.5051 62.5217 33.4016C62.1708 33.2937 61.7885 33.2397 61.3746 33.2397C60.6325 33.2397 59.9712 33.4264 59.391 33.7997C58.8107 34.1731 58.3542 34.7218 58.0213 35.446C57.6929 36.1657 57.5288 37.0429 57.5288 38.0774C57.5288 39.121 57.6929 40.0049 58.0213 40.729C58.3497 41.4532 58.8062 42.0043 59.391 42.3821C59.9757 42.7554 60.6549 42.9421 61.4286 42.9421C62.1303 42.9421 62.7376 42.8072 63.2504 42.5373C63.7676 42.2674 64.1657 41.8851 64.4446 41.3903C64.7235 40.891 64.8629 40.3062 64.8629 39.636L65.4297 39.7237H61.6783V37.767H67.2852V39.4268C67.2852 40.6098 67.0333 41.6332 66.5295 42.4968C66.0257 43.3604 65.333 44.0262 64.4514 44.494C63.5697 44.9573 62.5576 45.1889 61.4151 45.1889C60.1422 45.1889 59.0244 44.9033 58.0618 44.332C57.1037 43.7563 56.3548 42.9399 55.815 41.8828C55.2797 40.8213 55.0121 39.5618 55.0121 38.1044C55.0121 36.9889 55.1695 35.9925 55.4844 35.1154C55.8037 34.2383 56.2491 33.4938 56.8203 32.8821C57.3916 32.2659 58.0618 31.7981 58.831 31.4787C59.6001 31.1548 60.4368 30.9929 61.3409 30.9929C62.1056 30.9929 62.8185 31.1053 63.4798 31.3303C64.141 31.5507 64.728 31.8655 65.2408 32.2749C65.758 32.6842 66.1831 33.17 66.516 33.7322C66.8488 34.2945 67.067 34.9152 67.1705 35.5945H64.62ZM74.1183 45.2024C73.1063 45.2024 72.2291 44.9798 71.4869 44.5344C70.7448 44.0891 70.169 43.4661 69.7597 42.6655C69.3548 41.8648 69.1524 40.9292 69.1524 39.8587C69.1524 38.7881 69.3548 37.8503 69.7597 37.0451C70.169 36.2399 70.7448 35.6147 71.4869 35.1694C72.2291 34.7241 73.1063 34.5014 74.1183 34.5014C75.1304 34.5014 76.0075 34.7241 76.7497 35.1694C77.4919 35.6147 78.0654 36.2399 78.4703 37.0451C78.8796 37.8503 79.0843 38.7881 79.0843 39.8587C79.0843 40.9292 78.8796 41.8648 78.4703 42.6655C78.0654 43.4661 77.4919 44.0891 76.7497 44.5344C76.0075 44.9798 75.1304 45.2024 74.1183 45.2024ZM74.1318 43.2457C74.6806 43.2457 75.1394 43.0951 75.5083 42.7937C75.8771 42.4878 76.1515 42.0785 76.3314 41.5657C76.5158 41.0529 76.608 40.4817 76.608 39.8519C76.608 39.2177 76.5158 38.6442 76.3314 38.1314C76.1515 37.6141 75.8771 37.2025 75.5083 36.8967C75.1394 36.5908 74.6806 36.4379 74.1318 36.4379C73.5696 36.4379 73.1018 36.5908 72.7284 36.8967C72.3596 37.2025 72.0829 37.6141 71.8985 38.1314C71.7186 38.6442 71.6286 39.2177 71.6286 39.8519C71.6286 40.4817 71.7186 41.0529 71.8985 41.5657C72.0829 42.0785 72.3596 42.4878 72.7284 42.7937C73.1018 43.0951 73.5696 43.2457 74.1318 43.2457ZM85.6779 45.2024C84.6658 45.2024 83.7887 44.9798 83.0465 44.5344C82.3043 44.0891 81.7286 43.4661 81.3192 42.6655C80.9144 41.8648 80.712 40.9292 80.712 39.8587C80.712 38.7881 80.9144 37.8503 81.3192 37.0451C81.7286 36.2399 82.3043 35.6147 83.0465 35.1694C83.7887 34.7241 84.6658 34.5014 85.6779 34.5014C86.69 34.5014 87.5671 34.7241 88.3093 35.1694C89.0515 35.6147 89.625 36.2399 90.0298 37.0451C90.4392 37.8503 90.6438 38.7881 90.6438 39.8587C90.6438 40.9292 90.4392 41.8648 90.0298 42.6655C89.625 43.4661 89.0515 44.0891 88.3093 44.5344C87.5671 44.9798 86.69 45.2024 85.6779 45.2024ZM85.6914 43.2457C86.2402 43.2457 86.699 43.0951 87.0678 42.7937C87.4367 42.4878 87.7111 42.0785 87.891 41.5657C88.0754 41.0529 88.1676 40.4817 88.1676 39.8519C88.1676 39.2177 88.0754 38.6442 87.891 38.1314C87.7111 37.6141 87.4367 37.2025 87.0678 36.8967C86.699 36.5908 86.2402 36.4379 85.6914 36.4379C85.1291 36.4379 84.6613 36.5908 84.288 36.8967C83.9192 37.2025 83.6425 37.6141 83.4581 38.1314C83.2782 38.6442 83.1882 39.2177 83.1882 39.8519C83.1882 40.4817 83.2782 41.0529 83.4581 41.5657C83.6425 42.0785 83.9192 42.4878 84.288 42.7937C84.6613 43.0951 85.1291 43.2457 85.6914 43.2457ZM97.224 49.1023C96.3469 49.1023 95.5934 48.9831 94.9637 48.7447C94.334 48.5108 93.8279 48.1959 93.4456 47.8001C93.0632 47.4042 92.7979 46.9657 92.6494 46.4844L94.849 45.9513C94.9479 46.1538 95.0919 46.3539 95.2808 46.5518C95.4697 46.7543 95.7239 46.9207 96.0432 47.0511C96.3671 47.1861 96.7742 47.2536 97.2645 47.2536C97.9572 47.2536 98.5307 47.0849 98.985 46.7475C99.4393 46.4147 99.6665 45.8659 99.6665 45.1012V43.1378H99.545C99.4191 43.3897 99.2346 43.6483 98.9917 43.9137C98.7533 44.1791 98.4362 44.4018 98.0404 44.5817C97.6491 44.7616 97.1565 44.8516 96.5628 44.8516C95.7666 44.8516 95.0447 44.6649 94.3969 44.2915C93.7537 43.9137 93.2409 43.3514 92.8586 42.6048C92.4807 41.8536 92.2918 40.9135 92.2918 39.7844C92.2918 38.6464 92.4807 37.6861 92.8586 36.9034C93.2409 36.1162 93.7559 35.5202 94.4037 35.1154C95.0514 34.7061 95.7733 34.5014 96.5695 34.5014C97.1768 34.5014 97.676 34.6049 98.0674 34.8118C98.4632 35.0142 98.7781 35.2594 99.012 35.5472C99.2459 35.8306 99.4236 36.0982 99.545 36.3501H99.68V34.6364H102.089V45.1687C102.089 46.0548 101.877 46.788 101.454 47.3683C101.032 47.9485 100.454 48.3826 99.7204 48.6705C98.9872 48.9583 98.1551 49.1023 97.224 49.1023ZM97.2442 42.9354C97.7615 42.9354 98.2023 42.8094 98.5667 42.5575C98.931 42.3056 99.2077 41.9435 99.3966 41.4712C99.5855 40.9989 99.68 40.4322 99.68 39.771C99.68 39.1187 99.5855 38.5475 99.3966 38.0572C99.2122 37.5669 98.9378 37.1868 98.5734 36.9169C98.2136 36.6425 97.7705 36.5053 97.2442 36.5053C96.7 36.5053 96.2457 36.647 95.8813 36.9304C95.517 37.2138 95.2426 37.6029 95.0582 38.0977C94.8737 38.5879 94.7815 39.1457 94.7815 39.771C94.7815 40.4052 94.8737 40.9607 95.0582 41.4375C95.2471 41.9098 95.5237 42.2786 95.8881 42.544C96.2569 42.8049 96.709 42.9354 97.2442 42.9354ZM107.034 31.1818V45H104.592V31.1818H107.034ZM114.134 45.2024C113.095 45.2024 112.198 44.9865 111.442 44.5547C110.691 44.1184 110.113 43.5021 109.708 42.706C109.303 41.9053 109.101 40.9629 109.101 39.8789C109.101 38.8129 109.303 37.8772 109.708 37.0721C110.117 36.2624 110.689 35.6327 111.422 35.1829C112.155 34.7286 113.016 34.5014 114.006 34.5014C114.645 34.5014 115.247 34.6049 115.814 34.8118C116.385 35.0142 116.889 35.3291 117.325 35.7564C117.766 36.1837 118.113 36.728 118.365 37.3892C118.616 38.0459 118.742 38.8286 118.742 39.7372V40.4862H110.248V38.8398H116.401C116.397 38.372 116.295 37.956 116.097 37.5916C115.9 37.2228 115.623 36.9326 115.268 36.7212C114.917 36.5098 114.507 36.4041 114.04 36.4041C113.54 36.4041 113.102 36.5256 112.724 36.7685C112.346 37.0069 112.051 37.3217 111.84 37.7131C111.633 38.0999 111.527 38.525 111.523 38.9883V40.4254C111.523 41.0282 111.633 41.5455 111.854 41.9773C112.074 42.4046 112.382 42.733 112.778 42.9624C113.174 43.1873 113.637 43.2997 114.168 43.2997C114.523 43.2997 114.845 43.2502 115.133 43.1513C115.421 43.0478 115.67 42.8971 115.882 42.6992C116.093 42.5013 116.253 42.2562 116.361 41.9638L118.641 42.2202C118.497 42.8229 118.223 43.3492 117.818 43.799C117.418 44.2443 116.905 44.5907 116.28 44.8381C115.654 45.081 114.939 45.2024 114.134 45.2024ZM125.63 45V31.1818H130.811C131.873 31.1818 132.764 31.3797 133.483 31.7756C134.207 32.1714 134.754 32.7157 135.123 33.4084C135.496 34.0966 135.683 34.8793 135.683 35.7564C135.683 36.6425 135.496 37.4297 135.123 38.1179C134.749 38.8061 134.198 39.3481 133.47 39.744C132.741 40.1353 131.844 40.331 130.778 40.331H127.343V38.2731H130.44C131.061 38.2731 131.569 38.1651 131.965 37.9492C132.361 37.7333 132.653 37.4364 132.842 37.0586C133.036 36.6808 133.132 36.2467 133.132 35.7564C133.132 35.2661 133.036 34.8343 132.842 34.4609C132.653 34.0876 132.359 33.7975 131.958 33.5906C131.563 33.3791 131.052 33.2734 130.427 33.2734H128.133V45H125.63ZM140.192 31.1818V45H137.749V31.1818H140.192ZM145.685 45.2092C145.029 45.2092 144.437 45.0922 143.911 44.8583C143.389 44.6199 142.975 44.2691 142.669 43.8058C142.368 43.3424 142.217 42.7712 142.217 42.092C142.217 41.5072 142.325 41.0237 142.541 40.6413C142.757 40.259 143.052 39.9531 143.425 39.7237C143.799 39.4943 144.219 39.3211 144.687 39.2042C145.159 39.0827 145.647 38.995 146.151 38.9411C146.758 38.8781 147.251 38.8219 147.629 38.7724C148.006 38.7184 148.281 38.6374 148.452 38.5295C148.627 38.417 148.715 38.2438 148.715 38.0099V37.9695C148.715 37.4612 148.564 37.0676 148.263 36.7887C147.961 36.5098 147.527 36.3704 146.961 36.3704C146.362 36.3704 145.888 36.5008 145.537 36.7617C145.191 37.0226 144.957 37.3307 144.835 37.6861L142.555 37.3622C142.735 36.7325 143.032 36.2062 143.445 35.7834C143.859 35.3561 144.365 35.0367 144.964 34.8253C145.562 34.6094 146.223 34.5014 146.947 34.5014C147.446 34.5014 147.944 34.5599 148.438 34.6768C148.933 34.7938 149.385 34.9872 149.794 35.2571C150.204 35.5225 150.532 35.8846 150.78 36.3434C151.031 36.8022 151.157 37.3757 151.157 38.0639V45H148.809V43.5763H148.728C148.58 43.8642 148.371 44.1341 148.101 44.386C147.836 44.6334 147.5 44.8336 147.096 44.9865C146.695 45.1349 146.225 45.2092 145.685 45.2092ZM146.32 43.4144C146.81 43.4144 147.235 43.3177 147.595 43.1243C147.955 42.9264 148.231 42.6655 148.425 42.3416C148.623 42.0178 148.722 41.6647 148.722 41.2823V40.0611C148.645 40.1241 148.515 40.1825 148.33 40.2365C148.15 40.2905 147.948 40.3377 147.723 40.3782C147.498 40.4187 147.276 40.4547 147.055 40.4862C146.835 40.5176 146.644 40.5446 146.482 40.5671C146.117 40.6166 145.791 40.6976 145.503 40.81C145.215 40.9225 144.988 41.0799 144.822 41.2823C144.655 41.4802 144.572 41.7366 144.572 42.0515C144.572 42.5013 144.736 42.8409 145.065 43.0703C145.393 43.2997 145.811 43.4144 146.32 43.4144ZM154.76 48.8864C154.428 48.8864 154.119 48.8594 153.836 48.8054C153.557 48.7559 153.334 48.6974 153.168 48.63L153.735 46.7273C154.09 46.8307 154.407 46.8802 154.686 46.8757C154.965 46.8712 155.21 46.7835 155.422 46.6126C155.638 46.4461 155.82 46.1673 155.968 45.7759L156.177 45.2159L152.419 34.6364H155.01L157.399 42.4631H157.506L159.902 34.6364H162.499L158.35 46.255C158.156 46.8037 157.9 47.2738 157.581 47.6651C157.261 48.061 156.87 48.3623 156.407 48.5692C155.948 48.7807 155.399 48.8864 154.76 48.8864Z" fill="black"/>
<defs>
<clipPath id="clip0_56_472">
<rect width="36" height="36" fill="white" transform="translate(11 12)"/>
</clipPath>
</defs>
</svg>
